%TF.GenerationSoftware,KiCad,Pcbnew,7.0.5*%
%TF.CreationDate,2024-03-11T15:50:26-06:00*%
%TF.ProjectId,micro-d-tes-aaray,6d696372-6f2d-4642-9d74-65732d616172,rev?*%
%TF.SameCoordinates,Original*%
%TF.FileFunction,Legend,Top*%
%TF.FilePolarity,Positive*%
%FSLAX46Y46*%
G04 Gerber Fmt 4.6, Leading zero omitted, Abs format (unit mm)*
G04 Created by KiCad (PCBNEW 7.0.5) date 2024-03-11 15:50:26*
%MOMM*%
%LPD*%
G01*
G04 APERTURE LIST*
G04 Aperture macros list*
%AMRoundRect*
0 Rectangle with rounded corners*
0 $1 Rounding radius*
0 $2 $3 $4 $5 $6 $7 $8 $9 X,Y pos of 4 corners*
0 Add a 4 corners polygon primitive as box body*
4,1,4,$2,$3,$4,$5,$6,$7,$8,$9,$2,$3,0*
0 Add four circle primitives for the rounded corners*
1,1,$1+$1,$2,$3*
1,1,$1+$1,$4,$5*
1,1,$1+$1,$6,$7*
1,1,$1+$1,$8,$9*
0 Add four rect primitives between the rounded corners*
20,1,$1+$1,$2,$3,$4,$5,0*
20,1,$1+$1,$4,$5,$6,$7,0*
20,1,$1+$1,$6,$7,$8,$9,0*
20,1,$1+$1,$8,$9,$2,$3,0*%
G04 Aperture macros list end*
%ADD10C,0.150000*%
%ADD11C,0.120000*%
%ADD12R,2.600000X2.600000*%
%ADD13C,2.600000*%
%ADD14RoundRect,0.250000X-0.262500X-0.450000X0.262500X-0.450000X0.262500X0.450000X-0.262500X0.450000X0*%
%ADD15RoundRect,0.250000X-0.250000X-0.475000X0.250000X-0.475000X0.250000X0.475000X-0.250000X0.475000X0*%
%ADD16O,0.920000X0.920000*%
G04 APERTURE END LIST*
D10*
%TO.C,J2*%
X55329819Y-24128333D02*
X56044104Y-24128333D01*
X56044104Y-24128333D02*
X56186961Y-24175952D01*
X56186961Y-24175952D02*
X56282200Y-24271190D01*
X56282200Y-24271190D02*
X56329819Y-24414047D01*
X56329819Y-24414047D02*
X56329819Y-24509285D01*
X55425057Y-23699761D02*
X55377438Y-23652142D01*
X55377438Y-23652142D02*
X55329819Y-23556904D01*
X55329819Y-23556904D02*
X55329819Y-23318809D01*
X55329819Y-23318809D02*
X55377438Y-23223571D01*
X55377438Y-23223571D02*
X55425057Y-23175952D01*
X55425057Y-23175952D02*
X55520295Y-23128333D01*
X55520295Y-23128333D02*
X55615533Y-23128333D01*
X55615533Y-23128333D02*
X55758390Y-23175952D01*
X55758390Y-23175952D02*
X56329819Y-23747380D01*
X56329819Y-23747380D02*
X56329819Y-23128333D01*
%TO.C,J4*%
X55049819Y-50128333D02*
X55764104Y-50128333D01*
X55764104Y-50128333D02*
X55906961Y-50175952D01*
X55906961Y-50175952D02*
X56002200Y-50271190D01*
X56002200Y-50271190D02*
X56049819Y-50414047D01*
X56049819Y-50414047D02*
X56049819Y-50509285D01*
X55383152Y-49223571D02*
X56049819Y-49223571D01*
X55002200Y-49461666D02*
X55716485Y-49699761D01*
X55716485Y-49699761D02*
X55716485Y-49080714D01*
%TO.C,R2*%
X41358333Y-44219819D02*
X41025000Y-43743628D01*
X40786905Y-44219819D02*
X40786905Y-43219819D01*
X40786905Y-43219819D02*
X41167857Y-43219819D01*
X41167857Y-43219819D02*
X41263095Y-43267438D01*
X41263095Y-43267438D02*
X41310714Y-43315057D01*
X41310714Y-43315057D02*
X41358333Y-43410295D01*
X41358333Y-43410295D02*
X41358333Y-43553152D01*
X41358333Y-43553152D02*
X41310714Y-43648390D01*
X41310714Y-43648390D02*
X41263095Y-43696009D01*
X41263095Y-43696009D02*
X41167857Y-43743628D01*
X41167857Y-43743628D02*
X40786905Y-43743628D01*
X41739286Y-43315057D02*
X41786905Y-43267438D01*
X41786905Y-43267438D02*
X41882143Y-43219819D01*
X41882143Y-43219819D02*
X42120238Y-43219819D01*
X42120238Y-43219819D02*
X42215476Y-43267438D01*
X42215476Y-43267438D02*
X42263095Y-43315057D01*
X42263095Y-43315057D02*
X42310714Y-43410295D01*
X42310714Y-43410295D02*
X42310714Y-43505533D01*
X42310714Y-43505533D02*
X42263095Y-43648390D01*
X42263095Y-43648390D02*
X41691667Y-44219819D01*
X41691667Y-44219819D02*
X42310714Y-44219819D01*
%TO.C,C4*%
X41378333Y-66104580D02*
X41330714Y-66152200D01*
X41330714Y-66152200D02*
X41187857Y-66199819D01*
X41187857Y-66199819D02*
X41092619Y-66199819D01*
X41092619Y-66199819D02*
X40949762Y-66152200D01*
X40949762Y-66152200D02*
X40854524Y-66056961D01*
X40854524Y-66056961D02*
X40806905Y-65961723D01*
X40806905Y-65961723D02*
X40759286Y-65771247D01*
X40759286Y-65771247D02*
X40759286Y-65628390D01*
X40759286Y-65628390D02*
X40806905Y-65437914D01*
X40806905Y-65437914D02*
X40854524Y-65342676D01*
X40854524Y-65342676D02*
X40949762Y-65247438D01*
X40949762Y-65247438D02*
X41092619Y-65199819D01*
X41092619Y-65199819D02*
X41187857Y-65199819D01*
X41187857Y-65199819D02*
X41330714Y-65247438D01*
X41330714Y-65247438D02*
X41378333Y-65295057D01*
X42235476Y-65533152D02*
X42235476Y-66199819D01*
X41997381Y-65152200D02*
X41759286Y-65866485D01*
X41759286Y-65866485D02*
X42378333Y-65866485D01*
%TO.C,J3*%
X55189819Y-37128333D02*
X55904104Y-37128333D01*
X55904104Y-37128333D02*
X56046961Y-37175952D01*
X56046961Y-37175952D02*
X56142200Y-37271190D01*
X56142200Y-37271190D02*
X56189819Y-37414047D01*
X56189819Y-37414047D02*
X56189819Y-37509285D01*
X55189819Y-36747380D02*
X55189819Y-36128333D01*
X55189819Y-36128333D02*
X55570771Y-36461666D01*
X55570771Y-36461666D02*
X55570771Y-36318809D01*
X55570771Y-36318809D02*
X55618390Y-36223571D01*
X55618390Y-36223571D02*
X55666009Y-36175952D01*
X55666009Y-36175952D02*
X55761247Y-36128333D01*
X55761247Y-36128333D02*
X55999342Y-36128333D01*
X55999342Y-36128333D02*
X56094580Y-36175952D01*
X56094580Y-36175952D02*
X56142200Y-36223571D01*
X56142200Y-36223571D02*
X56189819Y-36318809D01*
X56189819Y-36318809D02*
X56189819Y-36604523D01*
X56189819Y-36604523D02*
X56142200Y-36699761D01*
X56142200Y-36699761D02*
X56094580Y-36747380D01*
%TO.C,J1*%
X41161666Y-27489819D02*
X41161666Y-28204104D01*
X41161666Y-28204104D02*
X41114047Y-28346961D01*
X41114047Y-28346961D02*
X41018809Y-28442200D01*
X41018809Y-28442200D02*
X40875952Y-28489819D01*
X40875952Y-28489819D02*
X40780714Y-28489819D01*
X42161666Y-28489819D02*
X41590238Y-28489819D01*
X41875952Y-28489819D02*
X41875952Y-27489819D01*
X41875952Y-27489819D02*
X41780714Y-27632676D01*
X41780714Y-27632676D02*
X41685476Y-27727914D01*
X41685476Y-27727914D02*
X41590238Y-27775533D01*
%TO.C,R3*%
X41358333Y-54169819D02*
X41025000Y-53693628D01*
X40786905Y-54169819D02*
X40786905Y-53169819D01*
X40786905Y-53169819D02*
X41167857Y-53169819D01*
X41167857Y-53169819D02*
X41263095Y-53217438D01*
X41263095Y-53217438D02*
X41310714Y-53265057D01*
X41310714Y-53265057D02*
X41358333Y-53360295D01*
X41358333Y-53360295D02*
X41358333Y-53503152D01*
X41358333Y-53503152D02*
X41310714Y-53598390D01*
X41310714Y-53598390D02*
X41263095Y-53646009D01*
X41263095Y-53646009D02*
X41167857Y-53693628D01*
X41167857Y-53693628D02*
X40786905Y-53693628D01*
X41691667Y-53169819D02*
X42310714Y-53169819D01*
X42310714Y-53169819D02*
X41977381Y-53550771D01*
X41977381Y-53550771D02*
X42120238Y-53550771D01*
X42120238Y-53550771D02*
X42215476Y-53598390D01*
X42215476Y-53598390D02*
X42263095Y-53646009D01*
X42263095Y-53646009D02*
X42310714Y-53741247D01*
X42310714Y-53741247D02*
X42310714Y-53979342D01*
X42310714Y-53979342D02*
X42263095Y-54074580D01*
X42263095Y-54074580D02*
X42215476Y-54122200D01*
X42215476Y-54122200D02*
X42120238Y-54169819D01*
X42120238Y-54169819D02*
X41834524Y-54169819D01*
X41834524Y-54169819D02*
X41739286Y-54122200D01*
X41739286Y-54122200D02*
X41691667Y-54074580D01*
%TO.C,R4*%
X41358333Y-63119819D02*
X41025000Y-62643628D01*
X40786905Y-63119819D02*
X40786905Y-62119819D01*
X40786905Y-62119819D02*
X41167857Y-62119819D01*
X41167857Y-62119819D02*
X41263095Y-62167438D01*
X41263095Y-62167438D02*
X41310714Y-62215057D01*
X41310714Y-62215057D02*
X41358333Y-62310295D01*
X41358333Y-62310295D02*
X41358333Y-62453152D01*
X41358333Y-62453152D02*
X41310714Y-62548390D01*
X41310714Y-62548390D02*
X41263095Y-62596009D01*
X41263095Y-62596009D02*
X41167857Y-62643628D01*
X41167857Y-62643628D02*
X40786905Y-62643628D01*
X42215476Y-62453152D02*
X42215476Y-63119819D01*
X41977381Y-62072200D02*
X41739286Y-62786485D01*
X41739286Y-62786485D02*
X42358333Y-62786485D01*
%TO.C,C1*%
X41408333Y-37384580D02*
X41360714Y-37432200D01*
X41360714Y-37432200D02*
X41217857Y-37479819D01*
X41217857Y-37479819D02*
X41122619Y-37479819D01*
X41122619Y-37479819D02*
X40979762Y-37432200D01*
X40979762Y-37432200D02*
X40884524Y-37336961D01*
X40884524Y-37336961D02*
X40836905Y-37241723D01*
X40836905Y-37241723D02*
X40789286Y-37051247D01*
X40789286Y-37051247D02*
X40789286Y-36908390D01*
X40789286Y-36908390D02*
X40836905Y-36717914D01*
X40836905Y-36717914D02*
X40884524Y-36622676D01*
X40884524Y-36622676D02*
X40979762Y-36527438D01*
X40979762Y-36527438D02*
X41122619Y-36479819D01*
X41122619Y-36479819D02*
X41217857Y-36479819D01*
X41217857Y-36479819D02*
X41360714Y-36527438D01*
X41360714Y-36527438D02*
X41408333Y-36575057D01*
X42360714Y-37479819D02*
X41789286Y-37479819D01*
X42075000Y-37479819D02*
X42075000Y-36479819D01*
X42075000Y-36479819D02*
X41979762Y-36622676D01*
X41979762Y-36622676D02*
X41884524Y-36717914D01*
X41884524Y-36717914D02*
X41789286Y-36765533D01*
%TO.C,J5*%
X54909819Y-65128333D02*
X55624104Y-65128333D01*
X55624104Y-65128333D02*
X55766961Y-65175952D01*
X55766961Y-65175952D02*
X55862200Y-65271190D01*
X55862200Y-65271190D02*
X55909819Y-65414047D01*
X55909819Y-65414047D02*
X55909819Y-65509285D01*
X54909819Y-64175952D02*
X54909819Y-64652142D01*
X54909819Y-64652142D02*
X55386009Y-64699761D01*
X55386009Y-64699761D02*
X55338390Y-64652142D01*
X55338390Y-64652142D02*
X55290771Y-64556904D01*
X55290771Y-64556904D02*
X55290771Y-64318809D01*
X55290771Y-64318809D02*
X55338390Y-64223571D01*
X55338390Y-64223571D02*
X55386009Y-64175952D01*
X55386009Y-64175952D02*
X55481247Y-64128333D01*
X55481247Y-64128333D02*
X55719342Y-64128333D01*
X55719342Y-64128333D02*
X55814580Y-64175952D01*
X55814580Y-64175952D02*
X55862200Y-64223571D01*
X55862200Y-64223571D02*
X55909819Y-64318809D01*
X55909819Y-64318809D02*
X55909819Y-64556904D01*
X55909819Y-64556904D02*
X55862200Y-64652142D01*
X55862200Y-64652142D02*
X55814580Y-64699761D01*
%TO.C,C3*%
X41378333Y-57094580D02*
X41330714Y-57142200D01*
X41330714Y-57142200D02*
X41187857Y-57189819D01*
X41187857Y-57189819D02*
X41092619Y-57189819D01*
X41092619Y-57189819D02*
X40949762Y-57142200D01*
X40949762Y-57142200D02*
X40854524Y-57046961D01*
X40854524Y-57046961D02*
X40806905Y-56951723D01*
X40806905Y-56951723D02*
X40759286Y-56761247D01*
X40759286Y-56761247D02*
X40759286Y-56618390D01*
X40759286Y-56618390D02*
X40806905Y-56427914D01*
X40806905Y-56427914D02*
X40854524Y-56332676D01*
X40854524Y-56332676D02*
X40949762Y-56237438D01*
X40949762Y-56237438D02*
X41092619Y-56189819D01*
X41092619Y-56189819D02*
X41187857Y-56189819D01*
X41187857Y-56189819D02*
X41330714Y-56237438D01*
X41330714Y-56237438D02*
X41378333Y-56285057D01*
X41711667Y-56189819D02*
X42330714Y-56189819D01*
X42330714Y-56189819D02*
X41997381Y-56570771D01*
X41997381Y-56570771D02*
X42140238Y-56570771D01*
X42140238Y-56570771D02*
X42235476Y-56618390D01*
X42235476Y-56618390D02*
X42283095Y-56666009D01*
X42283095Y-56666009D02*
X42330714Y-56761247D01*
X42330714Y-56761247D02*
X42330714Y-56999342D01*
X42330714Y-56999342D02*
X42283095Y-57094580D01*
X42283095Y-57094580D02*
X42235476Y-57142200D01*
X42235476Y-57142200D02*
X42140238Y-57189819D01*
X42140238Y-57189819D02*
X41854524Y-57189819D01*
X41854524Y-57189819D02*
X41759286Y-57142200D01*
X41759286Y-57142200D02*
X41711667Y-57094580D01*
%TO.C,C5*%
X41378333Y-29114580D02*
X41330714Y-29162200D01*
X41330714Y-29162200D02*
X41187857Y-29209819D01*
X41187857Y-29209819D02*
X41092619Y-29209819D01*
X41092619Y-29209819D02*
X40949762Y-29162200D01*
X40949762Y-29162200D02*
X40854524Y-29066961D01*
X40854524Y-29066961D02*
X40806905Y-28971723D01*
X40806905Y-28971723D02*
X40759286Y-28781247D01*
X40759286Y-28781247D02*
X40759286Y-28638390D01*
X40759286Y-28638390D02*
X40806905Y-28447914D01*
X40806905Y-28447914D02*
X40854524Y-28352676D01*
X40854524Y-28352676D02*
X40949762Y-28257438D01*
X40949762Y-28257438D02*
X41092619Y-28209819D01*
X41092619Y-28209819D02*
X41187857Y-28209819D01*
X41187857Y-28209819D02*
X41330714Y-28257438D01*
X41330714Y-28257438D02*
X41378333Y-28305057D01*
X42283095Y-28209819D02*
X41806905Y-28209819D01*
X41806905Y-28209819D02*
X41759286Y-28686009D01*
X41759286Y-28686009D02*
X41806905Y-28638390D01*
X41806905Y-28638390D02*
X41902143Y-28590771D01*
X41902143Y-28590771D02*
X42140238Y-28590771D01*
X42140238Y-28590771D02*
X42235476Y-28638390D01*
X42235476Y-28638390D02*
X42283095Y-28686009D01*
X42283095Y-28686009D02*
X42330714Y-28781247D01*
X42330714Y-28781247D02*
X42330714Y-29019342D01*
X42330714Y-29019342D02*
X42283095Y-29114580D01*
X42283095Y-29114580D02*
X42235476Y-29162200D01*
X42235476Y-29162200D02*
X42140238Y-29209819D01*
X42140238Y-29209819D02*
X41902143Y-29209819D01*
X41902143Y-29209819D02*
X41806905Y-29162200D01*
X41806905Y-29162200D02*
X41759286Y-29114580D01*
%TO.C,C2*%
X41378333Y-48084580D02*
X41330714Y-48132200D01*
X41330714Y-48132200D02*
X41187857Y-48179819D01*
X41187857Y-48179819D02*
X41092619Y-48179819D01*
X41092619Y-48179819D02*
X40949762Y-48132200D01*
X40949762Y-48132200D02*
X40854524Y-48036961D01*
X40854524Y-48036961D02*
X40806905Y-47941723D01*
X40806905Y-47941723D02*
X40759286Y-47751247D01*
X40759286Y-47751247D02*
X40759286Y-47608390D01*
X40759286Y-47608390D02*
X40806905Y-47417914D01*
X40806905Y-47417914D02*
X40854524Y-47322676D01*
X40854524Y-47322676D02*
X40949762Y-47227438D01*
X40949762Y-47227438D02*
X41092619Y-47179819D01*
X41092619Y-47179819D02*
X41187857Y-47179819D01*
X41187857Y-47179819D02*
X41330714Y-47227438D01*
X41330714Y-47227438D02*
X41378333Y-47275057D01*
X41759286Y-47275057D02*
X41806905Y-47227438D01*
X41806905Y-47227438D02*
X41902143Y-47179819D01*
X41902143Y-47179819D02*
X42140238Y-47179819D01*
X42140238Y-47179819D02*
X42235476Y-47227438D01*
X42235476Y-47227438D02*
X42283095Y-47275057D01*
X42283095Y-47275057D02*
X42330714Y-47370295D01*
X42330714Y-47370295D02*
X42330714Y-47465533D01*
X42330714Y-47465533D02*
X42283095Y-47608390D01*
X42283095Y-47608390D02*
X41711667Y-48179819D01*
X41711667Y-48179819D02*
X42330714Y-48179819D01*
%TO.C,R1*%
X41388333Y-34489819D02*
X41055000Y-34013628D01*
X40816905Y-34489819D02*
X40816905Y-33489819D01*
X40816905Y-33489819D02*
X41197857Y-33489819D01*
X41197857Y-33489819D02*
X41293095Y-33537438D01*
X41293095Y-33537438D02*
X41340714Y-33585057D01*
X41340714Y-33585057D02*
X41388333Y-33680295D01*
X41388333Y-33680295D02*
X41388333Y-33823152D01*
X41388333Y-33823152D02*
X41340714Y-33918390D01*
X41340714Y-33918390D02*
X41293095Y-33966009D01*
X41293095Y-33966009D02*
X41197857Y-34013628D01*
X41197857Y-34013628D02*
X40816905Y-34013628D01*
X42340714Y-34489819D02*
X41769286Y-34489819D01*
X42055000Y-34489819D02*
X42055000Y-33489819D01*
X42055000Y-33489819D02*
X41959762Y-33632676D01*
X41959762Y-33632676D02*
X41864524Y-33727914D01*
X41864524Y-33727914D02*
X41769286Y-33775533D01*
D11*
%TO.C,J2*%
X66295000Y-29175000D02*
X67035000Y-29175000D01*
X67035000Y-29175000D02*
X67035000Y-28675000D01*
X56874000Y-28935000D02*
X66795000Y-28935000D01*
X56874000Y-28935000D02*
X56874000Y-18655000D01*
X59834000Y-28935000D02*
X59834000Y-18655000D01*
X64735000Y-28935000D02*
X64735000Y-18655000D01*
X66235000Y-28935000D02*
X66235000Y-18655000D01*
X66795000Y-28935000D02*
X66795000Y-18655000D01*
X63158000Y-22482000D02*
X63204000Y-22529000D01*
X63374000Y-22289000D02*
X63409000Y-22324000D01*
X60860000Y-20185000D02*
X60896000Y-20220000D01*
X61066000Y-19980000D02*
X61112000Y-20027000D01*
X56874000Y-18655000D02*
X66795000Y-18655000D01*
X61451001Y-27869999D02*
G75*
G03*
X62818042Y-27870426I684000J1534992D01*
G01*
X60600001Y-25651001D02*
G75*
G03*
X60599574Y-27018042I1534992J-684000D01*
G01*
X63669999Y-27019000D02*
G75*
G03*
X63815252Y-26306195I-1535000J683999D01*
G01*
X63814999Y-26335000D02*
G75*
G03*
X63669755Y-25651682I-1679999J0D01*
G01*
X62819000Y-24800000D02*
G75*
G03*
X61451958Y-24799574I-684000J-1535000D01*
G01*
X63815000Y-21255000D02*
G75*
G03*
X63815000Y-21255000I-1680000J0D01*
G01*
%TO.C,J4*%
X66015000Y-55175000D02*
X66755000Y-55175000D01*
X66755000Y-55175000D02*
X66755000Y-54675000D01*
X56594000Y-54935000D02*
X66515000Y-54935000D01*
X56594000Y-54935000D02*
X56594000Y-44655000D01*
X59554000Y-54935000D02*
X59554000Y-44655000D01*
X64455000Y-54935000D02*
X64455000Y-44655000D01*
X65955000Y-54935000D02*
X65955000Y-44655000D01*
X66515000Y-54935000D02*
X66515000Y-44655000D01*
X62878000Y-48482000D02*
X62924000Y-48529000D01*
X63094000Y-48289000D02*
X63129000Y-48324000D01*
X60580000Y-46185000D02*
X60616000Y-46220000D01*
X60786000Y-45980000D02*
X60832000Y-46027000D01*
X56594000Y-44655000D02*
X66515000Y-44655000D01*
X61171001Y-53869999D02*
G75*
G03*
X62538042Y-53870426I684000J1534992D01*
G01*
X60320001Y-51651001D02*
G75*
G03*
X60319574Y-53018042I1534992J-684000D01*
G01*
X63389999Y-53019000D02*
G75*
G03*
X63535252Y-52306195I-1535000J683999D01*
G01*
X63534999Y-52335000D02*
G75*
G03*
X63389755Y-51651682I-1679999J0D01*
G01*
X62539000Y-50800000D02*
G75*
G03*
X61171958Y-50799574I-684000J-1535000D01*
G01*
X63535000Y-47255000D02*
G75*
G03*
X63535000Y-47255000I-1680000J0D01*
G01*
%TO.C,R2*%
X41297936Y-44680000D02*
X41752064Y-44680000D01*
X41297936Y-46150000D02*
X41752064Y-46150000D01*
%TO.C,C4*%
X41283748Y-66690000D02*
X41806252Y-66690000D01*
X41283748Y-68160000D02*
X41806252Y-68160000D01*
%TO.C,J3*%
X66155000Y-42175000D02*
X66895000Y-42175000D01*
X66895000Y-42175000D02*
X66895000Y-41675000D01*
X56734000Y-41935000D02*
X66655000Y-41935000D01*
X56734000Y-41935000D02*
X56734000Y-31655000D01*
X59694000Y-41935000D02*
X59694000Y-31655000D01*
X64595000Y-41935000D02*
X64595000Y-31655000D01*
X66095000Y-41935000D02*
X66095000Y-31655000D01*
X66655000Y-41935000D02*
X66655000Y-31655000D01*
X63018000Y-35482000D02*
X63064000Y-35529000D01*
X63234000Y-35289000D02*
X63269000Y-35324000D01*
X60720000Y-33185000D02*
X60756000Y-33220000D01*
X60926000Y-32980000D02*
X60972000Y-33027000D01*
X56734000Y-31655000D02*
X66655000Y-31655000D01*
X61311001Y-40869999D02*
G75*
G03*
X62678042Y-40870426I684000J1534992D01*
G01*
X60460001Y-38651001D02*
G75*
G03*
X60459574Y-40018042I1534992J-684000D01*
G01*
X63529999Y-40019000D02*
G75*
G03*
X63675252Y-39306195I-1535000J683999D01*
G01*
X63674999Y-39335000D02*
G75*
G03*
X63529755Y-38651682I-1679999J0D01*
G01*
X62679000Y-37800000D02*
G75*
G03*
X61311958Y-37799574I-684000J-1535000D01*
G01*
X63675000Y-34255000D02*
G75*
G03*
X63675000Y-34255000I-1680000J0D01*
G01*
%TO.C,J1*%
X46875000Y-17615000D02*
X46875000Y-16875000D01*
X46875000Y-16875000D02*
X46375000Y-16875000D01*
X46635000Y-27036000D02*
X46635000Y-17115000D01*
X46635000Y-27036000D02*
X36355000Y-27036000D01*
X46635000Y-24076000D02*
X36355000Y-24076000D01*
X46635000Y-19175000D02*
X36355000Y-19175000D01*
X46635000Y-17675000D02*
X36355000Y-17675000D01*
X46635000Y-17115000D02*
X36355000Y-17115000D01*
X40182000Y-20752000D02*
X40229000Y-20706000D01*
X39989000Y-20536000D02*
X40024000Y-20501000D01*
X37885000Y-23050000D02*
X37920000Y-23014000D01*
X37680000Y-22844000D02*
X37727000Y-22798000D01*
X36355000Y-27036000D02*
X36355000Y-17115000D01*
X45569999Y-22458999D02*
G75*
G03*
X45570426Y-21091958I-1534992J684000D01*
G01*
X43351001Y-23309999D02*
G75*
G03*
X44718042Y-23310426I684000J1534992D01*
G01*
X44719000Y-20240001D02*
G75*
G03*
X44006195Y-20094748I-683999J-1535000D01*
G01*
X44035000Y-20095001D02*
G75*
G03*
X43351682Y-20240245I0J-1679999D01*
G01*
X42500000Y-21091000D02*
G75*
G03*
X42499574Y-22458042I1535000J-684000D01*
G01*
X40635000Y-21775000D02*
G75*
G03*
X40635000Y-21775000I-1680000J0D01*
G01*
%TO.C,R3*%
X41297936Y-54630000D02*
X41752064Y-54630000D01*
X41297936Y-56100000D02*
X41752064Y-56100000D01*
%TO.C,R4*%
X41297936Y-63580000D02*
X41752064Y-63580000D01*
X41297936Y-65050000D02*
X41752064Y-65050000D01*
%TO.C,C1*%
X41313748Y-37970000D02*
X41836252Y-37970000D01*
X41313748Y-39440000D02*
X41836252Y-39440000D01*
%TO.C,J5*%
X65875000Y-70175000D02*
X66615000Y-70175000D01*
X66615000Y-70175000D02*
X66615000Y-69675000D01*
X56454000Y-69935000D02*
X66375000Y-69935000D01*
X56454000Y-69935000D02*
X56454000Y-59655000D01*
X59414000Y-69935000D02*
X59414000Y-59655000D01*
X64315000Y-69935000D02*
X64315000Y-59655000D01*
X65815000Y-69935000D02*
X65815000Y-59655000D01*
X66375000Y-69935000D02*
X66375000Y-59655000D01*
X62738000Y-63482000D02*
X62784000Y-63529000D01*
X62954000Y-63289000D02*
X62989000Y-63324000D01*
X60440000Y-61185000D02*
X60476000Y-61220000D01*
X60646000Y-60980000D02*
X60692000Y-61027000D01*
X56454000Y-59655000D02*
X66375000Y-59655000D01*
X61031001Y-68869999D02*
G75*
G03*
X62398042Y-68870426I684000J1534992D01*
G01*
X60180001Y-66651001D02*
G75*
G03*
X60179574Y-68018042I1534992J-684000D01*
G01*
X63249999Y-68019000D02*
G75*
G03*
X63395252Y-67306195I-1535000J683999D01*
G01*
X63394999Y-67335000D02*
G75*
G03*
X63249755Y-66651682I-1679999J0D01*
G01*
X62399000Y-65800000D02*
G75*
G03*
X61031958Y-65799574I-684000J-1535000D01*
G01*
X63395000Y-62255000D02*
G75*
G03*
X63395000Y-62255000I-1680000J0D01*
G01*
%TO.C,C3*%
X41283748Y-57680000D02*
X41806252Y-57680000D01*
X41283748Y-59150000D02*
X41806252Y-59150000D01*
%TO.C,C5*%
X41283748Y-29700000D02*
X41806252Y-29700000D01*
X41283748Y-31170000D02*
X41806252Y-31170000D01*
%TO.C,C2*%
X41283748Y-48670000D02*
X41806252Y-48670000D01*
X41283748Y-50140000D02*
X41806252Y-50140000D01*
%TO.C,R1*%
X41327936Y-34950000D02*
X41782064Y-34950000D01*
X41327936Y-36420000D02*
X41782064Y-36420000D01*
D10*
%TO.C,J26*%
X24135500Y-37370000D02*
X24135500Y-55530000D01*
X22115500Y-37370000D02*
X24135500Y-37370000D01*
X21115500Y-38370000D02*
X22115500Y-37370000D01*
X24135500Y-55530000D02*
X21115500Y-55530000D01*
X21115500Y-55530000D02*
X21115500Y-38370000D01*
%TD*%
%LPC*%
D12*
%TO.C,J2*%
X62135000Y-26335000D03*
D13*
X62135000Y-21255000D03*
%TD*%
D12*
%TO.C,J4*%
X61855000Y-52335000D03*
D13*
X61855000Y-47255000D03*
%TD*%
D14*
%TO.C,R2*%
X40612500Y-45415000D03*
X42437500Y-45415000D03*
%TD*%
D15*
%TO.C,C4*%
X40595000Y-67425000D03*
X42495000Y-67425000D03*
%TD*%
D12*
%TO.C,J3*%
X61995000Y-39335000D03*
D13*
X61995000Y-34255000D03*
%TD*%
D12*
%TO.C,J1*%
X44035000Y-21775000D03*
D13*
X38955000Y-21775000D03*
%TD*%
D14*
%TO.C,R3*%
X40612500Y-55365000D03*
X42437500Y-55365000D03*
%TD*%
%TO.C,R4*%
X40612500Y-64315000D03*
X42437500Y-64315000D03*
%TD*%
D15*
%TO.C,C1*%
X40625000Y-38705000D03*
X42525000Y-38705000D03*
%TD*%
D12*
%TO.C,J5*%
X61715000Y-67335000D03*
D13*
X61715000Y-62255000D03*
%TD*%
D15*
%TO.C,C3*%
X40595000Y-58415000D03*
X42495000Y-58415000D03*
%TD*%
%TO.C,C5*%
X40595000Y-30435000D03*
X42495000Y-30435000D03*
%TD*%
%TO.C,C2*%
X40595000Y-49405000D03*
X42495000Y-49405000D03*
%TD*%
D14*
%TO.C,R1*%
X40642500Y-35685000D03*
X42467500Y-35685000D03*
%TD*%
D16*
%TO.C,J26*%
X22075500Y-38830000D03*
X22075500Y-40100000D03*
X22075500Y-41370000D03*
X22075500Y-42640000D03*
X22075500Y-43910000D03*
X22075500Y-45180000D03*
X22075500Y-46450000D03*
X22075500Y-47720000D03*
X22075500Y-48990000D03*
X22075500Y-50260000D03*
X22075500Y-51530000D03*
X22075500Y-52800000D03*
X22075500Y-54070000D03*
X23175500Y-39465000D03*
X23175500Y-40735000D03*
X23175500Y-42005000D03*
X23175500Y-43275000D03*
X23175500Y-44545000D03*
X23175500Y-45815000D03*
X23175500Y-47085000D03*
X23175500Y-48355000D03*
X23175500Y-49625000D03*
X23175500Y-50895000D03*
X23175500Y-52165000D03*
X23175500Y-53435000D03*
%TD*%
%LPD*%
M02*
