M48
; DRILL file {KiCad 7.0.5} date Mon Mar 11 15:50:26 2024
; FORMAT={-:-/ absolute / inch / decimal}
; #@! TF.CreationDate,2024-03-11T15:50:26-06:00
; #@! TF.GenerationSoftware,Kicad,Pcbnew,7.0.5
; #@! TF.FileFunction,Plated,1,2,PTH
FMAT,2
INCH
; #@! TA.AperFunction,Plated,PTH,ViaDrill
T1C0.0118
; #@! TA.AperFunction,Plated,PTH,ComponentDrill
T2C0.0240
; #@! TA.AperFunction,Plated,PTH,ComponentDrill
T3C0.0512
%
G90
G05
T1
X0.7874Y-1.5748
X1.4961Y-1.7717
X1.7323Y-1.9291
X1.7717Y-1.5354
X1.7717Y-2.3228
X1.7717Y-2.6772
X1.811Y-1.2205
T2
X0.8691Y-1.5287
X0.8691Y-1.5787
X0.8691Y-1.6287
X0.8691Y-1.6787
X0.8691Y-1.7287
X0.8691Y-1.7787
X0.8691Y-1.8287
X0.8691Y-1.8787
X0.8691Y-1.9287
X0.8691Y-1.9787
X0.8691Y-2.0287
X0.8691Y-2.0787
X0.8691Y-2.1287
X0.9124Y-1.5537
X0.9124Y-1.6037
X0.9124Y-1.6537
X0.9124Y-1.7037
X0.9124Y-1.7537
X0.9124Y-1.8037
X0.9124Y-1.8537
X0.9124Y-1.9037
X0.9124Y-1.9537
X0.9124Y-2.0037
X0.9124Y-2.0537
X0.9124Y-2.1037
T3
X1.5337Y-0.8573
X1.7337Y-0.8573
X2.4297Y-2.451
X2.4297Y-2.651
X2.4352Y-1.8604
X2.4352Y-2.0604
X2.4407Y-1.3486
X2.4407Y-1.5486
X2.4463Y-0.8368
X2.4463Y-1.0368
T0
M30
