G04 #@! TF.GenerationSoftware,KiCad,Pcbnew,5.1.4*
G04 #@! TF.CreationDate,2022-02-05T09:52:07-07:00*
G04 #@! TF.ProjectId,sleigh,736c6569-6768-42e6-9b69-6361645f7063,rev?*
G04 #@! TF.SameCoordinates,Original*
G04 #@! TF.FileFunction,Legend,Top*
G04 #@! TF.FilePolarity,Positive*
%FSLAX46Y46*%
G04 Gerber Fmt 4.6, Leading zero omitted, Abs format (unit mm)*
G04 Created by KiCad (PCBNEW 5.1.4) date 2022-02-05 09:52:07*
%MOMM*%
%LPD*%
G04 APERTURE LIST*
%ADD10C,0.150000*%
%ADD11C,0.010000*%
%ADD12C,0.120000*%
G04 APERTURE END LIST*
D10*
X149428571Y-73754761D02*
X149571428Y-73802380D01*
X149809523Y-73802380D01*
X149904761Y-73754761D01*
X149952380Y-73707142D01*
X150000000Y-73611904D01*
X150000000Y-73516666D01*
X149952380Y-73421428D01*
X149904761Y-73373809D01*
X149809523Y-73326190D01*
X149619047Y-73278571D01*
X149523809Y-73230952D01*
X149476190Y-73183333D01*
X149428571Y-73088095D01*
X149428571Y-72992857D01*
X149476190Y-72897619D01*
X149523809Y-72850000D01*
X149619047Y-72802380D01*
X149857142Y-72802380D01*
X150000000Y-72850000D01*
X150571428Y-73802380D02*
X150476190Y-73754761D01*
X150428571Y-73659523D01*
X150428571Y-72802380D01*
X151333333Y-73754761D02*
X151238095Y-73802380D01*
X151047619Y-73802380D01*
X150952380Y-73754761D01*
X150904761Y-73659523D01*
X150904761Y-73278571D01*
X150952380Y-73183333D01*
X151047619Y-73135714D01*
X151238095Y-73135714D01*
X151333333Y-73183333D01*
X151380952Y-73278571D01*
X151380952Y-73373809D01*
X150904761Y-73469047D01*
X151809523Y-73802380D02*
X151809523Y-73135714D01*
X151809523Y-72802380D02*
X151761904Y-72850000D01*
X151809523Y-72897619D01*
X151857142Y-72850000D01*
X151809523Y-72802380D01*
X151809523Y-72897619D01*
X152714285Y-73135714D02*
X152714285Y-73945238D01*
X152666666Y-74040476D01*
X152619047Y-74088095D01*
X152523809Y-74135714D01*
X152380952Y-74135714D01*
X152285714Y-74088095D01*
X152714285Y-73754761D02*
X152619047Y-73802380D01*
X152428571Y-73802380D01*
X152333333Y-73754761D01*
X152285714Y-73707142D01*
X152238095Y-73611904D01*
X152238095Y-73326190D01*
X152285714Y-73230952D01*
X152333333Y-73183333D01*
X152428571Y-73135714D01*
X152619047Y-73135714D01*
X152714285Y-73183333D01*
X153190476Y-73802380D02*
X153190476Y-72802380D01*
X153619047Y-73802380D02*
X153619047Y-73278571D01*
X153571428Y-73183333D01*
X153476190Y-73135714D01*
X153333333Y-73135714D01*
X153238095Y-73183333D01*
X153190476Y-73230952D01*
X154285714Y-72802380D02*
X154380952Y-72802380D01*
X154476190Y-72850000D01*
X154523809Y-72897619D01*
X154571428Y-72992857D01*
X154619047Y-73183333D01*
X154619047Y-73421428D01*
X154571428Y-73611904D01*
X154523809Y-73707142D01*
X154476190Y-73754761D01*
X154380952Y-73802380D01*
X154285714Y-73802380D01*
X154190476Y-73754761D01*
X154142857Y-73707142D01*
X154095238Y-73611904D01*
X154047619Y-73421428D01*
X154047619Y-73183333D01*
X154095238Y-72992857D01*
X154142857Y-72897619D01*
X154190476Y-72850000D01*
X154285714Y-72802380D01*
X155000000Y-72897619D02*
X155047619Y-72850000D01*
X155142857Y-72802380D01*
X155380952Y-72802380D01*
X155476190Y-72850000D01*
X155523809Y-72897619D01*
X155571428Y-72992857D01*
X155571428Y-73088095D01*
X155523809Y-73230952D01*
X154952380Y-73802380D01*
X155571428Y-73802380D01*
X146452380Y-74880952D02*
X146357142Y-74833333D01*
X146309523Y-74785714D01*
X146261904Y-74690476D01*
X146261904Y-74642857D01*
X146309523Y-74547619D01*
X146357142Y-74500000D01*
X146452380Y-74452380D01*
X146642857Y-74452380D01*
X146738095Y-74500000D01*
X146785714Y-74547619D01*
X146833333Y-74642857D01*
X146833333Y-74690476D01*
X146785714Y-74785714D01*
X146738095Y-74833333D01*
X146642857Y-74880952D01*
X146452380Y-74880952D01*
X146357142Y-74928571D01*
X146309523Y-74976190D01*
X146261904Y-75071428D01*
X146261904Y-75261904D01*
X146309523Y-75357142D01*
X146357142Y-75404761D01*
X146452380Y-75452380D01*
X146642857Y-75452380D01*
X146738095Y-75404761D01*
X146785714Y-75357142D01*
X146833333Y-75261904D01*
X146833333Y-75071428D01*
X146785714Y-74976190D01*
X146738095Y-74928571D01*
X146642857Y-74880952D01*
X148023809Y-74785714D02*
X148023809Y-75785714D01*
X148023809Y-74833333D02*
X148119047Y-74785714D01*
X148309523Y-74785714D01*
X148404761Y-74833333D01*
X148452380Y-74880952D01*
X148500000Y-74976190D01*
X148500000Y-75261904D01*
X148452380Y-75357142D01*
X148404761Y-75404761D01*
X148309523Y-75452380D01*
X148119047Y-75452380D01*
X148023809Y-75404761D01*
X149357142Y-75452380D02*
X149357142Y-74928571D01*
X149309523Y-74833333D01*
X149214285Y-74785714D01*
X149023809Y-74785714D01*
X148928571Y-74833333D01*
X149357142Y-75404761D02*
X149261904Y-75452380D01*
X149023809Y-75452380D01*
X148928571Y-75404761D01*
X148880952Y-75309523D01*
X148880952Y-75214285D01*
X148928571Y-75119047D01*
X149023809Y-75071428D01*
X149261904Y-75071428D01*
X149357142Y-75023809D01*
X150261904Y-75452380D02*
X150261904Y-74452380D01*
X150261904Y-75404761D02*
X150166666Y-75452380D01*
X149976190Y-75452380D01*
X149880952Y-75404761D01*
X149833333Y-75357142D01*
X149785714Y-75261904D01*
X149785714Y-74976190D01*
X149833333Y-74880952D01*
X149880952Y-74833333D01*
X149976190Y-74785714D01*
X150166666Y-74785714D01*
X150261904Y-74833333D01*
X150690476Y-75404761D02*
X150785714Y-75452380D01*
X150976190Y-75452380D01*
X151071428Y-75404761D01*
X151119047Y-75309523D01*
X151119047Y-75261904D01*
X151071428Y-75166666D01*
X150976190Y-75119047D01*
X150833333Y-75119047D01*
X150738095Y-75071428D01*
X150690476Y-74976190D01*
X150690476Y-74928571D01*
X150738095Y-74833333D01*
X150833333Y-74785714D01*
X150976190Y-74785714D01*
X151071428Y-74833333D01*
X152166666Y-74785714D02*
X152547619Y-74785714D01*
X152309523Y-74452380D02*
X152309523Y-75309523D01*
X152357142Y-75404761D01*
X152452380Y-75452380D01*
X152547619Y-75452380D01*
X153023809Y-75452380D02*
X152928571Y-75404761D01*
X152880952Y-75357142D01*
X152833333Y-75261904D01*
X152833333Y-74976190D01*
X152880952Y-74880952D01*
X152928571Y-74833333D01*
X153023809Y-74785714D01*
X153166666Y-74785714D01*
X153261904Y-74833333D01*
X153309523Y-74880952D01*
X153357142Y-74976190D01*
X153357142Y-75261904D01*
X153309523Y-75357142D01*
X153261904Y-75404761D01*
X153166666Y-75452380D01*
X153023809Y-75452380D01*
X154500000Y-75404761D02*
X154595238Y-75452380D01*
X154785714Y-75452380D01*
X154880952Y-75404761D01*
X154928571Y-75309523D01*
X154928571Y-75261904D01*
X154880952Y-75166666D01*
X154785714Y-75119047D01*
X154642857Y-75119047D01*
X154547619Y-75071428D01*
X154500000Y-74976190D01*
X154500000Y-74928571D01*
X154547619Y-74833333D01*
X154642857Y-74785714D01*
X154785714Y-74785714D01*
X154880952Y-74833333D01*
X155309523Y-75404761D02*
X155404761Y-75452380D01*
X155595238Y-75452380D01*
X155690476Y-75404761D01*
X155738095Y-75309523D01*
X155738095Y-75261904D01*
X155690476Y-75166666D01*
X155595238Y-75119047D01*
X155452380Y-75119047D01*
X155357142Y-75071428D01*
X155309523Y-74976190D01*
X155309523Y-74928571D01*
X155357142Y-74833333D01*
X155452380Y-74785714D01*
X155595238Y-74785714D01*
X155690476Y-74833333D01*
X156166666Y-75452380D02*
X156166666Y-74785714D01*
X156166666Y-74880952D02*
X156214285Y-74833333D01*
X156309523Y-74785714D01*
X156452380Y-74785714D01*
X156547619Y-74833333D01*
X156595238Y-74928571D01*
X156595238Y-75452380D01*
X156595238Y-74928571D02*
X156642857Y-74833333D01*
X156738095Y-74785714D01*
X156880952Y-74785714D01*
X156976190Y-74833333D01*
X157023809Y-74928571D01*
X157023809Y-75452380D01*
X157928571Y-75404761D02*
X157833333Y-75452380D01*
X157642857Y-75452380D01*
X157547619Y-75404761D01*
X157500000Y-75357142D01*
X157452380Y-75261904D01*
X157452380Y-74976190D01*
X157500000Y-74880952D01*
X157547619Y-74833333D01*
X157642857Y-74785714D01*
X157833333Y-74785714D01*
X157928571Y-74833333D01*
X158261904Y-75452380D02*
X158785714Y-74785714D01*
X158261904Y-74785714D02*
X158785714Y-75452380D01*
X146428571Y-76578571D02*
X146095238Y-76578571D01*
X146095238Y-77102380D02*
X146095238Y-76102380D01*
X146571428Y-76102380D01*
X147333333Y-77054761D02*
X147238095Y-77102380D01*
X147047619Y-77102380D01*
X146952380Y-77054761D01*
X146904761Y-76959523D01*
X146904761Y-76578571D01*
X146952380Y-76483333D01*
X147047619Y-76435714D01*
X147238095Y-76435714D01*
X147333333Y-76483333D01*
X147380952Y-76578571D01*
X147380952Y-76673809D01*
X146904761Y-76769047D01*
X147809523Y-77102380D02*
X147809523Y-76102380D01*
X147809523Y-76483333D02*
X147904761Y-76435714D01*
X148095238Y-76435714D01*
X148190476Y-76483333D01*
X148238095Y-76530952D01*
X148285714Y-76626190D01*
X148285714Y-76911904D01*
X148238095Y-77007142D01*
X148190476Y-77054761D01*
X148095238Y-77102380D01*
X147904761Y-77102380D01*
X147809523Y-77054761D01*
X148714285Y-77007142D02*
X148761904Y-77054761D01*
X148714285Y-77102380D01*
X148666666Y-77054761D01*
X148714285Y-77007142D01*
X148714285Y-77102380D01*
X149904761Y-76197619D02*
X149952380Y-76150000D01*
X150047619Y-76102380D01*
X150285714Y-76102380D01*
X150380952Y-76150000D01*
X150428571Y-76197619D01*
X150476190Y-76292857D01*
X150476190Y-76388095D01*
X150428571Y-76530952D01*
X149857142Y-77102380D01*
X150476190Y-77102380D01*
X151095238Y-76102380D02*
X151190476Y-76102380D01*
X151285714Y-76150000D01*
X151333333Y-76197619D01*
X151380952Y-76292857D01*
X151428571Y-76483333D01*
X151428571Y-76721428D01*
X151380952Y-76911904D01*
X151333333Y-77007142D01*
X151285714Y-77054761D01*
X151190476Y-77102380D01*
X151095238Y-77102380D01*
X151000000Y-77054761D01*
X150952380Y-77007142D01*
X150904761Y-76911904D01*
X150857142Y-76721428D01*
X150857142Y-76483333D01*
X150904761Y-76292857D01*
X150952380Y-76197619D01*
X151000000Y-76150000D01*
X151095238Y-76102380D01*
X151809523Y-76197619D02*
X151857142Y-76150000D01*
X151952380Y-76102380D01*
X152190476Y-76102380D01*
X152285714Y-76150000D01*
X152333333Y-76197619D01*
X152380952Y-76292857D01*
X152380952Y-76388095D01*
X152333333Y-76530952D01*
X151761904Y-77102380D01*
X152380952Y-77102380D01*
X152761904Y-76197619D02*
X152809523Y-76150000D01*
X152904761Y-76102380D01*
X153142857Y-76102380D01*
X153238095Y-76150000D01*
X153285714Y-76197619D01*
X153333333Y-76292857D01*
X153333333Y-76388095D01*
X153285714Y-76530952D01*
X152714285Y-77102380D01*
X153333333Y-77102380D01*
X154523809Y-76721428D02*
X155285714Y-76721428D01*
X156523809Y-77102380D02*
X156523809Y-76102380D01*
X156761904Y-76102380D01*
X156904761Y-76150000D01*
X157000000Y-76245238D01*
X157047619Y-76340476D01*
X157095238Y-76530952D01*
X157095238Y-76673809D01*
X157047619Y-76864285D01*
X157000000Y-76959523D01*
X156904761Y-77054761D01*
X156761904Y-77102380D01*
X156523809Y-77102380D01*
X157380952Y-76102380D02*
X157714285Y-77102380D01*
X158047619Y-76102380D01*
X158952380Y-77102380D02*
X158619047Y-76626190D01*
X158380952Y-77102380D02*
X158380952Y-76102380D01*
X158761904Y-76102380D01*
X158857142Y-76150000D01*
X158904761Y-76197619D01*
X158952380Y-76292857D01*
X158952380Y-76435714D01*
X158904761Y-76530952D01*
X158857142Y-76578571D01*
X158761904Y-76626190D01*
X158380952Y-76626190D01*
D11*
G36*
X157969467Y-80238000D02*
G01*
X156784133Y-80238000D01*
X156784133Y-82439333D01*
X156123733Y-82439333D01*
X156123733Y-80238000D01*
X153005395Y-80238000D01*
X152957143Y-80286252D01*
X152914855Y-80349892D01*
X152895424Y-80426539D01*
X152898799Y-80505983D01*
X152924929Y-80578015D01*
X152958810Y-80620476D01*
X152967507Y-80627211D01*
X152979328Y-80632986D01*
X152996878Y-80637906D01*
X153022765Y-80642074D01*
X153059596Y-80645595D01*
X153109978Y-80648571D01*
X153176517Y-80651107D01*
X153261822Y-80653307D01*
X153368497Y-80655273D01*
X153499152Y-80657111D01*
X153656391Y-80658924D01*
X153842823Y-80660815D01*
X154013056Y-80662438D01*
X154230615Y-80664596D01*
X154416923Y-80666724D01*
X154574597Y-80668910D01*
X154706252Y-80671238D01*
X154814506Y-80673793D01*
X154901974Y-80676661D01*
X154971272Y-80679927D01*
X155025016Y-80683677D01*
X155065822Y-80687995D01*
X155096308Y-80692967D01*
X155118428Y-80698477D01*
X155278079Y-80763462D01*
X155419013Y-80853586D01*
X155539023Y-80965355D01*
X155635900Y-81095279D01*
X155707433Y-81239864D01*
X155751415Y-81395619D01*
X155765636Y-81559052D01*
X155752711Y-81701190D01*
X155707416Y-81866190D01*
X155632867Y-82016368D01*
X155531494Y-82148864D01*
X155405726Y-82260820D01*
X155257992Y-82349376D01*
X155170658Y-82386197D01*
X155048466Y-82430867D01*
X153516000Y-82433981D01*
X153231882Y-82434436D01*
X152980020Y-82434567D01*
X152758808Y-82434357D01*
X152566636Y-82433788D01*
X152401896Y-82432844D01*
X152262981Y-82431506D01*
X152148281Y-82429759D01*
X152056188Y-82427584D01*
X151985095Y-82424965D01*
X151933393Y-82421883D01*
X151899474Y-82418323D01*
X151889576Y-82416558D01*
X151745918Y-82368314D01*
X151613592Y-82290802D01*
X151497502Y-82188003D01*
X151402552Y-82063900D01*
X151360641Y-81987003D01*
X151306200Y-81872067D01*
X151296828Y-79560667D01*
X151958133Y-79560667D01*
X151958133Y-80634724D01*
X151958204Y-80854084D01*
X151958455Y-81042035D01*
X151958947Y-81201034D01*
X151959738Y-81333537D01*
X151960889Y-81442003D01*
X151962457Y-81528887D01*
X151964504Y-81596647D01*
X151967088Y-81647741D01*
X151970269Y-81684625D01*
X151974105Y-81709756D01*
X151978657Y-81725592D01*
X151983984Y-81734589D01*
X151984743Y-81735390D01*
X151992043Y-81740062D01*
X152005392Y-81744160D01*
X152026872Y-81747722D01*
X152058567Y-81750783D01*
X152102559Y-81753382D01*
X152160931Y-81755554D01*
X152235767Y-81757336D01*
X152329150Y-81758766D01*
X152443161Y-81759879D01*
X152579886Y-81760714D01*
X152741405Y-81761305D01*
X152929804Y-81761692D01*
X153147164Y-81761909D01*
X153395568Y-81761994D01*
X153491542Y-81762000D01*
X154971732Y-81762000D01*
X155023698Y-81715433D01*
X155072103Y-81651251D01*
X155093911Y-81575284D01*
X155089110Y-81496535D01*
X155057689Y-81424009D01*
X155024122Y-81385477D01*
X154971732Y-81338667D01*
X154011033Y-81338372D01*
X153790625Y-81338210D01*
X153601157Y-81337711D01*
X153439703Y-81336645D01*
X153303336Y-81334776D01*
X153189131Y-81331874D01*
X153094160Y-81327704D01*
X153015497Y-81322034D01*
X152950217Y-81314630D01*
X152895392Y-81305261D01*
X152848097Y-81293693D01*
X152805404Y-81279693D01*
X152764388Y-81263029D01*
X152722122Y-81243467D01*
X152703200Y-81234285D01*
X152578169Y-81155933D01*
X152464139Y-81051442D01*
X152366879Y-80928067D01*
X152292155Y-80793061D01*
X152247344Y-80660862D01*
X152235388Y-80579882D01*
X152230506Y-80480978D01*
X152232547Y-80377855D01*
X152241364Y-80284217D01*
X152252043Y-80229533D01*
X152312253Y-80066707D01*
X152400261Y-79922197D01*
X152514159Y-79798059D01*
X152652039Y-79696346D01*
X152811992Y-79619114D01*
X152822688Y-79615143D01*
X152948733Y-79569133D01*
X155459100Y-79564471D01*
X157969467Y-79559810D01*
X157969467Y-80238000D01*
X157969467Y-80238000D01*
G37*
X157969467Y-80238000D02*
X156784133Y-80238000D01*
X156784133Y-82439333D01*
X156123733Y-82439333D01*
X156123733Y-80238000D01*
X153005395Y-80238000D01*
X152957143Y-80286252D01*
X152914855Y-80349892D01*
X152895424Y-80426539D01*
X152898799Y-80505983D01*
X152924929Y-80578015D01*
X152958810Y-80620476D01*
X152967507Y-80627211D01*
X152979328Y-80632986D01*
X152996878Y-80637906D01*
X153022765Y-80642074D01*
X153059596Y-80645595D01*
X153109978Y-80648571D01*
X153176517Y-80651107D01*
X153261822Y-80653307D01*
X153368497Y-80655273D01*
X153499152Y-80657111D01*
X153656391Y-80658924D01*
X153842823Y-80660815D01*
X154013056Y-80662438D01*
X154230615Y-80664596D01*
X154416923Y-80666724D01*
X154574597Y-80668910D01*
X154706252Y-80671238D01*
X154814506Y-80673793D01*
X154901974Y-80676661D01*
X154971272Y-80679927D01*
X155025016Y-80683677D01*
X155065822Y-80687995D01*
X155096308Y-80692967D01*
X155118428Y-80698477D01*
X155278079Y-80763462D01*
X155419013Y-80853586D01*
X155539023Y-80965355D01*
X155635900Y-81095279D01*
X155707433Y-81239864D01*
X155751415Y-81395619D01*
X155765636Y-81559052D01*
X155752711Y-81701190D01*
X155707416Y-81866190D01*
X155632867Y-82016368D01*
X155531494Y-82148864D01*
X155405726Y-82260820D01*
X155257992Y-82349376D01*
X155170658Y-82386197D01*
X155048466Y-82430867D01*
X153516000Y-82433981D01*
X153231882Y-82434436D01*
X152980020Y-82434567D01*
X152758808Y-82434357D01*
X152566636Y-82433788D01*
X152401896Y-82432844D01*
X152262981Y-82431506D01*
X152148281Y-82429759D01*
X152056188Y-82427584D01*
X151985095Y-82424965D01*
X151933393Y-82421883D01*
X151899474Y-82418323D01*
X151889576Y-82416558D01*
X151745918Y-82368314D01*
X151613592Y-82290802D01*
X151497502Y-82188003D01*
X151402552Y-82063900D01*
X151360641Y-81987003D01*
X151306200Y-81872067D01*
X151296828Y-79560667D01*
X151958133Y-79560667D01*
X151958133Y-80634724D01*
X151958204Y-80854084D01*
X151958455Y-81042035D01*
X151958947Y-81201034D01*
X151959738Y-81333537D01*
X151960889Y-81442003D01*
X151962457Y-81528887D01*
X151964504Y-81596647D01*
X151967088Y-81647741D01*
X151970269Y-81684625D01*
X151974105Y-81709756D01*
X151978657Y-81725592D01*
X151983984Y-81734589D01*
X151984743Y-81735390D01*
X151992043Y-81740062D01*
X152005392Y-81744160D01*
X152026872Y-81747722D01*
X152058567Y-81750783D01*
X152102559Y-81753382D01*
X152160931Y-81755554D01*
X152235767Y-81757336D01*
X152329150Y-81758766D01*
X152443161Y-81759879D01*
X152579886Y-81760714D01*
X152741405Y-81761305D01*
X152929804Y-81761692D01*
X153147164Y-81761909D01*
X153395568Y-81761994D01*
X153491542Y-81762000D01*
X154971732Y-81762000D01*
X155023698Y-81715433D01*
X155072103Y-81651251D01*
X155093911Y-81575284D01*
X155089110Y-81496535D01*
X155057689Y-81424009D01*
X155024122Y-81385477D01*
X154971732Y-81338667D01*
X154011033Y-81338372D01*
X153790625Y-81338210D01*
X153601157Y-81337711D01*
X153439703Y-81336645D01*
X153303336Y-81334776D01*
X153189131Y-81331874D01*
X153094160Y-81327704D01*
X153015497Y-81322034D01*
X152950217Y-81314630D01*
X152895392Y-81305261D01*
X152848097Y-81293693D01*
X152805404Y-81279693D01*
X152764388Y-81263029D01*
X152722122Y-81243467D01*
X152703200Y-81234285D01*
X152578169Y-81155933D01*
X152464139Y-81051442D01*
X152366879Y-80928067D01*
X152292155Y-80793061D01*
X152247344Y-80660862D01*
X152235388Y-80579882D01*
X152230506Y-80480978D01*
X152232547Y-80377855D01*
X152241364Y-80284217D01*
X152252043Y-80229533D01*
X152312253Y-80066707D01*
X152400261Y-79922197D01*
X152514159Y-79798059D01*
X152652039Y-79696346D01*
X152811992Y-79619114D01*
X152822688Y-79615143D01*
X152948733Y-79569133D01*
X155459100Y-79564471D01*
X157969467Y-79559810D01*
X157969467Y-80238000D01*
G36*
X150942133Y-80652033D02*
G01*
X150941840Y-80914348D01*
X150940955Y-81143187D01*
X150939473Y-81338935D01*
X150937388Y-81501977D01*
X150934694Y-81632698D01*
X150931383Y-81731483D01*
X150927451Y-81798718D01*
X150923259Y-81833133D01*
X150875418Y-81981676D01*
X150799396Y-82114388D01*
X150698347Y-82228282D01*
X150575427Y-82320371D01*
X150433790Y-82387669D01*
X150299747Y-82423381D01*
X150159824Y-82432494D01*
X150016647Y-82413081D01*
X149878946Y-82367599D01*
X149755448Y-82298503D01*
X149700529Y-82254767D01*
X149678339Y-82232546D01*
X149635331Y-82187342D01*
X149573441Y-82121255D01*
X149494607Y-82036384D01*
X149400764Y-81934830D01*
X149293850Y-81818692D01*
X149175800Y-81690072D01*
X149048552Y-81551068D01*
X148914041Y-81403780D01*
X148774205Y-81250310D01*
X148769857Y-81245533D01*
X148630885Y-81092921D01*
X148497966Y-80947141D01*
X148372942Y-80810201D01*
X148257656Y-80684113D01*
X148153953Y-80570886D01*
X148063675Y-80472532D01*
X147988666Y-80391060D01*
X147930768Y-80328481D01*
X147891826Y-80286805D01*
X147873681Y-80268043D01*
X147873231Y-80267633D01*
X147823849Y-80240958D01*
X147776176Y-80246630D01*
X147751409Y-80264609D01*
X147745977Y-80272893D01*
X147741326Y-80287692D01*
X147737399Y-80311466D01*
X147734136Y-80346670D01*
X147731477Y-80395762D01*
X147729364Y-80461199D01*
X147727736Y-80545438D01*
X147726534Y-80650936D01*
X147725699Y-80780150D01*
X147725171Y-80935538D01*
X147724892Y-81119556D01*
X147724801Y-81334661D01*
X147724800Y-81365276D01*
X147724800Y-82439333D01*
X147069899Y-82439333D01*
X147058707Y-81791633D01*
X147053864Y-81484522D01*
X147050487Y-81208830D01*
X147048575Y-80964869D01*
X147048127Y-80752952D01*
X147049141Y-80573393D01*
X147051615Y-80426503D01*
X147055549Y-80312596D01*
X147060941Y-80231985D01*
X147065760Y-80194543D01*
X147104999Y-80061597D01*
X147170853Y-79932270D01*
X147257596Y-79814989D01*
X147359501Y-79718180D01*
X147416021Y-79679069D01*
X147539496Y-79622049D01*
X147677938Y-79588471D01*
X147823167Y-79578378D01*
X147967005Y-79591811D01*
X148101275Y-79628812D01*
X148195737Y-79675061D01*
X148214612Y-79687146D01*
X148234228Y-79701151D01*
X148256202Y-79718777D01*
X148282150Y-79741725D01*
X148313690Y-79771695D01*
X148352439Y-79810388D01*
X148400014Y-79859506D01*
X148458033Y-79920749D01*
X148528112Y-79995818D01*
X148611869Y-80086415D01*
X148710921Y-80194239D01*
X148826884Y-80320992D01*
X148961376Y-80468375D01*
X149116015Y-80638089D01*
X149221984Y-80754467D01*
X149362011Y-80908176D01*
X149495815Y-81054874D01*
X149621593Y-81192591D01*
X149737540Y-81319361D01*
X149841849Y-81433215D01*
X149932717Y-81532185D01*
X150008337Y-81614303D01*
X150066906Y-81677602D01*
X150106618Y-81720114D01*
X150125668Y-81739871D01*
X150126732Y-81740833D01*
X150174179Y-81760670D01*
X150222935Y-81752149D01*
X150255373Y-81724365D01*
X150260795Y-81713515D01*
X150265431Y-81695963D01*
X150269342Y-81669222D01*
X150272588Y-81630805D01*
X150275227Y-81578222D01*
X150277320Y-81508987D01*
X150278925Y-81420611D01*
X150280103Y-81310606D01*
X150280914Y-81176486D01*
X150281416Y-81015761D01*
X150281669Y-80825944D01*
X150281733Y-80623699D01*
X150281733Y-79560667D01*
X150942133Y-79560667D01*
X150942133Y-80652033D01*
X150942133Y-80652033D01*
G37*
X150942133Y-80652033D02*
X150941840Y-80914348D01*
X150940955Y-81143187D01*
X150939473Y-81338935D01*
X150937388Y-81501977D01*
X150934694Y-81632698D01*
X150931383Y-81731483D01*
X150927451Y-81798718D01*
X150923259Y-81833133D01*
X150875418Y-81981676D01*
X150799396Y-82114388D01*
X150698347Y-82228282D01*
X150575427Y-82320371D01*
X150433790Y-82387669D01*
X150299747Y-82423381D01*
X150159824Y-82432494D01*
X150016647Y-82413081D01*
X149878946Y-82367599D01*
X149755448Y-82298503D01*
X149700529Y-82254767D01*
X149678339Y-82232546D01*
X149635331Y-82187342D01*
X149573441Y-82121255D01*
X149494607Y-82036384D01*
X149400764Y-81934830D01*
X149293850Y-81818692D01*
X149175800Y-81690072D01*
X149048552Y-81551068D01*
X148914041Y-81403780D01*
X148774205Y-81250310D01*
X148769857Y-81245533D01*
X148630885Y-81092921D01*
X148497966Y-80947141D01*
X148372942Y-80810201D01*
X148257656Y-80684113D01*
X148153953Y-80570886D01*
X148063675Y-80472532D01*
X147988666Y-80391060D01*
X147930768Y-80328481D01*
X147891826Y-80286805D01*
X147873681Y-80268043D01*
X147873231Y-80267633D01*
X147823849Y-80240958D01*
X147776176Y-80246630D01*
X147751409Y-80264609D01*
X147745977Y-80272893D01*
X147741326Y-80287692D01*
X147737399Y-80311466D01*
X147734136Y-80346670D01*
X147731477Y-80395762D01*
X147729364Y-80461199D01*
X147727736Y-80545438D01*
X147726534Y-80650936D01*
X147725699Y-80780150D01*
X147725171Y-80935538D01*
X147724892Y-81119556D01*
X147724801Y-81334661D01*
X147724800Y-81365276D01*
X147724800Y-82439333D01*
X147069899Y-82439333D01*
X147058707Y-81791633D01*
X147053864Y-81484522D01*
X147050487Y-81208830D01*
X147048575Y-80964869D01*
X147048127Y-80752952D01*
X147049141Y-80573393D01*
X147051615Y-80426503D01*
X147055549Y-80312596D01*
X147060941Y-80231985D01*
X147065760Y-80194543D01*
X147104999Y-80061597D01*
X147170853Y-79932270D01*
X147257596Y-79814989D01*
X147359501Y-79718180D01*
X147416021Y-79679069D01*
X147539496Y-79622049D01*
X147677938Y-79588471D01*
X147823167Y-79578378D01*
X147967005Y-79591811D01*
X148101275Y-79628812D01*
X148195737Y-79675061D01*
X148214612Y-79687146D01*
X148234228Y-79701151D01*
X148256202Y-79718777D01*
X148282150Y-79741725D01*
X148313690Y-79771695D01*
X148352439Y-79810388D01*
X148400014Y-79859506D01*
X148458033Y-79920749D01*
X148528112Y-79995818D01*
X148611869Y-80086415D01*
X148710921Y-80194239D01*
X148826884Y-80320992D01*
X148961376Y-80468375D01*
X149116015Y-80638089D01*
X149221984Y-80754467D01*
X149362011Y-80908176D01*
X149495815Y-81054874D01*
X149621593Y-81192591D01*
X149737540Y-81319361D01*
X149841849Y-81433215D01*
X149932717Y-81532185D01*
X150008337Y-81614303D01*
X150066906Y-81677602D01*
X150106618Y-81720114D01*
X150125668Y-81739871D01*
X150126732Y-81740833D01*
X150174179Y-81760670D01*
X150222935Y-81752149D01*
X150255373Y-81724365D01*
X150260795Y-81713515D01*
X150265431Y-81695963D01*
X150269342Y-81669222D01*
X150272588Y-81630805D01*
X150275227Y-81578222D01*
X150277320Y-81508987D01*
X150278925Y-81420611D01*
X150280103Y-81310606D01*
X150280914Y-81176486D01*
X150281416Y-81015761D01*
X150281669Y-80825944D01*
X150281733Y-80623699D01*
X150281733Y-79560667D01*
X150942133Y-79560667D01*
X150942133Y-80652033D01*
D12*
X149200000Y-93666000D02*
X149200000Y-94706000D01*
X155600000Y-93666000D02*
X155600000Y-94706000D01*
X146890000Y-91306000D02*
X146890000Y-93666000D01*
X157910000Y-91306000D02*
X157910000Y-93666000D01*
X149200000Y-91306000D02*
X146890000Y-91306000D01*
X155600000Y-91306000D02*
X157910000Y-91306000D01*
X149200000Y-92746000D02*
X149200000Y-91306000D01*
X155600000Y-92746000D02*
X155600000Y-91306000D01*
X155600000Y-92746000D02*
X149200000Y-92746000D01*
X155600000Y-94706000D02*
X149200000Y-94706000D01*
X164446000Y-89998000D02*
X164446000Y-88898000D01*
X172346000Y-86888000D02*
X164646000Y-86888000D01*
X164646000Y-86888000D02*
X164646000Y-92008000D01*
X172346000Y-92008000D02*
X164646000Y-92008000D01*
X164446000Y-84918000D02*
X164446000Y-83818000D01*
X172346000Y-81808000D02*
X164646000Y-81808000D01*
X164646000Y-81808000D02*
X164646000Y-86928000D01*
X172346000Y-86928000D02*
X164646000Y-86928000D01*
X164446000Y-79838000D02*
X164446000Y-78738000D01*
X172346000Y-76728000D02*
X164646000Y-76728000D01*
X164646000Y-76728000D02*
X164646000Y-81848000D01*
X172346000Y-81848000D02*
X164646000Y-81848000D01*
X164446000Y-74758000D02*
X164446000Y-73658000D01*
X172346000Y-71648000D02*
X164646000Y-71648000D01*
X164646000Y-71648000D02*
X164646000Y-76768000D01*
X172346000Y-76768000D02*
X164646000Y-76768000D01*
X140354000Y-73650000D02*
X140354000Y-74750000D01*
X132454000Y-76760000D02*
X140154000Y-76760000D01*
X140154000Y-76760000D02*
X140154000Y-71640000D01*
X132454000Y-71640000D02*
X140154000Y-71640000D01*
X140354000Y-78730000D02*
X140354000Y-79830000D01*
X132454000Y-81840000D02*
X140154000Y-81840000D01*
X140154000Y-81840000D02*
X140154000Y-76720000D01*
X132454000Y-76720000D02*
X140154000Y-76720000D01*
X140354000Y-83818000D02*
X140354000Y-84918000D01*
X132454000Y-86928000D02*
X140154000Y-86928000D01*
X140154000Y-86928000D02*
X140154000Y-81808000D01*
X132454000Y-81808000D02*
X140154000Y-81808000D01*
X140354000Y-88898000D02*
X140354000Y-89998000D01*
X132454000Y-92008000D02*
X140154000Y-92008000D01*
X140154000Y-92008000D02*
X140154000Y-86888000D01*
X132454000Y-86888000D02*
X140154000Y-86888000D01*
D10*
X152066666Y-91228380D02*
X152066666Y-91942666D01*
X152019047Y-92085523D01*
X151923809Y-92180761D01*
X151780952Y-92228380D01*
X151685714Y-92228380D01*
X153066666Y-92228380D02*
X152495238Y-92228380D01*
X152780952Y-92228380D02*
X152780952Y-91228380D01*
X152685714Y-91371238D01*
X152590476Y-91466476D01*
X152495238Y-91514095D01*
M02*
