%TF.GenerationSoftware,KiCad,Pcbnew,7.0.2*%
%TF.CreationDate,2023-11-03T15:57:14-06:00*%
%TF.ProjectId,micro-d-tes-aaray,6d696372-6f2d-4642-9d74-65732d616172,rev?*%
%TF.SameCoordinates,Original*%
%TF.FileFunction,Paste,Top*%
%TF.FilePolarity,Positive*%
%FSLAX46Y46*%
G04 Gerber Fmt 4.6, Leading zero omitted, Abs format (unit mm)*
G04 Created by KiCad (PCBNEW 7.0.2) date 2023-11-03 15:57:14*
%MOMM*%
%LPD*%
G01*
G04 APERTURE LIST*
%ADD10R,0.500000X2.000000*%
%ADD11R,0.258000X2.000000*%
G04 APERTURE END LIST*
D10*
%TO.C,17*%
X21100000Y-22550000D03*
%TD*%
D11*
%TO.C,5*%
X20300000Y-22550000D03*
%TD*%
%TO.C,11*%
X24500000Y-41175000D03*
%TD*%
D10*
%TO.C,8*%
X19400000Y-41175000D03*
%TD*%
D11*
%TO.C,22*%
X22000000Y-41175000D03*
%TD*%
%TO.C,14*%
X8200000Y-41175000D03*
%TD*%
%TO.C,6*%
X15900000Y-41175000D03*
%TD*%
%TO.C,7*%
X17100000Y-22550000D03*
%TD*%
%TO.C,11*%
X10700000Y-22550000D03*
%TD*%
D10*
%TO.C,21*%
X14700000Y-22550000D03*
%TD*%
D11*
%TO.C,16*%
X11600000Y-41175000D03*
%TD*%
D10*
%TO.C,20*%
X16300000Y-22550000D03*
%TD*%
D11*
%TO.C,3*%
X23500000Y-22550000D03*
%TD*%
%TO.C,9*%
X13900000Y-22550000D03*
%TD*%
D10*
%TO.C,15*%
X24300000Y-22550000D03*
%TD*%
D11*
%TO.C,12*%
X7500000Y-22550000D03*
%TD*%
D10*
%TO.C,25*%
X8300000Y-22550000D03*
%TD*%
D11*
%TO.C,5*%
X14300000Y-41175000D03*
%TD*%
%TO.C,9*%
X21100000Y-41175000D03*
%TD*%
%TO.C,4*%
X12500000Y-41175000D03*
%TD*%
%TO.C,17*%
X13400000Y-41175000D03*
%TD*%
%TO.C,7*%
X17700000Y-41175000D03*
%TD*%
%TO.C,19*%
X16800000Y-41175000D03*
%TD*%
D10*
%TO.C,3*%
X10800000Y-41175000D03*
%TD*%
D11*
%TO.C,20*%
X18600000Y-41175000D03*
%TD*%
%TO.C,21*%
X20200000Y-41175000D03*
%TD*%
%TO.C,12*%
X26300000Y-41175000D03*
%TD*%
%TO.C,4*%
X21900000Y-22550000D03*
%TD*%
%TO.C,2*%
X9100000Y-41175000D03*
%TD*%
%TO.C,1*%
X26700000Y-22550000D03*
%TD*%
D10*
%TO.C,16*%
X22700000Y-22550000D03*
%TD*%
%TO.C,14*%
X25900000Y-22550000D03*
%TD*%
D11*
%TO.C,10*%
X22900000Y-41175000D03*
%TD*%
D10*
%TO.C,18*%
X19500000Y-22550000D03*
%TD*%
%TO.C,23*%
X11500000Y-22550000D03*
%TD*%
%TO.C,24*%
X9900000Y-22550000D03*
%TD*%
%TO.C,19*%
X17900000Y-22550000D03*
%TD*%
D11*
%TO.C,25*%
X27200000Y-41175000D03*
%TD*%
%TO.C,12*%
X9100000Y-22550000D03*
%TD*%
D10*
%TO.C,23*%
X23700000Y-41175000D03*
%TD*%
%TO.C,D13*%
X28000000Y-41175000D03*
%TD*%
%TO.C,22*%
X13100000Y-22550000D03*
%TD*%
D11*
%TO.C,1*%
X7300000Y-41175000D03*
%TD*%
%TO.C,8*%
X15500000Y-22550000D03*
%TD*%
%TO.C,10*%
X12300000Y-22550000D03*
%TD*%
%TO.C,6*%
X18700000Y-22550000D03*
%TD*%
%TO.C,24*%
X25400000Y-41175000D03*
%TD*%
D10*
%TO.C,18*%
X15100000Y-41175000D03*
%TD*%
D11*
%TO.C,15*%
X10000000Y-41175000D03*
%TD*%
%TO.C,2*%
X25100000Y-22550000D03*
%TD*%
M02*
