M48
; DRILL file {KiCad 7.0.2} date Fri Nov  3 15:57:14 2023
; FORMAT={-:-/ absolute / inch / decimal}
; #@! TF.CreationDate,2023-11-03T15:57:14-06:00
; #@! TF.GenerationSoftware,Kicad,Pcbnew,7.0.2
; #@! TF.FileFunction,Plated,1,4,PTH
FMAT,2
INCH
; #@! TA.AperFunction,Plated,PTH,ViaDrill
T1C0.0118
; #@! TA.AperFunction,Plated,PTH,ComponentDrill
T2C0.0240
; #@! TA.AperFunction,Plated,PTH,ComponentDrill
T3C0.0906
%
G90
G05
T1
X0.2874Y-1.6555
X0.2957Y-0.8583
X0.3232Y-1.6555
X0.3268Y-0.8555
X0.3583Y-0.8547
X0.3583Y-1.6547
X0.3898Y-0.8547
X0.3937Y-1.6543
X0.4213Y-0.8626
X0.4252Y-1.6539
X0.452Y-0.8547
X0.4567Y-1.6547
X0.4843Y-0.8547
X0.4921Y-1.6543
X0.5157Y-0.8551
X0.5276Y-1.6535
X0.5469Y-0.8614
X0.563Y-1.6531
X0.5787Y-0.8543
X0.5945Y-1.6539
X0.6102Y-0.8547
X0.626Y-1.6543
X0.6417Y-0.861
X0.6614Y-1.6539
X0.6736Y-0.8547
X0.6969Y-1.6539
X0.7047Y-0.8551
X0.7323Y-1.6539
X0.7362Y-0.8551
X0.7626Y-1.6528
X0.7677Y-0.8551
X0.7953Y-1.6531
X0.7984Y-0.8559
X0.8307Y-1.6535
X0.8311Y-0.8559
X0.8622Y-0.8555
X0.8661Y-1.6535
X0.8925Y-0.8555
X0.9016Y-1.6528
X0.9252Y-0.8555
X0.9331Y-1.6524
X0.9563Y-0.8555
X0.9646Y-1.6535
X0.9886Y-0.8555
X1.0Y-1.6528
X1.0197Y-0.8555
X1.0354Y-1.6535
X1.0512Y-0.8555
X1.0713Y-1.6531
X1.1024Y-1.6535
T2
X0.3988Y-0.2116
X0.3988Y-2.2884
X0.4238Y-0.2549
X0.4238Y-2.2451
X0.4488Y-0.2116
X0.4488Y-2.2884
X0.4738Y-0.2549
X0.4738Y-2.2451
X0.4988Y-0.2116
X0.4988Y-2.2884
X0.5238Y-0.2549
X0.5238Y-2.2451
X0.5488Y-0.2116
X0.5488Y-2.2884
X0.5738Y-0.2549
X0.5738Y-2.2451
X0.5988Y-0.2116
X0.5988Y-2.2884
X0.6238Y-0.2549
X0.6238Y-2.2451
X0.6488Y-0.2116
X0.6488Y-2.2884
X0.6738Y-0.2549
X0.6738Y-2.2451
X0.6988Y-0.2116
X0.6988Y-2.2884
X0.7238Y-0.2549
X0.7238Y-2.2451
X0.7488Y-0.2116
X0.7488Y-2.2884
X0.7738Y-0.2549
X0.7738Y-2.2451
X0.7988Y-0.2116
X0.7988Y-2.2884
X0.8238Y-0.2549
X0.8238Y-2.2451
X0.8488Y-0.2116
X0.8488Y-2.2884
X0.8738Y-0.2549
X0.8738Y-2.2451
X0.8988Y-0.2116
X0.8988Y-2.2884
X0.9238Y-0.2549
X0.9238Y-2.2451
X0.9488Y-0.2116
X0.9488Y-2.2884
X0.9738Y-0.2549
X0.9738Y-2.2451
X0.9988Y-0.2116
X0.9988Y-2.2884
T3
X0.3642Y-0.502
X0.3642Y-1.998
X1.0335Y-0.502
X1.0335Y-1.998
T0
M30
