%TF.GenerationSoftware,KiCad,Pcbnew,7.0.2*%
%TF.CreationDate,2023-11-03T15:57:14-06:00*%
%TF.ProjectId,micro-d-tes-aaray,6d696372-6f2d-4642-9d74-65732d616172,rev?*%
%TF.SameCoordinates,Original*%
%TF.FileFunction,Copper,L1,Top*%
%TF.FilePolarity,Positive*%
%FSLAX46Y46*%
G04 Gerber Fmt 4.6, Leading zero omitted, Abs format (unit mm)*
G04 Created by KiCad (PCBNEW 7.0.2) date 2023-11-03 15:57:14*
%MOMM*%
%LPD*%
G01*
G04 APERTURE LIST*
%TA.AperFunction,SMDPad,CuDef*%
%ADD10R,0.500000X2.000000*%
%TD*%
%TA.AperFunction,SMDPad,CuDef*%
%ADD11R,0.258000X2.000000*%
%TD*%
%TA.AperFunction,ComponentPad*%
%ADD12C,3.500000*%
%TD*%
%TA.AperFunction,ComponentPad*%
%ADD13O,0.920000X0.920000*%
%TD*%
%TA.AperFunction,ViaPad*%
%ADD14C,0.500000*%
%TD*%
G04 APERTURE END LIST*
D10*
%TO.P,17,1,Pin_1*%
%TO.N,Net-(J17-Pin_1)*%
X21100000Y-22550000D03*
%TD*%
D11*
%TO.P,5,1,Pin_1*%
%TO.N,Net-(J5-Pin_1)*%
X20300000Y-22550000D03*
%TD*%
%TO.P,11,1,Pin_1*%
%TO.N,Net-(D11-Pin_1)*%
X24500000Y-41175000D03*
%TD*%
D10*
%TO.P,8,1,Pin_1*%
%TO.N,Net-(D8-Pin_1)*%
X19400000Y-41175000D03*
%TD*%
D11*
%TO.P,22,1,Pin_1*%
%TO.N,Net-(D22-Pin_1)*%
X22000000Y-41175000D03*
%TD*%
%TO.P,14,1,Pin_1*%
%TO.N,Net-(D14-Pin_1)*%
X8200000Y-41175000D03*
%TD*%
%TO.P,6,1,Pin_1*%
%TO.N,Net-(D6-Pin_1)*%
X15900000Y-41175000D03*
%TD*%
%TO.P,7,1,Pin_1*%
%TO.N,Net-(J7-Pin_1)*%
X17100000Y-22550000D03*
%TD*%
%TO.P,11,1,Pin_1*%
%TO.N,Net-(J11-Pin_1)*%
X10700000Y-22550000D03*
%TD*%
D10*
%TO.P,21,1,Pin_1*%
%TO.N,Net-(J21-Pin_1)*%
X14700000Y-22550000D03*
%TD*%
D12*
%TO.P,H1,1,1*%
%TO.N,GND*%
X9250000Y-50750000D03*
%TD*%
D11*
%TO.P,16,1,Pin_1*%
%TO.N,Net-(D16-Pin_1)*%
X11600000Y-41175000D03*
%TD*%
D10*
%TO.P,20,1,Pin_1*%
%TO.N,Net-(J20-Pin_1)*%
X16300000Y-22550000D03*
%TD*%
D11*
%TO.P,3,1,Pin_1*%
%TO.N,Net-(J3-Pin_1)*%
X23500000Y-22550000D03*
%TD*%
D12*
%TO.P,H4,1,1*%
%TO.N,GND*%
X9250000Y-12750000D03*
%TD*%
D11*
%TO.P,9,1,Pin_1*%
%TO.N,Net-(J9-Pin_1)*%
X13900000Y-22550000D03*
%TD*%
D10*
%TO.P,15,1,Pin_1*%
%TO.N,Net-(J15-Pin_1)*%
X24300000Y-22550000D03*
%TD*%
D11*
%TO.P,12,1,Pin_1*%
%TO.N,Net-(J13-Pin_1)*%
X7500000Y-22550000D03*
%TD*%
D10*
%TO.P,25,1,Pin_1*%
%TO.N,Net-(J25-Pin_1)*%
X8300000Y-22550000D03*
%TD*%
D12*
%TO.P,H3,1,1*%
%TO.N,GND*%
X26250000Y-50750000D03*
%TD*%
D11*
%TO.P,5,1,Pin_1*%
%TO.N,Net-(D5-Pin_1)*%
X14300000Y-41175000D03*
%TD*%
%TO.P,9,1,Pin_1*%
%TO.N,Net-(D9-Pin_1)*%
X21100000Y-41175000D03*
%TD*%
%TO.P,4,1,Pin_1*%
%TO.N,Net-(D4-Pin_1)*%
X12500000Y-41175000D03*
%TD*%
%TO.P,17,1,Pin_1*%
%TO.N,Net-(D17-Pin_1)*%
X13400000Y-41175000D03*
%TD*%
%TO.P,7,1,Pin_1*%
%TO.N,Net-(D7-Pin_1)*%
X17700000Y-41175000D03*
%TD*%
%TO.P,19,1,Pin_1*%
%TO.N,Net-(D19-Pin_1)*%
X16800000Y-41175000D03*
%TD*%
D10*
%TO.P,3,1,Pin_1*%
%TO.N,Net-(D3-Pin_1)*%
X10800000Y-41175000D03*
%TD*%
D11*
%TO.P,20,1,Pin_1*%
%TO.N,Net-(D20-Pin_1)*%
X18600000Y-41175000D03*
%TD*%
%TO.P,21,1,Pin_1*%
%TO.N,Net-(D21-Pin_1)*%
X20200000Y-41175000D03*
%TD*%
%TO.P,12,1,Pin_1*%
%TO.N,Net-(D12-Pin_1)*%
X26300000Y-41175000D03*
%TD*%
%TO.P,4,1,Pin_1*%
%TO.N,Net-(J4-Pin_1)*%
X21900000Y-22550000D03*
%TD*%
%TO.P,2,1,Pin_1*%
%TO.N,Net-(D2-Pin_1)*%
X9100000Y-41175000D03*
%TD*%
%TO.P,1,1,Pin_1*%
%TO.N,Net-(J1-Pin_1)*%
X26700000Y-22550000D03*
%TD*%
D10*
%TO.P,16,1,Pin_1*%
%TO.N,Net-(J16-Pin_1)*%
X22700000Y-22550000D03*
%TD*%
%TO.P,14,1,Pin_1*%
%TO.N,Net-(J14-Pin_1)*%
X25900000Y-22550000D03*
%TD*%
D11*
%TO.P,10,1,Pin_1*%
%TO.N,Net-(D10-Pin_1)*%
X22900000Y-41175000D03*
%TD*%
D10*
%TO.P,18,1,Pin_1*%
%TO.N,Net-(J18-Pin_1)*%
X19500000Y-22550000D03*
%TD*%
%TO.P,23,1,Pin_1*%
%TO.N,Net-(J23-Pin_1)*%
X11500000Y-22550000D03*
%TD*%
%TO.P,24,1,Pin_1*%
%TO.N,Net-(J24-Pin_1)*%
X9900000Y-22550000D03*
%TD*%
%TO.P,19,1,Pin_1*%
%TO.N,Net-(J19-Pin_1)*%
X17900000Y-22550000D03*
%TD*%
D11*
%TO.P,25,1,Pin_1*%
%TO.N,Net-(D25-Pin_1)*%
X27200000Y-41175000D03*
%TD*%
%TO.P,12,1,Pin_1*%
%TO.N,Net-(J12-Pin_1)*%
X9100000Y-22550000D03*
%TD*%
D10*
%TO.P,23,1,Pin_1*%
%TO.N,Net-(D23-Pin_1)*%
X23700000Y-41175000D03*
%TD*%
%TO.P,D13,1,Pin_1*%
%TO.N,Net-(D13-Pin_1)*%
X28000000Y-41175000D03*
%TD*%
%TO.P,22,1,Pin_1*%
%TO.N,Net-(J22-Pin_1)*%
X13100000Y-22550000D03*
%TD*%
D11*
%TO.P,1,1,Pin_1*%
%TO.N,Net-(D1-Pin_1)*%
X7300000Y-41175000D03*
%TD*%
%TO.P,8,1,Pin_1*%
%TO.N,Net-(J8-Pin_1)*%
X15500000Y-22550000D03*
%TD*%
%TO.P,10,1,Pin_1*%
%TO.N,Net-(J10-Pin_1)*%
X12300000Y-22550000D03*
%TD*%
%TO.P,6,1,Pin_1*%
%TO.N,Net-(J6-Pin_1)*%
X18700000Y-22550000D03*
%TD*%
%TO.P,24,1,Pin_1*%
%TO.N,Net-(D24-Pin_1)*%
X25400000Y-41175000D03*
%TD*%
D10*
%TO.P,18,1,Pin_1*%
%TO.N,Net-(D18-Pin_1)*%
X15100000Y-41175000D03*
%TD*%
D11*
%TO.P,15,1,Pin_1*%
%TO.N,Net-(D15-Pin_1)*%
X10000000Y-41175000D03*
%TD*%
D12*
%TO.P,H2,1,1*%
%TO.N,GND*%
X26250000Y-12750000D03*
%TD*%
D11*
%TO.P,2,1,Pin_1*%
%TO.N,Net-(J2-Pin_1)*%
X25100000Y-22550000D03*
%TD*%
D13*
%TO.P,J99,1,1*%
%TO.N,Net-(J1-Pin_1)*%
X25370000Y-5374500D03*
%TO.P,J99,2,2*%
%TO.N,Net-(J2-Pin_1)*%
X24100000Y-5374500D03*
%TO.P,J99,3,3*%
%TO.N,Net-(J3-Pin_1)*%
X22830000Y-5374500D03*
%TO.P,J99,4,4*%
%TO.N,Net-(J4-Pin_1)*%
X21560000Y-5374500D03*
%TO.P,J99,5,5*%
%TO.N,Net-(J5-Pin_1)*%
X20290000Y-5374500D03*
%TO.P,J99,6,6*%
%TO.N,Net-(J6-Pin_1)*%
X19020000Y-5374500D03*
%TO.P,J99,7,7*%
%TO.N,Net-(J7-Pin_1)*%
X17750000Y-5374500D03*
%TO.P,J99,8,8*%
%TO.N,Net-(J8-Pin_1)*%
X16480000Y-5374500D03*
%TO.P,J99,9,9*%
%TO.N,Net-(J9-Pin_1)*%
X15210000Y-5374500D03*
%TO.P,J99,10,10*%
%TO.N,Net-(J10-Pin_1)*%
X13940000Y-5374500D03*
%TO.P,J99,11,11*%
%TO.N,Net-(J11-Pin_1)*%
X12670000Y-5374500D03*
%TO.P,J99,12,12*%
%TO.N,Net-(J12-Pin_1)*%
X11400000Y-5374500D03*
%TO.P,J99,13,13*%
%TO.N,Net-(J13-Pin_1)*%
X10130000Y-5374500D03*
%TO.P,J99,14,P14*%
%TO.N,Net-(J14-Pin_1)*%
X24735000Y-6474500D03*
%TO.P,J99,15,P15*%
%TO.N,Net-(J15-Pin_1)*%
X23465000Y-6474500D03*
%TO.P,J99,16,P16*%
%TO.N,Net-(J16-Pin_1)*%
X22195000Y-6474500D03*
%TO.P,J99,17,P17*%
%TO.N,Net-(J17-Pin_1)*%
X20925000Y-6474500D03*
%TO.P,J99,18,P18*%
%TO.N,Net-(J18-Pin_1)*%
X19655000Y-6474500D03*
%TO.P,J99,19,P19*%
%TO.N,Net-(J19-Pin_1)*%
X18385000Y-6474500D03*
%TO.P,J99,20,P20*%
%TO.N,Net-(J20-Pin_1)*%
X17115000Y-6474500D03*
%TO.P,J99,21,P21*%
%TO.N,Net-(J21-Pin_1)*%
X15845000Y-6474500D03*
%TO.P,J99,22,P22*%
%TO.N,Net-(J22-Pin_1)*%
X14575000Y-6474500D03*
%TO.P,J99,23,P23*%
%TO.N,Net-(J23-Pin_1)*%
X13305000Y-6474500D03*
%TO.P,J99,24,P24*%
%TO.N,Net-(J24-Pin_1)*%
X12035000Y-6474500D03*
%TO.P,J99,25,P25*%
%TO.N,Net-(J25-Pin_1)*%
X10765000Y-6474500D03*
%TD*%
%TO.P,J26,1,1*%
%TO.N,Net-(D1-Pin_1)*%
X10130000Y-58124500D03*
%TO.P,J26,2,2*%
%TO.N,Net-(D2-Pin_1)*%
X11400000Y-58124500D03*
%TO.P,J26,3,3*%
%TO.N,Net-(D3-Pin_1)*%
X12670000Y-58124500D03*
%TO.P,J26,4,4*%
%TO.N,Net-(D4-Pin_1)*%
X13940000Y-58124500D03*
%TO.P,J26,5,5*%
%TO.N,Net-(D5-Pin_1)*%
X15210000Y-58124500D03*
%TO.P,J26,6,6*%
%TO.N,Net-(D6-Pin_1)*%
X16480000Y-58124500D03*
%TO.P,J26,7,7*%
%TO.N,Net-(D7-Pin_1)*%
X17750000Y-58124500D03*
%TO.P,J26,8,8*%
%TO.N,Net-(D8-Pin_1)*%
X19020000Y-58124500D03*
%TO.P,J26,9,9*%
%TO.N,Net-(D9-Pin_1)*%
X20290000Y-58124500D03*
%TO.P,J26,10,10*%
%TO.N,Net-(D10-Pin_1)*%
X21560000Y-58124500D03*
%TO.P,J26,11,11*%
%TO.N,Net-(D11-Pin_1)*%
X22830000Y-58124500D03*
%TO.P,J26,12,12*%
%TO.N,Net-(D12-Pin_1)*%
X24100000Y-58124500D03*
%TO.P,J26,13,13*%
%TO.N,Net-(D13-Pin_1)*%
X25370000Y-58124500D03*
%TO.P,J26,14,P14*%
%TO.N,Net-(D14-Pin_1)*%
X10765000Y-57024500D03*
%TO.P,J26,15,P15*%
%TO.N,Net-(D15-Pin_1)*%
X12035000Y-57024500D03*
%TO.P,J26,16,P16*%
%TO.N,Net-(D16-Pin_1)*%
X13305000Y-57024500D03*
%TO.P,J26,17,P17*%
%TO.N,Net-(D17-Pin_1)*%
X14575000Y-57024500D03*
%TO.P,J26,18,P18*%
%TO.N,Net-(D18-Pin_1)*%
X15845000Y-57024500D03*
%TO.P,J26,19,P19*%
%TO.N,Net-(D19-Pin_1)*%
X17115000Y-57024500D03*
%TO.P,J26,20,P20*%
%TO.N,Net-(D20-Pin_1)*%
X18385000Y-57024500D03*
%TO.P,J26,21,P21*%
%TO.N,Net-(D21-Pin_1)*%
X19655000Y-57024500D03*
%TO.P,J26,22,P22*%
%TO.N,Net-(D22-Pin_1)*%
X20925000Y-57024500D03*
%TO.P,J26,23,P23*%
%TO.N,Net-(D23-Pin_1)*%
X22195000Y-57024500D03*
%TO.P,J26,24,P24*%
%TO.N,Net-(D24-Pin_1)*%
X23465000Y-57024500D03*
%TO.P,J26,25,P25*%
%TO.N,Net-(D25-Pin_1)*%
X24735000Y-57024500D03*
%TD*%
D14*
%TO.N,Net-(J20-Pin_1)*%
X16300000Y-21870000D03*
%TO.N,Net-(J1-Pin_1)*%
X26700000Y-21730000D03*
%TO.N,Net-(J2-Pin_1)*%
X25110000Y-21730000D03*
%TO.N,Net-(J14-Pin_1)*%
X25900000Y-21730000D03*
%TO.N,Net-(J15-Pin_1)*%
X24290000Y-21730000D03*
%TO.N,Net-(J3-Pin_1)*%
X23500000Y-21730000D03*
%TO.N,Net-(J16-Pin_1)*%
X22670000Y-21730000D03*
%TO.N,Net-(J4-Pin_1)*%
X21900000Y-21730000D03*
%TO.N,Net-(J17-Pin_1)*%
X21110000Y-21740000D03*
%TO.N,Net-(J5-Pin_1)*%
X20280000Y-21740000D03*
%TO.N,Net-(J18-Pin_1)*%
X19500000Y-21720000D03*
%TO.N,Net-(J6-Pin_1)*%
X18700000Y-21720000D03*
%TO.N,Net-(J19-Pin_1)*%
X17900000Y-21720000D03*
%TO.N,Net-(J7-Pin_1)*%
X17110000Y-21710000D03*
%TO.N,Net-(J8-Pin_1)*%
X15500000Y-21710000D03*
%TO.N,Net-(J21-Pin_1)*%
X14700000Y-21700000D03*
%TO.N,Net-(J9-Pin_1)*%
X13890000Y-21880000D03*
%TO.N,Net-(J22-Pin_1)*%
X13100000Y-21720000D03*
%TO.N,Net-(J10-Pin_1)*%
X12300000Y-21710000D03*
%TO.N,Net-(J23-Pin_1)*%
X11480000Y-21710000D03*
%TO.N,Net-(J11-Pin_1)*%
X10700000Y-21910000D03*
%TO.N,Net-(J24-Pin_1)*%
X9900000Y-21710000D03*
%TO.N,Net-(J12-Pin_1)*%
X9100000Y-21710000D03*
%TO.N,Net-(J25-Pin_1)*%
X8300000Y-21730000D03*
%TO.N,Net-(J13-Pin_1)*%
X7510000Y-21800000D03*
%TO.N,Net-(D13-Pin_1)*%
X28000000Y-42000000D03*
%TO.N,Net-(D25-Pin_1)*%
X27210000Y-41990000D03*
%TO.N,Net-(D12-Pin_1)*%
X26300000Y-42000000D03*
%TO.N,Net-(D24-Pin_1)*%
X25400000Y-41980000D03*
%TO.N,Net-(D11-Pin_1)*%
X24500000Y-42000000D03*
%TO.N,Net-(D23-Pin_1)*%
X23700000Y-41970000D03*
%TO.N,Net-(D10-Pin_1)*%
X22900000Y-41980000D03*
%TO.N,Net-(D22-Pin_1)*%
X22000000Y-42000000D03*
%TO.N,Net-(D9-Pin_1)*%
X21100000Y-42000000D03*
%TO.N,Net-(D21-Pin_1)*%
X20200000Y-41990000D03*
%TO.N,Net-(D8-Pin_1)*%
X19370000Y-41980000D03*
%TO.N,Net-(D20-Pin_1)*%
X18600000Y-42010000D03*
%TO.N,Net-(D7-Pin_1)*%
X17700000Y-42010000D03*
%TO.N,Net-(D19-Pin_1)*%
X16800000Y-42010000D03*
%TO.N,Net-(D6-Pin_1)*%
X15900000Y-42020000D03*
%TO.N,Net-(D18-Pin_1)*%
X15100000Y-42010000D03*
%TO.N,Net-(D5-Pin_1)*%
X14300000Y-41990000D03*
%TO.N,Net-(D17-Pin_1)*%
X13400000Y-42000000D03*
%TO.N,Net-(D3-Pin_1)*%
X10800000Y-42010000D03*
%TO.N,Net-(D4-Pin_1)*%
X12500000Y-42020000D03*
%TO.N,Net-(D16-Pin_1)*%
X11600000Y-42030000D03*
%TO.N,Net-(D15-Pin_1)*%
X10000000Y-42020000D03*
%TO.N,Net-(D2-Pin_1)*%
X9100000Y-42030000D03*
%TO.N,Net-(D14-Pin_1)*%
X8210000Y-42050000D03*
%TO.N,Net-(D1-Pin_1)*%
X7300000Y-42050000D03*
%TD*%
%TA.AperFunction,Conductor*%
%TO.N,GND*%
G36*
X35442539Y-20185D02*
G01*
X35488294Y-72989D01*
X35499500Y-124500D01*
X35499500Y-63375500D01*
X35479815Y-63442539D01*
X35427011Y-63488294D01*
X35375500Y-63499500D01*
X124500Y-63499500D01*
X57461Y-63479815D01*
X11706Y-63427011D01*
X500Y-63375500D01*
X500Y-58124500D01*
X9164853Y-58124500D01*
X9183397Y-58312789D01*
X9183398Y-58312791D01*
X9238320Y-58493846D01*
X9327510Y-58660707D01*
X9374409Y-58717854D01*
X9447537Y-58806962D01*
X9494999Y-58845912D01*
X9593793Y-58926990D01*
X9760654Y-59016180D01*
X9941709Y-59071102D01*
X10130000Y-59089647D01*
X10318291Y-59071102D01*
X10499346Y-59016180D01*
X10666207Y-58926990D01*
X10686332Y-58910473D01*
X10750642Y-58883158D01*
X10819510Y-58894948D01*
X10843662Y-58910469D01*
X10863793Y-58926990D01*
X11030654Y-59016180D01*
X11211709Y-59071102D01*
X11400000Y-59089647D01*
X11588291Y-59071102D01*
X11769346Y-59016180D01*
X11936207Y-58926990D01*
X11956332Y-58910473D01*
X12020642Y-58883158D01*
X12089510Y-58894948D01*
X12113662Y-58910469D01*
X12133793Y-58926990D01*
X12300654Y-59016180D01*
X12481709Y-59071102D01*
X12670000Y-59089647D01*
X12858291Y-59071102D01*
X13039346Y-59016180D01*
X13206207Y-58926990D01*
X13226335Y-58910470D01*
X13290644Y-58883158D01*
X13359512Y-58894949D01*
X13383663Y-58910470D01*
X13403793Y-58926990D01*
X13570654Y-59016180D01*
X13751709Y-59071102D01*
X13940000Y-59089647D01*
X14128291Y-59071102D01*
X14309346Y-59016180D01*
X14476207Y-58926990D01*
X14496333Y-58910472D01*
X14560641Y-58883158D01*
X14629509Y-58894948D01*
X14653663Y-58910470D01*
X14653667Y-58910473D01*
X14673793Y-58926990D01*
X14840654Y-59016180D01*
X15021709Y-59071102D01*
X15210000Y-59089647D01*
X15398291Y-59071102D01*
X15579346Y-59016180D01*
X15746207Y-58926990D01*
X15766332Y-58910473D01*
X15830642Y-58883158D01*
X15899510Y-58894948D01*
X15923662Y-58910469D01*
X15943793Y-58926990D01*
X16110654Y-59016180D01*
X16291709Y-59071102D01*
X16480000Y-59089647D01*
X16668291Y-59071102D01*
X16849346Y-59016180D01*
X17016207Y-58926990D01*
X17036333Y-58910472D01*
X17100641Y-58883158D01*
X17169509Y-58894948D01*
X17193663Y-58910470D01*
X17193667Y-58910473D01*
X17213793Y-58926990D01*
X17380654Y-59016180D01*
X17561709Y-59071102D01*
X17750000Y-59089647D01*
X17938291Y-59071102D01*
X18119346Y-59016180D01*
X18286207Y-58926990D01*
X18306335Y-58910470D01*
X18370644Y-58883158D01*
X18439512Y-58894949D01*
X18463663Y-58910470D01*
X18483793Y-58926990D01*
X18650654Y-59016180D01*
X18831709Y-59071102D01*
X19020000Y-59089647D01*
X19208291Y-59071102D01*
X19389346Y-59016180D01*
X19556207Y-58926990D01*
X19576333Y-58910472D01*
X19640641Y-58883158D01*
X19709509Y-58894948D01*
X19733663Y-58910470D01*
X19733667Y-58910473D01*
X19753793Y-58926990D01*
X19920654Y-59016180D01*
X20101709Y-59071102D01*
X20290000Y-59089647D01*
X20478291Y-59071102D01*
X20659346Y-59016180D01*
X20826207Y-58926990D01*
X20846335Y-58910470D01*
X20910644Y-58883158D01*
X20979512Y-58894949D01*
X21003663Y-58910470D01*
X21023793Y-58926990D01*
X21190654Y-59016180D01*
X21371709Y-59071102D01*
X21560000Y-59089647D01*
X21748291Y-59071102D01*
X21929346Y-59016180D01*
X22096207Y-58926990D01*
X22116333Y-58910472D01*
X22180641Y-58883158D01*
X22249509Y-58894948D01*
X22273663Y-58910470D01*
X22273667Y-58910473D01*
X22293793Y-58926990D01*
X22460654Y-59016180D01*
X22641709Y-59071102D01*
X22830000Y-59089647D01*
X23018291Y-59071102D01*
X23199346Y-59016180D01*
X23366207Y-58926990D01*
X23386335Y-58910470D01*
X23450644Y-58883158D01*
X23519512Y-58894949D01*
X23543663Y-58910470D01*
X23563793Y-58926990D01*
X23730654Y-59016180D01*
X23911709Y-59071102D01*
X24100000Y-59089647D01*
X24288291Y-59071102D01*
X24469346Y-59016180D01*
X24636207Y-58926990D01*
X24656333Y-58910472D01*
X24720641Y-58883158D01*
X24789509Y-58894948D01*
X24813663Y-58910470D01*
X24813667Y-58910473D01*
X24833793Y-58926990D01*
X25000654Y-59016180D01*
X25181709Y-59071102D01*
X25370000Y-59089647D01*
X25558291Y-59071102D01*
X25739346Y-59016180D01*
X25906207Y-58926990D01*
X26052462Y-58806962D01*
X26172490Y-58660707D01*
X26261680Y-58493846D01*
X26316602Y-58312791D01*
X26335147Y-58124500D01*
X26316602Y-57936209D01*
X26261680Y-57755154D01*
X26172490Y-57588293D01*
X26112476Y-57515165D01*
X26052462Y-57442037D01*
X25906207Y-57322010D01*
X25906203Y-57322008D01*
X25755683Y-57241552D01*
X25705841Y-57192591D01*
X25690381Y-57124454D01*
X25690731Y-57120099D01*
X25700147Y-57024500D01*
X25681602Y-56836209D01*
X25626680Y-56655154D01*
X25537490Y-56488293D01*
X25477475Y-56415165D01*
X25417462Y-56342037D01*
X25310247Y-56254049D01*
X25271207Y-56222010D01*
X25104346Y-56132820D01*
X25013818Y-56105359D01*
X24923289Y-56077897D01*
X24735000Y-56059353D01*
X24546710Y-56077897D01*
X24365651Y-56132821D01*
X24198794Y-56222009D01*
X24178661Y-56238531D01*
X24114350Y-56265842D01*
X24045483Y-56254048D01*
X24021334Y-56238528D01*
X24001207Y-56222010D01*
X23834346Y-56132820D01*
X23743818Y-56105359D01*
X23653289Y-56077897D01*
X23485569Y-56061378D01*
X23465000Y-56059353D01*
X23464999Y-56059353D01*
X23276710Y-56077897D01*
X23095651Y-56132821D01*
X22928793Y-56222009D01*
X22908664Y-56238529D01*
X22844353Y-56265841D01*
X22775486Y-56254049D01*
X22751336Y-56238529D01*
X22731206Y-56222009D01*
X22564348Y-56132821D01*
X22564347Y-56132820D01*
X22564346Y-56132820D01*
X22473818Y-56105359D01*
X22383289Y-56077897D01*
X22195000Y-56059353D01*
X22006710Y-56077897D01*
X21825651Y-56132821D01*
X21658794Y-56222009D01*
X21638661Y-56238531D01*
X21574350Y-56265842D01*
X21505483Y-56254048D01*
X21481334Y-56238528D01*
X21461207Y-56222010D01*
X21294346Y-56132820D01*
X21203818Y-56105359D01*
X21113289Y-56077897D01*
X20945569Y-56061378D01*
X20925000Y-56059353D01*
X20924999Y-56059353D01*
X20736710Y-56077897D01*
X20555651Y-56132821D01*
X20388793Y-56222009D01*
X20368664Y-56238529D01*
X20304353Y-56265841D01*
X20235486Y-56254049D01*
X20211336Y-56238529D01*
X20191206Y-56222009D01*
X20024348Y-56132821D01*
X20024347Y-56132820D01*
X20024346Y-56132820D01*
X19933818Y-56105359D01*
X19843289Y-56077897D01*
X19655000Y-56059353D01*
X19466710Y-56077897D01*
X19285651Y-56132821D01*
X19118794Y-56222009D01*
X19098661Y-56238531D01*
X19034350Y-56265842D01*
X18965483Y-56254048D01*
X18941334Y-56238528D01*
X18921207Y-56222010D01*
X18754346Y-56132820D01*
X18663818Y-56105359D01*
X18573289Y-56077897D01*
X18385000Y-56059353D01*
X18196710Y-56077897D01*
X18015651Y-56132821D01*
X17848793Y-56222009D01*
X17828664Y-56238529D01*
X17764353Y-56265841D01*
X17695486Y-56254049D01*
X17671336Y-56238529D01*
X17651206Y-56222009D01*
X17484348Y-56132821D01*
X17484347Y-56132820D01*
X17484346Y-56132820D01*
X17393818Y-56105359D01*
X17303289Y-56077897D01*
X17135569Y-56061378D01*
X17115000Y-56059353D01*
X17114999Y-56059353D01*
X16926710Y-56077897D01*
X16745651Y-56132821D01*
X16578794Y-56222009D01*
X16558661Y-56238531D01*
X16494350Y-56265842D01*
X16425483Y-56254048D01*
X16401334Y-56238528D01*
X16381207Y-56222010D01*
X16214346Y-56132820D01*
X16123818Y-56105359D01*
X16033289Y-56077897D01*
X15845000Y-56059353D01*
X15656710Y-56077897D01*
X15475651Y-56132821D01*
X15308793Y-56222009D01*
X15288664Y-56238529D01*
X15224353Y-56265841D01*
X15155486Y-56254049D01*
X15131336Y-56238529D01*
X15111206Y-56222009D01*
X14944348Y-56132821D01*
X14944347Y-56132820D01*
X14944346Y-56132820D01*
X14853818Y-56105359D01*
X14763289Y-56077897D01*
X14595569Y-56061378D01*
X14575000Y-56059353D01*
X14574999Y-56059353D01*
X14386710Y-56077897D01*
X14205651Y-56132821D01*
X14038794Y-56222009D01*
X14018661Y-56238531D01*
X13954350Y-56265842D01*
X13885483Y-56254048D01*
X13861334Y-56238528D01*
X13841207Y-56222010D01*
X13674346Y-56132820D01*
X13583818Y-56105359D01*
X13493289Y-56077897D01*
X13325569Y-56061378D01*
X13305000Y-56059353D01*
X13304999Y-56059353D01*
X13116710Y-56077897D01*
X12935651Y-56132821D01*
X12768793Y-56222009D01*
X12748664Y-56238529D01*
X12684353Y-56265841D01*
X12615486Y-56254049D01*
X12591336Y-56238529D01*
X12571206Y-56222009D01*
X12404348Y-56132821D01*
X12404347Y-56132820D01*
X12404346Y-56132820D01*
X12313818Y-56105359D01*
X12223289Y-56077897D01*
X12035000Y-56059353D01*
X11846710Y-56077897D01*
X11665651Y-56132821D01*
X11498794Y-56222009D01*
X11478661Y-56238531D01*
X11414350Y-56265842D01*
X11345483Y-56254048D01*
X11321334Y-56238528D01*
X11301207Y-56222010D01*
X11134346Y-56132820D01*
X11043818Y-56105359D01*
X10953289Y-56077897D01*
X10785569Y-56061378D01*
X10765000Y-56059353D01*
X10764999Y-56059353D01*
X10576710Y-56077897D01*
X10395651Y-56132821D01*
X10228794Y-56222009D01*
X10082537Y-56342037D01*
X9962509Y-56488294D01*
X9873321Y-56655151D01*
X9818397Y-56836210D01*
X9799853Y-57024500D01*
X9809262Y-57120042D01*
X9796243Y-57188688D01*
X9748177Y-57239398D01*
X9744314Y-57241552D01*
X9593794Y-57322008D01*
X9447537Y-57442037D01*
X9327509Y-57588294D01*
X9238321Y-57755151D01*
X9183397Y-57936210D01*
X9164853Y-58124500D01*
X500Y-58124500D01*
X500Y-50754043D01*
X6995437Y-50754043D01*
X7014197Y-51040271D01*
X7015253Y-51048293D01*
X7071210Y-51329608D01*
X7073307Y-51337436D01*
X7165505Y-51609038D01*
X7168607Y-51616528D01*
X7295466Y-51873774D01*
X7299516Y-51880788D01*
X7458866Y-52119271D01*
X7463805Y-52125708D01*
X7490405Y-52156039D01*
X7490406Y-52156039D01*
X8279438Y-51367007D01*
X8328348Y-51445999D01*
X8471931Y-51603501D01*
X8630388Y-51723163D01*
X7843959Y-52509592D01*
X7843959Y-52509593D01*
X7874291Y-52536194D01*
X7880728Y-52541133D01*
X8119211Y-52700483D01*
X8126225Y-52704533D01*
X8383471Y-52831392D01*
X8390961Y-52834494D01*
X8662563Y-52926692D01*
X8670391Y-52928789D01*
X8951706Y-52984746D01*
X8959728Y-52985802D01*
X9245957Y-53004563D01*
X9254043Y-53004563D01*
X9540271Y-52985802D01*
X9548293Y-52984746D01*
X9829608Y-52928789D01*
X9837436Y-52926692D01*
X10109038Y-52834494D01*
X10116528Y-52831392D01*
X10373774Y-52704533D01*
X10380788Y-52700483D01*
X10619273Y-52541132D01*
X10625698Y-52536201D01*
X10656040Y-52509592D01*
X9869611Y-51723163D01*
X10028069Y-51603501D01*
X10171652Y-51445999D01*
X10220560Y-51367008D01*
X11009592Y-52156040D01*
X11036201Y-52125698D01*
X11041132Y-52119273D01*
X11200483Y-51880788D01*
X11204533Y-51873774D01*
X11331392Y-51616528D01*
X11334494Y-51609038D01*
X11426692Y-51337436D01*
X11428789Y-51329608D01*
X11484746Y-51048293D01*
X11485802Y-51040271D01*
X11504563Y-50754043D01*
X11504563Y-50745956D01*
X11485802Y-50459728D01*
X11484746Y-50451706D01*
X11428789Y-50170391D01*
X11426692Y-50162563D01*
X11334494Y-49890961D01*
X11331392Y-49883471D01*
X11265572Y-49750000D01*
X15494671Y-49750000D01*
X15501784Y-49858521D01*
X15500299Y-49865155D01*
X15503480Y-49888809D01*
X15504319Y-49897204D01*
X15504759Y-49903925D01*
X15505025Y-49912020D01*
X15505025Y-49931442D01*
X15507057Y-49938976D01*
X15513966Y-50044380D01*
X15514757Y-50048359D01*
X15514758Y-50048363D01*
X15535795Y-50154124D01*
X15535112Y-50161756D01*
X15541988Y-50186858D01*
X15544013Y-50195438D01*
X15545433Y-50202580D01*
X15546707Y-50210231D01*
X15548970Y-50227057D01*
X15551516Y-50233161D01*
X15570726Y-50329738D01*
X15570728Y-50329745D01*
X15571519Y-50333722D01*
X15572822Y-50337563D01*
X15572825Y-50337571D01*
X15608497Y-50442658D01*
X15608851Y-50451163D01*
X15619770Y-50476913D01*
X15623029Y-50485463D01*
X15625750Y-50493479D01*
X15627924Y-50500575D01*
X15631669Y-50514247D01*
X15634383Y-50518913D01*
X15666348Y-50613077D01*
X15668141Y-50616712D01*
X15668144Y-50616720D01*
X15718628Y-50719091D01*
X15720234Y-50728306D01*
X15735368Y-50753858D01*
X15739893Y-50762211D01*
X15744425Y-50771402D01*
X15747369Y-50777830D01*
X15751654Y-50787935D01*
X15754203Y-50791231D01*
X15795030Y-50874019D01*
X15796828Y-50877665D01*
X15799079Y-50881034D01*
X15799082Y-50881039D01*
X15864264Y-50978590D01*
X15867306Y-50988305D01*
X15886672Y-51012829D01*
X15892457Y-51020784D01*
X15899482Y-51031297D01*
X15903073Y-51037000D01*
X15906805Y-51043301D01*
X15908870Y-51045348D01*
X15958356Y-51119409D01*
X15960727Y-51122957D01*
X15963408Y-51126014D01*
X16042850Y-51216600D01*
X16047474Y-51226568D01*
X16070928Y-51249251D01*
X16077953Y-51256627D01*
X16088367Y-51268502D01*
X16092452Y-51273409D01*
X16094397Y-51275872D01*
X16095688Y-51276850D01*
X16155242Y-51344758D01*
X16158287Y-51347428D01*
X16158290Y-51347431D01*
X16251285Y-51428986D01*
X16257596Y-51438936D01*
X16284854Y-51459020D01*
X16293057Y-51465619D01*
X16307885Y-51478623D01*
X16310944Y-51481441D01*
X16311382Y-51481690D01*
X16377043Y-51539273D01*
X16380425Y-51541532D01*
X16380424Y-51541532D01*
X16485919Y-51612022D01*
X16493973Y-51621659D01*
X16524620Y-51638454D01*
X16533914Y-51644091D01*
X16622335Y-51703172D01*
X16625968Y-51704963D01*
X16625974Y-51704967D01*
X16742651Y-51762505D01*
X16752459Y-51771528D01*
X16785988Y-51784442D01*
X16796265Y-51788944D01*
X16886923Y-51833652D01*
X16890771Y-51834958D01*
X16890773Y-51834959D01*
X17016993Y-51877805D01*
X17028514Y-51885906D01*
X17064307Y-51894436D01*
X17075416Y-51897637D01*
X17126271Y-51914900D01*
X17162433Y-51927176D01*
X17162435Y-51927176D01*
X17166278Y-51928481D01*
X17304150Y-51955905D01*
X17317283Y-51962775D01*
X17354661Y-51966535D01*
X17366432Y-51968293D01*
X17455620Y-51986034D01*
X17599110Y-51995439D01*
X17613709Y-52000785D01*
X17651937Y-51999507D01*
X17664176Y-51999703D01*
X17750000Y-52005329D01*
X17896701Y-51995713D01*
X17912575Y-51999265D01*
X17950885Y-51992803D01*
X17963369Y-51991343D01*
X18044380Y-51986034D01*
X18191741Y-51956722D01*
X18208644Y-51958234D01*
X18246253Y-51946568D01*
X18258782Y-51943387D01*
X18333722Y-51928481D01*
X18479054Y-51879146D01*
X18496697Y-51878411D01*
X18532832Y-51861643D01*
X18545151Y-51856709D01*
X18613077Y-51833652D01*
X18753632Y-51764337D01*
X18771701Y-51761188D01*
X18805617Y-51739537D01*
X18817483Y-51732849D01*
X18877665Y-51703172D01*
X19010668Y-51614301D01*
X19028805Y-51608622D01*
X19059789Y-51582427D01*
X19070947Y-51574024D01*
X19122957Y-51539273D01*
X19245658Y-51431666D01*
X19263501Y-51423388D01*
X19290920Y-51393072D01*
X19301112Y-51383034D01*
X19344758Y-51344758D01*
X19454509Y-51219611D01*
X19471660Y-51208732D01*
X19494928Y-51174837D01*
X19503925Y-51163263D01*
X19539273Y-51122957D01*
X19633556Y-50981852D01*
X19649629Y-50968419D01*
X19668260Y-50931549D01*
X19675821Y-50918597D01*
X19703172Y-50877665D01*
X19764135Y-50754043D01*
X23995437Y-50754043D01*
X24014197Y-51040271D01*
X24015253Y-51048293D01*
X24071210Y-51329608D01*
X24073307Y-51337436D01*
X24165505Y-51609038D01*
X24168607Y-51616528D01*
X24295466Y-51873774D01*
X24299516Y-51880788D01*
X24458866Y-52119271D01*
X24463805Y-52125708D01*
X24490405Y-52156039D01*
X24490406Y-52156039D01*
X25279438Y-51367007D01*
X25328348Y-51445999D01*
X25471931Y-51603501D01*
X25630388Y-51723163D01*
X24843959Y-52509592D01*
X24843959Y-52509593D01*
X24874291Y-52536194D01*
X24880728Y-52541133D01*
X25119211Y-52700483D01*
X25126225Y-52704533D01*
X25383471Y-52831392D01*
X25390961Y-52834494D01*
X25662563Y-52926692D01*
X25670391Y-52928789D01*
X25951706Y-52984746D01*
X25959728Y-52985802D01*
X26245957Y-53004563D01*
X26254043Y-53004563D01*
X26540271Y-52985802D01*
X26548293Y-52984746D01*
X26829608Y-52928789D01*
X26837436Y-52926692D01*
X27109038Y-52834494D01*
X27116528Y-52831392D01*
X27373774Y-52704533D01*
X27380788Y-52700483D01*
X27619273Y-52541132D01*
X27625698Y-52536201D01*
X27656040Y-52509592D01*
X26869611Y-51723163D01*
X27028069Y-51603501D01*
X27171652Y-51445999D01*
X27220560Y-51367008D01*
X28009592Y-52156040D01*
X28036201Y-52125698D01*
X28041132Y-52119273D01*
X28200483Y-51880788D01*
X28204533Y-51873774D01*
X28331392Y-51616528D01*
X28334494Y-51609038D01*
X28426692Y-51337436D01*
X28428789Y-51329608D01*
X28484746Y-51048293D01*
X28485802Y-51040271D01*
X28504563Y-50754043D01*
X28504563Y-50745956D01*
X28485802Y-50459728D01*
X28484746Y-50451706D01*
X28428789Y-50170391D01*
X28426692Y-50162563D01*
X28334494Y-49890961D01*
X28331392Y-49883471D01*
X28204533Y-49626225D01*
X28200483Y-49619211D01*
X28041133Y-49380728D01*
X28036194Y-49374291D01*
X28009592Y-49343959D01*
X27220560Y-50132991D01*
X27171652Y-50054001D01*
X27028069Y-49896499D01*
X26869610Y-49776835D01*
X27656039Y-48990406D01*
X27656039Y-48990405D01*
X27625708Y-48963805D01*
X27619271Y-48958866D01*
X27380788Y-48799516D01*
X27373774Y-48795466D01*
X27116528Y-48668607D01*
X27109038Y-48665505D01*
X26837436Y-48573307D01*
X26829608Y-48571210D01*
X26548293Y-48515253D01*
X26540271Y-48514197D01*
X26254043Y-48495437D01*
X26245957Y-48495437D01*
X25959728Y-48514197D01*
X25951706Y-48515253D01*
X25670391Y-48571210D01*
X25662563Y-48573307D01*
X25390961Y-48665505D01*
X25383471Y-48668607D01*
X25126225Y-48795466D01*
X25119211Y-48799516D01*
X24880723Y-48958869D01*
X24874295Y-48963801D01*
X24843958Y-48990405D01*
X24843958Y-48990406D01*
X25630388Y-49776836D01*
X25471931Y-49896499D01*
X25328348Y-50054001D01*
X25279439Y-50132991D01*
X24490406Y-49343958D01*
X24490405Y-49343958D01*
X24463801Y-49374295D01*
X24458869Y-49380723D01*
X24299516Y-49619211D01*
X24295466Y-49626225D01*
X24168607Y-49883471D01*
X24165505Y-49890961D01*
X24073307Y-50162563D01*
X24071210Y-50170391D01*
X24015253Y-50451706D01*
X24014197Y-50459728D01*
X23995437Y-50745956D01*
X23995437Y-50754043D01*
X19764135Y-50754043D01*
X19779667Y-50722547D01*
X19794273Y-50706671D01*
X19807878Y-50667489D01*
X19813796Y-50653339D01*
X19833652Y-50613077D01*
X19890294Y-50446215D01*
X19903058Y-50428063D01*
X19911344Y-50387296D01*
X19915435Y-50372153D01*
X19928481Y-50333722D01*
X19986034Y-50044380D01*
X20005329Y-49750000D01*
X19986034Y-49455620D01*
X19928481Y-49166278D01*
X19915441Y-49127865D01*
X19911345Y-49112706D01*
X19904554Y-49079297D01*
X19890296Y-49053790D01*
X19834959Y-48890773D01*
X19834956Y-48890765D01*
X19833652Y-48886923D01*
X19831413Y-48882384D01*
X19813809Y-48846684D01*
X19807882Y-48832516D01*
X19796669Y-48800225D01*
X19779669Y-48777456D01*
X19704967Y-48625976D01*
X19703172Y-48622336D01*
X19695197Y-48610401D01*
X19675835Y-48581422D01*
X19668265Y-48568457D01*
X19652824Y-48537901D01*
X19633556Y-48518148D01*
X19541532Y-48380424D01*
X19539273Y-48377043D01*
X19503934Y-48336747D01*
X19494932Y-48325166D01*
X19475550Y-48296932D01*
X19454509Y-48280389D01*
X19347431Y-48158290D01*
X19344758Y-48155242D01*
X19301130Y-48116981D01*
X19290924Y-48106930D01*
X19267964Y-48081544D01*
X19245659Y-48068334D01*
X19126015Y-47963408D01*
X19126007Y-47963402D01*
X19122957Y-47960727D01*
X19070965Y-47925987D01*
X19059798Y-47917578D01*
X19033712Y-47895523D01*
X19010669Y-47885698D01*
X18881035Y-47799080D01*
X18877665Y-47796828D01*
X18874036Y-47795038D01*
X18874025Y-47795032D01*
X18817498Y-47767157D01*
X18805620Y-47760464D01*
X18776923Y-47742144D01*
X18753634Y-47735662D01*
X18616726Y-47668147D01*
X18616719Y-47668144D01*
X18613077Y-47666348D01*
X18545174Y-47643298D01*
X18532840Y-47638359D01*
X18502108Y-47624098D01*
X18479054Y-47620852D01*
X18337571Y-47572825D01*
X18337563Y-47572822D01*
X18333722Y-47571519D01*
X18323899Y-47569565D01*
X18258807Y-47556617D01*
X18246261Y-47553433D01*
X18214123Y-47543463D01*
X18191743Y-47543278D01*
X18044380Y-47513966D01*
X18040332Y-47513700D01*
X18040327Y-47513700D01*
X17963405Y-47508658D01*
X17950892Y-47507197D01*
X17917997Y-47501648D01*
X17896703Y-47504286D01*
X17750000Y-47494671D01*
X17664194Y-47500295D01*
X17651949Y-47500491D01*
X17618958Y-47499388D01*
X17599107Y-47504561D01*
X17459673Y-47513700D01*
X17459667Y-47513700D01*
X17455620Y-47513966D01*
X17451649Y-47514755D01*
X17451648Y-47514756D01*
X17366449Y-47531703D01*
X17354672Y-47533462D01*
X17322265Y-47536722D01*
X17304149Y-47544095D01*
X17170261Y-47570726D01*
X17170250Y-47570728D01*
X17166278Y-47571519D01*
X17162444Y-47572820D01*
X17162442Y-47572821D01*
X17075429Y-47602358D01*
X17064318Y-47605560D01*
X17033141Y-47612990D01*
X17016996Y-47622193D01*
X16915014Y-47656812D01*
X16886923Y-47666348D01*
X16883291Y-47668138D01*
X16883279Y-47668144D01*
X16796282Y-47711047D01*
X16786005Y-47715549D01*
X16756663Y-47726849D01*
X16742653Y-47737494D01*
X16625976Y-47795032D01*
X16625964Y-47795038D01*
X16622336Y-47796828D01*
X16618976Y-47799073D01*
X16618964Y-47799080D01*
X16533933Y-47855896D01*
X16524637Y-47861534D01*
X16497695Y-47876299D01*
X16485921Y-47887977D01*
X16380424Y-47958467D01*
X16380414Y-47958473D01*
X16377043Y-47960727D01*
X16373999Y-47963396D01*
X16373984Y-47963408D01*
X16311384Y-48018308D01*
X16311046Y-48018464D01*
X16307871Y-48021389D01*
X16293071Y-48034368D01*
X16284868Y-48040967D01*
X16260798Y-48058701D01*
X16251287Y-48071011D01*
X16158291Y-48152567D01*
X16158282Y-48152575D01*
X16155242Y-48155242D01*
X16152575Y-48158282D01*
X16152567Y-48158291D01*
X16095688Y-48223149D01*
X16094647Y-48223809D01*
X16092447Y-48226595D01*
X16088367Y-48231497D01*
X16077953Y-48243372D01*
X16070929Y-48250747D01*
X16050136Y-48270856D01*
X16042851Y-48283398D01*
X15963408Y-48373984D01*
X15963396Y-48373999D01*
X15960727Y-48377043D01*
X15958473Y-48380414D01*
X15958467Y-48380424D01*
X15908871Y-48454651D01*
X15907179Y-48456064D01*
X15903064Y-48463013D01*
X15899475Y-48468713D01*
X15892466Y-48479202D01*
X15886682Y-48487156D01*
X15869435Y-48508995D01*
X15864266Y-48521407D01*
X15799080Y-48618964D01*
X15799073Y-48618976D01*
X15796828Y-48622336D01*
X15795038Y-48625964D01*
X15795032Y-48625976D01*
X15754204Y-48708768D01*
X15752068Y-48711089D01*
X15747364Y-48722182D01*
X15744415Y-48728616D01*
X15739892Y-48737787D01*
X15735373Y-48746130D01*
X15721841Y-48768976D01*
X15718629Y-48780907D01*
X15668144Y-48883279D01*
X15668138Y-48883291D01*
X15666348Y-48886923D01*
X15665044Y-48890765D01*
X15634383Y-48981087D01*
X15632030Y-48984433D01*
X15627923Y-48999425D01*
X15625749Y-49006520D01*
X15623031Y-49014527D01*
X15619773Y-49023076D01*
X15609973Y-49046187D01*
X15608498Y-49057340D01*
X15572825Y-49162428D01*
X15572824Y-49162433D01*
X15571519Y-49166278D01*
X15570728Y-49170253D01*
X15570727Y-49170258D01*
X15551516Y-49266838D01*
X15549194Y-49271276D01*
X15546707Y-49289769D01*
X15545430Y-49297437D01*
X15544010Y-49304574D01*
X15541989Y-49313135D01*
X15535794Y-49335749D01*
X15535795Y-49345871D01*
X15513966Y-49455620D01*
X15513700Y-49459665D01*
X15513700Y-49459672D01*
X15507057Y-49561022D01*
X15505024Y-49566570D01*
X15505025Y-49587979D01*
X15504758Y-49596106D01*
X15504319Y-49602790D01*
X15503480Y-49611188D01*
X15500604Y-49632572D01*
X15501784Y-49641478D01*
X15494671Y-49750000D01*
X11265572Y-49750000D01*
X11204533Y-49626225D01*
X11200483Y-49619211D01*
X11041133Y-49380728D01*
X11036194Y-49374291D01*
X11009592Y-49343959D01*
X10220560Y-50132991D01*
X10171652Y-50054001D01*
X10028069Y-49896499D01*
X9869610Y-49776835D01*
X10656039Y-48990406D01*
X10656039Y-48990405D01*
X10625708Y-48963805D01*
X10619271Y-48958866D01*
X10380788Y-48799516D01*
X10373774Y-48795466D01*
X10116528Y-48668607D01*
X10109038Y-48665505D01*
X9837436Y-48573307D01*
X9829608Y-48571210D01*
X9548293Y-48515253D01*
X9540271Y-48514197D01*
X9254043Y-48495437D01*
X9245957Y-48495437D01*
X8959728Y-48514197D01*
X8951706Y-48515253D01*
X8670391Y-48571210D01*
X8662563Y-48573307D01*
X8390961Y-48665505D01*
X8383471Y-48668607D01*
X8126225Y-48795466D01*
X8119211Y-48799516D01*
X7880723Y-48958869D01*
X7874295Y-48963801D01*
X7843958Y-48990405D01*
X7843958Y-48990406D01*
X8630388Y-49776836D01*
X8471931Y-49896499D01*
X8328348Y-50054001D01*
X8279439Y-50132991D01*
X7490406Y-49343958D01*
X7490405Y-49343958D01*
X7463801Y-49374295D01*
X7458869Y-49380723D01*
X7299516Y-49619211D01*
X7295466Y-49626225D01*
X7168607Y-49883471D01*
X7165505Y-49890961D01*
X7073307Y-50162563D01*
X7071210Y-50170391D01*
X7015253Y-50451706D01*
X7014197Y-50459728D01*
X6995437Y-50745956D01*
X6995437Y-50754043D01*
X500Y-50754043D01*
X500Y-42049999D01*
X6544750Y-42049999D01*
X6563686Y-42218056D01*
X6563686Y-42218058D01*
X6563687Y-42218059D01*
X6619544Y-42377690D01*
X6709523Y-42520890D01*
X6829110Y-42640477D01*
X6972310Y-42730456D01*
X7131941Y-42786313D01*
X7300000Y-42805249D01*
X7468059Y-42786313D01*
X7627690Y-42730456D01*
X7689030Y-42691912D01*
X7756263Y-42672913D01*
X7820969Y-42691912D01*
X7882310Y-42730456D01*
X8041941Y-42786313D01*
X8153980Y-42798936D01*
X8209999Y-42805249D01*
X8209999Y-42805248D01*
X8210000Y-42805249D01*
X8378059Y-42786313D01*
X8537690Y-42730456D01*
X8604943Y-42688197D01*
X8672176Y-42669197D01*
X8736887Y-42688198D01*
X8772306Y-42710454D01*
X8772310Y-42710456D01*
X8931941Y-42766313D01*
X9043980Y-42778936D01*
X9099999Y-42785249D01*
X9099999Y-42785248D01*
X9100000Y-42785249D01*
X9268059Y-42766313D01*
X9427690Y-42710456D01*
X9457898Y-42691475D01*
X9491985Y-42670057D01*
X9559221Y-42651056D01*
X9623928Y-42670055D01*
X9672310Y-42700456D01*
X9831941Y-42756313D01*
X10000000Y-42775249D01*
X10168059Y-42756313D01*
X10327690Y-42700456D01*
X10341983Y-42691474D01*
X10409218Y-42672473D01*
X10458714Y-42687005D01*
X10459122Y-42685841D01*
X10472308Y-42690455D01*
X10472310Y-42690456D01*
X10631941Y-42746313D01*
X10800000Y-42765249D01*
X10968059Y-42746313D01*
X11127690Y-42690456D01*
X11127690Y-42690455D01*
X11140879Y-42685841D01*
X11142217Y-42689665D01*
X11185311Y-42677473D01*
X11250057Y-42696474D01*
X11272306Y-42710454D01*
X11272307Y-42710454D01*
X11272310Y-42710456D01*
X11431941Y-42766313D01*
X11600000Y-42785249D01*
X11768059Y-42766313D01*
X11927690Y-42710456D01*
X11957898Y-42691475D01*
X11991985Y-42670057D01*
X12059221Y-42651056D01*
X12123928Y-42670055D01*
X12172310Y-42700456D01*
X12331941Y-42756313D01*
X12420692Y-42766313D01*
X12499999Y-42775249D01*
X12499999Y-42775248D01*
X12500000Y-42775249D01*
X12668059Y-42756313D01*
X12827690Y-42700456D01*
X12899945Y-42655054D01*
X12967177Y-42636055D01*
X13031885Y-42655055D01*
X13056395Y-42670456D01*
X13072306Y-42680454D01*
X13072310Y-42680456D01*
X13231941Y-42736313D01*
X13400000Y-42755249D01*
X13568059Y-42736313D01*
X13727690Y-42680456D01*
X13737610Y-42674222D01*
X13791985Y-42640057D01*
X13859221Y-42621056D01*
X13923928Y-42640055D01*
X13972310Y-42670456D01*
X14131941Y-42726313D01*
X14220692Y-42736313D01*
X14299999Y-42745249D01*
X14299999Y-42745248D01*
X14300000Y-42745249D01*
X14468059Y-42726313D01*
X14627690Y-42670456D01*
X14627690Y-42670455D01*
X14640879Y-42665841D01*
X14642217Y-42669665D01*
X14685311Y-42657473D01*
X14750057Y-42676474D01*
X14772306Y-42690454D01*
X14772307Y-42690454D01*
X14772310Y-42690456D01*
X14931941Y-42746313D01*
X15100000Y-42765249D01*
X15268059Y-42746313D01*
X15427690Y-42690456D01*
X15427690Y-42690455D01*
X15440879Y-42685841D01*
X15441340Y-42687159D01*
X15493296Y-42672473D01*
X15558015Y-42691473D01*
X15572310Y-42700456D01*
X15731941Y-42756313D01*
X15900000Y-42775249D01*
X16068059Y-42756313D01*
X16227690Y-42700456D01*
X16249097Y-42687005D01*
X16291985Y-42660057D01*
X16359221Y-42641056D01*
X16423928Y-42660055D01*
X16472310Y-42690456D01*
X16631941Y-42746313D01*
X16800000Y-42765249D01*
X16968059Y-42746313D01*
X17127690Y-42690456D01*
X17184028Y-42655055D01*
X17251265Y-42636056D01*
X17315971Y-42655055D01*
X17372310Y-42690456D01*
X17531941Y-42746313D01*
X17620692Y-42756313D01*
X17699999Y-42765249D01*
X17699999Y-42765248D01*
X17700000Y-42765249D01*
X17868059Y-42746313D01*
X18027690Y-42690456D01*
X18084028Y-42655055D01*
X18151265Y-42636056D01*
X18215971Y-42655055D01*
X18272310Y-42690456D01*
X18431941Y-42746313D01*
X18600000Y-42765249D01*
X18768059Y-42746313D01*
X18927690Y-42690456D01*
X18939909Y-42682777D01*
X19007145Y-42663777D01*
X19027025Y-42667468D01*
X19027030Y-42667426D01*
X19042515Y-42669090D01*
X19042517Y-42669091D01*
X19063635Y-42671361D01*
X19091328Y-42677607D01*
X19201941Y-42716313D01*
X19281249Y-42725249D01*
X19369999Y-42735249D01*
X19369999Y-42735248D01*
X19370000Y-42735249D01*
X19538059Y-42716313D01*
X19621817Y-42687005D01*
X19634815Y-42682457D01*
X19675769Y-42675499D01*
X19694561Y-42675499D01*
X19697872Y-42675499D01*
X19757483Y-42669091D01*
X19770757Y-42664139D01*
X19840446Y-42659154D01*
X19858834Y-42666661D01*
X19859122Y-42665841D01*
X19872308Y-42670455D01*
X19872310Y-42670456D01*
X20031941Y-42726313D01*
X20200000Y-42745249D01*
X20368059Y-42726313D01*
X20527690Y-42670456D01*
X20576069Y-42640056D01*
X20643306Y-42621056D01*
X20708013Y-42640055D01*
X20772310Y-42680456D01*
X20931941Y-42736313D01*
X21020692Y-42746313D01*
X21099999Y-42755249D01*
X21099999Y-42755248D01*
X21100000Y-42755249D01*
X21268059Y-42736313D01*
X21427690Y-42680456D01*
X21484028Y-42645055D01*
X21551265Y-42626056D01*
X21615971Y-42645055D01*
X21672310Y-42680456D01*
X21831941Y-42736313D01*
X22000000Y-42755249D01*
X22168059Y-42736313D01*
X22327690Y-42680456D01*
X22399945Y-42635054D01*
X22467177Y-42616055D01*
X22531885Y-42635055D01*
X22555946Y-42650174D01*
X22570893Y-42659566D01*
X22572310Y-42660456D01*
X22731941Y-42716313D01*
X22820692Y-42726313D01*
X22899999Y-42735249D01*
X22899999Y-42735248D01*
X22900000Y-42735249D01*
X23068059Y-42716313D01*
X23227690Y-42660456D01*
X23227691Y-42660455D01*
X23232690Y-42658706D01*
X23302469Y-42655144D01*
X23316972Y-42659563D01*
X23342517Y-42669091D01*
X23402127Y-42675500D01*
X23422810Y-42675499D01*
X23463766Y-42682457D01*
X23531941Y-42706313D01*
X23568693Y-42710454D01*
X23699999Y-42725249D01*
X23699999Y-42725248D01*
X23700000Y-42725249D01*
X23868059Y-42706313D01*
X23915636Y-42689665D01*
X23936233Y-42682458D01*
X23977188Y-42675499D01*
X23994561Y-42675499D01*
X23997872Y-42675499D01*
X24057483Y-42669091D01*
X24060767Y-42667865D01*
X24130458Y-42662879D01*
X24170074Y-42679051D01*
X24172310Y-42680456D01*
X24331941Y-42736313D01*
X24500000Y-42755249D01*
X24668059Y-42736313D01*
X24827690Y-42680456D01*
X24899945Y-42635054D01*
X24967177Y-42616055D01*
X25031885Y-42635055D01*
X25055946Y-42650174D01*
X25070893Y-42659566D01*
X25072310Y-42660456D01*
X25231941Y-42716313D01*
X25400000Y-42735249D01*
X25568059Y-42716313D01*
X25727690Y-42660456D01*
X25768113Y-42635055D01*
X25835349Y-42616056D01*
X25900056Y-42635055D01*
X25972310Y-42680456D01*
X26131941Y-42736313D01*
X26220692Y-42746313D01*
X26299999Y-42755249D01*
X26299999Y-42755248D01*
X26300000Y-42755249D01*
X26468059Y-42736313D01*
X26627690Y-42680456D01*
X26696984Y-42636914D01*
X26764221Y-42617914D01*
X26828928Y-42636913D01*
X26882310Y-42670456D01*
X27041941Y-42726313D01*
X27130692Y-42736313D01*
X27209999Y-42745249D01*
X27209999Y-42745248D01*
X27210000Y-42745249D01*
X27378059Y-42726313D01*
X27537690Y-42670456D01*
X27537690Y-42670455D01*
X27550879Y-42665841D01*
X27552427Y-42670267D01*
X27593334Y-42658667D01*
X27635519Y-42666481D01*
X27657112Y-42674535D01*
X27656101Y-42677243D01*
X27658356Y-42678025D01*
X27659121Y-42675841D01*
X27672309Y-42680455D01*
X27672310Y-42680456D01*
X27831941Y-42736313D01*
X28000000Y-42755249D01*
X28168059Y-42736313D01*
X28327690Y-42680456D01*
X28327690Y-42680455D01*
X28340879Y-42675841D01*
X28341648Y-42678039D01*
X28343904Y-42677256D01*
X28342889Y-42674534D01*
X28357481Y-42669091D01*
X28357483Y-42669091D01*
X28492331Y-42618796D01*
X28607546Y-42532546D01*
X28693796Y-42417331D01*
X28744091Y-42282483D01*
X28750500Y-42222873D01*
X28750499Y-42049113D01*
X28751279Y-42035226D01*
X28755249Y-42000000D01*
X28751278Y-41964771D01*
X28750499Y-41950886D01*
X28750499Y-40130439D01*
X28750498Y-40130438D01*
X28750499Y-40127128D01*
X28744091Y-40067517D01*
X28693796Y-39932669D01*
X28607546Y-39817454D01*
X28492331Y-39731204D01*
X28357483Y-39680909D01*
X28297873Y-39674500D01*
X28294550Y-39674500D01*
X27705439Y-39674500D01*
X27705420Y-39674500D01*
X27702128Y-39674501D01*
X27698848Y-39674853D01*
X27698840Y-39674854D01*
X27642516Y-39680909D01*
X27582830Y-39703170D01*
X27513139Y-39708153D01*
X27496166Y-39703169D01*
X27436484Y-39680909D01*
X27380166Y-39674854D01*
X27380165Y-39674853D01*
X27376873Y-39674500D01*
X27373550Y-39674500D01*
X27026439Y-39674500D01*
X27026420Y-39674500D01*
X27023128Y-39674501D01*
X27019848Y-39674853D01*
X27019840Y-39674854D01*
X26963515Y-39680909D01*
X26828667Y-39731204D01*
X26824307Y-39734469D01*
X26758842Y-39758883D01*
X26690569Y-39744029D01*
X26675693Y-39734469D01*
X26671333Y-39731205D01*
X26671331Y-39731204D01*
X26536483Y-39680909D01*
X26476873Y-39674500D01*
X26473550Y-39674500D01*
X26126439Y-39674500D01*
X26126420Y-39674500D01*
X26123128Y-39674501D01*
X26119848Y-39674853D01*
X26119840Y-39674854D01*
X26063515Y-39680909D01*
X25928666Y-39731204D01*
X25924304Y-39734470D01*
X25858839Y-39758884D01*
X25790567Y-39744028D01*
X25775692Y-39734469D01*
X25771331Y-39731204D01*
X25636483Y-39680909D01*
X25576873Y-39674500D01*
X25573550Y-39674500D01*
X25226439Y-39674500D01*
X25226420Y-39674500D01*
X25223128Y-39674501D01*
X25219848Y-39674853D01*
X25219840Y-39674854D01*
X25163515Y-39680909D01*
X25028667Y-39731204D01*
X25024307Y-39734469D01*
X24958842Y-39758883D01*
X24890569Y-39744029D01*
X24875693Y-39734469D01*
X24871333Y-39731205D01*
X24871331Y-39731204D01*
X24736483Y-39680909D01*
X24676873Y-39674500D01*
X24673550Y-39674500D01*
X24326439Y-39674500D01*
X24326420Y-39674500D01*
X24323128Y-39674501D01*
X24319848Y-39674853D01*
X24319840Y-39674854D01*
X24263516Y-39680909D01*
X24203830Y-39703170D01*
X24134139Y-39708153D01*
X24117166Y-39703169D01*
X24057484Y-39680909D01*
X24001166Y-39674854D01*
X24001165Y-39674853D01*
X23997873Y-39674500D01*
X23994550Y-39674500D01*
X23405439Y-39674500D01*
X23405420Y-39674500D01*
X23402128Y-39674501D01*
X23398848Y-39674853D01*
X23398840Y-39674854D01*
X23342516Y-39680909D01*
X23282830Y-39703170D01*
X23213139Y-39708153D01*
X23196166Y-39703169D01*
X23136484Y-39680909D01*
X23080166Y-39674854D01*
X23080165Y-39674853D01*
X23076873Y-39674500D01*
X23073550Y-39674500D01*
X22726439Y-39674500D01*
X22726420Y-39674500D01*
X22723128Y-39674501D01*
X22719848Y-39674853D01*
X22719840Y-39674854D01*
X22663515Y-39680909D01*
X22528666Y-39731204D01*
X22524304Y-39734470D01*
X22458839Y-39758884D01*
X22390567Y-39744028D01*
X22375692Y-39734469D01*
X22371331Y-39731204D01*
X22236483Y-39680909D01*
X22176873Y-39674500D01*
X22173550Y-39674500D01*
X21826439Y-39674500D01*
X21826420Y-39674500D01*
X21823128Y-39674501D01*
X21819848Y-39674853D01*
X21819840Y-39674854D01*
X21763515Y-39680909D01*
X21628667Y-39731204D01*
X21624307Y-39734469D01*
X21558842Y-39758883D01*
X21490569Y-39744029D01*
X21475693Y-39734469D01*
X21471333Y-39731205D01*
X21471331Y-39731204D01*
X21336483Y-39680909D01*
X21276873Y-39674500D01*
X21273550Y-39674500D01*
X20926439Y-39674500D01*
X20926420Y-39674500D01*
X20923128Y-39674501D01*
X20919848Y-39674853D01*
X20919840Y-39674854D01*
X20863515Y-39680909D01*
X20728666Y-39731204D01*
X20724304Y-39734470D01*
X20658839Y-39758884D01*
X20590567Y-39744028D01*
X20575692Y-39734469D01*
X20571331Y-39731204D01*
X20436483Y-39680909D01*
X20376873Y-39674500D01*
X20373550Y-39674500D01*
X20026439Y-39674500D01*
X20026420Y-39674500D01*
X20023128Y-39674501D01*
X20019848Y-39674853D01*
X20019840Y-39674854D01*
X19963514Y-39680909D01*
X19903832Y-39703169D01*
X19834140Y-39708153D01*
X19817168Y-39703169D01*
X19757486Y-39680909D01*
X19701166Y-39674854D01*
X19701165Y-39674853D01*
X19697873Y-39674500D01*
X19694550Y-39674500D01*
X19105439Y-39674500D01*
X19105420Y-39674500D01*
X19102128Y-39674501D01*
X19098848Y-39674853D01*
X19098840Y-39674854D01*
X19042514Y-39680909D01*
X18982832Y-39703169D01*
X18913140Y-39708153D01*
X18896168Y-39703169D01*
X18836486Y-39680909D01*
X18780166Y-39674854D01*
X18780165Y-39674853D01*
X18776873Y-39674500D01*
X18773550Y-39674500D01*
X18426439Y-39674500D01*
X18426420Y-39674500D01*
X18423128Y-39674501D01*
X18419848Y-39674853D01*
X18419840Y-39674854D01*
X18363515Y-39680909D01*
X18228667Y-39731204D01*
X18224307Y-39734469D01*
X18158842Y-39758883D01*
X18090569Y-39744029D01*
X18075693Y-39734469D01*
X18071333Y-39731205D01*
X18071331Y-39731204D01*
X17936483Y-39680909D01*
X17876873Y-39674500D01*
X17873550Y-39674500D01*
X17526439Y-39674500D01*
X17526420Y-39674500D01*
X17523128Y-39674501D01*
X17519848Y-39674853D01*
X17519840Y-39674854D01*
X17463515Y-39680909D01*
X17328666Y-39731204D01*
X17324304Y-39734470D01*
X17258839Y-39758884D01*
X17190567Y-39744028D01*
X17175692Y-39734469D01*
X17171331Y-39731204D01*
X17036483Y-39680909D01*
X16976873Y-39674500D01*
X16973550Y-39674500D01*
X16626439Y-39674500D01*
X16626420Y-39674500D01*
X16623128Y-39674501D01*
X16619848Y-39674853D01*
X16619840Y-39674854D01*
X16563515Y-39680909D01*
X16428667Y-39731204D01*
X16424307Y-39734469D01*
X16358842Y-39758883D01*
X16290569Y-39744029D01*
X16275693Y-39734469D01*
X16271333Y-39731205D01*
X16271331Y-39731204D01*
X16136483Y-39680909D01*
X16076873Y-39674500D01*
X16073550Y-39674500D01*
X15726439Y-39674500D01*
X15726420Y-39674500D01*
X15723128Y-39674501D01*
X15719848Y-39674853D01*
X15719840Y-39674854D01*
X15663514Y-39680909D01*
X15603832Y-39703169D01*
X15534140Y-39708153D01*
X15517168Y-39703169D01*
X15457486Y-39680909D01*
X15401166Y-39674854D01*
X15401165Y-39674853D01*
X15397873Y-39674500D01*
X15394550Y-39674500D01*
X14805439Y-39674500D01*
X14805420Y-39674500D01*
X14802128Y-39674501D01*
X14798848Y-39674853D01*
X14798840Y-39674854D01*
X14742514Y-39680909D01*
X14682832Y-39703169D01*
X14613140Y-39708153D01*
X14596168Y-39703169D01*
X14536486Y-39680909D01*
X14480166Y-39674854D01*
X14480165Y-39674853D01*
X14476873Y-39674500D01*
X14473550Y-39674500D01*
X14126439Y-39674500D01*
X14126420Y-39674500D01*
X14123128Y-39674501D01*
X14119848Y-39674853D01*
X14119840Y-39674854D01*
X14063515Y-39680909D01*
X13928666Y-39731204D01*
X13924304Y-39734470D01*
X13858839Y-39758884D01*
X13790567Y-39744028D01*
X13775692Y-39734469D01*
X13771331Y-39731204D01*
X13636483Y-39680909D01*
X13576873Y-39674500D01*
X13573550Y-39674500D01*
X13226439Y-39674500D01*
X13226420Y-39674500D01*
X13223128Y-39674501D01*
X13219848Y-39674853D01*
X13219840Y-39674854D01*
X13163515Y-39680909D01*
X13028667Y-39731204D01*
X13024307Y-39734469D01*
X12958842Y-39758883D01*
X12890569Y-39744029D01*
X12875693Y-39734469D01*
X12871333Y-39731205D01*
X12871331Y-39731204D01*
X12736483Y-39680909D01*
X12676873Y-39674500D01*
X12673550Y-39674500D01*
X12326439Y-39674500D01*
X12326420Y-39674500D01*
X12323128Y-39674501D01*
X12319848Y-39674853D01*
X12319840Y-39674854D01*
X12263515Y-39680909D01*
X12128666Y-39731204D01*
X12124304Y-39734470D01*
X12058839Y-39758884D01*
X11990567Y-39744028D01*
X11975692Y-39734469D01*
X11971331Y-39731204D01*
X11836483Y-39680909D01*
X11776873Y-39674500D01*
X11773550Y-39674500D01*
X11426439Y-39674500D01*
X11426420Y-39674500D01*
X11423128Y-39674501D01*
X11419848Y-39674853D01*
X11419840Y-39674854D01*
X11363514Y-39680909D01*
X11303832Y-39703169D01*
X11234140Y-39708153D01*
X11217168Y-39703169D01*
X11157486Y-39680909D01*
X11101166Y-39674854D01*
X11101165Y-39674853D01*
X11097873Y-39674500D01*
X11094550Y-39674500D01*
X10505439Y-39674500D01*
X10505420Y-39674500D01*
X10502128Y-39674501D01*
X10498848Y-39674853D01*
X10498840Y-39674854D01*
X10442514Y-39680909D01*
X10382832Y-39703169D01*
X10313140Y-39708153D01*
X10296168Y-39703169D01*
X10236486Y-39680909D01*
X10180166Y-39674854D01*
X10180165Y-39674853D01*
X10176873Y-39674500D01*
X10173550Y-39674500D01*
X9826439Y-39674500D01*
X9826420Y-39674500D01*
X9823128Y-39674501D01*
X9819848Y-39674853D01*
X9819840Y-39674854D01*
X9763515Y-39680909D01*
X9628667Y-39731204D01*
X9624307Y-39734469D01*
X9558842Y-39758883D01*
X9490569Y-39744029D01*
X9475693Y-39734469D01*
X9471333Y-39731205D01*
X9471331Y-39731204D01*
X9336483Y-39680909D01*
X9276873Y-39674500D01*
X9273550Y-39674500D01*
X8926439Y-39674500D01*
X8926420Y-39674500D01*
X8923128Y-39674501D01*
X8919848Y-39674853D01*
X8919840Y-39674854D01*
X8863515Y-39680909D01*
X8728666Y-39731204D01*
X8724304Y-39734470D01*
X8658839Y-39758884D01*
X8590567Y-39744028D01*
X8575692Y-39734469D01*
X8571331Y-39731204D01*
X8436483Y-39680909D01*
X8376873Y-39674500D01*
X8373550Y-39674500D01*
X8026439Y-39674500D01*
X8026420Y-39674500D01*
X8023128Y-39674501D01*
X8019848Y-39674853D01*
X8019840Y-39674854D01*
X7963515Y-39680909D01*
X7828667Y-39731204D01*
X7824307Y-39734469D01*
X7758842Y-39758883D01*
X7690569Y-39744029D01*
X7675693Y-39734469D01*
X7671333Y-39731205D01*
X7671331Y-39731204D01*
X7536483Y-39680909D01*
X7476873Y-39674500D01*
X7473550Y-39674500D01*
X7126439Y-39674500D01*
X7126420Y-39674500D01*
X7123128Y-39674501D01*
X7119848Y-39674853D01*
X7119840Y-39674854D01*
X7063515Y-39680909D01*
X6928669Y-39731204D01*
X6813454Y-39817454D01*
X6727204Y-39932668D01*
X6676910Y-40067515D01*
X6676909Y-40067517D01*
X6670500Y-40127127D01*
X6670500Y-40130449D01*
X6670500Y-41605490D01*
X6651494Y-41671462D01*
X6619544Y-41722309D01*
X6563686Y-41881943D01*
X6544750Y-42049999D01*
X500Y-42049999D01*
X500Y-34225889D01*
X5679416Y-34225889D01*
X5679459Y-34250000D01*
X5679501Y-34250101D01*
X5679616Y-34250382D01*
X5679618Y-34250384D01*
X5679808Y-34250462D01*
X5680000Y-34250541D01*
X5680002Y-34250539D01*
X5704616Y-34250524D01*
X5704616Y-34250528D01*
X5704760Y-34250500D01*
X9125500Y-34250500D01*
X9192539Y-34270185D01*
X9238294Y-34322989D01*
X9249500Y-34374500D01*
X9249500Y-38475467D01*
X9249416Y-38475889D01*
X9249459Y-38500000D01*
X9249501Y-38500101D01*
X9249616Y-38500382D01*
X9249618Y-38500384D01*
X9249808Y-38500462D01*
X9250000Y-38500541D01*
X9250002Y-38500539D01*
X9274616Y-38500524D01*
X9274616Y-38500528D01*
X9274760Y-38500500D01*
X26225240Y-38500500D01*
X26225383Y-38500528D01*
X26225384Y-38500524D01*
X26249997Y-38500539D01*
X26250000Y-38500541D01*
X26250383Y-38500383D01*
X26250500Y-38500099D01*
X26250541Y-38500000D01*
X26250540Y-38499997D01*
X26250583Y-38475889D01*
X26250500Y-38475467D01*
X26250500Y-34374500D01*
X26270185Y-34307461D01*
X26322989Y-34261706D01*
X26374500Y-34250500D01*
X29795240Y-34250500D01*
X29795383Y-34250528D01*
X29795384Y-34250524D01*
X29819997Y-34250539D01*
X29820000Y-34250541D01*
X29820383Y-34250383D01*
X29820500Y-34250099D01*
X29820541Y-34250000D01*
X29820540Y-34249997D01*
X29820583Y-34225889D01*
X29820500Y-34225467D01*
X29820500Y-29274759D01*
X29820528Y-29274616D01*
X29820524Y-29274616D01*
X29820539Y-29250002D01*
X29820541Y-29250000D01*
X29820462Y-29249808D01*
X29820384Y-29249618D01*
X29820383Y-29249617D01*
X29820379Y-29249615D01*
X29820097Y-29249499D01*
X29820000Y-29249459D01*
X29795446Y-29249459D01*
X29795240Y-29249500D01*
X26374500Y-29249500D01*
X26307461Y-29229815D01*
X26261706Y-29177011D01*
X26250500Y-29125500D01*
X26250500Y-25024759D01*
X26250528Y-25024616D01*
X26250524Y-25024616D01*
X26250539Y-25000002D01*
X26250541Y-25000000D01*
X26250462Y-24999808D01*
X26250384Y-24999618D01*
X26250383Y-24999617D01*
X26250379Y-24999615D01*
X26250097Y-24999499D01*
X26250000Y-24999459D01*
X26225446Y-24999459D01*
X26225240Y-24999500D01*
X9274760Y-24999500D01*
X9274554Y-24999459D01*
X9249999Y-24999459D01*
X9249900Y-24999500D01*
X9249618Y-24999615D01*
X9249615Y-24999618D01*
X9249459Y-24999999D01*
X9249476Y-25024616D01*
X9249471Y-25024616D01*
X9249500Y-25024759D01*
X9249500Y-29125500D01*
X9229815Y-29192539D01*
X9177011Y-29238294D01*
X9125500Y-29249500D01*
X5704760Y-29249500D01*
X5704554Y-29249459D01*
X5679999Y-29249459D01*
X5679900Y-29249500D01*
X5679618Y-29249615D01*
X5679615Y-29249618D01*
X5679459Y-29249999D01*
X5679476Y-29274616D01*
X5679471Y-29274616D01*
X5679500Y-29274759D01*
X5679500Y-34225467D01*
X5679416Y-34225889D01*
X500Y-34225889D01*
X500Y-21800000D01*
X6754750Y-21800000D01*
X6773686Y-21968056D01*
X6829544Y-22127690D01*
X6851494Y-22162623D01*
X6870500Y-22228595D01*
X6870500Y-23594560D01*
X6870500Y-23594578D01*
X6870501Y-23597872D01*
X6876909Y-23657483D01*
X6927204Y-23792331D01*
X7013454Y-23907546D01*
X7128669Y-23993796D01*
X7263517Y-24044091D01*
X7323127Y-24050500D01*
X7676872Y-24050499D01*
X7736483Y-24044091D01*
X7796168Y-24021829D01*
X7865856Y-24016846D01*
X7882830Y-24021829D01*
X7942517Y-24044091D01*
X8002127Y-24050500D01*
X8597872Y-24050499D01*
X8657483Y-24044091D01*
X8717168Y-24021829D01*
X8786856Y-24016846D01*
X8803830Y-24021829D01*
X8863517Y-24044091D01*
X8923127Y-24050500D01*
X9276872Y-24050499D01*
X9336483Y-24044091D01*
X9396168Y-24021829D01*
X9465856Y-24016846D01*
X9482830Y-24021829D01*
X9542517Y-24044091D01*
X9602127Y-24050500D01*
X10197872Y-24050499D01*
X10257483Y-24044091D01*
X10317168Y-24021829D01*
X10386856Y-24016846D01*
X10403830Y-24021829D01*
X10463517Y-24044091D01*
X10523127Y-24050500D01*
X10876872Y-24050499D01*
X10936483Y-24044091D01*
X10996168Y-24021829D01*
X11065856Y-24016846D01*
X11082830Y-24021829D01*
X11142517Y-24044091D01*
X11202127Y-24050500D01*
X11797872Y-24050499D01*
X11857483Y-24044091D01*
X11917168Y-24021829D01*
X11986856Y-24016846D01*
X12003830Y-24021829D01*
X12063517Y-24044091D01*
X12123127Y-24050500D01*
X12476872Y-24050499D01*
X12536483Y-24044091D01*
X12596168Y-24021829D01*
X12665856Y-24016846D01*
X12682830Y-24021829D01*
X12742517Y-24044091D01*
X12802127Y-24050500D01*
X13397872Y-24050499D01*
X13457483Y-24044091D01*
X13517168Y-24021829D01*
X13586856Y-24016846D01*
X13603830Y-24021829D01*
X13663517Y-24044091D01*
X13723127Y-24050500D01*
X14076872Y-24050499D01*
X14136483Y-24044091D01*
X14196168Y-24021829D01*
X14265856Y-24016846D01*
X14282830Y-24021829D01*
X14342517Y-24044091D01*
X14402127Y-24050500D01*
X14997872Y-24050499D01*
X15057483Y-24044091D01*
X15117168Y-24021829D01*
X15186856Y-24016846D01*
X15203830Y-24021829D01*
X15263517Y-24044091D01*
X15323127Y-24050500D01*
X15676872Y-24050499D01*
X15736483Y-24044091D01*
X15796168Y-24021829D01*
X15865856Y-24016846D01*
X15882830Y-24021829D01*
X15942517Y-24044091D01*
X16002127Y-24050500D01*
X16597872Y-24050499D01*
X16657483Y-24044091D01*
X16717168Y-24021829D01*
X16786856Y-24016846D01*
X16803830Y-24021829D01*
X16863517Y-24044091D01*
X16923127Y-24050500D01*
X17276872Y-24050499D01*
X17336483Y-24044091D01*
X17396168Y-24021829D01*
X17465856Y-24016846D01*
X17482830Y-24021829D01*
X17542517Y-24044091D01*
X17602127Y-24050500D01*
X18197872Y-24050499D01*
X18257483Y-24044091D01*
X18317168Y-24021829D01*
X18386856Y-24016846D01*
X18403830Y-24021829D01*
X18463517Y-24044091D01*
X18523127Y-24050500D01*
X18876872Y-24050499D01*
X18936483Y-24044091D01*
X18996168Y-24021829D01*
X19065856Y-24016846D01*
X19082830Y-24021829D01*
X19142517Y-24044091D01*
X19202127Y-24050500D01*
X19797872Y-24050499D01*
X19857483Y-24044091D01*
X19917168Y-24021829D01*
X19986856Y-24016846D01*
X20003830Y-24021829D01*
X20063517Y-24044091D01*
X20123127Y-24050500D01*
X20476872Y-24050499D01*
X20536483Y-24044091D01*
X20596168Y-24021829D01*
X20665856Y-24016846D01*
X20682830Y-24021829D01*
X20742517Y-24044091D01*
X20802127Y-24050500D01*
X21397872Y-24050499D01*
X21457483Y-24044091D01*
X21517168Y-24021829D01*
X21586856Y-24016846D01*
X21603830Y-24021829D01*
X21663517Y-24044091D01*
X21723127Y-24050500D01*
X22076872Y-24050499D01*
X22136483Y-24044091D01*
X22196168Y-24021829D01*
X22265856Y-24016846D01*
X22282830Y-24021829D01*
X22342517Y-24044091D01*
X22402127Y-24050500D01*
X22997872Y-24050499D01*
X23057483Y-24044091D01*
X23117168Y-24021829D01*
X23186856Y-24016846D01*
X23203830Y-24021829D01*
X23263517Y-24044091D01*
X23323127Y-24050500D01*
X23676872Y-24050499D01*
X23736483Y-24044091D01*
X23796168Y-24021829D01*
X23865856Y-24016846D01*
X23882830Y-24021829D01*
X23942517Y-24044091D01*
X24002127Y-24050500D01*
X24597872Y-24050499D01*
X24657483Y-24044091D01*
X24717168Y-24021829D01*
X24786856Y-24016846D01*
X24803830Y-24021829D01*
X24863517Y-24044091D01*
X24923127Y-24050500D01*
X25276872Y-24050499D01*
X25336483Y-24044091D01*
X25396168Y-24021829D01*
X25465856Y-24016846D01*
X25482830Y-24021829D01*
X25542517Y-24044091D01*
X25602127Y-24050500D01*
X26197872Y-24050499D01*
X26257483Y-24044091D01*
X26317168Y-24021829D01*
X26386856Y-24016846D01*
X26403830Y-24021829D01*
X26463517Y-24044091D01*
X26523127Y-24050500D01*
X26876872Y-24050499D01*
X26936483Y-24044091D01*
X27071331Y-23993796D01*
X27186546Y-23907546D01*
X27272796Y-23792331D01*
X27323091Y-23657483D01*
X27329500Y-23597873D01*
X27329499Y-22174509D01*
X27348506Y-22108537D01*
X27380455Y-22057691D01*
X27380456Y-22057690D01*
X27436313Y-21898059D01*
X27455249Y-21730000D01*
X27436313Y-21561941D01*
X27380456Y-21402310D01*
X27290477Y-21259110D01*
X27170890Y-21139523D01*
X27027690Y-21049544D01*
X26868059Y-20993687D01*
X26868058Y-20993686D01*
X26868056Y-20993686D01*
X26700000Y-20974750D01*
X26531943Y-20993686D01*
X26458043Y-21019545D01*
X26372310Y-21049544D01*
X26372308Y-21049544D01*
X26359122Y-21054159D01*
X26358535Y-21052482D01*
X26307825Y-21066809D01*
X26265763Y-21058997D01*
X26257483Y-21055908D01*
X26254937Y-21055635D01*
X26227245Y-21049388D01*
X26068056Y-20993686D01*
X25900000Y-20974750D01*
X25731943Y-20993686D01*
X25572754Y-21049388D01*
X25545058Y-21055635D01*
X25542518Y-21055908D01*
X25540502Y-21056660D01*
X25470810Y-21061640D01*
X25451079Y-21053583D01*
X25450878Y-21054159D01*
X25437691Y-21049544D01*
X25437690Y-21049544D01*
X25278059Y-20993687D01*
X25278058Y-20993686D01*
X25278056Y-20993686D01*
X25109999Y-20974750D01*
X24941945Y-20993686D01*
X24941942Y-20993686D01*
X24941941Y-20993687D01*
X24782310Y-21049544D01*
X24782306Y-21049546D01*
X24782304Y-21049547D01*
X24781338Y-21050154D01*
X24777349Y-21051280D01*
X24769124Y-21054159D01*
X24768947Y-21053654D01*
X24714099Y-21069149D01*
X24672043Y-21061339D01*
X24657483Y-21055908D01*
X24640505Y-21054083D01*
X24612810Y-21047836D01*
X24458056Y-20993686D01*
X24290000Y-20974750D01*
X24121943Y-20993686D01*
X23958316Y-21050941D01*
X23952043Y-21052356D01*
X23942518Y-21055908D01*
X23942517Y-21055909D01*
X23934231Y-21058999D01*
X23864542Y-21063982D01*
X23838107Y-21053189D01*
X23741954Y-21019544D01*
X23668059Y-20993687D01*
X23668058Y-20993686D01*
X23668056Y-20993686D01*
X23500000Y-20974750D01*
X23331943Y-20993686D01*
X23258043Y-21019545D01*
X23172310Y-21049544D01*
X23172308Y-21049544D01*
X23159122Y-21054159D01*
X23158535Y-21052482D01*
X23107823Y-21066808D01*
X23065767Y-21058998D01*
X23057481Y-21055907D01*
X23011638Y-21050979D01*
X22983939Y-21044732D01*
X22838056Y-20993686D01*
X22669999Y-20974750D01*
X22501943Y-20993686D01*
X22329123Y-21054158D01*
X22327887Y-21050625D01*
X22283711Y-21063100D01*
X22242033Y-21050857D01*
X22240878Y-21054159D01*
X22227691Y-21049544D01*
X22227690Y-21049544D01*
X22068059Y-20993687D01*
X22068058Y-20993686D01*
X22068056Y-20993686D01*
X21900000Y-20974750D01*
X21731943Y-20993686D01*
X21658043Y-21019545D01*
X21572310Y-21049544D01*
X21572308Y-21049544D01*
X21559122Y-21054159D01*
X21558535Y-21052482D01*
X21507825Y-21066809D01*
X21465766Y-21058998D01*
X21459371Y-21056613D01*
X21457481Y-21055908D01*
X21428124Y-21052752D01*
X21400428Y-21046505D01*
X21278059Y-21003687D01*
X21278058Y-21003686D01*
X21278056Y-21003686D01*
X21110000Y-20984750D01*
X20941941Y-21003686D01*
X20828437Y-21043402D01*
X20800739Y-21049650D01*
X20742514Y-21055909D01*
X20711694Y-21067404D01*
X20642002Y-21072386D01*
X20620999Y-21063811D01*
X20620878Y-21064159D01*
X20607691Y-21059544D01*
X20607690Y-21059544D01*
X20448059Y-21003687D01*
X20448058Y-21003686D01*
X20448056Y-21003686D01*
X20280000Y-20984750D01*
X20111945Y-21003686D01*
X20111942Y-21003686D01*
X20111941Y-21003687D01*
X19952310Y-21059544D01*
X19952307Y-21059545D01*
X19950712Y-21060104D01*
X19880933Y-21063665D01*
X19866417Y-21059241D01*
X19863624Y-21058199D01*
X19860141Y-21056900D01*
X19837515Y-21045717D01*
X19827692Y-21039545D01*
X19827691Y-21039544D01*
X19827690Y-21039544D01*
X19668059Y-20983687D01*
X19668058Y-20983686D01*
X19668056Y-20983686D01*
X19499999Y-20964750D01*
X19331943Y-20983686D01*
X19172306Y-21039544D01*
X19165967Y-21043528D01*
X19098729Y-21062526D01*
X19034027Y-21043526D01*
X19032935Y-21042840D01*
X19027690Y-21039544D01*
X18868059Y-20983687D01*
X18868058Y-20983686D01*
X18868056Y-20983686D01*
X18699999Y-20964750D01*
X18531943Y-20983686D01*
X18372303Y-21039546D01*
X18365965Y-21043529D01*
X18298728Y-21062525D01*
X18234027Y-21043526D01*
X18232935Y-21042840D01*
X18227690Y-21039544D01*
X18068059Y-20983687D01*
X18068058Y-20983686D01*
X18068056Y-20983686D01*
X17899999Y-20964750D01*
X17731943Y-20983686D01*
X17559123Y-21044158D01*
X17558112Y-21041269D01*
X17511665Y-21054383D01*
X17446984Y-21035384D01*
X17445034Y-21034159D01*
X17437690Y-21029544D01*
X17278059Y-20973687D01*
X17278058Y-20973686D01*
X17278056Y-20973686D01*
X17109999Y-20954750D01*
X16941943Y-20973686D01*
X16884787Y-20993686D01*
X16782310Y-21029544D01*
X16782309Y-21029544D01*
X16782305Y-21029546D01*
X16761368Y-21042701D01*
X16694131Y-21061700D01*
X16670463Y-21057304D01*
X16601166Y-21049854D01*
X16601165Y-21049853D01*
X16597873Y-21049500D01*
X16594550Y-21049500D01*
X16005439Y-21049500D01*
X16005420Y-21049500D01*
X16002128Y-21049501D01*
X15998848Y-21049853D01*
X15998840Y-21049854D01*
X15964155Y-21053583D01*
X15942517Y-21055909D01*
X15942516Y-21055909D01*
X15927032Y-21057574D01*
X15926596Y-21053524D01*
X15884489Y-21056526D01*
X15844904Y-21040360D01*
X15827690Y-21029544D01*
X15668059Y-20973687D01*
X15668058Y-20973686D01*
X15668056Y-20973686D01*
X15500000Y-20954750D01*
X15331945Y-20973686D01*
X15331942Y-20973686D01*
X15331941Y-20973687D01*
X15172310Y-21029544D01*
X15172306Y-21029546D01*
X15159124Y-21034159D01*
X15158663Y-21032841D01*
X15106678Y-21047525D01*
X15041986Y-21028527D01*
X15027690Y-21019544D01*
X14868059Y-20963687D01*
X14868058Y-20963686D01*
X14868056Y-20963686D01*
X14700000Y-20944750D01*
X14531943Y-20963686D01*
X14372307Y-21019545D01*
X14300036Y-21064955D01*
X14232799Y-21083954D01*
X14190734Y-21076142D01*
X14136486Y-21055909D01*
X14080166Y-21049854D01*
X14080165Y-21049853D01*
X14076873Y-21049500D01*
X14073550Y-21049500D01*
X13726439Y-21049500D01*
X13726420Y-21049500D01*
X13723128Y-21049501D01*
X13719848Y-21049853D01*
X13719840Y-21049854D01*
X13663516Y-21055909D01*
X13603830Y-21078170D01*
X13534139Y-21083153D01*
X13517177Y-21078172D01*
X13460143Y-21056901D01*
X13437519Y-21045720D01*
X13427690Y-21039544D01*
X13427689Y-21039543D01*
X13427688Y-21039543D01*
X13268056Y-20983686D01*
X13099999Y-20964750D01*
X12931943Y-20983686D01*
X12759123Y-21044158D01*
X12758662Y-21042840D01*
X12706687Y-21057525D01*
X12641986Y-21038527D01*
X12636984Y-21035384D01*
X12627690Y-21029544D01*
X12468059Y-20973687D01*
X12468058Y-20973686D01*
X12468056Y-20973686D01*
X12300000Y-20954750D01*
X12131943Y-20973686D01*
X11972307Y-21029545D01*
X11955969Y-21039811D01*
X11888732Y-21058810D01*
X11824030Y-21039810D01*
X11807690Y-21029544D01*
X11648059Y-20973687D01*
X11648055Y-20973686D01*
X11648054Y-20973686D01*
X11480000Y-20954750D01*
X11311943Y-20973686D01*
X11152307Y-21029545D01*
X11097473Y-21063999D01*
X11030236Y-21082998D01*
X10988171Y-21075186D01*
X10936486Y-21055909D01*
X10880166Y-21049854D01*
X10880165Y-21049853D01*
X10876873Y-21049500D01*
X10873550Y-21049500D01*
X10526439Y-21049500D01*
X10526420Y-21049500D01*
X10523128Y-21049501D01*
X10519848Y-21049853D01*
X10519840Y-21049854D01*
X10463516Y-21055909D01*
X10403830Y-21078170D01*
X10334139Y-21083153D01*
X10317169Y-21078170D01*
X10309168Y-21075186D01*
X10299308Y-21071508D01*
X10276673Y-21060322D01*
X10227690Y-21029544D01*
X10068059Y-20973687D01*
X10068058Y-20973686D01*
X10068056Y-20973686D01*
X9900000Y-20954750D01*
X9731943Y-20973686D01*
X9572303Y-21029546D01*
X9565965Y-21033529D01*
X9498728Y-21052525D01*
X9434027Y-21033526D01*
X9427690Y-21029544D01*
X9399111Y-21019544D01*
X9268059Y-20973687D01*
X9268058Y-20973686D01*
X9268056Y-20973686D01*
X9100000Y-20954750D01*
X8931943Y-20973686D01*
X8772308Y-21029544D01*
X8755092Y-21040362D01*
X8687855Y-21059360D01*
X8673064Y-21056613D01*
X8672961Y-21057574D01*
X8654936Y-21055635D01*
X8627245Y-21049388D01*
X8468056Y-20993686D01*
X8300000Y-20974750D01*
X8131943Y-20993686D01*
X7972754Y-21049388D01*
X7945058Y-21055635D01*
X7942518Y-21055908D01*
X7882832Y-21078169D01*
X7813140Y-21083153D01*
X7796168Y-21078169D01*
X7736486Y-21055909D01*
X7680166Y-21049854D01*
X7680165Y-21049853D01*
X7676873Y-21049500D01*
X7673551Y-21049500D01*
X7559111Y-21049500D01*
X7545229Y-21048720D01*
X7510002Y-21044751D01*
X7510000Y-21044751D01*
X7494431Y-21046505D01*
X7474759Y-21048721D01*
X7460880Y-21049500D01*
X7326439Y-21049500D01*
X7326420Y-21049500D01*
X7323128Y-21049501D01*
X7319848Y-21049853D01*
X7319840Y-21049854D01*
X7263515Y-21055909D01*
X7128669Y-21106204D01*
X7013454Y-21192453D01*
X6927202Y-21307672D01*
X6923178Y-21318460D01*
X6911993Y-21341090D01*
X6829545Y-21472307D01*
X6773686Y-21631943D01*
X6754750Y-21800000D01*
X500Y-21800000D01*
X500Y-12754043D01*
X6995437Y-12754043D01*
X7014197Y-13040271D01*
X7015253Y-13048293D01*
X7071210Y-13329608D01*
X7073307Y-13337436D01*
X7165505Y-13609038D01*
X7168607Y-13616528D01*
X7295466Y-13873774D01*
X7299516Y-13880788D01*
X7458866Y-14119271D01*
X7463805Y-14125708D01*
X7490405Y-14156039D01*
X7490406Y-14156039D01*
X8279438Y-13367007D01*
X8328348Y-13445999D01*
X8471931Y-13603501D01*
X8630388Y-13723163D01*
X7843959Y-14509592D01*
X7843959Y-14509593D01*
X7874291Y-14536194D01*
X7880728Y-14541133D01*
X8119211Y-14700483D01*
X8126225Y-14704533D01*
X8383471Y-14831392D01*
X8390961Y-14834494D01*
X8662563Y-14926692D01*
X8670391Y-14928789D01*
X8951706Y-14984746D01*
X8959728Y-14985802D01*
X9245957Y-15004563D01*
X9254043Y-15004563D01*
X9540271Y-14985802D01*
X9548293Y-14984746D01*
X9829608Y-14928789D01*
X9837436Y-14926692D01*
X10109038Y-14834494D01*
X10116528Y-14831392D01*
X10373774Y-14704533D01*
X10380788Y-14700483D01*
X10619273Y-14541132D01*
X10625698Y-14536201D01*
X10656040Y-14509592D01*
X9869611Y-13723163D01*
X10028069Y-13603501D01*
X10171652Y-13445999D01*
X10220560Y-13367008D01*
X11009592Y-14156040D01*
X11036201Y-14125698D01*
X11041132Y-14119273D01*
X11200483Y-13880788D01*
X11204533Y-13873774D01*
X11265571Y-13750000D01*
X15494671Y-13750000D01*
X15499714Y-13826937D01*
X15501784Y-13858521D01*
X15500299Y-13865155D01*
X15503480Y-13888809D01*
X15504319Y-13897204D01*
X15504759Y-13903925D01*
X15505025Y-13912020D01*
X15505025Y-13931442D01*
X15507057Y-13938976D01*
X15513966Y-14044380D01*
X15514757Y-14048359D01*
X15514758Y-14048363D01*
X15535795Y-14154124D01*
X15535112Y-14161756D01*
X15541988Y-14186858D01*
X15544013Y-14195438D01*
X15545433Y-14202580D01*
X15546707Y-14210231D01*
X15548970Y-14227057D01*
X15551516Y-14233161D01*
X15570726Y-14329738D01*
X15570728Y-14329745D01*
X15571519Y-14333722D01*
X15572822Y-14337563D01*
X15572825Y-14337571D01*
X15608497Y-14442658D01*
X15608851Y-14451163D01*
X15619770Y-14476913D01*
X15623029Y-14485463D01*
X15625750Y-14493479D01*
X15627924Y-14500575D01*
X15631669Y-14514247D01*
X15634383Y-14518913D01*
X15641926Y-14541133D01*
X15666348Y-14613077D01*
X15668141Y-14616712D01*
X15668144Y-14616720D01*
X15718628Y-14719091D01*
X15720234Y-14728306D01*
X15735368Y-14753858D01*
X15739893Y-14762211D01*
X15744425Y-14771402D01*
X15747369Y-14777830D01*
X15751654Y-14787935D01*
X15754203Y-14791231D01*
X15775538Y-14834494D01*
X15796828Y-14877665D01*
X15799079Y-14881034D01*
X15799082Y-14881039D01*
X15864264Y-14978590D01*
X15867306Y-14988305D01*
X15886672Y-15012829D01*
X15892457Y-15020784D01*
X15899482Y-15031297D01*
X15903073Y-15037000D01*
X15906805Y-15043301D01*
X15908870Y-15045348D01*
X15960727Y-15122957D01*
X15963408Y-15126014D01*
X16042850Y-15216600D01*
X16047474Y-15226568D01*
X16070928Y-15249251D01*
X16077953Y-15256627D01*
X16088367Y-15268502D01*
X16092452Y-15273409D01*
X16094397Y-15275872D01*
X16095688Y-15276850D01*
X16155242Y-15344758D01*
X16158287Y-15347428D01*
X16158290Y-15347431D01*
X16251285Y-15428986D01*
X16257596Y-15438936D01*
X16284854Y-15459020D01*
X16293057Y-15465619D01*
X16307885Y-15478623D01*
X16310944Y-15481441D01*
X16311382Y-15481690D01*
X16377043Y-15539273D01*
X16380425Y-15541532D01*
X16380424Y-15541532D01*
X16485919Y-15612022D01*
X16493973Y-15621659D01*
X16524620Y-15638454D01*
X16533914Y-15644091D01*
X16622335Y-15703172D01*
X16625968Y-15704963D01*
X16625974Y-15704967D01*
X16742651Y-15762505D01*
X16752459Y-15771528D01*
X16785988Y-15784442D01*
X16796265Y-15788944D01*
X16886923Y-15833652D01*
X16890771Y-15834958D01*
X16890773Y-15834959D01*
X17016993Y-15877805D01*
X17028514Y-15885906D01*
X17064307Y-15894436D01*
X17075416Y-15897637D01*
X17126271Y-15914900D01*
X17162433Y-15927176D01*
X17162435Y-15927176D01*
X17166278Y-15928481D01*
X17304150Y-15955905D01*
X17317283Y-15962775D01*
X17354661Y-15966535D01*
X17366432Y-15968293D01*
X17455620Y-15986034D01*
X17599110Y-15995439D01*
X17613709Y-16000785D01*
X17651937Y-15999507D01*
X17664176Y-15999703D01*
X17750000Y-16005329D01*
X17896701Y-15995713D01*
X17912575Y-15999265D01*
X17950885Y-15992803D01*
X17963369Y-15991343D01*
X18044380Y-15986034D01*
X18191741Y-15956722D01*
X18208644Y-15958234D01*
X18246253Y-15946568D01*
X18258782Y-15943387D01*
X18333722Y-15928481D01*
X18479054Y-15879146D01*
X18496697Y-15878411D01*
X18532832Y-15861643D01*
X18545151Y-15856709D01*
X18613077Y-15833652D01*
X18753632Y-15764337D01*
X18771701Y-15761188D01*
X18805617Y-15739537D01*
X18817483Y-15732849D01*
X18877665Y-15703172D01*
X19010668Y-15614301D01*
X19028805Y-15608622D01*
X19059789Y-15582427D01*
X19070947Y-15574024D01*
X19122957Y-15539273D01*
X19245658Y-15431666D01*
X19263501Y-15423388D01*
X19290920Y-15393072D01*
X19301112Y-15383034D01*
X19344758Y-15344758D01*
X19454509Y-15219611D01*
X19471660Y-15208732D01*
X19494928Y-15174837D01*
X19503925Y-15163263D01*
X19539273Y-15122957D01*
X19633556Y-14981852D01*
X19649629Y-14968419D01*
X19668260Y-14931549D01*
X19675821Y-14918597D01*
X19703172Y-14877665D01*
X19779667Y-14722547D01*
X19794273Y-14706671D01*
X19807878Y-14667489D01*
X19813796Y-14653339D01*
X19833652Y-14613077D01*
X19890294Y-14446215D01*
X19903058Y-14428063D01*
X19911344Y-14387296D01*
X19915435Y-14372153D01*
X19928481Y-14333722D01*
X19986034Y-14044380D01*
X20005329Y-13750000D01*
X19986034Y-13455620D01*
X19928481Y-13166278D01*
X19915441Y-13127865D01*
X19911345Y-13112706D01*
X19904554Y-13079297D01*
X19890296Y-13053790D01*
X19834959Y-12890773D01*
X19834956Y-12890765D01*
X19833652Y-12886923D01*
X19831413Y-12882384D01*
X19813809Y-12846684D01*
X19807882Y-12832516D01*
X19796669Y-12800225D01*
X19779669Y-12777456D01*
X19768123Y-12754043D01*
X23995437Y-12754043D01*
X24014197Y-13040271D01*
X24015253Y-13048293D01*
X24071210Y-13329608D01*
X24073307Y-13337436D01*
X24165505Y-13609038D01*
X24168607Y-13616528D01*
X24295466Y-13873774D01*
X24299516Y-13880788D01*
X24458866Y-14119271D01*
X24463805Y-14125708D01*
X24490405Y-14156039D01*
X24490406Y-14156039D01*
X25279438Y-13367007D01*
X25328348Y-13445999D01*
X25471931Y-13603501D01*
X25630388Y-13723163D01*
X24843959Y-14509592D01*
X24843959Y-14509593D01*
X24874291Y-14536194D01*
X24880728Y-14541133D01*
X25119211Y-14700483D01*
X25126225Y-14704533D01*
X25383471Y-14831392D01*
X25390961Y-14834494D01*
X25662563Y-14926692D01*
X25670391Y-14928789D01*
X25951706Y-14984746D01*
X25959728Y-14985802D01*
X26245957Y-15004563D01*
X26254043Y-15004563D01*
X26540271Y-14985802D01*
X26548293Y-14984746D01*
X26829608Y-14928789D01*
X26837436Y-14926692D01*
X27109038Y-14834494D01*
X27116528Y-14831392D01*
X27373774Y-14704533D01*
X27380788Y-14700483D01*
X27619273Y-14541132D01*
X27625698Y-14536201D01*
X27656040Y-14509592D01*
X26869611Y-13723163D01*
X27028069Y-13603501D01*
X27171652Y-13445999D01*
X27220560Y-13367008D01*
X28009592Y-14156040D01*
X28036201Y-14125698D01*
X28041132Y-14119273D01*
X28200483Y-13880788D01*
X28204533Y-13873774D01*
X28331392Y-13616528D01*
X28334494Y-13609038D01*
X28426692Y-13337436D01*
X28428789Y-13329608D01*
X28484746Y-13048293D01*
X28485802Y-13040271D01*
X28504563Y-12754043D01*
X28504563Y-12745956D01*
X28485802Y-12459728D01*
X28484746Y-12451706D01*
X28428789Y-12170391D01*
X28426692Y-12162563D01*
X28334494Y-11890961D01*
X28331392Y-11883471D01*
X28204533Y-11626225D01*
X28200483Y-11619211D01*
X28041133Y-11380728D01*
X28036194Y-11374291D01*
X28009592Y-11343959D01*
X27220560Y-12132991D01*
X27171652Y-12054001D01*
X27028069Y-11896499D01*
X26869610Y-11776835D01*
X27656039Y-10990406D01*
X27656039Y-10990405D01*
X27625708Y-10963805D01*
X27619271Y-10958866D01*
X27380788Y-10799516D01*
X27373774Y-10795466D01*
X27116528Y-10668607D01*
X27109038Y-10665505D01*
X26837436Y-10573307D01*
X26829608Y-10571210D01*
X26548293Y-10515253D01*
X26540271Y-10514197D01*
X26254043Y-10495437D01*
X26245957Y-10495437D01*
X25959728Y-10514197D01*
X25951706Y-10515253D01*
X25670391Y-10571210D01*
X25662563Y-10573307D01*
X25390961Y-10665505D01*
X25383471Y-10668607D01*
X25126225Y-10795466D01*
X25119211Y-10799516D01*
X24880723Y-10958869D01*
X24874295Y-10963801D01*
X24843958Y-10990405D01*
X24843958Y-10990406D01*
X25630388Y-11776836D01*
X25471931Y-11896499D01*
X25328348Y-12054001D01*
X25279439Y-12132991D01*
X24490406Y-11343958D01*
X24490405Y-11343958D01*
X24463801Y-11374295D01*
X24458869Y-11380723D01*
X24299516Y-11619211D01*
X24295466Y-11626225D01*
X24168607Y-11883471D01*
X24165505Y-11890961D01*
X24073307Y-12162563D01*
X24071210Y-12170391D01*
X24015253Y-12451706D01*
X24014197Y-12459728D01*
X23995437Y-12745956D01*
X23995437Y-12754043D01*
X19768123Y-12754043D01*
X19704967Y-12625976D01*
X19703172Y-12622336D01*
X19695197Y-12610401D01*
X19675835Y-12581422D01*
X19668265Y-12568457D01*
X19652824Y-12537901D01*
X19633556Y-12518148D01*
X19589161Y-12451706D01*
X19539273Y-12377043D01*
X19503934Y-12336747D01*
X19494932Y-12325166D01*
X19475550Y-12296932D01*
X19454509Y-12280389D01*
X19347431Y-12158290D01*
X19344758Y-12155242D01*
X19301130Y-12116981D01*
X19290924Y-12106930D01*
X19267964Y-12081544D01*
X19245659Y-12068334D01*
X19126015Y-11963408D01*
X19126007Y-11963402D01*
X19122957Y-11960727D01*
X19070965Y-11925987D01*
X19059798Y-11917578D01*
X19033712Y-11895523D01*
X19010669Y-11885698D01*
X18881035Y-11799080D01*
X18877665Y-11796828D01*
X18874036Y-11795038D01*
X18874025Y-11795032D01*
X18817498Y-11767157D01*
X18805620Y-11760464D01*
X18776923Y-11742144D01*
X18753634Y-11735662D01*
X18616726Y-11668147D01*
X18616719Y-11668144D01*
X18613077Y-11666348D01*
X18545174Y-11643298D01*
X18532840Y-11638359D01*
X18502108Y-11624098D01*
X18479054Y-11620852D01*
X18337571Y-11572825D01*
X18337563Y-11572822D01*
X18333722Y-11571519D01*
X18323899Y-11569565D01*
X18258807Y-11556617D01*
X18246261Y-11553433D01*
X18214123Y-11543463D01*
X18191743Y-11543278D01*
X18044380Y-11513966D01*
X18040332Y-11513700D01*
X18040327Y-11513700D01*
X17963405Y-11508658D01*
X17950892Y-11507197D01*
X17917997Y-11501648D01*
X17896703Y-11504286D01*
X17750000Y-11494671D01*
X17664194Y-11500295D01*
X17651949Y-11500491D01*
X17618958Y-11499388D01*
X17599107Y-11504561D01*
X17459673Y-11513700D01*
X17459667Y-11513700D01*
X17455620Y-11513966D01*
X17451649Y-11514755D01*
X17451648Y-11514756D01*
X17366449Y-11531703D01*
X17354672Y-11533462D01*
X17322265Y-11536722D01*
X17304149Y-11544095D01*
X17170261Y-11570726D01*
X17170250Y-11570728D01*
X17166278Y-11571519D01*
X17162444Y-11572820D01*
X17162442Y-11572821D01*
X17075429Y-11602358D01*
X17064318Y-11605560D01*
X17033141Y-11612990D01*
X17016996Y-11622193D01*
X16915014Y-11656812D01*
X16886923Y-11666348D01*
X16883291Y-11668138D01*
X16883279Y-11668144D01*
X16796282Y-11711047D01*
X16786005Y-11715549D01*
X16756663Y-11726849D01*
X16742653Y-11737494D01*
X16625976Y-11795032D01*
X16625964Y-11795038D01*
X16622336Y-11796828D01*
X16618976Y-11799073D01*
X16618964Y-11799080D01*
X16533933Y-11855896D01*
X16524637Y-11861534D01*
X16497695Y-11876299D01*
X16485921Y-11887977D01*
X16380424Y-11958467D01*
X16380414Y-11958473D01*
X16377043Y-11960727D01*
X16373999Y-11963396D01*
X16373984Y-11963408D01*
X16311384Y-12018308D01*
X16311046Y-12018464D01*
X16307871Y-12021389D01*
X16293071Y-12034368D01*
X16284868Y-12040967D01*
X16260798Y-12058701D01*
X16251287Y-12071011D01*
X16158291Y-12152567D01*
X16158282Y-12152575D01*
X16155242Y-12155242D01*
X16152575Y-12158282D01*
X16152567Y-12158291D01*
X16095688Y-12223149D01*
X16094647Y-12223809D01*
X16092447Y-12226595D01*
X16088367Y-12231497D01*
X16077953Y-12243372D01*
X16070929Y-12250747D01*
X16050136Y-12270856D01*
X16042851Y-12283398D01*
X15963408Y-12373984D01*
X15963396Y-12373999D01*
X15960727Y-12377043D01*
X15958473Y-12380414D01*
X15958467Y-12380424D01*
X15908871Y-12454651D01*
X15907179Y-12456064D01*
X15903064Y-12463013D01*
X15899475Y-12468713D01*
X15892466Y-12479202D01*
X15886682Y-12487156D01*
X15869435Y-12508995D01*
X15864266Y-12521407D01*
X15799080Y-12618964D01*
X15799073Y-12618976D01*
X15796828Y-12622336D01*
X15795038Y-12625964D01*
X15795032Y-12625976D01*
X15754204Y-12708768D01*
X15752068Y-12711089D01*
X15747364Y-12722182D01*
X15744415Y-12728616D01*
X15739892Y-12737787D01*
X15735373Y-12746130D01*
X15721841Y-12768976D01*
X15718629Y-12780907D01*
X15668144Y-12883279D01*
X15668138Y-12883291D01*
X15666348Y-12886923D01*
X15665044Y-12890765D01*
X15634383Y-12981087D01*
X15632030Y-12984433D01*
X15627923Y-12999425D01*
X15625749Y-13006520D01*
X15623031Y-13014527D01*
X15619773Y-13023076D01*
X15609973Y-13046187D01*
X15608498Y-13057340D01*
X15572825Y-13162428D01*
X15572824Y-13162433D01*
X15571519Y-13166278D01*
X15570728Y-13170253D01*
X15570727Y-13170258D01*
X15551516Y-13266838D01*
X15549194Y-13271276D01*
X15546707Y-13289769D01*
X15545430Y-13297437D01*
X15544010Y-13304574D01*
X15541989Y-13313135D01*
X15535794Y-13335749D01*
X15535795Y-13345871D01*
X15513966Y-13455620D01*
X15513700Y-13459665D01*
X15513700Y-13459672D01*
X15507057Y-13561022D01*
X15505024Y-13566570D01*
X15505025Y-13587979D01*
X15504758Y-13596106D01*
X15504319Y-13602790D01*
X15503480Y-13611188D01*
X15500604Y-13632572D01*
X15501784Y-13641478D01*
X15494671Y-13750000D01*
X11265571Y-13750000D01*
X11331392Y-13616528D01*
X11334494Y-13609038D01*
X11426692Y-13337436D01*
X11428789Y-13329608D01*
X11484746Y-13048293D01*
X11485802Y-13040271D01*
X11504563Y-12754043D01*
X11504563Y-12745956D01*
X11485802Y-12459728D01*
X11484746Y-12451706D01*
X11428789Y-12170391D01*
X11426692Y-12162563D01*
X11334494Y-11890961D01*
X11331392Y-11883471D01*
X11204533Y-11626225D01*
X11200483Y-11619211D01*
X11041133Y-11380728D01*
X11036194Y-11374291D01*
X11009592Y-11343959D01*
X10220560Y-12132991D01*
X10171652Y-12054001D01*
X10028069Y-11896499D01*
X9869610Y-11776835D01*
X10656039Y-10990406D01*
X10656039Y-10990405D01*
X10625708Y-10963805D01*
X10619271Y-10958866D01*
X10380788Y-10799516D01*
X10373774Y-10795466D01*
X10116528Y-10668607D01*
X10109038Y-10665505D01*
X9837436Y-10573307D01*
X9829608Y-10571210D01*
X9548293Y-10515253D01*
X9540271Y-10514197D01*
X9254043Y-10495437D01*
X9245957Y-10495437D01*
X8959728Y-10514197D01*
X8951706Y-10515253D01*
X8670391Y-10571210D01*
X8662563Y-10573307D01*
X8390961Y-10665505D01*
X8383471Y-10668607D01*
X8126225Y-10795466D01*
X8119211Y-10799516D01*
X7880723Y-10958869D01*
X7874295Y-10963801D01*
X7843958Y-10990405D01*
X7843958Y-10990406D01*
X8630388Y-11776836D01*
X8471931Y-11896499D01*
X8328348Y-12054001D01*
X8279439Y-12132991D01*
X7490406Y-11343958D01*
X7490405Y-11343958D01*
X7463801Y-11374295D01*
X7458869Y-11380723D01*
X7299516Y-11619211D01*
X7295466Y-11626225D01*
X7168607Y-11883471D01*
X7165505Y-11890961D01*
X7073307Y-12162563D01*
X7071210Y-12170391D01*
X7015253Y-12451706D01*
X7014197Y-12459728D01*
X6995437Y-12745956D01*
X6995437Y-12754043D01*
X500Y-12754043D01*
X500Y-5374500D01*
X9164853Y-5374500D01*
X9183397Y-5562789D01*
X9183398Y-5562791D01*
X9238320Y-5743846D01*
X9327510Y-5910707D01*
X9374409Y-5967854D01*
X9447537Y-6056962D01*
X9520665Y-6116976D01*
X9593793Y-6176990D01*
X9744314Y-6257446D01*
X9794158Y-6306407D01*
X9809618Y-6374545D01*
X9809263Y-6378957D01*
X9799853Y-6474499D01*
X9818397Y-6662789D01*
X9818398Y-6662791D01*
X9873320Y-6843846D01*
X9962510Y-7010707D01*
X10009409Y-7067854D01*
X10082537Y-7156962D01*
X10129999Y-7195912D01*
X10228793Y-7276990D01*
X10395654Y-7366180D01*
X10576709Y-7421102D01*
X10765000Y-7439647D01*
X10953291Y-7421102D01*
X11134346Y-7366180D01*
X11301207Y-7276990D01*
X11321335Y-7260470D01*
X11385644Y-7233158D01*
X11454512Y-7244949D01*
X11478663Y-7260470D01*
X11498793Y-7276990D01*
X11665654Y-7366180D01*
X11846709Y-7421102D01*
X12035000Y-7439647D01*
X12223291Y-7421102D01*
X12404346Y-7366180D01*
X12571207Y-7276990D01*
X12591335Y-7260470D01*
X12655644Y-7233158D01*
X12724512Y-7244949D01*
X12748663Y-7260470D01*
X12768793Y-7276990D01*
X12935654Y-7366180D01*
X13116709Y-7421102D01*
X13305000Y-7439647D01*
X13493291Y-7421102D01*
X13674346Y-7366180D01*
X13841207Y-7276990D01*
X13861335Y-7260470D01*
X13925644Y-7233158D01*
X13994512Y-7244949D01*
X14018663Y-7260470D01*
X14038793Y-7276990D01*
X14205654Y-7366180D01*
X14386709Y-7421102D01*
X14575000Y-7439647D01*
X14763291Y-7421102D01*
X14944346Y-7366180D01*
X15111207Y-7276990D01*
X15131335Y-7260470D01*
X15195644Y-7233158D01*
X15264512Y-7244949D01*
X15288663Y-7260470D01*
X15308793Y-7276990D01*
X15475654Y-7366180D01*
X15656709Y-7421102D01*
X15845000Y-7439647D01*
X16033291Y-7421102D01*
X16214346Y-7366180D01*
X16381207Y-7276990D01*
X16401335Y-7260470D01*
X16465644Y-7233158D01*
X16534512Y-7244949D01*
X16558663Y-7260470D01*
X16578793Y-7276990D01*
X16745654Y-7366180D01*
X16926709Y-7421102D01*
X17115000Y-7439647D01*
X17303291Y-7421102D01*
X17484346Y-7366180D01*
X17651207Y-7276990D01*
X17671335Y-7260470D01*
X17735644Y-7233158D01*
X17804512Y-7244949D01*
X17828663Y-7260470D01*
X17848793Y-7276990D01*
X18015654Y-7366180D01*
X18196709Y-7421102D01*
X18385000Y-7439647D01*
X18573291Y-7421102D01*
X18754346Y-7366180D01*
X18921207Y-7276990D01*
X18941335Y-7260470D01*
X19005644Y-7233158D01*
X19074512Y-7244949D01*
X19098663Y-7260470D01*
X19118793Y-7276990D01*
X19285654Y-7366180D01*
X19466709Y-7421102D01*
X19655000Y-7439647D01*
X19843291Y-7421102D01*
X20024346Y-7366180D01*
X20191207Y-7276990D01*
X20211335Y-7260470D01*
X20275644Y-7233158D01*
X20344512Y-7244949D01*
X20368663Y-7260470D01*
X20388793Y-7276990D01*
X20555654Y-7366180D01*
X20736709Y-7421102D01*
X20925000Y-7439647D01*
X21113291Y-7421102D01*
X21294346Y-7366180D01*
X21461207Y-7276990D01*
X21481335Y-7260470D01*
X21545644Y-7233158D01*
X21614512Y-7244949D01*
X21638663Y-7260470D01*
X21658793Y-7276990D01*
X21825654Y-7366180D01*
X22006709Y-7421102D01*
X22195000Y-7439647D01*
X22383291Y-7421102D01*
X22564346Y-7366180D01*
X22731207Y-7276990D01*
X22751335Y-7260470D01*
X22815644Y-7233158D01*
X22884512Y-7244949D01*
X22908663Y-7260470D01*
X22928793Y-7276990D01*
X23095654Y-7366180D01*
X23276709Y-7421102D01*
X23465000Y-7439647D01*
X23653291Y-7421102D01*
X23834346Y-7366180D01*
X24001207Y-7276990D01*
X24021335Y-7260470D01*
X24085644Y-7233158D01*
X24154512Y-7244949D01*
X24178663Y-7260470D01*
X24198793Y-7276990D01*
X24365654Y-7366180D01*
X24546709Y-7421102D01*
X24735000Y-7439647D01*
X24923291Y-7421102D01*
X25104346Y-7366180D01*
X25271207Y-7276990D01*
X25417462Y-7156962D01*
X25537490Y-7010707D01*
X25626680Y-6843846D01*
X25681602Y-6662791D01*
X25700147Y-6474500D01*
X25690736Y-6378954D01*
X25703754Y-6310312D01*
X25751819Y-6259601D01*
X25755642Y-6257469D01*
X25906207Y-6176990D01*
X26052462Y-6056962D01*
X26172490Y-5910707D01*
X26261680Y-5743846D01*
X26316602Y-5562791D01*
X26335147Y-5374500D01*
X26316602Y-5186209D01*
X26261680Y-5005154D01*
X26172490Y-4838293D01*
X26112476Y-4765165D01*
X26052462Y-4692037D01*
X25945247Y-4604049D01*
X25906207Y-4572010D01*
X25739346Y-4482820D01*
X25648818Y-4455358D01*
X25558289Y-4427897D01*
X25370000Y-4409353D01*
X25181710Y-4427897D01*
X25000651Y-4482821D01*
X24833793Y-4572009D01*
X24813664Y-4588529D01*
X24749353Y-4615841D01*
X24680486Y-4604049D01*
X24656336Y-4588529D01*
X24636206Y-4572009D01*
X24469348Y-4482821D01*
X24469347Y-4482820D01*
X24469346Y-4482820D01*
X24378818Y-4455358D01*
X24288289Y-4427897D01*
X24100000Y-4409353D01*
X23911710Y-4427897D01*
X23730651Y-4482821D01*
X23563793Y-4572009D01*
X23543664Y-4588529D01*
X23479353Y-4615841D01*
X23410486Y-4604049D01*
X23386336Y-4588529D01*
X23366206Y-4572009D01*
X23199348Y-4482821D01*
X23199347Y-4482820D01*
X23199346Y-4482820D01*
X23108818Y-4455358D01*
X23018289Y-4427897D01*
X22850569Y-4411378D01*
X22830000Y-4409353D01*
X22829999Y-4409353D01*
X22641710Y-4427897D01*
X22460651Y-4482821D01*
X22293793Y-4572009D01*
X22273664Y-4588529D01*
X22209353Y-4615841D01*
X22140486Y-4604049D01*
X22116336Y-4588529D01*
X22096206Y-4572009D01*
X21929348Y-4482821D01*
X21929347Y-4482820D01*
X21929346Y-4482820D01*
X21838818Y-4455358D01*
X21748289Y-4427897D01*
X21560000Y-4409353D01*
X21371710Y-4427897D01*
X21190651Y-4482821D01*
X21023793Y-4572009D01*
X21003664Y-4588529D01*
X20939353Y-4615841D01*
X20870486Y-4604049D01*
X20846336Y-4588529D01*
X20826206Y-4572009D01*
X20659348Y-4482821D01*
X20659347Y-4482820D01*
X20659346Y-4482820D01*
X20568818Y-4455359D01*
X20478289Y-4427897D01*
X20290000Y-4409353D01*
X20101710Y-4427897D01*
X19920651Y-4482821D01*
X19753793Y-4572009D01*
X19733664Y-4588529D01*
X19669353Y-4615841D01*
X19600486Y-4604049D01*
X19576336Y-4588529D01*
X19556206Y-4572009D01*
X19389348Y-4482821D01*
X19389347Y-4482820D01*
X19389346Y-4482820D01*
X19298818Y-4455359D01*
X19208289Y-4427897D01*
X19020000Y-4409353D01*
X18831710Y-4427897D01*
X18650651Y-4482821D01*
X18483793Y-4572009D01*
X18463664Y-4588529D01*
X18399353Y-4615841D01*
X18330486Y-4604049D01*
X18306336Y-4588529D01*
X18286206Y-4572009D01*
X18119348Y-4482821D01*
X18119347Y-4482820D01*
X18119346Y-4482820D01*
X18028818Y-4455359D01*
X17938289Y-4427897D01*
X17750000Y-4409353D01*
X17561710Y-4427897D01*
X17380651Y-4482821D01*
X17213793Y-4572009D01*
X17193664Y-4588529D01*
X17129353Y-4615841D01*
X17060486Y-4604049D01*
X17036336Y-4588529D01*
X17016206Y-4572009D01*
X16849348Y-4482821D01*
X16849347Y-4482820D01*
X16849346Y-4482820D01*
X16758818Y-4455359D01*
X16668289Y-4427897D01*
X16480000Y-4409353D01*
X16291710Y-4427897D01*
X16110651Y-4482821D01*
X15943794Y-4572009D01*
X15923661Y-4588531D01*
X15859350Y-4615842D01*
X15790483Y-4604048D01*
X15766334Y-4588528D01*
X15746207Y-4572010D01*
X15579346Y-4482820D01*
X15488818Y-4455359D01*
X15398289Y-4427897D01*
X15210000Y-4409353D01*
X15021710Y-4427897D01*
X14840651Y-4482821D01*
X14673794Y-4572009D01*
X14653661Y-4588531D01*
X14589350Y-4615842D01*
X14520483Y-4604048D01*
X14496334Y-4588528D01*
X14476207Y-4572010D01*
X14309346Y-4482820D01*
X14218818Y-4455359D01*
X14128289Y-4427897D01*
X13960569Y-4411378D01*
X13940000Y-4409353D01*
X13939999Y-4409353D01*
X13751710Y-4427897D01*
X13570651Y-4482821D01*
X13403794Y-4572009D01*
X13383661Y-4588531D01*
X13319350Y-4615842D01*
X13250483Y-4604048D01*
X13226334Y-4588528D01*
X13206207Y-4572010D01*
X13039346Y-4482820D01*
X12948818Y-4455359D01*
X12858289Y-4427897D01*
X12670000Y-4409353D01*
X12481710Y-4427897D01*
X12300651Y-4482821D01*
X12133794Y-4572009D01*
X12113661Y-4588531D01*
X12049350Y-4615842D01*
X11980483Y-4604048D01*
X11956334Y-4588528D01*
X11936207Y-4572010D01*
X11769346Y-4482820D01*
X11678818Y-4455359D01*
X11588289Y-4427897D01*
X11400000Y-4409353D01*
X11211710Y-4427897D01*
X11030651Y-4482821D01*
X10863794Y-4572009D01*
X10843661Y-4588531D01*
X10779350Y-4615842D01*
X10710483Y-4604048D01*
X10686334Y-4588528D01*
X10666207Y-4572010D01*
X10499346Y-4482820D01*
X10408818Y-4455359D01*
X10318289Y-4427897D01*
X10130000Y-4409353D01*
X9941710Y-4427897D01*
X9760651Y-4482821D01*
X9593794Y-4572009D01*
X9447537Y-4692037D01*
X9327509Y-4838294D01*
X9238321Y-5005151D01*
X9183397Y-5186210D01*
X9164853Y-5374500D01*
X500Y-5374500D01*
X500Y-124500D01*
X20185Y-57461D01*
X72989Y-11706D01*
X124500Y-500D01*
X35375500Y-500D01*
X35442539Y-20185D01*
G37*
%TD.AperFunction*%
%TD*%
M02*
