M48
; DRILL file {KiCad 5.1.4} date Mon 16 Nov 2020 05:48:19 PM MST
; FORMAT={-:-/ absolute / inch / decimal}
; #@! TF.CreationDate,2020-11-16T17:48:19-07:00
; #@! TF.GenerationSoftware,Kicad,Pcbnew,5.1.4
; #@! TF.FileFunction,Plated,1,4,PTH
FMAT,2
INCH
T1C0.0118
T2C0.1283
%
G90
G05
T1
X5.2575Y-3.6346
X5.3472Y-3.6945
X5.437Y-2.8268
X5.437Y-2.9764
X5.437Y-3.1858
X5.437Y-3.3953
X5.437Y-3.5748
X5.4969Y-3.0661
X5.4969Y-3.6646
X5.5268Y-3.2457
X5.5268Y-3.4551
X5.5567Y-2.8567
X5.5866Y-2.9764
X5.5866Y-3.1559
X5.5866Y-3.3654
X5.5866Y-3.5748
X5.6165Y-3.6945
X5.6465Y-3.0661
X5.6764Y-2.8268
X5.7063Y-3.1858
X5.7063Y-3.6047
X5.7362Y-2.9764
X5.7661Y-3.6945
X5.7961Y-2.8567
X5.7961Y-3.0661
X5.826Y-3.2157
X5.826Y-3.3654
X5.8559Y-3.485
X5.8858Y-2.9165
X5.8858Y-3.126
X5.9157Y-3.3055
X5.9457Y-2.8268
X5.9457Y-3.0063
X6.0354Y-2.8866
X6.0654Y-3.126
X6.0953Y-3.2756
X6.1252Y-2.8268
X6.1252Y-3.4252
X6.1551Y-3.0362
X6.185Y-3.1858
X6.185Y-3.6047
X6.215Y-2.8866
X6.2449Y-3.6945
X6.2748Y-2.9764
X6.2748Y-3.2756
X6.3047Y-2.8268
X6.3047Y-3.1559
X6.3047Y-3.5748
X6.3646Y-3.0362
X6.3646Y-3.6646
X6.3945Y-2.8866
X6.3945Y-3.2157
X6.4244Y-3.3654
X6.4543Y-2.9764
X6.4543Y-3.485
X6.4843Y-2.8268
X6.4843Y-3.6047
X6.5142Y-3.0661
X6.5142Y-3.2457
X6.5441Y-3.3953
X6.5441Y-3.6945
X6.6339Y-3.6346
X6.7236Y-3.6945
T2
X5.7Y-3.4
X6.3Y-3.4
T0
M30
