G04 #@! TF.GenerationSoftware,KiCad,Pcbnew,5.1.4*
G04 #@! TF.CreationDate,2020-11-16T17:48:16-07:00*
G04 #@! TF.ProjectId,sleigh,736c6569-6768-42e6-9b69-6361645f7063,rev?*
G04 #@! TF.SameCoordinates,Original*
G04 #@! TF.FileFunction,Copper,L1,Top*
G04 #@! TF.FilePolarity,Positive*
%FSLAX46Y46*%
G04 Gerber Fmt 4.6, Leading zero omitted, Abs format (unit mm)*
G04 Created by KiCad (PCBNEW 5.1.4) date 2020-11-16 17:48:16*
%MOMM*%
%LPD*%
G04 APERTURE LIST*
%ADD10C,0.500000*%
%ADD11C,0.100000*%
%ADD12R,0.100000X0.258000*%
%ADD13R,1.500000X2.000000*%
%ADD14R,0.258000X1.600000*%
%ADD15C,1.550000*%
%ADD16R,2.600000X1.100000*%
%ADD17C,3.280000*%
%ADD18C,0.600000*%
%ADD19C,0.258000*%
%ADD20C,0.150000*%
G04 APERTURE END LIST*
D10*
X165160000Y-74210000D03*
D11*
G36*
X164460000Y-74339000D02*
G01*
X164360000Y-74339000D01*
X164360000Y-74081000D01*
X164460000Y-74081000D01*
X164910000Y-73660000D01*
X165410000Y-73660000D01*
X165410000Y-74760000D01*
X164910000Y-74760000D01*
X164460000Y-74339000D01*
X164460000Y-74339000D01*
G37*
D12*
X164410000Y-74210000D03*
X164400000Y-79290000D03*
D10*
X165150000Y-79290000D03*
D11*
G36*
X164450000Y-79419000D02*
G01*
X164350000Y-79419000D01*
X164350000Y-79161000D01*
X164450000Y-79161000D01*
X164900000Y-78740000D01*
X165400000Y-78740000D01*
X165400000Y-79840000D01*
X164900000Y-79840000D01*
X164450000Y-79419000D01*
X164450000Y-79419000D01*
G37*
D10*
X165160000Y-84370000D03*
D11*
G36*
X164460000Y-84499000D02*
G01*
X164360000Y-84499000D01*
X164360000Y-84241000D01*
X164460000Y-84241000D01*
X164910000Y-83820000D01*
X165410000Y-83820000D01*
X165410000Y-84920000D01*
X164910000Y-84920000D01*
X164460000Y-84499000D01*
X164460000Y-84499000D01*
G37*
D12*
X164410000Y-84370000D03*
X164410000Y-89450000D03*
D10*
X165160000Y-89450000D03*
D11*
G36*
X164460000Y-89579000D02*
G01*
X164360000Y-89579000D01*
X164360000Y-89321000D01*
X164460000Y-89321000D01*
X164910000Y-88900000D01*
X165410000Y-88900000D01*
X165410000Y-90000000D01*
X164910000Y-90000000D01*
X164460000Y-89579000D01*
X164460000Y-89579000D01*
G37*
D10*
X139650000Y-89450000D03*
D11*
G36*
X140350000Y-89321000D02*
G01*
X140450000Y-89321000D01*
X140450000Y-89579000D01*
X140350000Y-89579000D01*
X139900000Y-90000000D01*
X139400000Y-90000000D01*
X139400000Y-88900000D01*
X139900000Y-88900000D01*
X140350000Y-89321000D01*
X140350000Y-89321000D01*
G37*
D12*
X140400000Y-89450000D03*
X140390000Y-74200000D03*
D10*
X139640000Y-74200000D03*
D11*
G36*
X140340000Y-74071000D02*
G01*
X140440000Y-74071000D01*
X140440000Y-74329000D01*
X140340000Y-74329000D01*
X139890000Y-74750000D01*
X139390000Y-74750000D01*
X139390000Y-73650000D01*
X139890000Y-73650000D01*
X140340000Y-74071000D01*
X140340000Y-74071000D01*
G37*
D10*
X139640000Y-79280000D03*
D11*
G36*
X140340000Y-79151000D02*
G01*
X140440000Y-79151000D01*
X140440000Y-79409000D01*
X140340000Y-79409000D01*
X139890000Y-79830000D01*
X139390000Y-79830000D01*
X139390000Y-78730000D01*
X139890000Y-78730000D01*
X140340000Y-79151000D01*
X140340000Y-79151000D01*
G37*
D12*
X140390000Y-79280000D03*
X140390000Y-84370000D03*
D10*
X139640000Y-84370000D03*
D11*
G36*
X140340000Y-84241000D02*
G01*
X140440000Y-84241000D01*
X140440000Y-84499000D01*
X140340000Y-84499000D01*
X139890000Y-84920000D01*
X139390000Y-84920000D01*
X139390000Y-83820000D01*
X139890000Y-83820000D01*
X140340000Y-84241000D01*
X140340000Y-84241000D01*
G37*
D13*
X148000000Y-93526000D03*
X156800000Y-93526000D03*
D14*
X149600000Y-93726000D03*
X150400000Y-93726000D03*
X151200000Y-93726000D03*
X152000000Y-93726000D03*
X152800000Y-93726000D03*
X153600000Y-93726000D03*
X154400000Y-93726000D03*
X155200000Y-93726000D03*
D15*
X166406000Y-87923000D03*
D11*
G36*
X164906000Y-87148000D02*
G01*
X172406000Y-87148000D01*
X172406000Y-87698000D01*
X167906000Y-87698000D01*
X167906000Y-88698000D01*
X164906000Y-88698000D01*
X164906000Y-87148000D01*
X164906000Y-87148000D01*
G37*
D15*
X166406000Y-90973000D03*
D11*
G36*
X164906000Y-90198000D02*
G01*
X167906000Y-90198000D01*
X167906000Y-91198000D01*
X172406000Y-91198000D01*
X172406000Y-91748000D01*
X164906000Y-91748000D01*
X164906000Y-90198000D01*
X164906000Y-90198000D01*
G37*
D16*
X166206000Y-89448000D03*
D15*
X166406000Y-82843000D03*
D11*
G36*
X164906000Y-82068000D02*
G01*
X172406000Y-82068000D01*
X172406000Y-82618000D01*
X167906000Y-82618000D01*
X167906000Y-83618000D01*
X164906000Y-83618000D01*
X164906000Y-82068000D01*
X164906000Y-82068000D01*
G37*
D15*
X166406000Y-85893000D03*
D11*
G36*
X164906000Y-85118000D02*
G01*
X167906000Y-85118000D01*
X167906000Y-86118000D01*
X172406000Y-86118000D01*
X172406000Y-86668000D01*
X164906000Y-86668000D01*
X164906000Y-85118000D01*
X164906000Y-85118000D01*
G37*
D16*
X166206000Y-84368000D03*
D15*
X166406000Y-77763000D03*
D11*
G36*
X164906000Y-76988000D02*
G01*
X172406000Y-76988000D01*
X172406000Y-77538000D01*
X167906000Y-77538000D01*
X167906000Y-78538000D01*
X164906000Y-78538000D01*
X164906000Y-76988000D01*
X164906000Y-76988000D01*
G37*
D15*
X166406000Y-80813000D03*
D11*
G36*
X164906000Y-80038000D02*
G01*
X167906000Y-80038000D01*
X167906000Y-81038000D01*
X172406000Y-81038000D01*
X172406000Y-81588000D01*
X164906000Y-81588000D01*
X164906000Y-80038000D01*
X164906000Y-80038000D01*
G37*
D16*
X166206000Y-79288000D03*
D15*
X166406000Y-72683000D03*
D11*
G36*
X164906000Y-71908000D02*
G01*
X172406000Y-71908000D01*
X172406000Y-72458000D01*
X167906000Y-72458000D01*
X167906000Y-73458000D01*
X164906000Y-73458000D01*
X164906000Y-71908000D01*
X164906000Y-71908000D01*
G37*
D15*
X166406000Y-75733000D03*
D11*
G36*
X164906000Y-74958000D02*
G01*
X167906000Y-74958000D01*
X167906000Y-75958000D01*
X172406000Y-75958000D01*
X172406000Y-76508000D01*
X164906000Y-76508000D01*
X164906000Y-74958000D01*
X164906000Y-74958000D01*
G37*
D16*
X166206000Y-74208000D03*
D15*
X138394000Y-75725000D03*
D11*
G36*
X139894000Y-76500000D02*
G01*
X132394000Y-76500000D01*
X132394000Y-75950000D01*
X136894000Y-75950000D01*
X136894000Y-74950000D01*
X139894000Y-74950000D01*
X139894000Y-76500000D01*
X139894000Y-76500000D01*
G37*
D15*
X138394000Y-72675000D03*
D11*
G36*
X139894000Y-73450000D02*
G01*
X136894000Y-73450000D01*
X136894000Y-72450000D01*
X132394000Y-72450000D01*
X132394000Y-71900000D01*
X139894000Y-71900000D01*
X139894000Y-73450000D01*
X139894000Y-73450000D01*
G37*
D16*
X138594000Y-74200000D03*
D15*
X138394000Y-80805000D03*
D11*
G36*
X139894000Y-81580000D02*
G01*
X132394000Y-81580000D01*
X132394000Y-81030000D01*
X136894000Y-81030000D01*
X136894000Y-80030000D01*
X139894000Y-80030000D01*
X139894000Y-81580000D01*
X139894000Y-81580000D01*
G37*
D15*
X138394000Y-77755000D03*
D11*
G36*
X139894000Y-78530000D02*
G01*
X136894000Y-78530000D01*
X136894000Y-77530000D01*
X132394000Y-77530000D01*
X132394000Y-76980000D01*
X139894000Y-76980000D01*
X139894000Y-78530000D01*
X139894000Y-78530000D01*
G37*
D16*
X138594000Y-79280000D03*
D15*
X138394000Y-85893000D03*
D11*
G36*
X139894000Y-86668000D02*
G01*
X132394000Y-86668000D01*
X132394000Y-86118000D01*
X136894000Y-86118000D01*
X136894000Y-85118000D01*
X139894000Y-85118000D01*
X139894000Y-86668000D01*
X139894000Y-86668000D01*
G37*
D15*
X138394000Y-82843000D03*
D11*
G36*
X139894000Y-83618000D02*
G01*
X136894000Y-83618000D01*
X136894000Y-82618000D01*
X132394000Y-82618000D01*
X132394000Y-82068000D01*
X139894000Y-82068000D01*
X139894000Y-83618000D01*
X139894000Y-83618000D01*
G37*
D16*
X138594000Y-84368000D03*
D15*
X138394000Y-90973000D03*
D11*
G36*
X139894000Y-91748000D02*
G01*
X132394000Y-91748000D01*
X132394000Y-91198000D01*
X136894000Y-91198000D01*
X136894000Y-90198000D01*
X139894000Y-90198000D01*
X139894000Y-91748000D01*
X139894000Y-91748000D01*
G37*
D15*
X138394000Y-87923000D03*
D11*
G36*
X139894000Y-88698000D02*
G01*
X136894000Y-88698000D01*
X136894000Y-87698000D01*
X132394000Y-87698000D01*
X132394000Y-87148000D01*
X139894000Y-87148000D01*
X139894000Y-88698000D01*
X139894000Y-88698000D01*
G37*
D16*
X138594000Y-89448000D03*
D17*
X144780000Y-86360000D03*
X160020000Y-86360000D03*
D18*
X133540000Y-92320000D03*
X135820000Y-93840000D03*
X138100000Y-71800000D03*
X138100000Y-75600000D03*
X138100000Y-80920000D03*
X138100000Y-86240000D03*
X138100000Y-90800000D03*
X139620000Y-77880000D03*
X139620000Y-93080000D03*
X140380000Y-82440000D03*
X140380000Y-87760000D03*
X141140000Y-72560000D03*
X141900000Y-75600000D03*
X141900000Y-80160000D03*
X141900000Y-85480000D03*
X141900000Y-90800000D03*
X142660000Y-93840000D03*
X143420000Y-77880000D03*
X144180000Y-71800000D03*
X144940000Y-80920000D03*
X144940000Y-91560000D03*
X145700000Y-75600000D03*
X146460000Y-93840000D03*
X147220000Y-72560000D03*
X147220000Y-77880000D03*
X147980000Y-81680000D03*
X147980000Y-85480000D03*
X148740000Y-88520000D03*
X149500000Y-74080000D03*
X149500000Y-79400000D03*
X150260000Y-83960000D03*
X151020000Y-71800000D03*
X151020000Y-76360000D03*
X153300000Y-73320000D03*
X154060000Y-79400000D03*
X154820000Y-83200000D03*
X155580000Y-71800000D03*
X155580000Y-87000000D03*
X156340000Y-77120000D03*
X157100000Y-80920000D03*
X157100000Y-91560000D03*
X157860000Y-73320000D03*
X158620000Y-93840000D03*
X159380000Y-75600000D03*
X159380000Y-83200000D03*
X160140000Y-71800000D03*
X160140000Y-80160000D03*
X160140000Y-90800000D03*
X161660000Y-77120000D03*
X161660000Y-93080000D03*
X162420000Y-73320000D03*
X162420000Y-81680000D03*
X163180000Y-85480000D03*
X163940000Y-75600000D03*
X163940000Y-88520000D03*
X164700000Y-71800000D03*
X164700000Y-91560000D03*
X165460000Y-77880000D03*
X165460000Y-82440000D03*
X166220000Y-86240000D03*
X166220000Y-93840000D03*
X168500000Y-92320000D03*
X170780000Y-93840000D03*
D19*
X155200000Y-92600000D02*
X155200000Y-93726000D01*
X155200000Y-92600000D02*
X155202907Y-92481540D01*
X155202907Y-92481540D02*
X155211624Y-92363365D01*
X155211624Y-92363365D02*
X155226129Y-92245761D01*
X155226129Y-92245761D02*
X155246387Y-92129010D01*
X155246387Y-92129010D02*
X155272350Y-92013393D01*
X155272350Y-92013393D02*
X155303954Y-91899190D01*
X155303954Y-91899190D02*
X155341124Y-91786675D01*
X155341124Y-91786675D02*
X155383770Y-91676120D01*
X155383770Y-91676120D02*
X155431789Y-91567790D01*
X155431789Y-91567790D02*
X155485066Y-91461947D01*
X155485066Y-91461947D02*
X155543472Y-91358846D01*
X155543472Y-91358846D02*
X155606867Y-91258734D01*
X155606867Y-91258734D02*
X155675098Y-91161854D01*
X155675098Y-91161854D02*
X155748000Y-91068438D01*
X155748000Y-91068438D02*
X155825398Y-90978713D01*
X155825398Y-90978713D02*
X155907106Y-90892893D01*
X158352000Y-89448000D02*
X166206000Y-89448000D01*
X158352000Y-89448000D02*
X158233540Y-89450907D01*
X158233540Y-89450907D02*
X158115365Y-89459624D01*
X158115365Y-89459624D02*
X157997761Y-89474129D01*
X157997761Y-89474129D02*
X157881009Y-89494387D01*
X157881009Y-89494387D02*
X157765393Y-89520350D01*
X157765393Y-89520350D02*
X157651190Y-89551954D01*
X157651190Y-89551954D02*
X157538675Y-89589124D01*
X157538675Y-89589124D02*
X157428119Y-89631770D01*
X157428119Y-89631770D02*
X157319789Y-89679789D01*
X157319789Y-89679789D02*
X157213946Y-89733066D01*
X157213946Y-89733066D02*
X157110845Y-89791472D01*
X157110845Y-89791472D02*
X157010733Y-89854867D01*
X157010733Y-89854867D02*
X156913853Y-89923097D01*
X156913853Y-89923097D02*
X156820437Y-89996000D01*
X156820437Y-89996000D02*
X156730711Y-90073398D01*
X156730711Y-90073398D02*
X156644892Y-90155106D01*
X156644892Y-90155106D02*
X155907106Y-90892893D01*
X155107106Y-85292893D02*
X155025398Y-85378712D01*
X155025398Y-85378712D02*
X154948000Y-85468438D01*
X154948000Y-85468438D02*
X154875098Y-85561854D01*
X154875098Y-85561854D02*
X154806867Y-85658734D01*
X154806867Y-85658734D02*
X154743472Y-85758845D01*
X154743472Y-85758845D02*
X154685066Y-85861947D01*
X154685066Y-85861947D02*
X154631789Y-85967790D01*
X154631789Y-85967790D02*
X154583770Y-86076120D01*
X154583770Y-86076120D02*
X154541124Y-86186675D01*
X154541124Y-86186675D02*
X154503954Y-86299190D01*
X154503954Y-86299190D02*
X154472350Y-86413393D01*
X154472350Y-86413393D02*
X154446387Y-86529010D01*
X154446387Y-86529010D02*
X154426129Y-86645761D01*
X154426129Y-86645761D02*
X154411624Y-86763365D01*
X154411624Y-86763365D02*
X154402907Y-86881540D01*
X154402907Y-86881540D02*
X154400000Y-87000000D01*
X154400000Y-87000000D02*
X154400000Y-93700000D01*
X159200000Y-82200000D02*
X159081540Y-82202907D01*
X159081540Y-82202907D02*
X158963365Y-82211624D01*
X158963365Y-82211624D02*
X158845761Y-82226129D01*
X158845761Y-82226129D02*
X158729010Y-82246387D01*
X158729010Y-82246387D02*
X158613393Y-82272350D01*
X158613393Y-82272350D02*
X158499190Y-82303954D01*
X158499190Y-82303954D02*
X158386675Y-82341124D01*
X158386675Y-82341124D02*
X158276120Y-82383770D01*
X158276120Y-82383770D02*
X158167790Y-82431789D01*
X158167790Y-82431789D02*
X158061947Y-82485066D01*
X158061947Y-82485066D02*
X157958846Y-82543472D01*
X157958846Y-82543472D02*
X157858734Y-82606867D01*
X157858734Y-82606867D02*
X157761854Y-82675098D01*
X157761854Y-82675098D02*
X157668438Y-82748000D01*
X157668438Y-82748000D02*
X157578713Y-82825398D01*
X157578713Y-82825398D02*
X157492893Y-82907106D01*
X157492893Y-82907106D02*
X155107106Y-85292893D01*
X161807106Y-82907106D02*
X161721285Y-82825398D01*
X161721285Y-82825398D02*
X161631560Y-82748000D01*
X161631560Y-82748000D02*
X161538144Y-82675098D01*
X161538144Y-82675098D02*
X161441264Y-82606867D01*
X161441264Y-82606867D02*
X161341153Y-82543472D01*
X161341153Y-82543472D02*
X161238051Y-82485066D01*
X161238051Y-82485066D02*
X161132208Y-82431789D01*
X161132208Y-82431789D02*
X161023879Y-82383770D01*
X161023879Y-82383770D02*
X160913323Y-82341124D01*
X160913323Y-82341124D02*
X160800808Y-82303954D01*
X160800808Y-82303954D02*
X160686605Y-82272350D01*
X160686605Y-82272350D02*
X160570989Y-82246387D01*
X160570989Y-82246387D02*
X160454238Y-82226129D01*
X160454238Y-82226129D02*
X160336634Y-82211624D01*
X160336634Y-82211624D02*
X160218459Y-82202907D01*
X160218459Y-82202907D02*
X160100000Y-82200000D01*
X160100000Y-82200000D02*
X159200000Y-82200000D01*
X164268000Y-84368000D02*
X166206000Y-84368000D01*
X164268000Y-84368000D02*
X164149540Y-84365091D01*
X164149540Y-84365091D02*
X164031365Y-84356374D01*
X164031365Y-84356374D02*
X163913761Y-84341869D01*
X163913761Y-84341869D02*
X163797010Y-84321611D01*
X163797010Y-84321611D02*
X163681393Y-84295649D01*
X163681393Y-84295649D02*
X163567190Y-84264044D01*
X163567190Y-84264044D02*
X163454675Y-84226874D01*
X163454675Y-84226874D02*
X163344120Y-84184228D01*
X163344120Y-84184228D02*
X163235790Y-84136209D01*
X163235790Y-84136209D02*
X163129947Y-84082932D01*
X163129947Y-84082932D02*
X163026845Y-84024526D01*
X163026845Y-84024526D02*
X162926734Y-83961131D01*
X162926734Y-83961131D02*
X162829854Y-83892900D01*
X162829854Y-83892900D02*
X162736438Y-83819998D01*
X162736438Y-83819998D02*
X162646712Y-83742600D01*
X162646712Y-83742600D02*
X162560893Y-83660893D01*
X162560893Y-83660893D02*
X161807106Y-82907106D01*
X153600000Y-83674000D02*
X153600000Y-93700000D01*
X153600000Y-83674000D02*
X153602907Y-83555540D01*
X153602907Y-83555540D02*
X153611624Y-83437365D01*
X153611624Y-83437365D02*
X153626129Y-83319761D01*
X153626129Y-83319761D02*
X153646387Y-83203010D01*
X153646387Y-83203010D02*
X153672350Y-83087393D01*
X153672350Y-83087393D02*
X153703954Y-82973190D01*
X153703954Y-82973190D02*
X153741124Y-82860675D01*
X153741124Y-82860675D02*
X153783770Y-82750120D01*
X153783770Y-82750120D02*
X153831789Y-82641790D01*
X153831789Y-82641790D02*
X153885066Y-82535947D01*
X153885066Y-82535947D02*
X153943472Y-82432846D01*
X153943472Y-82432846D02*
X154006867Y-82332734D01*
X154006867Y-82332734D02*
X154075098Y-82235854D01*
X154075098Y-82235854D02*
X154148000Y-82142438D01*
X154148000Y-82142438D02*
X154225398Y-82052713D01*
X154225398Y-82052713D02*
X154307106Y-81966893D01*
X157986000Y-79288000D02*
X166206000Y-79288000D01*
X157986000Y-79288000D02*
X157867540Y-79290907D01*
X157867540Y-79290907D02*
X157749365Y-79299624D01*
X157749365Y-79299624D02*
X157631761Y-79314129D01*
X157631761Y-79314129D02*
X157515010Y-79334387D01*
X157515010Y-79334387D02*
X157399393Y-79360350D01*
X157399393Y-79360350D02*
X157285190Y-79391954D01*
X157285190Y-79391954D02*
X157172675Y-79429124D01*
X157172675Y-79429124D02*
X157062120Y-79471770D01*
X157062120Y-79471770D02*
X156953790Y-79519789D01*
X156953790Y-79519789D02*
X156847947Y-79573066D01*
X156847947Y-79573066D02*
X156744846Y-79631472D01*
X156744846Y-79631472D02*
X156644734Y-79694867D01*
X156644734Y-79694867D02*
X156547854Y-79763098D01*
X156547854Y-79763098D02*
X156454438Y-79836000D01*
X156454438Y-79836000D02*
X156364713Y-79913398D01*
X156364713Y-79913398D02*
X156278893Y-79995106D01*
X156278893Y-79995106D02*
X154307106Y-81966893D01*
X152800000Y-80000000D02*
X152800000Y-93700000D01*
X152800000Y-80000000D02*
X152802907Y-79881540D01*
X152802907Y-79881540D02*
X152811624Y-79763365D01*
X152811624Y-79763365D02*
X152826129Y-79645761D01*
X152826129Y-79645761D02*
X152846387Y-79529010D01*
X152846387Y-79529010D02*
X152872350Y-79413393D01*
X152872350Y-79413393D02*
X152903954Y-79299190D01*
X152903954Y-79299190D02*
X152941124Y-79186675D01*
X152941124Y-79186675D02*
X152983770Y-79076120D01*
X152983770Y-79076120D02*
X153031789Y-78967790D01*
X153031789Y-78967790D02*
X153085066Y-78861947D01*
X153085066Y-78861947D02*
X153143472Y-78758846D01*
X153143472Y-78758846D02*
X153206867Y-78658734D01*
X153206867Y-78658734D02*
X153275098Y-78561854D01*
X153275098Y-78561854D02*
X153348000Y-78468438D01*
X153348000Y-78468438D02*
X153425398Y-78378713D01*
X153425398Y-78378713D02*
X153507106Y-78292893D01*
X158592000Y-74208000D02*
X166206000Y-74208000D01*
X158592000Y-74208000D02*
X158473540Y-74210907D01*
X158473540Y-74210907D02*
X158355365Y-74219624D01*
X158355365Y-74219624D02*
X158237761Y-74234129D01*
X158237761Y-74234129D02*
X158121010Y-74254387D01*
X158121010Y-74254387D02*
X158005393Y-74280350D01*
X158005393Y-74280350D02*
X157891190Y-74311954D01*
X157891190Y-74311954D02*
X157778675Y-74349124D01*
X157778675Y-74349124D02*
X157668120Y-74391770D01*
X157668120Y-74391770D02*
X157559790Y-74439789D01*
X157559790Y-74439789D02*
X157453947Y-74493066D01*
X157453947Y-74493066D02*
X157350846Y-74551472D01*
X157350846Y-74551472D02*
X157250734Y-74614867D01*
X157250734Y-74614867D02*
X157153854Y-74683098D01*
X157153854Y-74683098D02*
X157060438Y-74756000D01*
X157060438Y-74756000D02*
X156970713Y-74833398D01*
X156970713Y-74833398D02*
X156884893Y-74915106D01*
X156884893Y-74915106D02*
X153507106Y-78292893D01*
X151292893Y-78292893D02*
X151374600Y-78378713D01*
X151374600Y-78378713D02*
X151451998Y-78468438D01*
X151451998Y-78468438D02*
X151524900Y-78561854D01*
X151524900Y-78561854D02*
X151593131Y-78658734D01*
X151593131Y-78658734D02*
X151656526Y-78758846D01*
X151656526Y-78758846D02*
X151714932Y-78861947D01*
X151714932Y-78861947D02*
X151768209Y-78967790D01*
X151768209Y-78967790D02*
X151816228Y-79076120D01*
X151816228Y-79076120D02*
X151858874Y-79186675D01*
X151858874Y-79186675D02*
X151896044Y-79299190D01*
X151896044Y-79299190D02*
X151927648Y-79413393D01*
X151927648Y-79413393D02*
X151953611Y-79529010D01*
X151953611Y-79529010D02*
X151973869Y-79645761D01*
X151973869Y-79645761D02*
X151988374Y-79763365D01*
X151988374Y-79763365D02*
X151997091Y-79881540D01*
X151997091Y-79881540D02*
X152000000Y-80000000D01*
X152000000Y-80000000D02*
X152000000Y-93726000D01*
X146200000Y-74200000D02*
X138594000Y-74200000D01*
X146200000Y-74200000D02*
X146318459Y-74202908D01*
X146318459Y-74202908D02*
X146436634Y-74211625D01*
X146436634Y-74211625D02*
X146554238Y-74226130D01*
X146554238Y-74226130D02*
X146670989Y-74246388D01*
X146670989Y-74246388D02*
X146786605Y-74272350D01*
X146786605Y-74272350D02*
X146900808Y-74303955D01*
X146900808Y-74303955D02*
X147013323Y-74341125D01*
X147013323Y-74341125D02*
X147123878Y-74383770D01*
X147123878Y-74383770D02*
X147232208Y-74431790D01*
X147232208Y-74431790D02*
X147338051Y-74485067D01*
X147338051Y-74485067D02*
X147441153Y-74543473D01*
X147441153Y-74543473D02*
X147541264Y-74606868D01*
X147541264Y-74606868D02*
X147638144Y-74675098D01*
X147638144Y-74675098D02*
X147731559Y-74748000D01*
X147731559Y-74748000D02*
X147821285Y-74825398D01*
X147821285Y-74825398D02*
X147907106Y-74907106D01*
X147907106Y-74907106D02*
X151292893Y-78292893D01*
X150492893Y-81992893D02*
X150574600Y-82078713D01*
X150574600Y-82078713D02*
X150651998Y-82168438D01*
X150651998Y-82168438D02*
X150724900Y-82261854D01*
X150724900Y-82261854D02*
X150793131Y-82358734D01*
X150793131Y-82358734D02*
X150856526Y-82458846D01*
X150856526Y-82458846D02*
X150914932Y-82561947D01*
X150914932Y-82561947D02*
X150968209Y-82667790D01*
X150968209Y-82667790D02*
X151016228Y-82776120D01*
X151016228Y-82776120D02*
X151058874Y-82886675D01*
X151058874Y-82886675D02*
X151096044Y-82999190D01*
X151096044Y-82999190D02*
X151127648Y-83113393D01*
X151127648Y-83113393D02*
X151153611Y-83229010D01*
X151153611Y-83229010D02*
X151173869Y-83345761D01*
X151173869Y-83345761D02*
X151188374Y-83463365D01*
X151188374Y-83463365D02*
X151197091Y-83581540D01*
X151197091Y-83581540D02*
X151200000Y-83700000D01*
X151200000Y-83700000D02*
X151200000Y-93726000D01*
X146780000Y-79280000D02*
X138594000Y-79280000D01*
X146780000Y-79280000D02*
X146898459Y-79282908D01*
X146898459Y-79282908D02*
X147016634Y-79291625D01*
X147016634Y-79291625D02*
X147134238Y-79306130D01*
X147134238Y-79306130D02*
X147250989Y-79326388D01*
X147250989Y-79326388D02*
X147366605Y-79352350D01*
X147366605Y-79352350D02*
X147480808Y-79383955D01*
X147480808Y-79383955D02*
X147593323Y-79421125D01*
X147593323Y-79421125D02*
X147703878Y-79463770D01*
X147703878Y-79463770D02*
X147812208Y-79511790D01*
X147812208Y-79511790D02*
X147918051Y-79565067D01*
X147918051Y-79565067D02*
X148021153Y-79623473D01*
X148021153Y-79623473D02*
X148121264Y-79686868D01*
X148121264Y-79686868D02*
X148218144Y-79755098D01*
X148218144Y-79755098D02*
X148311559Y-79828000D01*
X148311559Y-79828000D02*
X148401285Y-79905398D01*
X148401285Y-79905398D02*
X148487106Y-79987106D01*
X148487106Y-79987106D02*
X150492893Y-81992893D01*
X142239106Y-83660893D02*
X142153285Y-83742600D01*
X142153285Y-83742600D02*
X142063560Y-83819998D01*
X142063560Y-83819998D02*
X141970144Y-83892900D01*
X141970144Y-83892900D02*
X141873264Y-83961131D01*
X141873264Y-83961131D02*
X141773153Y-84024526D01*
X141773153Y-84024526D02*
X141670051Y-84082932D01*
X141670051Y-84082932D02*
X141564208Y-84136209D01*
X141564208Y-84136209D02*
X141455879Y-84184228D01*
X141455879Y-84184228D02*
X141345323Y-84226874D01*
X141345323Y-84226874D02*
X141232808Y-84264044D01*
X141232808Y-84264044D02*
X141118605Y-84295648D01*
X141118605Y-84295648D02*
X141002989Y-84321611D01*
X141002989Y-84321611D02*
X140886238Y-84341869D01*
X140886238Y-84341869D02*
X140768634Y-84356374D01*
X140768634Y-84356374D02*
X140650459Y-84365091D01*
X140650459Y-84365091D02*
X140532000Y-84368000D01*
X140532000Y-84368000D02*
X138594000Y-84368000D01*
X144700000Y-82200000D02*
X144581540Y-82202907D01*
X144581540Y-82202907D02*
X144463365Y-82211624D01*
X144463365Y-82211624D02*
X144345761Y-82226129D01*
X144345761Y-82226129D02*
X144229009Y-82246387D01*
X144229009Y-82246387D02*
X144113393Y-82272350D01*
X144113393Y-82272350D02*
X143999190Y-82303954D01*
X143999190Y-82303954D02*
X143886675Y-82341124D01*
X143886675Y-82341124D02*
X143776119Y-82383770D01*
X143776119Y-82383770D02*
X143667789Y-82431789D01*
X143667789Y-82431789D02*
X143561946Y-82485066D01*
X143561946Y-82485066D02*
X143458845Y-82543472D01*
X143458845Y-82543472D02*
X143358733Y-82606867D01*
X143358733Y-82606867D02*
X143261853Y-82675097D01*
X143261853Y-82675097D02*
X143168437Y-82748000D01*
X143168437Y-82748000D02*
X143078711Y-82825398D01*
X143078711Y-82825398D02*
X142992892Y-82907106D01*
X142992892Y-82907106D02*
X142239106Y-83660893D01*
X147307106Y-82907106D02*
X147221285Y-82825398D01*
X147221285Y-82825398D02*
X147131560Y-82748000D01*
X147131560Y-82748000D02*
X147038144Y-82675098D01*
X147038144Y-82675098D02*
X146941264Y-82606867D01*
X146941264Y-82606867D02*
X146841153Y-82543472D01*
X146841153Y-82543472D02*
X146738051Y-82485066D01*
X146738051Y-82485066D02*
X146632208Y-82431789D01*
X146632208Y-82431789D02*
X146523879Y-82383770D01*
X146523879Y-82383770D02*
X146413323Y-82341124D01*
X146413323Y-82341124D02*
X146300808Y-82303954D01*
X146300808Y-82303954D02*
X146186605Y-82272350D01*
X146186605Y-82272350D02*
X146070989Y-82246387D01*
X146070989Y-82246387D02*
X145954238Y-82226129D01*
X145954238Y-82226129D02*
X145836634Y-82211624D01*
X145836634Y-82211624D02*
X145718459Y-82202907D01*
X145718459Y-82202907D02*
X145600000Y-82200000D01*
X145600000Y-82200000D02*
X144700000Y-82200000D01*
X150400000Y-87000000D02*
X150400000Y-93726000D01*
X150400000Y-87000000D02*
X150397091Y-86881540D01*
X150397091Y-86881540D02*
X150388374Y-86763365D01*
X150388374Y-86763365D02*
X150373869Y-86645761D01*
X150373869Y-86645761D02*
X150353611Y-86529010D01*
X150353611Y-86529010D02*
X150327649Y-86413393D01*
X150327649Y-86413393D02*
X150296044Y-86299190D01*
X150296044Y-86299190D02*
X150258874Y-86186675D01*
X150258874Y-86186675D02*
X150216228Y-86076120D01*
X150216228Y-86076120D02*
X150168209Y-85967790D01*
X150168209Y-85967790D02*
X150114932Y-85861947D01*
X150114932Y-85861947D02*
X150056526Y-85758845D01*
X150056526Y-85758845D02*
X149993131Y-85658734D01*
X149993131Y-85658734D02*
X149924900Y-85561854D01*
X149924900Y-85561854D02*
X149851998Y-85468438D01*
X149851998Y-85468438D02*
X149774600Y-85378712D01*
X149774600Y-85378712D02*
X149692893Y-85292893D01*
X149692893Y-85292893D02*
X147307106Y-82907106D01*
X146448000Y-89448000D02*
X138594000Y-89448000D01*
X146448000Y-89448000D02*
X146566459Y-89450908D01*
X146566459Y-89450908D02*
X146684634Y-89459625D01*
X146684634Y-89459625D02*
X146802238Y-89474130D01*
X146802238Y-89474130D02*
X146918989Y-89494388D01*
X146918989Y-89494388D02*
X147034605Y-89520350D01*
X147034605Y-89520350D02*
X147148808Y-89551955D01*
X147148808Y-89551955D02*
X147261323Y-89589125D01*
X147261323Y-89589125D02*
X147371878Y-89631770D01*
X147371878Y-89631770D02*
X147480208Y-89679790D01*
X147480208Y-89679790D02*
X147586051Y-89733067D01*
X147586051Y-89733067D02*
X147689153Y-89791473D01*
X147689153Y-89791473D02*
X147789264Y-89854868D01*
X147789264Y-89854868D02*
X147886144Y-89923098D01*
X147886144Y-89923098D02*
X147979559Y-89996000D01*
X147979559Y-89996000D02*
X148069285Y-90073398D01*
X148069285Y-90073398D02*
X148155106Y-90155106D01*
X149600000Y-92600000D02*
X149600000Y-93726000D01*
X149600000Y-92600000D02*
X149597091Y-92481540D01*
X149597091Y-92481540D02*
X149588374Y-92363365D01*
X149588374Y-92363365D02*
X149573869Y-92245761D01*
X149573869Y-92245761D02*
X149553611Y-92129010D01*
X149553611Y-92129010D02*
X149527649Y-92013393D01*
X149527649Y-92013393D02*
X149496044Y-91899190D01*
X149496044Y-91899190D02*
X149458874Y-91786675D01*
X149458874Y-91786675D02*
X149416228Y-91676120D01*
X149416228Y-91676120D02*
X149368209Y-91567790D01*
X149368209Y-91567790D02*
X149314932Y-91461947D01*
X149314932Y-91461947D02*
X149256526Y-91358845D01*
X149256526Y-91358845D02*
X149193131Y-91258734D01*
X149193131Y-91258734D02*
X149124900Y-91161854D01*
X149124900Y-91161854D02*
X149051998Y-91068438D01*
X149051998Y-91068438D02*
X148974600Y-90978712D01*
X148974600Y-90978712D02*
X148892893Y-90892893D01*
X148892893Y-90892893D02*
X148155106Y-90155106D01*
D20*
G36*
X164360000Y-89815137D02*
G01*
X164366762Y-89815137D01*
X164733501Y-90158242D01*
X164739026Y-90164974D01*
X164774809Y-90194341D01*
X164815634Y-90216162D01*
X164816231Y-90216343D01*
X164819634Y-90218162D01*
X164863932Y-90231600D01*
X164910000Y-90236137D01*
X165410000Y-90236137D01*
X165430308Y-90234137D01*
X167506000Y-90234137D01*
X167552068Y-90229600D01*
X167596366Y-90216162D01*
X167621001Y-90202995D01*
X167621001Y-91184000D01*
X167619622Y-91198000D01*
X167625125Y-91253870D01*
X167641421Y-91307592D01*
X167667885Y-91357103D01*
X167703500Y-91400500D01*
X167746897Y-91436115D01*
X167796408Y-91462579D01*
X167850130Y-91478875D01*
X167892010Y-91483000D01*
X167906000Y-91484378D01*
X167919990Y-91483000D01*
X172146000Y-91483000D01*
X172146001Y-94340000D01*
X155565137Y-94340000D01*
X155565137Y-92926000D01*
X155564000Y-92914455D01*
X155564000Y-92604437D01*
X155566578Y-92499400D01*
X155573981Y-92399039D01*
X155586298Y-92299184D01*
X155603500Y-92200041D01*
X155625547Y-92101864D01*
X155652387Y-92004877D01*
X155683946Y-91909349D01*
X155720165Y-91815453D01*
X155760940Y-91723467D01*
X155806183Y-91633584D01*
X155855776Y-91546040D01*
X155909611Y-91461025D01*
X155967561Y-91378742D01*
X156029462Y-91299424D01*
X156095176Y-91223244D01*
X156167680Y-91147091D01*
X156899156Y-90415616D01*
X156975228Y-90343189D01*
X157051428Y-90277457D01*
X157130750Y-90215555D01*
X157213027Y-90157609D01*
X157298039Y-90103776D01*
X157385590Y-90054179D01*
X157475466Y-90008939D01*
X157567450Y-89968166D01*
X157661345Y-89931947D01*
X157756887Y-89900384D01*
X157853863Y-89873547D01*
X157952029Y-89851503D01*
X158051185Y-89834298D01*
X158151040Y-89821981D01*
X158251400Y-89814578D01*
X158356437Y-89812000D01*
X164328147Y-89812000D01*
X164360000Y-89815137D01*
X164360000Y-89815137D01*
G37*
X164360000Y-89815137D02*
X164366762Y-89815137D01*
X164733501Y-90158242D01*
X164739026Y-90164974D01*
X164774809Y-90194341D01*
X164815634Y-90216162D01*
X164816231Y-90216343D01*
X164819634Y-90218162D01*
X164863932Y-90231600D01*
X164910000Y-90236137D01*
X165410000Y-90236137D01*
X165430308Y-90234137D01*
X167506000Y-90234137D01*
X167552068Y-90229600D01*
X167596366Y-90216162D01*
X167621001Y-90202995D01*
X167621001Y-91184000D01*
X167619622Y-91198000D01*
X167625125Y-91253870D01*
X167641421Y-91307592D01*
X167667885Y-91357103D01*
X167703500Y-91400500D01*
X167746897Y-91436115D01*
X167796408Y-91462579D01*
X167850130Y-91478875D01*
X167892010Y-91483000D01*
X167906000Y-91484378D01*
X167919990Y-91483000D01*
X172146000Y-91483000D01*
X172146001Y-94340000D01*
X155565137Y-94340000D01*
X155565137Y-92926000D01*
X155564000Y-92914455D01*
X155564000Y-92604437D01*
X155566578Y-92499400D01*
X155573981Y-92399039D01*
X155586298Y-92299184D01*
X155603500Y-92200041D01*
X155625547Y-92101864D01*
X155652387Y-92004877D01*
X155683946Y-91909349D01*
X155720165Y-91815453D01*
X155760940Y-91723467D01*
X155806183Y-91633584D01*
X155855776Y-91546040D01*
X155909611Y-91461025D01*
X155967561Y-91378742D01*
X156029462Y-91299424D01*
X156095176Y-91223244D01*
X156167680Y-91147091D01*
X156899156Y-90415616D01*
X156975228Y-90343189D01*
X157051428Y-90277457D01*
X157130750Y-90215555D01*
X157213027Y-90157609D01*
X157298039Y-90103776D01*
X157385590Y-90054179D01*
X157475466Y-90008939D01*
X157567450Y-89968166D01*
X157661345Y-89931947D01*
X157756887Y-89900384D01*
X157853863Y-89873547D01*
X157952029Y-89851503D01*
X158051185Y-89834298D01*
X158151040Y-89821981D01*
X158251400Y-89814578D01*
X158356437Y-89812000D01*
X164328147Y-89812000D01*
X164360000Y-89815137D01*
G36*
X145700598Y-82566578D02*
G01*
X145800960Y-82573981D01*
X145900815Y-82586298D01*
X145999953Y-82603499D01*
X146098137Y-82625548D01*
X146195121Y-82652387D01*
X146290657Y-82683948D01*
X146384539Y-82720162D01*
X146476536Y-82760942D01*
X146566416Y-82806184D01*
X146653968Y-82855781D01*
X146738974Y-82909611D01*
X146821256Y-82967561D01*
X146900574Y-83029462D01*
X146976766Y-83095186D01*
X147052892Y-83167664D01*
X149432361Y-85547135D01*
X149504810Y-85623230D01*
X149570535Y-85699422D01*
X149632451Y-85778762D01*
X149690385Y-85861022D01*
X149744217Y-85946030D01*
X149793818Y-86033589D01*
X149839059Y-86123467D01*
X149879830Y-86215445D01*
X149916054Y-86309353D01*
X149947616Y-86404892D01*
X149974450Y-86501857D01*
X149996499Y-86600049D01*
X150013700Y-86699182D01*
X150026017Y-86799040D01*
X150033420Y-86899404D01*
X150036000Y-87004455D01*
X150036001Y-92914446D01*
X150034863Y-92926000D01*
X150034863Y-94340000D01*
X149965137Y-94340000D01*
X149965137Y-92926000D01*
X149964000Y-92914455D01*
X149964000Y-92613398D01*
X149964329Y-92608938D01*
X149964000Y-92595541D01*
X149964000Y-92582120D01*
X149963561Y-92577662D01*
X149961200Y-92481539D01*
X149961420Y-92472594D01*
X149960761Y-92463667D01*
X149960542Y-92454730D01*
X149959448Y-92445860D01*
X149952044Y-92345496D01*
X149951825Y-92336553D01*
X149950730Y-92327673D01*
X149950072Y-92318757D01*
X149948544Y-92309949D01*
X149936224Y-92210069D01*
X149935566Y-92201147D01*
X149934036Y-92192331D01*
X149932942Y-92183459D01*
X149930984Y-92174738D01*
X149913779Y-92075582D01*
X149912684Y-92066704D01*
X149910724Y-92057974D01*
X149909195Y-92049164D01*
X149906810Y-92040548D01*
X149884760Y-91942350D01*
X149883231Y-91933540D01*
X149880847Y-91924926D01*
X149878887Y-91916197D01*
X149876079Y-91907696D01*
X149849242Y-91810722D01*
X149847280Y-91801987D01*
X149844471Y-91793486D01*
X149842088Y-91784873D01*
X149838872Y-91776537D01*
X149807306Y-91680985D01*
X149804918Y-91672355D01*
X149801695Y-91664000D01*
X149798893Y-91655518D01*
X149795273Y-91647352D01*
X149759048Y-91553443D01*
X149756246Y-91544960D01*
X149752624Y-91536790D01*
X149749402Y-91528436D01*
X149745378Y-91520441D01*
X149704601Y-91428450D01*
X149701381Y-91420102D01*
X149697360Y-91412114D01*
X149693736Y-91403938D01*
X149689328Y-91396156D01*
X149644082Y-91306269D01*
X149640457Y-91298091D01*
X149636047Y-91290305D01*
X149632026Y-91282318D01*
X149627243Y-91274764D01*
X149577638Y-91187200D01*
X149573617Y-91179211D01*
X149568833Y-91171657D01*
X149564425Y-91163875D01*
X149559274Y-91156562D01*
X149505441Y-91071550D01*
X149501027Y-91063758D01*
X149495869Y-91056435D01*
X149491091Y-91048889D01*
X149485595Y-91041847D01*
X149427647Y-90959568D01*
X149422859Y-90952007D01*
X149417352Y-90944950D01*
X149412204Y-90937641D01*
X149406366Y-90930873D01*
X149344458Y-90851545D01*
X149339301Y-90844223D01*
X149333451Y-90837442D01*
X149327956Y-90830400D01*
X149321795Y-90823929D01*
X149256054Y-90747716D01*
X149250553Y-90740668D01*
X149244388Y-90734193D01*
X149238545Y-90727419D01*
X149232067Y-90721251D01*
X149165764Y-90651611D01*
X149162922Y-90648148D01*
X149153427Y-90638653D01*
X149144189Y-90628950D01*
X149140805Y-90626031D01*
X148421979Y-89907207D01*
X148419048Y-89903809D01*
X148409306Y-89894534D01*
X148399849Y-89885077D01*
X148396399Y-89882246D01*
X148326745Y-89815930D01*
X148320578Y-89809453D01*
X148313806Y-89803611D01*
X148307327Y-89797443D01*
X148300277Y-89791941D01*
X148224077Y-89726210D01*
X148217599Y-89720043D01*
X148210548Y-89714540D01*
X148203774Y-89708697D01*
X148196463Y-89703548D01*
X148117123Y-89641630D01*
X148110355Y-89635792D01*
X148103049Y-89630646D01*
X148095993Y-89625140D01*
X148088430Y-89620351D01*
X148006152Y-89562404D01*
X147999109Y-89556908D01*
X147991559Y-89552127D01*
X147984238Y-89546971D01*
X147976450Y-89542560D01*
X147891436Y-89488725D01*
X147884123Y-89483574D01*
X147876341Y-89479166D01*
X147868787Y-89474382D01*
X147860799Y-89470361D01*
X147773234Y-89420756D01*
X147765680Y-89415973D01*
X147757693Y-89411953D01*
X147749907Y-89407542D01*
X147741728Y-89403917D01*
X147651844Y-89358673D01*
X147644063Y-89354265D01*
X147635886Y-89350640D01*
X147627895Y-89346618D01*
X147619551Y-89343399D01*
X147527550Y-89302617D01*
X147519559Y-89298595D01*
X147511217Y-89295377D01*
X147503041Y-89291753D01*
X147494544Y-89288946D01*
X147400666Y-89252734D01*
X147392481Y-89249106D01*
X147383974Y-89246296D01*
X147375640Y-89243081D01*
X147367031Y-89240698D01*
X147271472Y-89209130D01*
X147263126Y-89205911D01*
X147254502Y-89203524D01*
X147246010Y-89200719D01*
X147237284Y-89198759D01*
X147140303Y-89171920D01*
X147131802Y-89169112D01*
X147123068Y-89167151D01*
X147114458Y-89164768D01*
X147105652Y-89163240D01*
X147007451Y-89141189D01*
X146998834Y-89138804D01*
X146990024Y-89137275D01*
X146981294Y-89135315D01*
X146972415Y-89134220D01*
X146873267Y-89117017D01*
X146864540Y-89115057D01*
X146855662Y-89113962D01*
X146846850Y-89112433D01*
X146837933Y-89111775D01*
X146738052Y-89099456D01*
X146729242Y-89097927D01*
X146720324Y-89097269D01*
X146711445Y-89096174D01*
X146702504Y-89095955D01*
X146602133Y-89088551D01*
X146593266Y-89087457D01*
X146584334Y-89087238D01*
X146575404Y-89086579D01*
X146566455Y-89086799D01*
X146470336Y-89084439D01*
X146465880Y-89084000D01*
X146452459Y-89084000D01*
X146439059Y-89083671D01*
X146434599Y-89084000D01*
X140442316Y-89084000D01*
X140061325Y-88727562D01*
X140031191Y-88703659D01*
X139990366Y-88681838D01*
X139985144Y-88680254D01*
X139984366Y-88679838D01*
X139940068Y-88666400D01*
X139894000Y-88661863D01*
X137294000Y-88661863D01*
X137247932Y-88666400D01*
X137203634Y-88679838D01*
X137179000Y-88693005D01*
X137179000Y-87711990D01*
X137180378Y-87698000D01*
X137174875Y-87642130D01*
X137158579Y-87588408D01*
X137132115Y-87538897D01*
X137096500Y-87495500D01*
X137053103Y-87459885D01*
X137003592Y-87433421D01*
X136949870Y-87417125D01*
X136907990Y-87413000D01*
X136894000Y-87411622D01*
X136880010Y-87413000D01*
X132654000Y-87413000D01*
X132654000Y-86403000D01*
X136880010Y-86403000D01*
X136894000Y-86404378D01*
X136907990Y-86403000D01*
X136949870Y-86398875D01*
X137003592Y-86382579D01*
X137053103Y-86356115D01*
X137096500Y-86320500D01*
X137132115Y-86277103D01*
X137158579Y-86227592D01*
X137174432Y-86175329D01*
X142905000Y-86175329D01*
X142905000Y-86544671D01*
X142977056Y-86906917D01*
X143118397Y-87248145D01*
X143323593Y-87555243D01*
X143584757Y-87816407D01*
X143891855Y-88021603D01*
X144233083Y-88162944D01*
X144595329Y-88235000D01*
X144964671Y-88235000D01*
X145326917Y-88162944D01*
X145668145Y-88021603D01*
X145975243Y-87816407D01*
X146236407Y-87555243D01*
X146441603Y-87248145D01*
X146582944Y-86906917D01*
X146655000Y-86544671D01*
X146655000Y-86175329D01*
X146582944Y-85813083D01*
X146441603Y-85471855D01*
X146236407Y-85164757D01*
X145975243Y-84903593D01*
X145668145Y-84698397D01*
X145326917Y-84557056D01*
X144964671Y-84485000D01*
X144595329Y-84485000D01*
X144233083Y-84557056D01*
X143891855Y-84698397D01*
X143584757Y-84903593D01*
X143323593Y-85164757D01*
X143118397Y-85471855D01*
X142977056Y-85813083D01*
X142905000Y-86175329D01*
X137174432Y-86175329D01*
X137174875Y-86173870D01*
X137180378Y-86118000D01*
X137179000Y-86104010D01*
X137179000Y-85122995D01*
X137203634Y-85136162D01*
X137247932Y-85149600D01*
X137294000Y-85154137D01*
X139369692Y-85154137D01*
X139390000Y-85156137D01*
X139890000Y-85156137D01*
X139928336Y-85153004D01*
X139973056Y-85141048D01*
X139980751Y-85137259D01*
X139984366Y-85136162D01*
X140000615Y-85127477D01*
X140014584Y-85120598D01*
X140017117Y-85118656D01*
X140025191Y-85114341D01*
X140060974Y-85084974D01*
X140066499Y-85078242D01*
X140433238Y-84735137D01*
X140440000Y-84735137D01*
X140471853Y-84732000D01*
X140518602Y-84732000D01*
X140523062Y-84732329D01*
X140536459Y-84732000D01*
X140549880Y-84732000D01*
X140554338Y-84731561D01*
X140650460Y-84729200D01*
X140659404Y-84729420D01*
X140668331Y-84728762D01*
X140677269Y-84728542D01*
X140686141Y-84727448D01*
X140786504Y-84720044D01*
X140795445Y-84719825D01*
X140804324Y-84718730D01*
X140813242Y-84718072D01*
X140822052Y-84716543D01*
X140921933Y-84704224D01*
X140930850Y-84703566D01*
X140939662Y-84702037D01*
X140948540Y-84700942D01*
X140957267Y-84698982D01*
X141056424Y-84681777D01*
X141065297Y-84680683D01*
X141074017Y-84678725D01*
X141082834Y-84677195D01*
X141091461Y-84674808D01*
X141189640Y-84652761D01*
X141198455Y-84651231D01*
X141207081Y-84648844D01*
X141215804Y-84646885D01*
X141224292Y-84644081D01*
X141321280Y-84617241D01*
X141330010Y-84615280D01*
X141338505Y-84612474D01*
X141347122Y-84610089D01*
X141355465Y-84606871D01*
X141451020Y-84575304D01*
X141459642Y-84572918D01*
X141467986Y-84569699D01*
X141476481Y-84566893D01*
X141484657Y-84563268D01*
X141578541Y-84527053D01*
X141587040Y-84524246D01*
X141595223Y-84520619D01*
X141603562Y-84517402D01*
X141611545Y-84513384D01*
X141703557Y-84472597D01*
X141711895Y-84469381D01*
X141719878Y-84465363D01*
X141728062Y-84461735D01*
X141735850Y-84457323D01*
X141825728Y-84412082D01*
X141833907Y-84408457D01*
X141841693Y-84404046D01*
X141849680Y-84400026D01*
X141857234Y-84395243D01*
X141944799Y-84345638D01*
X141952787Y-84341617D01*
X141960341Y-84336833D01*
X141968123Y-84332425D01*
X141975436Y-84327274D01*
X142060461Y-84273433D01*
X142068240Y-84269026D01*
X142075550Y-84263878D01*
X142083109Y-84259091D01*
X142090162Y-84253587D01*
X142172430Y-84195647D01*
X142179991Y-84190859D01*
X142187049Y-84185351D01*
X142194357Y-84180204D01*
X142201125Y-84174366D01*
X142280469Y-84112446D01*
X142287777Y-84107299D01*
X142294544Y-84101462D01*
X142301599Y-84095956D01*
X142308081Y-84089785D01*
X142384293Y-84024044D01*
X142391325Y-84018556D01*
X142397789Y-84012402D01*
X142404580Y-84006544D01*
X142410759Y-84000054D01*
X142480397Y-83933755D01*
X142483849Y-83930922D01*
X142493307Y-83921464D01*
X142503046Y-83912192D01*
X142505977Y-83908794D01*
X143247156Y-83167616D01*
X143323228Y-83095189D01*
X143399428Y-83029457D01*
X143478750Y-82967555D01*
X143561027Y-82909609D01*
X143646039Y-82855776D01*
X143733590Y-82806179D01*
X143823466Y-82760939D01*
X143915450Y-82720166D01*
X144009345Y-82683947D01*
X144104887Y-82652384D01*
X144201863Y-82625547D01*
X144300029Y-82603503D01*
X144399185Y-82586298D01*
X144499040Y-82573981D01*
X144599400Y-82566578D01*
X144704437Y-82564000D01*
X145595563Y-82564000D01*
X145700598Y-82566578D01*
X145700598Y-82566578D01*
G37*
X145700598Y-82566578D02*
X145800960Y-82573981D01*
X145900815Y-82586298D01*
X145999953Y-82603499D01*
X146098137Y-82625548D01*
X146195121Y-82652387D01*
X146290657Y-82683948D01*
X146384539Y-82720162D01*
X146476536Y-82760942D01*
X146566416Y-82806184D01*
X146653968Y-82855781D01*
X146738974Y-82909611D01*
X146821256Y-82967561D01*
X146900574Y-83029462D01*
X146976766Y-83095186D01*
X147052892Y-83167664D01*
X149432361Y-85547135D01*
X149504810Y-85623230D01*
X149570535Y-85699422D01*
X149632451Y-85778762D01*
X149690385Y-85861022D01*
X149744217Y-85946030D01*
X149793818Y-86033589D01*
X149839059Y-86123467D01*
X149879830Y-86215445D01*
X149916054Y-86309353D01*
X149947616Y-86404892D01*
X149974450Y-86501857D01*
X149996499Y-86600049D01*
X150013700Y-86699182D01*
X150026017Y-86799040D01*
X150033420Y-86899404D01*
X150036000Y-87004455D01*
X150036001Y-92914446D01*
X150034863Y-92926000D01*
X150034863Y-94340000D01*
X149965137Y-94340000D01*
X149965137Y-92926000D01*
X149964000Y-92914455D01*
X149964000Y-92613398D01*
X149964329Y-92608938D01*
X149964000Y-92595541D01*
X149964000Y-92582120D01*
X149963561Y-92577662D01*
X149961200Y-92481539D01*
X149961420Y-92472594D01*
X149960761Y-92463667D01*
X149960542Y-92454730D01*
X149959448Y-92445860D01*
X149952044Y-92345496D01*
X149951825Y-92336553D01*
X149950730Y-92327673D01*
X149950072Y-92318757D01*
X149948544Y-92309949D01*
X149936224Y-92210069D01*
X149935566Y-92201147D01*
X149934036Y-92192331D01*
X149932942Y-92183459D01*
X149930984Y-92174738D01*
X149913779Y-92075582D01*
X149912684Y-92066704D01*
X149910724Y-92057974D01*
X149909195Y-92049164D01*
X149906810Y-92040548D01*
X149884760Y-91942350D01*
X149883231Y-91933540D01*
X149880847Y-91924926D01*
X149878887Y-91916197D01*
X149876079Y-91907696D01*
X149849242Y-91810722D01*
X149847280Y-91801987D01*
X149844471Y-91793486D01*
X149842088Y-91784873D01*
X149838872Y-91776537D01*
X149807306Y-91680985D01*
X149804918Y-91672355D01*
X149801695Y-91664000D01*
X149798893Y-91655518D01*
X149795273Y-91647352D01*
X149759048Y-91553443D01*
X149756246Y-91544960D01*
X149752624Y-91536790D01*
X149749402Y-91528436D01*
X149745378Y-91520441D01*
X149704601Y-91428450D01*
X149701381Y-91420102D01*
X149697360Y-91412114D01*
X149693736Y-91403938D01*
X149689328Y-91396156D01*
X149644082Y-91306269D01*
X149640457Y-91298091D01*
X149636047Y-91290305D01*
X149632026Y-91282318D01*
X149627243Y-91274764D01*
X149577638Y-91187200D01*
X149573617Y-91179211D01*
X149568833Y-91171657D01*
X149564425Y-91163875D01*
X149559274Y-91156562D01*
X149505441Y-91071550D01*
X149501027Y-91063758D01*
X149495869Y-91056435D01*
X149491091Y-91048889D01*
X149485595Y-91041847D01*
X149427647Y-90959568D01*
X149422859Y-90952007D01*
X149417352Y-90944950D01*
X149412204Y-90937641D01*
X149406366Y-90930873D01*
X149344458Y-90851545D01*
X149339301Y-90844223D01*
X149333451Y-90837442D01*
X149327956Y-90830400D01*
X149321795Y-90823929D01*
X149256054Y-90747716D01*
X149250553Y-90740668D01*
X149244388Y-90734193D01*
X149238545Y-90727419D01*
X149232067Y-90721251D01*
X149165764Y-90651611D01*
X149162922Y-90648148D01*
X149153427Y-90638653D01*
X149144189Y-90628950D01*
X149140805Y-90626031D01*
X148421979Y-89907207D01*
X148419048Y-89903809D01*
X148409306Y-89894534D01*
X148399849Y-89885077D01*
X148396399Y-89882246D01*
X148326745Y-89815930D01*
X148320578Y-89809453D01*
X148313806Y-89803611D01*
X148307327Y-89797443D01*
X148300277Y-89791941D01*
X148224077Y-89726210D01*
X148217599Y-89720043D01*
X148210548Y-89714540D01*
X148203774Y-89708697D01*
X148196463Y-89703548D01*
X148117123Y-89641630D01*
X148110355Y-89635792D01*
X148103049Y-89630646D01*
X148095993Y-89625140D01*
X148088430Y-89620351D01*
X148006152Y-89562404D01*
X147999109Y-89556908D01*
X147991559Y-89552127D01*
X147984238Y-89546971D01*
X147976450Y-89542560D01*
X147891436Y-89488725D01*
X147884123Y-89483574D01*
X147876341Y-89479166D01*
X147868787Y-89474382D01*
X147860799Y-89470361D01*
X147773234Y-89420756D01*
X147765680Y-89415973D01*
X147757693Y-89411953D01*
X147749907Y-89407542D01*
X147741728Y-89403917D01*
X147651844Y-89358673D01*
X147644063Y-89354265D01*
X147635886Y-89350640D01*
X147627895Y-89346618D01*
X147619551Y-89343399D01*
X147527550Y-89302617D01*
X147519559Y-89298595D01*
X147511217Y-89295377D01*
X147503041Y-89291753D01*
X147494544Y-89288946D01*
X147400666Y-89252734D01*
X147392481Y-89249106D01*
X147383974Y-89246296D01*
X147375640Y-89243081D01*
X147367031Y-89240698D01*
X147271472Y-89209130D01*
X147263126Y-89205911D01*
X147254502Y-89203524D01*
X147246010Y-89200719D01*
X147237284Y-89198759D01*
X147140303Y-89171920D01*
X147131802Y-89169112D01*
X147123068Y-89167151D01*
X147114458Y-89164768D01*
X147105652Y-89163240D01*
X147007451Y-89141189D01*
X146998834Y-89138804D01*
X146990024Y-89137275D01*
X146981294Y-89135315D01*
X146972415Y-89134220D01*
X146873267Y-89117017D01*
X146864540Y-89115057D01*
X146855662Y-89113962D01*
X146846850Y-89112433D01*
X146837933Y-89111775D01*
X146738052Y-89099456D01*
X146729242Y-89097927D01*
X146720324Y-89097269D01*
X146711445Y-89096174D01*
X146702504Y-89095955D01*
X146602133Y-89088551D01*
X146593266Y-89087457D01*
X146584334Y-89087238D01*
X146575404Y-89086579D01*
X146566455Y-89086799D01*
X146470336Y-89084439D01*
X146465880Y-89084000D01*
X146452459Y-89084000D01*
X146439059Y-89083671D01*
X146434599Y-89084000D01*
X140442316Y-89084000D01*
X140061325Y-88727562D01*
X140031191Y-88703659D01*
X139990366Y-88681838D01*
X139985144Y-88680254D01*
X139984366Y-88679838D01*
X139940068Y-88666400D01*
X139894000Y-88661863D01*
X137294000Y-88661863D01*
X137247932Y-88666400D01*
X137203634Y-88679838D01*
X137179000Y-88693005D01*
X137179000Y-87711990D01*
X137180378Y-87698000D01*
X137174875Y-87642130D01*
X137158579Y-87588408D01*
X137132115Y-87538897D01*
X137096500Y-87495500D01*
X137053103Y-87459885D01*
X137003592Y-87433421D01*
X136949870Y-87417125D01*
X136907990Y-87413000D01*
X136894000Y-87411622D01*
X136880010Y-87413000D01*
X132654000Y-87413000D01*
X132654000Y-86403000D01*
X136880010Y-86403000D01*
X136894000Y-86404378D01*
X136907990Y-86403000D01*
X136949870Y-86398875D01*
X137003592Y-86382579D01*
X137053103Y-86356115D01*
X137096500Y-86320500D01*
X137132115Y-86277103D01*
X137158579Y-86227592D01*
X137174432Y-86175329D01*
X142905000Y-86175329D01*
X142905000Y-86544671D01*
X142977056Y-86906917D01*
X143118397Y-87248145D01*
X143323593Y-87555243D01*
X143584757Y-87816407D01*
X143891855Y-88021603D01*
X144233083Y-88162944D01*
X144595329Y-88235000D01*
X144964671Y-88235000D01*
X145326917Y-88162944D01*
X145668145Y-88021603D01*
X145975243Y-87816407D01*
X146236407Y-87555243D01*
X146441603Y-87248145D01*
X146582944Y-86906917D01*
X146655000Y-86544671D01*
X146655000Y-86175329D01*
X146582944Y-85813083D01*
X146441603Y-85471855D01*
X146236407Y-85164757D01*
X145975243Y-84903593D01*
X145668145Y-84698397D01*
X145326917Y-84557056D01*
X144964671Y-84485000D01*
X144595329Y-84485000D01*
X144233083Y-84557056D01*
X143891855Y-84698397D01*
X143584757Y-84903593D01*
X143323593Y-85164757D01*
X143118397Y-85471855D01*
X142977056Y-85813083D01*
X142905000Y-86175329D01*
X137174432Y-86175329D01*
X137174875Y-86173870D01*
X137180378Y-86118000D01*
X137179000Y-86104010D01*
X137179000Y-85122995D01*
X137203634Y-85136162D01*
X137247932Y-85149600D01*
X137294000Y-85154137D01*
X139369692Y-85154137D01*
X139390000Y-85156137D01*
X139890000Y-85156137D01*
X139928336Y-85153004D01*
X139973056Y-85141048D01*
X139980751Y-85137259D01*
X139984366Y-85136162D01*
X140000615Y-85127477D01*
X140014584Y-85120598D01*
X140017117Y-85118656D01*
X140025191Y-85114341D01*
X140060974Y-85084974D01*
X140066499Y-85078242D01*
X140433238Y-84735137D01*
X140440000Y-84735137D01*
X140471853Y-84732000D01*
X140518602Y-84732000D01*
X140523062Y-84732329D01*
X140536459Y-84732000D01*
X140549880Y-84732000D01*
X140554338Y-84731561D01*
X140650460Y-84729200D01*
X140659404Y-84729420D01*
X140668331Y-84728762D01*
X140677269Y-84728542D01*
X140686141Y-84727448D01*
X140786504Y-84720044D01*
X140795445Y-84719825D01*
X140804324Y-84718730D01*
X140813242Y-84718072D01*
X140822052Y-84716543D01*
X140921933Y-84704224D01*
X140930850Y-84703566D01*
X140939662Y-84702037D01*
X140948540Y-84700942D01*
X140957267Y-84698982D01*
X141056424Y-84681777D01*
X141065297Y-84680683D01*
X141074017Y-84678725D01*
X141082834Y-84677195D01*
X141091461Y-84674808D01*
X141189640Y-84652761D01*
X141198455Y-84651231D01*
X141207081Y-84648844D01*
X141215804Y-84646885D01*
X141224292Y-84644081D01*
X141321280Y-84617241D01*
X141330010Y-84615280D01*
X141338505Y-84612474D01*
X141347122Y-84610089D01*
X141355465Y-84606871D01*
X141451020Y-84575304D01*
X141459642Y-84572918D01*
X141467986Y-84569699D01*
X141476481Y-84566893D01*
X141484657Y-84563268D01*
X141578541Y-84527053D01*
X141587040Y-84524246D01*
X141595223Y-84520619D01*
X141603562Y-84517402D01*
X141611545Y-84513384D01*
X141703557Y-84472597D01*
X141711895Y-84469381D01*
X141719878Y-84465363D01*
X141728062Y-84461735D01*
X141735850Y-84457323D01*
X141825728Y-84412082D01*
X141833907Y-84408457D01*
X141841693Y-84404046D01*
X141849680Y-84400026D01*
X141857234Y-84395243D01*
X141944799Y-84345638D01*
X141952787Y-84341617D01*
X141960341Y-84336833D01*
X141968123Y-84332425D01*
X141975436Y-84327274D01*
X142060461Y-84273433D01*
X142068240Y-84269026D01*
X142075550Y-84263878D01*
X142083109Y-84259091D01*
X142090162Y-84253587D01*
X142172430Y-84195647D01*
X142179991Y-84190859D01*
X142187049Y-84185351D01*
X142194357Y-84180204D01*
X142201125Y-84174366D01*
X142280469Y-84112446D01*
X142287777Y-84107299D01*
X142294544Y-84101462D01*
X142301599Y-84095956D01*
X142308081Y-84089785D01*
X142384293Y-84024044D01*
X142391325Y-84018556D01*
X142397789Y-84012402D01*
X142404580Y-84006544D01*
X142410759Y-84000054D01*
X142480397Y-83933755D01*
X142483849Y-83930922D01*
X142493307Y-83921464D01*
X142503046Y-83912192D01*
X142505977Y-83908794D01*
X143247156Y-83167616D01*
X143323228Y-83095189D01*
X143399428Y-83029457D01*
X143478750Y-82967555D01*
X143561027Y-82909609D01*
X143646039Y-82855776D01*
X143733590Y-82806179D01*
X143823466Y-82760939D01*
X143915450Y-82720166D01*
X144009345Y-82683947D01*
X144104887Y-82652384D01*
X144201863Y-82625547D01*
X144300029Y-82603503D01*
X144399185Y-82586298D01*
X144499040Y-82573981D01*
X144599400Y-82566578D01*
X144704437Y-82564000D01*
X145595563Y-82564000D01*
X145700598Y-82566578D01*
G36*
X172146000Y-72173000D02*
G01*
X167919990Y-72173000D01*
X167906000Y-72171622D01*
X167892010Y-72173000D01*
X167850130Y-72177125D01*
X167796408Y-72193421D01*
X167746897Y-72219885D01*
X167703500Y-72255500D01*
X167667885Y-72298897D01*
X167641421Y-72348408D01*
X167625125Y-72402130D01*
X167619622Y-72458000D01*
X167621000Y-72471990D01*
X167621000Y-73453005D01*
X167596366Y-73439838D01*
X167552068Y-73426400D01*
X167506000Y-73421863D01*
X164906000Y-73421863D01*
X164859932Y-73426400D01*
X164815634Y-73439838D01*
X164774809Y-73461659D01*
X164739026Y-73491026D01*
X164719363Y-73514985D01*
X164367684Y-73844000D01*
X158605404Y-73844000D01*
X158600945Y-73843671D01*
X158587541Y-73844000D01*
X158574120Y-73844000D01*
X158569665Y-73844439D01*
X158473549Y-73846798D01*
X158464594Y-73846578D01*
X158455661Y-73847237D01*
X158446736Y-73847456D01*
X158437871Y-73848549D01*
X158337496Y-73855954D01*
X158328553Y-73856173D01*
X158319673Y-73857268D01*
X158310757Y-73857926D01*
X158301949Y-73859454D01*
X158202069Y-73871774D01*
X158193147Y-73872432D01*
X158184331Y-73873962D01*
X158175459Y-73875056D01*
X158166738Y-73877014D01*
X158067573Y-73894221D01*
X158058701Y-73895315D01*
X158049982Y-73897273D01*
X158041164Y-73898803D01*
X158032538Y-73901190D01*
X157934362Y-73923237D01*
X157925542Y-73924767D01*
X157916912Y-73927155D01*
X157908194Y-73929113D01*
X157899712Y-73931915D01*
X157802717Y-73958757D01*
X157793987Y-73960718D01*
X157785493Y-73963524D01*
X157776875Y-73965909D01*
X157768530Y-73969128D01*
X157672985Y-74000692D01*
X157664355Y-74003080D01*
X157656000Y-74006303D01*
X157647518Y-74009105D01*
X157639352Y-74012725D01*
X157545443Y-74048950D01*
X157536960Y-74051752D01*
X157528790Y-74055374D01*
X157520436Y-74058596D01*
X157512441Y-74062620D01*
X157420450Y-74103397D01*
X157412102Y-74106617D01*
X157404114Y-74110638D01*
X157395938Y-74114262D01*
X157388156Y-74118670D01*
X157298262Y-74163920D01*
X157290090Y-74167542D01*
X157282312Y-74171948D01*
X157274318Y-74175972D01*
X157266758Y-74180759D01*
X157179199Y-74230361D01*
X157171214Y-74234380D01*
X157163662Y-74239162D01*
X157155874Y-74243574D01*
X157148558Y-74248727D01*
X157063547Y-74302559D01*
X157055758Y-74306971D01*
X157048439Y-74312126D01*
X157040890Y-74316906D01*
X157033844Y-74322405D01*
X156951568Y-74380351D01*
X156944007Y-74385139D01*
X156936950Y-74390646D01*
X156929641Y-74395794D01*
X156922873Y-74401632D01*
X156843537Y-74463546D01*
X156836221Y-74468699D01*
X156829445Y-74474544D01*
X156822400Y-74480042D01*
X156815924Y-74486207D01*
X156739728Y-74551935D01*
X156732669Y-74557444D01*
X156726182Y-74563620D01*
X156719419Y-74569454D01*
X156713260Y-74575923D01*
X156643604Y-74642242D01*
X156640149Y-74645077D01*
X156630676Y-74654550D01*
X156620950Y-74663810D01*
X156618025Y-74667201D01*
X153259203Y-78026024D01*
X153255811Y-78028950D01*
X153246550Y-78038677D01*
X153237077Y-78048150D01*
X153234243Y-78051603D01*
X153167934Y-78121249D01*
X153161454Y-78127418D01*
X153155611Y-78134192D01*
X153149444Y-78140669D01*
X153143942Y-78147719D01*
X153078213Y-78223917D01*
X153072042Y-78230399D01*
X153066536Y-78237454D01*
X153060699Y-78244221D01*
X153055552Y-78251529D01*
X152993632Y-78330873D01*
X152987794Y-78337641D01*
X152982647Y-78344949D01*
X152977139Y-78352007D01*
X152972351Y-78359568D01*
X152914415Y-78441831D01*
X152908906Y-78448890D01*
X152904117Y-78456452D01*
X152898972Y-78463758D01*
X152894566Y-78471535D01*
X152840727Y-78556558D01*
X152835574Y-78563874D01*
X152831162Y-78571662D01*
X152826380Y-78579214D01*
X152822361Y-78587199D01*
X152772759Y-78674758D01*
X152767972Y-78682318D01*
X152763948Y-78690312D01*
X152759542Y-78698090D01*
X152755919Y-78706264D01*
X152710672Y-78796154D01*
X152706263Y-78803937D01*
X152702639Y-78812113D01*
X152698617Y-78820103D01*
X152695397Y-78828450D01*
X152654621Y-78920440D01*
X152650596Y-78928436D01*
X152647373Y-78936790D01*
X152643752Y-78944960D01*
X152640950Y-78953443D01*
X152604727Y-79047346D01*
X152601105Y-79055517D01*
X152598301Y-79064005D01*
X152595080Y-79072355D01*
X152592693Y-79080980D01*
X152561127Y-79176533D01*
X152557909Y-79184876D01*
X152555524Y-79193493D01*
X152552718Y-79201988D01*
X152550757Y-79210718D01*
X152523918Y-79307704D01*
X152521113Y-79316194D01*
X152519154Y-79324917D01*
X152516767Y-79333543D01*
X152515237Y-79342359D01*
X152493190Y-79440539D01*
X152490803Y-79449165D01*
X152489273Y-79457982D01*
X152487315Y-79466702D01*
X152486221Y-79475575D01*
X152469016Y-79574732D01*
X152467056Y-79583459D01*
X152465961Y-79592337D01*
X152464432Y-79601149D01*
X152463774Y-79610066D01*
X152451455Y-79709947D01*
X152449926Y-79718757D01*
X152449268Y-79727675D01*
X152448173Y-79736554D01*
X152447954Y-79745495D01*
X152440549Y-79845870D01*
X152439456Y-79854736D01*
X152439237Y-79863663D01*
X152438578Y-79872595D01*
X152438798Y-79881549D01*
X152436439Y-79977667D01*
X152436000Y-79982121D01*
X152436000Y-79995540D01*
X152435671Y-80008944D01*
X152436000Y-80013403D01*
X152436001Y-92914446D01*
X152434863Y-92926000D01*
X152434863Y-94340000D01*
X152365137Y-94340000D01*
X152365137Y-92926000D01*
X152364000Y-92914455D01*
X152364000Y-80013398D01*
X152364329Y-80008938D01*
X152364000Y-79995541D01*
X152364000Y-79982120D01*
X152363561Y-79977662D01*
X152361200Y-79881539D01*
X152361420Y-79872594D01*
X152360761Y-79863667D01*
X152360542Y-79854730D01*
X152359448Y-79845860D01*
X152352044Y-79745496D01*
X152351825Y-79736553D01*
X152350730Y-79727673D01*
X152350072Y-79718757D01*
X152348544Y-79709949D01*
X152336224Y-79610069D01*
X152335566Y-79601147D01*
X152334036Y-79592331D01*
X152332942Y-79583459D01*
X152330984Y-79574738D01*
X152313777Y-79475573D01*
X152312683Y-79466701D01*
X152310725Y-79457982D01*
X152309195Y-79449164D01*
X152306808Y-79440538D01*
X152284761Y-79342362D01*
X152283231Y-79333542D01*
X152280843Y-79324912D01*
X152278885Y-79316194D01*
X152276083Y-79307712D01*
X152249241Y-79210717D01*
X152247280Y-79201987D01*
X152244474Y-79193493D01*
X152242089Y-79184875D01*
X152238870Y-79176530D01*
X152207306Y-79080985D01*
X152204918Y-79072355D01*
X152201695Y-79064000D01*
X152198893Y-79055518D01*
X152195273Y-79047352D01*
X152159048Y-78953443D01*
X152156246Y-78944960D01*
X152152624Y-78936790D01*
X152149402Y-78928436D01*
X152145378Y-78920441D01*
X152104601Y-78828450D01*
X152101381Y-78820102D01*
X152097360Y-78812114D01*
X152093736Y-78803938D01*
X152089328Y-78796156D01*
X152044078Y-78706262D01*
X152040456Y-78698090D01*
X152036050Y-78690312D01*
X152032026Y-78682318D01*
X152027239Y-78674758D01*
X151977637Y-78587199D01*
X151973618Y-78579214D01*
X151968836Y-78571662D01*
X151964424Y-78563874D01*
X151959271Y-78556558D01*
X151905439Y-78471547D01*
X151901027Y-78463758D01*
X151895872Y-78456439D01*
X151891092Y-78448890D01*
X151885593Y-78441844D01*
X151827647Y-78359568D01*
X151822859Y-78352007D01*
X151817352Y-78344950D01*
X151812204Y-78337641D01*
X151806366Y-78330873D01*
X151744452Y-78251537D01*
X151739299Y-78244221D01*
X151733454Y-78237445D01*
X151727956Y-78230400D01*
X151721791Y-78223924D01*
X151656057Y-78147721D01*
X151650555Y-78140671D01*
X151644386Y-78134192D01*
X151638544Y-78127419D01*
X151632067Y-78121252D01*
X151565771Y-78051619D01*
X151562923Y-78048149D01*
X151553408Y-78038634D01*
X151544190Y-78028952D01*
X151540813Y-78026039D01*
X148173980Y-74659208D01*
X148171048Y-74655809D01*
X148161305Y-74646533D01*
X148151849Y-74637077D01*
X148148399Y-74634246D01*
X148078745Y-74567930D01*
X148072578Y-74561453D01*
X148065806Y-74555611D01*
X148059327Y-74549443D01*
X148052277Y-74543941D01*
X147976077Y-74478210D01*
X147969599Y-74472043D01*
X147962548Y-74466540D01*
X147955774Y-74460697D01*
X147948463Y-74455548D01*
X147869123Y-74393630D01*
X147862355Y-74387792D01*
X147855049Y-74382646D01*
X147847993Y-74377140D01*
X147840430Y-74372351D01*
X147758152Y-74314404D01*
X147751109Y-74308908D01*
X147743559Y-74304127D01*
X147736238Y-74298971D01*
X147728450Y-74294560D01*
X147643436Y-74240725D01*
X147636123Y-74235574D01*
X147628341Y-74231166D01*
X147620787Y-74226382D01*
X147612799Y-74222361D01*
X147525234Y-74172756D01*
X147517680Y-74167973D01*
X147509693Y-74163953D01*
X147501907Y-74159542D01*
X147493728Y-74155917D01*
X147403844Y-74110673D01*
X147396063Y-74106265D01*
X147387886Y-74102640D01*
X147379895Y-74098618D01*
X147371551Y-74095399D01*
X147279550Y-74054617D01*
X147271559Y-74050595D01*
X147263217Y-74047377D01*
X147255041Y-74043753D01*
X147246544Y-74040946D01*
X147152666Y-74004734D01*
X147144481Y-74001106D01*
X147135974Y-73998296D01*
X147127640Y-73995081D01*
X147119031Y-73992698D01*
X147023472Y-73961130D01*
X147015126Y-73957911D01*
X147006502Y-73955524D01*
X146998010Y-73952719D01*
X146989284Y-73950759D01*
X146892303Y-73923920D01*
X146883802Y-73921112D01*
X146875068Y-73919151D01*
X146866458Y-73916768D01*
X146857652Y-73915240D01*
X146759451Y-73893189D01*
X146750834Y-73890804D01*
X146742024Y-73889275D01*
X146733294Y-73887315D01*
X146724415Y-73886220D01*
X146625267Y-73869017D01*
X146616540Y-73867057D01*
X146607662Y-73865962D01*
X146598850Y-73864433D01*
X146589933Y-73863775D01*
X146490052Y-73851456D01*
X146481242Y-73849927D01*
X146472324Y-73849269D01*
X146463445Y-73848174D01*
X146454504Y-73847955D01*
X146354133Y-73840551D01*
X146345266Y-73839457D01*
X146336334Y-73839238D01*
X146327404Y-73838579D01*
X146318455Y-73838799D01*
X146222336Y-73836439D01*
X146217880Y-73836000D01*
X146204459Y-73836000D01*
X146191059Y-73835671D01*
X146186599Y-73836000D01*
X140451545Y-73836000D01*
X140440000Y-73834863D01*
X140433238Y-73834863D01*
X140073568Y-73498372D01*
X140060974Y-73483026D01*
X140025191Y-73453659D01*
X139984366Y-73431838D01*
X139940068Y-73418400D01*
X139894000Y-73413863D01*
X137294000Y-73413863D01*
X137247932Y-73418400D01*
X137203634Y-73431838D01*
X137179000Y-73445005D01*
X137179000Y-72463990D01*
X137180378Y-72450000D01*
X137174875Y-72394130D01*
X137158579Y-72340408D01*
X137132115Y-72290897D01*
X137096500Y-72247500D01*
X137053103Y-72211885D01*
X137003592Y-72185421D01*
X136949870Y-72169125D01*
X136907990Y-72165000D01*
X136894000Y-72163622D01*
X136880010Y-72165000D01*
X132654000Y-72165000D01*
X132654000Y-70760000D01*
X172146001Y-70760000D01*
X172146000Y-72173000D01*
X172146000Y-72173000D01*
G37*
X172146000Y-72173000D02*
X167919990Y-72173000D01*
X167906000Y-72171622D01*
X167892010Y-72173000D01*
X167850130Y-72177125D01*
X167796408Y-72193421D01*
X167746897Y-72219885D01*
X167703500Y-72255500D01*
X167667885Y-72298897D01*
X167641421Y-72348408D01*
X167625125Y-72402130D01*
X167619622Y-72458000D01*
X167621000Y-72471990D01*
X167621000Y-73453005D01*
X167596366Y-73439838D01*
X167552068Y-73426400D01*
X167506000Y-73421863D01*
X164906000Y-73421863D01*
X164859932Y-73426400D01*
X164815634Y-73439838D01*
X164774809Y-73461659D01*
X164739026Y-73491026D01*
X164719363Y-73514985D01*
X164367684Y-73844000D01*
X158605404Y-73844000D01*
X158600945Y-73843671D01*
X158587541Y-73844000D01*
X158574120Y-73844000D01*
X158569665Y-73844439D01*
X158473549Y-73846798D01*
X158464594Y-73846578D01*
X158455661Y-73847237D01*
X158446736Y-73847456D01*
X158437871Y-73848549D01*
X158337496Y-73855954D01*
X158328553Y-73856173D01*
X158319673Y-73857268D01*
X158310757Y-73857926D01*
X158301949Y-73859454D01*
X158202069Y-73871774D01*
X158193147Y-73872432D01*
X158184331Y-73873962D01*
X158175459Y-73875056D01*
X158166738Y-73877014D01*
X158067573Y-73894221D01*
X158058701Y-73895315D01*
X158049982Y-73897273D01*
X158041164Y-73898803D01*
X158032538Y-73901190D01*
X157934362Y-73923237D01*
X157925542Y-73924767D01*
X157916912Y-73927155D01*
X157908194Y-73929113D01*
X157899712Y-73931915D01*
X157802717Y-73958757D01*
X157793987Y-73960718D01*
X157785493Y-73963524D01*
X157776875Y-73965909D01*
X157768530Y-73969128D01*
X157672985Y-74000692D01*
X157664355Y-74003080D01*
X157656000Y-74006303D01*
X157647518Y-74009105D01*
X157639352Y-74012725D01*
X157545443Y-74048950D01*
X157536960Y-74051752D01*
X157528790Y-74055374D01*
X157520436Y-74058596D01*
X157512441Y-74062620D01*
X157420450Y-74103397D01*
X157412102Y-74106617D01*
X157404114Y-74110638D01*
X157395938Y-74114262D01*
X157388156Y-74118670D01*
X157298262Y-74163920D01*
X157290090Y-74167542D01*
X157282312Y-74171948D01*
X157274318Y-74175972D01*
X157266758Y-74180759D01*
X157179199Y-74230361D01*
X157171214Y-74234380D01*
X157163662Y-74239162D01*
X157155874Y-74243574D01*
X157148558Y-74248727D01*
X157063547Y-74302559D01*
X157055758Y-74306971D01*
X157048439Y-74312126D01*
X157040890Y-74316906D01*
X157033844Y-74322405D01*
X156951568Y-74380351D01*
X156944007Y-74385139D01*
X156936950Y-74390646D01*
X156929641Y-74395794D01*
X156922873Y-74401632D01*
X156843537Y-74463546D01*
X156836221Y-74468699D01*
X156829445Y-74474544D01*
X156822400Y-74480042D01*
X156815924Y-74486207D01*
X156739728Y-74551935D01*
X156732669Y-74557444D01*
X156726182Y-74563620D01*
X156719419Y-74569454D01*
X156713260Y-74575923D01*
X156643604Y-74642242D01*
X156640149Y-74645077D01*
X156630676Y-74654550D01*
X156620950Y-74663810D01*
X156618025Y-74667201D01*
X153259203Y-78026024D01*
X153255811Y-78028950D01*
X153246550Y-78038677D01*
X153237077Y-78048150D01*
X153234243Y-78051603D01*
X153167934Y-78121249D01*
X153161454Y-78127418D01*
X153155611Y-78134192D01*
X153149444Y-78140669D01*
X153143942Y-78147719D01*
X153078213Y-78223917D01*
X153072042Y-78230399D01*
X153066536Y-78237454D01*
X153060699Y-78244221D01*
X153055552Y-78251529D01*
X152993632Y-78330873D01*
X152987794Y-78337641D01*
X152982647Y-78344949D01*
X152977139Y-78352007D01*
X152972351Y-78359568D01*
X152914415Y-78441831D01*
X152908906Y-78448890D01*
X152904117Y-78456452D01*
X152898972Y-78463758D01*
X152894566Y-78471535D01*
X152840727Y-78556558D01*
X152835574Y-78563874D01*
X152831162Y-78571662D01*
X152826380Y-78579214D01*
X152822361Y-78587199D01*
X152772759Y-78674758D01*
X152767972Y-78682318D01*
X152763948Y-78690312D01*
X152759542Y-78698090D01*
X152755919Y-78706264D01*
X152710672Y-78796154D01*
X152706263Y-78803937D01*
X152702639Y-78812113D01*
X152698617Y-78820103D01*
X152695397Y-78828450D01*
X152654621Y-78920440D01*
X152650596Y-78928436D01*
X152647373Y-78936790D01*
X152643752Y-78944960D01*
X152640950Y-78953443D01*
X152604727Y-79047346D01*
X152601105Y-79055517D01*
X152598301Y-79064005D01*
X152595080Y-79072355D01*
X152592693Y-79080980D01*
X152561127Y-79176533D01*
X152557909Y-79184876D01*
X152555524Y-79193493D01*
X152552718Y-79201988D01*
X152550757Y-79210718D01*
X152523918Y-79307704D01*
X152521113Y-79316194D01*
X152519154Y-79324917D01*
X152516767Y-79333543D01*
X152515237Y-79342359D01*
X152493190Y-79440539D01*
X152490803Y-79449165D01*
X152489273Y-79457982D01*
X152487315Y-79466702D01*
X152486221Y-79475575D01*
X152469016Y-79574732D01*
X152467056Y-79583459D01*
X152465961Y-79592337D01*
X152464432Y-79601149D01*
X152463774Y-79610066D01*
X152451455Y-79709947D01*
X152449926Y-79718757D01*
X152449268Y-79727675D01*
X152448173Y-79736554D01*
X152447954Y-79745495D01*
X152440549Y-79845870D01*
X152439456Y-79854736D01*
X152439237Y-79863663D01*
X152438578Y-79872595D01*
X152438798Y-79881549D01*
X152436439Y-79977667D01*
X152436000Y-79982121D01*
X152436000Y-79995540D01*
X152435671Y-80008944D01*
X152436000Y-80013403D01*
X152436001Y-92914446D01*
X152434863Y-92926000D01*
X152434863Y-94340000D01*
X152365137Y-94340000D01*
X152365137Y-92926000D01*
X152364000Y-92914455D01*
X152364000Y-80013398D01*
X152364329Y-80008938D01*
X152364000Y-79995541D01*
X152364000Y-79982120D01*
X152363561Y-79977662D01*
X152361200Y-79881539D01*
X152361420Y-79872594D01*
X152360761Y-79863667D01*
X152360542Y-79854730D01*
X152359448Y-79845860D01*
X152352044Y-79745496D01*
X152351825Y-79736553D01*
X152350730Y-79727673D01*
X152350072Y-79718757D01*
X152348544Y-79709949D01*
X152336224Y-79610069D01*
X152335566Y-79601147D01*
X152334036Y-79592331D01*
X152332942Y-79583459D01*
X152330984Y-79574738D01*
X152313777Y-79475573D01*
X152312683Y-79466701D01*
X152310725Y-79457982D01*
X152309195Y-79449164D01*
X152306808Y-79440538D01*
X152284761Y-79342362D01*
X152283231Y-79333542D01*
X152280843Y-79324912D01*
X152278885Y-79316194D01*
X152276083Y-79307712D01*
X152249241Y-79210717D01*
X152247280Y-79201987D01*
X152244474Y-79193493D01*
X152242089Y-79184875D01*
X152238870Y-79176530D01*
X152207306Y-79080985D01*
X152204918Y-79072355D01*
X152201695Y-79064000D01*
X152198893Y-79055518D01*
X152195273Y-79047352D01*
X152159048Y-78953443D01*
X152156246Y-78944960D01*
X152152624Y-78936790D01*
X152149402Y-78928436D01*
X152145378Y-78920441D01*
X152104601Y-78828450D01*
X152101381Y-78820102D01*
X152097360Y-78812114D01*
X152093736Y-78803938D01*
X152089328Y-78796156D01*
X152044078Y-78706262D01*
X152040456Y-78698090D01*
X152036050Y-78690312D01*
X152032026Y-78682318D01*
X152027239Y-78674758D01*
X151977637Y-78587199D01*
X151973618Y-78579214D01*
X151968836Y-78571662D01*
X151964424Y-78563874D01*
X151959271Y-78556558D01*
X151905439Y-78471547D01*
X151901027Y-78463758D01*
X151895872Y-78456439D01*
X151891092Y-78448890D01*
X151885593Y-78441844D01*
X151827647Y-78359568D01*
X151822859Y-78352007D01*
X151817352Y-78344950D01*
X151812204Y-78337641D01*
X151806366Y-78330873D01*
X151744452Y-78251537D01*
X151739299Y-78244221D01*
X151733454Y-78237445D01*
X151727956Y-78230400D01*
X151721791Y-78223924D01*
X151656057Y-78147721D01*
X151650555Y-78140671D01*
X151644386Y-78134192D01*
X151638544Y-78127419D01*
X151632067Y-78121252D01*
X151565771Y-78051619D01*
X151562923Y-78048149D01*
X151553408Y-78038634D01*
X151544190Y-78028952D01*
X151540813Y-78026039D01*
X148173980Y-74659208D01*
X148171048Y-74655809D01*
X148161305Y-74646533D01*
X148151849Y-74637077D01*
X148148399Y-74634246D01*
X148078745Y-74567930D01*
X148072578Y-74561453D01*
X148065806Y-74555611D01*
X148059327Y-74549443D01*
X148052277Y-74543941D01*
X147976077Y-74478210D01*
X147969599Y-74472043D01*
X147962548Y-74466540D01*
X147955774Y-74460697D01*
X147948463Y-74455548D01*
X147869123Y-74393630D01*
X147862355Y-74387792D01*
X147855049Y-74382646D01*
X147847993Y-74377140D01*
X147840430Y-74372351D01*
X147758152Y-74314404D01*
X147751109Y-74308908D01*
X147743559Y-74304127D01*
X147736238Y-74298971D01*
X147728450Y-74294560D01*
X147643436Y-74240725D01*
X147636123Y-74235574D01*
X147628341Y-74231166D01*
X147620787Y-74226382D01*
X147612799Y-74222361D01*
X147525234Y-74172756D01*
X147517680Y-74167973D01*
X147509693Y-74163953D01*
X147501907Y-74159542D01*
X147493728Y-74155917D01*
X147403844Y-74110673D01*
X147396063Y-74106265D01*
X147387886Y-74102640D01*
X147379895Y-74098618D01*
X147371551Y-74095399D01*
X147279550Y-74054617D01*
X147271559Y-74050595D01*
X147263217Y-74047377D01*
X147255041Y-74043753D01*
X147246544Y-74040946D01*
X147152666Y-74004734D01*
X147144481Y-74001106D01*
X147135974Y-73998296D01*
X147127640Y-73995081D01*
X147119031Y-73992698D01*
X147023472Y-73961130D01*
X147015126Y-73957911D01*
X147006502Y-73955524D01*
X146998010Y-73952719D01*
X146989284Y-73950759D01*
X146892303Y-73923920D01*
X146883802Y-73921112D01*
X146875068Y-73919151D01*
X146866458Y-73916768D01*
X146857652Y-73915240D01*
X146759451Y-73893189D01*
X146750834Y-73890804D01*
X146742024Y-73889275D01*
X146733294Y-73887315D01*
X146724415Y-73886220D01*
X146625267Y-73869017D01*
X146616540Y-73867057D01*
X146607662Y-73865962D01*
X146598850Y-73864433D01*
X146589933Y-73863775D01*
X146490052Y-73851456D01*
X146481242Y-73849927D01*
X146472324Y-73849269D01*
X146463445Y-73848174D01*
X146454504Y-73847955D01*
X146354133Y-73840551D01*
X146345266Y-73839457D01*
X146336334Y-73839238D01*
X146327404Y-73838579D01*
X146318455Y-73838799D01*
X146222336Y-73836439D01*
X146217880Y-73836000D01*
X146204459Y-73836000D01*
X146191059Y-73835671D01*
X146186599Y-73836000D01*
X140451545Y-73836000D01*
X140440000Y-73834863D01*
X140433238Y-73834863D01*
X140073568Y-73498372D01*
X140060974Y-73483026D01*
X140025191Y-73453659D01*
X139984366Y-73431838D01*
X139940068Y-73418400D01*
X139894000Y-73413863D01*
X137294000Y-73413863D01*
X137247932Y-73418400D01*
X137203634Y-73431838D01*
X137179000Y-73445005D01*
X137179000Y-72463990D01*
X137180378Y-72450000D01*
X137174875Y-72394130D01*
X137158579Y-72340408D01*
X137132115Y-72290897D01*
X137096500Y-72247500D01*
X137053103Y-72211885D01*
X137003592Y-72185421D01*
X136949870Y-72169125D01*
X136907990Y-72165000D01*
X136894000Y-72163622D01*
X136880010Y-72165000D01*
X132654000Y-72165000D01*
X132654000Y-70760000D01*
X172146001Y-70760000D01*
X172146000Y-72173000D01*
G36*
X160200598Y-82566578D02*
G01*
X160300960Y-82573981D01*
X160400815Y-82586298D01*
X160499953Y-82603499D01*
X160598137Y-82625548D01*
X160695121Y-82652387D01*
X160790657Y-82683948D01*
X160884539Y-82720162D01*
X160976536Y-82760942D01*
X161066416Y-82806184D01*
X161153968Y-82855781D01*
X161238974Y-82909611D01*
X161321256Y-82967561D01*
X161400574Y-83029462D01*
X161476766Y-83095186D01*
X161552892Y-83167664D01*
X162294031Y-83908805D01*
X162296950Y-83912189D01*
X162306653Y-83921427D01*
X162316149Y-83930923D01*
X162319612Y-83933765D01*
X162389251Y-84000067D01*
X162395419Y-84006545D01*
X162402193Y-84012388D01*
X162408668Y-84018553D01*
X162415716Y-84024054D01*
X162491929Y-84089795D01*
X162498400Y-84095956D01*
X162505442Y-84101451D01*
X162512223Y-84107301D01*
X162519545Y-84112458D01*
X162598873Y-84174366D01*
X162605641Y-84180204D01*
X162612950Y-84185352D01*
X162620007Y-84190859D01*
X162627568Y-84195647D01*
X162709847Y-84253595D01*
X162716889Y-84259091D01*
X162724435Y-84263869D01*
X162731758Y-84269027D01*
X162739550Y-84273441D01*
X162824562Y-84327274D01*
X162831875Y-84332425D01*
X162839657Y-84336833D01*
X162847211Y-84341617D01*
X162855200Y-84345638D01*
X162942764Y-84395243D01*
X162950318Y-84400026D01*
X162958305Y-84404047D01*
X162966091Y-84408457D01*
X162974269Y-84412082D01*
X163064156Y-84457328D01*
X163071938Y-84461736D01*
X163080114Y-84465360D01*
X163088102Y-84469381D01*
X163096450Y-84472601D01*
X163188441Y-84513378D01*
X163196436Y-84517402D01*
X163204790Y-84520624D01*
X163212960Y-84524246D01*
X163221443Y-84527048D01*
X163315352Y-84563273D01*
X163323518Y-84566893D01*
X163332000Y-84569695D01*
X163340355Y-84572918D01*
X163348985Y-84575306D01*
X163444537Y-84606872D01*
X163452873Y-84610088D01*
X163461486Y-84612471D01*
X163469987Y-84615280D01*
X163478722Y-84617242D01*
X163575696Y-84644079D01*
X163584197Y-84646887D01*
X163592926Y-84648847D01*
X163601540Y-84651231D01*
X163610350Y-84652760D01*
X163708548Y-84674810D01*
X163717164Y-84677195D01*
X163725974Y-84678724D01*
X163734704Y-84680684D01*
X163743582Y-84681779D01*
X163842738Y-84698984D01*
X163851459Y-84700942D01*
X163860331Y-84702036D01*
X163869147Y-84703566D01*
X163878069Y-84704224D01*
X163977949Y-84716544D01*
X163986757Y-84718072D01*
X163995673Y-84718730D01*
X164004553Y-84719825D01*
X164013496Y-84720044D01*
X164113860Y-84727448D01*
X164122730Y-84728542D01*
X164131667Y-84728761D01*
X164140594Y-84729420D01*
X164149539Y-84729200D01*
X164245662Y-84731561D01*
X164250120Y-84732000D01*
X164263541Y-84732000D01*
X164276938Y-84732329D01*
X164281398Y-84732000D01*
X164328147Y-84732000D01*
X164360000Y-84735137D01*
X164366762Y-84735137D01*
X164733501Y-85078242D01*
X164739026Y-85084974D01*
X164774809Y-85114341D01*
X164815634Y-85136162D01*
X164816231Y-85136343D01*
X164819634Y-85138162D01*
X164863932Y-85151600D01*
X164910000Y-85156137D01*
X165410000Y-85156137D01*
X165430308Y-85154137D01*
X167506000Y-85154137D01*
X167552068Y-85149600D01*
X167596366Y-85136162D01*
X167621001Y-85122995D01*
X167621001Y-86104000D01*
X167619622Y-86118000D01*
X167625125Y-86173870D01*
X167641421Y-86227592D01*
X167667885Y-86277103D01*
X167703500Y-86320500D01*
X167746897Y-86356115D01*
X167796408Y-86382579D01*
X167850130Y-86398875D01*
X167892010Y-86403000D01*
X167906000Y-86404378D01*
X167919990Y-86403000D01*
X172146000Y-86403000D01*
X172146001Y-87413000D01*
X167919990Y-87413000D01*
X167906000Y-87411622D01*
X167892010Y-87413000D01*
X167850130Y-87417125D01*
X167796408Y-87433421D01*
X167746897Y-87459885D01*
X167703500Y-87495500D01*
X167667885Y-87538897D01*
X167641421Y-87588408D01*
X167625125Y-87642130D01*
X167619622Y-87698000D01*
X167621000Y-87711990D01*
X167621000Y-88693005D01*
X167596366Y-88679838D01*
X167552068Y-88666400D01*
X167506000Y-88661863D01*
X164906000Y-88661863D01*
X164859932Y-88666400D01*
X164815634Y-88679838D01*
X164774809Y-88701659D01*
X164739026Y-88731026D01*
X164719363Y-88754985D01*
X164367684Y-89084000D01*
X158365404Y-89084000D01*
X158360945Y-89083671D01*
X158347541Y-89084000D01*
X158334120Y-89084000D01*
X158329665Y-89084439D01*
X158233549Y-89086798D01*
X158224594Y-89086578D01*
X158215661Y-89087237D01*
X158206736Y-89087456D01*
X158197871Y-89088549D01*
X158097496Y-89095954D01*
X158088553Y-89096173D01*
X158079673Y-89097268D01*
X158070757Y-89097926D01*
X158061949Y-89099454D01*
X157962067Y-89111774D01*
X157953148Y-89112432D01*
X157944334Y-89113961D01*
X157935459Y-89115056D01*
X157926735Y-89117015D01*
X157827578Y-89134220D01*
X157818699Y-89135315D01*
X157809973Y-89137275D01*
X157801164Y-89138803D01*
X157792545Y-89141188D01*
X157694357Y-89163237D01*
X157685542Y-89164767D01*
X157676916Y-89167154D01*
X157668193Y-89169113D01*
X157659706Y-89171917D01*
X157562717Y-89198757D01*
X157553987Y-89200718D01*
X157545493Y-89203524D01*
X157536875Y-89205909D01*
X157528530Y-89209128D01*
X157432983Y-89240693D01*
X157424356Y-89243080D01*
X157416006Y-89246301D01*
X157407518Y-89249105D01*
X157399347Y-89252727D01*
X157305451Y-89288947D01*
X157296959Y-89291752D01*
X157288782Y-89295377D01*
X157280436Y-89298596D01*
X157272448Y-89302617D01*
X157180449Y-89343397D01*
X157172101Y-89346617D01*
X157164113Y-89350638D01*
X157155937Y-89354262D01*
X157148155Y-89358670D01*
X157058261Y-89403920D01*
X157050089Y-89407542D01*
X157042311Y-89411948D01*
X157034317Y-89415972D01*
X157026757Y-89420759D01*
X156939198Y-89470361D01*
X156931213Y-89474380D01*
X156923661Y-89479162D01*
X156915873Y-89483574D01*
X156908557Y-89488727D01*
X156823544Y-89542560D01*
X156815759Y-89546970D01*
X156808442Y-89552123D01*
X156800889Y-89556906D01*
X156793842Y-89562406D01*
X156711553Y-89620360D01*
X156704004Y-89625140D01*
X156696961Y-89630636D01*
X156689642Y-89635791D01*
X156682864Y-89641638D01*
X156603537Y-89703545D01*
X156596222Y-89708697D01*
X156589447Y-89714541D01*
X156582397Y-89720043D01*
X156575921Y-89726209D01*
X156499714Y-89791945D01*
X156492666Y-89797446D01*
X156486194Y-89803608D01*
X156479418Y-89809453D01*
X156473246Y-89815936D01*
X156403616Y-89882230D01*
X156400148Y-89885076D01*
X156390634Y-89894590D01*
X156380948Y-89903812D01*
X156378035Y-89907189D01*
X155659195Y-90626031D01*
X155655811Y-90628950D01*
X155646570Y-90638656D01*
X155637076Y-90648150D01*
X155634236Y-90651610D01*
X155567934Y-90721249D01*
X155561454Y-90727418D01*
X155555611Y-90734192D01*
X155549444Y-90740669D01*
X155543942Y-90747719D01*
X155478213Y-90823917D01*
X155472042Y-90830399D01*
X155466536Y-90837454D01*
X155460699Y-90844221D01*
X155455552Y-90851529D01*
X155393632Y-90930873D01*
X155387794Y-90937641D01*
X155382647Y-90944949D01*
X155377139Y-90952007D01*
X155372351Y-90959568D01*
X155314415Y-91041831D01*
X155308906Y-91048890D01*
X155304117Y-91056452D01*
X155298972Y-91063758D01*
X155294566Y-91071535D01*
X155240727Y-91156558D01*
X155235574Y-91163874D01*
X155231162Y-91171662D01*
X155226380Y-91179214D01*
X155222361Y-91187199D01*
X155172759Y-91274758D01*
X155167972Y-91282318D01*
X155163948Y-91290312D01*
X155159542Y-91298090D01*
X155155919Y-91306264D01*
X155110672Y-91396154D01*
X155106263Y-91403937D01*
X155102639Y-91412113D01*
X155098617Y-91420103D01*
X155095397Y-91428450D01*
X155054621Y-91520440D01*
X155050596Y-91528436D01*
X155047373Y-91536790D01*
X155043752Y-91544960D01*
X155040950Y-91553443D01*
X155004727Y-91647346D01*
X155001105Y-91655517D01*
X154998301Y-91664005D01*
X154995080Y-91672355D01*
X154992693Y-91680980D01*
X154961127Y-91776533D01*
X154957909Y-91784876D01*
X154955524Y-91793493D01*
X154952718Y-91801988D01*
X154950757Y-91810718D01*
X154923918Y-91907704D01*
X154921113Y-91916194D01*
X154919154Y-91924917D01*
X154916767Y-91933543D01*
X154915237Y-91942359D01*
X154893190Y-92040539D01*
X154890803Y-92049165D01*
X154889273Y-92057982D01*
X154887315Y-92066702D01*
X154886221Y-92075575D01*
X154869016Y-92174732D01*
X154867056Y-92183459D01*
X154865961Y-92192337D01*
X154864432Y-92201149D01*
X154863774Y-92210066D01*
X154851455Y-92309947D01*
X154849926Y-92318757D01*
X154849268Y-92327675D01*
X154848173Y-92336554D01*
X154847954Y-92345495D01*
X154840549Y-92445870D01*
X154839456Y-92454736D01*
X154839237Y-92463663D01*
X154838578Y-92472595D01*
X154838798Y-92481549D01*
X154836439Y-92577667D01*
X154836000Y-92582121D01*
X154836000Y-92595539D01*
X154835671Y-92608944D01*
X154836000Y-92613403D01*
X154836000Y-92914452D01*
X154834863Y-92926000D01*
X154834863Y-94340000D01*
X154765137Y-94340000D01*
X154765137Y-92926000D01*
X154764000Y-92914455D01*
X154764000Y-87004437D01*
X154766578Y-86899400D01*
X154773981Y-86799039D01*
X154786298Y-86699184D01*
X154803500Y-86600041D01*
X154825547Y-86501864D01*
X154852387Y-86404877D01*
X154883946Y-86309349D01*
X154920165Y-86215453D01*
X154937950Y-86175329D01*
X158145000Y-86175329D01*
X158145000Y-86544671D01*
X158217056Y-86906917D01*
X158358397Y-87248145D01*
X158563593Y-87555243D01*
X158824757Y-87816407D01*
X159131855Y-88021603D01*
X159473083Y-88162944D01*
X159835329Y-88235000D01*
X160204671Y-88235000D01*
X160566917Y-88162944D01*
X160908145Y-88021603D01*
X161215243Y-87816407D01*
X161476407Y-87555243D01*
X161681603Y-87248145D01*
X161822944Y-86906917D01*
X161895000Y-86544671D01*
X161895000Y-86175329D01*
X161822944Y-85813083D01*
X161681603Y-85471855D01*
X161476407Y-85164757D01*
X161215243Y-84903593D01*
X160908145Y-84698397D01*
X160566917Y-84557056D01*
X160204671Y-84485000D01*
X159835329Y-84485000D01*
X159473083Y-84557056D01*
X159131855Y-84698397D01*
X158824757Y-84903593D01*
X158563593Y-85164757D01*
X158358397Y-85471855D01*
X158217056Y-85813083D01*
X158145000Y-86175329D01*
X154937950Y-86175329D01*
X154960940Y-86123467D01*
X155006184Y-86033582D01*
X155055781Y-85946030D01*
X155109611Y-85861024D01*
X155167561Y-85778742D01*
X155229462Y-85699424D01*
X155295189Y-85623229D01*
X155367655Y-85547116D01*
X157747135Y-83167638D01*
X157823233Y-83095185D01*
X157899431Y-83029457D01*
X157978762Y-82967547D01*
X158061022Y-82909612D01*
X158146040Y-82855776D01*
X158233591Y-82806179D01*
X158323467Y-82760939D01*
X158415445Y-82720168D01*
X158509353Y-82683944D01*
X158604887Y-82652384D01*
X158701863Y-82625547D01*
X158800046Y-82603499D01*
X158899182Y-82586298D01*
X158999040Y-82573981D01*
X159099400Y-82566578D01*
X159204437Y-82564000D01*
X160095563Y-82564000D01*
X160200598Y-82566578D01*
X160200598Y-82566578D01*
G37*
X160200598Y-82566578D02*
X160300960Y-82573981D01*
X160400815Y-82586298D01*
X160499953Y-82603499D01*
X160598137Y-82625548D01*
X160695121Y-82652387D01*
X160790657Y-82683948D01*
X160884539Y-82720162D01*
X160976536Y-82760942D01*
X161066416Y-82806184D01*
X161153968Y-82855781D01*
X161238974Y-82909611D01*
X161321256Y-82967561D01*
X161400574Y-83029462D01*
X161476766Y-83095186D01*
X161552892Y-83167664D01*
X162294031Y-83908805D01*
X162296950Y-83912189D01*
X162306653Y-83921427D01*
X162316149Y-83930923D01*
X162319612Y-83933765D01*
X162389251Y-84000067D01*
X162395419Y-84006545D01*
X162402193Y-84012388D01*
X162408668Y-84018553D01*
X162415716Y-84024054D01*
X162491929Y-84089795D01*
X162498400Y-84095956D01*
X162505442Y-84101451D01*
X162512223Y-84107301D01*
X162519545Y-84112458D01*
X162598873Y-84174366D01*
X162605641Y-84180204D01*
X162612950Y-84185352D01*
X162620007Y-84190859D01*
X162627568Y-84195647D01*
X162709847Y-84253595D01*
X162716889Y-84259091D01*
X162724435Y-84263869D01*
X162731758Y-84269027D01*
X162739550Y-84273441D01*
X162824562Y-84327274D01*
X162831875Y-84332425D01*
X162839657Y-84336833D01*
X162847211Y-84341617D01*
X162855200Y-84345638D01*
X162942764Y-84395243D01*
X162950318Y-84400026D01*
X162958305Y-84404047D01*
X162966091Y-84408457D01*
X162974269Y-84412082D01*
X163064156Y-84457328D01*
X163071938Y-84461736D01*
X163080114Y-84465360D01*
X163088102Y-84469381D01*
X163096450Y-84472601D01*
X163188441Y-84513378D01*
X163196436Y-84517402D01*
X163204790Y-84520624D01*
X163212960Y-84524246D01*
X163221443Y-84527048D01*
X163315352Y-84563273D01*
X163323518Y-84566893D01*
X163332000Y-84569695D01*
X163340355Y-84572918D01*
X163348985Y-84575306D01*
X163444537Y-84606872D01*
X163452873Y-84610088D01*
X163461486Y-84612471D01*
X163469987Y-84615280D01*
X163478722Y-84617242D01*
X163575696Y-84644079D01*
X163584197Y-84646887D01*
X163592926Y-84648847D01*
X163601540Y-84651231D01*
X163610350Y-84652760D01*
X163708548Y-84674810D01*
X163717164Y-84677195D01*
X163725974Y-84678724D01*
X163734704Y-84680684D01*
X163743582Y-84681779D01*
X163842738Y-84698984D01*
X163851459Y-84700942D01*
X163860331Y-84702036D01*
X163869147Y-84703566D01*
X163878069Y-84704224D01*
X163977949Y-84716544D01*
X163986757Y-84718072D01*
X163995673Y-84718730D01*
X164004553Y-84719825D01*
X164013496Y-84720044D01*
X164113860Y-84727448D01*
X164122730Y-84728542D01*
X164131667Y-84728761D01*
X164140594Y-84729420D01*
X164149539Y-84729200D01*
X164245662Y-84731561D01*
X164250120Y-84732000D01*
X164263541Y-84732000D01*
X164276938Y-84732329D01*
X164281398Y-84732000D01*
X164328147Y-84732000D01*
X164360000Y-84735137D01*
X164366762Y-84735137D01*
X164733501Y-85078242D01*
X164739026Y-85084974D01*
X164774809Y-85114341D01*
X164815634Y-85136162D01*
X164816231Y-85136343D01*
X164819634Y-85138162D01*
X164863932Y-85151600D01*
X164910000Y-85156137D01*
X165410000Y-85156137D01*
X165430308Y-85154137D01*
X167506000Y-85154137D01*
X167552068Y-85149600D01*
X167596366Y-85136162D01*
X167621001Y-85122995D01*
X167621001Y-86104000D01*
X167619622Y-86118000D01*
X167625125Y-86173870D01*
X167641421Y-86227592D01*
X167667885Y-86277103D01*
X167703500Y-86320500D01*
X167746897Y-86356115D01*
X167796408Y-86382579D01*
X167850130Y-86398875D01*
X167892010Y-86403000D01*
X167906000Y-86404378D01*
X167919990Y-86403000D01*
X172146000Y-86403000D01*
X172146001Y-87413000D01*
X167919990Y-87413000D01*
X167906000Y-87411622D01*
X167892010Y-87413000D01*
X167850130Y-87417125D01*
X167796408Y-87433421D01*
X167746897Y-87459885D01*
X167703500Y-87495500D01*
X167667885Y-87538897D01*
X167641421Y-87588408D01*
X167625125Y-87642130D01*
X167619622Y-87698000D01*
X167621000Y-87711990D01*
X167621000Y-88693005D01*
X167596366Y-88679838D01*
X167552068Y-88666400D01*
X167506000Y-88661863D01*
X164906000Y-88661863D01*
X164859932Y-88666400D01*
X164815634Y-88679838D01*
X164774809Y-88701659D01*
X164739026Y-88731026D01*
X164719363Y-88754985D01*
X164367684Y-89084000D01*
X158365404Y-89084000D01*
X158360945Y-89083671D01*
X158347541Y-89084000D01*
X158334120Y-89084000D01*
X158329665Y-89084439D01*
X158233549Y-89086798D01*
X158224594Y-89086578D01*
X158215661Y-89087237D01*
X158206736Y-89087456D01*
X158197871Y-89088549D01*
X158097496Y-89095954D01*
X158088553Y-89096173D01*
X158079673Y-89097268D01*
X158070757Y-89097926D01*
X158061949Y-89099454D01*
X157962067Y-89111774D01*
X157953148Y-89112432D01*
X157944334Y-89113961D01*
X157935459Y-89115056D01*
X157926735Y-89117015D01*
X157827578Y-89134220D01*
X157818699Y-89135315D01*
X157809973Y-89137275D01*
X157801164Y-89138803D01*
X157792545Y-89141188D01*
X157694357Y-89163237D01*
X157685542Y-89164767D01*
X157676916Y-89167154D01*
X157668193Y-89169113D01*
X157659706Y-89171917D01*
X157562717Y-89198757D01*
X157553987Y-89200718D01*
X157545493Y-89203524D01*
X157536875Y-89205909D01*
X157528530Y-89209128D01*
X157432983Y-89240693D01*
X157424356Y-89243080D01*
X157416006Y-89246301D01*
X157407518Y-89249105D01*
X157399347Y-89252727D01*
X157305451Y-89288947D01*
X157296959Y-89291752D01*
X157288782Y-89295377D01*
X157280436Y-89298596D01*
X157272448Y-89302617D01*
X157180449Y-89343397D01*
X157172101Y-89346617D01*
X157164113Y-89350638D01*
X157155937Y-89354262D01*
X157148155Y-89358670D01*
X157058261Y-89403920D01*
X157050089Y-89407542D01*
X157042311Y-89411948D01*
X157034317Y-89415972D01*
X157026757Y-89420759D01*
X156939198Y-89470361D01*
X156931213Y-89474380D01*
X156923661Y-89479162D01*
X156915873Y-89483574D01*
X156908557Y-89488727D01*
X156823544Y-89542560D01*
X156815759Y-89546970D01*
X156808442Y-89552123D01*
X156800889Y-89556906D01*
X156793842Y-89562406D01*
X156711553Y-89620360D01*
X156704004Y-89625140D01*
X156696961Y-89630636D01*
X156689642Y-89635791D01*
X156682864Y-89641638D01*
X156603537Y-89703545D01*
X156596222Y-89708697D01*
X156589447Y-89714541D01*
X156582397Y-89720043D01*
X156575921Y-89726209D01*
X156499714Y-89791945D01*
X156492666Y-89797446D01*
X156486194Y-89803608D01*
X156479418Y-89809453D01*
X156473246Y-89815936D01*
X156403616Y-89882230D01*
X156400148Y-89885076D01*
X156390634Y-89894590D01*
X156380948Y-89903812D01*
X156378035Y-89907189D01*
X155659195Y-90626031D01*
X155655811Y-90628950D01*
X155646570Y-90638656D01*
X155637076Y-90648150D01*
X155634236Y-90651610D01*
X155567934Y-90721249D01*
X155561454Y-90727418D01*
X155555611Y-90734192D01*
X155549444Y-90740669D01*
X155543942Y-90747719D01*
X155478213Y-90823917D01*
X155472042Y-90830399D01*
X155466536Y-90837454D01*
X155460699Y-90844221D01*
X155455552Y-90851529D01*
X155393632Y-90930873D01*
X155387794Y-90937641D01*
X155382647Y-90944949D01*
X155377139Y-90952007D01*
X155372351Y-90959568D01*
X155314415Y-91041831D01*
X155308906Y-91048890D01*
X155304117Y-91056452D01*
X155298972Y-91063758D01*
X155294566Y-91071535D01*
X155240727Y-91156558D01*
X155235574Y-91163874D01*
X155231162Y-91171662D01*
X155226380Y-91179214D01*
X155222361Y-91187199D01*
X155172759Y-91274758D01*
X155167972Y-91282318D01*
X155163948Y-91290312D01*
X155159542Y-91298090D01*
X155155919Y-91306264D01*
X155110672Y-91396154D01*
X155106263Y-91403937D01*
X155102639Y-91412113D01*
X155098617Y-91420103D01*
X155095397Y-91428450D01*
X155054621Y-91520440D01*
X155050596Y-91528436D01*
X155047373Y-91536790D01*
X155043752Y-91544960D01*
X155040950Y-91553443D01*
X155004727Y-91647346D01*
X155001105Y-91655517D01*
X154998301Y-91664005D01*
X154995080Y-91672355D01*
X154992693Y-91680980D01*
X154961127Y-91776533D01*
X154957909Y-91784876D01*
X154955524Y-91793493D01*
X154952718Y-91801988D01*
X154950757Y-91810718D01*
X154923918Y-91907704D01*
X154921113Y-91916194D01*
X154919154Y-91924917D01*
X154916767Y-91933543D01*
X154915237Y-91942359D01*
X154893190Y-92040539D01*
X154890803Y-92049165D01*
X154889273Y-92057982D01*
X154887315Y-92066702D01*
X154886221Y-92075575D01*
X154869016Y-92174732D01*
X154867056Y-92183459D01*
X154865961Y-92192337D01*
X154864432Y-92201149D01*
X154863774Y-92210066D01*
X154851455Y-92309947D01*
X154849926Y-92318757D01*
X154849268Y-92327675D01*
X154848173Y-92336554D01*
X154847954Y-92345495D01*
X154840549Y-92445870D01*
X154839456Y-92454736D01*
X154839237Y-92463663D01*
X154838578Y-92472595D01*
X154838798Y-92481549D01*
X154836439Y-92577667D01*
X154836000Y-92582121D01*
X154836000Y-92595539D01*
X154835671Y-92608944D01*
X154836000Y-92613403D01*
X154836000Y-92914452D01*
X154834863Y-92926000D01*
X154834863Y-94340000D01*
X154765137Y-94340000D01*
X154765137Y-92926000D01*
X154764000Y-92914455D01*
X154764000Y-87004437D01*
X154766578Y-86899400D01*
X154773981Y-86799039D01*
X154786298Y-86699184D01*
X154803500Y-86600041D01*
X154825547Y-86501864D01*
X154852387Y-86404877D01*
X154883946Y-86309349D01*
X154920165Y-86215453D01*
X154937950Y-86175329D01*
X158145000Y-86175329D01*
X158145000Y-86544671D01*
X158217056Y-86906917D01*
X158358397Y-87248145D01*
X158563593Y-87555243D01*
X158824757Y-87816407D01*
X159131855Y-88021603D01*
X159473083Y-88162944D01*
X159835329Y-88235000D01*
X160204671Y-88235000D01*
X160566917Y-88162944D01*
X160908145Y-88021603D01*
X161215243Y-87816407D01*
X161476407Y-87555243D01*
X161681603Y-87248145D01*
X161822944Y-86906917D01*
X161895000Y-86544671D01*
X161895000Y-86175329D01*
X161822944Y-85813083D01*
X161681603Y-85471855D01*
X161476407Y-85164757D01*
X161215243Y-84903593D01*
X160908145Y-84698397D01*
X160566917Y-84557056D01*
X160204671Y-84485000D01*
X159835329Y-84485000D01*
X159473083Y-84557056D01*
X159131855Y-84698397D01*
X158824757Y-84903593D01*
X158563593Y-85164757D01*
X158358397Y-85471855D01*
X158217056Y-85813083D01*
X158145000Y-86175329D01*
X154937950Y-86175329D01*
X154960940Y-86123467D01*
X155006184Y-86033582D01*
X155055781Y-85946030D01*
X155109611Y-85861024D01*
X155167561Y-85778742D01*
X155229462Y-85699424D01*
X155295189Y-85623229D01*
X155367655Y-85547116D01*
X157747135Y-83167638D01*
X157823233Y-83095185D01*
X157899431Y-83029457D01*
X157978762Y-82967547D01*
X158061022Y-82909612D01*
X158146040Y-82855776D01*
X158233591Y-82806179D01*
X158323467Y-82760939D01*
X158415445Y-82720168D01*
X158509353Y-82683944D01*
X158604887Y-82652384D01*
X158701863Y-82625547D01*
X158800046Y-82603499D01*
X158899182Y-82586298D01*
X158999040Y-82573981D01*
X159099400Y-82566578D01*
X159204437Y-82564000D01*
X160095563Y-82564000D01*
X160200598Y-82566578D01*
G36*
X146548597Y-89814579D02*
G01*
X146648960Y-89821982D01*
X146748815Y-89834299D01*
X146847950Y-89851500D01*
X146946152Y-89873552D01*
X147043109Y-89900384D01*
X147138655Y-89931949D01*
X147232550Y-89968167D01*
X147324531Y-90008940D01*
X147414416Y-90054185D01*
X147501968Y-90103782D01*
X147586971Y-90157610D01*
X147669246Y-90215554D01*
X147748578Y-90277466D01*
X147824770Y-90343190D01*
X147900891Y-90415664D01*
X148632360Y-91147134D01*
X148704810Y-91223230D01*
X148770535Y-91299422D01*
X148832451Y-91378762D01*
X148890385Y-91461022D01*
X148944217Y-91546030D01*
X148993818Y-91633589D01*
X149039059Y-91723467D01*
X149079830Y-91815445D01*
X149116054Y-91909353D01*
X149147616Y-92004892D01*
X149174450Y-92101857D01*
X149196499Y-92200049D01*
X149213700Y-92299182D01*
X149226017Y-92399040D01*
X149233420Y-92499404D01*
X149236000Y-92604455D01*
X149236000Y-92914452D01*
X149234863Y-92926000D01*
X149234863Y-94340000D01*
X132654000Y-94340000D01*
X132654000Y-91483000D01*
X136880010Y-91483000D01*
X136894000Y-91484378D01*
X136907990Y-91483000D01*
X136949870Y-91478875D01*
X137003592Y-91462579D01*
X137053103Y-91436115D01*
X137096500Y-91400500D01*
X137132115Y-91357103D01*
X137158579Y-91307592D01*
X137174875Y-91253870D01*
X137180378Y-91198000D01*
X137179000Y-91184010D01*
X137179000Y-90202995D01*
X137203634Y-90216162D01*
X137247932Y-90229600D01*
X137294000Y-90234137D01*
X139379692Y-90234137D01*
X139400000Y-90236137D01*
X139900000Y-90236137D01*
X139938336Y-90233004D01*
X139983056Y-90221048D01*
X140024584Y-90200598D01*
X140061325Y-90172438D01*
X140443238Y-89815137D01*
X140450000Y-89815137D01*
X140481853Y-89812000D01*
X146443554Y-89812000D01*
X146548597Y-89814579D01*
X146548597Y-89814579D01*
G37*
X146548597Y-89814579D02*
X146648960Y-89821982D01*
X146748815Y-89834299D01*
X146847950Y-89851500D01*
X146946152Y-89873552D01*
X147043109Y-89900384D01*
X147138655Y-89931949D01*
X147232550Y-89968167D01*
X147324531Y-90008940D01*
X147414416Y-90054185D01*
X147501968Y-90103782D01*
X147586971Y-90157610D01*
X147669246Y-90215554D01*
X147748578Y-90277466D01*
X147824770Y-90343190D01*
X147900891Y-90415664D01*
X148632360Y-91147134D01*
X148704810Y-91223230D01*
X148770535Y-91299422D01*
X148832451Y-91378762D01*
X148890385Y-91461022D01*
X148944217Y-91546030D01*
X148993818Y-91633589D01*
X149039059Y-91723467D01*
X149079830Y-91815445D01*
X149116054Y-91909353D01*
X149147616Y-92004892D01*
X149174450Y-92101857D01*
X149196499Y-92200049D01*
X149213700Y-92299182D01*
X149226017Y-92399040D01*
X149233420Y-92499404D01*
X149236000Y-92604455D01*
X149236000Y-92914452D01*
X149234863Y-92926000D01*
X149234863Y-94340000D01*
X132654000Y-94340000D01*
X132654000Y-91483000D01*
X136880010Y-91483000D01*
X136894000Y-91484378D01*
X136907990Y-91483000D01*
X136949870Y-91478875D01*
X137003592Y-91462579D01*
X137053103Y-91436115D01*
X137096500Y-91400500D01*
X137132115Y-91357103D01*
X137158579Y-91307592D01*
X137174875Y-91253870D01*
X137180378Y-91198000D01*
X137179000Y-91184010D01*
X137179000Y-90202995D01*
X137203634Y-90216162D01*
X137247932Y-90229600D01*
X137294000Y-90234137D01*
X139379692Y-90234137D01*
X139400000Y-90236137D01*
X139900000Y-90236137D01*
X139938336Y-90233004D01*
X139983056Y-90221048D01*
X140024584Y-90200598D01*
X140061325Y-90172438D01*
X140443238Y-89815137D01*
X140450000Y-89815137D01*
X140481853Y-89812000D01*
X146443554Y-89812000D01*
X146548597Y-89814579D01*
G36*
X146300597Y-74566579D02*
G01*
X146400960Y-74573982D01*
X146500815Y-74586299D01*
X146599950Y-74603500D01*
X146698152Y-74625552D01*
X146795109Y-74652384D01*
X146890655Y-74683949D01*
X146984550Y-74720167D01*
X147076531Y-74760940D01*
X147166416Y-74806185D01*
X147253968Y-74855782D01*
X147338971Y-74909610D01*
X147421246Y-74967554D01*
X147500578Y-75029466D01*
X147576770Y-75095190D01*
X147652892Y-75167664D01*
X151032374Y-78547148D01*
X151104810Y-78623230D01*
X151170541Y-78699431D01*
X151232451Y-78778762D01*
X151290386Y-78861022D01*
X151344222Y-78946040D01*
X151393819Y-79033591D01*
X151439059Y-79123467D01*
X151479830Y-79215445D01*
X151516054Y-79309353D01*
X151547614Y-79404887D01*
X151574451Y-79501863D01*
X151596499Y-79600046D01*
X151613700Y-79699182D01*
X151626017Y-79799040D01*
X151633420Y-79899404D01*
X151636000Y-80004455D01*
X151636001Y-92914446D01*
X151634863Y-92926000D01*
X151634863Y-94340000D01*
X151565137Y-94340000D01*
X151565137Y-92926000D01*
X151564000Y-92914455D01*
X151564000Y-83713398D01*
X151564329Y-83708938D01*
X151564000Y-83695541D01*
X151564000Y-83682120D01*
X151563561Y-83677662D01*
X151561200Y-83581539D01*
X151561420Y-83572594D01*
X151560761Y-83563667D01*
X151560542Y-83554730D01*
X151559448Y-83545860D01*
X151552044Y-83445496D01*
X151551825Y-83436553D01*
X151550730Y-83427673D01*
X151550072Y-83418757D01*
X151548544Y-83409949D01*
X151536224Y-83310069D01*
X151535566Y-83301147D01*
X151534036Y-83292331D01*
X151532942Y-83283459D01*
X151530984Y-83274738D01*
X151513777Y-83175573D01*
X151512683Y-83166701D01*
X151510725Y-83157982D01*
X151509195Y-83149164D01*
X151506808Y-83140538D01*
X151484761Y-83042362D01*
X151483231Y-83033542D01*
X151480843Y-83024912D01*
X151478885Y-83016194D01*
X151476083Y-83007712D01*
X151449241Y-82910717D01*
X151447280Y-82901987D01*
X151444474Y-82893493D01*
X151442089Y-82884875D01*
X151438870Y-82876530D01*
X151407306Y-82780985D01*
X151404918Y-82772355D01*
X151401695Y-82764000D01*
X151398893Y-82755518D01*
X151395273Y-82747352D01*
X151359048Y-82653443D01*
X151356246Y-82644960D01*
X151352624Y-82636790D01*
X151349402Y-82628436D01*
X151345378Y-82620441D01*
X151304601Y-82528450D01*
X151301381Y-82520102D01*
X151297360Y-82512114D01*
X151293736Y-82503938D01*
X151289328Y-82496156D01*
X151244078Y-82406262D01*
X151240456Y-82398090D01*
X151236050Y-82390312D01*
X151232026Y-82382318D01*
X151227239Y-82374758D01*
X151177637Y-82287199D01*
X151173618Y-82279214D01*
X151168836Y-82271662D01*
X151164424Y-82263874D01*
X151159271Y-82256558D01*
X151105439Y-82171547D01*
X151101027Y-82163758D01*
X151095872Y-82156439D01*
X151091092Y-82148890D01*
X151085593Y-82141844D01*
X151027647Y-82059568D01*
X151022859Y-82052007D01*
X151017352Y-82044950D01*
X151012204Y-82037641D01*
X151006366Y-82030873D01*
X150944452Y-81951537D01*
X150939299Y-81944221D01*
X150933454Y-81937445D01*
X150927956Y-81930400D01*
X150921791Y-81923924D01*
X150856057Y-81847721D01*
X150850555Y-81840671D01*
X150844386Y-81834192D01*
X150838544Y-81827419D01*
X150832067Y-81821252D01*
X150765764Y-81751612D01*
X150762922Y-81748149D01*
X150753428Y-81738655D01*
X150744190Y-81728952D01*
X150740805Y-81726032D01*
X148753980Y-79739208D01*
X148751048Y-79735809D01*
X148741305Y-79726533D01*
X148731849Y-79717077D01*
X148728399Y-79714246D01*
X148658745Y-79647930D01*
X148652578Y-79641453D01*
X148645806Y-79635611D01*
X148639327Y-79629443D01*
X148632277Y-79623941D01*
X148556077Y-79558210D01*
X148549599Y-79552043D01*
X148542548Y-79546540D01*
X148535774Y-79540697D01*
X148528463Y-79535548D01*
X148449123Y-79473630D01*
X148442355Y-79467792D01*
X148435049Y-79462646D01*
X148427993Y-79457140D01*
X148420430Y-79452351D01*
X148338152Y-79394404D01*
X148331109Y-79388908D01*
X148323559Y-79384127D01*
X148316238Y-79378971D01*
X148308450Y-79374560D01*
X148223436Y-79320725D01*
X148216123Y-79315574D01*
X148208341Y-79311166D01*
X148200787Y-79306382D01*
X148192799Y-79302361D01*
X148105234Y-79252756D01*
X148097680Y-79247973D01*
X148089693Y-79243953D01*
X148081907Y-79239542D01*
X148073728Y-79235917D01*
X147983844Y-79190673D01*
X147976063Y-79186265D01*
X147967886Y-79182640D01*
X147959895Y-79178618D01*
X147951551Y-79175399D01*
X147859550Y-79134617D01*
X147851559Y-79130595D01*
X147843217Y-79127377D01*
X147835041Y-79123753D01*
X147826544Y-79120946D01*
X147732666Y-79084734D01*
X147724481Y-79081106D01*
X147715974Y-79078296D01*
X147707640Y-79075081D01*
X147699031Y-79072698D01*
X147603472Y-79041130D01*
X147595126Y-79037911D01*
X147586502Y-79035524D01*
X147578010Y-79032719D01*
X147569284Y-79030759D01*
X147472303Y-79003920D01*
X147463802Y-79001112D01*
X147455068Y-78999151D01*
X147446458Y-78996768D01*
X147437652Y-78995240D01*
X147339451Y-78973189D01*
X147330834Y-78970804D01*
X147322024Y-78969275D01*
X147313294Y-78967315D01*
X147304415Y-78966220D01*
X147205267Y-78949017D01*
X147196540Y-78947057D01*
X147187662Y-78945962D01*
X147178850Y-78944433D01*
X147169933Y-78943775D01*
X147070052Y-78931456D01*
X147061242Y-78929927D01*
X147052324Y-78929269D01*
X147043445Y-78928174D01*
X147034504Y-78927955D01*
X146934133Y-78920551D01*
X146925266Y-78919457D01*
X146916334Y-78919238D01*
X146907404Y-78918579D01*
X146898455Y-78918799D01*
X146802336Y-78916439D01*
X146797880Y-78916000D01*
X146784459Y-78916000D01*
X146771059Y-78915671D01*
X146766599Y-78916000D01*
X140451545Y-78916000D01*
X140440000Y-78914863D01*
X140433238Y-78914863D01*
X140073568Y-78578372D01*
X140060974Y-78563026D01*
X140025191Y-78533659D01*
X139984366Y-78511838D01*
X139940068Y-78498400D01*
X139894000Y-78493863D01*
X137294000Y-78493863D01*
X137247932Y-78498400D01*
X137203634Y-78511838D01*
X137179000Y-78525005D01*
X137179000Y-77543990D01*
X137180378Y-77530000D01*
X137174875Y-77474130D01*
X137158579Y-77420408D01*
X137132115Y-77370897D01*
X137096500Y-77327500D01*
X137053103Y-77291885D01*
X137003592Y-77265421D01*
X136949870Y-77249125D01*
X136907990Y-77245000D01*
X136894000Y-77243622D01*
X136880010Y-77245000D01*
X132654000Y-77245000D01*
X132654000Y-76235000D01*
X136880010Y-76235000D01*
X136894000Y-76236378D01*
X136907990Y-76235000D01*
X136949870Y-76230875D01*
X137003592Y-76214579D01*
X137053103Y-76188115D01*
X137096500Y-76152500D01*
X137132115Y-76109103D01*
X137158579Y-76059592D01*
X137174875Y-76005870D01*
X137180378Y-75950000D01*
X137179000Y-75936010D01*
X137179000Y-74954995D01*
X137203634Y-74968162D01*
X137247932Y-74981600D01*
X137294000Y-74986137D01*
X139894000Y-74986137D01*
X139913505Y-74984216D01*
X139928336Y-74983004D01*
X139929808Y-74982610D01*
X139940068Y-74981600D01*
X139984366Y-74968162D01*
X140025191Y-74946341D01*
X140060974Y-74916974D01*
X140073568Y-74901628D01*
X140433238Y-74565137D01*
X140440000Y-74565137D01*
X140451545Y-74564000D01*
X146195554Y-74564000D01*
X146300597Y-74566579D01*
X146300597Y-74566579D01*
G37*
X146300597Y-74566579D02*
X146400960Y-74573982D01*
X146500815Y-74586299D01*
X146599950Y-74603500D01*
X146698152Y-74625552D01*
X146795109Y-74652384D01*
X146890655Y-74683949D01*
X146984550Y-74720167D01*
X147076531Y-74760940D01*
X147166416Y-74806185D01*
X147253968Y-74855782D01*
X147338971Y-74909610D01*
X147421246Y-74967554D01*
X147500578Y-75029466D01*
X147576770Y-75095190D01*
X147652892Y-75167664D01*
X151032374Y-78547148D01*
X151104810Y-78623230D01*
X151170541Y-78699431D01*
X151232451Y-78778762D01*
X151290386Y-78861022D01*
X151344222Y-78946040D01*
X151393819Y-79033591D01*
X151439059Y-79123467D01*
X151479830Y-79215445D01*
X151516054Y-79309353D01*
X151547614Y-79404887D01*
X151574451Y-79501863D01*
X151596499Y-79600046D01*
X151613700Y-79699182D01*
X151626017Y-79799040D01*
X151633420Y-79899404D01*
X151636000Y-80004455D01*
X151636001Y-92914446D01*
X151634863Y-92926000D01*
X151634863Y-94340000D01*
X151565137Y-94340000D01*
X151565137Y-92926000D01*
X151564000Y-92914455D01*
X151564000Y-83713398D01*
X151564329Y-83708938D01*
X151564000Y-83695541D01*
X151564000Y-83682120D01*
X151563561Y-83677662D01*
X151561200Y-83581539D01*
X151561420Y-83572594D01*
X151560761Y-83563667D01*
X151560542Y-83554730D01*
X151559448Y-83545860D01*
X151552044Y-83445496D01*
X151551825Y-83436553D01*
X151550730Y-83427673D01*
X151550072Y-83418757D01*
X151548544Y-83409949D01*
X151536224Y-83310069D01*
X151535566Y-83301147D01*
X151534036Y-83292331D01*
X151532942Y-83283459D01*
X151530984Y-83274738D01*
X151513777Y-83175573D01*
X151512683Y-83166701D01*
X151510725Y-83157982D01*
X151509195Y-83149164D01*
X151506808Y-83140538D01*
X151484761Y-83042362D01*
X151483231Y-83033542D01*
X151480843Y-83024912D01*
X151478885Y-83016194D01*
X151476083Y-83007712D01*
X151449241Y-82910717D01*
X151447280Y-82901987D01*
X151444474Y-82893493D01*
X151442089Y-82884875D01*
X151438870Y-82876530D01*
X151407306Y-82780985D01*
X151404918Y-82772355D01*
X151401695Y-82764000D01*
X151398893Y-82755518D01*
X151395273Y-82747352D01*
X151359048Y-82653443D01*
X151356246Y-82644960D01*
X151352624Y-82636790D01*
X151349402Y-82628436D01*
X151345378Y-82620441D01*
X151304601Y-82528450D01*
X151301381Y-82520102D01*
X151297360Y-82512114D01*
X151293736Y-82503938D01*
X151289328Y-82496156D01*
X151244078Y-82406262D01*
X151240456Y-82398090D01*
X151236050Y-82390312D01*
X151232026Y-82382318D01*
X151227239Y-82374758D01*
X151177637Y-82287199D01*
X151173618Y-82279214D01*
X151168836Y-82271662D01*
X151164424Y-82263874D01*
X151159271Y-82256558D01*
X151105439Y-82171547D01*
X151101027Y-82163758D01*
X151095872Y-82156439D01*
X151091092Y-82148890D01*
X151085593Y-82141844D01*
X151027647Y-82059568D01*
X151022859Y-82052007D01*
X151017352Y-82044950D01*
X151012204Y-82037641D01*
X151006366Y-82030873D01*
X150944452Y-81951537D01*
X150939299Y-81944221D01*
X150933454Y-81937445D01*
X150927956Y-81930400D01*
X150921791Y-81923924D01*
X150856057Y-81847721D01*
X150850555Y-81840671D01*
X150844386Y-81834192D01*
X150838544Y-81827419D01*
X150832067Y-81821252D01*
X150765764Y-81751612D01*
X150762922Y-81748149D01*
X150753428Y-81738655D01*
X150744190Y-81728952D01*
X150740805Y-81726032D01*
X148753980Y-79739208D01*
X148751048Y-79735809D01*
X148741305Y-79726533D01*
X148731849Y-79717077D01*
X148728399Y-79714246D01*
X148658745Y-79647930D01*
X148652578Y-79641453D01*
X148645806Y-79635611D01*
X148639327Y-79629443D01*
X148632277Y-79623941D01*
X148556077Y-79558210D01*
X148549599Y-79552043D01*
X148542548Y-79546540D01*
X148535774Y-79540697D01*
X148528463Y-79535548D01*
X148449123Y-79473630D01*
X148442355Y-79467792D01*
X148435049Y-79462646D01*
X148427993Y-79457140D01*
X148420430Y-79452351D01*
X148338152Y-79394404D01*
X148331109Y-79388908D01*
X148323559Y-79384127D01*
X148316238Y-79378971D01*
X148308450Y-79374560D01*
X148223436Y-79320725D01*
X148216123Y-79315574D01*
X148208341Y-79311166D01*
X148200787Y-79306382D01*
X148192799Y-79302361D01*
X148105234Y-79252756D01*
X148097680Y-79247973D01*
X148089693Y-79243953D01*
X148081907Y-79239542D01*
X148073728Y-79235917D01*
X147983844Y-79190673D01*
X147976063Y-79186265D01*
X147967886Y-79182640D01*
X147959895Y-79178618D01*
X147951551Y-79175399D01*
X147859550Y-79134617D01*
X147851559Y-79130595D01*
X147843217Y-79127377D01*
X147835041Y-79123753D01*
X147826544Y-79120946D01*
X147732666Y-79084734D01*
X147724481Y-79081106D01*
X147715974Y-79078296D01*
X147707640Y-79075081D01*
X147699031Y-79072698D01*
X147603472Y-79041130D01*
X147595126Y-79037911D01*
X147586502Y-79035524D01*
X147578010Y-79032719D01*
X147569284Y-79030759D01*
X147472303Y-79003920D01*
X147463802Y-79001112D01*
X147455068Y-78999151D01*
X147446458Y-78996768D01*
X147437652Y-78995240D01*
X147339451Y-78973189D01*
X147330834Y-78970804D01*
X147322024Y-78969275D01*
X147313294Y-78967315D01*
X147304415Y-78966220D01*
X147205267Y-78949017D01*
X147196540Y-78947057D01*
X147187662Y-78945962D01*
X147178850Y-78944433D01*
X147169933Y-78943775D01*
X147070052Y-78931456D01*
X147061242Y-78929927D01*
X147052324Y-78929269D01*
X147043445Y-78928174D01*
X147034504Y-78927955D01*
X146934133Y-78920551D01*
X146925266Y-78919457D01*
X146916334Y-78919238D01*
X146907404Y-78918579D01*
X146898455Y-78918799D01*
X146802336Y-78916439D01*
X146797880Y-78916000D01*
X146784459Y-78916000D01*
X146771059Y-78915671D01*
X146766599Y-78916000D01*
X140451545Y-78916000D01*
X140440000Y-78914863D01*
X140433238Y-78914863D01*
X140073568Y-78578372D01*
X140060974Y-78563026D01*
X140025191Y-78533659D01*
X139984366Y-78511838D01*
X139940068Y-78498400D01*
X139894000Y-78493863D01*
X137294000Y-78493863D01*
X137247932Y-78498400D01*
X137203634Y-78511838D01*
X137179000Y-78525005D01*
X137179000Y-77543990D01*
X137180378Y-77530000D01*
X137174875Y-77474130D01*
X137158579Y-77420408D01*
X137132115Y-77370897D01*
X137096500Y-77327500D01*
X137053103Y-77291885D01*
X137003592Y-77265421D01*
X136949870Y-77249125D01*
X136907990Y-77245000D01*
X136894000Y-77243622D01*
X136880010Y-77245000D01*
X132654000Y-77245000D01*
X132654000Y-76235000D01*
X136880010Y-76235000D01*
X136894000Y-76236378D01*
X136907990Y-76235000D01*
X136949870Y-76230875D01*
X137003592Y-76214579D01*
X137053103Y-76188115D01*
X137096500Y-76152500D01*
X137132115Y-76109103D01*
X137158579Y-76059592D01*
X137174875Y-76005870D01*
X137180378Y-75950000D01*
X137179000Y-75936010D01*
X137179000Y-74954995D01*
X137203634Y-74968162D01*
X137247932Y-74981600D01*
X137294000Y-74986137D01*
X139894000Y-74986137D01*
X139913505Y-74984216D01*
X139928336Y-74983004D01*
X139929808Y-74982610D01*
X139940068Y-74981600D01*
X139984366Y-74968162D01*
X140025191Y-74946341D01*
X140060974Y-74916974D01*
X140073568Y-74901628D01*
X140433238Y-74565137D01*
X140440000Y-74565137D01*
X140451545Y-74564000D01*
X146195554Y-74564000D01*
X146300597Y-74566579D01*
G36*
X146880597Y-79646579D02*
G01*
X146980960Y-79653982D01*
X147080815Y-79666299D01*
X147179950Y-79683500D01*
X147278152Y-79705552D01*
X147375109Y-79732384D01*
X147470655Y-79763949D01*
X147564550Y-79800167D01*
X147656531Y-79840940D01*
X147746416Y-79886185D01*
X147833968Y-79935782D01*
X147918971Y-79989610D01*
X148001246Y-80047554D01*
X148080578Y-80109466D01*
X148156770Y-80175190D01*
X148232892Y-80247664D01*
X150232354Y-82247127D01*
X150304810Y-82323230D01*
X150370541Y-82399431D01*
X150432451Y-82478762D01*
X150490386Y-82561022D01*
X150544222Y-82646040D01*
X150593819Y-82733591D01*
X150639059Y-82823467D01*
X150679830Y-82915445D01*
X150716054Y-83009353D01*
X150747614Y-83104887D01*
X150774451Y-83201863D01*
X150796499Y-83300046D01*
X150813700Y-83399182D01*
X150826017Y-83499040D01*
X150833420Y-83599404D01*
X150836000Y-83704455D01*
X150836001Y-92914446D01*
X150834863Y-92926000D01*
X150834863Y-94340000D01*
X150765137Y-94340000D01*
X150765137Y-92926000D01*
X150764000Y-92914455D01*
X150764000Y-87013398D01*
X150764329Y-87008938D01*
X150764000Y-86995541D01*
X150764000Y-86982120D01*
X150763561Y-86977662D01*
X150761200Y-86881539D01*
X150761420Y-86872594D01*
X150760761Y-86863667D01*
X150760542Y-86854730D01*
X150759448Y-86845860D01*
X150752044Y-86745496D01*
X150751825Y-86736553D01*
X150750730Y-86727673D01*
X150750072Y-86718757D01*
X150748544Y-86709949D01*
X150736224Y-86610069D01*
X150735566Y-86601147D01*
X150734036Y-86592331D01*
X150732942Y-86583459D01*
X150730984Y-86574738D01*
X150713779Y-86475582D01*
X150712684Y-86466704D01*
X150710724Y-86457974D01*
X150709195Y-86449164D01*
X150706810Y-86440548D01*
X150684760Y-86342350D01*
X150683231Y-86333540D01*
X150680847Y-86324926D01*
X150678887Y-86316197D01*
X150676079Y-86307696D01*
X150649242Y-86210722D01*
X150647280Y-86201987D01*
X150644471Y-86193486D01*
X150642088Y-86184873D01*
X150638872Y-86176537D01*
X150607306Y-86080985D01*
X150604918Y-86072355D01*
X150601695Y-86064000D01*
X150598893Y-86055518D01*
X150595273Y-86047352D01*
X150559048Y-85953443D01*
X150556246Y-85944960D01*
X150552624Y-85936790D01*
X150549402Y-85928436D01*
X150545378Y-85920441D01*
X150504601Y-85828450D01*
X150501381Y-85820102D01*
X150497360Y-85812114D01*
X150493736Y-85803938D01*
X150489328Y-85796156D01*
X150444082Y-85706269D01*
X150440457Y-85698091D01*
X150436047Y-85690305D01*
X150432026Y-85682318D01*
X150427243Y-85674764D01*
X150377638Y-85587200D01*
X150373617Y-85579211D01*
X150368833Y-85571657D01*
X150364425Y-85563875D01*
X150359274Y-85556562D01*
X150305441Y-85471550D01*
X150301027Y-85463758D01*
X150295869Y-85456435D01*
X150291091Y-85448889D01*
X150285595Y-85441847D01*
X150227647Y-85359568D01*
X150222859Y-85352007D01*
X150217352Y-85344950D01*
X150212204Y-85337641D01*
X150206366Y-85330873D01*
X150144458Y-85251545D01*
X150139301Y-85244223D01*
X150133451Y-85237442D01*
X150127956Y-85230400D01*
X150121795Y-85223929D01*
X150056054Y-85147716D01*
X150050553Y-85140668D01*
X150044388Y-85134193D01*
X150038545Y-85127419D01*
X150032067Y-85121251D01*
X149965764Y-85051611D01*
X149962922Y-85048148D01*
X149953427Y-85038653D01*
X149944189Y-85028950D01*
X149940805Y-85026031D01*
X147573980Y-82659208D01*
X147571048Y-82655809D01*
X147561305Y-82646533D01*
X147551849Y-82637077D01*
X147548399Y-82634246D01*
X147478753Y-82567938D01*
X147472580Y-82561454D01*
X147465798Y-82555604D01*
X147459327Y-82549443D01*
X147452286Y-82543948D01*
X147376081Y-82478213D01*
X147369599Y-82472042D01*
X147362544Y-82466536D01*
X147355777Y-82460699D01*
X147348469Y-82455552D01*
X147269125Y-82393632D01*
X147262357Y-82387794D01*
X147255049Y-82382647D01*
X147247991Y-82377139D01*
X147240430Y-82372351D01*
X147158162Y-82314411D01*
X147151109Y-82308907D01*
X147143550Y-82304120D01*
X147136240Y-82298972D01*
X147128461Y-82294565D01*
X147043436Y-82240724D01*
X147036123Y-82235573D01*
X147028341Y-82231165D01*
X147020787Y-82226381D01*
X147012799Y-82222360D01*
X146925234Y-82172755D01*
X146917680Y-82167972D01*
X146909693Y-82163952D01*
X146901907Y-82159541D01*
X146893728Y-82155916D01*
X146803850Y-82110675D01*
X146796062Y-82106263D01*
X146787878Y-82102635D01*
X146779895Y-82098617D01*
X146771557Y-82095401D01*
X146679545Y-82054614D01*
X146671562Y-82050596D01*
X146663223Y-82047379D01*
X146655040Y-82043752D01*
X146646541Y-82040945D01*
X146552657Y-82004730D01*
X146544481Y-82001105D01*
X146535986Y-81998299D01*
X146527642Y-81995080D01*
X146519020Y-81992694D01*
X146423465Y-81961127D01*
X146415122Y-81957909D01*
X146406505Y-81955524D01*
X146398010Y-81952718D01*
X146389280Y-81950757D01*
X146292292Y-81923917D01*
X146283804Y-81921113D01*
X146275081Y-81919154D01*
X146266455Y-81916767D01*
X146257640Y-81915237D01*
X146159461Y-81893190D01*
X146150834Y-81890803D01*
X146142017Y-81889273D01*
X146133297Y-81887315D01*
X146124424Y-81886221D01*
X146025267Y-81869016D01*
X146016540Y-81867056D01*
X146007662Y-81865961D01*
X145998850Y-81864432D01*
X145989933Y-81863774D01*
X145890052Y-81851455D01*
X145881242Y-81849926D01*
X145872324Y-81849268D01*
X145863445Y-81848173D01*
X145854504Y-81847954D01*
X145754129Y-81840549D01*
X145745263Y-81839456D01*
X145736336Y-81839237D01*
X145727404Y-81838578D01*
X145718450Y-81838798D01*
X145622334Y-81836439D01*
X145617880Y-81836000D01*
X145604460Y-81836000D01*
X145591056Y-81835671D01*
X145586597Y-81836000D01*
X144713404Y-81836000D01*
X144708945Y-81835671D01*
X144695541Y-81836000D01*
X144682120Y-81836000D01*
X144677665Y-81836439D01*
X144581549Y-81838798D01*
X144572594Y-81838578D01*
X144563661Y-81839237D01*
X144554736Y-81839456D01*
X144545871Y-81840549D01*
X144445496Y-81847954D01*
X144436553Y-81848173D01*
X144427673Y-81849268D01*
X144418757Y-81849926D01*
X144409949Y-81851454D01*
X144310067Y-81863774D01*
X144301148Y-81864432D01*
X144292334Y-81865961D01*
X144283459Y-81867056D01*
X144274735Y-81869015D01*
X144175578Y-81886220D01*
X144166699Y-81887315D01*
X144157973Y-81889275D01*
X144149164Y-81890803D01*
X144140545Y-81893188D01*
X144042357Y-81915237D01*
X144033542Y-81916767D01*
X144024916Y-81919154D01*
X144016193Y-81921113D01*
X144007706Y-81923917D01*
X143910717Y-81950757D01*
X143901987Y-81952718D01*
X143893493Y-81955524D01*
X143884875Y-81957909D01*
X143876530Y-81961128D01*
X143780983Y-81992693D01*
X143772356Y-81995080D01*
X143764006Y-81998301D01*
X143755518Y-82001105D01*
X143747347Y-82004727D01*
X143653451Y-82040947D01*
X143644959Y-82043752D01*
X143636782Y-82047377D01*
X143628436Y-82050596D01*
X143620448Y-82054617D01*
X143528449Y-82095397D01*
X143520101Y-82098617D01*
X143512113Y-82102638D01*
X143503937Y-82106262D01*
X143496155Y-82110670D01*
X143406261Y-82155920D01*
X143398089Y-82159542D01*
X143390311Y-82163948D01*
X143382317Y-82167972D01*
X143374757Y-82172759D01*
X143287198Y-82222361D01*
X143279213Y-82226380D01*
X143271661Y-82231162D01*
X143263873Y-82235574D01*
X143256557Y-82240727D01*
X143171544Y-82294560D01*
X143163759Y-82298970D01*
X143156442Y-82304123D01*
X143148889Y-82308906D01*
X143141842Y-82314406D01*
X143059553Y-82372360D01*
X143052004Y-82377140D01*
X143044961Y-82382636D01*
X143037642Y-82387791D01*
X143030864Y-82393638D01*
X142951537Y-82455545D01*
X142944222Y-82460697D01*
X142937447Y-82466541D01*
X142930397Y-82472043D01*
X142923921Y-82478209D01*
X142847714Y-82543945D01*
X142840666Y-82549446D01*
X142834194Y-82555608D01*
X142827418Y-82561453D01*
X142821246Y-82567936D01*
X142751615Y-82634231D01*
X142748147Y-82637077D01*
X142738634Y-82646590D01*
X142728948Y-82655812D01*
X142726035Y-82659189D01*
X141984879Y-83400347D01*
X141908758Y-83472819D01*
X141832574Y-83538536D01*
X141753256Y-83600437D01*
X141670974Y-83658387D01*
X141585968Y-83712217D01*
X141498416Y-83761814D01*
X141408536Y-83807056D01*
X141316539Y-83847836D01*
X141222657Y-83884050D01*
X141127121Y-83915611D01*
X141030137Y-83942450D01*
X140931953Y-83964499D01*
X140832815Y-83981700D01*
X140732960Y-83994017D01*
X140632595Y-84001420D01*
X140527545Y-84004000D01*
X140432316Y-84004000D01*
X140080637Y-83674985D01*
X140060974Y-83651026D01*
X140025191Y-83621659D01*
X139984366Y-83599838D01*
X139940068Y-83586400D01*
X139894000Y-83581863D01*
X137294000Y-83581863D01*
X137247932Y-83586400D01*
X137203634Y-83599838D01*
X137179000Y-83613005D01*
X137179000Y-82631990D01*
X137180378Y-82618000D01*
X137174875Y-82562130D01*
X137158579Y-82508408D01*
X137132115Y-82458897D01*
X137096500Y-82415500D01*
X137053103Y-82379885D01*
X137003592Y-82353421D01*
X136949870Y-82337125D01*
X136920539Y-82334236D01*
X136894000Y-82331622D01*
X136880010Y-82333000D01*
X132654000Y-82333000D01*
X132654000Y-81315000D01*
X136880010Y-81315000D01*
X136894000Y-81316378D01*
X136907990Y-81315000D01*
X136949870Y-81310875D01*
X137003592Y-81294579D01*
X137053103Y-81268115D01*
X137096500Y-81232500D01*
X137132115Y-81189103D01*
X137158579Y-81139592D01*
X137174875Y-81085870D01*
X137180378Y-81030000D01*
X137179000Y-81016010D01*
X137179000Y-80034995D01*
X137203634Y-80048162D01*
X137247932Y-80061600D01*
X137294000Y-80066137D01*
X139894000Y-80066137D01*
X139913505Y-80064216D01*
X139928336Y-80063004D01*
X139929808Y-80062610D01*
X139940068Y-80061600D01*
X139984366Y-80048162D01*
X140025191Y-80026341D01*
X140060974Y-79996974D01*
X140073568Y-79981628D01*
X140433238Y-79645137D01*
X140440000Y-79645137D01*
X140451545Y-79644000D01*
X146775554Y-79644000D01*
X146880597Y-79646579D01*
X146880597Y-79646579D01*
G37*
X146880597Y-79646579D02*
X146980960Y-79653982D01*
X147080815Y-79666299D01*
X147179950Y-79683500D01*
X147278152Y-79705552D01*
X147375109Y-79732384D01*
X147470655Y-79763949D01*
X147564550Y-79800167D01*
X147656531Y-79840940D01*
X147746416Y-79886185D01*
X147833968Y-79935782D01*
X147918971Y-79989610D01*
X148001246Y-80047554D01*
X148080578Y-80109466D01*
X148156770Y-80175190D01*
X148232892Y-80247664D01*
X150232354Y-82247127D01*
X150304810Y-82323230D01*
X150370541Y-82399431D01*
X150432451Y-82478762D01*
X150490386Y-82561022D01*
X150544222Y-82646040D01*
X150593819Y-82733591D01*
X150639059Y-82823467D01*
X150679830Y-82915445D01*
X150716054Y-83009353D01*
X150747614Y-83104887D01*
X150774451Y-83201863D01*
X150796499Y-83300046D01*
X150813700Y-83399182D01*
X150826017Y-83499040D01*
X150833420Y-83599404D01*
X150836000Y-83704455D01*
X150836001Y-92914446D01*
X150834863Y-92926000D01*
X150834863Y-94340000D01*
X150765137Y-94340000D01*
X150765137Y-92926000D01*
X150764000Y-92914455D01*
X150764000Y-87013398D01*
X150764329Y-87008938D01*
X150764000Y-86995541D01*
X150764000Y-86982120D01*
X150763561Y-86977662D01*
X150761200Y-86881539D01*
X150761420Y-86872594D01*
X150760761Y-86863667D01*
X150760542Y-86854730D01*
X150759448Y-86845860D01*
X150752044Y-86745496D01*
X150751825Y-86736553D01*
X150750730Y-86727673D01*
X150750072Y-86718757D01*
X150748544Y-86709949D01*
X150736224Y-86610069D01*
X150735566Y-86601147D01*
X150734036Y-86592331D01*
X150732942Y-86583459D01*
X150730984Y-86574738D01*
X150713779Y-86475582D01*
X150712684Y-86466704D01*
X150710724Y-86457974D01*
X150709195Y-86449164D01*
X150706810Y-86440548D01*
X150684760Y-86342350D01*
X150683231Y-86333540D01*
X150680847Y-86324926D01*
X150678887Y-86316197D01*
X150676079Y-86307696D01*
X150649242Y-86210722D01*
X150647280Y-86201987D01*
X150644471Y-86193486D01*
X150642088Y-86184873D01*
X150638872Y-86176537D01*
X150607306Y-86080985D01*
X150604918Y-86072355D01*
X150601695Y-86064000D01*
X150598893Y-86055518D01*
X150595273Y-86047352D01*
X150559048Y-85953443D01*
X150556246Y-85944960D01*
X150552624Y-85936790D01*
X150549402Y-85928436D01*
X150545378Y-85920441D01*
X150504601Y-85828450D01*
X150501381Y-85820102D01*
X150497360Y-85812114D01*
X150493736Y-85803938D01*
X150489328Y-85796156D01*
X150444082Y-85706269D01*
X150440457Y-85698091D01*
X150436047Y-85690305D01*
X150432026Y-85682318D01*
X150427243Y-85674764D01*
X150377638Y-85587200D01*
X150373617Y-85579211D01*
X150368833Y-85571657D01*
X150364425Y-85563875D01*
X150359274Y-85556562D01*
X150305441Y-85471550D01*
X150301027Y-85463758D01*
X150295869Y-85456435D01*
X150291091Y-85448889D01*
X150285595Y-85441847D01*
X150227647Y-85359568D01*
X150222859Y-85352007D01*
X150217352Y-85344950D01*
X150212204Y-85337641D01*
X150206366Y-85330873D01*
X150144458Y-85251545D01*
X150139301Y-85244223D01*
X150133451Y-85237442D01*
X150127956Y-85230400D01*
X150121795Y-85223929D01*
X150056054Y-85147716D01*
X150050553Y-85140668D01*
X150044388Y-85134193D01*
X150038545Y-85127419D01*
X150032067Y-85121251D01*
X149965764Y-85051611D01*
X149962922Y-85048148D01*
X149953427Y-85038653D01*
X149944189Y-85028950D01*
X149940805Y-85026031D01*
X147573980Y-82659208D01*
X147571048Y-82655809D01*
X147561305Y-82646533D01*
X147551849Y-82637077D01*
X147548399Y-82634246D01*
X147478753Y-82567938D01*
X147472580Y-82561454D01*
X147465798Y-82555604D01*
X147459327Y-82549443D01*
X147452286Y-82543948D01*
X147376081Y-82478213D01*
X147369599Y-82472042D01*
X147362544Y-82466536D01*
X147355777Y-82460699D01*
X147348469Y-82455552D01*
X147269125Y-82393632D01*
X147262357Y-82387794D01*
X147255049Y-82382647D01*
X147247991Y-82377139D01*
X147240430Y-82372351D01*
X147158162Y-82314411D01*
X147151109Y-82308907D01*
X147143550Y-82304120D01*
X147136240Y-82298972D01*
X147128461Y-82294565D01*
X147043436Y-82240724D01*
X147036123Y-82235573D01*
X147028341Y-82231165D01*
X147020787Y-82226381D01*
X147012799Y-82222360D01*
X146925234Y-82172755D01*
X146917680Y-82167972D01*
X146909693Y-82163952D01*
X146901907Y-82159541D01*
X146893728Y-82155916D01*
X146803850Y-82110675D01*
X146796062Y-82106263D01*
X146787878Y-82102635D01*
X146779895Y-82098617D01*
X146771557Y-82095401D01*
X146679545Y-82054614D01*
X146671562Y-82050596D01*
X146663223Y-82047379D01*
X146655040Y-82043752D01*
X146646541Y-82040945D01*
X146552657Y-82004730D01*
X146544481Y-82001105D01*
X146535986Y-81998299D01*
X146527642Y-81995080D01*
X146519020Y-81992694D01*
X146423465Y-81961127D01*
X146415122Y-81957909D01*
X146406505Y-81955524D01*
X146398010Y-81952718D01*
X146389280Y-81950757D01*
X146292292Y-81923917D01*
X146283804Y-81921113D01*
X146275081Y-81919154D01*
X146266455Y-81916767D01*
X146257640Y-81915237D01*
X146159461Y-81893190D01*
X146150834Y-81890803D01*
X146142017Y-81889273D01*
X146133297Y-81887315D01*
X146124424Y-81886221D01*
X146025267Y-81869016D01*
X146016540Y-81867056D01*
X146007662Y-81865961D01*
X145998850Y-81864432D01*
X145989933Y-81863774D01*
X145890052Y-81851455D01*
X145881242Y-81849926D01*
X145872324Y-81849268D01*
X145863445Y-81848173D01*
X145854504Y-81847954D01*
X145754129Y-81840549D01*
X145745263Y-81839456D01*
X145736336Y-81839237D01*
X145727404Y-81838578D01*
X145718450Y-81838798D01*
X145622334Y-81836439D01*
X145617880Y-81836000D01*
X145604460Y-81836000D01*
X145591056Y-81835671D01*
X145586597Y-81836000D01*
X144713404Y-81836000D01*
X144708945Y-81835671D01*
X144695541Y-81836000D01*
X144682120Y-81836000D01*
X144677665Y-81836439D01*
X144581549Y-81838798D01*
X144572594Y-81838578D01*
X144563661Y-81839237D01*
X144554736Y-81839456D01*
X144545871Y-81840549D01*
X144445496Y-81847954D01*
X144436553Y-81848173D01*
X144427673Y-81849268D01*
X144418757Y-81849926D01*
X144409949Y-81851454D01*
X144310067Y-81863774D01*
X144301148Y-81864432D01*
X144292334Y-81865961D01*
X144283459Y-81867056D01*
X144274735Y-81869015D01*
X144175578Y-81886220D01*
X144166699Y-81887315D01*
X144157973Y-81889275D01*
X144149164Y-81890803D01*
X144140545Y-81893188D01*
X144042357Y-81915237D01*
X144033542Y-81916767D01*
X144024916Y-81919154D01*
X144016193Y-81921113D01*
X144007706Y-81923917D01*
X143910717Y-81950757D01*
X143901987Y-81952718D01*
X143893493Y-81955524D01*
X143884875Y-81957909D01*
X143876530Y-81961128D01*
X143780983Y-81992693D01*
X143772356Y-81995080D01*
X143764006Y-81998301D01*
X143755518Y-82001105D01*
X143747347Y-82004727D01*
X143653451Y-82040947D01*
X143644959Y-82043752D01*
X143636782Y-82047377D01*
X143628436Y-82050596D01*
X143620448Y-82054617D01*
X143528449Y-82095397D01*
X143520101Y-82098617D01*
X143512113Y-82102638D01*
X143503937Y-82106262D01*
X143496155Y-82110670D01*
X143406261Y-82155920D01*
X143398089Y-82159542D01*
X143390311Y-82163948D01*
X143382317Y-82167972D01*
X143374757Y-82172759D01*
X143287198Y-82222361D01*
X143279213Y-82226380D01*
X143271661Y-82231162D01*
X143263873Y-82235574D01*
X143256557Y-82240727D01*
X143171544Y-82294560D01*
X143163759Y-82298970D01*
X143156442Y-82304123D01*
X143148889Y-82308906D01*
X143141842Y-82314406D01*
X143059553Y-82372360D01*
X143052004Y-82377140D01*
X143044961Y-82382636D01*
X143037642Y-82387791D01*
X143030864Y-82393638D01*
X142951537Y-82455545D01*
X142944222Y-82460697D01*
X142937447Y-82466541D01*
X142930397Y-82472043D01*
X142923921Y-82478209D01*
X142847714Y-82543945D01*
X142840666Y-82549446D01*
X142834194Y-82555608D01*
X142827418Y-82561453D01*
X142821246Y-82567936D01*
X142751615Y-82634231D01*
X142748147Y-82637077D01*
X142738634Y-82646590D01*
X142728948Y-82655812D01*
X142726035Y-82659189D01*
X141984879Y-83400347D01*
X141908758Y-83472819D01*
X141832574Y-83538536D01*
X141753256Y-83600437D01*
X141670974Y-83658387D01*
X141585968Y-83712217D01*
X141498416Y-83761814D01*
X141408536Y-83807056D01*
X141316539Y-83847836D01*
X141222657Y-83884050D01*
X141127121Y-83915611D01*
X141030137Y-83942450D01*
X140931953Y-83964499D01*
X140832815Y-83981700D01*
X140732960Y-83994017D01*
X140632595Y-84001420D01*
X140527545Y-84004000D01*
X140432316Y-84004000D01*
X140080637Y-83674985D01*
X140060974Y-83651026D01*
X140025191Y-83621659D01*
X139984366Y-83599838D01*
X139940068Y-83586400D01*
X139894000Y-83581863D01*
X137294000Y-83581863D01*
X137247932Y-83586400D01*
X137203634Y-83599838D01*
X137179000Y-83613005D01*
X137179000Y-82631990D01*
X137180378Y-82618000D01*
X137174875Y-82562130D01*
X137158579Y-82508408D01*
X137132115Y-82458897D01*
X137096500Y-82415500D01*
X137053103Y-82379885D01*
X137003592Y-82353421D01*
X136949870Y-82337125D01*
X136920539Y-82334236D01*
X136894000Y-82331622D01*
X136880010Y-82333000D01*
X132654000Y-82333000D01*
X132654000Y-81315000D01*
X136880010Y-81315000D01*
X136894000Y-81316378D01*
X136907990Y-81315000D01*
X136949870Y-81310875D01*
X137003592Y-81294579D01*
X137053103Y-81268115D01*
X137096500Y-81232500D01*
X137132115Y-81189103D01*
X137158579Y-81139592D01*
X137174875Y-81085870D01*
X137180378Y-81030000D01*
X137179000Y-81016010D01*
X137179000Y-80034995D01*
X137203634Y-80048162D01*
X137247932Y-80061600D01*
X137294000Y-80066137D01*
X139894000Y-80066137D01*
X139913505Y-80064216D01*
X139928336Y-80063004D01*
X139929808Y-80062610D01*
X139940068Y-80061600D01*
X139984366Y-80048162D01*
X140025191Y-80026341D01*
X140060974Y-79996974D01*
X140073568Y-79981628D01*
X140433238Y-79645137D01*
X140440000Y-79645137D01*
X140451545Y-79644000D01*
X146775554Y-79644000D01*
X146880597Y-79646579D01*
G36*
X164360000Y-74575137D02*
G01*
X164366762Y-74575137D01*
X164733501Y-74918242D01*
X164739026Y-74924974D01*
X164774809Y-74954341D01*
X164815634Y-74976162D01*
X164816231Y-74976343D01*
X164819634Y-74978162D01*
X164863932Y-74991600D01*
X164910000Y-74996137D01*
X165410000Y-74996137D01*
X165430308Y-74994137D01*
X167506000Y-74994137D01*
X167552068Y-74989600D01*
X167596366Y-74976162D01*
X167621001Y-74962995D01*
X167621001Y-75944000D01*
X167619622Y-75958000D01*
X167625125Y-76013870D01*
X167641421Y-76067592D01*
X167667885Y-76117103D01*
X167703500Y-76160500D01*
X167746897Y-76196115D01*
X167796408Y-76222579D01*
X167850130Y-76238875D01*
X167892010Y-76243000D01*
X167906000Y-76244378D01*
X167919990Y-76243000D01*
X172146000Y-76243000D01*
X172146001Y-77253000D01*
X167919990Y-77253000D01*
X167906000Y-77251622D01*
X167892010Y-77253000D01*
X167850130Y-77257125D01*
X167796408Y-77273421D01*
X167746897Y-77299885D01*
X167703500Y-77335500D01*
X167667885Y-77378897D01*
X167641421Y-77428408D01*
X167625125Y-77482130D01*
X167619622Y-77538000D01*
X167621000Y-77551990D01*
X167621000Y-78533005D01*
X167596366Y-78519838D01*
X167552068Y-78506400D01*
X167506000Y-78501863D01*
X164906000Y-78501863D01*
X164859932Y-78506400D01*
X164830516Y-78515324D01*
X164816944Y-78518952D01*
X164775416Y-78539402D01*
X164738675Y-78567562D01*
X164357684Y-78924000D01*
X157999404Y-78924000D01*
X157994945Y-78923671D01*
X157981541Y-78924000D01*
X157968120Y-78924000D01*
X157963665Y-78924439D01*
X157867549Y-78926798D01*
X157858594Y-78926578D01*
X157849661Y-78927237D01*
X157840736Y-78927456D01*
X157831871Y-78928549D01*
X157731496Y-78935954D01*
X157722553Y-78936173D01*
X157713673Y-78937268D01*
X157704757Y-78937926D01*
X157695949Y-78939454D01*
X157596069Y-78951774D01*
X157587147Y-78952432D01*
X157578331Y-78953962D01*
X157569459Y-78955056D01*
X157560738Y-78957014D01*
X157461573Y-78974221D01*
X157452701Y-78975315D01*
X157443982Y-78977273D01*
X157435164Y-78978803D01*
X157426538Y-78981190D01*
X157328362Y-79003237D01*
X157319542Y-79004767D01*
X157310912Y-79007155D01*
X157302194Y-79009113D01*
X157293712Y-79011915D01*
X157196717Y-79038757D01*
X157187987Y-79040718D01*
X157179493Y-79043524D01*
X157170875Y-79045909D01*
X157162530Y-79049128D01*
X157066985Y-79080692D01*
X157058355Y-79083080D01*
X157050000Y-79086303D01*
X157041518Y-79089105D01*
X157033352Y-79092725D01*
X156939443Y-79128950D01*
X156930960Y-79131752D01*
X156922790Y-79135374D01*
X156914436Y-79138596D01*
X156906441Y-79142620D01*
X156814450Y-79183397D01*
X156806102Y-79186617D01*
X156798114Y-79190638D01*
X156789938Y-79194262D01*
X156782156Y-79198670D01*
X156692262Y-79243920D01*
X156684090Y-79247542D01*
X156676312Y-79251948D01*
X156668318Y-79255972D01*
X156660758Y-79260759D01*
X156573199Y-79310361D01*
X156565214Y-79314380D01*
X156557662Y-79319162D01*
X156549874Y-79323574D01*
X156542558Y-79328727D01*
X156457547Y-79382559D01*
X156449758Y-79386971D01*
X156442439Y-79392126D01*
X156434890Y-79396906D01*
X156427844Y-79402405D01*
X156345568Y-79460351D01*
X156338007Y-79465139D01*
X156330950Y-79470646D01*
X156323641Y-79475794D01*
X156316873Y-79481632D01*
X156237537Y-79543546D01*
X156230221Y-79548699D01*
X156223445Y-79554544D01*
X156216400Y-79560042D01*
X156209924Y-79566207D01*
X156133728Y-79631935D01*
X156126669Y-79637444D01*
X156120182Y-79643620D01*
X156113419Y-79649454D01*
X156107260Y-79655923D01*
X156037604Y-79722242D01*
X156034149Y-79725077D01*
X156024676Y-79734550D01*
X156014950Y-79743810D01*
X156012025Y-79747201D01*
X154059203Y-81700024D01*
X154055811Y-81702950D01*
X154046550Y-81712677D01*
X154037077Y-81722150D01*
X154034243Y-81725603D01*
X153967934Y-81795249D01*
X153961454Y-81801418D01*
X153955611Y-81808192D01*
X153949444Y-81814669D01*
X153943942Y-81821719D01*
X153878213Y-81897917D01*
X153872042Y-81904399D01*
X153866536Y-81911454D01*
X153860699Y-81918221D01*
X153855552Y-81925529D01*
X153793632Y-82004873D01*
X153787794Y-82011641D01*
X153782647Y-82018949D01*
X153777139Y-82026007D01*
X153772351Y-82033568D01*
X153714415Y-82115831D01*
X153708906Y-82122890D01*
X153704117Y-82130452D01*
X153698972Y-82137758D01*
X153694566Y-82145535D01*
X153640727Y-82230558D01*
X153635574Y-82237874D01*
X153631162Y-82245662D01*
X153626380Y-82253214D01*
X153622361Y-82261199D01*
X153572759Y-82348758D01*
X153567972Y-82356318D01*
X153563948Y-82364312D01*
X153559542Y-82372090D01*
X153555919Y-82380264D01*
X153510672Y-82470154D01*
X153506263Y-82477937D01*
X153502639Y-82486113D01*
X153498617Y-82494103D01*
X153495397Y-82502450D01*
X153454621Y-82594440D01*
X153450596Y-82602436D01*
X153447373Y-82610790D01*
X153443752Y-82618960D01*
X153440950Y-82627443D01*
X153404727Y-82721346D01*
X153401105Y-82729517D01*
X153398301Y-82738005D01*
X153395080Y-82746355D01*
X153392693Y-82754980D01*
X153361127Y-82850533D01*
X153357909Y-82858876D01*
X153355524Y-82867493D01*
X153352718Y-82875988D01*
X153350757Y-82884718D01*
X153323918Y-82981704D01*
X153321113Y-82990194D01*
X153319154Y-82998917D01*
X153316767Y-83007543D01*
X153315239Y-83016350D01*
X153293190Y-83114539D01*
X153290803Y-83123165D01*
X153289273Y-83131982D01*
X153287315Y-83140702D01*
X153286221Y-83149575D01*
X153269016Y-83248732D01*
X153267056Y-83257459D01*
X153265961Y-83266337D01*
X153264432Y-83275149D01*
X153263774Y-83284066D01*
X153251455Y-83383947D01*
X153249926Y-83392757D01*
X153249268Y-83401675D01*
X153248173Y-83410554D01*
X153247954Y-83419495D01*
X153240549Y-83519870D01*
X153239456Y-83528736D01*
X153239237Y-83537663D01*
X153238578Y-83546595D01*
X153238798Y-83555549D01*
X153236439Y-83651667D01*
X153236000Y-83656121D01*
X153236000Y-83669540D01*
X153235671Y-83682944D01*
X153236000Y-83687403D01*
X153236001Y-92914446D01*
X153234863Y-92926000D01*
X153234863Y-94340000D01*
X153165137Y-94340000D01*
X153165137Y-92926000D01*
X153164000Y-92914455D01*
X153164000Y-80004437D01*
X153166578Y-79899400D01*
X153173981Y-79799039D01*
X153186298Y-79699184D01*
X153203500Y-79600041D01*
X153225547Y-79501864D01*
X153252387Y-79404877D01*
X153283946Y-79309349D01*
X153320165Y-79215453D01*
X153360940Y-79123467D01*
X153406183Y-79033584D01*
X153455776Y-78946040D01*
X153509611Y-78861025D01*
X153567561Y-78778742D01*
X153629462Y-78699424D01*
X153695176Y-78623244D01*
X153767680Y-78547091D01*
X157139114Y-75175658D01*
X157215233Y-75103185D01*
X157291431Y-75037457D01*
X157370762Y-74975547D01*
X157453022Y-74917612D01*
X157538040Y-74863776D01*
X157625591Y-74814179D01*
X157715467Y-74768939D01*
X157807445Y-74728168D01*
X157901353Y-74691944D01*
X157996887Y-74660384D01*
X158093863Y-74633547D01*
X158192046Y-74611499D01*
X158291182Y-74594298D01*
X158391040Y-74581981D01*
X158491400Y-74574578D01*
X158596437Y-74572000D01*
X164328147Y-74572000D01*
X164360000Y-74575137D01*
X164360000Y-74575137D01*
G37*
X164360000Y-74575137D02*
X164366762Y-74575137D01*
X164733501Y-74918242D01*
X164739026Y-74924974D01*
X164774809Y-74954341D01*
X164815634Y-74976162D01*
X164816231Y-74976343D01*
X164819634Y-74978162D01*
X164863932Y-74991600D01*
X164910000Y-74996137D01*
X165410000Y-74996137D01*
X165430308Y-74994137D01*
X167506000Y-74994137D01*
X167552068Y-74989600D01*
X167596366Y-74976162D01*
X167621001Y-74962995D01*
X167621001Y-75944000D01*
X167619622Y-75958000D01*
X167625125Y-76013870D01*
X167641421Y-76067592D01*
X167667885Y-76117103D01*
X167703500Y-76160500D01*
X167746897Y-76196115D01*
X167796408Y-76222579D01*
X167850130Y-76238875D01*
X167892010Y-76243000D01*
X167906000Y-76244378D01*
X167919990Y-76243000D01*
X172146000Y-76243000D01*
X172146001Y-77253000D01*
X167919990Y-77253000D01*
X167906000Y-77251622D01*
X167892010Y-77253000D01*
X167850130Y-77257125D01*
X167796408Y-77273421D01*
X167746897Y-77299885D01*
X167703500Y-77335500D01*
X167667885Y-77378897D01*
X167641421Y-77428408D01*
X167625125Y-77482130D01*
X167619622Y-77538000D01*
X167621000Y-77551990D01*
X167621000Y-78533005D01*
X167596366Y-78519838D01*
X167552068Y-78506400D01*
X167506000Y-78501863D01*
X164906000Y-78501863D01*
X164859932Y-78506400D01*
X164830516Y-78515324D01*
X164816944Y-78518952D01*
X164775416Y-78539402D01*
X164738675Y-78567562D01*
X164357684Y-78924000D01*
X157999404Y-78924000D01*
X157994945Y-78923671D01*
X157981541Y-78924000D01*
X157968120Y-78924000D01*
X157963665Y-78924439D01*
X157867549Y-78926798D01*
X157858594Y-78926578D01*
X157849661Y-78927237D01*
X157840736Y-78927456D01*
X157831871Y-78928549D01*
X157731496Y-78935954D01*
X157722553Y-78936173D01*
X157713673Y-78937268D01*
X157704757Y-78937926D01*
X157695949Y-78939454D01*
X157596069Y-78951774D01*
X157587147Y-78952432D01*
X157578331Y-78953962D01*
X157569459Y-78955056D01*
X157560738Y-78957014D01*
X157461573Y-78974221D01*
X157452701Y-78975315D01*
X157443982Y-78977273D01*
X157435164Y-78978803D01*
X157426538Y-78981190D01*
X157328362Y-79003237D01*
X157319542Y-79004767D01*
X157310912Y-79007155D01*
X157302194Y-79009113D01*
X157293712Y-79011915D01*
X157196717Y-79038757D01*
X157187987Y-79040718D01*
X157179493Y-79043524D01*
X157170875Y-79045909D01*
X157162530Y-79049128D01*
X157066985Y-79080692D01*
X157058355Y-79083080D01*
X157050000Y-79086303D01*
X157041518Y-79089105D01*
X157033352Y-79092725D01*
X156939443Y-79128950D01*
X156930960Y-79131752D01*
X156922790Y-79135374D01*
X156914436Y-79138596D01*
X156906441Y-79142620D01*
X156814450Y-79183397D01*
X156806102Y-79186617D01*
X156798114Y-79190638D01*
X156789938Y-79194262D01*
X156782156Y-79198670D01*
X156692262Y-79243920D01*
X156684090Y-79247542D01*
X156676312Y-79251948D01*
X156668318Y-79255972D01*
X156660758Y-79260759D01*
X156573199Y-79310361D01*
X156565214Y-79314380D01*
X156557662Y-79319162D01*
X156549874Y-79323574D01*
X156542558Y-79328727D01*
X156457547Y-79382559D01*
X156449758Y-79386971D01*
X156442439Y-79392126D01*
X156434890Y-79396906D01*
X156427844Y-79402405D01*
X156345568Y-79460351D01*
X156338007Y-79465139D01*
X156330950Y-79470646D01*
X156323641Y-79475794D01*
X156316873Y-79481632D01*
X156237537Y-79543546D01*
X156230221Y-79548699D01*
X156223445Y-79554544D01*
X156216400Y-79560042D01*
X156209924Y-79566207D01*
X156133728Y-79631935D01*
X156126669Y-79637444D01*
X156120182Y-79643620D01*
X156113419Y-79649454D01*
X156107260Y-79655923D01*
X156037604Y-79722242D01*
X156034149Y-79725077D01*
X156024676Y-79734550D01*
X156014950Y-79743810D01*
X156012025Y-79747201D01*
X154059203Y-81700024D01*
X154055811Y-81702950D01*
X154046550Y-81712677D01*
X154037077Y-81722150D01*
X154034243Y-81725603D01*
X153967934Y-81795249D01*
X153961454Y-81801418D01*
X153955611Y-81808192D01*
X153949444Y-81814669D01*
X153943942Y-81821719D01*
X153878213Y-81897917D01*
X153872042Y-81904399D01*
X153866536Y-81911454D01*
X153860699Y-81918221D01*
X153855552Y-81925529D01*
X153793632Y-82004873D01*
X153787794Y-82011641D01*
X153782647Y-82018949D01*
X153777139Y-82026007D01*
X153772351Y-82033568D01*
X153714415Y-82115831D01*
X153708906Y-82122890D01*
X153704117Y-82130452D01*
X153698972Y-82137758D01*
X153694566Y-82145535D01*
X153640727Y-82230558D01*
X153635574Y-82237874D01*
X153631162Y-82245662D01*
X153626380Y-82253214D01*
X153622361Y-82261199D01*
X153572759Y-82348758D01*
X153567972Y-82356318D01*
X153563948Y-82364312D01*
X153559542Y-82372090D01*
X153555919Y-82380264D01*
X153510672Y-82470154D01*
X153506263Y-82477937D01*
X153502639Y-82486113D01*
X153498617Y-82494103D01*
X153495397Y-82502450D01*
X153454621Y-82594440D01*
X153450596Y-82602436D01*
X153447373Y-82610790D01*
X153443752Y-82618960D01*
X153440950Y-82627443D01*
X153404727Y-82721346D01*
X153401105Y-82729517D01*
X153398301Y-82738005D01*
X153395080Y-82746355D01*
X153392693Y-82754980D01*
X153361127Y-82850533D01*
X153357909Y-82858876D01*
X153355524Y-82867493D01*
X153352718Y-82875988D01*
X153350757Y-82884718D01*
X153323918Y-82981704D01*
X153321113Y-82990194D01*
X153319154Y-82998917D01*
X153316767Y-83007543D01*
X153315239Y-83016350D01*
X153293190Y-83114539D01*
X153290803Y-83123165D01*
X153289273Y-83131982D01*
X153287315Y-83140702D01*
X153286221Y-83149575D01*
X153269016Y-83248732D01*
X153267056Y-83257459D01*
X153265961Y-83266337D01*
X153264432Y-83275149D01*
X153263774Y-83284066D01*
X153251455Y-83383947D01*
X153249926Y-83392757D01*
X153249268Y-83401675D01*
X153248173Y-83410554D01*
X153247954Y-83419495D01*
X153240549Y-83519870D01*
X153239456Y-83528736D01*
X153239237Y-83537663D01*
X153238578Y-83546595D01*
X153238798Y-83555549D01*
X153236439Y-83651667D01*
X153236000Y-83656121D01*
X153236000Y-83669540D01*
X153235671Y-83682944D01*
X153236000Y-83687403D01*
X153236001Y-92914446D01*
X153234863Y-92926000D01*
X153234863Y-94340000D01*
X153165137Y-94340000D01*
X153165137Y-92926000D01*
X153164000Y-92914455D01*
X153164000Y-80004437D01*
X153166578Y-79899400D01*
X153173981Y-79799039D01*
X153186298Y-79699184D01*
X153203500Y-79600041D01*
X153225547Y-79501864D01*
X153252387Y-79404877D01*
X153283946Y-79309349D01*
X153320165Y-79215453D01*
X153360940Y-79123467D01*
X153406183Y-79033584D01*
X153455776Y-78946040D01*
X153509611Y-78861025D01*
X153567561Y-78778742D01*
X153629462Y-78699424D01*
X153695176Y-78623244D01*
X153767680Y-78547091D01*
X157139114Y-75175658D01*
X157215233Y-75103185D01*
X157291431Y-75037457D01*
X157370762Y-74975547D01*
X157453022Y-74917612D01*
X157538040Y-74863776D01*
X157625591Y-74814179D01*
X157715467Y-74768939D01*
X157807445Y-74728168D01*
X157901353Y-74691944D01*
X157996887Y-74660384D01*
X158093863Y-74633547D01*
X158192046Y-74611499D01*
X158291182Y-74594298D01*
X158391040Y-74581981D01*
X158491400Y-74574578D01*
X158596437Y-74572000D01*
X164328147Y-74572000D01*
X164360000Y-74575137D01*
G36*
X164350000Y-79655137D02*
G01*
X164356762Y-79655137D01*
X164738675Y-80012438D01*
X164768809Y-80036341D01*
X164809634Y-80058162D01*
X164853932Y-80071600D01*
X164900000Y-80076137D01*
X165400000Y-80076137D01*
X165420308Y-80074137D01*
X167506000Y-80074137D01*
X167552068Y-80069600D01*
X167596366Y-80056162D01*
X167621001Y-80042995D01*
X167621001Y-81024000D01*
X167619622Y-81038000D01*
X167625125Y-81093870D01*
X167641421Y-81147592D01*
X167667885Y-81197103D01*
X167703500Y-81240500D01*
X167746897Y-81276115D01*
X167796408Y-81302579D01*
X167850130Y-81318875D01*
X167892010Y-81323000D01*
X167906000Y-81324378D01*
X167919990Y-81323000D01*
X172146000Y-81323000D01*
X172146001Y-82333000D01*
X167919990Y-82333000D01*
X167906000Y-82331622D01*
X167879461Y-82334236D01*
X167850130Y-82337125D01*
X167796408Y-82353421D01*
X167746897Y-82379885D01*
X167703500Y-82415500D01*
X167667885Y-82458897D01*
X167641421Y-82508408D01*
X167625125Y-82562130D01*
X167619622Y-82618000D01*
X167621000Y-82631990D01*
X167621000Y-83613005D01*
X167596366Y-83599838D01*
X167552068Y-83586400D01*
X167506000Y-83581863D01*
X164906000Y-83581863D01*
X164859932Y-83586400D01*
X164815634Y-83599838D01*
X164774809Y-83621659D01*
X164739026Y-83651026D01*
X164719363Y-83674985D01*
X164367684Y-84004000D01*
X164272455Y-84004000D01*
X164167404Y-84001420D01*
X164067040Y-83994017D01*
X163967182Y-83981700D01*
X163868049Y-83964499D01*
X163769857Y-83942450D01*
X163672892Y-83915616D01*
X163577353Y-83884054D01*
X163483445Y-83847830D01*
X163391467Y-83807059D01*
X163301589Y-83761818D01*
X163214030Y-83712217D01*
X163129022Y-83658385D01*
X163046762Y-83600451D01*
X162967422Y-83538535D01*
X162891230Y-83472810D01*
X162815134Y-83400360D01*
X162073979Y-82659207D01*
X162071048Y-82655809D01*
X162061306Y-82646533D01*
X162051849Y-82637077D01*
X162048399Y-82634246D01*
X161978753Y-82567938D01*
X161972580Y-82561454D01*
X161965798Y-82555604D01*
X161959327Y-82549443D01*
X161952286Y-82543948D01*
X161876081Y-82478213D01*
X161869599Y-82472042D01*
X161862544Y-82466536D01*
X161855777Y-82460699D01*
X161848469Y-82455552D01*
X161769125Y-82393632D01*
X161762357Y-82387794D01*
X161755049Y-82382647D01*
X161747991Y-82377139D01*
X161740430Y-82372351D01*
X161658162Y-82314411D01*
X161651109Y-82308907D01*
X161643550Y-82304120D01*
X161636240Y-82298972D01*
X161628461Y-82294565D01*
X161543436Y-82240724D01*
X161536123Y-82235573D01*
X161528341Y-82231165D01*
X161520787Y-82226381D01*
X161512799Y-82222360D01*
X161425234Y-82172755D01*
X161417680Y-82167972D01*
X161409693Y-82163952D01*
X161401907Y-82159541D01*
X161393728Y-82155916D01*
X161303850Y-82110675D01*
X161296062Y-82106263D01*
X161287878Y-82102635D01*
X161279895Y-82098617D01*
X161271557Y-82095401D01*
X161179545Y-82054614D01*
X161171562Y-82050596D01*
X161163223Y-82047379D01*
X161155040Y-82043752D01*
X161146541Y-82040945D01*
X161052657Y-82004730D01*
X161044481Y-82001105D01*
X161035986Y-81998299D01*
X161027642Y-81995080D01*
X161019020Y-81992694D01*
X160923465Y-81961127D01*
X160915122Y-81957909D01*
X160906505Y-81955524D01*
X160898010Y-81952718D01*
X160889280Y-81950757D01*
X160792292Y-81923917D01*
X160783804Y-81921113D01*
X160775081Y-81919154D01*
X160766455Y-81916767D01*
X160757640Y-81915237D01*
X160659461Y-81893190D01*
X160650834Y-81890803D01*
X160642017Y-81889273D01*
X160633297Y-81887315D01*
X160624424Y-81886221D01*
X160525267Y-81869016D01*
X160516540Y-81867056D01*
X160507662Y-81865961D01*
X160498850Y-81864432D01*
X160489933Y-81863774D01*
X160390052Y-81851455D01*
X160381242Y-81849926D01*
X160372324Y-81849268D01*
X160363445Y-81848173D01*
X160354504Y-81847954D01*
X160254129Y-81840549D01*
X160245263Y-81839456D01*
X160236336Y-81839237D01*
X160227404Y-81838578D01*
X160218450Y-81838798D01*
X160122334Y-81836439D01*
X160117880Y-81836000D01*
X160104460Y-81836000D01*
X160091056Y-81835671D01*
X160086597Y-81836000D01*
X159213404Y-81836000D01*
X159208945Y-81835671D01*
X159195541Y-81836000D01*
X159182120Y-81836000D01*
X159177665Y-81836439D01*
X159081549Y-81838798D01*
X159072594Y-81838578D01*
X159063661Y-81839237D01*
X159054736Y-81839456D01*
X159045871Y-81840549D01*
X158945496Y-81847954D01*
X158936553Y-81848173D01*
X158927673Y-81849268D01*
X158918757Y-81849926D01*
X158909949Y-81851454D01*
X158810069Y-81863774D01*
X158801147Y-81864432D01*
X158792331Y-81865962D01*
X158783459Y-81867056D01*
X158774738Y-81869014D01*
X158675573Y-81886221D01*
X158666701Y-81887315D01*
X158657982Y-81889273D01*
X158649164Y-81890803D01*
X158640538Y-81893190D01*
X158542362Y-81915237D01*
X158533542Y-81916767D01*
X158524912Y-81919155D01*
X158516194Y-81921113D01*
X158507712Y-81923915D01*
X158410717Y-81950757D01*
X158401987Y-81952718D01*
X158393493Y-81955524D01*
X158384875Y-81957909D01*
X158376530Y-81961128D01*
X158280985Y-81992692D01*
X158272355Y-81995080D01*
X158264000Y-81998303D01*
X158255518Y-82001105D01*
X158247352Y-82004725D01*
X158153443Y-82040950D01*
X158144960Y-82043752D01*
X158136790Y-82047374D01*
X158128436Y-82050596D01*
X158120441Y-82054620D01*
X158028450Y-82095397D01*
X158020102Y-82098617D01*
X158012114Y-82102638D01*
X158003938Y-82106262D01*
X157996156Y-82110670D01*
X157906262Y-82155920D01*
X157898090Y-82159542D01*
X157890312Y-82163948D01*
X157882318Y-82167972D01*
X157874758Y-82172759D01*
X157787199Y-82222361D01*
X157779214Y-82226380D01*
X157771662Y-82231162D01*
X157763874Y-82235574D01*
X157756558Y-82240727D01*
X157671547Y-82294559D01*
X157663758Y-82298971D01*
X157656439Y-82304126D01*
X157648890Y-82308906D01*
X157641844Y-82314405D01*
X157559568Y-82372351D01*
X157552007Y-82377139D01*
X157544950Y-82382646D01*
X157537641Y-82387794D01*
X157530873Y-82393632D01*
X157451537Y-82455546D01*
X157444221Y-82460699D01*
X157437445Y-82466544D01*
X157430400Y-82472042D01*
X157423924Y-82478207D01*
X157347728Y-82543935D01*
X157340669Y-82549444D01*
X157334182Y-82555620D01*
X157327419Y-82561454D01*
X157321260Y-82567923D01*
X157251609Y-82634236D01*
X157248148Y-82637077D01*
X157238655Y-82646570D01*
X157228950Y-82655810D01*
X157226031Y-82659194D01*
X154859203Y-85026024D01*
X154855812Y-85028949D01*
X154846551Y-85038676D01*
X154837077Y-85048150D01*
X154834242Y-85051604D01*
X154767937Y-85121245D01*
X154761453Y-85127419D01*
X154755608Y-85134195D01*
X154749446Y-85140667D01*
X154743945Y-85147715D01*
X154678211Y-85223920D01*
X154672042Y-85230399D01*
X154666539Y-85237451D01*
X154660697Y-85244223D01*
X154655548Y-85251534D01*
X154593632Y-85330873D01*
X154587794Y-85337641D01*
X154582647Y-85344949D01*
X154577139Y-85352007D01*
X154572351Y-85359568D01*
X154514411Y-85441836D01*
X154508907Y-85448889D01*
X154504120Y-85456448D01*
X154498972Y-85463758D01*
X154494565Y-85471537D01*
X154440724Y-85556562D01*
X154435573Y-85563875D01*
X154431165Y-85571657D01*
X154426381Y-85579211D01*
X154422360Y-85587199D01*
X154372755Y-85674764D01*
X154367972Y-85682318D01*
X154363952Y-85690305D01*
X154359541Y-85698091D01*
X154355916Y-85706270D01*
X154310672Y-85796154D01*
X154306263Y-85803937D01*
X154302639Y-85812113D01*
X154298617Y-85820103D01*
X154295397Y-85828450D01*
X154254621Y-85920440D01*
X154250596Y-85928436D01*
X154247373Y-85936790D01*
X154243752Y-85944960D01*
X154240950Y-85953443D01*
X154204727Y-86047346D01*
X154201105Y-86055517D01*
X154198301Y-86064005D01*
X154195080Y-86072355D01*
X154192693Y-86080980D01*
X154161127Y-86176533D01*
X154157909Y-86184876D01*
X154155524Y-86193493D01*
X154152718Y-86201988D01*
X154150757Y-86210718D01*
X154123918Y-86307704D01*
X154121113Y-86316194D01*
X154119154Y-86324917D01*
X154116767Y-86333543D01*
X154115237Y-86342359D01*
X154093190Y-86440539D01*
X154090803Y-86449165D01*
X154089273Y-86457982D01*
X154087315Y-86466702D01*
X154086221Y-86475575D01*
X154069016Y-86574732D01*
X154067056Y-86583459D01*
X154065961Y-86592337D01*
X154064432Y-86601149D01*
X154063774Y-86610066D01*
X154051455Y-86709947D01*
X154049926Y-86718757D01*
X154049268Y-86727675D01*
X154048173Y-86736554D01*
X154047954Y-86745495D01*
X154040549Y-86845870D01*
X154039456Y-86854736D01*
X154039237Y-86863663D01*
X154038578Y-86872595D01*
X154038798Y-86881549D01*
X154036439Y-86977667D01*
X154036000Y-86982121D01*
X154036000Y-86995540D01*
X154035671Y-87008944D01*
X154036000Y-87013403D01*
X154036001Y-92914446D01*
X154034863Y-92926000D01*
X154034863Y-94340000D01*
X153965137Y-94340000D01*
X153965137Y-92926000D01*
X153964000Y-92914455D01*
X153964000Y-83678437D01*
X153966578Y-83573400D01*
X153973981Y-83473039D01*
X153986298Y-83373184D01*
X154003500Y-83274041D01*
X154025547Y-83175864D01*
X154052387Y-83078877D01*
X154083946Y-82983349D01*
X154120165Y-82889453D01*
X154160940Y-82797467D01*
X154206183Y-82707584D01*
X154255776Y-82620040D01*
X154309611Y-82535025D01*
X154367561Y-82452742D01*
X154429462Y-82373424D01*
X154495176Y-82297244D01*
X154567680Y-82221091D01*
X156533114Y-80255658D01*
X156609233Y-80183185D01*
X156685431Y-80117457D01*
X156764762Y-80055547D01*
X156847022Y-79997612D01*
X156932040Y-79943776D01*
X157019591Y-79894179D01*
X157109467Y-79848939D01*
X157201445Y-79808168D01*
X157295353Y-79771944D01*
X157390887Y-79740384D01*
X157487863Y-79713547D01*
X157586046Y-79691499D01*
X157685182Y-79674298D01*
X157785040Y-79661981D01*
X157885400Y-79654578D01*
X157990437Y-79652000D01*
X164318147Y-79652000D01*
X164350000Y-79655137D01*
X164350000Y-79655137D01*
G37*
X164350000Y-79655137D02*
X164356762Y-79655137D01*
X164738675Y-80012438D01*
X164768809Y-80036341D01*
X164809634Y-80058162D01*
X164853932Y-80071600D01*
X164900000Y-80076137D01*
X165400000Y-80076137D01*
X165420308Y-80074137D01*
X167506000Y-80074137D01*
X167552068Y-80069600D01*
X167596366Y-80056162D01*
X167621001Y-80042995D01*
X167621001Y-81024000D01*
X167619622Y-81038000D01*
X167625125Y-81093870D01*
X167641421Y-81147592D01*
X167667885Y-81197103D01*
X167703500Y-81240500D01*
X167746897Y-81276115D01*
X167796408Y-81302579D01*
X167850130Y-81318875D01*
X167892010Y-81323000D01*
X167906000Y-81324378D01*
X167919990Y-81323000D01*
X172146000Y-81323000D01*
X172146001Y-82333000D01*
X167919990Y-82333000D01*
X167906000Y-82331622D01*
X167879461Y-82334236D01*
X167850130Y-82337125D01*
X167796408Y-82353421D01*
X167746897Y-82379885D01*
X167703500Y-82415500D01*
X167667885Y-82458897D01*
X167641421Y-82508408D01*
X167625125Y-82562130D01*
X167619622Y-82618000D01*
X167621000Y-82631990D01*
X167621000Y-83613005D01*
X167596366Y-83599838D01*
X167552068Y-83586400D01*
X167506000Y-83581863D01*
X164906000Y-83581863D01*
X164859932Y-83586400D01*
X164815634Y-83599838D01*
X164774809Y-83621659D01*
X164739026Y-83651026D01*
X164719363Y-83674985D01*
X164367684Y-84004000D01*
X164272455Y-84004000D01*
X164167404Y-84001420D01*
X164067040Y-83994017D01*
X163967182Y-83981700D01*
X163868049Y-83964499D01*
X163769857Y-83942450D01*
X163672892Y-83915616D01*
X163577353Y-83884054D01*
X163483445Y-83847830D01*
X163391467Y-83807059D01*
X163301589Y-83761818D01*
X163214030Y-83712217D01*
X163129022Y-83658385D01*
X163046762Y-83600451D01*
X162967422Y-83538535D01*
X162891230Y-83472810D01*
X162815134Y-83400360D01*
X162073979Y-82659207D01*
X162071048Y-82655809D01*
X162061306Y-82646533D01*
X162051849Y-82637077D01*
X162048399Y-82634246D01*
X161978753Y-82567938D01*
X161972580Y-82561454D01*
X161965798Y-82555604D01*
X161959327Y-82549443D01*
X161952286Y-82543948D01*
X161876081Y-82478213D01*
X161869599Y-82472042D01*
X161862544Y-82466536D01*
X161855777Y-82460699D01*
X161848469Y-82455552D01*
X161769125Y-82393632D01*
X161762357Y-82387794D01*
X161755049Y-82382647D01*
X161747991Y-82377139D01*
X161740430Y-82372351D01*
X161658162Y-82314411D01*
X161651109Y-82308907D01*
X161643550Y-82304120D01*
X161636240Y-82298972D01*
X161628461Y-82294565D01*
X161543436Y-82240724D01*
X161536123Y-82235573D01*
X161528341Y-82231165D01*
X161520787Y-82226381D01*
X161512799Y-82222360D01*
X161425234Y-82172755D01*
X161417680Y-82167972D01*
X161409693Y-82163952D01*
X161401907Y-82159541D01*
X161393728Y-82155916D01*
X161303850Y-82110675D01*
X161296062Y-82106263D01*
X161287878Y-82102635D01*
X161279895Y-82098617D01*
X161271557Y-82095401D01*
X161179545Y-82054614D01*
X161171562Y-82050596D01*
X161163223Y-82047379D01*
X161155040Y-82043752D01*
X161146541Y-82040945D01*
X161052657Y-82004730D01*
X161044481Y-82001105D01*
X161035986Y-81998299D01*
X161027642Y-81995080D01*
X161019020Y-81992694D01*
X160923465Y-81961127D01*
X160915122Y-81957909D01*
X160906505Y-81955524D01*
X160898010Y-81952718D01*
X160889280Y-81950757D01*
X160792292Y-81923917D01*
X160783804Y-81921113D01*
X160775081Y-81919154D01*
X160766455Y-81916767D01*
X160757640Y-81915237D01*
X160659461Y-81893190D01*
X160650834Y-81890803D01*
X160642017Y-81889273D01*
X160633297Y-81887315D01*
X160624424Y-81886221D01*
X160525267Y-81869016D01*
X160516540Y-81867056D01*
X160507662Y-81865961D01*
X160498850Y-81864432D01*
X160489933Y-81863774D01*
X160390052Y-81851455D01*
X160381242Y-81849926D01*
X160372324Y-81849268D01*
X160363445Y-81848173D01*
X160354504Y-81847954D01*
X160254129Y-81840549D01*
X160245263Y-81839456D01*
X160236336Y-81839237D01*
X160227404Y-81838578D01*
X160218450Y-81838798D01*
X160122334Y-81836439D01*
X160117880Y-81836000D01*
X160104460Y-81836000D01*
X160091056Y-81835671D01*
X160086597Y-81836000D01*
X159213404Y-81836000D01*
X159208945Y-81835671D01*
X159195541Y-81836000D01*
X159182120Y-81836000D01*
X159177665Y-81836439D01*
X159081549Y-81838798D01*
X159072594Y-81838578D01*
X159063661Y-81839237D01*
X159054736Y-81839456D01*
X159045871Y-81840549D01*
X158945496Y-81847954D01*
X158936553Y-81848173D01*
X158927673Y-81849268D01*
X158918757Y-81849926D01*
X158909949Y-81851454D01*
X158810069Y-81863774D01*
X158801147Y-81864432D01*
X158792331Y-81865962D01*
X158783459Y-81867056D01*
X158774738Y-81869014D01*
X158675573Y-81886221D01*
X158666701Y-81887315D01*
X158657982Y-81889273D01*
X158649164Y-81890803D01*
X158640538Y-81893190D01*
X158542362Y-81915237D01*
X158533542Y-81916767D01*
X158524912Y-81919155D01*
X158516194Y-81921113D01*
X158507712Y-81923915D01*
X158410717Y-81950757D01*
X158401987Y-81952718D01*
X158393493Y-81955524D01*
X158384875Y-81957909D01*
X158376530Y-81961128D01*
X158280985Y-81992692D01*
X158272355Y-81995080D01*
X158264000Y-81998303D01*
X158255518Y-82001105D01*
X158247352Y-82004725D01*
X158153443Y-82040950D01*
X158144960Y-82043752D01*
X158136790Y-82047374D01*
X158128436Y-82050596D01*
X158120441Y-82054620D01*
X158028450Y-82095397D01*
X158020102Y-82098617D01*
X158012114Y-82102638D01*
X158003938Y-82106262D01*
X157996156Y-82110670D01*
X157906262Y-82155920D01*
X157898090Y-82159542D01*
X157890312Y-82163948D01*
X157882318Y-82167972D01*
X157874758Y-82172759D01*
X157787199Y-82222361D01*
X157779214Y-82226380D01*
X157771662Y-82231162D01*
X157763874Y-82235574D01*
X157756558Y-82240727D01*
X157671547Y-82294559D01*
X157663758Y-82298971D01*
X157656439Y-82304126D01*
X157648890Y-82308906D01*
X157641844Y-82314405D01*
X157559568Y-82372351D01*
X157552007Y-82377139D01*
X157544950Y-82382646D01*
X157537641Y-82387794D01*
X157530873Y-82393632D01*
X157451537Y-82455546D01*
X157444221Y-82460699D01*
X157437445Y-82466544D01*
X157430400Y-82472042D01*
X157423924Y-82478207D01*
X157347728Y-82543935D01*
X157340669Y-82549444D01*
X157334182Y-82555620D01*
X157327419Y-82561454D01*
X157321260Y-82567923D01*
X157251609Y-82634236D01*
X157248148Y-82637077D01*
X157238655Y-82646570D01*
X157228950Y-82655810D01*
X157226031Y-82659194D01*
X154859203Y-85026024D01*
X154855812Y-85028949D01*
X154846551Y-85038676D01*
X154837077Y-85048150D01*
X154834242Y-85051604D01*
X154767937Y-85121245D01*
X154761453Y-85127419D01*
X154755608Y-85134195D01*
X154749446Y-85140667D01*
X154743945Y-85147715D01*
X154678211Y-85223920D01*
X154672042Y-85230399D01*
X154666539Y-85237451D01*
X154660697Y-85244223D01*
X154655548Y-85251534D01*
X154593632Y-85330873D01*
X154587794Y-85337641D01*
X154582647Y-85344949D01*
X154577139Y-85352007D01*
X154572351Y-85359568D01*
X154514411Y-85441836D01*
X154508907Y-85448889D01*
X154504120Y-85456448D01*
X154498972Y-85463758D01*
X154494565Y-85471537D01*
X154440724Y-85556562D01*
X154435573Y-85563875D01*
X154431165Y-85571657D01*
X154426381Y-85579211D01*
X154422360Y-85587199D01*
X154372755Y-85674764D01*
X154367972Y-85682318D01*
X154363952Y-85690305D01*
X154359541Y-85698091D01*
X154355916Y-85706270D01*
X154310672Y-85796154D01*
X154306263Y-85803937D01*
X154302639Y-85812113D01*
X154298617Y-85820103D01*
X154295397Y-85828450D01*
X154254621Y-85920440D01*
X154250596Y-85928436D01*
X154247373Y-85936790D01*
X154243752Y-85944960D01*
X154240950Y-85953443D01*
X154204727Y-86047346D01*
X154201105Y-86055517D01*
X154198301Y-86064005D01*
X154195080Y-86072355D01*
X154192693Y-86080980D01*
X154161127Y-86176533D01*
X154157909Y-86184876D01*
X154155524Y-86193493D01*
X154152718Y-86201988D01*
X154150757Y-86210718D01*
X154123918Y-86307704D01*
X154121113Y-86316194D01*
X154119154Y-86324917D01*
X154116767Y-86333543D01*
X154115237Y-86342359D01*
X154093190Y-86440539D01*
X154090803Y-86449165D01*
X154089273Y-86457982D01*
X154087315Y-86466702D01*
X154086221Y-86475575D01*
X154069016Y-86574732D01*
X154067056Y-86583459D01*
X154065961Y-86592337D01*
X154064432Y-86601149D01*
X154063774Y-86610066D01*
X154051455Y-86709947D01*
X154049926Y-86718757D01*
X154049268Y-86727675D01*
X154048173Y-86736554D01*
X154047954Y-86745495D01*
X154040549Y-86845870D01*
X154039456Y-86854736D01*
X154039237Y-86863663D01*
X154038578Y-86872595D01*
X154038798Y-86881549D01*
X154036439Y-86977667D01*
X154036000Y-86982121D01*
X154036000Y-86995540D01*
X154035671Y-87008944D01*
X154036000Y-87013403D01*
X154036001Y-92914446D01*
X154034863Y-92926000D01*
X154034863Y-94340000D01*
X153965137Y-94340000D01*
X153965137Y-92926000D01*
X153964000Y-92914455D01*
X153964000Y-83678437D01*
X153966578Y-83573400D01*
X153973981Y-83473039D01*
X153986298Y-83373184D01*
X154003500Y-83274041D01*
X154025547Y-83175864D01*
X154052387Y-83078877D01*
X154083946Y-82983349D01*
X154120165Y-82889453D01*
X154160940Y-82797467D01*
X154206183Y-82707584D01*
X154255776Y-82620040D01*
X154309611Y-82535025D01*
X154367561Y-82452742D01*
X154429462Y-82373424D01*
X154495176Y-82297244D01*
X154567680Y-82221091D01*
X156533114Y-80255658D01*
X156609233Y-80183185D01*
X156685431Y-80117457D01*
X156764762Y-80055547D01*
X156847022Y-79997612D01*
X156932040Y-79943776D01*
X157019591Y-79894179D01*
X157109467Y-79848939D01*
X157201445Y-79808168D01*
X157295353Y-79771944D01*
X157390887Y-79740384D01*
X157487863Y-79713547D01*
X157586046Y-79691499D01*
X157685182Y-79674298D01*
X157785040Y-79661981D01*
X157885400Y-79654578D01*
X157990437Y-79652000D01*
X164318147Y-79652000D01*
X164350000Y-79655137D01*
M02*
