G04 #@! TF.GenerationSoftware,KiCad,Pcbnew,5.1.4*
G04 #@! TF.CreationDate,2020-11-16T17:48:16-07:00*
G04 #@! TF.ProjectId,sleigh,736c6569-6768-42e6-9b69-6361645f7063,rev?*
G04 #@! TF.SameCoordinates,Original*
G04 #@! TF.FileFunction,Soldermask,Top*
G04 #@! TF.FilePolarity,Negative*
%FSLAX46Y46*%
G04 Gerber Fmt 4.6, Leading zero omitted, Abs format (unit mm)*
G04 Created by KiCad (PCBNEW 5.1.4) date 2020-11-16 17:48:16*
%MOMM*%
%LPD*%
G04 APERTURE LIST*
%ADD10C,0.100000*%
G04 APERTURE END LIST*
D10*
G36*
X157734000Y-110744000D02*
G01*
X147066000Y-110744000D01*
X147066000Y-92456000D01*
X157734000Y-92456000D01*
X157734000Y-110744000D01*
G37*
X157734000Y-110744000D02*
X147066000Y-110744000D01*
X147066000Y-92456000D01*
X157734000Y-92456000D01*
X157734000Y-110744000D01*
G36*
X154580000Y-94577000D02*
G01*
X154220000Y-94577000D01*
X154220000Y-92875000D01*
X154580000Y-92875000D01*
X154580000Y-94577000D01*
X154580000Y-94577000D01*
G37*
G36*
X148801000Y-94577000D02*
G01*
X147199000Y-94577000D01*
X147199000Y-92475000D01*
X148801000Y-92475000D01*
X148801000Y-94577000D01*
X148801000Y-94577000D01*
G37*
G36*
X157601000Y-94577000D02*
G01*
X155999000Y-94577000D01*
X155999000Y-92475000D01*
X157601000Y-92475000D01*
X157601000Y-94577000D01*
X157601000Y-94577000D01*
G37*
G36*
X149780000Y-94577000D02*
G01*
X149420000Y-94577000D01*
X149420000Y-92875000D01*
X149780000Y-92875000D01*
X149780000Y-94577000D01*
X149780000Y-94577000D01*
G37*
G36*
X150580000Y-94577000D02*
G01*
X150220000Y-94577000D01*
X150220000Y-92875000D01*
X150580000Y-92875000D01*
X150580000Y-94577000D01*
X150580000Y-94577000D01*
G37*
G36*
X151380000Y-94577000D02*
G01*
X151020000Y-94577000D01*
X151020000Y-92875000D01*
X151380000Y-92875000D01*
X151380000Y-94577000D01*
X151380000Y-94577000D01*
G37*
G36*
X152180000Y-94577000D02*
G01*
X151820000Y-94577000D01*
X151820000Y-92875000D01*
X152180000Y-92875000D01*
X152180000Y-94577000D01*
X152180000Y-94577000D01*
G37*
G36*
X152980000Y-94577000D02*
G01*
X152620000Y-94577000D01*
X152620000Y-92875000D01*
X152980000Y-92875000D01*
X152980000Y-94577000D01*
X152980000Y-94577000D01*
G37*
G36*
X153780000Y-94577000D02*
G01*
X153420000Y-94577000D01*
X153420000Y-92875000D01*
X153780000Y-92875000D01*
X153780000Y-94577000D01*
X153780000Y-94577000D01*
G37*
G36*
X155380000Y-94577000D02*
G01*
X155020000Y-94577000D01*
X155020000Y-92875000D01*
X155380000Y-92875000D01*
X155380000Y-94577000D01*
X155380000Y-94577000D01*
G37*
G36*
X139903999Y-87097737D02*
G01*
X139913608Y-87100652D01*
X139922472Y-87105390D01*
X139930237Y-87111763D01*
X139936610Y-87119528D01*
X139941348Y-87128392D01*
X139944263Y-87138001D01*
X139945852Y-87154140D01*
X139945852Y-88691859D01*
X139944090Y-88709748D01*
X139944090Y-88734252D01*
X139945000Y-88738828D01*
X139945000Y-90158649D01*
X139943488Y-90173999D01*
X139944090Y-90186252D01*
X139945852Y-90204141D01*
X139945852Y-91741860D01*
X139944263Y-91757999D01*
X139941348Y-91767608D01*
X139936610Y-91776472D01*
X139930237Y-91784237D01*
X139922472Y-91790610D01*
X139913608Y-91795348D01*
X139903999Y-91798263D01*
X139887860Y-91799852D01*
X132400140Y-91799852D01*
X132384001Y-91798263D01*
X132374392Y-91795348D01*
X132365528Y-91790610D01*
X132357763Y-91784237D01*
X132351390Y-91776472D01*
X132346652Y-91767608D01*
X132343737Y-91757999D01*
X132342148Y-91741860D01*
X132342148Y-91204140D01*
X132343737Y-91188001D01*
X132346652Y-91178392D01*
X132351390Y-91169528D01*
X132357763Y-91161763D01*
X132365528Y-91155390D01*
X132374392Y-91150652D01*
X132384001Y-91147737D01*
X132400140Y-91146148D01*
X136717149Y-91146148D01*
X136741535Y-91143746D01*
X136764984Y-91136633D01*
X136786595Y-91125082D01*
X136805537Y-91109537D01*
X136821082Y-91090595D01*
X136832633Y-91068984D01*
X136839746Y-91045535D01*
X136842148Y-91021149D01*
X136842148Y-90204140D01*
X136843737Y-90188001D01*
X136846652Y-90178392D01*
X136851390Y-90169528D01*
X136857763Y-90161763D01*
X136865528Y-90155390D01*
X136874392Y-90150652D01*
X136884001Y-90147737D01*
X136900140Y-90146148D01*
X137118001Y-90146148D01*
X137142387Y-90143746D01*
X137165836Y-90136633D01*
X137187447Y-90125082D01*
X137206389Y-90109537D01*
X137221934Y-90090595D01*
X137233485Y-90068984D01*
X137240598Y-90045535D01*
X137243000Y-90021149D01*
X137243000Y-88874851D01*
X137240598Y-88850465D01*
X137233485Y-88827016D01*
X137221934Y-88805405D01*
X137206389Y-88786463D01*
X137187447Y-88770918D01*
X137165836Y-88759367D01*
X137142387Y-88752254D01*
X137118001Y-88749852D01*
X136900140Y-88749852D01*
X136884001Y-88748263D01*
X136874392Y-88745348D01*
X136865528Y-88740610D01*
X136857763Y-88734237D01*
X136851390Y-88726472D01*
X136846652Y-88717608D01*
X136843737Y-88707999D01*
X136842148Y-88691860D01*
X136842148Y-87874851D01*
X136839746Y-87850465D01*
X136832633Y-87827016D01*
X136821082Y-87805405D01*
X136805537Y-87786463D01*
X136786595Y-87770918D01*
X136764984Y-87759367D01*
X136741535Y-87752254D01*
X136717149Y-87749852D01*
X132400140Y-87749852D01*
X132384001Y-87748263D01*
X132374392Y-87745348D01*
X132365528Y-87740610D01*
X132357763Y-87734237D01*
X132351390Y-87726472D01*
X132346652Y-87717608D01*
X132343737Y-87707999D01*
X132342148Y-87691860D01*
X132342148Y-87154140D01*
X132343737Y-87138001D01*
X132346652Y-87128392D01*
X132351390Y-87119528D01*
X132357763Y-87111763D01*
X132365528Y-87105390D01*
X132374392Y-87100652D01*
X132384001Y-87097737D01*
X132400140Y-87096148D01*
X139887860Y-87096148D01*
X139903999Y-87097737D01*
X139903999Y-87097737D01*
G37*
G36*
X172415999Y-87097737D02*
G01*
X172425608Y-87100652D01*
X172434472Y-87105390D01*
X172442237Y-87111763D01*
X172448610Y-87119528D01*
X172453348Y-87128392D01*
X172456263Y-87138001D01*
X172457852Y-87154140D01*
X172457852Y-87691860D01*
X172456263Y-87707999D01*
X172453348Y-87717608D01*
X172448610Y-87726472D01*
X172442237Y-87734237D01*
X172434472Y-87740610D01*
X172425608Y-87745348D01*
X172415999Y-87748263D01*
X172399860Y-87749852D01*
X168082851Y-87749852D01*
X168058465Y-87752254D01*
X168035016Y-87759367D01*
X168013405Y-87770918D01*
X167994463Y-87786463D01*
X167978918Y-87805405D01*
X167967367Y-87827016D01*
X167960254Y-87850465D01*
X167957852Y-87874851D01*
X167957852Y-88691860D01*
X167956263Y-88707999D01*
X167953348Y-88717608D01*
X167948610Y-88726472D01*
X167942237Y-88734237D01*
X167934472Y-88740610D01*
X167925608Y-88745348D01*
X167915999Y-88748263D01*
X167899860Y-88749852D01*
X167681999Y-88749852D01*
X167657613Y-88752254D01*
X167634164Y-88759367D01*
X167612553Y-88770918D01*
X167593611Y-88786463D01*
X167578066Y-88805405D01*
X167566515Y-88827016D01*
X167559402Y-88850465D01*
X167557000Y-88874851D01*
X167557000Y-90021149D01*
X167559402Y-90045535D01*
X167566515Y-90068984D01*
X167578066Y-90090595D01*
X167593611Y-90109537D01*
X167612553Y-90125082D01*
X167634164Y-90136633D01*
X167657613Y-90143746D01*
X167681999Y-90146148D01*
X167899860Y-90146148D01*
X167915999Y-90147737D01*
X167925608Y-90150652D01*
X167934472Y-90155390D01*
X167942237Y-90161763D01*
X167948610Y-90169528D01*
X167953348Y-90178392D01*
X167956263Y-90188001D01*
X167957852Y-90204140D01*
X167957852Y-91021149D01*
X167960254Y-91045535D01*
X167967367Y-91068984D01*
X167978918Y-91090595D01*
X167994463Y-91109537D01*
X168013405Y-91125082D01*
X168035016Y-91136633D01*
X168058465Y-91143746D01*
X168082851Y-91146148D01*
X172399860Y-91146148D01*
X172415999Y-91147737D01*
X172425608Y-91150652D01*
X172434472Y-91155390D01*
X172442237Y-91161763D01*
X172448610Y-91169528D01*
X172453348Y-91178392D01*
X172456263Y-91188001D01*
X172457852Y-91204140D01*
X172457852Y-91741860D01*
X172456263Y-91757999D01*
X172453348Y-91767608D01*
X172448610Y-91776472D01*
X172442237Y-91784237D01*
X172434472Y-91790610D01*
X172425608Y-91795348D01*
X172415999Y-91798263D01*
X172399860Y-91799852D01*
X164912140Y-91799852D01*
X164896001Y-91798263D01*
X164886392Y-91795348D01*
X164877528Y-91790610D01*
X164869763Y-91784237D01*
X164863390Y-91776472D01*
X164858652Y-91767608D01*
X164855737Y-91757999D01*
X164854148Y-91741860D01*
X164854148Y-90204141D01*
X164855910Y-90186252D01*
X164855910Y-90161748D01*
X164855000Y-90157172D01*
X164855000Y-88737351D01*
X164856512Y-88722001D01*
X164855910Y-88709748D01*
X164854148Y-88691859D01*
X164854148Y-87154140D01*
X164855737Y-87138001D01*
X164858652Y-87128392D01*
X164863390Y-87119528D01*
X164869763Y-87111763D01*
X164877528Y-87105390D01*
X164886392Y-87100652D01*
X164896001Y-87097737D01*
X164912140Y-87096148D01*
X172399860Y-87096148D01*
X172415999Y-87097737D01*
X172415999Y-87097737D01*
G37*
G36*
X172415999Y-82017737D02*
G01*
X172425608Y-82020652D01*
X172434472Y-82025390D01*
X172442237Y-82031763D01*
X172448610Y-82039528D01*
X172453348Y-82048392D01*
X172456263Y-82058001D01*
X172457852Y-82074140D01*
X172457852Y-82611860D01*
X172456263Y-82627999D01*
X172453348Y-82637608D01*
X172448610Y-82646472D01*
X172442237Y-82654237D01*
X172434472Y-82660610D01*
X172425608Y-82665348D01*
X172415999Y-82668263D01*
X172399860Y-82669852D01*
X168082851Y-82669852D01*
X168058465Y-82672254D01*
X168035016Y-82679367D01*
X168013405Y-82690918D01*
X167994463Y-82706463D01*
X167978918Y-82725405D01*
X167967367Y-82747016D01*
X167960254Y-82770465D01*
X167957852Y-82794851D01*
X167957852Y-83611860D01*
X167956263Y-83627999D01*
X167953348Y-83637608D01*
X167948610Y-83646472D01*
X167942237Y-83654237D01*
X167934472Y-83660610D01*
X167925608Y-83665348D01*
X167915999Y-83668263D01*
X167899860Y-83669852D01*
X167681999Y-83669852D01*
X167657613Y-83672254D01*
X167634164Y-83679367D01*
X167612553Y-83690918D01*
X167593611Y-83706463D01*
X167578066Y-83725405D01*
X167566515Y-83747016D01*
X167559402Y-83770465D01*
X167557000Y-83794851D01*
X167557000Y-84941149D01*
X167559402Y-84965535D01*
X167566515Y-84988984D01*
X167578066Y-85010595D01*
X167593611Y-85029537D01*
X167612553Y-85045082D01*
X167634164Y-85056633D01*
X167657613Y-85063746D01*
X167681999Y-85066148D01*
X167899860Y-85066148D01*
X167915999Y-85067737D01*
X167925608Y-85070652D01*
X167934472Y-85075390D01*
X167942237Y-85081763D01*
X167948610Y-85089528D01*
X167953348Y-85098392D01*
X167956263Y-85108001D01*
X167957852Y-85124140D01*
X167957852Y-85941149D01*
X167960254Y-85965535D01*
X167967367Y-85988984D01*
X167978918Y-86010595D01*
X167994463Y-86029537D01*
X168013405Y-86045082D01*
X168035016Y-86056633D01*
X168058465Y-86063746D01*
X168082851Y-86066148D01*
X172399860Y-86066148D01*
X172415999Y-86067737D01*
X172425608Y-86070652D01*
X172434472Y-86075390D01*
X172442237Y-86081763D01*
X172448610Y-86089528D01*
X172453348Y-86098392D01*
X172456263Y-86108001D01*
X172457852Y-86124140D01*
X172457852Y-86661860D01*
X172456263Y-86677999D01*
X172453348Y-86687608D01*
X172448610Y-86696472D01*
X172442237Y-86704237D01*
X172434472Y-86710610D01*
X172425608Y-86715348D01*
X172415999Y-86718263D01*
X172399860Y-86719852D01*
X164912140Y-86719852D01*
X164896001Y-86718263D01*
X164886392Y-86715348D01*
X164877528Y-86710610D01*
X164869763Y-86704237D01*
X164863390Y-86696472D01*
X164858652Y-86687608D01*
X164855737Y-86677999D01*
X164854148Y-86661860D01*
X164854148Y-85124141D01*
X164855910Y-85106252D01*
X164855910Y-85081748D01*
X164855000Y-85077172D01*
X164855000Y-83657351D01*
X164856512Y-83642001D01*
X164855910Y-83629748D01*
X164854148Y-83611859D01*
X164854148Y-82074140D01*
X164855737Y-82058001D01*
X164858652Y-82048392D01*
X164863390Y-82039528D01*
X164869763Y-82031763D01*
X164877528Y-82025390D01*
X164886392Y-82020652D01*
X164896001Y-82017737D01*
X164912140Y-82016148D01*
X172399860Y-82016148D01*
X172415999Y-82017737D01*
X172415999Y-82017737D01*
G37*
G36*
X139903999Y-82017737D02*
G01*
X139913608Y-82020652D01*
X139922472Y-82025390D01*
X139930237Y-82031763D01*
X139936610Y-82039528D01*
X139941348Y-82048392D01*
X139944263Y-82058001D01*
X139945852Y-82074140D01*
X139945852Y-83611859D01*
X139944090Y-83629748D01*
X139944090Y-83654252D01*
X139945000Y-83658828D01*
X139945000Y-85078649D01*
X139943488Y-85093999D01*
X139944090Y-85106252D01*
X139945852Y-85124141D01*
X139945852Y-86661860D01*
X139944263Y-86677999D01*
X139941348Y-86687608D01*
X139936610Y-86696472D01*
X139930237Y-86704237D01*
X139922472Y-86710610D01*
X139913608Y-86715348D01*
X139903999Y-86718263D01*
X139887860Y-86719852D01*
X132400140Y-86719852D01*
X132384001Y-86718263D01*
X132374392Y-86715348D01*
X132365528Y-86710610D01*
X132357763Y-86704237D01*
X132351390Y-86696472D01*
X132346652Y-86687608D01*
X132343737Y-86677999D01*
X132342148Y-86661860D01*
X132342148Y-86124140D01*
X132343737Y-86108001D01*
X132346652Y-86098392D01*
X132351390Y-86089528D01*
X132357763Y-86081763D01*
X132365528Y-86075390D01*
X132374392Y-86070652D01*
X132384001Y-86067737D01*
X132400140Y-86066148D01*
X136717149Y-86066148D01*
X136741535Y-86063746D01*
X136764984Y-86056633D01*
X136786595Y-86045082D01*
X136805537Y-86029537D01*
X136821082Y-86010595D01*
X136832633Y-85988984D01*
X136839746Y-85965535D01*
X136842148Y-85941149D01*
X136842148Y-85124140D01*
X136843737Y-85108001D01*
X136846652Y-85098392D01*
X136851390Y-85089528D01*
X136857763Y-85081763D01*
X136865528Y-85075390D01*
X136874392Y-85070652D01*
X136884001Y-85067737D01*
X136900140Y-85066148D01*
X137118001Y-85066148D01*
X137142387Y-85063746D01*
X137165836Y-85056633D01*
X137187447Y-85045082D01*
X137206389Y-85029537D01*
X137221934Y-85010595D01*
X137233485Y-84988984D01*
X137240598Y-84965535D01*
X137243000Y-84941149D01*
X137243000Y-83794851D01*
X137240598Y-83770465D01*
X137233485Y-83747016D01*
X137221934Y-83725405D01*
X137206389Y-83706463D01*
X137187447Y-83690918D01*
X137165836Y-83679367D01*
X137142387Y-83672254D01*
X137118001Y-83669852D01*
X136900140Y-83669852D01*
X136884001Y-83668263D01*
X136874392Y-83665348D01*
X136865528Y-83660610D01*
X136857763Y-83654237D01*
X136851390Y-83646472D01*
X136846652Y-83637608D01*
X136843737Y-83627999D01*
X136842148Y-83611860D01*
X136842148Y-82794851D01*
X136839746Y-82770465D01*
X136832633Y-82747016D01*
X136821082Y-82725405D01*
X136805537Y-82706463D01*
X136786595Y-82690918D01*
X136764984Y-82679367D01*
X136741535Y-82672254D01*
X136717149Y-82669852D01*
X132400140Y-82669852D01*
X132384001Y-82668263D01*
X132374392Y-82665348D01*
X132365528Y-82660610D01*
X132357763Y-82654237D01*
X132351390Y-82646472D01*
X132346652Y-82637608D01*
X132343737Y-82627999D01*
X132342148Y-82611860D01*
X132342148Y-82074140D01*
X132343737Y-82058001D01*
X132346652Y-82048392D01*
X132351390Y-82039528D01*
X132357763Y-82031763D01*
X132365528Y-82025390D01*
X132374392Y-82020652D01*
X132384001Y-82017737D01*
X132400140Y-82016148D01*
X139887860Y-82016148D01*
X139903999Y-82017737D01*
X139903999Y-82017737D01*
G37*
G36*
X172415999Y-76937737D02*
G01*
X172425608Y-76940652D01*
X172434472Y-76945390D01*
X172442237Y-76951763D01*
X172448610Y-76959528D01*
X172453348Y-76968392D01*
X172456263Y-76978001D01*
X172457852Y-76994140D01*
X172457852Y-77531860D01*
X172456263Y-77547999D01*
X172453348Y-77557608D01*
X172448610Y-77566472D01*
X172442237Y-77574237D01*
X172434472Y-77580610D01*
X172425608Y-77585348D01*
X172415999Y-77588263D01*
X172399860Y-77589852D01*
X168082851Y-77589852D01*
X168058465Y-77592254D01*
X168035016Y-77599367D01*
X168013405Y-77610918D01*
X167994463Y-77626463D01*
X167978918Y-77645405D01*
X167967367Y-77667016D01*
X167960254Y-77690465D01*
X167957852Y-77714851D01*
X167957852Y-78531860D01*
X167956263Y-78547999D01*
X167953348Y-78557608D01*
X167948610Y-78566472D01*
X167942237Y-78574237D01*
X167934472Y-78580610D01*
X167925608Y-78585348D01*
X167915999Y-78588263D01*
X167899860Y-78589852D01*
X167681999Y-78589852D01*
X167657613Y-78592254D01*
X167634164Y-78599367D01*
X167612553Y-78610918D01*
X167593611Y-78626463D01*
X167578066Y-78645405D01*
X167566515Y-78667016D01*
X167559402Y-78690465D01*
X167557000Y-78714851D01*
X167557000Y-79861149D01*
X167559402Y-79885535D01*
X167566515Y-79908984D01*
X167578066Y-79930595D01*
X167593611Y-79949537D01*
X167612553Y-79965082D01*
X167634164Y-79976633D01*
X167657613Y-79983746D01*
X167681999Y-79986148D01*
X167899860Y-79986148D01*
X167915999Y-79987737D01*
X167925608Y-79990652D01*
X167934472Y-79995390D01*
X167942237Y-80001763D01*
X167948610Y-80009528D01*
X167953348Y-80018392D01*
X167956263Y-80028001D01*
X167957852Y-80044140D01*
X167957852Y-80861149D01*
X167960254Y-80885535D01*
X167967367Y-80908984D01*
X167978918Y-80930595D01*
X167994463Y-80949537D01*
X168013405Y-80965082D01*
X168035016Y-80976633D01*
X168058465Y-80983746D01*
X168082851Y-80986148D01*
X172399860Y-80986148D01*
X172415999Y-80987737D01*
X172425608Y-80990652D01*
X172434472Y-80995390D01*
X172442237Y-81001763D01*
X172448610Y-81009528D01*
X172453348Y-81018392D01*
X172456263Y-81028001D01*
X172457852Y-81044140D01*
X172457852Y-81581860D01*
X172456263Y-81597999D01*
X172453348Y-81607608D01*
X172448610Y-81616472D01*
X172442237Y-81624237D01*
X172434472Y-81630610D01*
X172425608Y-81635348D01*
X172415999Y-81638263D01*
X172399860Y-81639852D01*
X164912140Y-81639852D01*
X164896001Y-81638263D01*
X164886392Y-81635348D01*
X164877528Y-81630610D01*
X164869763Y-81624237D01*
X164863390Y-81616472D01*
X164858652Y-81607608D01*
X164855737Y-81597999D01*
X164854148Y-81581860D01*
X164854148Y-80044141D01*
X164855910Y-80026252D01*
X164855910Y-80001748D01*
X164855000Y-79997172D01*
X164855000Y-78577351D01*
X164856512Y-78562001D01*
X164855910Y-78549748D01*
X164854148Y-78531859D01*
X164854148Y-76994140D01*
X164855737Y-76978001D01*
X164858652Y-76968392D01*
X164863390Y-76959528D01*
X164869763Y-76951763D01*
X164877528Y-76945390D01*
X164886392Y-76940652D01*
X164896001Y-76937737D01*
X164912140Y-76936148D01*
X172399860Y-76936148D01*
X172415999Y-76937737D01*
X172415999Y-76937737D01*
G37*
G36*
X139903999Y-76929737D02*
G01*
X139913608Y-76932652D01*
X139922472Y-76937390D01*
X139930237Y-76943763D01*
X139936610Y-76951528D01*
X139941348Y-76960392D01*
X139944263Y-76970001D01*
X139945852Y-76986140D01*
X139945852Y-78523859D01*
X139944090Y-78541748D01*
X139944090Y-78566252D01*
X139945000Y-78570828D01*
X139945000Y-79990649D01*
X139943488Y-80005999D01*
X139944090Y-80018252D01*
X139945852Y-80036141D01*
X139945852Y-81573860D01*
X139944263Y-81589999D01*
X139941348Y-81599608D01*
X139936610Y-81608472D01*
X139930237Y-81616237D01*
X139922472Y-81622610D01*
X139913608Y-81627348D01*
X139903999Y-81630263D01*
X139887860Y-81631852D01*
X132400140Y-81631852D01*
X132384001Y-81630263D01*
X132374392Y-81627348D01*
X132365528Y-81622610D01*
X132357763Y-81616237D01*
X132351390Y-81608472D01*
X132346652Y-81599608D01*
X132343737Y-81589999D01*
X132342148Y-81573860D01*
X132342148Y-81036140D01*
X132343737Y-81020001D01*
X132346652Y-81010392D01*
X132351390Y-81001528D01*
X132357763Y-80993763D01*
X132365528Y-80987390D01*
X132374392Y-80982652D01*
X132384001Y-80979737D01*
X132400140Y-80978148D01*
X136717149Y-80978148D01*
X136741535Y-80975746D01*
X136764984Y-80968633D01*
X136786595Y-80957082D01*
X136805537Y-80941537D01*
X136821082Y-80922595D01*
X136832633Y-80900984D01*
X136839746Y-80877535D01*
X136842148Y-80853149D01*
X136842148Y-80036140D01*
X136843737Y-80020001D01*
X136846652Y-80010392D01*
X136851390Y-80001528D01*
X136857763Y-79993763D01*
X136865528Y-79987390D01*
X136874392Y-79982652D01*
X136884001Y-79979737D01*
X136900140Y-79978148D01*
X137118001Y-79978148D01*
X137142387Y-79975746D01*
X137165836Y-79968633D01*
X137187447Y-79957082D01*
X137206389Y-79941537D01*
X137221934Y-79922595D01*
X137233485Y-79900984D01*
X137240598Y-79877535D01*
X137243000Y-79853149D01*
X137243000Y-78706851D01*
X137240598Y-78682465D01*
X137233485Y-78659016D01*
X137221934Y-78637405D01*
X137206389Y-78618463D01*
X137187447Y-78602918D01*
X137165836Y-78591367D01*
X137142387Y-78584254D01*
X137118001Y-78581852D01*
X136900140Y-78581852D01*
X136884001Y-78580263D01*
X136874392Y-78577348D01*
X136865528Y-78572610D01*
X136857763Y-78566237D01*
X136851390Y-78558472D01*
X136846652Y-78549608D01*
X136843737Y-78539999D01*
X136842148Y-78523860D01*
X136842148Y-77706851D01*
X136839746Y-77682465D01*
X136832633Y-77659016D01*
X136821082Y-77637405D01*
X136805537Y-77618463D01*
X136786595Y-77602918D01*
X136764984Y-77591367D01*
X136741535Y-77584254D01*
X136717149Y-77581852D01*
X132400140Y-77581852D01*
X132384001Y-77580263D01*
X132374392Y-77577348D01*
X132365528Y-77572610D01*
X132357763Y-77566237D01*
X132351390Y-77558472D01*
X132346652Y-77549608D01*
X132343737Y-77539999D01*
X132342148Y-77523860D01*
X132342148Y-76986140D01*
X132343737Y-76970001D01*
X132346652Y-76960392D01*
X132351390Y-76951528D01*
X132357763Y-76943763D01*
X132365528Y-76937390D01*
X132374392Y-76932652D01*
X132384001Y-76929737D01*
X132400140Y-76928148D01*
X139887860Y-76928148D01*
X139903999Y-76929737D01*
X139903999Y-76929737D01*
G37*
G36*
X172415999Y-71857737D02*
G01*
X172425608Y-71860652D01*
X172434472Y-71865390D01*
X172442237Y-71871763D01*
X172448610Y-71879528D01*
X172453348Y-71888392D01*
X172456263Y-71898001D01*
X172457852Y-71914140D01*
X172457852Y-72451860D01*
X172456263Y-72467999D01*
X172453348Y-72477608D01*
X172448610Y-72486472D01*
X172442237Y-72494237D01*
X172434472Y-72500610D01*
X172425608Y-72505348D01*
X172415999Y-72508263D01*
X172399860Y-72509852D01*
X168082851Y-72509852D01*
X168058465Y-72512254D01*
X168035016Y-72519367D01*
X168013405Y-72530918D01*
X167994463Y-72546463D01*
X167978918Y-72565405D01*
X167967367Y-72587016D01*
X167960254Y-72610465D01*
X167957852Y-72634851D01*
X167957852Y-73451860D01*
X167956263Y-73467999D01*
X167953348Y-73477608D01*
X167948610Y-73486472D01*
X167942237Y-73494237D01*
X167934472Y-73500610D01*
X167925608Y-73505348D01*
X167915999Y-73508263D01*
X167899860Y-73509852D01*
X167681999Y-73509852D01*
X167657613Y-73512254D01*
X167634164Y-73519367D01*
X167612553Y-73530918D01*
X167593611Y-73546463D01*
X167578066Y-73565405D01*
X167566515Y-73587016D01*
X167559402Y-73610465D01*
X167557000Y-73634851D01*
X167557000Y-74781149D01*
X167559402Y-74805535D01*
X167566515Y-74828984D01*
X167578066Y-74850595D01*
X167593611Y-74869537D01*
X167612553Y-74885082D01*
X167634164Y-74896633D01*
X167657613Y-74903746D01*
X167681999Y-74906148D01*
X167899860Y-74906148D01*
X167915999Y-74907737D01*
X167925608Y-74910652D01*
X167934472Y-74915390D01*
X167942237Y-74921763D01*
X167948610Y-74929528D01*
X167953348Y-74938392D01*
X167956263Y-74948001D01*
X167957852Y-74964140D01*
X167957852Y-75781149D01*
X167960254Y-75805535D01*
X167967367Y-75828984D01*
X167978918Y-75850595D01*
X167994463Y-75869537D01*
X168013405Y-75885082D01*
X168035016Y-75896633D01*
X168058465Y-75903746D01*
X168082851Y-75906148D01*
X172399860Y-75906148D01*
X172415999Y-75907737D01*
X172425608Y-75910652D01*
X172434472Y-75915390D01*
X172442237Y-75921763D01*
X172448610Y-75929528D01*
X172453348Y-75938392D01*
X172456263Y-75948001D01*
X172457852Y-75964140D01*
X172457852Y-76501860D01*
X172456263Y-76517999D01*
X172453348Y-76527608D01*
X172448610Y-76536472D01*
X172442237Y-76544237D01*
X172434472Y-76550610D01*
X172425608Y-76555348D01*
X172415999Y-76558263D01*
X172399860Y-76559852D01*
X164912140Y-76559852D01*
X164896001Y-76558263D01*
X164886392Y-76555348D01*
X164877528Y-76550610D01*
X164869763Y-76544237D01*
X164863390Y-76536472D01*
X164858652Y-76527608D01*
X164855737Y-76517999D01*
X164854148Y-76501860D01*
X164854148Y-74964141D01*
X164855910Y-74946252D01*
X164855910Y-74921748D01*
X164855000Y-74917172D01*
X164855000Y-73497351D01*
X164856512Y-73482001D01*
X164855910Y-73469748D01*
X164854148Y-73451859D01*
X164854148Y-71914140D01*
X164855737Y-71898001D01*
X164858652Y-71888392D01*
X164863390Y-71879528D01*
X164869763Y-71871763D01*
X164877528Y-71865390D01*
X164886392Y-71860652D01*
X164896001Y-71857737D01*
X164912140Y-71856148D01*
X172399860Y-71856148D01*
X172415999Y-71857737D01*
X172415999Y-71857737D01*
G37*
G36*
X139903999Y-71849737D02*
G01*
X139913608Y-71852652D01*
X139922472Y-71857390D01*
X139930237Y-71863763D01*
X139936610Y-71871528D01*
X139941348Y-71880392D01*
X139944263Y-71890001D01*
X139945852Y-71906140D01*
X139945852Y-73443859D01*
X139944090Y-73461748D01*
X139944090Y-73486252D01*
X139945000Y-73490828D01*
X139945000Y-74910649D01*
X139943488Y-74925999D01*
X139944090Y-74938252D01*
X139945852Y-74956141D01*
X139945852Y-76493860D01*
X139944263Y-76509999D01*
X139941348Y-76519608D01*
X139936610Y-76528472D01*
X139930237Y-76536237D01*
X139922472Y-76542610D01*
X139913608Y-76547348D01*
X139903999Y-76550263D01*
X139887860Y-76551852D01*
X132400140Y-76551852D01*
X132384001Y-76550263D01*
X132374392Y-76547348D01*
X132365528Y-76542610D01*
X132357763Y-76536237D01*
X132351390Y-76528472D01*
X132346652Y-76519608D01*
X132343737Y-76509999D01*
X132342148Y-76493860D01*
X132342148Y-75956140D01*
X132343737Y-75940001D01*
X132346652Y-75930392D01*
X132351390Y-75921528D01*
X132357763Y-75913763D01*
X132365528Y-75907390D01*
X132374392Y-75902652D01*
X132384001Y-75899737D01*
X132400140Y-75898148D01*
X136717149Y-75898148D01*
X136741535Y-75895746D01*
X136764984Y-75888633D01*
X136786595Y-75877082D01*
X136805537Y-75861537D01*
X136821082Y-75842595D01*
X136832633Y-75820984D01*
X136839746Y-75797535D01*
X136842148Y-75773149D01*
X136842148Y-74956140D01*
X136843737Y-74940001D01*
X136846652Y-74930392D01*
X136851390Y-74921528D01*
X136857763Y-74913763D01*
X136865528Y-74907390D01*
X136874392Y-74902652D01*
X136884001Y-74899737D01*
X136900140Y-74898148D01*
X137118001Y-74898148D01*
X137142387Y-74895746D01*
X137165836Y-74888633D01*
X137187447Y-74877082D01*
X137206389Y-74861537D01*
X137221934Y-74842595D01*
X137233485Y-74820984D01*
X137240598Y-74797535D01*
X137243000Y-74773149D01*
X137243000Y-73626851D01*
X137240598Y-73602465D01*
X137233485Y-73579016D01*
X137221934Y-73557405D01*
X137206389Y-73538463D01*
X137187447Y-73522918D01*
X137165836Y-73511367D01*
X137142387Y-73504254D01*
X137118001Y-73501852D01*
X136900140Y-73501852D01*
X136884001Y-73500263D01*
X136874392Y-73497348D01*
X136865528Y-73492610D01*
X136857763Y-73486237D01*
X136851390Y-73478472D01*
X136846652Y-73469608D01*
X136843737Y-73459999D01*
X136842148Y-73443860D01*
X136842148Y-72626851D01*
X136839746Y-72602465D01*
X136832633Y-72579016D01*
X136821082Y-72557405D01*
X136805537Y-72538463D01*
X136786595Y-72522918D01*
X136764984Y-72511367D01*
X136741535Y-72504254D01*
X136717149Y-72501852D01*
X132400140Y-72501852D01*
X132384001Y-72500263D01*
X132374392Y-72497348D01*
X132365528Y-72492610D01*
X132357763Y-72486237D01*
X132351390Y-72478472D01*
X132346652Y-72469608D01*
X132343737Y-72459999D01*
X132342148Y-72443860D01*
X132342148Y-71906140D01*
X132343737Y-71890001D01*
X132346652Y-71880392D01*
X132351390Y-71871528D01*
X132357763Y-71863763D01*
X132365528Y-71857390D01*
X132374392Y-71852652D01*
X132384001Y-71849737D01*
X132400140Y-71848148D01*
X139887860Y-71848148D01*
X139903999Y-71849737D01*
X139903999Y-71849737D01*
G37*
M02*
