M48
; DRILL file {KiCad 7.0.2} date Wed Oct  4 18:59:29 2023
; FORMAT={-:-/ absolute / inch / decimal}
; #@! TF.CreationDate,2023-10-04T18:59:29-06:00
; #@! TF.GenerationSoftware,Kicad,Pcbnew,7.0.2
; #@! TF.FileFunction,Plated,1,4,PTH
FMAT,2
INCH
; #@! TA.AperFunction,Plated,PTH,ComponentDrill
T1C0.0240
; #@! TA.AperFunction,Plated,PTH,ComponentDrill
T2C0.0906
%
G90
G05
T1
X0.3988Y-0.2116
X0.3988Y-2.2884
X0.4238Y-0.2549
X0.4238Y-2.2451
X0.4488Y-0.2116
X0.4488Y-2.2884
X0.4738Y-0.2549
X0.4738Y-2.2451
X0.4988Y-0.2116
X0.4988Y-2.2884
X0.5238Y-0.2549
X0.5238Y-2.2451
X0.5488Y-0.2116
X0.5488Y-2.2884
X0.5738Y-0.2549
X0.5738Y-2.2451
X0.5988Y-0.2116
X0.5988Y-2.2884
X0.6238Y-0.2549
X0.6238Y-2.2451
X0.6488Y-0.2116
X0.6488Y-2.2884
X0.6738Y-0.2549
X0.6738Y-2.2451
X0.6988Y-0.2116
X0.6988Y-2.2884
X0.7238Y-0.2549
X0.7238Y-2.2451
X0.7488Y-0.2116
X0.7488Y-2.2884
X0.7738Y-0.2549
X0.7738Y-2.2451
X0.7988Y-0.2116
X0.7988Y-2.2884
X0.8238Y-0.2549
X0.8238Y-2.2451
X0.8488Y-0.2116
X0.8488Y-2.2884
X0.8738Y-0.2549
X0.8738Y-2.2451
X0.8988Y-0.2116
X0.8988Y-2.2884
X0.9238Y-0.2549
X0.9238Y-2.2451
X0.9488Y-0.2116
X0.9488Y-2.2884
X0.9738Y-0.2549
X0.9738Y-2.2451
X0.9988Y-0.2116
X0.9988Y-2.2884
T2
X0.3642Y-0.502
X0.3642Y-1.998
X1.0335Y-0.502
X1.0335Y-1.998
T0
M30
