%TF.GenerationSoftware,KiCad,Pcbnew,7.0.2*%
%TF.CreationDate,2023-10-04T18:59:29-06:00*%
%TF.ProjectId,micro-d-tes-aaray,6d696372-6f2d-4642-9d74-65732d616172,rev?*%
%TF.SameCoordinates,Original*%
%TF.FileFunction,Copper,L4,Bot*%
%TF.FilePolarity,Positive*%
%FSLAX46Y46*%
G04 Gerber Fmt 4.6, Leading zero omitted, Abs format (unit mm)*
G04 Created by KiCad (PCBNEW 7.0.2) date 2023-10-04 18:59:29*
%MOMM*%
%LPD*%
G01*
G04 APERTURE LIST*
%TA.AperFunction,NonConductor*%
%ADD10C,0.010000*%
%TD*%
%TA.AperFunction,ComponentPad*%
%ADD11C,3.500000*%
%TD*%
%TA.AperFunction,ComponentPad*%
%ADD12O,0.920000X0.920000*%
%TD*%
%TA.AperFunction,SMDPad,CuDef*%
%ADD13C,2.800000*%
%TD*%
G04 APERTURE END LIST*
D10*
X12760000Y-26690000D02*
X22760000Y-26690000D01*
X22760000Y-36690000D01*
X12760000Y-36690000D01*
X12760000Y-26690000D01*
D11*
%TO.P,H1,1,1*%
%TO.N,GND*%
X9250000Y-50750000D03*
%TD*%
%TO.P,H4,1,1*%
%TO.N,GND*%
X9250000Y-12750000D03*
%TD*%
%TO.P,H3,1,1*%
%TO.N,GND*%
X26250000Y-50750000D03*
%TD*%
%TO.P,H2,1,1*%
%TO.N,GND*%
X26250000Y-12750000D03*
%TD*%
D12*
%TO.P,J99,1,1*%
%TO.N,Net-(J1-Pin_1)*%
X25370000Y-5374500D03*
%TO.P,J99,2,2*%
%TO.N,Net-(J2-Pin_1)*%
X24100000Y-5374500D03*
%TO.P,J99,3,3*%
%TO.N,Net-(J3-Pin_1)*%
X22830000Y-5374500D03*
%TO.P,J99,4,4*%
%TO.N,Net-(J4-Pin_1)*%
X21560000Y-5374500D03*
%TO.P,J99,5,5*%
%TO.N,Net-(J5-Pin_1)*%
X20290000Y-5374500D03*
%TO.P,J99,6,6*%
%TO.N,Net-(J6-Pin_1)*%
X19020000Y-5374500D03*
%TO.P,J99,7,7*%
%TO.N,Net-(J7-Pin_1)*%
X17750000Y-5374500D03*
%TO.P,J99,8,8*%
%TO.N,Net-(J8-Pin_1)*%
X16480000Y-5374500D03*
%TO.P,J99,9,9*%
%TO.N,Net-(J9-Pin_1)*%
X15210000Y-5374500D03*
%TO.P,J99,10,10*%
%TO.N,Net-(J10-Pin_1)*%
X13940000Y-5374500D03*
%TO.P,J99,11,11*%
%TO.N,Net-(J11-Pin_1)*%
X12670000Y-5374500D03*
%TO.P,J99,12,12*%
%TO.N,Net-(J12-Pin_1)*%
X11400000Y-5374500D03*
%TO.P,J99,13,13*%
%TO.N,Net-(J13-Pin_1)*%
X10130000Y-5374500D03*
%TO.P,J99,14,P14*%
%TO.N,Net-(J14-Pin_1)*%
X24735000Y-6474500D03*
%TO.P,J99,15,P15*%
%TO.N,Net-(J15-Pin_1)*%
X23465000Y-6474500D03*
%TO.P,J99,16,P16*%
%TO.N,Net-(J16-Pin_1)*%
X22195000Y-6474500D03*
%TO.P,J99,17,P17*%
%TO.N,Net-(J17-Pin_1)*%
X20925000Y-6474500D03*
%TO.P,J99,18,P18*%
%TO.N,Net-(J18-Pin_1)*%
X19655000Y-6474500D03*
%TO.P,J99,19,P19*%
%TO.N,Net-(J19-Pin_1)*%
X18385000Y-6474500D03*
%TO.P,J99,20,P20*%
%TO.N,Net-(J20-Pin_1)*%
X17115000Y-6474500D03*
%TO.P,J99,21,P21*%
%TO.N,Net-(J21-Pin_1)*%
X15845000Y-6474500D03*
%TO.P,J99,22,P22*%
%TO.N,Net-(J22-Pin_1)*%
X14575000Y-6474500D03*
%TO.P,J99,23,P23*%
%TO.N,Net-(J23-Pin_1)*%
X13305000Y-6474500D03*
%TO.P,J99,24,P24*%
%TO.N,Net-(J24-Pin_1)*%
X12035000Y-6474500D03*
%TO.P,J99,25,P25*%
%TO.N,Net-(J25-Pin_1)*%
X10765000Y-6474500D03*
D13*
%TO.P,J99,GND*%
%TO.N,N/C*%
X30025000Y-5864500D03*
X5475000Y-5924500D03*
%TD*%
D12*
%TO.P,J26,1,1*%
%TO.N,Net-(D1-Pin_1)*%
X10130000Y-58124500D03*
%TO.P,J26,2,2*%
%TO.N,Net-(D2-Pin_1)*%
X11400000Y-58124500D03*
%TO.P,J26,3,3*%
%TO.N,Net-(D3-Pin_1)*%
X12670000Y-58124500D03*
%TO.P,J26,4,4*%
%TO.N,Net-(D4-Pin_1)*%
X13940000Y-58124500D03*
%TO.P,J26,5,5*%
%TO.N,Net-(D5-Pin_1)*%
X15210000Y-58124500D03*
%TO.P,J26,6,6*%
%TO.N,Net-(D6-Pin_1)*%
X16480000Y-58124500D03*
%TO.P,J26,7,7*%
%TO.N,Net-(D7-Pin_1)*%
X17750000Y-58124500D03*
%TO.P,J26,8,8*%
%TO.N,Net-(D8-Pin_1)*%
X19020000Y-58124500D03*
%TO.P,J26,9,9*%
%TO.N,Net-(D9-Pin_1)*%
X20290000Y-58124500D03*
%TO.P,J26,10,10*%
%TO.N,Net-(D10-Pin_1)*%
X21560000Y-58124500D03*
%TO.P,J26,11,11*%
%TO.N,Net-(D11-Pin_1)*%
X22830000Y-58124500D03*
%TO.P,J26,12,12*%
%TO.N,Net-(D12-Pin_1)*%
X24100000Y-58124500D03*
%TO.P,J26,13,13*%
%TO.N,Net-(D13-Pin_1)*%
X25370000Y-58124500D03*
%TO.P,J26,14,P14*%
%TO.N,Net-(D14-Pin_1)*%
X10765000Y-57024500D03*
%TO.P,J26,15,P15*%
%TO.N,Net-(D15-Pin_1)*%
X12035000Y-57024500D03*
%TO.P,J26,16,P16*%
%TO.N,Net-(D16-Pin_1)*%
X13305000Y-57024500D03*
%TO.P,J26,17,P17*%
%TO.N,Net-(D17-Pin_1)*%
X14575000Y-57024500D03*
%TO.P,J26,18,P18*%
%TO.N,Net-(D18-Pin_1)*%
X15845000Y-57024500D03*
%TO.P,J26,19,P19*%
%TO.N,Net-(D19-Pin_1)*%
X17115000Y-57024500D03*
%TO.P,J26,20,P20*%
%TO.N,Net-(D20-Pin_1)*%
X18385000Y-57024500D03*
%TO.P,J26,21,P21*%
%TO.N,Net-(D21-Pin_1)*%
X19655000Y-57024500D03*
%TO.P,J26,22,P22*%
%TO.N,Net-(D22-Pin_1)*%
X20925000Y-57024500D03*
%TO.P,J26,23,P23*%
%TO.N,Net-(D23-Pin_1)*%
X22195000Y-57024500D03*
%TO.P,J26,24,P24*%
%TO.N,Net-(D24-Pin_1)*%
X23465000Y-57024500D03*
%TO.P,J26,25,P25*%
%TO.N,Net-(D25-Pin_1)*%
X24735000Y-57024500D03*
D13*
%TO.P,J26,GND*%
%TO.N,N/C*%
X5475000Y-57634500D03*
X30025000Y-57574500D03*
%TD*%
%TA.AperFunction,Conductor*%
%TO.N,GND*%
G36*
X35442539Y-20185D02*
G01*
X35488294Y-72989D01*
X35499500Y-124500D01*
X35499500Y-63375500D01*
X35479815Y-63442539D01*
X35427011Y-63488294D01*
X35375500Y-63499500D01*
X124500Y-63499500D01*
X57461Y-63479815D01*
X11706Y-63427011D01*
X500Y-63375500D01*
X500Y-57634500D01*
X3569644Y-57634500D01*
X3589039Y-57905661D01*
X3646823Y-58171296D01*
X3646825Y-58171301D01*
X3741828Y-58426013D01*
X3741830Y-58426017D01*
X3741831Y-58426019D01*
X3872109Y-58664608D01*
X3872113Y-58664613D01*
X4035029Y-58882242D01*
X4227258Y-59074471D01*
X4364737Y-59177387D01*
X4444891Y-59237390D01*
X4640802Y-59344364D01*
X4683487Y-59367672D01*
X4938199Y-59462675D01*
X4938202Y-59462675D01*
X4938203Y-59462676D01*
X4987852Y-59473476D01*
X5203840Y-59520461D01*
X5454110Y-59538360D01*
X5474999Y-59539855D01*
X5474999Y-59539854D01*
X5475000Y-59539855D01*
X5746160Y-59520461D01*
X6011801Y-59462675D01*
X6266513Y-59367672D01*
X6505113Y-59237387D01*
X6722742Y-59074471D01*
X6914971Y-58882242D01*
X7077887Y-58664613D01*
X7208172Y-58426013D01*
X7303175Y-58171301D01*
X7313356Y-58124500D01*
X9164853Y-58124500D01*
X9183397Y-58312789D01*
X9199544Y-58366019D01*
X9238320Y-58493846D01*
X9327510Y-58660707D01*
X9330716Y-58664613D01*
X9447537Y-58806962D01*
X9494999Y-58845912D01*
X9593793Y-58926990D01*
X9760654Y-59016180D01*
X9941709Y-59071102D01*
X10130000Y-59089647D01*
X10318291Y-59071102D01*
X10499346Y-59016180D01*
X10666207Y-58926990D01*
X10686332Y-58910473D01*
X10750642Y-58883158D01*
X10819510Y-58894948D01*
X10843662Y-58910469D01*
X10863793Y-58926990D01*
X11030654Y-59016180D01*
X11211709Y-59071102D01*
X11400000Y-59089647D01*
X11588291Y-59071102D01*
X11769346Y-59016180D01*
X11936207Y-58926990D01*
X11956332Y-58910473D01*
X12020642Y-58883158D01*
X12089510Y-58894948D01*
X12113662Y-58910469D01*
X12133793Y-58926990D01*
X12300654Y-59016180D01*
X12481709Y-59071102D01*
X12670000Y-59089647D01*
X12858291Y-59071102D01*
X13039346Y-59016180D01*
X13206207Y-58926990D01*
X13226335Y-58910470D01*
X13290644Y-58883158D01*
X13359512Y-58894949D01*
X13383663Y-58910470D01*
X13403793Y-58926990D01*
X13570654Y-59016180D01*
X13751709Y-59071102D01*
X13940000Y-59089647D01*
X14128291Y-59071102D01*
X14309346Y-59016180D01*
X14476207Y-58926990D01*
X14496333Y-58910472D01*
X14560641Y-58883158D01*
X14629509Y-58894948D01*
X14653663Y-58910470D01*
X14653667Y-58910473D01*
X14673793Y-58926990D01*
X14840654Y-59016180D01*
X15021709Y-59071102D01*
X15210000Y-59089647D01*
X15398291Y-59071102D01*
X15579346Y-59016180D01*
X15746207Y-58926990D01*
X15766332Y-58910473D01*
X15830642Y-58883158D01*
X15899510Y-58894948D01*
X15923662Y-58910469D01*
X15943793Y-58926990D01*
X16110654Y-59016180D01*
X16291709Y-59071102D01*
X16480000Y-59089647D01*
X16668291Y-59071102D01*
X16849346Y-59016180D01*
X17016207Y-58926990D01*
X17036333Y-58910472D01*
X17100641Y-58883158D01*
X17169509Y-58894948D01*
X17193663Y-58910470D01*
X17193667Y-58910473D01*
X17213793Y-58926990D01*
X17380654Y-59016180D01*
X17561709Y-59071102D01*
X17750000Y-59089647D01*
X17938291Y-59071102D01*
X18119346Y-59016180D01*
X18286207Y-58926990D01*
X18306335Y-58910470D01*
X18370644Y-58883158D01*
X18439512Y-58894949D01*
X18463663Y-58910470D01*
X18483793Y-58926990D01*
X18650654Y-59016180D01*
X18831709Y-59071102D01*
X19020000Y-59089647D01*
X19208291Y-59071102D01*
X19389346Y-59016180D01*
X19556207Y-58926990D01*
X19576333Y-58910472D01*
X19640641Y-58883158D01*
X19709509Y-58894948D01*
X19733663Y-58910470D01*
X19733667Y-58910473D01*
X19753793Y-58926990D01*
X19920654Y-59016180D01*
X20101709Y-59071102D01*
X20290000Y-59089647D01*
X20478291Y-59071102D01*
X20659346Y-59016180D01*
X20826207Y-58926990D01*
X20846335Y-58910470D01*
X20910644Y-58883158D01*
X20979512Y-58894949D01*
X21003663Y-58910470D01*
X21023793Y-58926990D01*
X21190654Y-59016180D01*
X21371709Y-59071102D01*
X21560000Y-59089647D01*
X21748291Y-59071102D01*
X21929346Y-59016180D01*
X22096207Y-58926990D01*
X22116333Y-58910472D01*
X22180641Y-58883158D01*
X22249509Y-58894948D01*
X22273663Y-58910470D01*
X22273667Y-58910473D01*
X22293793Y-58926990D01*
X22460654Y-59016180D01*
X22641709Y-59071102D01*
X22830000Y-59089647D01*
X23018291Y-59071102D01*
X23199346Y-59016180D01*
X23366207Y-58926990D01*
X23386335Y-58910470D01*
X23450644Y-58883158D01*
X23519512Y-58894949D01*
X23543663Y-58910470D01*
X23563793Y-58926990D01*
X23730654Y-59016180D01*
X23911709Y-59071102D01*
X24100000Y-59089647D01*
X24288291Y-59071102D01*
X24469346Y-59016180D01*
X24636207Y-58926990D01*
X24656333Y-58910472D01*
X24720641Y-58883158D01*
X24789509Y-58894948D01*
X24813663Y-58910470D01*
X24813667Y-58910473D01*
X24833793Y-58926990D01*
X25000654Y-59016180D01*
X25181709Y-59071102D01*
X25370000Y-59089647D01*
X25558291Y-59071102D01*
X25739346Y-59016180D01*
X25906207Y-58926990D01*
X26052462Y-58806962D01*
X26172490Y-58660707D01*
X26261680Y-58493846D01*
X26316602Y-58312791D01*
X26335147Y-58124500D01*
X26316602Y-57936209D01*
X26261680Y-57755154D01*
X26172490Y-57588293D01*
X26161170Y-57574500D01*
X28119644Y-57574500D01*
X28139039Y-57845661D01*
X28196823Y-58111296D01*
X28196825Y-58111301D01*
X28291828Y-58366013D01*
X28291830Y-58366017D01*
X28291831Y-58366019D01*
X28422109Y-58604608D01*
X28422113Y-58604613D01*
X28585029Y-58822242D01*
X28777258Y-59014471D01*
X28877681Y-59089647D01*
X28994891Y-59177390D01*
X29190802Y-59284364D01*
X29233487Y-59307672D01*
X29488199Y-59402675D01*
X29488202Y-59402675D01*
X29488203Y-59402676D01*
X29537852Y-59413476D01*
X29753840Y-59460461D01*
X30025000Y-59479855D01*
X30296160Y-59460461D01*
X30561801Y-59402675D01*
X30816513Y-59307672D01*
X31055113Y-59177387D01*
X31272742Y-59014471D01*
X31464971Y-58822242D01*
X31627887Y-58604613D01*
X31758172Y-58366013D01*
X31853175Y-58111301D01*
X31910961Y-57845660D01*
X31930355Y-57574500D01*
X31910961Y-57303340D01*
X31853175Y-57037699D01*
X31758172Y-56782987D01*
X31734864Y-56740302D01*
X31627890Y-56544391D01*
X31585895Y-56488293D01*
X31464971Y-56326758D01*
X31272742Y-56134529D01*
X31055113Y-55971613D01*
X31055114Y-55971613D01*
X31055108Y-55971609D01*
X30816519Y-55841331D01*
X30816517Y-55841330D01*
X30816513Y-55841328D01*
X30561801Y-55746325D01*
X30561796Y-55746323D01*
X30296161Y-55688539D01*
X30025000Y-55669144D01*
X29753838Y-55688539D01*
X29488203Y-55746323D01*
X29343956Y-55800124D01*
X29233487Y-55841328D01*
X29233484Y-55841329D01*
X29233480Y-55841331D01*
X28994891Y-55971609D01*
X28777255Y-56134531D01*
X28585031Y-56326755D01*
X28422109Y-56544391D01*
X28291831Y-56782980D01*
X28196823Y-57037703D01*
X28139039Y-57303338D01*
X28119644Y-57574500D01*
X26161170Y-57574500D01*
X26112476Y-57515165D01*
X26052462Y-57442037D01*
X25906207Y-57322010D01*
X25871278Y-57303340D01*
X25755683Y-57241552D01*
X25705841Y-57192591D01*
X25690381Y-57124454D01*
X25690731Y-57120099D01*
X25700147Y-57024500D01*
X25681602Y-56836209D01*
X25626680Y-56655154D01*
X25537490Y-56488293D01*
X25454160Y-56386755D01*
X25417462Y-56342037D01*
X25310247Y-56254049D01*
X25271207Y-56222010D01*
X25104346Y-56132820D01*
X25013818Y-56105359D01*
X24923289Y-56077897D01*
X24735000Y-56059353D01*
X24546710Y-56077897D01*
X24365651Y-56132821D01*
X24198794Y-56222009D01*
X24178661Y-56238531D01*
X24114350Y-56265842D01*
X24045483Y-56254048D01*
X24021334Y-56238528D01*
X24001207Y-56222010D01*
X23834346Y-56132820D01*
X23743818Y-56105359D01*
X23653289Y-56077897D01*
X23485569Y-56061378D01*
X23465000Y-56059353D01*
X23464999Y-56059353D01*
X23276710Y-56077897D01*
X23095651Y-56132821D01*
X22928793Y-56222009D01*
X22908664Y-56238529D01*
X22844353Y-56265841D01*
X22775486Y-56254049D01*
X22751336Y-56238529D01*
X22731206Y-56222009D01*
X22564348Y-56132821D01*
X22564347Y-56132820D01*
X22564346Y-56132820D01*
X22473818Y-56105359D01*
X22383289Y-56077897D01*
X22195000Y-56059353D01*
X22006710Y-56077897D01*
X21825651Y-56132821D01*
X21658794Y-56222009D01*
X21638661Y-56238531D01*
X21574350Y-56265842D01*
X21505483Y-56254048D01*
X21481334Y-56238528D01*
X21461207Y-56222010D01*
X21294346Y-56132820D01*
X21203818Y-56105359D01*
X21113289Y-56077897D01*
X20945569Y-56061378D01*
X20925000Y-56059353D01*
X20924999Y-56059353D01*
X20736710Y-56077897D01*
X20555651Y-56132821D01*
X20388793Y-56222009D01*
X20368664Y-56238529D01*
X20304353Y-56265841D01*
X20235486Y-56254049D01*
X20211336Y-56238529D01*
X20191206Y-56222009D01*
X20024348Y-56132821D01*
X20024347Y-56132820D01*
X20024346Y-56132820D01*
X19933818Y-56105359D01*
X19843289Y-56077897D01*
X19655000Y-56059353D01*
X19466710Y-56077897D01*
X19285651Y-56132821D01*
X19118794Y-56222009D01*
X19098661Y-56238531D01*
X19034350Y-56265842D01*
X18965483Y-56254048D01*
X18941334Y-56238528D01*
X18921207Y-56222010D01*
X18754346Y-56132820D01*
X18663818Y-56105359D01*
X18573289Y-56077897D01*
X18385000Y-56059353D01*
X18196710Y-56077897D01*
X18015651Y-56132821D01*
X17848793Y-56222009D01*
X17828664Y-56238529D01*
X17764353Y-56265841D01*
X17695486Y-56254049D01*
X17671336Y-56238529D01*
X17651206Y-56222009D01*
X17484348Y-56132821D01*
X17484347Y-56132820D01*
X17484346Y-56132820D01*
X17393818Y-56105359D01*
X17303289Y-56077897D01*
X17135569Y-56061378D01*
X17115000Y-56059353D01*
X17114999Y-56059353D01*
X16926710Y-56077897D01*
X16745651Y-56132821D01*
X16578794Y-56222009D01*
X16558661Y-56238531D01*
X16494350Y-56265842D01*
X16425483Y-56254048D01*
X16401334Y-56238528D01*
X16381207Y-56222010D01*
X16214346Y-56132820D01*
X16123818Y-56105359D01*
X16033289Y-56077897D01*
X15845000Y-56059353D01*
X15656710Y-56077897D01*
X15475651Y-56132821D01*
X15308793Y-56222009D01*
X15288664Y-56238529D01*
X15224353Y-56265841D01*
X15155486Y-56254049D01*
X15131336Y-56238529D01*
X15111206Y-56222009D01*
X14944348Y-56132821D01*
X14944347Y-56132820D01*
X14944346Y-56132820D01*
X14853818Y-56105359D01*
X14763289Y-56077897D01*
X14595569Y-56061378D01*
X14575000Y-56059353D01*
X14574999Y-56059353D01*
X14386710Y-56077897D01*
X14205651Y-56132821D01*
X14038794Y-56222009D01*
X14018661Y-56238531D01*
X13954350Y-56265842D01*
X13885483Y-56254048D01*
X13861334Y-56238528D01*
X13841207Y-56222010D01*
X13674346Y-56132820D01*
X13583818Y-56105359D01*
X13493289Y-56077897D01*
X13325569Y-56061378D01*
X13305000Y-56059353D01*
X13304999Y-56059353D01*
X13116710Y-56077897D01*
X12935651Y-56132821D01*
X12768793Y-56222009D01*
X12748664Y-56238529D01*
X12684353Y-56265841D01*
X12615486Y-56254049D01*
X12591336Y-56238529D01*
X12571206Y-56222009D01*
X12404348Y-56132821D01*
X12404347Y-56132820D01*
X12404346Y-56132820D01*
X12313818Y-56105359D01*
X12223289Y-56077897D01*
X12035000Y-56059353D01*
X11846710Y-56077897D01*
X11665651Y-56132821D01*
X11498794Y-56222009D01*
X11478661Y-56238531D01*
X11414350Y-56265842D01*
X11345483Y-56254048D01*
X11321334Y-56238528D01*
X11301207Y-56222010D01*
X11134346Y-56132820D01*
X11043818Y-56105359D01*
X10953289Y-56077897D01*
X10785569Y-56061378D01*
X10765000Y-56059353D01*
X10764999Y-56059353D01*
X10576710Y-56077897D01*
X10395651Y-56132821D01*
X10228794Y-56222009D01*
X10082537Y-56342037D01*
X9962509Y-56488294D01*
X9873321Y-56655151D01*
X9818397Y-56836210D01*
X9799853Y-57024500D01*
X9809262Y-57120042D01*
X9796243Y-57188688D01*
X9748177Y-57239398D01*
X9744314Y-57241552D01*
X9593794Y-57322008D01*
X9447537Y-57442037D01*
X9327509Y-57588294D01*
X9238321Y-57755151D01*
X9183397Y-57936210D01*
X9164853Y-58124500D01*
X7313356Y-58124500D01*
X7360961Y-57905660D01*
X7380355Y-57634500D01*
X7360961Y-57363340D01*
X7303175Y-57097699D01*
X7208172Y-56842987D01*
X7105608Y-56655154D01*
X7077890Y-56604391D01*
X6990980Y-56488294D01*
X6914971Y-56386758D01*
X6722742Y-56194529D01*
X6505113Y-56031613D01*
X6505114Y-56031613D01*
X6505108Y-56031609D01*
X6266519Y-55901331D01*
X6266517Y-55901330D01*
X6266513Y-55901328D01*
X6011801Y-55806325D01*
X6011796Y-55806323D01*
X5746161Y-55748539D01*
X5475000Y-55729144D01*
X5203838Y-55748539D01*
X4938203Y-55806323D01*
X4793956Y-55860124D01*
X4683487Y-55901328D01*
X4683484Y-55901329D01*
X4683480Y-55901331D01*
X4444891Y-56031609D01*
X4227255Y-56194531D01*
X4035031Y-56386755D01*
X3872109Y-56604391D01*
X3741831Y-56842980D01*
X3646823Y-57097703D01*
X3589039Y-57363338D01*
X3569644Y-57634500D01*
X500Y-57634500D01*
X500Y-50754043D01*
X6995437Y-50754043D01*
X7014197Y-51040271D01*
X7015253Y-51048293D01*
X7071210Y-51329608D01*
X7073307Y-51337436D01*
X7165505Y-51609038D01*
X7168607Y-51616528D01*
X7295466Y-51873774D01*
X7299516Y-51880788D01*
X7458866Y-52119271D01*
X7463805Y-52125708D01*
X7490405Y-52156039D01*
X7490406Y-52156039D01*
X8279438Y-51367007D01*
X8328348Y-51445999D01*
X8471931Y-51603501D01*
X8630388Y-51723163D01*
X7843959Y-52509592D01*
X7843959Y-52509593D01*
X7874291Y-52536194D01*
X7880728Y-52541133D01*
X8119211Y-52700483D01*
X8126225Y-52704533D01*
X8383471Y-52831392D01*
X8390961Y-52834494D01*
X8662563Y-52926692D01*
X8670391Y-52928789D01*
X8951706Y-52984746D01*
X8959728Y-52985802D01*
X9245957Y-53004563D01*
X9254043Y-53004563D01*
X9540271Y-52985802D01*
X9548293Y-52984746D01*
X9829608Y-52928789D01*
X9837436Y-52926692D01*
X10109038Y-52834494D01*
X10116528Y-52831392D01*
X10373774Y-52704533D01*
X10380788Y-52700483D01*
X10619273Y-52541132D01*
X10625698Y-52536201D01*
X10656040Y-52509592D01*
X9869611Y-51723163D01*
X10028069Y-51603501D01*
X10171652Y-51445999D01*
X10220560Y-51367008D01*
X11009592Y-52156040D01*
X11036201Y-52125698D01*
X11041132Y-52119273D01*
X11200483Y-51880788D01*
X11204533Y-51873774D01*
X11331392Y-51616528D01*
X11334494Y-51609038D01*
X11426692Y-51337436D01*
X11428789Y-51329608D01*
X11484746Y-51048293D01*
X11485802Y-51040271D01*
X11504563Y-50754043D01*
X11504563Y-50745956D01*
X11485802Y-50459728D01*
X11484746Y-50451706D01*
X11428789Y-50170391D01*
X11426692Y-50162563D01*
X11334494Y-49890961D01*
X11331392Y-49883471D01*
X11265571Y-49749999D01*
X16017655Y-49749999D01*
X16023735Y-49831125D01*
X16021668Y-49840781D01*
X16026345Y-49871058D01*
X16027450Y-49880696D01*
X16027719Y-49884277D01*
X16028067Y-49893566D01*
X16028067Y-49919090D01*
X16031165Y-49930271D01*
X16037004Y-50008191D01*
X16055825Y-50090650D01*
X16055156Y-50101568D01*
X16064959Y-50132544D01*
X16067630Y-50142368D01*
X16068573Y-50146500D01*
X16070228Y-50155161D01*
X16073802Y-50178303D01*
X16077942Y-50187549D01*
X16094619Y-50260619D01*
X16126701Y-50342361D01*
X16127758Y-50354295D01*
X16142887Y-50384849D01*
X16147182Y-50394546D01*
X16149237Y-50399782D01*
X16152023Y-50407652D01*
X16158327Y-50427574D01*
X16162991Y-50434827D01*
X16189212Y-50501636D01*
X16234745Y-50580501D01*
X16237808Y-50593130D01*
X16258209Y-50622133D01*
X16264171Y-50631470D01*
X16268002Y-50638105D01*
X16271741Y-50645086D01*
X16279687Y-50661134D01*
X16284366Y-50666447D01*
X16318670Y-50725865D01*
X16377481Y-50799610D01*
X16382767Y-50812558D01*
X16408167Y-50838951D01*
X16415767Y-50847621D01*
X16422313Y-50855829D01*
X16426790Y-50861803D01*
X16435058Y-50873557D01*
X16439269Y-50877091D01*
X16480101Y-50928292D01*
X16551639Y-50994670D01*
X16559289Y-51007514D01*
X16589218Y-51030328D01*
X16598377Y-51038036D01*
X16608836Y-51047741D01*
X16613825Y-51052641D01*
X16620861Y-51059952D01*
X16624171Y-51061971D01*
X16669894Y-51104396D01*
X16669900Y-51104400D01*
X16669901Y-51104401D01*
X16713263Y-51133965D01*
X16753241Y-51161221D01*
X16763321Y-51173514D01*
X16797135Y-51191902D01*
X16807750Y-51198385D01*
X16823372Y-51209036D01*
X16828693Y-51212873D01*
X16832767Y-51215978D01*
X16834813Y-51216836D01*
X16883827Y-51250254D01*
X16927181Y-51271131D01*
X16977668Y-51295445D01*
X16990159Y-51306722D01*
X17027072Y-51319980D01*
X17038958Y-51324961D01*
X17061245Y-51335693D01*
X17065761Y-51338006D01*
X17066359Y-51338156D01*
X17117104Y-51362594D01*
X17219776Y-51394264D01*
X17234563Y-51404053D01*
X17273657Y-51411635D01*
X17286587Y-51414872D01*
X17364517Y-51438911D01*
X17474019Y-51455415D01*
X17490898Y-51463263D01*
X17531190Y-51464808D01*
X17544920Y-51466102D01*
X17620542Y-51477500D01*
X17734590Y-51477500D01*
X17753287Y-51482990D01*
X17793759Y-51478318D01*
X17807980Y-51477500D01*
X17879457Y-51477500D01*
X17879458Y-51477500D01*
X17995495Y-51460010D01*
X18015639Y-51462767D01*
X18055227Y-51451888D01*
X18069599Y-51448841D01*
X18135483Y-51438911D01*
X18250781Y-51403345D01*
X18271945Y-51403057D01*
X18309645Y-51386157D01*
X18323817Y-51380817D01*
X18382896Y-51362594D01*
X18494593Y-51308803D01*
X18516275Y-51305232D01*
X18551108Y-51282675D01*
X18564694Y-51275044D01*
X18616172Y-51250254D01*
X18721347Y-51178546D01*
X18743012Y-51171539D01*
X18774085Y-51143847D01*
X18786731Y-51133968D01*
X18830099Y-51104401D01*
X18925848Y-51015558D01*
X18946926Y-51005052D01*
X18973453Y-50972886D01*
X18984772Y-50960884D01*
X19019898Y-50928293D01*
X19103406Y-50823576D01*
X19123302Y-50809611D01*
X19144618Y-50773757D01*
X19154249Y-50759822D01*
X19158858Y-50754043D01*
X23995437Y-50754043D01*
X24014197Y-51040271D01*
X24015253Y-51048293D01*
X24071210Y-51329608D01*
X24073307Y-51337436D01*
X24165505Y-51609038D01*
X24168607Y-51616528D01*
X24295466Y-51873774D01*
X24299516Y-51880788D01*
X24458866Y-52119271D01*
X24463805Y-52125708D01*
X24490405Y-52156039D01*
X24490406Y-52156039D01*
X25279438Y-51367007D01*
X25328348Y-51445999D01*
X25471931Y-51603501D01*
X25630388Y-51723163D01*
X24843959Y-52509592D01*
X24843959Y-52509593D01*
X24874291Y-52536194D01*
X24880728Y-52541133D01*
X25119211Y-52700483D01*
X25126225Y-52704533D01*
X25383471Y-52831392D01*
X25390961Y-52834494D01*
X25662563Y-52926692D01*
X25670391Y-52928789D01*
X25951706Y-52984746D01*
X25959728Y-52985802D01*
X26245957Y-53004563D01*
X26254043Y-53004563D01*
X26540271Y-52985802D01*
X26548293Y-52984746D01*
X26829608Y-52928789D01*
X26837436Y-52926692D01*
X27109038Y-52834494D01*
X27116528Y-52831392D01*
X27373774Y-52704533D01*
X27380788Y-52700483D01*
X27619273Y-52541132D01*
X27625698Y-52536201D01*
X27656040Y-52509592D01*
X26869611Y-51723163D01*
X27028069Y-51603501D01*
X27171652Y-51445999D01*
X27220560Y-51367008D01*
X28009592Y-52156040D01*
X28036201Y-52125698D01*
X28041132Y-52119273D01*
X28200483Y-51880788D01*
X28204533Y-51873774D01*
X28331392Y-51616528D01*
X28334494Y-51609038D01*
X28426692Y-51337436D01*
X28428789Y-51329608D01*
X28484746Y-51048293D01*
X28485802Y-51040271D01*
X28504563Y-50754043D01*
X28504563Y-50745956D01*
X28485802Y-50459728D01*
X28484746Y-50451706D01*
X28428789Y-50170391D01*
X28426692Y-50162563D01*
X28334494Y-49890961D01*
X28331392Y-49883471D01*
X28204533Y-49626225D01*
X28200483Y-49619211D01*
X28041133Y-49380728D01*
X28036194Y-49374291D01*
X28009592Y-49343959D01*
X27220560Y-50132991D01*
X27171652Y-50054001D01*
X27028069Y-49896499D01*
X26869610Y-49776835D01*
X27656039Y-48990406D01*
X27656039Y-48990405D01*
X27625708Y-48963805D01*
X27619271Y-48958866D01*
X27380788Y-48799516D01*
X27373774Y-48795466D01*
X27116528Y-48668607D01*
X27109038Y-48665505D01*
X26837436Y-48573307D01*
X26829608Y-48571210D01*
X26548293Y-48515253D01*
X26540271Y-48514197D01*
X26254043Y-48495437D01*
X26245957Y-48495437D01*
X25959728Y-48514197D01*
X25951706Y-48515253D01*
X25670391Y-48571210D01*
X25662563Y-48573307D01*
X25390961Y-48665505D01*
X25383471Y-48668607D01*
X25126225Y-48795466D01*
X25119211Y-48799516D01*
X24880723Y-48958869D01*
X24874295Y-48963801D01*
X24843958Y-48990405D01*
X24843958Y-48990406D01*
X25630388Y-49776836D01*
X25471931Y-49896499D01*
X25328348Y-50054001D01*
X25279439Y-50132991D01*
X24490406Y-49343958D01*
X24490405Y-49343958D01*
X24463801Y-49374295D01*
X24458869Y-49380723D01*
X24299516Y-49619211D01*
X24295466Y-49626225D01*
X24168607Y-49883471D01*
X24165505Y-49890961D01*
X24073307Y-50162563D01*
X24071210Y-50170391D01*
X24015253Y-50451706D01*
X24014197Y-50459728D01*
X23995437Y-50745956D01*
X23995437Y-50754043D01*
X19158858Y-50754043D01*
X19181330Y-50725864D01*
X19231998Y-50638105D01*
X19249965Y-50606985D01*
X19268098Y-50589693D01*
X19283685Y-50551021D01*
X19291300Y-50535388D01*
X19310788Y-50501636D01*
X19405381Y-50260617D01*
X19462995Y-50008192D01*
X19482344Y-49750000D01*
X19462995Y-49491808D01*
X19405381Y-49239383D01*
X19310788Y-48998364D01*
X19291307Y-48964622D01*
X19283686Y-48948980D01*
X19271270Y-48918175D01*
X19249967Y-48893019D01*
X19181328Y-48774132D01*
X19154259Y-48740189D01*
X19144619Y-48726243D01*
X19127508Y-48697463D01*
X19103410Y-48676428D01*
X19019898Y-48571707D01*
X18984778Y-48539120D01*
X18973455Y-48527116D01*
X18951997Y-48501096D01*
X18925849Y-48484442D01*
X18830096Y-48395596D01*
X18786740Y-48366036D01*
X18774092Y-48356156D01*
X18748769Y-48333588D01*
X18721351Y-48321455D01*
X18616172Y-48249746D01*
X18616171Y-48249745D01*
X18616169Y-48249744D01*
X18564714Y-48224965D01*
X18551114Y-48217327D01*
X18522515Y-48198807D01*
X18494593Y-48191196D01*
X18382900Y-48137407D01*
X18323822Y-48119184D01*
X18309649Y-48113844D01*
X18278476Y-48099869D01*
X18250781Y-48096653D01*
X18135485Y-48061089D01*
X18069616Y-48051161D01*
X18055241Y-48048114D01*
X18022270Y-48039053D01*
X17995496Y-48039989D01*
X17879459Y-48022500D01*
X17879458Y-48022500D01*
X17807975Y-48022500D01*
X17793755Y-48021682D01*
X17759824Y-48017765D01*
X17734589Y-48022500D01*
X17620542Y-48022500D01*
X17544939Y-48033895D01*
X17531207Y-48035189D01*
X17497191Y-48036492D01*
X17474020Y-48044584D01*
X17364515Y-48061089D01*
X17286612Y-48085119D01*
X17273671Y-48088360D01*
X17240452Y-48094802D01*
X17219778Y-48105735D01*
X17117101Y-48137406D01*
X17066361Y-48161842D01*
X17065906Y-48161916D01*
X17061223Y-48164316D01*
X17038971Y-48175033D01*
X17027079Y-48180016D01*
X16995508Y-48191354D01*
X16977669Y-48204554D01*
X16883828Y-48249746D01*
X16834810Y-48283165D01*
X16833208Y-48283682D01*
X16828678Y-48287136D01*
X16823363Y-48290969D01*
X16807760Y-48301607D01*
X16797147Y-48308089D01*
X16768038Y-48323918D01*
X16753243Y-48338776D01*
X16669900Y-48395599D01*
X16624171Y-48438029D01*
X16621539Y-48439340D01*
X16613806Y-48447376D01*
X16608807Y-48452285D01*
X16598392Y-48461949D01*
X16589222Y-48469668D01*
X16563304Y-48489424D01*
X16551640Y-48505329D01*
X16480101Y-48571708D01*
X16439269Y-48622908D01*
X16435862Y-48625299D01*
X16426788Y-48638199D01*
X16422320Y-48644161D01*
X16415776Y-48652368D01*
X16408169Y-48661047D01*
X16386034Y-48684046D01*
X16377482Y-48700386D01*
X16318671Y-48774132D01*
X16284365Y-48833553D01*
X16280486Y-48837250D01*
X16271739Y-48854917D01*
X16268005Y-48861888D01*
X16264174Y-48868524D01*
X16258209Y-48877867D01*
X16240329Y-48903287D01*
X16234747Y-48919495D01*
X16189212Y-48998364D01*
X16162992Y-49065171D01*
X16158989Y-49070331D01*
X16152020Y-49092354D01*
X16149231Y-49100233D01*
X16147196Y-49105419D01*
X16142889Y-49115146D01*
X16129550Y-49142084D01*
X16126702Y-49157636D01*
X16094619Y-49239383D01*
X16077942Y-49312449D01*
X16074195Y-49319147D01*
X16070226Y-49344842D01*
X16068576Y-49353483D01*
X16067635Y-49357609D01*
X16064960Y-49367450D01*
X16056268Y-49394914D01*
X16055825Y-49409348D01*
X16037004Y-49491808D01*
X16031165Y-49569727D01*
X16028067Y-49577947D01*
X16028067Y-49606433D01*
X16027718Y-49615727D01*
X16027449Y-49619306D01*
X16026345Y-49628938D01*
X16022176Y-49655931D01*
X16023735Y-49668872D01*
X16017655Y-49749999D01*
X11265571Y-49749999D01*
X11204533Y-49626225D01*
X11200483Y-49619211D01*
X11041133Y-49380728D01*
X11036194Y-49374291D01*
X11009592Y-49343959D01*
X10220560Y-50132991D01*
X10171652Y-50054001D01*
X10028069Y-49896499D01*
X9869610Y-49776835D01*
X10656039Y-48990406D01*
X10656039Y-48990405D01*
X10625708Y-48963805D01*
X10619271Y-48958866D01*
X10380788Y-48799516D01*
X10373774Y-48795466D01*
X10116528Y-48668607D01*
X10109038Y-48665505D01*
X9837436Y-48573307D01*
X9829608Y-48571210D01*
X9548293Y-48515253D01*
X9540271Y-48514197D01*
X9254043Y-48495437D01*
X9245957Y-48495437D01*
X8959728Y-48514197D01*
X8951706Y-48515253D01*
X8670391Y-48571210D01*
X8662563Y-48573307D01*
X8390961Y-48665505D01*
X8383471Y-48668607D01*
X8126225Y-48795466D01*
X8119211Y-48799516D01*
X7880723Y-48958869D01*
X7874295Y-48963801D01*
X7843958Y-48990405D01*
X7843958Y-48990406D01*
X8630388Y-49776836D01*
X8471931Y-49896499D01*
X8328348Y-50054001D01*
X8279439Y-50132991D01*
X7490406Y-49343958D01*
X7490405Y-49343958D01*
X7463801Y-49374295D01*
X7458869Y-49380723D01*
X7299516Y-49619211D01*
X7295466Y-49626225D01*
X7168607Y-49883471D01*
X7165505Y-49890961D01*
X7073307Y-50162563D01*
X7071210Y-50170391D01*
X7015253Y-50451706D01*
X7014197Y-50459728D01*
X6995437Y-50745956D01*
X6995437Y-50754043D01*
X500Y-50754043D01*
X500Y-34225889D01*
X5679416Y-34225889D01*
X5679459Y-34250000D01*
X5679501Y-34250101D01*
X5679616Y-34250382D01*
X5679618Y-34250384D01*
X5679808Y-34250462D01*
X5680000Y-34250541D01*
X5680002Y-34250539D01*
X5704616Y-34250524D01*
X5704616Y-34250528D01*
X5704760Y-34250500D01*
X12130500Y-34250500D01*
X12197539Y-34270185D01*
X12243294Y-34322989D01*
X12254500Y-34374500D01*
X12254500Y-36762680D01*
X12262292Y-36789218D01*
X12266053Y-36806506D01*
X12269988Y-36833879D01*
X12281476Y-36859034D01*
X12287657Y-36875605D01*
X12295452Y-36902151D01*
X12310408Y-36925424D01*
X12318884Y-36940947D01*
X12330373Y-36966103D01*
X12330374Y-36966104D01*
X12348477Y-36986996D01*
X12348483Y-36987002D01*
X12359084Y-37001163D01*
X12374040Y-37024436D01*
X12394947Y-37042552D01*
X12407447Y-37055052D01*
X12425564Y-37075960D01*
X12448833Y-37090913D01*
X12462997Y-37101517D01*
X12483893Y-37119624D01*
X12483894Y-37119624D01*
X12483896Y-37119626D01*
X12509061Y-37131118D01*
X12524574Y-37139590D01*
X12547848Y-37154547D01*
X12574392Y-37162341D01*
X12590952Y-37168517D01*
X12616120Y-37180011D01*
X12643491Y-37183945D01*
X12660776Y-37187705D01*
X12687320Y-37195500D01*
X12687321Y-37195500D01*
X22832679Y-37195500D01*
X22832680Y-37195500D01*
X22859223Y-37187705D01*
X22876509Y-37183945D01*
X22903880Y-37180011D01*
X22929046Y-37168517D01*
X22945616Y-37162338D01*
X22972152Y-37154547D01*
X22995426Y-37139589D01*
X23010945Y-37131115D01*
X23036104Y-37119626D01*
X23057002Y-37101516D01*
X23071163Y-37090915D01*
X23094436Y-37075960D01*
X23112547Y-37055057D01*
X23125060Y-37042545D01*
X23145960Y-37024436D01*
X23160915Y-37001163D01*
X23171516Y-36987002D01*
X23189626Y-36966104D01*
X23201115Y-36940945D01*
X23209591Y-36925424D01*
X23224547Y-36902152D01*
X23232338Y-36875616D01*
X23238517Y-36859046D01*
X23250011Y-36833880D01*
X23253946Y-36806506D01*
X23257705Y-36789223D01*
X23265500Y-36762680D01*
X23265500Y-36617320D01*
X23265500Y-34374499D01*
X23285185Y-34307461D01*
X23337989Y-34261706D01*
X23389500Y-34250500D01*
X29795240Y-34250500D01*
X29795383Y-34250528D01*
X29795384Y-34250524D01*
X29819997Y-34250539D01*
X29820000Y-34250541D01*
X29820383Y-34250383D01*
X29820500Y-34250099D01*
X29820541Y-34250000D01*
X29820540Y-34249997D01*
X29820583Y-34225889D01*
X29820500Y-34225467D01*
X29820500Y-29274759D01*
X29820528Y-29274616D01*
X29820524Y-29274616D01*
X29820539Y-29250002D01*
X29820541Y-29250000D01*
X29820462Y-29249808D01*
X29820384Y-29249618D01*
X29820383Y-29249617D01*
X29820379Y-29249615D01*
X29820097Y-29249499D01*
X29820000Y-29249459D01*
X29795446Y-29249459D01*
X29795240Y-29249500D01*
X23389500Y-29249500D01*
X23322461Y-29229815D01*
X23276706Y-29177011D01*
X23265500Y-29125500D01*
X23265500Y-26617321D01*
X23265500Y-26617320D01*
X23257705Y-26590776D01*
X23253945Y-26573488D01*
X23250011Y-26546122D01*
X23250011Y-26546121D01*
X23250011Y-26546120D01*
X23238517Y-26520952D01*
X23232341Y-26504392D01*
X23224547Y-26477848D01*
X23209590Y-26454574D01*
X23201118Y-26439061D01*
X23189626Y-26413896D01*
X23189624Y-26413894D01*
X23189624Y-26413893D01*
X23171517Y-26392997D01*
X23160911Y-26378830D01*
X23145960Y-26355564D01*
X23145957Y-26355561D01*
X23125052Y-26337447D01*
X23112550Y-26324945D01*
X23094436Y-26304040D01*
X23071163Y-26289084D01*
X23057002Y-26278483D01*
X23036103Y-26260373D01*
X23010947Y-26248884D01*
X22995424Y-26240408D01*
X22972151Y-26225452D01*
X22945605Y-26217657D01*
X22929034Y-26211476D01*
X22903879Y-26199988D01*
X22876506Y-26196053D01*
X22859218Y-26192292D01*
X22832681Y-26184500D01*
X22832680Y-26184500D01*
X22796153Y-26184500D01*
X12832680Y-26184500D01*
X12687320Y-26184500D01*
X12687319Y-26184500D01*
X12660780Y-26192292D01*
X12643498Y-26196051D01*
X12616121Y-26199987D01*
X12590955Y-26211480D01*
X12574385Y-26217660D01*
X12547848Y-26225452D01*
X12524568Y-26240412D01*
X12509052Y-26248884D01*
X12483897Y-26260373D01*
X12462997Y-26278483D01*
X12448836Y-26289084D01*
X12425561Y-26304042D01*
X12407447Y-26324945D01*
X12394945Y-26337447D01*
X12374042Y-26355561D01*
X12359084Y-26378836D01*
X12348483Y-26392997D01*
X12330373Y-26413897D01*
X12318884Y-26439052D01*
X12310412Y-26454568D01*
X12295452Y-26477848D01*
X12287660Y-26504385D01*
X12281480Y-26520955D01*
X12269987Y-26546121D01*
X12266051Y-26573498D01*
X12262292Y-26590780D01*
X12254500Y-26617319D01*
X12254500Y-29125500D01*
X12234815Y-29192539D01*
X12182011Y-29238294D01*
X12130500Y-29249500D01*
X5704760Y-29249500D01*
X5704554Y-29249459D01*
X5679999Y-29249459D01*
X5679900Y-29249500D01*
X5679618Y-29249615D01*
X5679615Y-29249618D01*
X5679459Y-29249999D01*
X5679476Y-29274616D01*
X5679471Y-29274616D01*
X5679500Y-29274759D01*
X5679500Y-34225467D01*
X5679416Y-34225889D01*
X500Y-34225889D01*
X500Y-12754043D01*
X6995437Y-12754043D01*
X7014197Y-13040271D01*
X7015253Y-13048293D01*
X7071210Y-13329608D01*
X7073307Y-13337436D01*
X7165505Y-13609038D01*
X7168607Y-13616528D01*
X7295466Y-13873774D01*
X7299516Y-13880788D01*
X7458866Y-14119271D01*
X7463805Y-14125708D01*
X7490405Y-14156039D01*
X7490406Y-14156039D01*
X8279438Y-13367007D01*
X8328348Y-13445999D01*
X8471931Y-13603501D01*
X8630388Y-13723163D01*
X7843959Y-14509592D01*
X7843959Y-14509593D01*
X7874291Y-14536194D01*
X7880728Y-14541133D01*
X8119211Y-14700483D01*
X8126225Y-14704533D01*
X8383471Y-14831392D01*
X8390961Y-14834494D01*
X8662563Y-14926692D01*
X8670391Y-14928789D01*
X8951706Y-14984746D01*
X8959728Y-14985802D01*
X9245957Y-15004563D01*
X9254043Y-15004563D01*
X9540271Y-14985802D01*
X9548293Y-14984746D01*
X9829608Y-14928789D01*
X9837436Y-14926692D01*
X10109038Y-14834494D01*
X10116528Y-14831392D01*
X10373774Y-14704533D01*
X10380788Y-14700483D01*
X10619273Y-14541132D01*
X10625698Y-14536201D01*
X10656040Y-14509592D01*
X9869611Y-13723163D01*
X10028069Y-13603501D01*
X10171652Y-13445999D01*
X10220560Y-13367008D01*
X11009592Y-14156040D01*
X11036201Y-14125698D01*
X11041132Y-14119273D01*
X11200483Y-13880788D01*
X11204533Y-13873774D01*
X11265572Y-13749999D01*
X16017655Y-13749999D01*
X16023735Y-13831125D01*
X16021668Y-13840781D01*
X16026345Y-13871058D01*
X16027450Y-13880696D01*
X16027719Y-13884277D01*
X16028067Y-13893566D01*
X16028067Y-13919090D01*
X16031165Y-13930271D01*
X16037004Y-14008191D01*
X16055825Y-14090650D01*
X16055156Y-14101568D01*
X16064959Y-14132544D01*
X16067630Y-14142368D01*
X16068573Y-14146500D01*
X16070228Y-14155161D01*
X16073802Y-14178303D01*
X16077942Y-14187549D01*
X16094619Y-14260619D01*
X16126701Y-14342361D01*
X16127758Y-14354295D01*
X16142887Y-14384849D01*
X16147182Y-14394546D01*
X16149237Y-14399782D01*
X16152023Y-14407652D01*
X16158327Y-14427574D01*
X16162991Y-14434827D01*
X16189212Y-14501636D01*
X16234745Y-14580501D01*
X16237808Y-14593130D01*
X16258209Y-14622133D01*
X16264171Y-14631470D01*
X16268002Y-14638105D01*
X16271741Y-14645086D01*
X16279687Y-14661134D01*
X16284366Y-14666447D01*
X16318670Y-14725865D01*
X16377481Y-14799610D01*
X16382767Y-14812558D01*
X16408167Y-14838951D01*
X16415767Y-14847621D01*
X16422313Y-14855829D01*
X16426790Y-14861803D01*
X16435058Y-14873557D01*
X16439269Y-14877091D01*
X16480101Y-14928292D01*
X16551639Y-14994670D01*
X16559289Y-15007514D01*
X16589218Y-15030328D01*
X16598377Y-15038036D01*
X16608836Y-15047741D01*
X16613825Y-15052641D01*
X16620861Y-15059952D01*
X16624171Y-15061971D01*
X16669894Y-15104396D01*
X16669900Y-15104400D01*
X16669901Y-15104401D01*
X16713263Y-15133965D01*
X16753241Y-15161221D01*
X16763321Y-15173514D01*
X16797135Y-15191902D01*
X16807750Y-15198385D01*
X16823372Y-15209036D01*
X16828693Y-15212873D01*
X16832767Y-15215978D01*
X16834813Y-15216836D01*
X16883827Y-15250254D01*
X16927181Y-15271131D01*
X16977668Y-15295445D01*
X16990159Y-15306722D01*
X17027072Y-15319980D01*
X17038958Y-15324961D01*
X17061245Y-15335693D01*
X17065761Y-15338006D01*
X17066359Y-15338156D01*
X17117104Y-15362594D01*
X17219776Y-15394264D01*
X17234563Y-15404053D01*
X17273657Y-15411635D01*
X17286587Y-15414872D01*
X17364517Y-15438911D01*
X17474019Y-15455415D01*
X17490898Y-15463263D01*
X17531190Y-15464808D01*
X17544920Y-15466102D01*
X17620542Y-15477500D01*
X17734590Y-15477500D01*
X17753287Y-15482990D01*
X17793759Y-15478318D01*
X17807980Y-15477500D01*
X17879457Y-15477500D01*
X17879458Y-15477500D01*
X17995495Y-15460010D01*
X18015639Y-15462767D01*
X18055227Y-15451888D01*
X18069599Y-15448841D01*
X18135483Y-15438911D01*
X18250781Y-15403345D01*
X18271945Y-15403057D01*
X18309645Y-15386157D01*
X18323817Y-15380817D01*
X18382896Y-15362594D01*
X18494593Y-15308803D01*
X18516275Y-15305232D01*
X18551108Y-15282675D01*
X18564694Y-15275044D01*
X18616172Y-15250254D01*
X18721347Y-15178546D01*
X18743012Y-15171539D01*
X18774085Y-15143847D01*
X18786731Y-15133968D01*
X18830099Y-15104401D01*
X18925848Y-15015558D01*
X18946926Y-15005052D01*
X18973453Y-14972886D01*
X18984772Y-14960884D01*
X19019898Y-14928293D01*
X19103406Y-14823576D01*
X19123302Y-14809611D01*
X19144618Y-14773757D01*
X19154249Y-14759822D01*
X19181330Y-14725864D01*
X19231998Y-14638105D01*
X19249965Y-14606985D01*
X19268098Y-14589693D01*
X19283685Y-14551021D01*
X19291300Y-14535388D01*
X19310788Y-14501636D01*
X19405381Y-14260617D01*
X19462995Y-14008192D01*
X19482344Y-13750000D01*
X19462995Y-13491808D01*
X19405381Y-13239383D01*
X19310788Y-12998364D01*
X19291307Y-12964622D01*
X19283686Y-12948980D01*
X19271270Y-12918175D01*
X19249967Y-12893019D01*
X19181328Y-12774132D01*
X19165307Y-12754043D01*
X23995437Y-12754043D01*
X24014197Y-13040271D01*
X24015253Y-13048293D01*
X24071210Y-13329608D01*
X24073307Y-13337436D01*
X24165505Y-13609038D01*
X24168607Y-13616528D01*
X24295466Y-13873774D01*
X24299516Y-13880788D01*
X24458866Y-14119271D01*
X24463805Y-14125708D01*
X24490405Y-14156039D01*
X24490406Y-14156039D01*
X25279438Y-13367007D01*
X25328348Y-13445999D01*
X25471931Y-13603501D01*
X25630388Y-13723163D01*
X24843959Y-14509592D01*
X24843959Y-14509593D01*
X24874291Y-14536194D01*
X24880728Y-14541133D01*
X25119211Y-14700483D01*
X25126225Y-14704533D01*
X25383471Y-14831392D01*
X25390961Y-14834494D01*
X25662563Y-14926692D01*
X25670391Y-14928789D01*
X25951706Y-14984746D01*
X25959728Y-14985802D01*
X26245957Y-15004563D01*
X26254043Y-15004563D01*
X26540271Y-14985802D01*
X26548293Y-14984746D01*
X26829608Y-14928789D01*
X26837436Y-14926692D01*
X27109038Y-14834494D01*
X27116528Y-14831392D01*
X27373774Y-14704533D01*
X27380788Y-14700483D01*
X27619273Y-14541132D01*
X27625698Y-14536201D01*
X27656040Y-14509592D01*
X26869611Y-13723163D01*
X27028069Y-13603501D01*
X27171652Y-13445999D01*
X27220560Y-13367008D01*
X28009592Y-14156040D01*
X28036201Y-14125698D01*
X28041132Y-14119273D01*
X28200483Y-13880788D01*
X28204533Y-13873774D01*
X28331392Y-13616528D01*
X28334494Y-13609038D01*
X28426692Y-13337436D01*
X28428789Y-13329608D01*
X28484746Y-13048293D01*
X28485802Y-13040271D01*
X28504563Y-12754043D01*
X28504563Y-12745956D01*
X28485802Y-12459728D01*
X28484746Y-12451706D01*
X28428789Y-12170391D01*
X28426692Y-12162563D01*
X28334494Y-11890961D01*
X28331392Y-11883471D01*
X28204533Y-11626225D01*
X28200483Y-11619211D01*
X28041133Y-11380728D01*
X28036194Y-11374291D01*
X28009592Y-11343959D01*
X27220560Y-12132991D01*
X27171652Y-12054001D01*
X27028069Y-11896499D01*
X26869610Y-11776835D01*
X27656039Y-10990406D01*
X27656039Y-10990405D01*
X27625708Y-10963805D01*
X27619271Y-10958866D01*
X27380788Y-10799516D01*
X27373774Y-10795466D01*
X27116528Y-10668607D01*
X27109038Y-10665505D01*
X26837436Y-10573307D01*
X26829608Y-10571210D01*
X26548293Y-10515253D01*
X26540271Y-10514197D01*
X26254043Y-10495437D01*
X26245957Y-10495437D01*
X25959728Y-10514197D01*
X25951706Y-10515253D01*
X25670391Y-10571210D01*
X25662563Y-10573307D01*
X25390961Y-10665505D01*
X25383471Y-10668607D01*
X25126225Y-10795466D01*
X25119211Y-10799516D01*
X24880723Y-10958869D01*
X24874295Y-10963801D01*
X24843958Y-10990405D01*
X24843958Y-10990406D01*
X25630388Y-11776836D01*
X25471931Y-11896499D01*
X25328348Y-12054001D01*
X25279439Y-12132991D01*
X24490406Y-11343958D01*
X24490405Y-11343958D01*
X24463801Y-11374295D01*
X24458869Y-11380723D01*
X24299516Y-11619211D01*
X24295466Y-11626225D01*
X24168607Y-11883471D01*
X24165505Y-11890961D01*
X24073307Y-12162563D01*
X24071210Y-12170391D01*
X24015253Y-12451706D01*
X24014197Y-12459728D01*
X23995437Y-12745956D01*
X23995437Y-12754043D01*
X19165307Y-12754043D01*
X19154259Y-12740189D01*
X19144619Y-12726243D01*
X19127508Y-12697463D01*
X19103410Y-12676428D01*
X19019898Y-12571707D01*
X18984778Y-12539120D01*
X18973455Y-12527116D01*
X18951997Y-12501096D01*
X18925849Y-12484442D01*
X18830096Y-12395596D01*
X18786740Y-12366036D01*
X18774092Y-12356156D01*
X18748769Y-12333588D01*
X18721351Y-12321455D01*
X18616172Y-12249746D01*
X18616171Y-12249745D01*
X18616169Y-12249744D01*
X18564714Y-12224965D01*
X18551114Y-12217327D01*
X18522515Y-12198807D01*
X18494593Y-12191196D01*
X18382900Y-12137407D01*
X18323822Y-12119184D01*
X18309649Y-12113844D01*
X18278476Y-12099869D01*
X18250781Y-12096653D01*
X18135485Y-12061089D01*
X18069616Y-12051161D01*
X18055241Y-12048114D01*
X18022270Y-12039053D01*
X17995496Y-12039989D01*
X17879459Y-12022500D01*
X17879458Y-12022500D01*
X17807975Y-12022500D01*
X17793755Y-12021682D01*
X17759824Y-12017765D01*
X17734589Y-12022500D01*
X17620542Y-12022500D01*
X17544939Y-12033895D01*
X17531207Y-12035189D01*
X17497191Y-12036492D01*
X17474020Y-12044584D01*
X17364515Y-12061089D01*
X17286612Y-12085119D01*
X17273671Y-12088360D01*
X17240452Y-12094802D01*
X17219778Y-12105735D01*
X17117101Y-12137406D01*
X17066361Y-12161842D01*
X17065906Y-12161916D01*
X17061223Y-12164316D01*
X17038971Y-12175033D01*
X17027079Y-12180016D01*
X16995508Y-12191354D01*
X16977669Y-12204554D01*
X16883828Y-12249746D01*
X16834810Y-12283165D01*
X16833208Y-12283682D01*
X16828678Y-12287136D01*
X16823363Y-12290969D01*
X16807760Y-12301607D01*
X16797147Y-12308089D01*
X16768038Y-12323918D01*
X16753243Y-12338776D01*
X16669900Y-12395599D01*
X16624171Y-12438029D01*
X16621539Y-12439340D01*
X16613806Y-12447376D01*
X16608807Y-12452285D01*
X16598392Y-12461949D01*
X16589222Y-12469668D01*
X16563304Y-12489424D01*
X16551640Y-12505329D01*
X16480101Y-12571708D01*
X16439269Y-12622908D01*
X16435862Y-12625299D01*
X16426788Y-12638199D01*
X16422320Y-12644161D01*
X16415776Y-12652368D01*
X16408169Y-12661047D01*
X16386034Y-12684046D01*
X16377482Y-12700386D01*
X16318671Y-12774132D01*
X16284365Y-12833553D01*
X16280486Y-12837250D01*
X16271739Y-12854917D01*
X16268005Y-12861888D01*
X16264174Y-12868524D01*
X16258209Y-12877867D01*
X16240329Y-12903287D01*
X16234747Y-12919495D01*
X16189212Y-12998364D01*
X16162992Y-13065171D01*
X16158989Y-13070331D01*
X16152020Y-13092354D01*
X16149231Y-13100233D01*
X16147196Y-13105419D01*
X16142889Y-13115146D01*
X16129550Y-13142084D01*
X16126702Y-13157636D01*
X16094619Y-13239383D01*
X16077942Y-13312449D01*
X16074195Y-13319147D01*
X16070226Y-13344842D01*
X16068576Y-13353483D01*
X16067635Y-13357609D01*
X16064960Y-13367450D01*
X16056268Y-13394914D01*
X16055825Y-13409348D01*
X16037004Y-13491808D01*
X16031165Y-13569727D01*
X16028067Y-13577947D01*
X16028067Y-13606433D01*
X16027718Y-13615727D01*
X16027449Y-13619306D01*
X16026345Y-13628938D01*
X16022176Y-13655931D01*
X16023735Y-13668872D01*
X16017655Y-13749999D01*
X11265572Y-13749999D01*
X11331392Y-13616528D01*
X11334494Y-13609038D01*
X11426692Y-13337436D01*
X11428789Y-13329608D01*
X11484746Y-13048293D01*
X11485802Y-13040271D01*
X11504563Y-12754043D01*
X11504563Y-12745956D01*
X11485802Y-12459728D01*
X11484746Y-12451706D01*
X11428789Y-12170391D01*
X11426692Y-12162563D01*
X11334494Y-11890961D01*
X11331392Y-11883471D01*
X11204533Y-11626225D01*
X11200483Y-11619211D01*
X11041133Y-11380728D01*
X11036194Y-11374291D01*
X11009592Y-11343959D01*
X10220560Y-12132991D01*
X10171652Y-12054001D01*
X10028069Y-11896499D01*
X9869610Y-11776835D01*
X10656039Y-10990406D01*
X10656039Y-10990405D01*
X10625708Y-10963805D01*
X10619271Y-10958866D01*
X10380788Y-10799516D01*
X10373774Y-10795466D01*
X10116528Y-10668607D01*
X10109038Y-10665505D01*
X9837436Y-10573307D01*
X9829608Y-10571210D01*
X9548293Y-10515253D01*
X9540271Y-10514197D01*
X9254043Y-10495437D01*
X9245957Y-10495437D01*
X8959728Y-10514197D01*
X8951706Y-10515253D01*
X8670391Y-10571210D01*
X8662563Y-10573307D01*
X8390961Y-10665505D01*
X8383471Y-10668607D01*
X8126225Y-10795466D01*
X8119211Y-10799516D01*
X7880723Y-10958869D01*
X7874295Y-10963801D01*
X7843958Y-10990405D01*
X7843958Y-10990406D01*
X8630388Y-11776836D01*
X8471931Y-11896499D01*
X8328348Y-12054001D01*
X8279439Y-12132991D01*
X7490406Y-11343958D01*
X7490405Y-11343958D01*
X7463801Y-11374295D01*
X7458869Y-11380723D01*
X7299516Y-11619211D01*
X7295466Y-11626225D01*
X7168607Y-11883471D01*
X7165505Y-11890961D01*
X7073307Y-12162563D01*
X7071210Y-12170391D01*
X7015253Y-12451706D01*
X7014197Y-12459728D01*
X6995437Y-12745956D01*
X6995437Y-12754043D01*
X500Y-12754043D01*
X500Y-5924500D01*
X3569644Y-5924500D01*
X3589039Y-6195661D01*
X3646823Y-6461296D01*
X3646825Y-6461301D01*
X3741828Y-6716013D01*
X3741830Y-6716017D01*
X3741831Y-6716019D01*
X3872109Y-6954608D01*
X3872113Y-6954613D01*
X4035029Y-7172242D01*
X4227258Y-7364471D01*
X4327681Y-7439647D01*
X4444891Y-7527390D01*
X4640802Y-7634364D01*
X4683487Y-7657672D01*
X4938199Y-7752675D01*
X4938202Y-7752675D01*
X4938203Y-7752676D01*
X4987852Y-7763476D01*
X5203840Y-7810461D01*
X5475000Y-7829855D01*
X5746160Y-7810461D01*
X6011801Y-7752675D01*
X6266513Y-7657672D01*
X6505113Y-7527387D01*
X6722742Y-7364471D01*
X6914971Y-7172242D01*
X7077887Y-6954613D01*
X7208172Y-6716013D01*
X7303175Y-6461301D01*
X7360961Y-6195660D01*
X7380355Y-5924500D01*
X7360961Y-5653340D01*
X7303175Y-5387699D01*
X7298252Y-5374500D01*
X9164853Y-5374500D01*
X9183397Y-5562789D01*
X9183398Y-5562791D01*
X9238320Y-5743846D01*
X9327510Y-5910707D01*
X9338830Y-5924500D01*
X9447537Y-6056962D01*
X9520665Y-6116976D01*
X9593793Y-6176990D01*
X9744314Y-6257446D01*
X9794158Y-6306407D01*
X9809618Y-6374545D01*
X9809263Y-6378957D01*
X9799853Y-6474499D01*
X9818397Y-6662789D01*
X9834544Y-6716019D01*
X9873320Y-6843846D01*
X9962510Y-7010707D01*
X10009409Y-7067854D01*
X10082537Y-7156962D01*
X10129999Y-7195912D01*
X10228793Y-7276990D01*
X10395654Y-7366180D01*
X10576709Y-7421102D01*
X10765000Y-7439647D01*
X10953291Y-7421102D01*
X11134346Y-7366180D01*
X11301207Y-7276990D01*
X11321335Y-7260470D01*
X11385644Y-7233158D01*
X11454512Y-7244949D01*
X11478663Y-7260470D01*
X11498793Y-7276990D01*
X11665654Y-7366180D01*
X11846709Y-7421102D01*
X12035000Y-7439647D01*
X12223291Y-7421102D01*
X12404346Y-7366180D01*
X12571207Y-7276990D01*
X12591335Y-7260470D01*
X12655644Y-7233158D01*
X12724512Y-7244949D01*
X12748663Y-7260470D01*
X12768793Y-7276990D01*
X12935654Y-7366180D01*
X13116709Y-7421102D01*
X13305000Y-7439647D01*
X13493291Y-7421102D01*
X13674346Y-7366180D01*
X13841207Y-7276990D01*
X13861335Y-7260470D01*
X13925644Y-7233158D01*
X13994512Y-7244949D01*
X14018663Y-7260470D01*
X14038793Y-7276990D01*
X14205654Y-7366180D01*
X14386709Y-7421102D01*
X14575000Y-7439647D01*
X14763291Y-7421102D01*
X14944346Y-7366180D01*
X15111207Y-7276990D01*
X15131335Y-7260470D01*
X15195644Y-7233158D01*
X15264512Y-7244949D01*
X15288663Y-7260470D01*
X15308793Y-7276990D01*
X15475654Y-7366180D01*
X15656709Y-7421102D01*
X15845000Y-7439647D01*
X16033291Y-7421102D01*
X16214346Y-7366180D01*
X16381207Y-7276990D01*
X16401335Y-7260470D01*
X16465644Y-7233158D01*
X16534512Y-7244949D01*
X16558663Y-7260470D01*
X16578793Y-7276990D01*
X16745654Y-7366180D01*
X16926709Y-7421102D01*
X17115000Y-7439647D01*
X17303291Y-7421102D01*
X17484346Y-7366180D01*
X17651207Y-7276990D01*
X17671335Y-7260470D01*
X17735644Y-7233158D01*
X17804512Y-7244949D01*
X17828663Y-7260470D01*
X17848793Y-7276990D01*
X18015654Y-7366180D01*
X18196709Y-7421102D01*
X18385000Y-7439647D01*
X18573291Y-7421102D01*
X18754346Y-7366180D01*
X18921207Y-7276990D01*
X18941335Y-7260470D01*
X19005644Y-7233158D01*
X19074512Y-7244949D01*
X19098663Y-7260470D01*
X19118793Y-7276990D01*
X19285654Y-7366180D01*
X19466709Y-7421102D01*
X19655000Y-7439647D01*
X19843291Y-7421102D01*
X20024346Y-7366180D01*
X20191207Y-7276990D01*
X20211335Y-7260470D01*
X20275644Y-7233158D01*
X20344512Y-7244949D01*
X20368663Y-7260470D01*
X20388793Y-7276990D01*
X20555654Y-7366180D01*
X20736709Y-7421102D01*
X20925000Y-7439647D01*
X21113291Y-7421102D01*
X21294346Y-7366180D01*
X21461207Y-7276990D01*
X21481335Y-7260470D01*
X21545644Y-7233158D01*
X21614512Y-7244949D01*
X21638663Y-7260470D01*
X21658793Y-7276990D01*
X21825654Y-7366180D01*
X22006709Y-7421102D01*
X22195000Y-7439647D01*
X22383291Y-7421102D01*
X22564346Y-7366180D01*
X22731207Y-7276990D01*
X22751335Y-7260470D01*
X22815644Y-7233158D01*
X22884512Y-7244949D01*
X22908663Y-7260470D01*
X22928793Y-7276990D01*
X23095654Y-7366180D01*
X23276709Y-7421102D01*
X23465000Y-7439647D01*
X23653291Y-7421102D01*
X23834346Y-7366180D01*
X24001207Y-7276990D01*
X24021335Y-7260470D01*
X24085644Y-7233158D01*
X24154512Y-7244949D01*
X24178663Y-7260470D01*
X24198793Y-7276990D01*
X24365654Y-7366180D01*
X24546709Y-7421102D01*
X24735000Y-7439647D01*
X24923291Y-7421102D01*
X25104346Y-7366180D01*
X25271207Y-7276990D01*
X25417462Y-7156962D01*
X25537490Y-7010707D01*
X25626680Y-6843846D01*
X25681602Y-6662791D01*
X25700147Y-6474500D01*
X25690736Y-6378954D01*
X25703754Y-6310312D01*
X25751819Y-6259601D01*
X25755642Y-6257469D01*
X25906207Y-6176990D01*
X26052462Y-6056962D01*
X26172490Y-5910707D01*
X26197189Y-5864499D01*
X28119644Y-5864499D01*
X28139039Y-6135661D01*
X28196823Y-6401296D01*
X28196825Y-6401301D01*
X28291828Y-6656013D01*
X28291830Y-6656017D01*
X28291831Y-6656019D01*
X28422109Y-6894608D01*
X28422113Y-6894613D01*
X28585029Y-7112242D01*
X28777258Y-7304471D01*
X28933058Y-7421102D01*
X28994891Y-7467390D01*
X29190802Y-7574364D01*
X29233487Y-7597672D01*
X29488199Y-7692675D01*
X29488202Y-7692675D01*
X29488203Y-7692676D01*
X29537852Y-7703476D01*
X29753840Y-7750461D01*
X30025000Y-7769855D01*
X30296160Y-7750461D01*
X30561801Y-7692675D01*
X30816513Y-7597672D01*
X31055113Y-7467387D01*
X31272742Y-7304471D01*
X31464971Y-7112242D01*
X31627887Y-6894613D01*
X31758172Y-6656013D01*
X31853175Y-6401301D01*
X31910961Y-6135660D01*
X31930355Y-5864500D01*
X31910961Y-5593340D01*
X31853175Y-5327699D01*
X31758172Y-5072987D01*
X31660652Y-4894391D01*
X31627890Y-4834391D01*
X31521324Y-4692037D01*
X31464971Y-4616758D01*
X31272742Y-4424529D01*
X31055113Y-4261613D01*
X31055114Y-4261613D01*
X31055108Y-4261609D01*
X30816519Y-4131331D01*
X30816517Y-4131330D01*
X30816513Y-4131328D01*
X30561801Y-4036325D01*
X30561796Y-4036323D01*
X30296161Y-3978539D01*
X30025000Y-3959144D01*
X29753838Y-3978539D01*
X29488203Y-4036323D01*
X29343956Y-4090124D01*
X29233487Y-4131328D01*
X29233484Y-4131329D01*
X29233480Y-4131331D01*
X28994891Y-4261609D01*
X28777255Y-4424531D01*
X28585031Y-4616755D01*
X28422109Y-4834391D01*
X28291831Y-5072980D01*
X28196823Y-5327703D01*
X28139039Y-5593338D01*
X28119644Y-5864499D01*
X26197189Y-5864499D01*
X26261680Y-5743846D01*
X26316602Y-5562791D01*
X26335147Y-5374500D01*
X26316602Y-5186209D01*
X26261680Y-5005154D01*
X26172490Y-4838293D01*
X26112476Y-4765165D01*
X26052462Y-4692037D01*
X25945247Y-4604049D01*
X25906207Y-4572010D01*
X25739346Y-4482820D01*
X25648818Y-4455358D01*
X25558289Y-4427897D01*
X25370000Y-4409353D01*
X25181710Y-4427897D01*
X25000651Y-4482821D01*
X24833793Y-4572009D01*
X24813664Y-4588529D01*
X24749353Y-4615841D01*
X24680486Y-4604049D01*
X24656336Y-4588529D01*
X24636206Y-4572009D01*
X24469348Y-4482821D01*
X24469347Y-4482820D01*
X24469346Y-4482820D01*
X24378818Y-4455358D01*
X24288289Y-4427897D01*
X24100000Y-4409353D01*
X23911710Y-4427897D01*
X23730651Y-4482821D01*
X23563793Y-4572009D01*
X23543664Y-4588529D01*
X23479353Y-4615841D01*
X23410486Y-4604049D01*
X23386336Y-4588529D01*
X23366206Y-4572009D01*
X23199348Y-4482821D01*
X23199347Y-4482820D01*
X23199346Y-4482820D01*
X23108818Y-4455358D01*
X23018289Y-4427897D01*
X22850569Y-4411378D01*
X22830000Y-4409353D01*
X22829999Y-4409353D01*
X22641710Y-4427897D01*
X22460651Y-4482821D01*
X22293793Y-4572009D01*
X22273664Y-4588529D01*
X22209353Y-4615841D01*
X22140486Y-4604049D01*
X22116336Y-4588529D01*
X22096206Y-4572009D01*
X21929348Y-4482821D01*
X21929347Y-4482820D01*
X21929346Y-4482820D01*
X21838818Y-4455358D01*
X21748289Y-4427897D01*
X21560000Y-4409353D01*
X21371710Y-4427897D01*
X21190651Y-4482821D01*
X21023793Y-4572009D01*
X21003664Y-4588529D01*
X20939353Y-4615841D01*
X20870486Y-4604049D01*
X20846336Y-4588529D01*
X20826206Y-4572009D01*
X20659348Y-4482821D01*
X20659347Y-4482820D01*
X20659346Y-4482820D01*
X20568818Y-4455359D01*
X20478289Y-4427897D01*
X20290000Y-4409353D01*
X20101710Y-4427897D01*
X19920651Y-4482821D01*
X19753793Y-4572009D01*
X19733664Y-4588529D01*
X19669353Y-4615841D01*
X19600486Y-4604049D01*
X19576336Y-4588529D01*
X19556206Y-4572009D01*
X19389348Y-4482821D01*
X19389347Y-4482820D01*
X19389346Y-4482820D01*
X19298818Y-4455359D01*
X19208289Y-4427897D01*
X19020000Y-4409353D01*
X18831710Y-4427897D01*
X18650651Y-4482821D01*
X18483793Y-4572009D01*
X18463664Y-4588529D01*
X18399353Y-4615841D01*
X18330486Y-4604049D01*
X18306336Y-4588529D01*
X18286206Y-4572009D01*
X18119348Y-4482821D01*
X18119347Y-4482820D01*
X18119346Y-4482820D01*
X18028818Y-4455359D01*
X17938289Y-4427897D01*
X17750000Y-4409353D01*
X17561710Y-4427897D01*
X17380651Y-4482821D01*
X17213793Y-4572009D01*
X17193664Y-4588529D01*
X17129353Y-4615841D01*
X17060486Y-4604049D01*
X17036336Y-4588529D01*
X17016206Y-4572009D01*
X16849348Y-4482821D01*
X16849347Y-4482820D01*
X16849346Y-4482820D01*
X16758818Y-4455359D01*
X16668289Y-4427897D01*
X16480000Y-4409353D01*
X16291710Y-4427897D01*
X16110651Y-4482821D01*
X15943794Y-4572009D01*
X15923661Y-4588531D01*
X15859350Y-4615842D01*
X15790483Y-4604048D01*
X15766334Y-4588528D01*
X15746207Y-4572010D01*
X15579346Y-4482820D01*
X15488818Y-4455359D01*
X15398289Y-4427897D01*
X15210000Y-4409353D01*
X15021710Y-4427897D01*
X14840651Y-4482821D01*
X14673794Y-4572009D01*
X14653661Y-4588531D01*
X14589350Y-4615842D01*
X14520483Y-4604048D01*
X14496334Y-4588528D01*
X14476207Y-4572010D01*
X14309346Y-4482820D01*
X14218818Y-4455359D01*
X14128289Y-4427897D01*
X13960569Y-4411378D01*
X13940000Y-4409353D01*
X13939999Y-4409353D01*
X13751710Y-4427897D01*
X13570651Y-4482821D01*
X13403794Y-4572009D01*
X13383661Y-4588531D01*
X13319350Y-4615842D01*
X13250483Y-4604048D01*
X13226334Y-4588528D01*
X13206207Y-4572010D01*
X13039346Y-4482820D01*
X12948818Y-4455359D01*
X12858289Y-4427897D01*
X12670000Y-4409353D01*
X12481710Y-4427897D01*
X12300651Y-4482821D01*
X12133794Y-4572009D01*
X12113661Y-4588531D01*
X12049350Y-4615842D01*
X11980483Y-4604048D01*
X11956334Y-4588528D01*
X11936207Y-4572010D01*
X11769346Y-4482820D01*
X11678818Y-4455359D01*
X11588289Y-4427897D01*
X11400000Y-4409353D01*
X11211710Y-4427897D01*
X11030651Y-4482821D01*
X10863794Y-4572009D01*
X10843661Y-4588531D01*
X10779350Y-4615842D01*
X10710483Y-4604048D01*
X10686334Y-4588528D01*
X10666207Y-4572010D01*
X10499346Y-4482820D01*
X10408818Y-4455359D01*
X10318289Y-4427897D01*
X10130000Y-4409353D01*
X9941710Y-4427897D01*
X9760651Y-4482821D01*
X9593794Y-4572009D01*
X9447537Y-4692037D01*
X9327509Y-4838294D01*
X9238321Y-5005151D01*
X9183397Y-5186210D01*
X9164853Y-5374500D01*
X7298252Y-5374500D01*
X7208172Y-5132987D01*
X7175406Y-5072980D01*
X7077890Y-4894391D01*
X7032971Y-4834387D01*
X6914971Y-4676758D01*
X6722742Y-4484529D01*
X6505113Y-4321613D01*
X6505114Y-4321613D01*
X6505108Y-4321609D01*
X6266519Y-4191331D01*
X6266517Y-4191330D01*
X6266513Y-4191328D01*
X6011801Y-4096325D01*
X6011796Y-4096323D01*
X5746161Y-4038539D01*
X5475000Y-4019144D01*
X5203838Y-4038539D01*
X4938203Y-4096323D01*
X4793956Y-4150124D01*
X4683487Y-4191328D01*
X4683484Y-4191329D01*
X4683480Y-4191331D01*
X4444891Y-4321609D01*
X4227255Y-4484531D01*
X4035031Y-4676755D01*
X3872109Y-4894391D01*
X3741831Y-5132980D01*
X3646823Y-5387703D01*
X3589039Y-5653338D01*
X3569644Y-5924500D01*
X500Y-5924500D01*
X500Y-124500D01*
X20185Y-57461D01*
X72989Y-11706D01*
X124500Y-500D01*
X35375500Y-500D01*
X35442539Y-20185D01*
G37*
%TD.AperFunction*%
%TD*%
M02*
