%TF.GenerationSoftware,KiCad,Pcbnew,7.0.2*%
%TF.CreationDate,2023-10-04T18:59:29-06:00*%
%TF.ProjectId,micro-d-tes-aaray,6d696372-6f2d-4642-9d74-65732d616172,rev?*%
%TF.SameCoordinates,Original*%
%TF.FileFunction,Legend,Top*%
%TF.FilePolarity,Positive*%
%FSLAX46Y46*%
G04 Gerber Fmt 4.6, Leading zero omitted, Abs format (unit mm)*
G04 Created by KiCad (PCBNEW 7.0.2) date 2023-10-04 18:59:29*
%MOMM*%
%LPD*%
G01*
G04 APERTURE LIST*
%ADD10C,0.090000*%
%ADD11C,0.150000*%
%ADD12C,0.153000*%
%ADD13R,0.500000X2.000000*%
%ADD14R,0.700000X2.000000*%
%ADD15C,3.500000*%
%ADD16O,0.920000X0.920000*%
G04 APERTURE END LIST*
D10*
X20700000Y-22950000D02*
X27250000Y-22950000D01*
X7800000Y-22950000D02*
X7800000Y-26500000D01*
X24050000Y-40650000D02*
X24050000Y-37000000D01*
X20700000Y-22950000D02*
X20700000Y-26600000D01*
D11*
X6215000Y-1891000D02*
X29285000Y-1891000D01*
X29285000Y-9958000D01*
X6215000Y-9958000D01*
X6215000Y-1891000D01*
D10*
X11175000Y-40650000D02*
X6650000Y-40650000D01*
D11*
X2150000Y-53150000D02*
X33350000Y-53150000D01*
X33350000Y-62000000D01*
X2150000Y-62000000D01*
X2150000Y-53150000D01*
D10*
X11175000Y-40650000D02*
X11175000Y-37000000D01*
X19750000Y-40650000D02*
X19750000Y-37000000D01*
X15450000Y-40650000D02*
X15450000Y-37000000D01*
X20700000Y-22950000D02*
X20700000Y-26500000D01*
X14350000Y-22950000D02*
X14350000Y-26600000D01*
D11*
X6215000Y-53541000D02*
X29285000Y-53541000D01*
X29285000Y-61608000D01*
X6215000Y-61608000D01*
X6215000Y-53541000D01*
D10*
X28350000Y-40660000D02*
X28350000Y-36900000D01*
X14350000Y-22950000D02*
X14350000Y-26500000D01*
X28350000Y-40660000D02*
X11175000Y-40650000D01*
X14150000Y-22950000D02*
X20700000Y-22950000D01*
X27250000Y-22950000D02*
X27250000Y-26600000D01*
D11*
X2150000Y-1500000D02*
X33350000Y-1500000D01*
X33350000Y-10350000D01*
X2150000Y-10350000D01*
X2150000Y-1500000D01*
D10*
X11175000Y-40650000D02*
X11175000Y-37000000D01*
X6650000Y-40650000D02*
X6650000Y-37000000D01*
X7800000Y-22950000D02*
X14350000Y-22950000D01*
D12*
X13311904Y-23310238D02*
X13216666Y-23262619D01*
X13216666Y-23262619D02*
X13073809Y-23262619D01*
X13073809Y-23262619D02*
X12930952Y-23310238D01*
X12930952Y-23310238D02*
X12835714Y-23405476D01*
X12835714Y-23405476D02*
X12788095Y-23500714D01*
X12788095Y-23500714D02*
X12740476Y-23691190D01*
X12740476Y-23691190D02*
X12740476Y-23834047D01*
X12740476Y-23834047D02*
X12788095Y-24024523D01*
X12788095Y-24024523D02*
X12835714Y-24119761D01*
X12835714Y-24119761D02*
X12930952Y-24215000D01*
X12930952Y-24215000D02*
X13073809Y-24262619D01*
X13073809Y-24262619D02*
X13169047Y-24262619D01*
X13169047Y-24262619D02*
X13311904Y-24215000D01*
X13311904Y-24215000D02*
X13359523Y-24167380D01*
X13359523Y-24167380D02*
X13359523Y-23834047D01*
X13359523Y-23834047D02*
X13169047Y-23834047D01*
X24511904Y-23310238D02*
X24416666Y-23262619D01*
X24416666Y-23262619D02*
X24273809Y-23262619D01*
X24273809Y-23262619D02*
X24130952Y-23310238D01*
X24130952Y-23310238D02*
X24035714Y-23405476D01*
X24035714Y-23405476D02*
X23988095Y-23500714D01*
X23988095Y-23500714D02*
X23940476Y-23691190D01*
X23940476Y-23691190D02*
X23940476Y-23834047D01*
X23940476Y-23834047D02*
X23988095Y-24024523D01*
X23988095Y-24024523D02*
X24035714Y-24119761D01*
X24035714Y-24119761D02*
X24130952Y-24215000D01*
X24130952Y-24215000D02*
X24273809Y-24262619D01*
X24273809Y-24262619D02*
X24369047Y-24262619D01*
X24369047Y-24262619D02*
X24511904Y-24215000D01*
X24511904Y-24215000D02*
X24559523Y-24167380D01*
X24559523Y-24167380D02*
X24559523Y-23834047D01*
X24559523Y-23834047D02*
X24369047Y-23834047D01*
X26161904Y-23310238D02*
X26066666Y-23262619D01*
X26066666Y-23262619D02*
X25923809Y-23262619D01*
X25923809Y-23262619D02*
X25780952Y-23310238D01*
X25780952Y-23310238D02*
X25685714Y-23405476D01*
X25685714Y-23405476D02*
X25638095Y-23500714D01*
X25638095Y-23500714D02*
X25590476Y-23691190D01*
X25590476Y-23691190D02*
X25590476Y-23834047D01*
X25590476Y-23834047D02*
X25638095Y-24024523D01*
X25638095Y-24024523D02*
X25685714Y-24119761D01*
X25685714Y-24119761D02*
X25780952Y-24215000D01*
X25780952Y-24215000D02*
X25923809Y-24262619D01*
X25923809Y-24262619D02*
X26019047Y-24262619D01*
X26019047Y-24262619D02*
X26161904Y-24215000D01*
X26161904Y-24215000D02*
X26209523Y-24167380D01*
X26209523Y-24167380D02*
X26209523Y-23834047D01*
X26209523Y-23834047D02*
X26019047Y-23834047D01*
X19661904Y-23310238D02*
X19566666Y-23262619D01*
X19566666Y-23262619D02*
X19423809Y-23262619D01*
X19423809Y-23262619D02*
X19280952Y-23310238D01*
X19280952Y-23310238D02*
X19185714Y-23405476D01*
X19185714Y-23405476D02*
X19138095Y-23500714D01*
X19138095Y-23500714D02*
X19090476Y-23691190D01*
X19090476Y-23691190D02*
X19090476Y-23834047D01*
X19090476Y-23834047D02*
X19138095Y-24024523D01*
X19138095Y-24024523D02*
X19185714Y-24119761D01*
X19185714Y-24119761D02*
X19280952Y-24215000D01*
X19280952Y-24215000D02*
X19423809Y-24262619D01*
X19423809Y-24262619D02*
X19519047Y-24262619D01*
X19519047Y-24262619D02*
X19661904Y-24215000D01*
X19661904Y-24215000D02*
X19709523Y-24167380D01*
X19709523Y-24167380D02*
X19709523Y-23834047D01*
X19709523Y-23834047D02*
X19519047Y-23834047D01*
X14911904Y-23310238D02*
X14816666Y-23262619D01*
X14816666Y-23262619D02*
X14673809Y-23262619D01*
X14673809Y-23262619D02*
X14530952Y-23310238D01*
X14530952Y-23310238D02*
X14435714Y-23405476D01*
X14435714Y-23405476D02*
X14388095Y-23500714D01*
X14388095Y-23500714D02*
X14340476Y-23691190D01*
X14340476Y-23691190D02*
X14340476Y-23834047D01*
X14340476Y-23834047D02*
X14388095Y-24024523D01*
X14388095Y-24024523D02*
X14435714Y-24119761D01*
X14435714Y-24119761D02*
X14530952Y-24215000D01*
X14530952Y-24215000D02*
X14673809Y-24262619D01*
X14673809Y-24262619D02*
X14769047Y-24262619D01*
X14769047Y-24262619D02*
X14911904Y-24215000D01*
X14911904Y-24215000D02*
X14959523Y-24167380D01*
X14959523Y-24167380D02*
X14959523Y-23834047D01*
X14959523Y-23834047D02*
X14769047Y-23834047D01*
X8411904Y-23310238D02*
X8316666Y-23262619D01*
X8316666Y-23262619D02*
X8173809Y-23262619D01*
X8173809Y-23262619D02*
X8030952Y-23310238D01*
X8030952Y-23310238D02*
X7935714Y-23405476D01*
X7935714Y-23405476D02*
X7888095Y-23500714D01*
X7888095Y-23500714D02*
X7840476Y-23691190D01*
X7840476Y-23691190D02*
X7840476Y-23834047D01*
X7840476Y-23834047D02*
X7888095Y-24024523D01*
X7888095Y-24024523D02*
X7935714Y-24119761D01*
X7935714Y-24119761D02*
X8030952Y-24215000D01*
X8030952Y-24215000D02*
X8173809Y-24262619D01*
X8173809Y-24262619D02*
X8269047Y-24262619D01*
X8269047Y-24262619D02*
X8411904Y-24215000D01*
X8411904Y-24215000D02*
X8459523Y-24167380D01*
X8459523Y-24167380D02*
X8459523Y-23834047D01*
X8459523Y-23834047D02*
X8269047Y-23834047D01*
X10638095Y-40289761D02*
X10733333Y-40337380D01*
X10733333Y-40337380D02*
X10876190Y-40337380D01*
X10876190Y-40337380D02*
X11019047Y-40289761D01*
X11019047Y-40289761D02*
X11114285Y-40194523D01*
X11114285Y-40194523D02*
X11161904Y-40099285D01*
X11161904Y-40099285D02*
X11209523Y-39908809D01*
X11209523Y-39908809D02*
X11209523Y-39765952D01*
X11209523Y-39765952D02*
X11161904Y-39575476D01*
X11161904Y-39575476D02*
X11114285Y-39480238D01*
X11114285Y-39480238D02*
X11019047Y-39385000D01*
X11019047Y-39385000D02*
X10876190Y-39337380D01*
X10876190Y-39337380D02*
X10780952Y-39337380D01*
X10780952Y-39337380D02*
X10638095Y-39385000D01*
X10638095Y-39385000D02*
X10590476Y-39432619D01*
X10590476Y-39432619D02*
X10590476Y-39765952D01*
X10590476Y-39765952D02*
X10780952Y-39765952D01*
X21261904Y-23310238D02*
X21166666Y-23262619D01*
X21166666Y-23262619D02*
X21023809Y-23262619D01*
X21023809Y-23262619D02*
X20880952Y-23310238D01*
X20880952Y-23310238D02*
X20785714Y-23405476D01*
X20785714Y-23405476D02*
X20738095Y-23500714D01*
X20738095Y-23500714D02*
X20690476Y-23691190D01*
X20690476Y-23691190D02*
X20690476Y-23834047D01*
X20690476Y-23834047D02*
X20738095Y-24024523D01*
X20738095Y-24024523D02*
X20785714Y-24119761D01*
X20785714Y-24119761D02*
X20880952Y-24215000D01*
X20880952Y-24215000D02*
X21023809Y-24262619D01*
X21023809Y-24262619D02*
X21119047Y-24262619D01*
X21119047Y-24262619D02*
X21261904Y-24215000D01*
X21261904Y-24215000D02*
X21309523Y-24167380D01*
X21309523Y-24167380D02*
X21309523Y-23834047D01*
X21309523Y-23834047D02*
X21119047Y-23834047D01*
X11711904Y-23310238D02*
X11616666Y-23262619D01*
X11616666Y-23262619D02*
X11473809Y-23262619D01*
X11473809Y-23262619D02*
X11330952Y-23310238D01*
X11330952Y-23310238D02*
X11235714Y-23405476D01*
X11235714Y-23405476D02*
X11188095Y-23500714D01*
X11188095Y-23500714D02*
X11140476Y-23691190D01*
X11140476Y-23691190D02*
X11140476Y-23834047D01*
X11140476Y-23834047D02*
X11188095Y-24024523D01*
X11188095Y-24024523D02*
X11235714Y-24119761D01*
X11235714Y-24119761D02*
X11330952Y-24215000D01*
X11330952Y-24215000D02*
X11473809Y-24262619D01*
X11473809Y-24262619D02*
X11569047Y-24262619D01*
X11569047Y-24262619D02*
X11711904Y-24215000D01*
X11711904Y-24215000D02*
X11759523Y-24167380D01*
X11759523Y-24167380D02*
X11759523Y-23834047D01*
X11759523Y-23834047D02*
X11569047Y-23834047D01*
X18061904Y-23310238D02*
X17966666Y-23262619D01*
X17966666Y-23262619D02*
X17823809Y-23262619D01*
X17823809Y-23262619D02*
X17680952Y-23310238D01*
X17680952Y-23310238D02*
X17585714Y-23405476D01*
X17585714Y-23405476D02*
X17538095Y-23500714D01*
X17538095Y-23500714D02*
X17490476Y-23691190D01*
X17490476Y-23691190D02*
X17490476Y-23834047D01*
X17490476Y-23834047D02*
X17538095Y-24024523D01*
X17538095Y-24024523D02*
X17585714Y-24119761D01*
X17585714Y-24119761D02*
X17680952Y-24215000D01*
X17680952Y-24215000D02*
X17823809Y-24262619D01*
X17823809Y-24262619D02*
X17919047Y-24262619D01*
X17919047Y-24262619D02*
X18061904Y-24215000D01*
X18061904Y-24215000D02*
X18109523Y-24167380D01*
X18109523Y-24167380D02*
X18109523Y-23834047D01*
X18109523Y-23834047D02*
X17919047Y-23834047D01*
X22911904Y-23310238D02*
X22816666Y-23262619D01*
X22816666Y-23262619D02*
X22673809Y-23262619D01*
X22673809Y-23262619D02*
X22530952Y-23310238D01*
X22530952Y-23310238D02*
X22435714Y-23405476D01*
X22435714Y-23405476D02*
X22388095Y-23500714D01*
X22388095Y-23500714D02*
X22340476Y-23691190D01*
X22340476Y-23691190D02*
X22340476Y-23834047D01*
X22340476Y-23834047D02*
X22388095Y-24024523D01*
X22388095Y-24024523D02*
X22435714Y-24119761D01*
X22435714Y-24119761D02*
X22530952Y-24215000D01*
X22530952Y-24215000D02*
X22673809Y-24262619D01*
X22673809Y-24262619D02*
X22769047Y-24262619D01*
X22769047Y-24262619D02*
X22911904Y-24215000D01*
X22911904Y-24215000D02*
X22959523Y-24167380D01*
X22959523Y-24167380D02*
X22959523Y-23834047D01*
X22959523Y-23834047D02*
X22769047Y-23834047D01*
X23338095Y-40289761D02*
X23433333Y-40337380D01*
X23433333Y-40337380D02*
X23576190Y-40337380D01*
X23576190Y-40337380D02*
X23719047Y-40289761D01*
X23719047Y-40289761D02*
X23814285Y-40194523D01*
X23814285Y-40194523D02*
X23861904Y-40099285D01*
X23861904Y-40099285D02*
X23909523Y-39908809D01*
X23909523Y-39908809D02*
X23909523Y-39765952D01*
X23909523Y-39765952D02*
X23861904Y-39575476D01*
X23861904Y-39575476D02*
X23814285Y-39480238D01*
X23814285Y-39480238D02*
X23719047Y-39385000D01*
X23719047Y-39385000D02*
X23576190Y-39337380D01*
X23576190Y-39337380D02*
X23480952Y-39337380D01*
X23480952Y-39337380D02*
X23338095Y-39385000D01*
X23338095Y-39385000D02*
X23290476Y-39432619D01*
X23290476Y-39432619D02*
X23290476Y-39765952D01*
X23290476Y-39765952D02*
X23480952Y-39765952D01*
X10061904Y-23310238D02*
X9966666Y-23262619D01*
X9966666Y-23262619D02*
X9823809Y-23262619D01*
X9823809Y-23262619D02*
X9680952Y-23310238D01*
X9680952Y-23310238D02*
X9585714Y-23405476D01*
X9585714Y-23405476D02*
X9538095Y-23500714D01*
X9538095Y-23500714D02*
X9490476Y-23691190D01*
X9490476Y-23691190D02*
X9490476Y-23834047D01*
X9490476Y-23834047D02*
X9538095Y-24024523D01*
X9538095Y-24024523D02*
X9585714Y-24119761D01*
X9585714Y-24119761D02*
X9680952Y-24215000D01*
X9680952Y-24215000D02*
X9823809Y-24262619D01*
X9823809Y-24262619D02*
X9919047Y-24262619D01*
X9919047Y-24262619D02*
X10061904Y-24215000D01*
X10061904Y-24215000D02*
X10109523Y-24167380D01*
X10109523Y-24167380D02*
X10109523Y-23834047D01*
X10109523Y-23834047D02*
X9919047Y-23834047D01*
X19038095Y-40289761D02*
X19133333Y-40337380D01*
X19133333Y-40337380D02*
X19276190Y-40337380D01*
X19276190Y-40337380D02*
X19419047Y-40289761D01*
X19419047Y-40289761D02*
X19514285Y-40194523D01*
X19514285Y-40194523D02*
X19561904Y-40099285D01*
X19561904Y-40099285D02*
X19609523Y-39908809D01*
X19609523Y-39908809D02*
X19609523Y-39765952D01*
X19609523Y-39765952D02*
X19561904Y-39575476D01*
X19561904Y-39575476D02*
X19514285Y-39480238D01*
X19514285Y-39480238D02*
X19419047Y-39385000D01*
X19419047Y-39385000D02*
X19276190Y-39337380D01*
X19276190Y-39337380D02*
X19180952Y-39337380D01*
X19180952Y-39337380D02*
X19038095Y-39385000D01*
X19038095Y-39385000D02*
X18990476Y-39432619D01*
X18990476Y-39432619D02*
X18990476Y-39765952D01*
X18990476Y-39765952D02*
X19180952Y-39765952D01*
X27638095Y-40289761D02*
X27733333Y-40337380D01*
X27733333Y-40337380D02*
X27876190Y-40337380D01*
X27876190Y-40337380D02*
X28019047Y-40289761D01*
X28019047Y-40289761D02*
X28114285Y-40194523D01*
X28114285Y-40194523D02*
X28161904Y-40099285D01*
X28161904Y-40099285D02*
X28209523Y-39908809D01*
X28209523Y-39908809D02*
X28209523Y-39765952D01*
X28209523Y-39765952D02*
X28161904Y-39575476D01*
X28161904Y-39575476D02*
X28114285Y-39480238D01*
X28114285Y-39480238D02*
X28019047Y-39385000D01*
X28019047Y-39385000D02*
X27876190Y-39337380D01*
X27876190Y-39337380D02*
X27780952Y-39337380D01*
X27780952Y-39337380D02*
X27638095Y-39385000D01*
X27638095Y-39385000D02*
X27590476Y-39432619D01*
X27590476Y-39432619D02*
X27590476Y-39765952D01*
X27590476Y-39765952D02*
X27780952Y-39765952D01*
X16511904Y-23310238D02*
X16416666Y-23262619D01*
X16416666Y-23262619D02*
X16273809Y-23262619D01*
X16273809Y-23262619D02*
X16130952Y-23310238D01*
X16130952Y-23310238D02*
X16035714Y-23405476D01*
X16035714Y-23405476D02*
X15988095Y-23500714D01*
X15988095Y-23500714D02*
X15940476Y-23691190D01*
X15940476Y-23691190D02*
X15940476Y-23834047D01*
X15940476Y-23834047D02*
X15988095Y-24024523D01*
X15988095Y-24024523D02*
X16035714Y-24119761D01*
X16035714Y-24119761D02*
X16130952Y-24215000D01*
X16130952Y-24215000D02*
X16273809Y-24262619D01*
X16273809Y-24262619D02*
X16369047Y-24262619D01*
X16369047Y-24262619D02*
X16511904Y-24215000D01*
X16511904Y-24215000D02*
X16559523Y-24167380D01*
X16559523Y-24167380D02*
X16559523Y-23834047D01*
X16559523Y-23834047D02*
X16369047Y-23834047D01*
X14688095Y-40189761D02*
X14783333Y-40237380D01*
X14783333Y-40237380D02*
X14926190Y-40237380D01*
X14926190Y-40237380D02*
X15069047Y-40189761D01*
X15069047Y-40189761D02*
X15164285Y-40094523D01*
X15164285Y-40094523D02*
X15211904Y-39999285D01*
X15211904Y-39999285D02*
X15259523Y-39808809D01*
X15259523Y-39808809D02*
X15259523Y-39665952D01*
X15259523Y-39665952D02*
X15211904Y-39475476D01*
X15211904Y-39475476D02*
X15164285Y-39380238D01*
X15164285Y-39380238D02*
X15069047Y-39285000D01*
X15069047Y-39285000D02*
X14926190Y-39237380D01*
X14926190Y-39237380D02*
X14830952Y-39237380D01*
X14830952Y-39237380D02*
X14688095Y-39285000D01*
X14688095Y-39285000D02*
X14640476Y-39332619D01*
X14640476Y-39332619D02*
X14640476Y-39665952D01*
X14640476Y-39665952D02*
X14830952Y-39665952D01*
D11*
%TO.C,J17*%
X23583453Y-22609523D02*
X24297738Y-22609523D01*
X24297738Y-22609523D02*
X24440595Y-22657142D01*
X24440595Y-22657142D02*
X24535834Y-22752380D01*
X24535834Y-22752380D02*
X24583453Y-22895237D01*
X24583453Y-22895237D02*
X24583453Y-22990475D01*
X24583453Y-21609523D02*
X24583453Y-22180951D01*
X24583453Y-21895237D02*
X23583453Y-21895237D01*
X23583453Y-21895237D02*
X23726310Y-21990475D01*
X23726310Y-21990475D02*
X23821548Y-22085713D01*
X23821548Y-22085713D02*
X23869167Y-22180951D01*
X23583453Y-21276189D02*
X23583453Y-20609523D01*
X23583453Y-20609523D02*
X24583453Y-21038094D01*
%TO.C,J5*%
X22304287Y-21657142D02*
X23018572Y-21657142D01*
X23018572Y-21657142D02*
X23161429Y-21704761D01*
X23161429Y-21704761D02*
X23256668Y-21799999D01*
X23256668Y-21799999D02*
X23304287Y-21942856D01*
X23304287Y-21942856D02*
X23304287Y-22038094D01*
X22304287Y-20704761D02*
X22304287Y-21180951D01*
X22304287Y-21180951D02*
X22780477Y-21228570D01*
X22780477Y-21228570D02*
X22732858Y-21180951D01*
X22732858Y-21180951D02*
X22685239Y-21085713D01*
X22685239Y-21085713D02*
X22685239Y-20847618D01*
X22685239Y-20847618D02*
X22732858Y-20752380D01*
X22732858Y-20752380D02*
X22780477Y-20704761D01*
X22780477Y-20704761D02*
X22875715Y-20657142D01*
X22875715Y-20657142D02*
X23113810Y-20657142D01*
X23113810Y-20657142D02*
X23209048Y-20704761D01*
X23209048Y-20704761D02*
X23256668Y-20752380D01*
X23256668Y-20752380D02*
X23304287Y-20847618D01*
X23304287Y-20847618D02*
X23304287Y-21085713D01*
X23304287Y-21085713D02*
X23256668Y-21180951D01*
X23256668Y-21180951D02*
X23209048Y-21228570D01*
%TO.C,D11*%
X28312619Y-43640475D02*
X27312619Y-43640475D01*
X27312619Y-43640475D02*
X27312619Y-43402380D01*
X27312619Y-43402380D02*
X27360238Y-43259523D01*
X27360238Y-43259523D02*
X27455476Y-43164285D01*
X27455476Y-43164285D02*
X27550714Y-43116666D01*
X27550714Y-43116666D02*
X27741190Y-43069047D01*
X27741190Y-43069047D02*
X27884047Y-43069047D01*
X27884047Y-43069047D02*
X28074523Y-43116666D01*
X28074523Y-43116666D02*
X28169761Y-43164285D01*
X28169761Y-43164285D02*
X28265000Y-43259523D01*
X28265000Y-43259523D02*
X28312619Y-43402380D01*
X28312619Y-43402380D02*
X28312619Y-43640475D01*
X28312619Y-42116666D02*
X28312619Y-42688094D01*
X28312619Y-42402380D02*
X27312619Y-42402380D01*
X27312619Y-42402380D02*
X27455476Y-42497618D01*
X27455476Y-42497618D02*
X27550714Y-42592856D01*
X27550714Y-42592856D02*
X27598333Y-42688094D01*
X28312619Y-41164285D02*
X28312619Y-41735713D01*
X28312619Y-41449999D02*
X27312619Y-41449999D01*
X27312619Y-41449999D02*
X27455476Y-41545237D01*
X27455476Y-41545237D02*
X27550714Y-41640475D01*
X27550714Y-41640475D02*
X27598333Y-41735713D01*
%TO.C,D8*%
X20737619Y-42688094D02*
X19737619Y-42688094D01*
X19737619Y-42688094D02*
X19737619Y-42449999D01*
X19737619Y-42449999D02*
X19785238Y-42307142D01*
X19785238Y-42307142D02*
X19880476Y-42211904D01*
X19880476Y-42211904D02*
X19975714Y-42164285D01*
X19975714Y-42164285D02*
X20166190Y-42116666D01*
X20166190Y-42116666D02*
X20309047Y-42116666D01*
X20309047Y-42116666D02*
X20499523Y-42164285D01*
X20499523Y-42164285D02*
X20594761Y-42211904D01*
X20594761Y-42211904D02*
X20690000Y-42307142D01*
X20690000Y-42307142D02*
X20737619Y-42449999D01*
X20737619Y-42449999D02*
X20737619Y-42688094D01*
X20166190Y-41545237D02*
X20118571Y-41640475D01*
X20118571Y-41640475D02*
X20070952Y-41688094D01*
X20070952Y-41688094D02*
X19975714Y-41735713D01*
X19975714Y-41735713D02*
X19928095Y-41735713D01*
X19928095Y-41735713D02*
X19832857Y-41688094D01*
X19832857Y-41688094D02*
X19785238Y-41640475D01*
X19785238Y-41640475D02*
X19737619Y-41545237D01*
X19737619Y-41545237D02*
X19737619Y-41354761D01*
X19737619Y-41354761D02*
X19785238Y-41259523D01*
X19785238Y-41259523D02*
X19832857Y-41211904D01*
X19832857Y-41211904D02*
X19928095Y-41164285D01*
X19928095Y-41164285D02*
X19975714Y-41164285D01*
X19975714Y-41164285D02*
X20070952Y-41211904D01*
X20070952Y-41211904D02*
X20118571Y-41259523D01*
X20118571Y-41259523D02*
X20166190Y-41354761D01*
X20166190Y-41354761D02*
X20166190Y-41545237D01*
X20166190Y-41545237D02*
X20213809Y-41640475D01*
X20213809Y-41640475D02*
X20261428Y-41688094D01*
X20261428Y-41688094D02*
X20356666Y-41735713D01*
X20356666Y-41735713D02*
X20547142Y-41735713D01*
X20547142Y-41735713D02*
X20642380Y-41688094D01*
X20642380Y-41688094D02*
X20690000Y-41640475D01*
X20690000Y-41640475D02*
X20737619Y-41545237D01*
X20737619Y-41545237D02*
X20737619Y-41354761D01*
X20737619Y-41354761D02*
X20690000Y-41259523D01*
X20690000Y-41259523D02*
X20642380Y-41211904D01*
X20642380Y-41211904D02*
X20547142Y-41164285D01*
X20547142Y-41164285D02*
X20356666Y-41164285D01*
X20356666Y-41164285D02*
X20261428Y-41211904D01*
X20261428Y-41211904D02*
X20213809Y-41259523D01*
X20213809Y-41259523D02*
X20166190Y-41354761D01*
%TO.C,D22*%
X24525119Y-43640475D02*
X23525119Y-43640475D01*
X23525119Y-43640475D02*
X23525119Y-43402380D01*
X23525119Y-43402380D02*
X23572738Y-43259523D01*
X23572738Y-43259523D02*
X23667976Y-43164285D01*
X23667976Y-43164285D02*
X23763214Y-43116666D01*
X23763214Y-43116666D02*
X23953690Y-43069047D01*
X23953690Y-43069047D02*
X24096547Y-43069047D01*
X24096547Y-43069047D02*
X24287023Y-43116666D01*
X24287023Y-43116666D02*
X24382261Y-43164285D01*
X24382261Y-43164285D02*
X24477500Y-43259523D01*
X24477500Y-43259523D02*
X24525119Y-43402380D01*
X24525119Y-43402380D02*
X24525119Y-43640475D01*
X23620357Y-42688094D02*
X23572738Y-42640475D01*
X23572738Y-42640475D02*
X23525119Y-42545237D01*
X23525119Y-42545237D02*
X23525119Y-42307142D01*
X23525119Y-42307142D02*
X23572738Y-42211904D01*
X23572738Y-42211904D02*
X23620357Y-42164285D01*
X23620357Y-42164285D02*
X23715595Y-42116666D01*
X23715595Y-42116666D02*
X23810833Y-42116666D01*
X23810833Y-42116666D02*
X23953690Y-42164285D01*
X23953690Y-42164285D02*
X24525119Y-42735713D01*
X24525119Y-42735713D02*
X24525119Y-42116666D01*
X23620357Y-41735713D02*
X23572738Y-41688094D01*
X23572738Y-41688094D02*
X23525119Y-41592856D01*
X23525119Y-41592856D02*
X23525119Y-41354761D01*
X23525119Y-41354761D02*
X23572738Y-41259523D01*
X23572738Y-41259523D02*
X23620357Y-41211904D01*
X23620357Y-41211904D02*
X23715595Y-41164285D01*
X23715595Y-41164285D02*
X23810833Y-41164285D01*
X23810833Y-41164285D02*
X23953690Y-41211904D01*
X23953690Y-41211904D02*
X24525119Y-41783332D01*
X24525119Y-41783332D02*
X24525119Y-41164285D01*
%TO.C,D14*%
X4325119Y-43640475D02*
X3325119Y-43640475D01*
X3325119Y-43640475D02*
X3325119Y-43402380D01*
X3325119Y-43402380D02*
X3372738Y-43259523D01*
X3372738Y-43259523D02*
X3467976Y-43164285D01*
X3467976Y-43164285D02*
X3563214Y-43116666D01*
X3563214Y-43116666D02*
X3753690Y-43069047D01*
X3753690Y-43069047D02*
X3896547Y-43069047D01*
X3896547Y-43069047D02*
X4087023Y-43116666D01*
X4087023Y-43116666D02*
X4182261Y-43164285D01*
X4182261Y-43164285D02*
X4277500Y-43259523D01*
X4277500Y-43259523D02*
X4325119Y-43402380D01*
X4325119Y-43402380D02*
X4325119Y-43640475D01*
X4325119Y-42116666D02*
X4325119Y-42688094D01*
X4325119Y-42402380D02*
X3325119Y-42402380D01*
X3325119Y-42402380D02*
X3467976Y-42497618D01*
X3467976Y-42497618D02*
X3563214Y-42592856D01*
X3563214Y-42592856D02*
X3610833Y-42688094D01*
X3658452Y-41259523D02*
X4325119Y-41259523D01*
X3277500Y-41497618D02*
X3991785Y-41735713D01*
X3991785Y-41735713D02*
X3991785Y-41116666D01*
%TO.C,D6*%
X15687619Y-42688094D02*
X14687619Y-42688094D01*
X14687619Y-42688094D02*
X14687619Y-42449999D01*
X14687619Y-42449999D02*
X14735238Y-42307142D01*
X14735238Y-42307142D02*
X14830476Y-42211904D01*
X14830476Y-42211904D02*
X14925714Y-42164285D01*
X14925714Y-42164285D02*
X15116190Y-42116666D01*
X15116190Y-42116666D02*
X15259047Y-42116666D01*
X15259047Y-42116666D02*
X15449523Y-42164285D01*
X15449523Y-42164285D02*
X15544761Y-42211904D01*
X15544761Y-42211904D02*
X15640000Y-42307142D01*
X15640000Y-42307142D02*
X15687619Y-42449999D01*
X15687619Y-42449999D02*
X15687619Y-42688094D01*
X14687619Y-41259523D02*
X14687619Y-41449999D01*
X14687619Y-41449999D02*
X14735238Y-41545237D01*
X14735238Y-41545237D02*
X14782857Y-41592856D01*
X14782857Y-41592856D02*
X14925714Y-41688094D01*
X14925714Y-41688094D02*
X15116190Y-41735713D01*
X15116190Y-41735713D02*
X15497142Y-41735713D01*
X15497142Y-41735713D02*
X15592380Y-41688094D01*
X15592380Y-41688094D02*
X15640000Y-41640475D01*
X15640000Y-41640475D02*
X15687619Y-41545237D01*
X15687619Y-41545237D02*
X15687619Y-41354761D01*
X15687619Y-41354761D02*
X15640000Y-41259523D01*
X15640000Y-41259523D02*
X15592380Y-41211904D01*
X15592380Y-41211904D02*
X15497142Y-41164285D01*
X15497142Y-41164285D02*
X15259047Y-41164285D01*
X15259047Y-41164285D02*
X15163809Y-41211904D01*
X15163809Y-41211904D02*
X15116190Y-41259523D01*
X15116190Y-41259523D02*
X15068571Y-41354761D01*
X15068571Y-41354761D02*
X15068571Y-41545237D01*
X15068571Y-41545237D02*
X15116190Y-41640475D01*
X15116190Y-41640475D02*
X15163809Y-41688094D01*
X15163809Y-41688094D02*
X15259047Y-41735713D01*
%TO.C,J7*%
X17187623Y-21657142D02*
X17901908Y-21657142D01*
X17901908Y-21657142D02*
X18044765Y-21704761D01*
X18044765Y-21704761D02*
X18140004Y-21799999D01*
X18140004Y-21799999D02*
X18187623Y-21942856D01*
X18187623Y-21942856D02*
X18187623Y-22038094D01*
X17187623Y-21276189D02*
X17187623Y-20609523D01*
X17187623Y-20609523D02*
X18187623Y-21038094D01*
%TO.C,J11*%
X6954295Y-22609523D02*
X7668580Y-22609523D01*
X7668580Y-22609523D02*
X7811437Y-22657142D01*
X7811437Y-22657142D02*
X7906676Y-22752380D01*
X7906676Y-22752380D02*
X7954295Y-22895237D01*
X7954295Y-22895237D02*
X7954295Y-22990475D01*
X7954295Y-21609523D02*
X7954295Y-22180951D01*
X7954295Y-21895237D02*
X6954295Y-21895237D01*
X6954295Y-21895237D02*
X7097152Y-21990475D01*
X7097152Y-21990475D02*
X7192390Y-22085713D01*
X7192390Y-22085713D02*
X7240009Y-22180951D01*
X7954295Y-20657142D02*
X7954295Y-21228570D01*
X7954295Y-20942856D02*
X6954295Y-20942856D01*
X6954295Y-20942856D02*
X7097152Y-21038094D01*
X7097152Y-21038094D02*
X7192390Y-21133332D01*
X7192390Y-21133332D02*
X7240009Y-21228570D01*
%TO.C,J21*%
X13350125Y-22609523D02*
X14064410Y-22609523D01*
X14064410Y-22609523D02*
X14207267Y-22657142D01*
X14207267Y-22657142D02*
X14302506Y-22752380D01*
X14302506Y-22752380D02*
X14350125Y-22895237D01*
X14350125Y-22895237D02*
X14350125Y-22990475D01*
X13445363Y-22180951D02*
X13397744Y-22133332D01*
X13397744Y-22133332D02*
X13350125Y-22038094D01*
X13350125Y-22038094D02*
X13350125Y-21799999D01*
X13350125Y-21799999D02*
X13397744Y-21704761D01*
X13397744Y-21704761D02*
X13445363Y-21657142D01*
X13445363Y-21657142D02*
X13540601Y-21609523D01*
X13540601Y-21609523D02*
X13635839Y-21609523D01*
X13635839Y-21609523D02*
X13778696Y-21657142D01*
X13778696Y-21657142D02*
X14350125Y-22228570D01*
X14350125Y-22228570D02*
X14350125Y-21609523D01*
X14350125Y-20657142D02*
X14350125Y-21228570D01*
X14350125Y-20942856D02*
X13350125Y-20942856D01*
X13350125Y-20942856D02*
X13492982Y-21038094D01*
X13492982Y-21038094D02*
X13588220Y-21133332D01*
X13588220Y-21133332D02*
X13635839Y-21228570D01*
%TO.C,H1*%
X8488095Y-47412619D02*
X8488095Y-46412619D01*
X8488095Y-46888809D02*
X9059523Y-46888809D01*
X9059523Y-47412619D02*
X9059523Y-46412619D01*
X10059523Y-47412619D02*
X9488095Y-47412619D01*
X9773809Y-47412619D02*
X9773809Y-46412619D01*
X9773809Y-46412619D02*
X9678571Y-46555476D01*
X9678571Y-46555476D02*
X9583333Y-46650714D01*
X9583333Y-46650714D02*
X9488095Y-46698333D01*
%TO.C,D16*%
X9375119Y-43640475D02*
X8375119Y-43640475D01*
X8375119Y-43640475D02*
X8375119Y-43402380D01*
X8375119Y-43402380D02*
X8422738Y-43259523D01*
X8422738Y-43259523D02*
X8517976Y-43164285D01*
X8517976Y-43164285D02*
X8613214Y-43116666D01*
X8613214Y-43116666D02*
X8803690Y-43069047D01*
X8803690Y-43069047D02*
X8946547Y-43069047D01*
X8946547Y-43069047D02*
X9137023Y-43116666D01*
X9137023Y-43116666D02*
X9232261Y-43164285D01*
X9232261Y-43164285D02*
X9327500Y-43259523D01*
X9327500Y-43259523D02*
X9375119Y-43402380D01*
X9375119Y-43402380D02*
X9375119Y-43640475D01*
X9375119Y-42116666D02*
X9375119Y-42688094D01*
X9375119Y-42402380D02*
X8375119Y-42402380D01*
X8375119Y-42402380D02*
X8517976Y-42497618D01*
X8517976Y-42497618D02*
X8613214Y-42592856D01*
X8613214Y-42592856D02*
X8660833Y-42688094D01*
X8375119Y-41259523D02*
X8375119Y-41449999D01*
X8375119Y-41449999D02*
X8422738Y-41545237D01*
X8422738Y-41545237D02*
X8470357Y-41592856D01*
X8470357Y-41592856D02*
X8613214Y-41688094D01*
X8613214Y-41688094D02*
X8803690Y-41735713D01*
X8803690Y-41735713D02*
X9184642Y-41735713D01*
X9184642Y-41735713D02*
X9279880Y-41688094D01*
X9279880Y-41688094D02*
X9327500Y-41640475D01*
X9327500Y-41640475D02*
X9375119Y-41545237D01*
X9375119Y-41545237D02*
X9375119Y-41354761D01*
X9375119Y-41354761D02*
X9327500Y-41259523D01*
X9327500Y-41259523D02*
X9279880Y-41211904D01*
X9279880Y-41211904D02*
X9184642Y-41164285D01*
X9184642Y-41164285D02*
X8946547Y-41164285D01*
X8946547Y-41164285D02*
X8851309Y-41211904D01*
X8851309Y-41211904D02*
X8803690Y-41259523D01*
X8803690Y-41259523D02*
X8756071Y-41354761D01*
X8756071Y-41354761D02*
X8756071Y-41545237D01*
X8756071Y-41545237D02*
X8803690Y-41640475D01*
X8803690Y-41640475D02*
X8851309Y-41688094D01*
X8851309Y-41688094D02*
X8946547Y-41735713D01*
%TO.C,J20*%
X15908457Y-22609523D02*
X16622742Y-22609523D01*
X16622742Y-22609523D02*
X16765599Y-22657142D01*
X16765599Y-22657142D02*
X16860838Y-22752380D01*
X16860838Y-22752380D02*
X16908457Y-22895237D01*
X16908457Y-22895237D02*
X16908457Y-22990475D01*
X16003695Y-22180951D02*
X15956076Y-22133332D01*
X15956076Y-22133332D02*
X15908457Y-22038094D01*
X15908457Y-22038094D02*
X15908457Y-21799999D01*
X15908457Y-21799999D02*
X15956076Y-21704761D01*
X15956076Y-21704761D02*
X16003695Y-21657142D01*
X16003695Y-21657142D02*
X16098933Y-21609523D01*
X16098933Y-21609523D02*
X16194171Y-21609523D01*
X16194171Y-21609523D02*
X16337028Y-21657142D01*
X16337028Y-21657142D02*
X16908457Y-22228570D01*
X16908457Y-22228570D02*
X16908457Y-21609523D01*
X15908457Y-20990475D02*
X15908457Y-20895237D01*
X15908457Y-20895237D02*
X15956076Y-20799999D01*
X15956076Y-20799999D02*
X16003695Y-20752380D01*
X16003695Y-20752380D02*
X16098933Y-20704761D01*
X16098933Y-20704761D02*
X16289409Y-20657142D01*
X16289409Y-20657142D02*
X16527504Y-20657142D01*
X16527504Y-20657142D02*
X16717980Y-20704761D01*
X16717980Y-20704761D02*
X16813218Y-20752380D01*
X16813218Y-20752380D02*
X16860838Y-20799999D01*
X16860838Y-20799999D02*
X16908457Y-20895237D01*
X16908457Y-20895237D02*
X16908457Y-20990475D01*
X16908457Y-20990475D02*
X16860838Y-21085713D01*
X16860838Y-21085713D02*
X16813218Y-21133332D01*
X16813218Y-21133332D02*
X16717980Y-21180951D01*
X16717980Y-21180951D02*
X16527504Y-21228570D01*
X16527504Y-21228570D02*
X16289409Y-21228570D01*
X16289409Y-21228570D02*
X16098933Y-21180951D01*
X16098933Y-21180951D02*
X16003695Y-21133332D01*
X16003695Y-21133332D02*
X15956076Y-21085713D01*
X15956076Y-21085713D02*
X15908457Y-20990475D01*
%TO.C,J3*%
X27420951Y-21657142D02*
X28135236Y-21657142D01*
X28135236Y-21657142D02*
X28278093Y-21704761D01*
X28278093Y-21704761D02*
X28373332Y-21799999D01*
X28373332Y-21799999D02*
X28420951Y-21942856D01*
X28420951Y-21942856D02*
X28420951Y-22038094D01*
X27420951Y-21276189D02*
X27420951Y-20657142D01*
X27420951Y-20657142D02*
X27801903Y-20990475D01*
X27801903Y-20990475D02*
X27801903Y-20847618D01*
X27801903Y-20847618D02*
X27849522Y-20752380D01*
X27849522Y-20752380D02*
X27897141Y-20704761D01*
X27897141Y-20704761D02*
X27992379Y-20657142D01*
X27992379Y-20657142D02*
X28230474Y-20657142D01*
X28230474Y-20657142D02*
X28325712Y-20704761D01*
X28325712Y-20704761D02*
X28373332Y-20752380D01*
X28373332Y-20752380D02*
X28420951Y-20847618D01*
X28420951Y-20847618D02*
X28420951Y-21133332D01*
X28420951Y-21133332D02*
X28373332Y-21228570D01*
X28373332Y-21228570D02*
X28325712Y-21276189D01*
%TO.C,H4*%
X8488095Y-9412619D02*
X8488095Y-8412619D01*
X8488095Y-8888809D02*
X9059523Y-8888809D01*
X9059523Y-9412619D02*
X9059523Y-8412619D01*
X9964285Y-8745952D02*
X9964285Y-9412619D01*
X9726190Y-8365000D02*
X9488095Y-9079285D01*
X9488095Y-9079285D02*
X10107142Y-9079285D01*
%TO.C,J9*%
X12070959Y-21657142D02*
X12785244Y-21657142D01*
X12785244Y-21657142D02*
X12928101Y-21704761D01*
X12928101Y-21704761D02*
X13023340Y-21799999D01*
X13023340Y-21799999D02*
X13070959Y-21942856D01*
X13070959Y-21942856D02*
X13070959Y-22038094D01*
X13070959Y-21133332D02*
X13070959Y-20942856D01*
X13070959Y-20942856D02*
X13023340Y-20847618D01*
X13023340Y-20847618D02*
X12975720Y-20799999D01*
X12975720Y-20799999D02*
X12832863Y-20704761D01*
X12832863Y-20704761D02*
X12642387Y-20657142D01*
X12642387Y-20657142D02*
X12261435Y-20657142D01*
X12261435Y-20657142D02*
X12166197Y-20704761D01*
X12166197Y-20704761D02*
X12118578Y-20752380D01*
X12118578Y-20752380D02*
X12070959Y-20847618D01*
X12070959Y-20847618D02*
X12070959Y-21038094D01*
X12070959Y-21038094D02*
X12118578Y-21133332D01*
X12118578Y-21133332D02*
X12166197Y-21180951D01*
X12166197Y-21180951D02*
X12261435Y-21228570D01*
X12261435Y-21228570D02*
X12499530Y-21228570D01*
X12499530Y-21228570D02*
X12594768Y-21180951D01*
X12594768Y-21180951D02*
X12642387Y-21133332D01*
X12642387Y-21133332D02*
X12690006Y-21038094D01*
X12690006Y-21038094D02*
X12690006Y-20847618D01*
X12690006Y-20847618D02*
X12642387Y-20752380D01*
X12642387Y-20752380D02*
X12594768Y-20704761D01*
X12594768Y-20704761D02*
X12499530Y-20657142D01*
%TO.C,J15*%
X28700117Y-22609523D02*
X29414402Y-22609523D01*
X29414402Y-22609523D02*
X29557259Y-22657142D01*
X29557259Y-22657142D02*
X29652498Y-22752380D01*
X29652498Y-22752380D02*
X29700117Y-22895237D01*
X29700117Y-22895237D02*
X29700117Y-22990475D01*
X29700117Y-21609523D02*
X29700117Y-22180951D01*
X29700117Y-21895237D02*
X28700117Y-21895237D01*
X28700117Y-21895237D02*
X28842974Y-21990475D01*
X28842974Y-21990475D02*
X28938212Y-22085713D01*
X28938212Y-22085713D02*
X28985831Y-22180951D01*
X28700117Y-20704761D02*
X28700117Y-21180951D01*
X28700117Y-21180951D02*
X29176307Y-21228570D01*
X29176307Y-21228570D02*
X29128688Y-21180951D01*
X29128688Y-21180951D02*
X29081069Y-21085713D01*
X29081069Y-21085713D02*
X29081069Y-20847618D01*
X29081069Y-20847618D02*
X29128688Y-20752380D01*
X29128688Y-20752380D02*
X29176307Y-20704761D01*
X29176307Y-20704761D02*
X29271545Y-20657142D01*
X29271545Y-20657142D02*
X29509640Y-20657142D01*
X29509640Y-20657142D02*
X29604878Y-20704761D01*
X29604878Y-20704761D02*
X29652498Y-20752380D01*
X29652498Y-20752380D02*
X29700117Y-20847618D01*
X29700117Y-20847618D02*
X29700117Y-21085713D01*
X29700117Y-21085713D02*
X29652498Y-21180951D01*
X29652498Y-21180951D02*
X29604878Y-21228570D01*
%TO.C,J13*%
X1837631Y-22609523D02*
X2551916Y-22609523D01*
X2551916Y-22609523D02*
X2694773Y-22657142D01*
X2694773Y-22657142D02*
X2790012Y-22752380D01*
X2790012Y-22752380D02*
X2837631Y-22895237D01*
X2837631Y-22895237D02*
X2837631Y-22990475D01*
X2837631Y-21609523D02*
X2837631Y-22180951D01*
X2837631Y-21895237D02*
X1837631Y-21895237D01*
X1837631Y-21895237D02*
X1980488Y-21990475D01*
X1980488Y-21990475D02*
X2075726Y-22085713D01*
X2075726Y-22085713D02*
X2123345Y-22180951D01*
X1837631Y-21276189D02*
X1837631Y-20657142D01*
X1837631Y-20657142D02*
X2218583Y-20990475D01*
X2218583Y-20990475D02*
X2218583Y-20847618D01*
X2218583Y-20847618D02*
X2266202Y-20752380D01*
X2266202Y-20752380D02*
X2313821Y-20704761D01*
X2313821Y-20704761D02*
X2409059Y-20657142D01*
X2409059Y-20657142D02*
X2647154Y-20657142D01*
X2647154Y-20657142D02*
X2742392Y-20704761D01*
X2742392Y-20704761D02*
X2790012Y-20752380D01*
X2790012Y-20752380D02*
X2837631Y-20847618D01*
X2837631Y-20847618D02*
X2837631Y-21133332D01*
X2837631Y-21133332D02*
X2790012Y-21228570D01*
X2790012Y-21228570D02*
X2742392Y-21276189D01*
%TO.C,J25*%
X3116797Y-22609523D02*
X3831082Y-22609523D01*
X3831082Y-22609523D02*
X3973939Y-22657142D01*
X3973939Y-22657142D02*
X4069178Y-22752380D01*
X4069178Y-22752380D02*
X4116797Y-22895237D01*
X4116797Y-22895237D02*
X4116797Y-22990475D01*
X3212035Y-22180951D02*
X3164416Y-22133332D01*
X3164416Y-22133332D02*
X3116797Y-22038094D01*
X3116797Y-22038094D02*
X3116797Y-21799999D01*
X3116797Y-21799999D02*
X3164416Y-21704761D01*
X3164416Y-21704761D02*
X3212035Y-21657142D01*
X3212035Y-21657142D02*
X3307273Y-21609523D01*
X3307273Y-21609523D02*
X3402511Y-21609523D01*
X3402511Y-21609523D02*
X3545368Y-21657142D01*
X3545368Y-21657142D02*
X4116797Y-22228570D01*
X4116797Y-22228570D02*
X4116797Y-21609523D01*
X3116797Y-20704761D02*
X3116797Y-21180951D01*
X3116797Y-21180951D02*
X3592987Y-21228570D01*
X3592987Y-21228570D02*
X3545368Y-21180951D01*
X3545368Y-21180951D02*
X3497749Y-21085713D01*
X3497749Y-21085713D02*
X3497749Y-20847618D01*
X3497749Y-20847618D02*
X3545368Y-20752380D01*
X3545368Y-20752380D02*
X3592987Y-20704761D01*
X3592987Y-20704761D02*
X3688225Y-20657142D01*
X3688225Y-20657142D02*
X3926320Y-20657142D01*
X3926320Y-20657142D02*
X4021558Y-20704761D01*
X4021558Y-20704761D02*
X4069178Y-20752380D01*
X4069178Y-20752380D02*
X4116797Y-20847618D01*
X4116797Y-20847618D02*
X4116797Y-21085713D01*
X4116797Y-21085713D02*
X4069178Y-21180951D01*
X4069178Y-21180951D02*
X4021558Y-21228570D01*
%TO.C,H3*%
X25488095Y-47412619D02*
X25488095Y-46412619D01*
X25488095Y-46888809D02*
X26059523Y-46888809D01*
X26059523Y-47412619D02*
X26059523Y-46412619D01*
X26440476Y-46412619D02*
X27059523Y-46412619D01*
X27059523Y-46412619D02*
X26726190Y-46793571D01*
X26726190Y-46793571D02*
X26869047Y-46793571D01*
X26869047Y-46793571D02*
X26964285Y-46841190D01*
X26964285Y-46841190D02*
X27011904Y-46888809D01*
X27011904Y-46888809D02*
X27059523Y-46984047D01*
X27059523Y-46984047D02*
X27059523Y-47222142D01*
X27059523Y-47222142D02*
X27011904Y-47317380D01*
X27011904Y-47317380D02*
X26964285Y-47365000D01*
X26964285Y-47365000D02*
X26869047Y-47412619D01*
X26869047Y-47412619D02*
X26583333Y-47412619D01*
X26583333Y-47412619D02*
X26488095Y-47365000D01*
X26488095Y-47365000D02*
X26440476Y-47317380D01*
%TO.C,D5*%
X13162619Y-42688094D02*
X12162619Y-42688094D01*
X12162619Y-42688094D02*
X12162619Y-42449999D01*
X12162619Y-42449999D02*
X12210238Y-42307142D01*
X12210238Y-42307142D02*
X12305476Y-42211904D01*
X12305476Y-42211904D02*
X12400714Y-42164285D01*
X12400714Y-42164285D02*
X12591190Y-42116666D01*
X12591190Y-42116666D02*
X12734047Y-42116666D01*
X12734047Y-42116666D02*
X12924523Y-42164285D01*
X12924523Y-42164285D02*
X13019761Y-42211904D01*
X13019761Y-42211904D02*
X13115000Y-42307142D01*
X13115000Y-42307142D02*
X13162619Y-42449999D01*
X13162619Y-42449999D02*
X13162619Y-42688094D01*
X12162619Y-41211904D02*
X12162619Y-41688094D01*
X12162619Y-41688094D02*
X12638809Y-41735713D01*
X12638809Y-41735713D02*
X12591190Y-41688094D01*
X12591190Y-41688094D02*
X12543571Y-41592856D01*
X12543571Y-41592856D02*
X12543571Y-41354761D01*
X12543571Y-41354761D02*
X12591190Y-41259523D01*
X12591190Y-41259523D02*
X12638809Y-41211904D01*
X12638809Y-41211904D02*
X12734047Y-41164285D01*
X12734047Y-41164285D02*
X12972142Y-41164285D01*
X12972142Y-41164285D02*
X13067380Y-41211904D01*
X13067380Y-41211904D02*
X13115000Y-41259523D01*
X13115000Y-41259523D02*
X13162619Y-41354761D01*
X13162619Y-41354761D02*
X13162619Y-41592856D01*
X13162619Y-41592856D02*
X13115000Y-41688094D01*
X13115000Y-41688094D02*
X13067380Y-41735713D01*
%TO.C,D9*%
X23262619Y-42688094D02*
X22262619Y-42688094D01*
X22262619Y-42688094D02*
X22262619Y-42449999D01*
X22262619Y-42449999D02*
X22310238Y-42307142D01*
X22310238Y-42307142D02*
X22405476Y-42211904D01*
X22405476Y-42211904D02*
X22500714Y-42164285D01*
X22500714Y-42164285D02*
X22691190Y-42116666D01*
X22691190Y-42116666D02*
X22834047Y-42116666D01*
X22834047Y-42116666D02*
X23024523Y-42164285D01*
X23024523Y-42164285D02*
X23119761Y-42211904D01*
X23119761Y-42211904D02*
X23215000Y-42307142D01*
X23215000Y-42307142D02*
X23262619Y-42449999D01*
X23262619Y-42449999D02*
X23262619Y-42688094D01*
X23262619Y-41640475D02*
X23262619Y-41449999D01*
X23262619Y-41449999D02*
X23215000Y-41354761D01*
X23215000Y-41354761D02*
X23167380Y-41307142D01*
X23167380Y-41307142D02*
X23024523Y-41211904D01*
X23024523Y-41211904D02*
X22834047Y-41164285D01*
X22834047Y-41164285D02*
X22453095Y-41164285D01*
X22453095Y-41164285D02*
X22357857Y-41211904D01*
X22357857Y-41211904D02*
X22310238Y-41259523D01*
X22310238Y-41259523D02*
X22262619Y-41354761D01*
X22262619Y-41354761D02*
X22262619Y-41545237D01*
X22262619Y-41545237D02*
X22310238Y-41640475D01*
X22310238Y-41640475D02*
X22357857Y-41688094D01*
X22357857Y-41688094D02*
X22453095Y-41735713D01*
X22453095Y-41735713D02*
X22691190Y-41735713D01*
X22691190Y-41735713D02*
X22786428Y-41688094D01*
X22786428Y-41688094D02*
X22834047Y-41640475D01*
X22834047Y-41640475D02*
X22881666Y-41545237D01*
X22881666Y-41545237D02*
X22881666Y-41354761D01*
X22881666Y-41354761D02*
X22834047Y-41259523D01*
X22834047Y-41259523D02*
X22786428Y-41211904D01*
X22786428Y-41211904D02*
X22691190Y-41164285D01*
%TO.C,D4*%
X10637619Y-42688094D02*
X9637619Y-42688094D01*
X9637619Y-42688094D02*
X9637619Y-42449999D01*
X9637619Y-42449999D02*
X9685238Y-42307142D01*
X9685238Y-42307142D02*
X9780476Y-42211904D01*
X9780476Y-42211904D02*
X9875714Y-42164285D01*
X9875714Y-42164285D02*
X10066190Y-42116666D01*
X10066190Y-42116666D02*
X10209047Y-42116666D01*
X10209047Y-42116666D02*
X10399523Y-42164285D01*
X10399523Y-42164285D02*
X10494761Y-42211904D01*
X10494761Y-42211904D02*
X10590000Y-42307142D01*
X10590000Y-42307142D02*
X10637619Y-42449999D01*
X10637619Y-42449999D02*
X10637619Y-42688094D01*
X9970952Y-41259523D02*
X10637619Y-41259523D01*
X9590000Y-41497618D02*
X10304285Y-41735713D01*
X10304285Y-41735713D02*
X10304285Y-41116666D01*
%TO.C,D17*%
X11900119Y-43640475D02*
X10900119Y-43640475D01*
X10900119Y-43640475D02*
X10900119Y-43402380D01*
X10900119Y-43402380D02*
X10947738Y-43259523D01*
X10947738Y-43259523D02*
X11042976Y-43164285D01*
X11042976Y-43164285D02*
X11138214Y-43116666D01*
X11138214Y-43116666D02*
X11328690Y-43069047D01*
X11328690Y-43069047D02*
X11471547Y-43069047D01*
X11471547Y-43069047D02*
X11662023Y-43116666D01*
X11662023Y-43116666D02*
X11757261Y-43164285D01*
X11757261Y-43164285D02*
X11852500Y-43259523D01*
X11852500Y-43259523D02*
X11900119Y-43402380D01*
X11900119Y-43402380D02*
X11900119Y-43640475D01*
X11900119Y-42116666D02*
X11900119Y-42688094D01*
X11900119Y-42402380D02*
X10900119Y-42402380D01*
X10900119Y-42402380D02*
X11042976Y-42497618D01*
X11042976Y-42497618D02*
X11138214Y-42592856D01*
X11138214Y-42592856D02*
X11185833Y-42688094D01*
X10900119Y-41783332D02*
X10900119Y-41116666D01*
X10900119Y-41116666D02*
X11900119Y-41545237D01*
%TO.C,D7*%
X18212619Y-42688094D02*
X17212619Y-42688094D01*
X17212619Y-42688094D02*
X17212619Y-42449999D01*
X17212619Y-42449999D02*
X17260238Y-42307142D01*
X17260238Y-42307142D02*
X17355476Y-42211904D01*
X17355476Y-42211904D02*
X17450714Y-42164285D01*
X17450714Y-42164285D02*
X17641190Y-42116666D01*
X17641190Y-42116666D02*
X17784047Y-42116666D01*
X17784047Y-42116666D02*
X17974523Y-42164285D01*
X17974523Y-42164285D02*
X18069761Y-42211904D01*
X18069761Y-42211904D02*
X18165000Y-42307142D01*
X18165000Y-42307142D02*
X18212619Y-42449999D01*
X18212619Y-42449999D02*
X18212619Y-42688094D01*
X17212619Y-41783332D02*
X17212619Y-41116666D01*
X17212619Y-41116666D02*
X18212619Y-41545237D01*
%TO.C,D19*%
X16950119Y-43640475D02*
X15950119Y-43640475D01*
X15950119Y-43640475D02*
X15950119Y-43402380D01*
X15950119Y-43402380D02*
X15997738Y-43259523D01*
X15997738Y-43259523D02*
X16092976Y-43164285D01*
X16092976Y-43164285D02*
X16188214Y-43116666D01*
X16188214Y-43116666D02*
X16378690Y-43069047D01*
X16378690Y-43069047D02*
X16521547Y-43069047D01*
X16521547Y-43069047D02*
X16712023Y-43116666D01*
X16712023Y-43116666D02*
X16807261Y-43164285D01*
X16807261Y-43164285D02*
X16902500Y-43259523D01*
X16902500Y-43259523D02*
X16950119Y-43402380D01*
X16950119Y-43402380D02*
X16950119Y-43640475D01*
X16950119Y-42116666D02*
X16950119Y-42688094D01*
X16950119Y-42402380D02*
X15950119Y-42402380D01*
X15950119Y-42402380D02*
X16092976Y-42497618D01*
X16092976Y-42497618D02*
X16188214Y-42592856D01*
X16188214Y-42592856D02*
X16235833Y-42688094D01*
X16950119Y-41640475D02*
X16950119Y-41449999D01*
X16950119Y-41449999D02*
X16902500Y-41354761D01*
X16902500Y-41354761D02*
X16854880Y-41307142D01*
X16854880Y-41307142D02*
X16712023Y-41211904D01*
X16712023Y-41211904D02*
X16521547Y-41164285D01*
X16521547Y-41164285D02*
X16140595Y-41164285D01*
X16140595Y-41164285D02*
X16045357Y-41211904D01*
X16045357Y-41211904D02*
X15997738Y-41259523D01*
X15997738Y-41259523D02*
X15950119Y-41354761D01*
X15950119Y-41354761D02*
X15950119Y-41545237D01*
X15950119Y-41545237D02*
X15997738Y-41640475D01*
X15997738Y-41640475D02*
X16045357Y-41688094D01*
X16045357Y-41688094D02*
X16140595Y-41735713D01*
X16140595Y-41735713D02*
X16378690Y-41735713D01*
X16378690Y-41735713D02*
X16473928Y-41688094D01*
X16473928Y-41688094D02*
X16521547Y-41640475D01*
X16521547Y-41640475D02*
X16569166Y-41545237D01*
X16569166Y-41545237D02*
X16569166Y-41354761D01*
X16569166Y-41354761D02*
X16521547Y-41259523D01*
X16521547Y-41259523D02*
X16473928Y-41211904D01*
X16473928Y-41211904D02*
X16378690Y-41164285D01*
%TO.C,D3*%
X8112619Y-42688094D02*
X7112619Y-42688094D01*
X7112619Y-42688094D02*
X7112619Y-42449999D01*
X7112619Y-42449999D02*
X7160238Y-42307142D01*
X7160238Y-42307142D02*
X7255476Y-42211904D01*
X7255476Y-42211904D02*
X7350714Y-42164285D01*
X7350714Y-42164285D02*
X7541190Y-42116666D01*
X7541190Y-42116666D02*
X7684047Y-42116666D01*
X7684047Y-42116666D02*
X7874523Y-42164285D01*
X7874523Y-42164285D02*
X7969761Y-42211904D01*
X7969761Y-42211904D02*
X8065000Y-42307142D01*
X8065000Y-42307142D02*
X8112619Y-42449999D01*
X8112619Y-42449999D02*
X8112619Y-42688094D01*
X7112619Y-41783332D02*
X7112619Y-41164285D01*
X7112619Y-41164285D02*
X7493571Y-41497618D01*
X7493571Y-41497618D02*
X7493571Y-41354761D01*
X7493571Y-41354761D02*
X7541190Y-41259523D01*
X7541190Y-41259523D02*
X7588809Y-41211904D01*
X7588809Y-41211904D02*
X7684047Y-41164285D01*
X7684047Y-41164285D02*
X7922142Y-41164285D01*
X7922142Y-41164285D02*
X8017380Y-41211904D01*
X8017380Y-41211904D02*
X8065000Y-41259523D01*
X8065000Y-41259523D02*
X8112619Y-41354761D01*
X8112619Y-41354761D02*
X8112619Y-41640475D01*
X8112619Y-41640475D02*
X8065000Y-41735713D01*
X8065000Y-41735713D02*
X8017380Y-41783332D01*
%TO.C,D20*%
X19475119Y-43640475D02*
X18475119Y-43640475D01*
X18475119Y-43640475D02*
X18475119Y-43402380D01*
X18475119Y-43402380D02*
X18522738Y-43259523D01*
X18522738Y-43259523D02*
X18617976Y-43164285D01*
X18617976Y-43164285D02*
X18713214Y-43116666D01*
X18713214Y-43116666D02*
X18903690Y-43069047D01*
X18903690Y-43069047D02*
X19046547Y-43069047D01*
X19046547Y-43069047D02*
X19237023Y-43116666D01*
X19237023Y-43116666D02*
X19332261Y-43164285D01*
X19332261Y-43164285D02*
X19427500Y-43259523D01*
X19427500Y-43259523D02*
X19475119Y-43402380D01*
X19475119Y-43402380D02*
X19475119Y-43640475D01*
X18570357Y-42688094D02*
X18522738Y-42640475D01*
X18522738Y-42640475D02*
X18475119Y-42545237D01*
X18475119Y-42545237D02*
X18475119Y-42307142D01*
X18475119Y-42307142D02*
X18522738Y-42211904D01*
X18522738Y-42211904D02*
X18570357Y-42164285D01*
X18570357Y-42164285D02*
X18665595Y-42116666D01*
X18665595Y-42116666D02*
X18760833Y-42116666D01*
X18760833Y-42116666D02*
X18903690Y-42164285D01*
X18903690Y-42164285D02*
X19475119Y-42735713D01*
X19475119Y-42735713D02*
X19475119Y-42116666D01*
X18475119Y-41497618D02*
X18475119Y-41402380D01*
X18475119Y-41402380D02*
X18522738Y-41307142D01*
X18522738Y-41307142D02*
X18570357Y-41259523D01*
X18570357Y-41259523D02*
X18665595Y-41211904D01*
X18665595Y-41211904D02*
X18856071Y-41164285D01*
X18856071Y-41164285D02*
X19094166Y-41164285D01*
X19094166Y-41164285D02*
X19284642Y-41211904D01*
X19284642Y-41211904D02*
X19379880Y-41259523D01*
X19379880Y-41259523D02*
X19427500Y-41307142D01*
X19427500Y-41307142D02*
X19475119Y-41402380D01*
X19475119Y-41402380D02*
X19475119Y-41497618D01*
X19475119Y-41497618D02*
X19427500Y-41592856D01*
X19427500Y-41592856D02*
X19379880Y-41640475D01*
X19379880Y-41640475D02*
X19284642Y-41688094D01*
X19284642Y-41688094D02*
X19094166Y-41735713D01*
X19094166Y-41735713D02*
X18856071Y-41735713D01*
X18856071Y-41735713D02*
X18665595Y-41688094D01*
X18665595Y-41688094D02*
X18570357Y-41640475D01*
X18570357Y-41640475D02*
X18522738Y-41592856D01*
X18522738Y-41592856D02*
X18475119Y-41497618D01*
%TO.C,D21*%
X22000119Y-43640475D02*
X21000119Y-43640475D01*
X21000119Y-43640475D02*
X21000119Y-43402380D01*
X21000119Y-43402380D02*
X21047738Y-43259523D01*
X21047738Y-43259523D02*
X21142976Y-43164285D01*
X21142976Y-43164285D02*
X21238214Y-43116666D01*
X21238214Y-43116666D02*
X21428690Y-43069047D01*
X21428690Y-43069047D02*
X21571547Y-43069047D01*
X21571547Y-43069047D02*
X21762023Y-43116666D01*
X21762023Y-43116666D02*
X21857261Y-43164285D01*
X21857261Y-43164285D02*
X21952500Y-43259523D01*
X21952500Y-43259523D02*
X22000119Y-43402380D01*
X22000119Y-43402380D02*
X22000119Y-43640475D01*
X21095357Y-42688094D02*
X21047738Y-42640475D01*
X21047738Y-42640475D02*
X21000119Y-42545237D01*
X21000119Y-42545237D02*
X21000119Y-42307142D01*
X21000119Y-42307142D02*
X21047738Y-42211904D01*
X21047738Y-42211904D02*
X21095357Y-42164285D01*
X21095357Y-42164285D02*
X21190595Y-42116666D01*
X21190595Y-42116666D02*
X21285833Y-42116666D01*
X21285833Y-42116666D02*
X21428690Y-42164285D01*
X21428690Y-42164285D02*
X22000119Y-42735713D01*
X22000119Y-42735713D02*
X22000119Y-42116666D01*
X22000119Y-41164285D02*
X22000119Y-41735713D01*
X22000119Y-41449999D02*
X21000119Y-41449999D01*
X21000119Y-41449999D02*
X21142976Y-41545237D01*
X21142976Y-41545237D02*
X21238214Y-41640475D01*
X21238214Y-41640475D02*
X21285833Y-41735713D01*
%TO.C,D12*%
X30837619Y-43640475D02*
X29837619Y-43640475D01*
X29837619Y-43640475D02*
X29837619Y-43402380D01*
X29837619Y-43402380D02*
X29885238Y-43259523D01*
X29885238Y-43259523D02*
X29980476Y-43164285D01*
X29980476Y-43164285D02*
X30075714Y-43116666D01*
X30075714Y-43116666D02*
X30266190Y-43069047D01*
X30266190Y-43069047D02*
X30409047Y-43069047D01*
X30409047Y-43069047D02*
X30599523Y-43116666D01*
X30599523Y-43116666D02*
X30694761Y-43164285D01*
X30694761Y-43164285D02*
X30790000Y-43259523D01*
X30790000Y-43259523D02*
X30837619Y-43402380D01*
X30837619Y-43402380D02*
X30837619Y-43640475D01*
X30837619Y-42116666D02*
X30837619Y-42688094D01*
X30837619Y-42402380D02*
X29837619Y-42402380D01*
X29837619Y-42402380D02*
X29980476Y-42497618D01*
X29980476Y-42497618D02*
X30075714Y-42592856D01*
X30075714Y-42592856D02*
X30123333Y-42688094D01*
X29932857Y-41735713D02*
X29885238Y-41688094D01*
X29885238Y-41688094D02*
X29837619Y-41592856D01*
X29837619Y-41592856D02*
X29837619Y-41354761D01*
X29837619Y-41354761D02*
X29885238Y-41259523D01*
X29885238Y-41259523D02*
X29932857Y-41211904D01*
X29932857Y-41211904D02*
X30028095Y-41164285D01*
X30028095Y-41164285D02*
X30123333Y-41164285D01*
X30123333Y-41164285D02*
X30266190Y-41211904D01*
X30266190Y-41211904D02*
X30837619Y-41783332D01*
X30837619Y-41783332D02*
X30837619Y-41164285D01*
%TO.C,J4*%
X24862619Y-21657142D02*
X25576904Y-21657142D01*
X25576904Y-21657142D02*
X25719761Y-21704761D01*
X25719761Y-21704761D02*
X25815000Y-21799999D01*
X25815000Y-21799999D02*
X25862619Y-21942856D01*
X25862619Y-21942856D02*
X25862619Y-22038094D01*
X25195952Y-20752380D02*
X25862619Y-20752380D01*
X24815000Y-20990475D02*
X25529285Y-21228570D01*
X25529285Y-21228570D02*
X25529285Y-20609523D01*
%TO.C,D2*%
X5587619Y-42688094D02*
X4587619Y-42688094D01*
X4587619Y-42688094D02*
X4587619Y-42449999D01*
X4587619Y-42449999D02*
X4635238Y-42307142D01*
X4635238Y-42307142D02*
X4730476Y-42211904D01*
X4730476Y-42211904D02*
X4825714Y-42164285D01*
X4825714Y-42164285D02*
X5016190Y-42116666D01*
X5016190Y-42116666D02*
X5159047Y-42116666D01*
X5159047Y-42116666D02*
X5349523Y-42164285D01*
X5349523Y-42164285D02*
X5444761Y-42211904D01*
X5444761Y-42211904D02*
X5540000Y-42307142D01*
X5540000Y-42307142D02*
X5587619Y-42449999D01*
X5587619Y-42449999D02*
X5587619Y-42688094D01*
X4682857Y-41735713D02*
X4635238Y-41688094D01*
X4635238Y-41688094D02*
X4587619Y-41592856D01*
X4587619Y-41592856D02*
X4587619Y-41354761D01*
X4587619Y-41354761D02*
X4635238Y-41259523D01*
X4635238Y-41259523D02*
X4682857Y-41211904D01*
X4682857Y-41211904D02*
X4778095Y-41164285D01*
X4778095Y-41164285D02*
X4873333Y-41164285D01*
X4873333Y-41164285D02*
X5016190Y-41211904D01*
X5016190Y-41211904D02*
X5587619Y-41783332D01*
X5587619Y-41783332D02*
X5587619Y-41164285D01*
%TO.C,J1*%
X32537615Y-21657142D02*
X33251900Y-21657142D01*
X33251900Y-21657142D02*
X33394757Y-21704761D01*
X33394757Y-21704761D02*
X33489996Y-21799999D01*
X33489996Y-21799999D02*
X33537615Y-21942856D01*
X33537615Y-21942856D02*
X33537615Y-22038094D01*
X33537615Y-20657142D02*
X33537615Y-21228570D01*
X33537615Y-20942856D02*
X32537615Y-20942856D01*
X32537615Y-20942856D02*
X32680472Y-21038094D01*
X32680472Y-21038094D02*
X32775710Y-21133332D01*
X32775710Y-21133332D02*
X32823329Y-21228570D01*
%TO.C,J16*%
X26141785Y-22609523D02*
X26856070Y-22609523D01*
X26856070Y-22609523D02*
X26998927Y-22657142D01*
X26998927Y-22657142D02*
X27094166Y-22752380D01*
X27094166Y-22752380D02*
X27141785Y-22895237D01*
X27141785Y-22895237D02*
X27141785Y-22990475D01*
X27141785Y-21609523D02*
X27141785Y-22180951D01*
X27141785Y-21895237D02*
X26141785Y-21895237D01*
X26141785Y-21895237D02*
X26284642Y-21990475D01*
X26284642Y-21990475D02*
X26379880Y-22085713D01*
X26379880Y-22085713D02*
X26427499Y-22180951D01*
X26141785Y-20752380D02*
X26141785Y-20942856D01*
X26141785Y-20942856D02*
X26189404Y-21038094D01*
X26189404Y-21038094D02*
X26237023Y-21085713D01*
X26237023Y-21085713D02*
X26379880Y-21180951D01*
X26379880Y-21180951D02*
X26570356Y-21228570D01*
X26570356Y-21228570D02*
X26951308Y-21228570D01*
X26951308Y-21228570D02*
X27046546Y-21180951D01*
X27046546Y-21180951D02*
X27094166Y-21133332D01*
X27094166Y-21133332D02*
X27141785Y-21038094D01*
X27141785Y-21038094D02*
X27141785Y-20847618D01*
X27141785Y-20847618D02*
X27094166Y-20752380D01*
X27094166Y-20752380D02*
X27046546Y-20704761D01*
X27046546Y-20704761D02*
X26951308Y-20657142D01*
X26951308Y-20657142D02*
X26713213Y-20657142D01*
X26713213Y-20657142D02*
X26617975Y-20704761D01*
X26617975Y-20704761D02*
X26570356Y-20752380D01*
X26570356Y-20752380D02*
X26522737Y-20847618D01*
X26522737Y-20847618D02*
X26522737Y-21038094D01*
X26522737Y-21038094D02*
X26570356Y-21133332D01*
X26570356Y-21133332D02*
X26617975Y-21180951D01*
X26617975Y-21180951D02*
X26713213Y-21228570D01*
%TO.C,J14*%
X31258449Y-22609523D02*
X31972734Y-22609523D01*
X31972734Y-22609523D02*
X32115591Y-22657142D01*
X32115591Y-22657142D02*
X32210830Y-22752380D01*
X32210830Y-22752380D02*
X32258449Y-22895237D01*
X32258449Y-22895237D02*
X32258449Y-22990475D01*
X32258449Y-21609523D02*
X32258449Y-22180951D01*
X32258449Y-21895237D02*
X31258449Y-21895237D01*
X31258449Y-21895237D02*
X31401306Y-21990475D01*
X31401306Y-21990475D02*
X31496544Y-22085713D01*
X31496544Y-22085713D02*
X31544163Y-22180951D01*
X31591782Y-20752380D02*
X32258449Y-20752380D01*
X31210830Y-20990475D02*
X31925115Y-21228570D01*
X31925115Y-21228570D02*
X31925115Y-20609523D01*
%TO.C,D10*%
X25787619Y-43640475D02*
X24787619Y-43640475D01*
X24787619Y-43640475D02*
X24787619Y-43402380D01*
X24787619Y-43402380D02*
X24835238Y-43259523D01*
X24835238Y-43259523D02*
X24930476Y-43164285D01*
X24930476Y-43164285D02*
X25025714Y-43116666D01*
X25025714Y-43116666D02*
X25216190Y-43069047D01*
X25216190Y-43069047D02*
X25359047Y-43069047D01*
X25359047Y-43069047D02*
X25549523Y-43116666D01*
X25549523Y-43116666D02*
X25644761Y-43164285D01*
X25644761Y-43164285D02*
X25740000Y-43259523D01*
X25740000Y-43259523D02*
X25787619Y-43402380D01*
X25787619Y-43402380D02*
X25787619Y-43640475D01*
X25787619Y-42116666D02*
X25787619Y-42688094D01*
X25787619Y-42402380D02*
X24787619Y-42402380D01*
X24787619Y-42402380D02*
X24930476Y-42497618D01*
X24930476Y-42497618D02*
X25025714Y-42592856D01*
X25025714Y-42592856D02*
X25073333Y-42688094D01*
X24787619Y-41497618D02*
X24787619Y-41402380D01*
X24787619Y-41402380D02*
X24835238Y-41307142D01*
X24835238Y-41307142D02*
X24882857Y-41259523D01*
X24882857Y-41259523D02*
X24978095Y-41211904D01*
X24978095Y-41211904D02*
X25168571Y-41164285D01*
X25168571Y-41164285D02*
X25406666Y-41164285D01*
X25406666Y-41164285D02*
X25597142Y-41211904D01*
X25597142Y-41211904D02*
X25692380Y-41259523D01*
X25692380Y-41259523D02*
X25740000Y-41307142D01*
X25740000Y-41307142D02*
X25787619Y-41402380D01*
X25787619Y-41402380D02*
X25787619Y-41497618D01*
X25787619Y-41497618D02*
X25740000Y-41592856D01*
X25740000Y-41592856D02*
X25692380Y-41640475D01*
X25692380Y-41640475D02*
X25597142Y-41688094D01*
X25597142Y-41688094D02*
X25406666Y-41735713D01*
X25406666Y-41735713D02*
X25168571Y-41735713D01*
X25168571Y-41735713D02*
X24978095Y-41688094D01*
X24978095Y-41688094D02*
X24882857Y-41640475D01*
X24882857Y-41640475D02*
X24835238Y-41592856D01*
X24835238Y-41592856D02*
X24787619Y-41497618D01*
%TO.C,J18*%
X21025121Y-22609523D02*
X21739406Y-22609523D01*
X21739406Y-22609523D02*
X21882263Y-22657142D01*
X21882263Y-22657142D02*
X21977502Y-22752380D01*
X21977502Y-22752380D02*
X22025121Y-22895237D01*
X22025121Y-22895237D02*
X22025121Y-22990475D01*
X22025121Y-21609523D02*
X22025121Y-22180951D01*
X22025121Y-21895237D02*
X21025121Y-21895237D01*
X21025121Y-21895237D02*
X21167978Y-21990475D01*
X21167978Y-21990475D02*
X21263216Y-22085713D01*
X21263216Y-22085713D02*
X21310835Y-22180951D01*
X21453692Y-21038094D02*
X21406073Y-21133332D01*
X21406073Y-21133332D02*
X21358454Y-21180951D01*
X21358454Y-21180951D02*
X21263216Y-21228570D01*
X21263216Y-21228570D02*
X21215597Y-21228570D01*
X21215597Y-21228570D02*
X21120359Y-21180951D01*
X21120359Y-21180951D02*
X21072740Y-21133332D01*
X21072740Y-21133332D02*
X21025121Y-21038094D01*
X21025121Y-21038094D02*
X21025121Y-20847618D01*
X21025121Y-20847618D02*
X21072740Y-20752380D01*
X21072740Y-20752380D02*
X21120359Y-20704761D01*
X21120359Y-20704761D02*
X21215597Y-20657142D01*
X21215597Y-20657142D02*
X21263216Y-20657142D01*
X21263216Y-20657142D02*
X21358454Y-20704761D01*
X21358454Y-20704761D02*
X21406073Y-20752380D01*
X21406073Y-20752380D02*
X21453692Y-20847618D01*
X21453692Y-20847618D02*
X21453692Y-21038094D01*
X21453692Y-21038094D02*
X21501311Y-21133332D01*
X21501311Y-21133332D02*
X21548930Y-21180951D01*
X21548930Y-21180951D02*
X21644168Y-21228570D01*
X21644168Y-21228570D02*
X21834644Y-21228570D01*
X21834644Y-21228570D02*
X21929882Y-21180951D01*
X21929882Y-21180951D02*
X21977502Y-21133332D01*
X21977502Y-21133332D02*
X22025121Y-21038094D01*
X22025121Y-21038094D02*
X22025121Y-20847618D01*
X22025121Y-20847618D02*
X21977502Y-20752380D01*
X21977502Y-20752380D02*
X21929882Y-20704761D01*
X21929882Y-20704761D02*
X21834644Y-20657142D01*
X21834644Y-20657142D02*
X21644168Y-20657142D01*
X21644168Y-20657142D02*
X21548930Y-20704761D01*
X21548930Y-20704761D02*
X21501311Y-20752380D01*
X21501311Y-20752380D02*
X21453692Y-20847618D01*
%TO.C,J23*%
X8233461Y-22609523D02*
X8947746Y-22609523D01*
X8947746Y-22609523D02*
X9090603Y-22657142D01*
X9090603Y-22657142D02*
X9185842Y-22752380D01*
X9185842Y-22752380D02*
X9233461Y-22895237D01*
X9233461Y-22895237D02*
X9233461Y-22990475D01*
X8328699Y-22180951D02*
X8281080Y-22133332D01*
X8281080Y-22133332D02*
X8233461Y-22038094D01*
X8233461Y-22038094D02*
X8233461Y-21799999D01*
X8233461Y-21799999D02*
X8281080Y-21704761D01*
X8281080Y-21704761D02*
X8328699Y-21657142D01*
X8328699Y-21657142D02*
X8423937Y-21609523D01*
X8423937Y-21609523D02*
X8519175Y-21609523D01*
X8519175Y-21609523D02*
X8662032Y-21657142D01*
X8662032Y-21657142D02*
X9233461Y-22228570D01*
X9233461Y-22228570D02*
X9233461Y-21609523D01*
X8233461Y-21276189D02*
X8233461Y-20657142D01*
X8233461Y-20657142D02*
X8614413Y-20990475D01*
X8614413Y-20990475D02*
X8614413Y-20847618D01*
X8614413Y-20847618D02*
X8662032Y-20752380D01*
X8662032Y-20752380D02*
X8709651Y-20704761D01*
X8709651Y-20704761D02*
X8804889Y-20657142D01*
X8804889Y-20657142D02*
X9042984Y-20657142D01*
X9042984Y-20657142D02*
X9138222Y-20704761D01*
X9138222Y-20704761D02*
X9185842Y-20752380D01*
X9185842Y-20752380D02*
X9233461Y-20847618D01*
X9233461Y-20847618D02*
X9233461Y-21133332D01*
X9233461Y-21133332D02*
X9185842Y-21228570D01*
X9185842Y-21228570D02*
X9138222Y-21276189D01*
%TO.C,J24*%
X5675129Y-22609523D02*
X6389414Y-22609523D01*
X6389414Y-22609523D02*
X6532271Y-22657142D01*
X6532271Y-22657142D02*
X6627510Y-22752380D01*
X6627510Y-22752380D02*
X6675129Y-22895237D01*
X6675129Y-22895237D02*
X6675129Y-22990475D01*
X5770367Y-22180951D02*
X5722748Y-22133332D01*
X5722748Y-22133332D02*
X5675129Y-22038094D01*
X5675129Y-22038094D02*
X5675129Y-21799999D01*
X5675129Y-21799999D02*
X5722748Y-21704761D01*
X5722748Y-21704761D02*
X5770367Y-21657142D01*
X5770367Y-21657142D02*
X5865605Y-21609523D01*
X5865605Y-21609523D02*
X5960843Y-21609523D01*
X5960843Y-21609523D02*
X6103700Y-21657142D01*
X6103700Y-21657142D02*
X6675129Y-22228570D01*
X6675129Y-22228570D02*
X6675129Y-21609523D01*
X6008462Y-20752380D02*
X6675129Y-20752380D01*
X5627510Y-20990475D02*
X6341795Y-21228570D01*
X6341795Y-21228570D02*
X6341795Y-20609523D01*
%TO.C,J19*%
X18466789Y-22609523D02*
X19181074Y-22609523D01*
X19181074Y-22609523D02*
X19323931Y-22657142D01*
X19323931Y-22657142D02*
X19419170Y-22752380D01*
X19419170Y-22752380D02*
X19466789Y-22895237D01*
X19466789Y-22895237D02*
X19466789Y-22990475D01*
X19466789Y-21609523D02*
X19466789Y-22180951D01*
X19466789Y-21895237D02*
X18466789Y-21895237D01*
X18466789Y-21895237D02*
X18609646Y-21990475D01*
X18609646Y-21990475D02*
X18704884Y-22085713D01*
X18704884Y-22085713D02*
X18752503Y-22180951D01*
X19466789Y-21133332D02*
X19466789Y-20942856D01*
X19466789Y-20942856D02*
X19419170Y-20847618D01*
X19419170Y-20847618D02*
X19371550Y-20799999D01*
X19371550Y-20799999D02*
X19228693Y-20704761D01*
X19228693Y-20704761D02*
X19038217Y-20657142D01*
X19038217Y-20657142D02*
X18657265Y-20657142D01*
X18657265Y-20657142D02*
X18562027Y-20704761D01*
X18562027Y-20704761D02*
X18514408Y-20752380D01*
X18514408Y-20752380D02*
X18466789Y-20847618D01*
X18466789Y-20847618D02*
X18466789Y-21038094D01*
X18466789Y-21038094D02*
X18514408Y-21133332D01*
X18514408Y-21133332D02*
X18562027Y-21180951D01*
X18562027Y-21180951D02*
X18657265Y-21228570D01*
X18657265Y-21228570D02*
X18895360Y-21228570D01*
X18895360Y-21228570D02*
X18990598Y-21180951D01*
X18990598Y-21180951D02*
X19038217Y-21133332D01*
X19038217Y-21133332D02*
X19085836Y-21038094D01*
X19085836Y-21038094D02*
X19085836Y-20847618D01*
X19085836Y-20847618D02*
X19038217Y-20752380D01*
X19038217Y-20752380D02*
X18990598Y-20704761D01*
X18990598Y-20704761D02*
X18895360Y-20657142D01*
%TO.C,D25*%
X32100119Y-43640475D02*
X31100119Y-43640475D01*
X31100119Y-43640475D02*
X31100119Y-43402380D01*
X31100119Y-43402380D02*
X31147738Y-43259523D01*
X31147738Y-43259523D02*
X31242976Y-43164285D01*
X31242976Y-43164285D02*
X31338214Y-43116666D01*
X31338214Y-43116666D02*
X31528690Y-43069047D01*
X31528690Y-43069047D02*
X31671547Y-43069047D01*
X31671547Y-43069047D02*
X31862023Y-43116666D01*
X31862023Y-43116666D02*
X31957261Y-43164285D01*
X31957261Y-43164285D02*
X32052500Y-43259523D01*
X32052500Y-43259523D02*
X32100119Y-43402380D01*
X32100119Y-43402380D02*
X32100119Y-43640475D01*
X31195357Y-42688094D02*
X31147738Y-42640475D01*
X31147738Y-42640475D02*
X31100119Y-42545237D01*
X31100119Y-42545237D02*
X31100119Y-42307142D01*
X31100119Y-42307142D02*
X31147738Y-42211904D01*
X31147738Y-42211904D02*
X31195357Y-42164285D01*
X31195357Y-42164285D02*
X31290595Y-42116666D01*
X31290595Y-42116666D02*
X31385833Y-42116666D01*
X31385833Y-42116666D02*
X31528690Y-42164285D01*
X31528690Y-42164285D02*
X32100119Y-42735713D01*
X32100119Y-42735713D02*
X32100119Y-42116666D01*
X31100119Y-41211904D02*
X31100119Y-41688094D01*
X31100119Y-41688094D02*
X31576309Y-41735713D01*
X31576309Y-41735713D02*
X31528690Y-41688094D01*
X31528690Y-41688094D02*
X31481071Y-41592856D01*
X31481071Y-41592856D02*
X31481071Y-41354761D01*
X31481071Y-41354761D02*
X31528690Y-41259523D01*
X31528690Y-41259523D02*
X31576309Y-41211904D01*
X31576309Y-41211904D02*
X31671547Y-41164285D01*
X31671547Y-41164285D02*
X31909642Y-41164285D01*
X31909642Y-41164285D02*
X32004880Y-41211904D01*
X32004880Y-41211904D02*
X32052500Y-41259523D01*
X32052500Y-41259523D02*
X32100119Y-41354761D01*
X32100119Y-41354761D02*
X32100119Y-41592856D01*
X32100119Y-41592856D02*
X32052500Y-41688094D01*
X32052500Y-41688094D02*
X32004880Y-41735713D01*
%TO.C,J12*%
X4395963Y-22609523D02*
X5110248Y-22609523D01*
X5110248Y-22609523D02*
X5253105Y-22657142D01*
X5253105Y-22657142D02*
X5348344Y-22752380D01*
X5348344Y-22752380D02*
X5395963Y-22895237D01*
X5395963Y-22895237D02*
X5395963Y-22990475D01*
X5395963Y-21609523D02*
X5395963Y-22180951D01*
X5395963Y-21895237D02*
X4395963Y-21895237D01*
X4395963Y-21895237D02*
X4538820Y-21990475D01*
X4538820Y-21990475D02*
X4634058Y-22085713D01*
X4634058Y-22085713D02*
X4681677Y-22180951D01*
X4491201Y-21228570D02*
X4443582Y-21180951D01*
X4443582Y-21180951D02*
X4395963Y-21085713D01*
X4395963Y-21085713D02*
X4395963Y-20847618D01*
X4395963Y-20847618D02*
X4443582Y-20752380D01*
X4443582Y-20752380D02*
X4491201Y-20704761D01*
X4491201Y-20704761D02*
X4586439Y-20657142D01*
X4586439Y-20657142D02*
X4681677Y-20657142D01*
X4681677Y-20657142D02*
X4824534Y-20704761D01*
X4824534Y-20704761D02*
X5395963Y-21276189D01*
X5395963Y-21276189D02*
X5395963Y-20657142D01*
%TO.C,D23*%
X27050119Y-43640475D02*
X26050119Y-43640475D01*
X26050119Y-43640475D02*
X26050119Y-43402380D01*
X26050119Y-43402380D02*
X26097738Y-43259523D01*
X26097738Y-43259523D02*
X26192976Y-43164285D01*
X26192976Y-43164285D02*
X26288214Y-43116666D01*
X26288214Y-43116666D02*
X26478690Y-43069047D01*
X26478690Y-43069047D02*
X26621547Y-43069047D01*
X26621547Y-43069047D02*
X26812023Y-43116666D01*
X26812023Y-43116666D02*
X26907261Y-43164285D01*
X26907261Y-43164285D02*
X27002500Y-43259523D01*
X27002500Y-43259523D02*
X27050119Y-43402380D01*
X27050119Y-43402380D02*
X27050119Y-43640475D01*
X26145357Y-42688094D02*
X26097738Y-42640475D01*
X26097738Y-42640475D02*
X26050119Y-42545237D01*
X26050119Y-42545237D02*
X26050119Y-42307142D01*
X26050119Y-42307142D02*
X26097738Y-42211904D01*
X26097738Y-42211904D02*
X26145357Y-42164285D01*
X26145357Y-42164285D02*
X26240595Y-42116666D01*
X26240595Y-42116666D02*
X26335833Y-42116666D01*
X26335833Y-42116666D02*
X26478690Y-42164285D01*
X26478690Y-42164285D02*
X27050119Y-42735713D01*
X27050119Y-42735713D02*
X27050119Y-42116666D01*
X26050119Y-41783332D02*
X26050119Y-41164285D01*
X26050119Y-41164285D02*
X26431071Y-41497618D01*
X26431071Y-41497618D02*
X26431071Y-41354761D01*
X26431071Y-41354761D02*
X26478690Y-41259523D01*
X26478690Y-41259523D02*
X26526309Y-41211904D01*
X26526309Y-41211904D02*
X26621547Y-41164285D01*
X26621547Y-41164285D02*
X26859642Y-41164285D01*
X26859642Y-41164285D02*
X26954880Y-41211904D01*
X26954880Y-41211904D02*
X27002500Y-41259523D01*
X27002500Y-41259523D02*
X27050119Y-41354761D01*
X27050119Y-41354761D02*
X27050119Y-41640475D01*
X27050119Y-41640475D02*
X27002500Y-41735713D01*
X27002500Y-41735713D02*
X26954880Y-41783332D01*
%TO.C,D13*%
X33362619Y-43640475D02*
X32362619Y-43640475D01*
X32362619Y-43640475D02*
X32362619Y-43402380D01*
X32362619Y-43402380D02*
X32410238Y-43259523D01*
X32410238Y-43259523D02*
X32505476Y-43164285D01*
X32505476Y-43164285D02*
X32600714Y-43116666D01*
X32600714Y-43116666D02*
X32791190Y-43069047D01*
X32791190Y-43069047D02*
X32934047Y-43069047D01*
X32934047Y-43069047D02*
X33124523Y-43116666D01*
X33124523Y-43116666D02*
X33219761Y-43164285D01*
X33219761Y-43164285D02*
X33315000Y-43259523D01*
X33315000Y-43259523D02*
X33362619Y-43402380D01*
X33362619Y-43402380D02*
X33362619Y-43640475D01*
X33362619Y-42116666D02*
X33362619Y-42688094D01*
X33362619Y-42402380D02*
X32362619Y-42402380D01*
X32362619Y-42402380D02*
X32505476Y-42497618D01*
X32505476Y-42497618D02*
X32600714Y-42592856D01*
X32600714Y-42592856D02*
X32648333Y-42688094D01*
X32362619Y-41783332D02*
X32362619Y-41164285D01*
X32362619Y-41164285D02*
X32743571Y-41497618D01*
X32743571Y-41497618D02*
X32743571Y-41354761D01*
X32743571Y-41354761D02*
X32791190Y-41259523D01*
X32791190Y-41259523D02*
X32838809Y-41211904D01*
X32838809Y-41211904D02*
X32934047Y-41164285D01*
X32934047Y-41164285D02*
X33172142Y-41164285D01*
X33172142Y-41164285D02*
X33267380Y-41211904D01*
X33267380Y-41211904D02*
X33315000Y-41259523D01*
X33315000Y-41259523D02*
X33362619Y-41354761D01*
X33362619Y-41354761D02*
X33362619Y-41640475D01*
X33362619Y-41640475D02*
X33315000Y-41735713D01*
X33315000Y-41735713D02*
X33267380Y-41783332D01*
%TO.C,J22*%
X10791793Y-22609523D02*
X11506078Y-22609523D01*
X11506078Y-22609523D02*
X11648935Y-22657142D01*
X11648935Y-22657142D02*
X11744174Y-22752380D01*
X11744174Y-22752380D02*
X11791793Y-22895237D01*
X11791793Y-22895237D02*
X11791793Y-22990475D01*
X10887031Y-22180951D02*
X10839412Y-22133332D01*
X10839412Y-22133332D02*
X10791793Y-22038094D01*
X10791793Y-22038094D02*
X10791793Y-21799999D01*
X10791793Y-21799999D02*
X10839412Y-21704761D01*
X10839412Y-21704761D02*
X10887031Y-21657142D01*
X10887031Y-21657142D02*
X10982269Y-21609523D01*
X10982269Y-21609523D02*
X11077507Y-21609523D01*
X11077507Y-21609523D02*
X11220364Y-21657142D01*
X11220364Y-21657142D02*
X11791793Y-22228570D01*
X11791793Y-22228570D02*
X11791793Y-21609523D01*
X10887031Y-21228570D02*
X10839412Y-21180951D01*
X10839412Y-21180951D02*
X10791793Y-21085713D01*
X10791793Y-21085713D02*
X10791793Y-20847618D01*
X10791793Y-20847618D02*
X10839412Y-20752380D01*
X10839412Y-20752380D02*
X10887031Y-20704761D01*
X10887031Y-20704761D02*
X10982269Y-20657142D01*
X10982269Y-20657142D02*
X11077507Y-20657142D01*
X11077507Y-20657142D02*
X11220364Y-20704761D01*
X11220364Y-20704761D02*
X11791793Y-21276189D01*
X11791793Y-21276189D02*
X11791793Y-20657142D01*
%TO.C,D1*%
X3062619Y-42688094D02*
X2062619Y-42688094D01*
X2062619Y-42688094D02*
X2062619Y-42449999D01*
X2062619Y-42449999D02*
X2110238Y-42307142D01*
X2110238Y-42307142D02*
X2205476Y-42211904D01*
X2205476Y-42211904D02*
X2300714Y-42164285D01*
X2300714Y-42164285D02*
X2491190Y-42116666D01*
X2491190Y-42116666D02*
X2634047Y-42116666D01*
X2634047Y-42116666D02*
X2824523Y-42164285D01*
X2824523Y-42164285D02*
X2919761Y-42211904D01*
X2919761Y-42211904D02*
X3015000Y-42307142D01*
X3015000Y-42307142D02*
X3062619Y-42449999D01*
X3062619Y-42449999D02*
X3062619Y-42688094D01*
X3062619Y-41164285D02*
X3062619Y-41735713D01*
X3062619Y-41449999D02*
X2062619Y-41449999D01*
X2062619Y-41449999D02*
X2205476Y-41545237D01*
X2205476Y-41545237D02*
X2300714Y-41640475D01*
X2300714Y-41640475D02*
X2348333Y-41735713D01*
%TO.C,J8*%
X14629291Y-21657142D02*
X15343576Y-21657142D01*
X15343576Y-21657142D02*
X15486433Y-21704761D01*
X15486433Y-21704761D02*
X15581672Y-21799999D01*
X15581672Y-21799999D02*
X15629291Y-21942856D01*
X15629291Y-21942856D02*
X15629291Y-22038094D01*
X15057862Y-21038094D02*
X15010243Y-21133332D01*
X15010243Y-21133332D02*
X14962624Y-21180951D01*
X14962624Y-21180951D02*
X14867386Y-21228570D01*
X14867386Y-21228570D02*
X14819767Y-21228570D01*
X14819767Y-21228570D02*
X14724529Y-21180951D01*
X14724529Y-21180951D02*
X14676910Y-21133332D01*
X14676910Y-21133332D02*
X14629291Y-21038094D01*
X14629291Y-21038094D02*
X14629291Y-20847618D01*
X14629291Y-20847618D02*
X14676910Y-20752380D01*
X14676910Y-20752380D02*
X14724529Y-20704761D01*
X14724529Y-20704761D02*
X14819767Y-20657142D01*
X14819767Y-20657142D02*
X14867386Y-20657142D01*
X14867386Y-20657142D02*
X14962624Y-20704761D01*
X14962624Y-20704761D02*
X15010243Y-20752380D01*
X15010243Y-20752380D02*
X15057862Y-20847618D01*
X15057862Y-20847618D02*
X15057862Y-21038094D01*
X15057862Y-21038094D02*
X15105481Y-21133332D01*
X15105481Y-21133332D02*
X15153100Y-21180951D01*
X15153100Y-21180951D02*
X15248338Y-21228570D01*
X15248338Y-21228570D02*
X15438814Y-21228570D01*
X15438814Y-21228570D02*
X15534052Y-21180951D01*
X15534052Y-21180951D02*
X15581672Y-21133332D01*
X15581672Y-21133332D02*
X15629291Y-21038094D01*
X15629291Y-21038094D02*
X15629291Y-20847618D01*
X15629291Y-20847618D02*
X15581672Y-20752380D01*
X15581672Y-20752380D02*
X15534052Y-20704761D01*
X15534052Y-20704761D02*
X15438814Y-20657142D01*
X15438814Y-20657142D02*
X15248338Y-20657142D01*
X15248338Y-20657142D02*
X15153100Y-20704761D01*
X15153100Y-20704761D02*
X15105481Y-20752380D01*
X15105481Y-20752380D02*
X15057862Y-20847618D01*
%TO.C,J10*%
X9512627Y-22609523D02*
X10226912Y-22609523D01*
X10226912Y-22609523D02*
X10369769Y-22657142D01*
X10369769Y-22657142D02*
X10465008Y-22752380D01*
X10465008Y-22752380D02*
X10512627Y-22895237D01*
X10512627Y-22895237D02*
X10512627Y-22990475D01*
X10512627Y-21609523D02*
X10512627Y-22180951D01*
X10512627Y-21895237D02*
X9512627Y-21895237D01*
X9512627Y-21895237D02*
X9655484Y-21990475D01*
X9655484Y-21990475D02*
X9750722Y-22085713D01*
X9750722Y-22085713D02*
X9798341Y-22180951D01*
X9512627Y-20990475D02*
X9512627Y-20895237D01*
X9512627Y-20895237D02*
X9560246Y-20799999D01*
X9560246Y-20799999D02*
X9607865Y-20752380D01*
X9607865Y-20752380D02*
X9703103Y-20704761D01*
X9703103Y-20704761D02*
X9893579Y-20657142D01*
X9893579Y-20657142D02*
X10131674Y-20657142D01*
X10131674Y-20657142D02*
X10322150Y-20704761D01*
X10322150Y-20704761D02*
X10417388Y-20752380D01*
X10417388Y-20752380D02*
X10465008Y-20799999D01*
X10465008Y-20799999D02*
X10512627Y-20895237D01*
X10512627Y-20895237D02*
X10512627Y-20990475D01*
X10512627Y-20990475D02*
X10465008Y-21085713D01*
X10465008Y-21085713D02*
X10417388Y-21133332D01*
X10417388Y-21133332D02*
X10322150Y-21180951D01*
X10322150Y-21180951D02*
X10131674Y-21228570D01*
X10131674Y-21228570D02*
X9893579Y-21228570D01*
X9893579Y-21228570D02*
X9703103Y-21180951D01*
X9703103Y-21180951D02*
X9607865Y-21133332D01*
X9607865Y-21133332D02*
X9560246Y-21085713D01*
X9560246Y-21085713D02*
X9512627Y-20990475D01*
%TO.C,J6*%
X19745955Y-21657142D02*
X20460240Y-21657142D01*
X20460240Y-21657142D02*
X20603097Y-21704761D01*
X20603097Y-21704761D02*
X20698336Y-21799999D01*
X20698336Y-21799999D02*
X20745955Y-21942856D01*
X20745955Y-21942856D02*
X20745955Y-22038094D01*
X19745955Y-20752380D02*
X19745955Y-20942856D01*
X19745955Y-20942856D02*
X19793574Y-21038094D01*
X19793574Y-21038094D02*
X19841193Y-21085713D01*
X19841193Y-21085713D02*
X19984050Y-21180951D01*
X19984050Y-21180951D02*
X20174526Y-21228570D01*
X20174526Y-21228570D02*
X20555478Y-21228570D01*
X20555478Y-21228570D02*
X20650716Y-21180951D01*
X20650716Y-21180951D02*
X20698336Y-21133332D01*
X20698336Y-21133332D02*
X20745955Y-21038094D01*
X20745955Y-21038094D02*
X20745955Y-20847618D01*
X20745955Y-20847618D02*
X20698336Y-20752380D01*
X20698336Y-20752380D02*
X20650716Y-20704761D01*
X20650716Y-20704761D02*
X20555478Y-20657142D01*
X20555478Y-20657142D02*
X20317383Y-20657142D01*
X20317383Y-20657142D02*
X20222145Y-20704761D01*
X20222145Y-20704761D02*
X20174526Y-20752380D01*
X20174526Y-20752380D02*
X20126907Y-20847618D01*
X20126907Y-20847618D02*
X20126907Y-21038094D01*
X20126907Y-21038094D02*
X20174526Y-21133332D01*
X20174526Y-21133332D02*
X20222145Y-21180951D01*
X20222145Y-21180951D02*
X20317383Y-21228570D01*
%TO.C,D24*%
X29575119Y-43640475D02*
X28575119Y-43640475D01*
X28575119Y-43640475D02*
X28575119Y-43402380D01*
X28575119Y-43402380D02*
X28622738Y-43259523D01*
X28622738Y-43259523D02*
X28717976Y-43164285D01*
X28717976Y-43164285D02*
X28813214Y-43116666D01*
X28813214Y-43116666D02*
X29003690Y-43069047D01*
X29003690Y-43069047D02*
X29146547Y-43069047D01*
X29146547Y-43069047D02*
X29337023Y-43116666D01*
X29337023Y-43116666D02*
X29432261Y-43164285D01*
X29432261Y-43164285D02*
X29527500Y-43259523D01*
X29527500Y-43259523D02*
X29575119Y-43402380D01*
X29575119Y-43402380D02*
X29575119Y-43640475D01*
X28670357Y-42688094D02*
X28622738Y-42640475D01*
X28622738Y-42640475D02*
X28575119Y-42545237D01*
X28575119Y-42545237D02*
X28575119Y-42307142D01*
X28575119Y-42307142D02*
X28622738Y-42211904D01*
X28622738Y-42211904D02*
X28670357Y-42164285D01*
X28670357Y-42164285D02*
X28765595Y-42116666D01*
X28765595Y-42116666D02*
X28860833Y-42116666D01*
X28860833Y-42116666D02*
X29003690Y-42164285D01*
X29003690Y-42164285D02*
X29575119Y-42735713D01*
X29575119Y-42735713D02*
X29575119Y-42116666D01*
X28908452Y-41259523D02*
X29575119Y-41259523D01*
X28527500Y-41497618D02*
X29241785Y-41735713D01*
X29241785Y-41735713D02*
X29241785Y-41116666D01*
%TO.C,D18*%
X14425119Y-43640475D02*
X13425119Y-43640475D01*
X13425119Y-43640475D02*
X13425119Y-43402380D01*
X13425119Y-43402380D02*
X13472738Y-43259523D01*
X13472738Y-43259523D02*
X13567976Y-43164285D01*
X13567976Y-43164285D02*
X13663214Y-43116666D01*
X13663214Y-43116666D02*
X13853690Y-43069047D01*
X13853690Y-43069047D02*
X13996547Y-43069047D01*
X13996547Y-43069047D02*
X14187023Y-43116666D01*
X14187023Y-43116666D02*
X14282261Y-43164285D01*
X14282261Y-43164285D02*
X14377500Y-43259523D01*
X14377500Y-43259523D02*
X14425119Y-43402380D01*
X14425119Y-43402380D02*
X14425119Y-43640475D01*
X14425119Y-42116666D02*
X14425119Y-42688094D01*
X14425119Y-42402380D02*
X13425119Y-42402380D01*
X13425119Y-42402380D02*
X13567976Y-42497618D01*
X13567976Y-42497618D02*
X13663214Y-42592856D01*
X13663214Y-42592856D02*
X13710833Y-42688094D01*
X13853690Y-41545237D02*
X13806071Y-41640475D01*
X13806071Y-41640475D02*
X13758452Y-41688094D01*
X13758452Y-41688094D02*
X13663214Y-41735713D01*
X13663214Y-41735713D02*
X13615595Y-41735713D01*
X13615595Y-41735713D02*
X13520357Y-41688094D01*
X13520357Y-41688094D02*
X13472738Y-41640475D01*
X13472738Y-41640475D02*
X13425119Y-41545237D01*
X13425119Y-41545237D02*
X13425119Y-41354761D01*
X13425119Y-41354761D02*
X13472738Y-41259523D01*
X13472738Y-41259523D02*
X13520357Y-41211904D01*
X13520357Y-41211904D02*
X13615595Y-41164285D01*
X13615595Y-41164285D02*
X13663214Y-41164285D01*
X13663214Y-41164285D02*
X13758452Y-41211904D01*
X13758452Y-41211904D02*
X13806071Y-41259523D01*
X13806071Y-41259523D02*
X13853690Y-41354761D01*
X13853690Y-41354761D02*
X13853690Y-41545237D01*
X13853690Y-41545237D02*
X13901309Y-41640475D01*
X13901309Y-41640475D02*
X13948928Y-41688094D01*
X13948928Y-41688094D02*
X14044166Y-41735713D01*
X14044166Y-41735713D02*
X14234642Y-41735713D01*
X14234642Y-41735713D02*
X14329880Y-41688094D01*
X14329880Y-41688094D02*
X14377500Y-41640475D01*
X14377500Y-41640475D02*
X14425119Y-41545237D01*
X14425119Y-41545237D02*
X14425119Y-41354761D01*
X14425119Y-41354761D02*
X14377500Y-41259523D01*
X14377500Y-41259523D02*
X14329880Y-41211904D01*
X14329880Y-41211904D02*
X14234642Y-41164285D01*
X14234642Y-41164285D02*
X14044166Y-41164285D01*
X14044166Y-41164285D02*
X13948928Y-41211904D01*
X13948928Y-41211904D02*
X13901309Y-41259523D01*
X13901309Y-41259523D02*
X13853690Y-41354761D01*
%TO.C,D15*%
X6850119Y-43640475D02*
X5850119Y-43640475D01*
X5850119Y-43640475D02*
X5850119Y-43402380D01*
X5850119Y-43402380D02*
X5897738Y-43259523D01*
X5897738Y-43259523D02*
X5992976Y-43164285D01*
X5992976Y-43164285D02*
X6088214Y-43116666D01*
X6088214Y-43116666D02*
X6278690Y-43069047D01*
X6278690Y-43069047D02*
X6421547Y-43069047D01*
X6421547Y-43069047D02*
X6612023Y-43116666D01*
X6612023Y-43116666D02*
X6707261Y-43164285D01*
X6707261Y-43164285D02*
X6802500Y-43259523D01*
X6802500Y-43259523D02*
X6850119Y-43402380D01*
X6850119Y-43402380D02*
X6850119Y-43640475D01*
X6850119Y-42116666D02*
X6850119Y-42688094D01*
X6850119Y-42402380D02*
X5850119Y-42402380D01*
X5850119Y-42402380D02*
X5992976Y-42497618D01*
X5992976Y-42497618D02*
X6088214Y-42592856D01*
X6088214Y-42592856D02*
X6135833Y-42688094D01*
X5850119Y-41211904D02*
X5850119Y-41688094D01*
X5850119Y-41688094D02*
X6326309Y-41735713D01*
X6326309Y-41735713D02*
X6278690Y-41688094D01*
X6278690Y-41688094D02*
X6231071Y-41592856D01*
X6231071Y-41592856D02*
X6231071Y-41354761D01*
X6231071Y-41354761D02*
X6278690Y-41259523D01*
X6278690Y-41259523D02*
X6326309Y-41211904D01*
X6326309Y-41211904D02*
X6421547Y-41164285D01*
X6421547Y-41164285D02*
X6659642Y-41164285D01*
X6659642Y-41164285D02*
X6754880Y-41211904D01*
X6754880Y-41211904D02*
X6802500Y-41259523D01*
X6802500Y-41259523D02*
X6850119Y-41354761D01*
X6850119Y-41354761D02*
X6850119Y-41592856D01*
X6850119Y-41592856D02*
X6802500Y-41688094D01*
X6802500Y-41688094D02*
X6754880Y-41735713D01*
%TO.C,H2*%
X25488095Y-9412619D02*
X25488095Y-8412619D01*
X25488095Y-8888809D02*
X26059523Y-8888809D01*
X26059523Y-9412619D02*
X26059523Y-8412619D01*
X26488095Y-8507857D02*
X26535714Y-8460238D01*
X26535714Y-8460238D02*
X26630952Y-8412619D01*
X26630952Y-8412619D02*
X26869047Y-8412619D01*
X26869047Y-8412619D02*
X26964285Y-8460238D01*
X26964285Y-8460238D02*
X27011904Y-8507857D01*
X27011904Y-8507857D02*
X27059523Y-8603095D01*
X27059523Y-8603095D02*
X27059523Y-8698333D01*
X27059523Y-8698333D02*
X27011904Y-8841190D01*
X27011904Y-8841190D02*
X26440476Y-9412619D01*
X26440476Y-9412619D02*
X27059523Y-9412619D01*
%TO.C,J2*%
X29979283Y-21657142D02*
X30693568Y-21657142D01*
X30693568Y-21657142D02*
X30836425Y-21704761D01*
X30836425Y-21704761D02*
X30931664Y-21799999D01*
X30931664Y-21799999D02*
X30979283Y-21942856D01*
X30979283Y-21942856D02*
X30979283Y-22038094D01*
X30074521Y-21228570D02*
X30026902Y-21180951D01*
X30026902Y-21180951D02*
X29979283Y-21085713D01*
X29979283Y-21085713D02*
X29979283Y-20847618D01*
X29979283Y-20847618D02*
X30026902Y-20752380D01*
X30026902Y-20752380D02*
X30074521Y-20704761D01*
X30074521Y-20704761D02*
X30169759Y-20657142D01*
X30169759Y-20657142D02*
X30264997Y-20657142D01*
X30264997Y-20657142D02*
X30407854Y-20704761D01*
X30407854Y-20704761D02*
X30979283Y-21276189D01*
X30979283Y-21276189D02*
X30979283Y-20657142D01*
%TO.C,J99*%
X26830000Y-7434500D02*
X8670000Y-7434500D01*
X26830000Y-5414500D02*
X26830000Y-7434500D01*
X25830000Y-4414500D02*
X26830000Y-5414500D01*
X8670000Y-7434500D02*
X8670000Y-4414500D01*
X8670000Y-4414500D02*
X25830000Y-4414500D01*
%TO.C,J26*%
X8670000Y-56064500D02*
X26830000Y-56064500D01*
X8670000Y-58084500D02*
X8670000Y-56064500D01*
X9670000Y-59084500D02*
X8670000Y-58084500D01*
X26830000Y-56064500D02*
X26830000Y-59084500D01*
X26830000Y-59084500D02*
X9670000Y-59084500D01*
%TD*%
%LPC*%
D13*
%TO.C,J17*%
X21100000Y-25500000D03*
%TD*%
D14*
%TO.C,J5*%
X20300000Y-25500000D03*
%TD*%
%TO.C,D11*%
X24500000Y-38000000D03*
%TD*%
D13*
%TO.C,D8*%
X19400000Y-38000000D03*
%TD*%
D14*
%TO.C,D22*%
X22000000Y-38000000D03*
%TD*%
%TO.C,D14*%
X8200000Y-38000000D03*
%TD*%
%TO.C,D6*%
X15900000Y-38000000D03*
%TD*%
%TO.C,J7*%
X17100000Y-25500000D03*
%TD*%
%TO.C,J11*%
X10700000Y-25500000D03*
%TD*%
D13*
%TO.C,J21*%
X14700000Y-25500000D03*
%TD*%
D15*
%TO.C,H1*%
X9250000Y-50750000D03*
%TD*%
D14*
%TO.C,D16*%
X11600000Y-38000000D03*
%TD*%
D13*
%TO.C,J20*%
X16300000Y-25500000D03*
%TD*%
D14*
%TO.C,J3*%
X23500000Y-25500000D03*
%TD*%
D15*
%TO.C,H4*%
X9250000Y-12750000D03*
%TD*%
D14*
%TO.C,J9*%
X13900000Y-25500000D03*
%TD*%
D13*
%TO.C,J15*%
X24300000Y-25500000D03*
%TD*%
D14*
%TO.C,J13*%
X7500000Y-25500000D03*
%TD*%
D13*
%TO.C,J25*%
X8300000Y-25500000D03*
%TD*%
D15*
%TO.C,H3*%
X26250000Y-50750000D03*
%TD*%
D14*
%TO.C,D5*%
X14300000Y-38000000D03*
%TD*%
%TO.C,D9*%
X21100000Y-38000000D03*
%TD*%
%TO.C,D4*%
X12500000Y-38000000D03*
%TD*%
%TO.C,D17*%
X13400000Y-38000000D03*
%TD*%
%TO.C,D7*%
X17700000Y-38000000D03*
%TD*%
%TO.C,D19*%
X16800000Y-38000000D03*
%TD*%
D13*
%TO.C,D3*%
X10800000Y-38000000D03*
%TD*%
D14*
%TO.C,D20*%
X18600000Y-38000000D03*
%TD*%
%TO.C,D21*%
X20200000Y-38000000D03*
%TD*%
%TO.C,D12*%
X26300000Y-38000000D03*
%TD*%
%TO.C,J4*%
X21900000Y-25500000D03*
%TD*%
%TO.C,D2*%
X9100000Y-38000000D03*
%TD*%
%TO.C,J1*%
X26700000Y-25500000D03*
%TD*%
D13*
%TO.C,J16*%
X22700000Y-25500000D03*
%TD*%
%TO.C,J14*%
X25900000Y-25500000D03*
%TD*%
D14*
%TO.C,D10*%
X22900000Y-38000000D03*
%TD*%
D13*
%TO.C,J18*%
X19500000Y-25500000D03*
%TD*%
%TO.C,J23*%
X11500000Y-25500000D03*
%TD*%
%TO.C,J24*%
X9900000Y-25500000D03*
%TD*%
%TO.C,J19*%
X17900000Y-25500000D03*
%TD*%
D14*
%TO.C,D25*%
X27200000Y-38000000D03*
%TD*%
%TO.C,J12*%
X9100000Y-25500000D03*
%TD*%
D13*
%TO.C,D23*%
X23700000Y-38000000D03*
%TD*%
%TO.C,D13*%
X28000000Y-38000000D03*
%TD*%
%TO.C,J22*%
X13100000Y-25500000D03*
%TD*%
D14*
%TO.C,D1*%
X7300000Y-38000000D03*
%TD*%
%TO.C,J8*%
X15500000Y-25500000D03*
%TD*%
%TO.C,J10*%
X12300000Y-25500000D03*
%TD*%
%TO.C,J6*%
X18700000Y-25500000D03*
%TD*%
%TO.C,D24*%
X25400000Y-38000000D03*
%TD*%
D13*
%TO.C,D18*%
X15100000Y-38000000D03*
%TD*%
D14*
%TO.C,D15*%
X10000000Y-38000000D03*
%TD*%
D15*
%TO.C,H2*%
X26250000Y-12750000D03*
%TD*%
D14*
%TO.C,J2*%
X25100000Y-25500000D03*
%TD*%
D16*
%TO.C,J99*%
X25370000Y-5374500D03*
X24100000Y-5374500D03*
X22830000Y-5374500D03*
X21560000Y-5374500D03*
X20290000Y-5374500D03*
X19020000Y-5374500D03*
X17750000Y-5374500D03*
X16480000Y-5374500D03*
X15210000Y-5374500D03*
X13940000Y-5374500D03*
X12670000Y-5374500D03*
X11400000Y-5374500D03*
X10130000Y-5374500D03*
X24735000Y-6474500D03*
X23465000Y-6474500D03*
X22195000Y-6474500D03*
X20925000Y-6474500D03*
X19655000Y-6474500D03*
X18385000Y-6474500D03*
X17115000Y-6474500D03*
X15845000Y-6474500D03*
X14575000Y-6474500D03*
X13305000Y-6474500D03*
X12035000Y-6474500D03*
X10765000Y-6474500D03*
%TD*%
%TO.C,J26*%
X10130000Y-58124500D03*
X11400000Y-58124500D03*
X12670000Y-58124500D03*
X13940000Y-58124500D03*
X15210000Y-58124500D03*
X16480000Y-58124500D03*
X17750000Y-58124500D03*
X19020000Y-58124500D03*
X20290000Y-58124500D03*
X21560000Y-58124500D03*
X22830000Y-58124500D03*
X24100000Y-58124500D03*
X25370000Y-58124500D03*
X10765000Y-57024500D03*
X12035000Y-57024500D03*
X13305000Y-57024500D03*
X14575000Y-57024500D03*
X15845000Y-57024500D03*
X17115000Y-57024500D03*
X18385000Y-57024500D03*
X19655000Y-57024500D03*
X20925000Y-57024500D03*
X22195000Y-57024500D03*
X23465000Y-57024500D03*
X24735000Y-57024500D03*
%TD*%
%LPD*%
M02*
