%TF.GenerationSoftware,KiCad,Pcbnew,7.0.2*%
%TF.CreationDate,2023-11-03T15:57:14-06:00*%
%TF.ProjectId,micro-d-tes-aaray,6d696372-6f2d-4642-9d74-65732d616172,rev?*%
%TF.SameCoordinates,Original*%
%TF.FileFunction,Legend,Top*%
%TF.FilePolarity,Positive*%
%FSLAX46Y46*%
G04 Gerber Fmt 4.6, Leading zero omitted, Abs format (unit mm)*
G04 Created by KiCad (PCBNEW 7.0.2) date 2023-11-03 15:57:14*
%MOMM*%
%LPD*%
G01*
G04 APERTURE LIST*
%ADD10C,0.090000*%
%ADD11C,0.150000*%
%ADD12C,0.153000*%
%ADD13R,0.500000X2.000000*%
%ADD14R,0.258000X2.000000*%
%ADD15C,3.500000*%
%ADD16O,0.920000X0.920000*%
G04 APERTURE END LIST*
D10*
X20700000Y-20000000D02*
X27250000Y-20000000D01*
X7800000Y-20000000D02*
X7800000Y-23550000D01*
X24040000Y-45660000D02*
X24050000Y-40175000D01*
X20700000Y-20000000D02*
X20700000Y-23650000D01*
D11*
X6215000Y-1891000D02*
X29285000Y-1891000D01*
X29285000Y-9958000D01*
X6215000Y-9958000D01*
X6215000Y-1891000D01*
D10*
X11162500Y-45660000D02*
X6637500Y-45660000D01*
D11*
X2150000Y-53150000D02*
X33350000Y-53150000D01*
X33350000Y-62000000D01*
X2150000Y-62000000D01*
X2150000Y-53150000D01*
D10*
X11162500Y-45660000D02*
X11175000Y-40175000D01*
X19750000Y-45665000D02*
X19750000Y-40175000D01*
X15445086Y-45665755D02*
X15450000Y-40175000D01*
D11*
X10700000Y-23500000D02*
X10600000Y-24100000D01*
X9100000Y-23600000D02*
X9000000Y-23900000D01*
X26400000Y-39960000D02*
X26310000Y-40180000D01*
D10*
X20700000Y-20000000D02*
X20700000Y-23550000D01*
X14350000Y-20000000D02*
X14350000Y-23650000D01*
D11*
X6215000Y-53541000D02*
X29285000Y-53541000D01*
X29285000Y-61608000D01*
X6215000Y-61608000D01*
X6215000Y-53541000D01*
X12300000Y-23700000D02*
X12300000Y-24300000D01*
D10*
X28337500Y-45670000D02*
X28350000Y-40075000D01*
X14350000Y-20000000D02*
X14350000Y-23550000D01*
X28337500Y-45670000D02*
X11162500Y-45660000D01*
X14150000Y-20000000D02*
X20700000Y-20000000D01*
X27250000Y-20000000D02*
X27250000Y-23650000D01*
D11*
X2150000Y-1500000D02*
X33350000Y-1500000D01*
X33350000Y-10350000D01*
X2150000Y-10350000D01*
X2150000Y-1500000D01*
D10*
X11175000Y-43825000D02*
X11175000Y-40175000D01*
X6637500Y-45660000D02*
X6650000Y-40175000D01*
D11*
X24680000Y-39940000D02*
X24660000Y-40160000D01*
D10*
X7800000Y-20000000D02*
X14350000Y-20000000D01*
D12*
X13311904Y-20360238D02*
X13216666Y-20312619D01*
X13216666Y-20312619D02*
X13073809Y-20312619D01*
X13073809Y-20312619D02*
X12930952Y-20360238D01*
X12930952Y-20360238D02*
X12835714Y-20455476D01*
X12835714Y-20455476D02*
X12788095Y-20550714D01*
X12788095Y-20550714D02*
X12740476Y-20741190D01*
X12740476Y-20741190D02*
X12740476Y-20884047D01*
X12740476Y-20884047D02*
X12788095Y-21074523D01*
X12788095Y-21074523D02*
X12835714Y-21169761D01*
X12835714Y-21169761D02*
X12930952Y-21265000D01*
X12930952Y-21265000D02*
X13073809Y-21312619D01*
X13073809Y-21312619D02*
X13169047Y-21312619D01*
X13169047Y-21312619D02*
X13311904Y-21265000D01*
X13311904Y-21265000D02*
X13359523Y-21217380D01*
X13359523Y-21217380D02*
X13359523Y-20884047D01*
X13359523Y-20884047D02*
X13169047Y-20884047D01*
X24511904Y-20360238D02*
X24416666Y-20312619D01*
X24416666Y-20312619D02*
X24273809Y-20312619D01*
X24273809Y-20312619D02*
X24130952Y-20360238D01*
X24130952Y-20360238D02*
X24035714Y-20455476D01*
X24035714Y-20455476D02*
X23988095Y-20550714D01*
X23988095Y-20550714D02*
X23940476Y-20741190D01*
X23940476Y-20741190D02*
X23940476Y-20884047D01*
X23940476Y-20884047D02*
X23988095Y-21074523D01*
X23988095Y-21074523D02*
X24035714Y-21169761D01*
X24035714Y-21169761D02*
X24130952Y-21265000D01*
X24130952Y-21265000D02*
X24273809Y-21312619D01*
X24273809Y-21312619D02*
X24369047Y-21312619D01*
X24369047Y-21312619D02*
X24511904Y-21265000D01*
X24511904Y-21265000D02*
X24559523Y-21217380D01*
X24559523Y-21217380D02*
X24559523Y-20884047D01*
X24559523Y-20884047D02*
X24369047Y-20884047D01*
X26161904Y-20360238D02*
X26066666Y-20312619D01*
X26066666Y-20312619D02*
X25923809Y-20312619D01*
X25923809Y-20312619D02*
X25780952Y-20360238D01*
X25780952Y-20360238D02*
X25685714Y-20455476D01*
X25685714Y-20455476D02*
X25638095Y-20550714D01*
X25638095Y-20550714D02*
X25590476Y-20741190D01*
X25590476Y-20741190D02*
X25590476Y-20884047D01*
X25590476Y-20884047D02*
X25638095Y-21074523D01*
X25638095Y-21074523D02*
X25685714Y-21169761D01*
X25685714Y-21169761D02*
X25780952Y-21265000D01*
X25780952Y-21265000D02*
X25923809Y-21312619D01*
X25923809Y-21312619D02*
X26019047Y-21312619D01*
X26019047Y-21312619D02*
X26161904Y-21265000D01*
X26161904Y-21265000D02*
X26209523Y-21217380D01*
X26209523Y-21217380D02*
X26209523Y-20884047D01*
X26209523Y-20884047D02*
X26019047Y-20884047D01*
X19661904Y-20360238D02*
X19566666Y-20312619D01*
X19566666Y-20312619D02*
X19423809Y-20312619D01*
X19423809Y-20312619D02*
X19280952Y-20360238D01*
X19280952Y-20360238D02*
X19185714Y-20455476D01*
X19185714Y-20455476D02*
X19138095Y-20550714D01*
X19138095Y-20550714D02*
X19090476Y-20741190D01*
X19090476Y-20741190D02*
X19090476Y-20884047D01*
X19090476Y-20884047D02*
X19138095Y-21074523D01*
X19138095Y-21074523D02*
X19185714Y-21169761D01*
X19185714Y-21169761D02*
X19280952Y-21265000D01*
X19280952Y-21265000D02*
X19423809Y-21312619D01*
X19423809Y-21312619D02*
X19519047Y-21312619D01*
X19519047Y-21312619D02*
X19661904Y-21265000D01*
X19661904Y-21265000D02*
X19709523Y-21217380D01*
X19709523Y-21217380D02*
X19709523Y-20884047D01*
X19709523Y-20884047D02*
X19519047Y-20884047D01*
X15061904Y-20350238D02*
X14966666Y-20302619D01*
X14966666Y-20302619D02*
X14823809Y-20302619D01*
X14823809Y-20302619D02*
X14680952Y-20350238D01*
X14680952Y-20350238D02*
X14585714Y-20445476D01*
X14585714Y-20445476D02*
X14538095Y-20540714D01*
X14538095Y-20540714D02*
X14490476Y-20731190D01*
X14490476Y-20731190D02*
X14490476Y-20874047D01*
X14490476Y-20874047D02*
X14538095Y-21064523D01*
X14538095Y-21064523D02*
X14585714Y-21159761D01*
X14585714Y-21159761D02*
X14680952Y-21255000D01*
X14680952Y-21255000D02*
X14823809Y-21302619D01*
X14823809Y-21302619D02*
X14919047Y-21302619D01*
X14919047Y-21302619D02*
X15061904Y-21255000D01*
X15061904Y-21255000D02*
X15109523Y-21207380D01*
X15109523Y-21207380D02*
X15109523Y-20874047D01*
X15109523Y-20874047D02*
X14919047Y-20874047D01*
X8531904Y-20360238D02*
X8436666Y-20312619D01*
X8436666Y-20312619D02*
X8293809Y-20312619D01*
X8293809Y-20312619D02*
X8150952Y-20360238D01*
X8150952Y-20360238D02*
X8055714Y-20455476D01*
X8055714Y-20455476D02*
X8008095Y-20550714D01*
X8008095Y-20550714D02*
X7960476Y-20741190D01*
X7960476Y-20741190D02*
X7960476Y-20884047D01*
X7960476Y-20884047D02*
X8008095Y-21074523D01*
X8008095Y-21074523D02*
X8055714Y-21169761D01*
X8055714Y-21169761D02*
X8150952Y-21265000D01*
X8150952Y-21265000D02*
X8293809Y-21312619D01*
X8293809Y-21312619D02*
X8389047Y-21312619D01*
X8389047Y-21312619D02*
X8531904Y-21265000D01*
X8531904Y-21265000D02*
X8579523Y-21217380D01*
X8579523Y-21217380D02*
X8579523Y-20884047D01*
X8579523Y-20884047D02*
X8389047Y-20884047D01*
X10468095Y-43399761D02*
X10563333Y-43447380D01*
X10563333Y-43447380D02*
X10706190Y-43447380D01*
X10706190Y-43447380D02*
X10849047Y-43399761D01*
X10849047Y-43399761D02*
X10944285Y-43304523D01*
X10944285Y-43304523D02*
X10991904Y-43209285D01*
X10991904Y-43209285D02*
X11039523Y-43018809D01*
X11039523Y-43018809D02*
X11039523Y-42875952D01*
X11039523Y-42875952D02*
X10991904Y-42685476D01*
X10991904Y-42685476D02*
X10944285Y-42590238D01*
X10944285Y-42590238D02*
X10849047Y-42495000D01*
X10849047Y-42495000D02*
X10706190Y-42447380D01*
X10706190Y-42447380D02*
X10610952Y-42447380D01*
X10610952Y-42447380D02*
X10468095Y-42495000D01*
X10468095Y-42495000D02*
X10420476Y-42542619D01*
X10420476Y-42542619D02*
X10420476Y-42875952D01*
X10420476Y-42875952D02*
X10610952Y-42875952D01*
X21421904Y-20360238D02*
X21326666Y-20312619D01*
X21326666Y-20312619D02*
X21183809Y-20312619D01*
X21183809Y-20312619D02*
X21040952Y-20360238D01*
X21040952Y-20360238D02*
X20945714Y-20455476D01*
X20945714Y-20455476D02*
X20898095Y-20550714D01*
X20898095Y-20550714D02*
X20850476Y-20741190D01*
X20850476Y-20741190D02*
X20850476Y-20884047D01*
X20850476Y-20884047D02*
X20898095Y-21074523D01*
X20898095Y-21074523D02*
X20945714Y-21169761D01*
X20945714Y-21169761D02*
X21040952Y-21265000D01*
X21040952Y-21265000D02*
X21183809Y-21312619D01*
X21183809Y-21312619D02*
X21279047Y-21312619D01*
X21279047Y-21312619D02*
X21421904Y-21265000D01*
X21421904Y-21265000D02*
X21469523Y-21217380D01*
X21469523Y-21217380D02*
X21469523Y-20884047D01*
X21469523Y-20884047D02*
X21279047Y-20884047D01*
X11711904Y-20360238D02*
X11616666Y-20312619D01*
X11616666Y-20312619D02*
X11473809Y-20312619D01*
X11473809Y-20312619D02*
X11330952Y-20360238D01*
X11330952Y-20360238D02*
X11235714Y-20455476D01*
X11235714Y-20455476D02*
X11188095Y-20550714D01*
X11188095Y-20550714D02*
X11140476Y-20741190D01*
X11140476Y-20741190D02*
X11140476Y-20884047D01*
X11140476Y-20884047D02*
X11188095Y-21074523D01*
X11188095Y-21074523D02*
X11235714Y-21169761D01*
X11235714Y-21169761D02*
X11330952Y-21265000D01*
X11330952Y-21265000D02*
X11473809Y-21312619D01*
X11473809Y-21312619D02*
X11569047Y-21312619D01*
X11569047Y-21312619D02*
X11711904Y-21265000D01*
X11711904Y-21265000D02*
X11759523Y-21217380D01*
X11759523Y-21217380D02*
X11759523Y-20884047D01*
X11759523Y-20884047D02*
X11569047Y-20884047D01*
X18061904Y-20360238D02*
X17966666Y-20312619D01*
X17966666Y-20312619D02*
X17823809Y-20312619D01*
X17823809Y-20312619D02*
X17680952Y-20360238D01*
X17680952Y-20360238D02*
X17585714Y-20455476D01*
X17585714Y-20455476D02*
X17538095Y-20550714D01*
X17538095Y-20550714D02*
X17490476Y-20741190D01*
X17490476Y-20741190D02*
X17490476Y-20884047D01*
X17490476Y-20884047D02*
X17538095Y-21074523D01*
X17538095Y-21074523D02*
X17585714Y-21169761D01*
X17585714Y-21169761D02*
X17680952Y-21265000D01*
X17680952Y-21265000D02*
X17823809Y-21312619D01*
X17823809Y-21312619D02*
X17919047Y-21312619D01*
X17919047Y-21312619D02*
X18061904Y-21265000D01*
X18061904Y-21265000D02*
X18109523Y-21217380D01*
X18109523Y-21217380D02*
X18109523Y-20884047D01*
X18109523Y-20884047D02*
X17919047Y-20884047D01*
X22911904Y-20360238D02*
X22816666Y-20312619D01*
X22816666Y-20312619D02*
X22673809Y-20312619D01*
X22673809Y-20312619D02*
X22530952Y-20360238D01*
X22530952Y-20360238D02*
X22435714Y-20455476D01*
X22435714Y-20455476D02*
X22388095Y-20550714D01*
X22388095Y-20550714D02*
X22340476Y-20741190D01*
X22340476Y-20741190D02*
X22340476Y-20884047D01*
X22340476Y-20884047D02*
X22388095Y-21074523D01*
X22388095Y-21074523D02*
X22435714Y-21169761D01*
X22435714Y-21169761D02*
X22530952Y-21265000D01*
X22530952Y-21265000D02*
X22673809Y-21312619D01*
X22673809Y-21312619D02*
X22769047Y-21312619D01*
X22769047Y-21312619D02*
X22911904Y-21265000D01*
X22911904Y-21265000D02*
X22959523Y-21217380D01*
X22959523Y-21217380D02*
X22959523Y-20884047D01*
X22959523Y-20884047D02*
X22769047Y-20884047D01*
X23338095Y-43464761D02*
X23433333Y-43512380D01*
X23433333Y-43512380D02*
X23576190Y-43512380D01*
X23576190Y-43512380D02*
X23719047Y-43464761D01*
X23719047Y-43464761D02*
X23814285Y-43369523D01*
X23814285Y-43369523D02*
X23861904Y-43274285D01*
X23861904Y-43274285D02*
X23909523Y-43083809D01*
X23909523Y-43083809D02*
X23909523Y-42940952D01*
X23909523Y-42940952D02*
X23861904Y-42750476D01*
X23861904Y-42750476D02*
X23814285Y-42655238D01*
X23814285Y-42655238D02*
X23719047Y-42560000D01*
X23719047Y-42560000D02*
X23576190Y-42512380D01*
X23576190Y-42512380D02*
X23480952Y-42512380D01*
X23480952Y-42512380D02*
X23338095Y-42560000D01*
X23338095Y-42560000D02*
X23290476Y-42607619D01*
X23290476Y-42607619D02*
X23290476Y-42940952D01*
X23290476Y-42940952D02*
X23480952Y-42940952D01*
X10061904Y-20360238D02*
X9966666Y-20312619D01*
X9966666Y-20312619D02*
X9823809Y-20312619D01*
X9823809Y-20312619D02*
X9680952Y-20360238D01*
X9680952Y-20360238D02*
X9585714Y-20455476D01*
X9585714Y-20455476D02*
X9538095Y-20550714D01*
X9538095Y-20550714D02*
X9490476Y-20741190D01*
X9490476Y-20741190D02*
X9490476Y-20884047D01*
X9490476Y-20884047D02*
X9538095Y-21074523D01*
X9538095Y-21074523D02*
X9585714Y-21169761D01*
X9585714Y-21169761D02*
X9680952Y-21265000D01*
X9680952Y-21265000D02*
X9823809Y-21312619D01*
X9823809Y-21312619D02*
X9919047Y-21312619D01*
X9919047Y-21312619D02*
X10061904Y-21265000D01*
X10061904Y-21265000D02*
X10109523Y-21217380D01*
X10109523Y-21217380D02*
X10109523Y-20884047D01*
X10109523Y-20884047D02*
X9919047Y-20884047D01*
X19038095Y-43464761D02*
X19133333Y-43512380D01*
X19133333Y-43512380D02*
X19276190Y-43512380D01*
X19276190Y-43512380D02*
X19419047Y-43464761D01*
X19419047Y-43464761D02*
X19514285Y-43369523D01*
X19514285Y-43369523D02*
X19561904Y-43274285D01*
X19561904Y-43274285D02*
X19609523Y-43083809D01*
X19609523Y-43083809D02*
X19609523Y-42940952D01*
X19609523Y-42940952D02*
X19561904Y-42750476D01*
X19561904Y-42750476D02*
X19514285Y-42655238D01*
X19514285Y-42655238D02*
X19419047Y-42560000D01*
X19419047Y-42560000D02*
X19276190Y-42512380D01*
X19276190Y-42512380D02*
X19180952Y-42512380D01*
X19180952Y-42512380D02*
X19038095Y-42560000D01*
X19038095Y-42560000D02*
X18990476Y-42607619D01*
X18990476Y-42607619D02*
X18990476Y-42940952D01*
X18990476Y-42940952D02*
X19180952Y-42940952D01*
X27638095Y-43464761D02*
X27733333Y-43512380D01*
X27733333Y-43512380D02*
X27876190Y-43512380D01*
X27876190Y-43512380D02*
X28019047Y-43464761D01*
X28019047Y-43464761D02*
X28114285Y-43369523D01*
X28114285Y-43369523D02*
X28161904Y-43274285D01*
X28161904Y-43274285D02*
X28209523Y-43083809D01*
X28209523Y-43083809D02*
X28209523Y-42940952D01*
X28209523Y-42940952D02*
X28161904Y-42750476D01*
X28161904Y-42750476D02*
X28114285Y-42655238D01*
X28114285Y-42655238D02*
X28019047Y-42560000D01*
X28019047Y-42560000D02*
X27876190Y-42512380D01*
X27876190Y-42512380D02*
X27780952Y-42512380D01*
X27780952Y-42512380D02*
X27638095Y-42560000D01*
X27638095Y-42560000D02*
X27590476Y-42607619D01*
X27590476Y-42607619D02*
X27590476Y-42940952D01*
X27590476Y-42940952D02*
X27780952Y-42940952D01*
X16511904Y-20360238D02*
X16416666Y-20312619D01*
X16416666Y-20312619D02*
X16273809Y-20312619D01*
X16273809Y-20312619D02*
X16130952Y-20360238D01*
X16130952Y-20360238D02*
X16035714Y-20455476D01*
X16035714Y-20455476D02*
X15988095Y-20550714D01*
X15988095Y-20550714D02*
X15940476Y-20741190D01*
X15940476Y-20741190D02*
X15940476Y-20884047D01*
X15940476Y-20884047D02*
X15988095Y-21074523D01*
X15988095Y-21074523D02*
X16035714Y-21169761D01*
X16035714Y-21169761D02*
X16130952Y-21265000D01*
X16130952Y-21265000D02*
X16273809Y-21312619D01*
X16273809Y-21312619D02*
X16369047Y-21312619D01*
X16369047Y-21312619D02*
X16511904Y-21265000D01*
X16511904Y-21265000D02*
X16559523Y-21217380D01*
X16559523Y-21217380D02*
X16559523Y-20884047D01*
X16559523Y-20884047D02*
X16369047Y-20884047D01*
X14688095Y-43364761D02*
X14783333Y-43412380D01*
X14783333Y-43412380D02*
X14926190Y-43412380D01*
X14926190Y-43412380D02*
X15069047Y-43364761D01*
X15069047Y-43364761D02*
X15164285Y-43269523D01*
X15164285Y-43269523D02*
X15211904Y-43174285D01*
X15211904Y-43174285D02*
X15259523Y-42983809D01*
X15259523Y-42983809D02*
X15259523Y-42840952D01*
X15259523Y-42840952D02*
X15211904Y-42650476D01*
X15211904Y-42650476D02*
X15164285Y-42555238D01*
X15164285Y-42555238D02*
X15069047Y-42460000D01*
X15069047Y-42460000D02*
X14926190Y-42412380D01*
X14926190Y-42412380D02*
X14830952Y-42412380D01*
X14830952Y-42412380D02*
X14688095Y-42460000D01*
X14688095Y-42460000D02*
X14640476Y-42507619D01*
X14640476Y-42507619D02*
X14640476Y-42840952D01*
X14640476Y-42840952D02*
X14830952Y-42840952D01*
D11*
%TO.C,17*%
X21562619Y-19315476D02*
X21562619Y-19886904D01*
X21562619Y-19601190D02*
X20562619Y-19601190D01*
X20562619Y-19601190D02*
X20705476Y-19696428D01*
X20705476Y-19696428D02*
X20800714Y-19791666D01*
X20800714Y-19791666D02*
X20848333Y-19886904D01*
X20562619Y-18982142D02*
X20562619Y-18315476D01*
X20562619Y-18315476D02*
X21562619Y-18744047D01*
%TO.C,5*%
X20568095Y-23762619D02*
X20091905Y-23762619D01*
X20091905Y-23762619D02*
X20044286Y-24238809D01*
X20044286Y-24238809D02*
X20091905Y-24191190D01*
X20091905Y-24191190D02*
X20187143Y-24143571D01*
X20187143Y-24143571D02*
X20425238Y-24143571D01*
X20425238Y-24143571D02*
X20520476Y-24191190D01*
X20520476Y-24191190D02*
X20568095Y-24238809D01*
X20568095Y-24238809D02*
X20615714Y-24334047D01*
X20615714Y-24334047D02*
X20615714Y-24572142D01*
X20615714Y-24572142D02*
X20568095Y-24667380D01*
X20568095Y-24667380D02*
X20520476Y-24715000D01*
X20520476Y-24715000D02*
X20425238Y-24762619D01*
X20425238Y-24762619D02*
X20187143Y-24762619D01*
X20187143Y-24762619D02*
X20091905Y-24715000D01*
X20091905Y-24715000D02*
X20044286Y-24667380D01*
%TO.C,11*%
X24559523Y-39812619D02*
X23988095Y-39812619D01*
X24273809Y-39812619D02*
X24273809Y-38812619D01*
X24273809Y-38812619D02*
X24178571Y-38955476D01*
X24178571Y-38955476D02*
X24083333Y-39050714D01*
X24083333Y-39050714D02*
X23988095Y-39098333D01*
X25511904Y-39812619D02*
X24940476Y-39812619D01*
X25226190Y-39812619D02*
X25226190Y-38812619D01*
X25226190Y-38812619D02*
X25130952Y-38955476D01*
X25130952Y-38955476D02*
X25035714Y-39050714D01*
X25035714Y-39050714D02*
X24940476Y-39098333D01*
%TO.C,8*%
X19324762Y-39251190D02*
X19229524Y-39203571D01*
X19229524Y-39203571D02*
X19181905Y-39155952D01*
X19181905Y-39155952D02*
X19134286Y-39060714D01*
X19134286Y-39060714D02*
X19134286Y-39013095D01*
X19134286Y-39013095D02*
X19181905Y-38917857D01*
X19181905Y-38917857D02*
X19229524Y-38870238D01*
X19229524Y-38870238D02*
X19324762Y-38822619D01*
X19324762Y-38822619D02*
X19515238Y-38822619D01*
X19515238Y-38822619D02*
X19610476Y-38870238D01*
X19610476Y-38870238D02*
X19658095Y-38917857D01*
X19658095Y-38917857D02*
X19705714Y-39013095D01*
X19705714Y-39013095D02*
X19705714Y-39060714D01*
X19705714Y-39060714D02*
X19658095Y-39155952D01*
X19658095Y-39155952D02*
X19610476Y-39203571D01*
X19610476Y-39203571D02*
X19515238Y-39251190D01*
X19515238Y-39251190D02*
X19324762Y-39251190D01*
X19324762Y-39251190D02*
X19229524Y-39298809D01*
X19229524Y-39298809D02*
X19181905Y-39346428D01*
X19181905Y-39346428D02*
X19134286Y-39441666D01*
X19134286Y-39441666D02*
X19134286Y-39632142D01*
X19134286Y-39632142D02*
X19181905Y-39727380D01*
X19181905Y-39727380D02*
X19229524Y-39775000D01*
X19229524Y-39775000D02*
X19324762Y-39822619D01*
X19324762Y-39822619D02*
X19515238Y-39822619D01*
X19515238Y-39822619D02*
X19610476Y-39775000D01*
X19610476Y-39775000D02*
X19658095Y-39727380D01*
X19658095Y-39727380D02*
X19705714Y-39632142D01*
X19705714Y-39632142D02*
X19705714Y-39441666D01*
X19705714Y-39441666D02*
X19658095Y-39346428D01*
X19658095Y-39346428D02*
X19610476Y-39298809D01*
X19610476Y-39298809D02*
X19515238Y-39251190D01*
%TO.C,22*%
X21537857Y-44141904D02*
X21490238Y-44094285D01*
X21490238Y-44094285D02*
X21442619Y-43999047D01*
X21442619Y-43999047D02*
X21442619Y-43760952D01*
X21442619Y-43760952D02*
X21490238Y-43665714D01*
X21490238Y-43665714D02*
X21537857Y-43618095D01*
X21537857Y-43618095D02*
X21633095Y-43570476D01*
X21633095Y-43570476D02*
X21728333Y-43570476D01*
X21728333Y-43570476D02*
X21871190Y-43618095D01*
X21871190Y-43618095D02*
X22442619Y-44189523D01*
X22442619Y-44189523D02*
X22442619Y-43570476D01*
X21537857Y-43189523D02*
X21490238Y-43141904D01*
X21490238Y-43141904D02*
X21442619Y-43046666D01*
X21442619Y-43046666D02*
X21442619Y-42808571D01*
X21442619Y-42808571D02*
X21490238Y-42713333D01*
X21490238Y-42713333D02*
X21537857Y-42665714D01*
X21537857Y-42665714D02*
X21633095Y-42618095D01*
X21633095Y-42618095D02*
X21728333Y-42618095D01*
X21728333Y-42618095D02*
X21871190Y-42665714D01*
X21871190Y-42665714D02*
X22442619Y-43237142D01*
X22442619Y-43237142D02*
X22442619Y-42618095D01*
%TO.C,14*%
X8412619Y-43310476D02*
X8412619Y-43881904D01*
X8412619Y-43596190D02*
X7412619Y-43596190D01*
X7412619Y-43596190D02*
X7555476Y-43691428D01*
X7555476Y-43691428D02*
X7650714Y-43786666D01*
X7650714Y-43786666D02*
X7698333Y-43881904D01*
X7745952Y-42453333D02*
X8412619Y-42453333D01*
X7365000Y-42691428D02*
X8079285Y-42929523D01*
X8079285Y-42929523D02*
X8079285Y-42310476D01*
%TO.C,6*%
X16070476Y-38822619D02*
X15880000Y-38822619D01*
X15880000Y-38822619D02*
X15784762Y-38870238D01*
X15784762Y-38870238D02*
X15737143Y-38917857D01*
X15737143Y-38917857D02*
X15641905Y-39060714D01*
X15641905Y-39060714D02*
X15594286Y-39251190D01*
X15594286Y-39251190D02*
X15594286Y-39632142D01*
X15594286Y-39632142D02*
X15641905Y-39727380D01*
X15641905Y-39727380D02*
X15689524Y-39775000D01*
X15689524Y-39775000D02*
X15784762Y-39822619D01*
X15784762Y-39822619D02*
X15975238Y-39822619D01*
X15975238Y-39822619D02*
X16070476Y-39775000D01*
X16070476Y-39775000D02*
X16118095Y-39727380D01*
X16118095Y-39727380D02*
X16165714Y-39632142D01*
X16165714Y-39632142D02*
X16165714Y-39394047D01*
X16165714Y-39394047D02*
X16118095Y-39298809D01*
X16118095Y-39298809D02*
X16070476Y-39251190D01*
X16070476Y-39251190D02*
X15975238Y-39203571D01*
X15975238Y-39203571D02*
X15784762Y-39203571D01*
X15784762Y-39203571D02*
X15689524Y-39251190D01*
X15689524Y-39251190D02*
X15641905Y-39298809D01*
X15641905Y-39298809D02*
X15594286Y-39394047D01*
%TO.C,7*%
X16796667Y-23762619D02*
X17463333Y-23762619D01*
X17463333Y-23762619D02*
X17034762Y-24762619D01*
%TO.C,11*%
X10409523Y-24762619D02*
X9838095Y-24762619D01*
X10123809Y-24762619D02*
X10123809Y-23762619D01*
X10123809Y-23762619D02*
X10028571Y-23905476D01*
X10028571Y-23905476D02*
X9933333Y-24000714D01*
X9933333Y-24000714D02*
X9838095Y-24048333D01*
X11361904Y-24762619D02*
X10790476Y-24762619D01*
X11076190Y-24762619D02*
X11076190Y-23762619D01*
X11076190Y-23762619D02*
X10980952Y-23905476D01*
X10980952Y-23905476D02*
X10885714Y-24000714D01*
X10885714Y-24000714D02*
X10790476Y-24048333D01*
%TO.C,21*%
X14337857Y-19741904D02*
X14290238Y-19694285D01*
X14290238Y-19694285D02*
X14242619Y-19599047D01*
X14242619Y-19599047D02*
X14242619Y-19360952D01*
X14242619Y-19360952D02*
X14290238Y-19265714D01*
X14290238Y-19265714D02*
X14337857Y-19218095D01*
X14337857Y-19218095D02*
X14433095Y-19170476D01*
X14433095Y-19170476D02*
X14528333Y-19170476D01*
X14528333Y-19170476D02*
X14671190Y-19218095D01*
X14671190Y-19218095D02*
X15242619Y-19789523D01*
X15242619Y-19789523D02*
X15242619Y-19170476D01*
X15242619Y-18218095D02*
X15242619Y-18789523D01*
X15242619Y-18503809D02*
X14242619Y-18503809D01*
X14242619Y-18503809D02*
X14385476Y-18599047D01*
X14385476Y-18599047D02*
X14480714Y-18694285D01*
X14480714Y-18694285D02*
X14528333Y-18789523D01*
%TO.C,H1*%
X8488095Y-47412619D02*
X8488095Y-46412619D01*
X8488095Y-46888809D02*
X9059523Y-46888809D01*
X9059523Y-47412619D02*
X9059523Y-46412619D01*
X10059523Y-47412619D02*
X9488095Y-47412619D01*
X9773809Y-47412619D02*
X9773809Y-46412619D01*
X9773809Y-46412619D02*
X9678571Y-46555476D01*
X9678571Y-46555476D02*
X9583333Y-46650714D01*
X9583333Y-46650714D02*
X9488095Y-46698333D01*
%TO.C,16*%
X12342619Y-43400476D02*
X12342619Y-43971904D01*
X12342619Y-43686190D02*
X11342619Y-43686190D01*
X11342619Y-43686190D02*
X11485476Y-43781428D01*
X11485476Y-43781428D02*
X11580714Y-43876666D01*
X11580714Y-43876666D02*
X11628333Y-43971904D01*
X11342619Y-42543333D02*
X11342619Y-42733809D01*
X11342619Y-42733809D02*
X11390238Y-42829047D01*
X11390238Y-42829047D02*
X11437857Y-42876666D01*
X11437857Y-42876666D02*
X11580714Y-42971904D01*
X11580714Y-42971904D02*
X11771190Y-43019523D01*
X11771190Y-43019523D02*
X12152142Y-43019523D01*
X12152142Y-43019523D02*
X12247380Y-42971904D01*
X12247380Y-42971904D02*
X12295000Y-42924285D01*
X12295000Y-42924285D02*
X12342619Y-42829047D01*
X12342619Y-42829047D02*
X12342619Y-42638571D01*
X12342619Y-42638571D02*
X12295000Y-42543333D01*
X12295000Y-42543333D02*
X12247380Y-42495714D01*
X12247380Y-42495714D02*
X12152142Y-42448095D01*
X12152142Y-42448095D02*
X11914047Y-42448095D01*
X11914047Y-42448095D02*
X11818809Y-42495714D01*
X11818809Y-42495714D02*
X11771190Y-42543333D01*
X11771190Y-42543333D02*
X11723571Y-42638571D01*
X11723571Y-42638571D02*
X11723571Y-42829047D01*
X11723571Y-42829047D02*
X11771190Y-42924285D01*
X11771190Y-42924285D02*
X11818809Y-42971904D01*
X11818809Y-42971904D02*
X11914047Y-43019523D01*
%TO.C,20*%
X15877857Y-19771904D02*
X15830238Y-19724285D01*
X15830238Y-19724285D02*
X15782619Y-19629047D01*
X15782619Y-19629047D02*
X15782619Y-19390952D01*
X15782619Y-19390952D02*
X15830238Y-19295714D01*
X15830238Y-19295714D02*
X15877857Y-19248095D01*
X15877857Y-19248095D02*
X15973095Y-19200476D01*
X15973095Y-19200476D02*
X16068333Y-19200476D01*
X16068333Y-19200476D02*
X16211190Y-19248095D01*
X16211190Y-19248095D02*
X16782619Y-19819523D01*
X16782619Y-19819523D02*
X16782619Y-19200476D01*
X15782619Y-18581428D02*
X15782619Y-18486190D01*
X15782619Y-18486190D02*
X15830238Y-18390952D01*
X15830238Y-18390952D02*
X15877857Y-18343333D01*
X15877857Y-18343333D02*
X15973095Y-18295714D01*
X15973095Y-18295714D02*
X16163571Y-18248095D01*
X16163571Y-18248095D02*
X16401666Y-18248095D01*
X16401666Y-18248095D02*
X16592142Y-18295714D01*
X16592142Y-18295714D02*
X16687380Y-18343333D01*
X16687380Y-18343333D02*
X16735000Y-18390952D01*
X16735000Y-18390952D02*
X16782619Y-18486190D01*
X16782619Y-18486190D02*
X16782619Y-18581428D01*
X16782619Y-18581428D02*
X16735000Y-18676666D01*
X16735000Y-18676666D02*
X16687380Y-18724285D01*
X16687380Y-18724285D02*
X16592142Y-18771904D01*
X16592142Y-18771904D02*
X16401666Y-18819523D01*
X16401666Y-18819523D02*
X16163571Y-18819523D01*
X16163571Y-18819523D02*
X15973095Y-18771904D01*
X15973095Y-18771904D02*
X15877857Y-18724285D01*
X15877857Y-18724285D02*
X15830238Y-18676666D01*
X15830238Y-18676666D02*
X15782619Y-18581428D01*
%TO.C,3*%
X23196667Y-23762619D02*
X23815714Y-23762619D01*
X23815714Y-23762619D02*
X23482381Y-24143571D01*
X23482381Y-24143571D02*
X23625238Y-24143571D01*
X23625238Y-24143571D02*
X23720476Y-24191190D01*
X23720476Y-24191190D02*
X23768095Y-24238809D01*
X23768095Y-24238809D02*
X23815714Y-24334047D01*
X23815714Y-24334047D02*
X23815714Y-24572142D01*
X23815714Y-24572142D02*
X23768095Y-24667380D01*
X23768095Y-24667380D02*
X23720476Y-24715000D01*
X23720476Y-24715000D02*
X23625238Y-24762619D01*
X23625238Y-24762619D02*
X23339524Y-24762619D01*
X23339524Y-24762619D02*
X23244286Y-24715000D01*
X23244286Y-24715000D02*
X23196667Y-24667380D01*
%TO.C,H4*%
X8488095Y-9412619D02*
X8488095Y-8412619D01*
X8488095Y-8888809D02*
X9059523Y-8888809D01*
X9059523Y-9412619D02*
X9059523Y-8412619D01*
X9964285Y-8745952D02*
X9964285Y-9412619D01*
X9726190Y-8365000D02*
X9488095Y-9079285D01*
X9488095Y-9079285D02*
X10107142Y-9079285D01*
%TO.C,9*%
X13669524Y-24762619D02*
X13860000Y-24762619D01*
X13860000Y-24762619D02*
X13955238Y-24715000D01*
X13955238Y-24715000D02*
X14002857Y-24667380D01*
X14002857Y-24667380D02*
X14098095Y-24524523D01*
X14098095Y-24524523D02*
X14145714Y-24334047D01*
X14145714Y-24334047D02*
X14145714Y-23953095D01*
X14145714Y-23953095D02*
X14098095Y-23857857D01*
X14098095Y-23857857D02*
X14050476Y-23810238D01*
X14050476Y-23810238D02*
X13955238Y-23762619D01*
X13955238Y-23762619D02*
X13764762Y-23762619D01*
X13764762Y-23762619D02*
X13669524Y-23810238D01*
X13669524Y-23810238D02*
X13621905Y-23857857D01*
X13621905Y-23857857D02*
X13574286Y-23953095D01*
X13574286Y-23953095D02*
X13574286Y-24191190D01*
X13574286Y-24191190D02*
X13621905Y-24286428D01*
X13621905Y-24286428D02*
X13669524Y-24334047D01*
X13669524Y-24334047D02*
X13764762Y-24381666D01*
X13764762Y-24381666D02*
X13955238Y-24381666D01*
X13955238Y-24381666D02*
X14050476Y-24334047D01*
X14050476Y-24334047D02*
X14098095Y-24286428D01*
X14098095Y-24286428D02*
X14145714Y-24191190D01*
%TO.C,15*%
X24792619Y-19240476D02*
X24792619Y-19811904D01*
X24792619Y-19526190D02*
X23792619Y-19526190D01*
X23792619Y-19526190D02*
X23935476Y-19621428D01*
X23935476Y-19621428D02*
X24030714Y-19716666D01*
X24030714Y-19716666D02*
X24078333Y-19811904D01*
X23792619Y-18335714D02*
X23792619Y-18811904D01*
X23792619Y-18811904D02*
X24268809Y-18859523D01*
X24268809Y-18859523D02*
X24221190Y-18811904D01*
X24221190Y-18811904D02*
X24173571Y-18716666D01*
X24173571Y-18716666D02*
X24173571Y-18478571D01*
X24173571Y-18478571D02*
X24221190Y-18383333D01*
X24221190Y-18383333D02*
X24268809Y-18335714D01*
X24268809Y-18335714D02*
X24364047Y-18288095D01*
X24364047Y-18288095D02*
X24602142Y-18288095D01*
X24602142Y-18288095D02*
X24697380Y-18335714D01*
X24697380Y-18335714D02*
X24745000Y-18383333D01*
X24745000Y-18383333D02*
X24792619Y-18478571D01*
X24792619Y-18478571D02*
X24792619Y-18716666D01*
X24792619Y-18716666D02*
X24745000Y-18811904D01*
X24745000Y-18811904D02*
X24697380Y-18859523D01*
%TO.C,12*%
X7462619Y-20790476D02*
X7462619Y-21361904D01*
X7462619Y-21076190D02*
X6462619Y-21076190D01*
X6462619Y-21076190D02*
X6605476Y-21171428D01*
X6605476Y-21171428D02*
X6700714Y-21266666D01*
X6700714Y-21266666D02*
X6748333Y-21361904D01*
X6557857Y-20409523D02*
X6510238Y-20361904D01*
X6510238Y-20361904D02*
X6462619Y-20266666D01*
X6462619Y-20266666D02*
X6462619Y-20028571D01*
X6462619Y-20028571D02*
X6510238Y-19933333D01*
X6510238Y-19933333D02*
X6557857Y-19885714D01*
X6557857Y-19885714D02*
X6653095Y-19838095D01*
X6653095Y-19838095D02*
X6748333Y-19838095D01*
X6748333Y-19838095D02*
X6891190Y-19885714D01*
X6891190Y-19885714D02*
X7462619Y-20457142D01*
X7462619Y-20457142D02*
X7462619Y-19838095D01*
%TO.C,25*%
X7857857Y-19661904D02*
X7810238Y-19614285D01*
X7810238Y-19614285D02*
X7762619Y-19519047D01*
X7762619Y-19519047D02*
X7762619Y-19280952D01*
X7762619Y-19280952D02*
X7810238Y-19185714D01*
X7810238Y-19185714D02*
X7857857Y-19138095D01*
X7857857Y-19138095D02*
X7953095Y-19090476D01*
X7953095Y-19090476D02*
X8048333Y-19090476D01*
X8048333Y-19090476D02*
X8191190Y-19138095D01*
X8191190Y-19138095D02*
X8762619Y-19709523D01*
X8762619Y-19709523D02*
X8762619Y-19090476D01*
X7762619Y-18185714D02*
X7762619Y-18661904D01*
X7762619Y-18661904D02*
X8238809Y-18709523D01*
X8238809Y-18709523D02*
X8191190Y-18661904D01*
X8191190Y-18661904D02*
X8143571Y-18566666D01*
X8143571Y-18566666D02*
X8143571Y-18328571D01*
X8143571Y-18328571D02*
X8191190Y-18233333D01*
X8191190Y-18233333D02*
X8238809Y-18185714D01*
X8238809Y-18185714D02*
X8334047Y-18138095D01*
X8334047Y-18138095D02*
X8572142Y-18138095D01*
X8572142Y-18138095D02*
X8667380Y-18185714D01*
X8667380Y-18185714D02*
X8715000Y-18233333D01*
X8715000Y-18233333D02*
X8762619Y-18328571D01*
X8762619Y-18328571D02*
X8762619Y-18566666D01*
X8762619Y-18566666D02*
X8715000Y-18661904D01*
X8715000Y-18661904D02*
X8667380Y-18709523D01*
%TO.C,H3*%
X25488095Y-47412619D02*
X25488095Y-46412619D01*
X25488095Y-46888809D02*
X26059523Y-46888809D01*
X26059523Y-47412619D02*
X26059523Y-46412619D01*
X26440476Y-46412619D02*
X27059523Y-46412619D01*
X27059523Y-46412619D02*
X26726190Y-46793571D01*
X26726190Y-46793571D02*
X26869047Y-46793571D01*
X26869047Y-46793571D02*
X26964285Y-46841190D01*
X26964285Y-46841190D02*
X27011904Y-46888809D01*
X27011904Y-46888809D02*
X27059523Y-46984047D01*
X27059523Y-46984047D02*
X27059523Y-47222142D01*
X27059523Y-47222142D02*
X27011904Y-47317380D01*
X27011904Y-47317380D02*
X26964285Y-47365000D01*
X26964285Y-47365000D02*
X26869047Y-47412619D01*
X26869047Y-47412619D02*
X26583333Y-47412619D01*
X26583333Y-47412619D02*
X26488095Y-47365000D01*
X26488095Y-47365000D02*
X26440476Y-47317380D01*
%TO.C,5*%
X14528095Y-38822619D02*
X14051905Y-38822619D01*
X14051905Y-38822619D02*
X14004286Y-39298809D01*
X14004286Y-39298809D02*
X14051905Y-39251190D01*
X14051905Y-39251190D02*
X14147143Y-39203571D01*
X14147143Y-39203571D02*
X14385238Y-39203571D01*
X14385238Y-39203571D02*
X14480476Y-39251190D01*
X14480476Y-39251190D02*
X14528095Y-39298809D01*
X14528095Y-39298809D02*
X14575714Y-39394047D01*
X14575714Y-39394047D02*
X14575714Y-39632142D01*
X14575714Y-39632142D02*
X14528095Y-39727380D01*
X14528095Y-39727380D02*
X14480476Y-39775000D01*
X14480476Y-39775000D02*
X14385238Y-39822619D01*
X14385238Y-39822619D02*
X14147143Y-39822619D01*
X14147143Y-39822619D02*
X14051905Y-39775000D01*
X14051905Y-39775000D02*
X14004286Y-39727380D01*
%TO.C,9*%
X20919524Y-39822619D02*
X21110000Y-39822619D01*
X21110000Y-39822619D02*
X21205238Y-39775000D01*
X21205238Y-39775000D02*
X21252857Y-39727380D01*
X21252857Y-39727380D02*
X21348095Y-39584523D01*
X21348095Y-39584523D02*
X21395714Y-39394047D01*
X21395714Y-39394047D02*
X21395714Y-39013095D01*
X21395714Y-39013095D02*
X21348095Y-38917857D01*
X21348095Y-38917857D02*
X21300476Y-38870238D01*
X21300476Y-38870238D02*
X21205238Y-38822619D01*
X21205238Y-38822619D02*
X21014762Y-38822619D01*
X21014762Y-38822619D02*
X20919524Y-38870238D01*
X20919524Y-38870238D02*
X20871905Y-38917857D01*
X20871905Y-38917857D02*
X20824286Y-39013095D01*
X20824286Y-39013095D02*
X20824286Y-39251190D01*
X20824286Y-39251190D02*
X20871905Y-39346428D01*
X20871905Y-39346428D02*
X20919524Y-39394047D01*
X20919524Y-39394047D02*
X21014762Y-39441666D01*
X21014762Y-39441666D02*
X21205238Y-39441666D01*
X21205238Y-39441666D02*
X21300476Y-39394047D01*
X21300476Y-39394047D02*
X21348095Y-39346428D01*
X21348095Y-39346428D02*
X21395714Y-39251190D01*
%TO.C,4*%
X12570476Y-39155952D02*
X12570476Y-39822619D01*
X12332381Y-38775000D02*
X12094286Y-39489285D01*
X12094286Y-39489285D02*
X12713333Y-39489285D01*
%TO.C,17*%
X14002619Y-43320476D02*
X14002619Y-43891904D01*
X14002619Y-43606190D02*
X13002619Y-43606190D01*
X13002619Y-43606190D02*
X13145476Y-43701428D01*
X13145476Y-43701428D02*
X13240714Y-43796666D01*
X13240714Y-43796666D02*
X13288333Y-43891904D01*
X13002619Y-42987142D02*
X13002619Y-42320476D01*
X13002619Y-42320476D02*
X14002619Y-42749047D01*
%TO.C,7*%
X17356667Y-38822619D02*
X18023333Y-38822619D01*
X18023333Y-38822619D02*
X17594762Y-39822619D01*
%TO.C,19*%
X17292619Y-43400476D02*
X17292619Y-43971904D01*
X17292619Y-43686190D02*
X16292619Y-43686190D01*
X16292619Y-43686190D02*
X16435476Y-43781428D01*
X16435476Y-43781428D02*
X16530714Y-43876666D01*
X16530714Y-43876666D02*
X16578333Y-43971904D01*
X17292619Y-42924285D02*
X17292619Y-42733809D01*
X17292619Y-42733809D02*
X17245000Y-42638571D01*
X17245000Y-42638571D02*
X17197380Y-42590952D01*
X17197380Y-42590952D02*
X17054523Y-42495714D01*
X17054523Y-42495714D02*
X16864047Y-42448095D01*
X16864047Y-42448095D02*
X16483095Y-42448095D01*
X16483095Y-42448095D02*
X16387857Y-42495714D01*
X16387857Y-42495714D02*
X16340238Y-42543333D01*
X16340238Y-42543333D02*
X16292619Y-42638571D01*
X16292619Y-42638571D02*
X16292619Y-42829047D01*
X16292619Y-42829047D02*
X16340238Y-42924285D01*
X16340238Y-42924285D02*
X16387857Y-42971904D01*
X16387857Y-42971904D02*
X16483095Y-43019523D01*
X16483095Y-43019523D02*
X16721190Y-43019523D01*
X16721190Y-43019523D02*
X16816428Y-42971904D01*
X16816428Y-42971904D02*
X16864047Y-42924285D01*
X16864047Y-42924285D02*
X16911666Y-42829047D01*
X16911666Y-42829047D02*
X16911666Y-42638571D01*
X16911666Y-42638571D02*
X16864047Y-42543333D01*
X16864047Y-42543333D02*
X16816428Y-42495714D01*
X16816428Y-42495714D02*
X16721190Y-42448095D01*
%TO.C,3*%
X10456667Y-38822619D02*
X11075714Y-38822619D01*
X11075714Y-38822619D02*
X10742381Y-39203571D01*
X10742381Y-39203571D02*
X10885238Y-39203571D01*
X10885238Y-39203571D02*
X10980476Y-39251190D01*
X10980476Y-39251190D02*
X11028095Y-39298809D01*
X11028095Y-39298809D02*
X11075714Y-39394047D01*
X11075714Y-39394047D02*
X11075714Y-39632142D01*
X11075714Y-39632142D02*
X11028095Y-39727380D01*
X11028095Y-39727380D02*
X10980476Y-39775000D01*
X10980476Y-39775000D02*
X10885238Y-39822619D01*
X10885238Y-39822619D02*
X10599524Y-39822619D01*
X10599524Y-39822619D02*
X10504286Y-39775000D01*
X10504286Y-39775000D02*
X10456667Y-39727380D01*
%TO.C,20*%
X18287857Y-44041904D02*
X18240238Y-43994285D01*
X18240238Y-43994285D02*
X18192619Y-43899047D01*
X18192619Y-43899047D02*
X18192619Y-43660952D01*
X18192619Y-43660952D02*
X18240238Y-43565714D01*
X18240238Y-43565714D02*
X18287857Y-43518095D01*
X18287857Y-43518095D02*
X18383095Y-43470476D01*
X18383095Y-43470476D02*
X18478333Y-43470476D01*
X18478333Y-43470476D02*
X18621190Y-43518095D01*
X18621190Y-43518095D02*
X19192619Y-44089523D01*
X19192619Y-44089523D02*
X19192619Y-43470476D01*
X18192619Y-42851428D02*
X18192619Y-42756190D01*
X18192619Y-42756190D02*
X18240238Y-42660952D01*
X18240238Y-42660952D02*
X18287857Y-42613333D01*
X18287857Y-42613333D02*
X18383095Y-42565714D01*
X18383095Y-42565714D02*
X18573571Y-42518095D01*
X18573571Y-42518095D02*
X18811666Y-42518095D01*
X18811666Y-42518095D02*
X19002142Y-42565714D01*
X19002142Y-42565714D02*
X19097380Y-42613333D01*
X19097380Y-42613333D02*
X19145000Y-42660952D01*
X19145000Y-42660952D02*
X19192619Y-42756190D01*
X19192619Y-42756190D02*
X19192619Y-42851428D01*
X19192619Y-42851428D02*
X19145000Y-42946666D01*
X19145000Y-42946666D02*
X19097380Y-42994285D01*
X19097380Y-42994285D02*
X19002142Y-43041904D01*
X19002142Y-43041904D02*
X18811666Y-43089523D01*
X18811666Y-43089523D02*
X18573571Y-43089523D01*
X18573571Y-43089523D02*
X18383095Y-43041904D01*
X18383095Y-43041904D02*
X18287857Y-42994285D01*
X18287857Y-42994285D02*
X18240238Y-42946666D01*
X18240238Y-42946666D02*
X18192619Y-42851428D01*
%TO.C,21*%
X19787857Y-44001904D02*
X19740238Y-43954285D01*
X19740238Y-43954285D02*
X19692619Y-43859047D01*
X19692619Y-43859047D02*
X19692619Y-43620952D01*
X19692619Y-43620952D02*
X19740238Y-43525714D01*
X19740238Y-43525714D02*
X19787857Y-43478095D01*
X19787857Y-43478095D02*
X19883095Y-43430476D01*
X19883095Y-43430476D02*
X19978333Y-43430476D01*
X19978333Y-43430476D02*
X20121190Y-43478095D01*
X20121190Y-43478095D02*
X20692619Y-44049523D01*
X20692619Y-44049523D02*
X20692619Y-43430476D01*
X20692619Y-42478095D02*
X20692619Y-43049523D01*
X20692619Y-42763809D02*
X19692619Y-42763809D01*
X19692619Y-42763809D02*
X19835476Y-42859047D01*
X19835476Y-42859047D02*
X19930714Y-42954285D01*
X19930714Y-42954285D02*
X19978333Y-43049523D01*
%TO.C,12*%
X26279523Y-39842619D02*
X25708095Y-39842619D01*
X25993809Y-39842619D02*
X25993809Y-38842619D01*
X25993809Y-38842619D02*
X25898571Y-38985476D01*
X25898571Y-38985476D02*
X25803333Y-39080714D01*
X25803333Y-39080714D02*
X25708095Y-39128333D01*
X26660476Y-38937857D02*
X26708095Y-38890238D01*
X26708095Y-38890238D02*
X26803333Y-38842619D01*
X26803333Y-38842619D02*
X27041428Y-38842619D01*
X27041428Y-38842619D02*
X27136666Y-38890238D01*
X27136666Y-38890238D02*
X27184285Y-38937857D01*
X27184285Y-38937857D02*
X27231904Y-39033095D01*
X27231904Y-39033095D02*
X27231904Y-39128333D01*
X27231904Y-39128333D02*
X27184285Y-39271190D01*
X27184285Y-39271190D02*
X26612857Y-39842619D01*
X26612857Y-39842619D02*
X27231904Y-39842619D01*
%TO.C,4*%
X22070476Y-24095952D02*
X22070476Y-24762619D01*
X21832381Y-23715000D02*
X21594286Y-24429285D01*
X21594286Y-24429285D02*
X22213333Y-24429285D01*
%TO.C,2*%
X8844286Y-38917857D02*
X8891905Y-38870238D01*
X8891905Y-38870238D02*
X8987143Y-38822619D01*
X8987143Y-38822619D02*
X9225238Y-38822619D01*
X9225238Y-38822619D02*
X9320476Y-38870238D01*
X9320476Y-38870238D02*
X9368095Y-38917857D01*
X9368095Y-38917857D02*
X9415714Y-39013095D01*
X9415714Y-39013095D02*
X9415714Y-39108333D01*
X9415714Y-39108333D02*
X9368095Y-39251190D01*
X9368095Y-39251190D02*
X8796667Y-39822619D01*
X8796667Y-39822619D02*
X9415714Y-39822619D01*
%TO.C,1*%
X27085714Y-24762619D02*
X26514286Y-24762619D01*
X26800000Y-24762619D02*
X26800000Y-23762619D01*
X26800000Y-23762619D02*
X26704762Y-23905476D01*
X26704762Y-23905476D02*
X26609524Y-24000714D01*
X26609524Y-24000714D02*
X26514286Y-24048333D01*
%TO.C,16*%
X23162619Y-19265476D02*
X23162619Y-19836904D01*
X23162619Y-19551190D02*
X22162619Y-19551190D01*
X22162619Y-19551190D02*
X22305476Y-19646428D01*
X22305476Y-19646428D02*
X22400714Y-19741666D01*
X22400714Y-19741666D02*
X22448333Y-19836904D01*
X22162619Y-18408333D02*
X22162619Y-18598809D01*
X22162619Y-18598809D02*
X22210238Y-18694047D01*
X22210238Y-18694047D02*
X22257857Y-18741666D01*
X22257857Y-18741666D02*
X22400714Y-18836904D01*
X22400714Y-18836904D02*
X22591190Y-18884523D01*
X22591190Y-18884523D02*
X22972142Y-18884523D01*
X22972142Y-18884523D02*
X23067380Y-18836904D01*
X23067380Y-18836904D02*
X23115000Y-18789285D01*
X23115000Y-18789285D02*
X23162619Y-18694047D01*
X23162619Y-18694047D02*
X23162619Y-18503571D01*
X23162619Y-18503571D02*
X23115000Y-18408333D01*
X23115000Y-18408333D02*
X23067380Y-18360714D01*
X23067380Y-18360714D02*
X22972142Y-18313095D01*
X22972142Y-18313095D02*
X22734047Y-18313095D01*
X22734047Y-18313095D02*
X22638809Y-18360714D01*
X22638809Y-18360714D02*
X22591190Y-18408333D01*
X22591190Y-18408333D02*
X22543571Y-18503571D01*
X22543571Y-18503571D02*
X22543571Y-18694047D01*
X22543571Y-18694047D02*
X22591190Y-18789285D01*
X22591190Y-18789285D02*
X22638809Y-18836904D01*
X22638809Y-18836904D02*
X22734047Y-18884523D01*
%TO.C,14*%
X26342619Y-19220476D02*
X26342619Y-19791904D01*
X26342619Y-19506190D02*
X25342619Y-19506190D01*
X25342619Y-19506190D02*
X25485476Y-19601428D01*
X25485476Y-19601428D02*
X25580714Y-19696666D01*
X25580714Y-19696666D02*
X25628333Y-19791904D01*
X25675952Y-18363333D02*
X26342619Y-18363333D01*
X25295000Y-18601428D02*
X26009285Y-18839523D01*
X26009285Y-18839523D02*
X26009285Y-18220476D01*
%TO.C,10*%
X22599523Y-39822619D02*
X22028095Y-39822619D01*
X22313809Y-39822619D02*
X22313809Y-38822619D01*
X22313809Y-38822619D02*
X22218571Y-38965476D01*
X22218571Y-38965476D02*
X22123333Y-39060714D01*
X22123333Y-39060714D02*
X22028095Y-39108333D01*
X23218571Y-38822619D02*
X23313809Y-38822619D01*
X23313809Y-38822619D02*
X23409047Y-38870238D01*
X23409047Y-38870238D02*
X23456666Y-38917857D01*
X23456666Y-38917857D02*
X23504285Y-39013095D01*
X23504285Y-39013095D02*
X23551904Y-39203571D01*
X23551904Y-39203571D02*
X23551904Y-39441666D01*
X23551904Y-39441666D02*
X23504285Y-39632142D01*
X23504285Y-39632142D02*
X23456666Y-39727380D01*
X23456666Y-39727380D02*
X23409047Y-39775000D01*
X23409047Y-39775000D02*
X23313809Y-39822619D01*
X23313809Y-39822619D02*
X23218571Y-39822619D01*
X23218571Y-39822619D02*
X23123333Y-39775000D01*
X23123333Y-39775000D02*
X23075714Y-39727380D01*
X23075714Y-39727380D02*
X23028095Y-39632142D01*
X23028095Y-39632142D02*
X22980476Y-39441666D01*
X22980476Y-39441666D02*
X22980476Y-39203571D01*
X22980476Y-39203571D02*
X23028095Y-39013095D01*
X23028095Y-39013095D02*
X23075714Y-38917857D01*
X23075714Y-38917857D02*
X23123333Y-38870238D01*
X23123333Y-38870238D02*
X23218571Y-38822619D01*
%TO.C,18*%
X19962619Y-19310476D02*
X19962619Y-19881904D01*
X19962619Y-19596190D02*
X18962619Y-19596190D01*
X18962619Y-19596190D02*
X19105476Y-19691428D01*
X19105476Y-19691428D02*
X19200714Y-19786666D01*
X19200714Y-19786666D02*
X19248333Y-19881904D01*
X19391190Y-18739047D02*
X19343571Y-18834285D01*
X19343571Y-18834285D02*
X19295952Y-18881904D01*
X19295952Y-18881904D02*
X19200714Y-18929523D01*
X19200714Y-18929523D02*
X19153095Y-18929523D01*
X19153095Y-18929523D02*
X19057857Y-18881904D01*
X19057857Y-18881904D02*
X19010238Y-18834285D01*
X19010238Y-18834285D02*
X18962619Y-18739047D01*
X18962619Y-18739047D02*
X18962619Y-18548571D01*
X18962619Y-18548571D02*
X19010238Y-18453333D01*
X19010238Y-18453333D02*
X19057857Y-18405714D01*
X19057857Y-18405714D02*
X19153095Y-18358095D01*
X19153095Y-18358095D02*
X19200714Y-18358095D01*
X19200714Y-18358095D02*
X19295952Y-18405714D01*
X19295952Y-18405714D02*
X19343571Y-18453333D01*
X19343571Y-18453333D02*
X19391190Y-18548571D01*
X19391190Y-18548571D02*
X19391190Y-18739047D01*
X19391190Y-18739047D02*
X19438809Y-18834285D01*
X19438809Y-18834285D02*
X19486428Y-18881904D01*
X19486428Y-18881904D02*
X19581666Y-18929523D01*
X19581666Y-18929523D02*
X19772142Y-18929523D01*
X19772142Y-18929523D02*
X19867380Y-18881904D01*
X19867380Y-18881904D02*
X19915000Y-18834285D01*
X19915000Y-18834285D02*
X19962619Y-18739047D01*
X19962619Y-18739047D02*
X19962619Y-18548571D01*
X19962619Y-18548571D02*
X19915000Y-18453333D01*
X19915000Y-18453333D02*
X19867380Y-18405714D01*
X19867380Y-18405714D02*
X19772142Y-18358095D01*
X19772142Y-18358095D02*
X19581666Y-18358095D01*
X19581666Y-18358095D02*
X19486428Y-18405714D01*
X19486428Y-18405714D02*
X19438809Y-18453333D01*
X19438809Y-18453333D02*
X19391190Y-18548571D01*
%TO.C,23*%
X11087857Y-19721904D02*
X11040238Y-19674285D01*
X11040238Y-19674285D02*
X10992619Y-19579047D01*
X10992619Y-19579047D02*
X10992619Y-19340952D01*
X10992619Y-19340952D02*
X11040238Y-19245714D01*
X11040238Y-19245714D02*
X11087857Y-19198095D01*
X11087857Y-19198095D02*
X11183095Y-19150476D01*
X11183095Y-19150476D02*
X11278333Y-19150476D01*
X11278333Y-19150476D02*
X11421190Y-19198095D01*
X11421190Y-19198095D02*
X11992619Y-19769523D01*
X11992619Y-19769523D02*
X11992619Y-19150476D01*
X10992619Y-18817142D02*
X10992619Y-18198095D01*
X10992619Y-18198095D02*
X11373571Y-18531428D01*
X11373571Y-18531428D02*
X11373571Y-18388571D01*
X11373571Y-18388571D02*
X11421190Y-18293333D01*
X11421190Y-18293333D02*
X11468809Y-18245714D01*
X11468809Y-18245714D02*
X11564047Y-18198095D01*
X11564047Y-18198095D02*
X11802142Y-18198095D01*
X11802142Y-18198095D02*
X11897380Y-18245714D01*
X11897380Y-18245714D02*
X11945000Y-18293333D01*
X11945000Y-18293333D02*
X11992619Y-18388571D01*
X11992619Y-18388571D02*
X11992619Y-18674285D01*
X11992619Y-18674285D02*
X11945000Y-18769523D01*
X11945000Y-18769523D02*
X11897380Y-18817142D01*
%TO.C,24*%
X9457857Y-19661904D02*
X9410238Y-19614285D01*
X9410238Y-19614285D02*
X9362619Y-19519047D01*
X9362619Y-19519047D02*
X9362619Y-19280952D01*
X9362619Y-19280952D02*
X9410238Y-19185714D01*
X9410238Y-19185714D02*
X9457857Y-19138095D01*
X9457857Y-19138095D02*
X9553095Y-19090476D01*
X9553095Y-19090476D02*
X9648333Y-19090476D01*
X9648333Y-19090476D02*
X9791190Y-19138095D01*
X9791190Y-19138095D02*
X10362619Y-19709523D01*
X10362619Y-19709523D02*
X10362619Y-19090476D01*
X9695952Y-18233333D02*
X10362619Y-18233333D01*
X9315000Y-18471428D02*
X10029285Y-18709523D01*
X10029285Y-18709523D02*
X10029285Y-18090476D01*
%TO.C,19*%
X18372619Y-19220476D02*
X18372619Y-19791904D01*
X18372619Y-19506190D02*
X17372619Y-19506190D01*
X17372619Y-19506190D02*
X17515476Y-19601428D01*
X17515476Y-19601428D02*
X17610714Y-19696666D01*
X17610714Y-19696666D02*
X17658333Y-19791904D01*
X18372619Y-18744285D02*
X18372619Y-18553809D01*
X18372619Y-18553809D02*
X18325000Y-18458571D01*
X18325000Y-18458571D02*
X18277380Y-18410952D01*
X18277380Y-18410952D02*
X18134523Y-18315714D01*
X18134523Y-18315714D02*
X17944047Y-18268095D01*
X17944047Y-18268095D02*
X17563095Y-18268095D01*
X17563095Y-18268095D02*
X17467857Y-18315714D01*
X17467857Y-18315714D02*
X17420238Y-18363333D01*
X17420238Y-18363333D02*
X17372619Y-18458571D01*
X17372619Y-18458571D02*
X17372619Y-18649047D01*
X17372619Y-18649047D02*
X17420238Y-18744285D01*
X17420238Y-18744285D02*
X17467857Y-18791904D01*
X17467857Y-18791904D02*
X17563095Y-18839523D01*
X17563095Y-18839523D02*
X17801190Y-18839523D01*
X17801190Y-18839523D02*
X17896428Y-18791904D01*
X17896428Y-18791904D02*
X17944047Y-18744285D01*
X17944047Y-18744285D02*
X17991666Y-18649047D01*
X17991666Y-18649047D02*
X17991666Y-18458571D01*
X17991666Y-18458571D02*
X17944047Y-18363333D01*
X17944047Y-18363333D02*
X17896428Y-18315714D01*
X17896428Y-18315714D02*
X17801190Y-18268095D01*
%TO.C,25*%
X26757857Y-44195904D02*
X26710238Y-44148285D01*
X26710238Y-44148285D02*
X26662619Y-44053047D01*
X26662619Y-44053047D02*
X26662619Y-43814952D01*
X26662619Y-43814952D02*
X26710238Y-43719714D01*
X26710238Y-43719714D02*
X26757857Y-43672095D01*
X26757857Y-43672095D02*
X26853095Y-43624476D01*
X26853095Y-43624476D02*
X26948333Y-43624476D01*
X26948333Y-43624476D02*
X27091190Y-43672095D01*
X27091190Y-43672095D02*
X27662619Y-44243523D01*
X27662619Y-44243523D02*
X27662619Y-43624476D01*
X26662619Y-42719714D02*
X26662619Y-43195904D01*
X26662619Y-43195904D02*
X27138809Y-43243523D01*
X27138809Y-43243523D02*
X27091190Y-43195904D01*
X27091190Y-43195904D02*
X27043571Y-43100666D01*
X27043571Y-43100666D02*
X27043571Y-42862571D01*
X27043571Y-42862571D02*
X27091190Y-42767333D01*
X27091190Y-42767333D02*
X27138809Y-42719714D01*
X27138809Y-42719714D02*
X27234047Y-42672095D01*
X27234047Y-42672095D02*
X27472142Y-42672095D01*
X27472142Y-42672095D02*
X27567380Y-42719714D01*
X27567380Y-42719714D02*
X27615000Y-42767333D01*
X27615000Y-42767333D02*
X27662619Y-42862571D01*
X27662619Y-42862571D02*
X27662619Y-43100666D01*
X27662619Y-43100666D02*
X27615000Y-43195904D01*
X27615000Y-43195904D02*
X27567380Y-43243523D01*
%TO.C,12*%
X8009523Y-24962619D02*
X7438095Y-24962619D01*
X7723809Y-24962619D02*
X7723809Y-23962619D01*
X7723809Y-23962619D02*
X7628571Y-24105476D01*
X7628571Y-24105476D02*
X7533333Y-24200714D01*
X7533333Y-24200714D02*
X7438095Y-24248333D01*
X8390476Y-24057857D02*
X8438095Y-24010238D01*
X8438095Y-24010238D02*
X8533333Y-23962619D01*
X8533333Y-23962619D02*
X8771428Y-23962619D01*
X8771428Y-23962619D02*
X8866666Y-24010238D01*
X8866666Y-24010238D02*
X8914285Y-24057857D01*
X8914285Y-24057857D02*
X8961904Y-24153095D01*
X8961904Y-24153095D02*
X8961904Y-24248333D01*
X8961904Y-24248333D02*
X8914285Y-24391190D01*
X8914285Y-24391190D02*
X8342857Y-24962619D01*
X8342857Y-24962619D02*
X8961904Y-24962619D01*
%TO.C,23*%
X23179857Y-45465904D02*
X23132238Y-45418285D01*
X23132238Y-45418285D02*
X23084619Y-45323047D01*
X23084619Y-45323047D02*
X23084619Y-45084952D01*
X23084619Y-45084952D02*
X23132238Y-44989714D01*
X23132238Y-44989714D02*
X23179857Y-44942095D01*
X23179857Y-44942095D02*
X23275095Y-44894476D01*
X23275095Y-44894476D02*
X23370333Y-44894476D01*
X23370333Y-44894476D02*
X23513190Y-44942095D01*
X23513190Y-44942095D02*
X24084619Y-45513523D01*
X24084619Y-45513523D02*
X24084619Y-44894476D01*
X23084619Y-44561142D02*
X23084619Y-43942095D01*
X23084619Y-43942095D02*
X23465571Y-44275428D01*
X23465571Y-44275428D02*
X23465571Y-44132571D01*
X23465571Y-44132571D02*
X23513190Y-44037333D01*
X23513190Y-44037333D02*
X23560809Y-43989714D01*
X23560809Y-43989714D02*
X23656047Y-43942095D01*
X23656047Y-43942095D02*
X23894142Y-43942095D01*
X23894142Y-43942095D02*
X23989380Y-43989714D01*
X23989380Y-43989714D02*
X24037000Y-44037333D01*
X24037000Y-44037333D02*
X24084619Y-44132571D01*
X24084619Y-44132571D02*
X24084619Y-44418285D01*
X24084619Y-44418285D02*
X24037000Y-44513523D01*
X24037000Y-44513523D02*
X23989380Y-44561142D01*
%TO.C,D13*%
X33362619Y-46815475D02*
X32362619Y-46815475D01*
X32362619Y-46815475D02*
X32362619Y-46577380D01*
X32362619Y-46577380D02*
X32410238Y-46434523D01*
X32410238Y-46434523D02*
X32505476Y-46339285D01*
X32505476Y-46339285D02*
X32600714Y-46291666D01*
X32600714Y-46291666D02*
X32791190Y-46244047D01*
X32791190Y-46244047D02*
X32934047Y-46244047D01*
X32934047Y-46244047D02*
X33124523Y-46291666D01*
X33124523Y-46291666D02*
X33219761Y-46339285D01*
X33219761Y-46339285D02*
X33315000Y-46434523D01*
X33315000Y-46434523D02*
X33362619Y-46577380D01*
X33362619Y-46577380D02*
X33362619Y-46815475D01*
X33362619Y-45291666D02*
X33362619Y-45863094D01*
X33362619Y-45577380D02*
X32362619Y-45577380D01*
X32362619Y-45577380D02*
X32505476Y-45672618D01*
X32505476Y-45672618D02*
X32600714Y-45767856D01*
X32600714Y-45767856D02*
X32648333Y-45863094D01*
X32362619Y-44958332D02*
X32362619Y-44339285D01*
X32362619Y-44339285D02*
X32743571Y-44672618D01*
X32743571Y-44672618D02*
X32743571Y-44529761D01*
X32743571Y-44529761D02*
X32791190Y-44434523D01*
X32791190Y-44434523D02*
X32838809Y-44386904D01*
X32838809Y-44386904D02*
X32934047Y-44339285D01*
X32934047Y-44339285D02*
X33172142Y-44339285D01*
X33172142Y-44339285D02*
X33267380Y-44386904D01*
X33267380Y-44386904D02*
X33315000Y-44434523D01*
X33315000Y-44434523D02*
X33362619Y-44529761D01*
X33362619Y-44529761D02*
X33362619Y-44815475D01*
X33362619Y-44815475D02*
X33315000Y-44910713D01*
X33315000Y-44910713D02*
X33267380Y-44958332D01*
%TO.C,22*%
X12677857Y-19711904D02*
X12630238Y-19664285D01*
X12630238Y-19664285D02*
X12582619Y-19569047D01*
X12582619Y-19569047D02*
X12582619Y-19330952D01*
X12582619Y-19330952D02*
X12630238Y-19235714D01*
X12630238Y-19235714D02*
X12677857Y-19188095D01*
X12677857Y-19188095D02*
X12773095Y-19140476D01*
X12773095Y-19140476D02*
X12868333Y-19140476D01*
X12868333Y-19140476D02*
X13011190Y-19188095D01*
X13011190Y-19188095D02*
X13582619Y-19759523D01*
X13582619Y-19759523D02*
X13582619Y-19140476D01*
X12677857Y-18759523D02*
X12630238Y-18711904D01*
X12630238Y-18711904D02*
X12582619Y-18616666D01*
X12582619Y-18616666D02*
X12582619Y-18378571D01*
X12582619Y-18378571D02*
X12630238Y-18283333D01*
X12630238Y-18283333D02*
X12677857Y-18235714D01*
X12677857Y-18235714D02*
X12773095Y-18188095D01*
X12773095Y-18188095D02*
X12868333Y-18188095D01*
X12868333Y-18188095D02*
X13011190Y-18235714D01*
X13011190Y-18235714D02*
X13582619Y-18807142D01*
X13582619Y-18807142D02*
X13582619Y-18188095D01*
%TO.C,1*%
X7485714Y-39822619D02*
X6914286Y-39822619D01*
X7200000Y-39822619D02*
X7200000Y-38822619D01*
X7200000Y-38822619D02*
X7104762Y-38965476D01*
X7104762Y-38965476D02*
X7009524Y-39060714D01*
X7009524Y-39060714D02*
X6914286Y-39108333D01*
%TO.C,8*%
X15404762Y-24191190D02*
X15309524Y-24143571D01*
X15309524Y-24143571D02*
X15261905Y-24095952D01*
X15261905Y-24095952D02*
X15214286Y-24000714D01*
X15214286Y-24000714D02*
X15214286Y-23953095D01*
X15214286Y-23953095D02*
X15261905Y-23857857D01*
X15261905Y-23857857D02*
X15309524Y-23810238D01*
X15309524Y-23810238D02*
X15404762Y-23762619D01*
X15404762Y-23762619D02*
X15595238Y-23762619D01*
X15595238Y-23762619D02*
X15690476Y-23810238D01*
X15690476Y-23810238D02*
X15738095Y-23857857D01*
X15738095Y-23857857D02*
X15785714Y-23953095D01*
X15785714Y-23953095D02*
X15785714Y-24000714D01*
X15785714Y-24000714D02*
X15738095Y-24095952D01*
X15738095Y-24095952D02*
X15690476Y-24143571D01*
X15690476Y-24143571D02*
X15595238Y-24191190D01*
X15595238Y-24191190D02*
X15404762Y-24191190D01*
X15404762Y-24191190D02*
X15309524Y-24238809D01*
X15309524Y-24238809D02*
X15261905Y-24286428D01*
X15261905Y-24286428D02*
X15214286Y-24381666D01*
X15214286Y-24381666D02*
X15214286Y-24572142D01*
X15214286Y-24572142D02*
X15261905Y-24667380D01*
X15261905Y-24667380D02*
X15309524Y-24715000D01*
X15309524Y-24715000D02*
X15404762Y-24762619D01*
X15404762Y-24762619D02*
X15595238Y-24762619D01*
X15595238Y-24762619D02*
X15690476Y-24715000D01*
X15690476Y-24715000D02*
X15738095Y-24667380D01*
X15738095Y-24667380D02*
X15785714Y-24572142D01*
X15785714Y-24572142D02*
X15785714Y-24381666D01*
X15785714Y-24381666D02*
X15738095Y-24286428D01*
X15738095Y-24286428D02*
X15690476Y-24238809D01*
X15690476Y-24238809D02*
X15595238Y-24191190D01*
%TO.C,10*%
X12099523Y-24762619D02*
X11528095Y-24762619D01*
X11813809Y-24762619D02*
X11813809Y-23762619D01*
X11813809Y-23762619D02*
X11718571Y-23905476D01*
X11718571Y-23905476D02*
X11623333Y-24000714D01*
X11623333Y-24000714D02*
X11528095Y-24048333D01*
X12718571Y-23762619D02*
X12813809Y-23762619D01*
X12813809Y-23762619D02*
X12909047Y-23810238D01*
X12909047Y-23810238D02*
X12956666Y-23857857D01*
X12956666Y-23857857D02*
X13004285Y-23953095D01*
X13004285Y-23953095D02*
X13051904Y-24143571D01*
X13051904Y-24143571D02*
X13051904Y-24381666D01*
X13051904Y-24381666D02*
X13004285Y-24572142D01*
X13004285Y-24572142D02*
X12956666Y-24667380D01*
X12956666Y-24667380D02*
X12909047Y-24715000D01*
X12909047Y-24715000D02*
X12813809Y-24762619D01*
X12813809Y-24762619D02*
X12718571Y-24762619D01*
X12718571Y-24762619D02*
X12623333Y-24715000D01*
X12623333Y-24715000D02*
X12575714Y-24667380D01*
X12575714Y-24667380D02*
X12528095Y-24572142D01*
X12528095Y-24572142D02*
X12480476Y-24381666D01*
X12480476Y-24381666D02*
X12480476Y-24143571D01*
X12480476Y-24143571D02*
X12528095Y-23953095D01*
X12528095Y-23953095D02*
X12575714Y-23857857D01*
X12575714Y-23857857D02*
X12623333Y-23810238D01*
X12623333Y-23810238D02*
X12718571Y-23762619D01*
%TO.C,6*%
X18870476Y-23762619D02*
X18680000Y-23762619D01*
X18680000Y-23762619D02*
X18584762Y-23810238D01*
X18584762Y-23810238D02*
X18537143Y-23857857D01*
X18537143Y-23857857D02*
X18441905Y-24000714D01*
X18441905Y-24000714D02*
X18394286Y-24191190D01*
X18394286Y-24191190D02*
X18394286Y-24572142D01*
X18394286Y-24572142D02*
X18441905Y-24667380D01*
X18441905Y-24667380D02*
X18489524Y-24715000D01*
X18489524Y-24715000D02*
X18584762Y-24762619D01*
X18584762Y-24762619D02*
X18775238Y-24762619D01*
X18775238Y-24762619D02*
X18870476Y-24715000D01*
X18870476Y-24715000D02*
X18918095Y-24667380D01*
X18918095Y-24667380D02*
X18965714Y-24572142D01*
X18965714Y-24572142D02*
X18965714Y-24334047D01*
X18965714Y-24334047D02*
X18918095Y-24238809D01*
X18918095Y-24238809D02*
X18870476Y-24191190D01*
X18870476Y-24191190D02*
X18775238Y-24143571D01*
X18775238Y-24143571D02*
X18584762Y-24143571D01*
X18584762Y-24143571D02*
X18489524Y-24191190D01*
X18489524Y-24191190D02*
X18441905Y-24238809D01*
X18441905Y-24238809D02*
X18394286Y-24334047D01*
%TO.C,24*%
X24927857Y-44181904D02*
X24880238Y-44134285D01*
X24880238Y-44134285D02*
X24832619Y-44039047D01*
X24832619Y-44039047D02*
X24832619Y-43800952D01*
X24832619Y-43800952D02*
X24880238Y-43705714D01*
X24880238Y-43705714D02*
X24927857Y-43658095D01*
X24927857Y-43658095D02*
X25023095Y-43610476D01*
X25023095Y-43610476D02*
X25118333Y-43610476D01*
X25118333Y-43610476D02*
X25261190Y-43658095D01*
X25261190Y-43658095D02*
X25832619Y-44229523D01*
X25832619Y-44229523D02*
X25832619Y-43610476D01*
X25165952Y-42753333D02*
X25832619Y-42753333D01*
X24785000Y-42991428D02*
X25499285Y-43229523D01*
X25499285Y-43229523D02*
X25499285Y-42610476D01*
%TO.C,18*%
X15352619Y-44960476D02*
X15352619Y-45531904D01*
X15352619Y-45246190D02*
X14352619Y-45246190D01*
X14352619Y-45246190D02*
X14495476Y-45341428D01*
X14495476Y-45341428D02*
X14590714Y-45436666D01*
X14590714Y-45436666D02*
X14638333Y-45531904D01*
X14781190Y-44389047D02*
X14733571Y-44484285D01*
X14733571Y-44484285D02*
X14685952Y-44531904D01*
X14685952Y-44531904D02*
X14590714Y-44579523D01*
X14590714Y-44579523D02*
X14543095Y-44579523D01*
X14543095Y-44579523D02*
X14447857Y-44531904D01*
X14447857Y-44531904D02*
X14400238Y-44484285D01*
X14400238Y-44484285D02*
X14352619Y-44389047D01*
X14352619Y-44389047D02*
X14352619Y-44198571D01*
X14352619Y-44198571D02*
X14400238Y-44103333D01*
X14400238Y-44103333D02*
X14447857Y-44055714D01*
X14447857Y-44055714D02*
X14543095Y-44008095D01*
X14543095Y-44008095D02*
X14590714Y-44008095D01*
X14590714Y-44008095D02*
X14685952Y-44055714D01*
X14685952Y-44055714D02*
X14733571Y-44103333D01*
X14733571Y-44103333D02*
X14781190Y-44198571D01*
X14781190Y-44198571D02*
X14781190Y-44389047D01*
X14781190Y-44389047D02*
X14828809Y-44484285D01*
X14828809Y-44484285D02*
X14876428Y-44531904D01*
X14876428Y-44531904D02*
X14971666Y-44579523D01*
X14971666Y-44579523D02*
X15162142Y-44579523D01*
X15162142Y-44579523D02*
X15257380Y-44531904D01*
X15257380Y-44531904D02*
X15305000Y-44484285D01*
X15305000Y-44484285D02*
X15352619Y-44389047D01*
X15352619Y-44389047D02*
X15352619Y-44198571D01*
X15352619Y-44198571D02*
X15305000Y-44103333D01*
X15305000Y-44103333D02*
X15257380Y-44055714D01*
X15257380Y-44055714D02*
X15162142Y-44008095D01*
X15162142Y-44008095D02*
X14971666Y-44008095D01*
X14971666Y-44008095D02*
X14876428Y-44055714D01*
X14876428Y-44055714D02*
X14828809Y-44103333D01*
X14828809Y-44103333D02*
X14781190Y-44198571D01*
%TO.C,15*%
X10082619Y-43340476D02*
X10082619Y-43911904D01*
X10082619Y-43626190D02*
X9082619Y-43626190D01*
X9082619Y-43626190D02*
X9225476Y-43721428D01*
X9225476Y-43721428D02*
X9320714Y-43816666D01*
X9320714Y-43816666D02*
X9368333Y-43911904D01*
X9082619Y-42435714D02*
X9082619Y-42911904D01*
X9082619Y-42911904D02*
X9558809Y-42959523D01*
X9558809Y-42959523D02*
X9511190Y-42911904D01*
X9511190Y-42911904D02*
X9463571Y-42816666D01*
X9463571Y-42816666D02*
X9463571Y-42578571D01*
X9463571Y-42578571D02*
X9511190Y-42483333D01*
X9511190Y-42483333D02*
X9558809Y-42435714D01*
X9558809Y-42435714D02*
X9654047Y-42388095D01*
X9654047Y-42388095D02*
X9892142Y-42388095D01*
X9892142Y-42388095D02*
X9987380Y-42435714D01*
X9987380Y-42435714D02*
X10035000Y-42483333D01*
X10035000Y-42483333D02*
X10082619Y-42578571D01*
X10082619Y-42578571D02*
X10082619Y-42816666D01*
X10082619Y-42816666D02*
X10035000Y-42911904D01*
X10035000Y-42911904D02*
X9987380Y-42959523D01*
%TO.C,H2*%
X25488095Y-9412619D02*
X25488095Y-8412619D01*
X25488095Y-8888809D02*
X26059523Y-8888809D01*
X26059523Y-9412619D02*
X26059523Y-8412619D01*
X26488095Y-8507857D02*
X26535714Y-8460238D01*
X26535714Y-8460238D02*
X26630952Y-8412619D01*
X26630952Y-8412619D02*
X26869047Y-8412619D01*
X26869047Y-8412619D02*
X26964285Y-8460238D01*
X26964285Y-8460238D02*
X27011904Y-8507857D01*
X27011904Y-8507857D02*
X27059523Y-8603095D01*
X27059523Y-8603095D02*
X27059523Y-8698333D01*
X27059523Y-8698333D02*
X27011904Y-8841190D01*
X27011904Y-8841190D02*
X26440476Y-9412619D01*
X26440476Y-9412619D02*
X27059523Y-9412619D01*
%TO.C,2*%
X24864286Y-23857857D02*
X24911905Y-23810238D01*
X24911905Y-23810238D02*
X25007143Y-23762619D01*
X25007143Y-23762619D02*
X25245238Y-23762619D01*
X25245238Y-23762619D02*
X25340476Y-23810238D01*
X25340476Y-23810238D02*
X25388095Y-23857857D01*
X25388095Y-23857857D02*
X25435714Y-23953095D01*
X25435714Y-23953095D02*
X25435714Y-24048333D01*
X25435714Y-24048333D02*
X25388095Y-24191190D01*
X25388095Y-24191190D02*
X24816667Y-24762619D01*
X24816667Y-24762619D02*
X25435714Y-24762619D01*
%TO.C,J99*%
X26830000Y-7434500D02*
X8670000Y-7434500D01*
X26830000Y-5414500D02*
X26830000Y-7434500D01*
X25830000Y-4414500D02*
X26830000Y-5414500D01*
X8670000Y-7434500D02*
X8670000Y-4414500D01*
X8670000Y-4414500D02*
X25830000Y-4414500D01*
%TO.C,J26*%
X8670000Y-56064500D02*
X26830000Y-56064500D01*
X8670000Y-58084500D02*
X8670000Y-56064500D01*
X9670000Y-59084500D02*
X8670000Y-58084500D01*
X26830000Y-56064500D02*
X26830000Y-59084500D01*
X26830000Y-59084500D02*
X9670000Y-59084500D01*
%TD*%
%LPC*%
D13*
%TO.C,17*%
X21100000Y-22550000D03*
%TD*%
D14*
%TO.C,5*%
X20300000Y-22550000D03*
%TD*%
%TO.C,11*%
X24500000Y-41175000D03*
%TD*%
D13*
%TO.C,8*%
X19400000Y-41175000D03*
%TD*%
D14*
%TO.C,22*%
X22000000Y-41175000D03*
%TD*%
%TO.C,14*%
X8200000Y-41175000D03*
%TD*%
%TO.C,6*%
X15900000Y-41175000D03*
%TD*%
%TO.C,7*%
X17100000Y-22550000D03*
%TD*%
%TO.C,11*%
X10700000Y-22550000D03*
%TD*%
D13*
%TO.C,21*%
X14700000Y-22550000D03*
%TD*%
D15*
%TO.C,H1*%
X9250000Y-50750000D03*
%TD*%
D14*
%TO.C,16*%
X11600000Y-41175000D03*
%TD*%
D13*
%TO.C,20*%
X16300000Y-22550000D03*
%TD*%
D14*
%TO.C,3*%
X23500000Y-22550000D03*
%TD*%
D15*
%TO.C,H4*%
X9250000Y-12750000D03*
%TD*%
D14*
%TO.C,9*%
X13900000Y-22550000D03*
%TD*%
D13*
%TO.C,15*%
X24300000Y-22550000D03*
%TD*%
D14*
%TO.C,12*%
X7500000Y-22550000D03*
%TD*%
D13*
%TO.C,25*%
X8300000Y-22550000D03*
%TD*%
D15*
%TO.C,H3*%
X26250000Y-50750000D03*
%TD*%
D14*
%TO.C,5*%
X14300000Y-41175000D03*
%TD*%
%TO.C,9*%
X21100000Y-41175000D03*
%TD*%
%TO.C,4*%
X12500000Y-41175000D03*
%TD*%
%TO.C,17*%
X13400000Y-41175000D03*
%TD*%
%TO.C,7*%
X17700000Y-41175000D03*
%TD*%
%TO.C,19*%
X16800000Y-41175000D03*
%TD*%
D13*
%TO.C,3*%
X10800000Y-41175000D03*
%TD*%
D14*
%TO.C,20*%
X18600000Y-41175000D03*
%TD*%
%TO.C,21*%
X20200000Y-41175000D03*
%TD*%
%TO.C,12*%
X26300000Y-41175000D03*
%TD*%
%TO.C,4*%
X21900000Y-22550000D03*
%TD*%
%TO.C,2*%
X9100000Y-41175000D03*
%TD*%
%TO.C,1*%
X26700000Y-22550000D03*
%TD*%
D13*
%TO.C,16*%
X22700000Y-22550000D03*
%TD*%
%TO.C,14*%
X25900000Y-22550000D03*
%TD*%
D14*
%TO.C,10*%
X22900000Y-41175000D03*
%TD*%
D13*
%TO.C,18*%
X19500000Y-22550000D03*
%TD*%
%TO.C,23*%
X11500000Y-22550000D03*
%TD*%
%TO.C,24*%
X9900000Y-22550000D03*
%TD*%
%TO.C,19*%
X17900000Y-22550000D03*
%TD*%
D14*
%TO.C,25*%
X27200000Y-41175000D03*
%TD*%
%TO.C,12*%
X9100000Y-22550000D03*
%TD*%
D13*
%TO.C,23*%
X23700000Y-41175000D03*
%TD*%
%TO.C,D13*%
X28000000Y-41175000D03*
%TD*%
%TO.C,22*%
X13100000Y-22550000D03*
%TD*%
D14*
%TO.C,1*%
X7300000Y-41175000D03*
%TD*%
%TO.C,8*%
X15500000Y-22550000D03*
%TD*%
%TO.C,10*%
X12300000Y-22550000D03*
%TD*%
%TO.C,6*%
X18700000Y-22550000D03*
%TD*%
%TO.C,24*%
X25400000Y-41175000D03*
%TD*%
D13*
%TO.C,18*%
X15100000Y-41175000D03*
%TD*%
D14*
%TO.C,15*%
X10000000Y-41175000D03*
%TD*%
D15*
%TO.C,H2*%
X26250000Y-12750000D03*
%TD*%
D14*
%TO.C,2*%
X25100000Y-22550000D03*
%TD*%
D16*
%TO.C,J99*%
X25370000Y-5374500D03*
X24100000Y-5374500D03*
X22830000Y-5374500D03*
X21560000Y-5374500D03*
X20290000Y-5374500D03*
X19020000Y-5374500D03*
X17750000Y-5374500D03*
X16480000Y-5374500D03*
X15210000Y-5374500D03*
X13940000Y-5374500D03*
X12670000Y-5374500D03*
X11400000Y-5374500D03*
X10130000Y-5374500D03*
X24735000Y-6474500D03*
X23465000Y-6474500D03*
X22195000Y-6474500D03*
X20925000Y-6474500D03*
X19655000Y-6474500D03*
X18385000Y-6474500D03*
X17115000Y-6474500D03*
X15845000Y-6474500D03*
X14575000Y-6474500D03*
X13305000Y-6474500D03*
X12035000Y-6474500D03*
X10765000Y-6474500D03*
%TD*%
%TO.C,J26*%
X10130000Y-58124500D03*
X11400000Y-58124500D03*
X12670000Y-58124500D03*
X13940000Y-58124500D03*
X15210000Y-58124500D03*
X16480000Y-58124500D03*
X17750000Y-58124500D03*
X19020000Y-58124500D03*
X20290000Y-58124500D03*
X21560000Y-58124500D03*
X22830000Y-58124500D03*
X24100000Y-58124500D03*
X25370000Y-58124500D03*
X10765000Y-57024500D03*
X12035000Y-57024500D03*
X13305000Y-57024500D03*
X14575000Y-57024500D03*
X15845000Y-57024500D03*
X17115000Y-57024500D03*
X18385000Y-57024500D03*
X19655000Y-57024500D03*
X20925000Y-57024500D03*
X22195000Y-57024500D03*
X23465000Y-57024500D03*
X24735000Y-57024500D03*
%TD*%
%LPD*%
M02*
