%TF.GenerationSoftware,KiCad,Pcbnew,7.0.2*%
%TF.CreationDate,2023-10-04T18:59:29-06:00*%
%TF.ProjectId,micro-d-tes-aaray,6d696372-6f2d-4642-9d74-65732d616172,rev?*%
%TF.SameCoordinates,Original*%
%TF.FileFunction,Copper,L1,Top*%
%TF.FilePolarity,Positive*%
%FSLAX46Y46*%
G04 Gerber Fmt 4.6, Leading zero omitted, Abs format (unit mm)*
G04 Created by KiCad (PCBNEW 7.0.2) date 2023-10-04 18:59:29*
%MOMM*%
%LPD*%
G01*
G04 APERTURE LIST*
%TA.AperFunction,SMDPad,CuDef*%
%ADD10R,0.500000X2.000000*%
%TD*%
%TA.AperFunction,SMDPad,CuDef*%
%ADD11R,0.700000X2.000000*%
%TD*%
%TA.AperFunction,ComponentPad*%
%ADD12C,3.500000*%
%TD*%
%TA.AperFunction,ComponentPad*%
%ADD13O,0.920000X0.920000*%
%TD*%
%TA.AperFunction,Conductor*%
%ADD14C,0.090000*%
%TD*%
G04 APERTURE END LIST*
D10*
%TO.P,J17,1,Pin_1*%
%TO.N,Net-(J17-Pin_1)*%
X21100000Y-25500000D03*
%TD*%
D11*
%TO.P,J5,1,Pin_1*%
%TO.N,Net-(J5-Pin_1)*%
X20300000Y-25500000D03*
%TD*%
%TO.P,D11,1,Pin_1*%
%TO.N,Net-(D11-Pin_1)*%
X24500000Y-38000000D03*
%TD*%
D10*
%TO.P,D8,1,Pin_1*%
%TO.N,Net-(D8-Pin_1)*%
X19400000Y-38000000D03*
%TD*%
D11*
%TO.P,D22,1,Pin_1*%
%TO.N,Net-(D22-Pin_1)*%
X22000000Y-38000000D03*
%TD*%
%TO.P,D14,1,Pin_1*%
%TO.N,Net-(D14-Pin_1)*%
X8200000Y-38000000D03*
%TD*%
%TO.P,D6,1,Pin_1*%
%TO.N,Net-(D6-Pin_1)*%
X15900000Y-38000000D03*
%TD*%
%TO.P,J7,1,Pin_1*%
%TO.N,Net-(J7-Pin_1)*%
X17100000Y-25500000D03*
%TD*%
%TO.P,J11,1,Pin_1*%
%TO.N,Net-(J11-Pin_1)*%
X10700000Y-25500000D03*
%TD*%
D10*
%TO.P,J21,1,Pin_1*%
%TO.N,Net-(J21-Pin_1)*%
X14700000Y-25500000D03*
%TD*%
D12*
%TO.P,H1,1,1*%
%TO.N,GND*%
X9250000Y-50750000D03*
%TD*%
D11*
%TO.P,D16,1,Pin_1*%
%TO.N,Net-(D16-Pin_1)*%
X11600000Y-38000000D03*
%TD*%
D10*
%TO.P,J20,1,Pin_1*%
%TO.N,Net-(J20-Pin_1)*%
X16300000Y-25500000D03*
%TD*%
D11*
%TO.P,J3,1,Pin_1*%
%TO.N,Net-(J3-Pin_1)*%
X23500000Y-25500000D03*
%TD*%
D12*
%TO.P,H4,1,1*%
%TO.N,GND*%
X9250000Y-12750000D03*
%TD*%
D11*
%TO.P,J9,1,Pin_1*%
%TO.N,Net-(J9-Pin_1)*%
X13900000Y-25500000D03*
%TD*%
D10*
%TO.P,J15,1,Pin_1*%
%TO.N,Net-(J15-Pin_1)*%
X24300000Y-25500000D03*
%TD*%
D11*
%TO.P,J13,1,Pin_1*%
%TO.N,Net-(J13-Pin_1)*%
X7500000Y-25500000D03*
%TD*%
D10*
%TO.P,J25,1,Pin_1*%
%TO.N,Net-(J25-Pin_1)*%
X8300000Y-25500000D03*
%TD*%
D12*
%TO.P,H3,1,1*%
%TO.N,GND*%
X26250000Y-50750000D03*
%TD*%
D11*
%TO.P,D5,1,Pin_1*%
%TO.N,Net-(D5-Pin_1)*%
X14300000Y-38000000D03*
%TD*%
%TO.P,D9,1,Pin_1*%
%TO.N,Net-(D9-Pin_1)*%
X21100000Y-38000000D03*
%TD*%
%TO.P,D4,1,Pin_1*%
%TO.N,Net-(D4-Pin_1)*%
X12500000Y-38000000D03*
%TD*%
%TO.P,D17,1,Pin_1*%
%TO.N,Net-(D17-Pin_1)*%
X13400000Y-38000000D03*
%TD*%
%TO.P,D7,1,Pin_1*%
%TO.N,Net-(D7-Pin_1)*%
X17700000Y-38000000D03*
%TD*%
%TO.P,D19,1,Pin_1*%
%TO.N,Net-(D19-Pin_1)*%
X16800000Y-38000000D03*
%TD*%
D10*
%TO.P,D3,1,Pin_1*%
%TO.N,Net-(D3-Pin_1)*%
X10800000Y-38000000D03*
%TD*%
D11*
%TO.P,D20,1,Pin_1*%
%TO.N,Net-(D20-Pin_1)*%
X18600000Y-38000000D03*
%TD*%
%TO.P,D21,1,Pin_1*%
%TO.N,Net-(D21-Pin_1)*%
X20200000Y-38000000D03*
%TD*%
%TO.P,D12,1,Pin_1*%
%TO.N,Net-(D12-Pin_1)*%
X26300000Y-38000000D03*
%TD*%
%TO.P,J4,1,Pin_1*%
%TO.N,Net-(J4-Pin_1)*%
X21900000Y-25500000D03*
%TD*%
%TO.P,D2,1,Pin_1*%
%TO.N,Net-(D2-Pin_1)*%
X9100000Y-38000000D03*
%TD*%
%TO.P,J1,1,Pin_1*%
%TO.N,Net-(J1-Pin_1)*%
X26700000Y-25500000D03*
%TD*%
D10*
%TO.P,J16,1,Pin_1*%
%TO.N,Net-(J16-Pin_1)*%
X22700000Y-25500000D03*
%TD*%
%TO.P,J14,1,Pin_1*%
%TO.N,Net-(J14-Pin_1)*%
X25900000Y-25500000D03*
%TD*%
D11*
%TO.P,D10,1,Pin_1*%
%TO.N,Net-(D10-Pin_1)*%
X22900000Y-38000000D03*
%TD*%
D10*
%TO.P,J18,1,Pin_1*%
%TO.N,Net-(J18-Pin_1)*%
X19500000Y-25500000D03*
%TD*%
%TO.P,J23,1,Pin_1*%
%TO.N,Net-(J23-Pin_1)*%
X11500000Y-25500000D03*
%TD*%
%TO.P,J24,1,Pin_1*%
%TO.N,Net-(J24-Pin_1)*%
X9900000Y-25500000D03*
%TD*%
%TO.P,J19,1,Pin_1*%
%TO.N,Net-(J19-Pin_1)*%
X17900000Y-25500000D03*
%TD*%
D11*
%TO.P,D25,1,Pin_1*%
%TO.N,Net-(D25-Pin_1)*%
X27200000Y-38000000D03*
%TD*%
%TO.P,J12,1,Pin_1*%
%TO.N,Net-(J12-Pin_1)*%
X9100000Y-25500000D03*
%TD*%
D10*
%TO.P,D23,1,Pin_1*%
%TO.N,Net-(D23-Pin_1)*%
X23700000Y-38000000D03*
%TD*%
%TO.P,D13,1,Pin_1*%
%TO.N,Net-(D13-Pin_1)*%
X28000000Y-38000000D03*
%TD*%
%TO.P,J22,1,Pin_1*%
%TO.N,Net-(J22-Pin_1)*%
X13100000Y-25500000D03*
%TD*%
D11*
%TO.P,D1,1,Pin_1*%
%TO.N,Net-(D1-Pin_1)*%
X7300000Y-38000000D03*
%TD*%
%TO.P,J8,1,Pin_1*%
%TO.N,Net-(J8-Pin_1)*%
X15500000Y-25500000D03*
%TD*%
%TO.P,J10,1,Pin_1*%
%TO.N,Net-(J10-Pin_1)*%
X12300000Y-25500000D03*
%TD*%
%TO.P,J6,1,Pin_1*%
%TO.N,Net-(J6-Pin_1)*%
X18700000Y-25500000D03*
%TD*%
%TO.P,D24,1,Pin_1*%
%TO.N,Net-(D24-Pin_1)*%
X25400000Y-38000000D03*
%TD*%
D10*
%TO.P,D18,1,Pin_1*%
%TO.N,Net-(D18-Pin_1)*%
X15100000Y-38000000D03*
%TD*%
D11*
%TO.P,D15,1,Pin_1*%
%TO.N,Net-(D15-Pin_1)*%
X10000000Y-38000000D03*
%TD*%
D12*
%TO.P,H2,1,1*%
%TO.N,GND*%
X26250000Y-12750000D03*
%TD*%
D11*
%TO.P,J2,1,Pin_1*%
%TO.N,Net-(J2-Pin_1)*%
X25100000Y-25500000D03*
%TD*%
D13*
%TO.P,J99,1,1*%
%TO.N,Net-(J1-Pin_1)*%
X25370000Y-5374500D03*
%TO.P,J99,2,2*%
%TO.N,Net-(J2-Pin_1)*%
X24100000Y-5374500D03*
%TO.P,J99,3,3*%
%TO.N,Net-(J3-Pin_1)*%
X22830000Y-5374500D03*
%TO.P,J99,4,4*%
%TO.N,Net-(J4-Pin_1)*%
X21560000Y-5374500D03*
%TO.P,J99,5,5*%
%TO.N,Net-(J5-Pin_1)*%
X20290000Y-5374500D03*
%TO.P,J99,6,6*%
%TO.N,Net-(J6-Pin_1)*%
X19020000Y-5374500D03*
%TO.P,J99,7,7*%
%TO.N,Net-(J7-Pin_1)*%
X17750000Y-5374500D03*
%TO.P,J99,8,8*%
%TO.N,Net-(J8-Pin_1)*%
X16480000Y-5374500D03*
%TO.P,J99,9,9*%
%TO.N,Net-(J9-Pin_1)*%
X15210000Y-5374500D03*
%TO.P,J99,10,10*%
%TO.N,Net-(J10-Pin_1)*%
X13940000Y-5374500D03*
%TO.P,J99,11,11*%
%TO.N,Net-(J11-Pin_1)*%
X12670000Y-5374500D03*
%TO.P,J99,12,12*%
%TO.N,Net-(J12-Pin_1)*%
X11400000Y-5374500D03*
%TO.P,J99,13,13*%
%TO.N,Net-(J13-Pin_1)*%
X10130000Y-5374500D03*
%TO.P,J99,14,P14*%
%TO.N,Net-(J14-Pin_1)*%
X24735000Y-6474500D03*
%TO.P,J99,15,P15*%
%TO.N,Net-(J15-Pin_1)*%
X23465000Y-6474500D03*
%TO.P,J99,16,P16*%
%TO.N,Net-(J16-Pin_1)*%
X22195000Y-6474500D03*
%TO.P,J99,17,P17*%
%TO.N,Net-(J17-Pin_1)*%
X20925000Y-6474500D03*
%TO.P,J99,18,P18*%
%TO.N,Net-(J18-Pin_1)*%
X19655000Y-6474500D03*
%TO.P,J99,19,P19*%
%TO.N,Net-(J19-Pin_1)*%
X18385000Y-6474500D03*
%TO.P,J99,20,P20*%
%TO.N,Net-(J20-Pin_1)*%
X17115000Y-6474500D03*
%TO.P,J99,21,P21*%
%TO.N,Net-(J21-Pin_1)*%
X15845000Y-6474500D03*
%TO.P,J99,22,P22*%
%TO.N,Net-(J22-Pin_1)*%
X14575000Y-6474500D03*
%TO.P,J99,23,P23*%
%TO.N,Net-(J23-Pin_1)*%
X13305000Y-6474500D03*
%TO.P,J99,24,P24*%
%TO.N,Net-(J24-Pin_1)*%
X12035000Y-6474500D03*
%TO.P,J99,25,P25*%
%TO.N,Net-(J25-Pin_1)*%
X10765000Y-6474500D03*
%TD*%
%TO.P,J26,1,1*%
%TO.N,Net-(D1-Pin_1)*%
X10130000Y-58124500D03*
%TO.P,J26,2,2*%
%TO.N,Net-(D2-Pin_1)*%
X11400000Y-58124500D03*
%TO.P,J26,3,3*%
%TO.N,Net-(D3-Pin_1)*%
X12670000Y-58124500D03*
%TO.P,J26,4,4*%
%TO.N,Net-(D4-Pin_1)*%
X13940000Y-58124500D03*
%TO.P,J26,5,5*%
%TO.N,Net-(D5-Pin_1)*%
X15210000Y-58124500D03*
%TO.P,J26,6,6*%
%TO.N,Net-(D6-Pin_1)*%
X16480000Y-58124500D03*
%TO.P,J26,7,7*%
%TO.N,Net-(D7-Pin_1)*%
X17750000Y-58124500D03*
%TO.P,J26,8,8*%
%TO.N,Net-(D8-Pin_1)*%
X19020000Y-58124500D03*
%TO.P,J26,9,9*%
%TO.N,Net-(D9-Pin_1)*%
X20290000Y-58124500D03*
%TO.P,J26,10,10*%
%TO.N,Net-(D10-Pin_1)*%
X21560000Y-58124500D03*
%TO.P,J26,11,11*%
%TO.N,Net-(D11-Pin_1)*%
X22830000Y-58124500D03*
%TO.P,J26,12,12*%
%TO.N,Net-(D12-Pin_1)*%
X24100000Y-58124500D03*
%TO.P,J26,13,13*%
%TO.N,Net-(D13-Pin_1)*%
X25370000Y-58124500D03*
%TO.P,J26,14,P14*%
%TO.N,Net-(D14-Pin_1)*%
X10765000Y-57024500D03*
%TO.P,J26,15,P15*%
%TO.N,Net-(D15-Pin_1)*%
X12035000Y-57024500D03*
%TO.P,J26,16,P16*%
%TO.N,Net-(D16-Pin_1)*%
X13305000Y-57024500D03*
%TO.P,J26,17,P17*%
%TO.N,Net-(D17-Pin_1)*%
X14575000Y-57024500D03*
%TO.P,J26,18,P18*%
%TO.N,Net-(D18-Pin_1)*%
X15845000Y-57024500D03*
%TO.P,J26,19,P19*%
%TO.N,Net-(D19-Pin_1)*%
X17115000Y-57024500D03*
%TO.P,J26,20,P20*%
%TO.N,Net-(D20-Pin_1)*%
X18385000Y-57024500D03*
%TO.P,J26,21,P21*%
%TO.N,Net-(D21-Pin_1)*%
X19655000Y-57024500D03*
%TO.P,J26,22,P22*%
%TO.N,Net-(D22-Pin_1)*%
X20925000Y-57024500D03*
%TO.P,J26,23,P23*%
%TO.N,Net-(D23-Pin_1)*%
X22195000Y-57024500D03*
%TO.P,J26,24,P24*%
%TO.N,Net-(D24-Pin_1)*%
X23465000Y-57024500D03*
%TO.P,J26,25,P25*%
%TO.N,Net-(D25-Pin_1)*%
X24735000Y-57024500D03*
%TD*%
D14*
%TO.N,Net-(D1-Pin_1)*%
X13690000Y-47010000D02*
X7300000Y-40620000D01*
X7300000Y-40620000D02*
X7300000Y-38000000D01*
X10130000Y-55690000D02*
X13690000Y-52130000D01*
X13690000Y-52130000D02*
X13690000Y-47010000D01*
X10130000Y-58124500D02*
X10130000Y-55690000D01*
%TO.N,Net-(D14-Pin_1)*%
X13870000Y-52220000D02*
X10765000Y-55325000D01*
X10765000Y-55325000D02*
X10765000Y-57024500D01*
X13870000Y-44654558D02*
X13870000Y-52220000D01*
X8770000Y-39554558D02*
X13870000Y-44654558D01*
X8770000Y-39220000D02*
X8770000Y-39554558D01*
X8200000Y-38650000D02*
X8770000Y-39220000D01*
X8200000Y-38000000D02*
X8200000Y-38650000D01*
%TO.N,Net-(D2-Pin_1)*%
X9100000Y-39609116D02*
X9100000Y-38000000D01*
X13050000Y-43559116D02*
X9100000Y-39609116D01*
X13050000Y-43580000D02*
X13050000Y-43559116D01*
X14050000Y-44580000D02*
X13050000Y-43580000D01*
X14050000Y-53165442D02*
X14050000Y-44580000D01*
X11400000Y-55815442D02*
X14050000Y-53165442D01*
X11400000Y-58124500D02*
X11400000Y-55815442D01*
%TO.N,Net-(D15-Pin_1)*%
X12035000Y-55435000D02*
X12035000Y-57024500D01*
X14230000Y-44484558D02*
X14230000Y-53240000D01*
X14230000Y-53240000D02*
X12035000Y-55435000D01*
X10000000Y-38000000D02*
X10000000Y-40254558D01*
X10000000Y-40254558D02*
X14230000Y-44484558D01*
%TO.N,Net-(D3-Pin_1)*%
X10800000Y-40800000D02*
X10800000Y-38000000D01*
X14410000Y-53735442D02*
X14410000Y-46980000D01*
X14410000Y-44410000D02*
X14160000Y-44160000D01*
X14332721Y-53812721D02*
X14410000Y-53735442D01*
X14410000Y-46980000D02*
X14410000Y-44410000D01*
X14160000Y-44160000D02*
X10800000Y-40800000D01*
X12670000Y-55475442D02*
X14332721Y-53812721D01*
X12670000Y-58124500D02*
X12670000Y-55475442D01*
%TO.N,Net-(D16-Pin_1)*%
X14590000Y-44180000D02*
X14590000Y-53810000D01*
X11600000Y-41190000D02*
X14590000Y-44180000D01*
X14590000Y-53810000D02*
X13305000Y-55095000D01*
X13305000Y-55095000D02*
X13305000Y-57024500D01*
X11600000Y-38000000D02*
X11600000Y-41190000D01*
%TO.N,Net-(D4-Pin_1)*%
X12500000Y-41780000D02*
X12500000Y-38000000D01*
X14850000Y-44130000D02*
X12500000Y-41780000D01*
X14850000Y-54590000D02*
X14850000Y-44130000D01*
X13940000Y-58124500D02*
X13940000Y-55500000D01*
X13940000Y-55500000D02*
X14850000Y-54590000D01*
%TO.N,Net-(D17-Pin_1)*%
X14575000Y-55525000D02*
X14575000Y-57024500D01*
X15030000Y-55070000D02*
X14575000Y-55525000D01*
X15030000Y-40660000D02*
X15030000Y-55070000D01*
X13400000Y-39030000D02*
X15030000Y-40660000D01*
X13400000Y-38000000D02*
X13400000Y-39030000D01*
%TO.N,Net-(D5-Pin_1)*%
X14300000Y-38650000D02*
X14300000Y-38000000D01*
X15210000Y-39560000D02*
X14300000Y-38650000D01*
X15210000Y-58124500D02*
X15210000Y-39560000D01*
%TO.N,Net-(D18-Pin_1)*%
X20047758Y-52821742D02*
X15845000Y-57024500D01*
X20221742Y-52821742D02*
X20047758Y-52821742D01*
X15100000Y-38750000D02*
X22190000Y-45840000D01*
X22190000Y-45840000D02*
X22190000Y-50853484D01*
X22190000Y-50853484D02*
X20221742Y-52821742D01*
X15100000Y-38000000D02*
X15100000Y-38750000D01*
%TO.N,Net-(D6-Pin_1)*%
X15900000Y-38720000D02*
X15900000Y-38000000D01*
X18550000Y-41370000D02*
X15900000Y-38720000D01*
X19711768Y-41370000D02*
X18550000Y-41370000D01*
X22370000Y-44028232D02*
X19711768Y-41370000D01*
X22370000Y-50928042D02*
X22370000Y-44028232D01*
X16480000Y-56818042D02*
X22370000Y-50928042D01*
X16480000Y-58124500D02*
X16480000Y-56818042D01*
%TO.N,Net-(D19-Pin_1)*%
X19708163Y-41111837D02*
X19261837Y-41111837D01*
X16800000Y-38650000D02*
X16800000Y-38000000D01*
X22550000Y-51589500D02*
X22550000Y-43953674D01*
X19261837Y-41111837D02*
X16800000Y-38650000D01*
X17115000Y-57024500D02*
X22550000Y-51589500D01*
X22550000Y-43953674D02*
X19708163Y-41111837D01*
%TO.N,Net-(D7-Pin_1)*%
X17750000Y-56818042D02*
X17750000Y-58124500D01*
X21768042Y-52800000D02*
X17750000Y-56818042D01*
X22290000Y-52800000D02*
X21768042Y-52800000D01*
X22730000Y-43879116D02*
X22730000Y-52360000D01*
X17700000Y-38849116D02*
X22730000Y-43879116D01*
X22730000Y-52360000D02*
X22290000Y-52800000D01*
X17700000Y-38000000D02*
X17700000Y-38849116D01*
%TO.N,Net-(D20-Pin_1)*%
X22960000Y-43854558D02*
X18600000Y-39494558D01*
X18385000Y-57024500D02*
X22960000Y-52449500D01*
X22960000Y-52449500D02*
X22960000Y-43854558D01*
X18600000Y-39494558D02*
X18600000Y-38000000D01*
%TO.N,Net-(D8-Pin_1)*%
X19020000Y-56818042D02*
X19020000Y-58124500D01*
X22188042Y-53650000D02*
X19020000Y-56818042D01*
X22340000Y-53650000D02*
X22188042Y-53650000D01*
X23140000Y-52850000D02*
X22340000Y-53650000D01*
X23140000Y-43780000D02*
X23140000Y-52850000D01*
X19400000Y-40040000D02*
X23140000Y-43780000D01*
X19400000Y-38000000D02*
X19400000Y-40040000D01*
%TO.N,Net-(D21-Pin_1)*%
X23209500Y-53470000D02*
X19655000Y-57024500D01*
X23260000Y-53470000D02*
X23209500Y-53470000D01*
X23320000Y-43640000D02*
X23320000Y-53410000D01*
X23320000Y-53410000D02*
X23260000Y-53470000D01*
X20200000Y-40520000D02*
X23320000Y-43640000D01*
X20200000Y-38000000D02*
X20200000Y-40520000D01*
%TO.N,Net-(D9-Pin_1)*%
X21100000Y-38720000D02*
X21100000Y-38000000D01*
X23597279Y-41217279D02*
X21100000Y-38720000D01*
X24312721Y-41217279D02*
X23597279Y-41217279D01*
X28635442Y-45540000D02*
X24312721Y-41217279D01*
X29130000Y-45540000D02*
X28635442Y-45540000D01*
X29920000Y-46330000D02*
X29130000Y-45540000D01*
X29920000Y-52070000D02*
X29920000Y-46330000D01*
X27299998Y-54690002D02*
X29920000Y-52070000D01*
X22418041Y-54690001D02*
X27299998Y-54690002D01*
X20290000Y-56818042D02*
X22418041Y-54690001D01*
X20290000Y-58124500D02*
X20290000Y-56818042D01*
%TO.N,Net-(D22-Pin_1)*%
X22000000Y-38650000D02*
X22000000Y-38000000D01*
X25327279Y-41977279D02*
X22000000Y-38650000D01*
X30100000Y-46104558D02*
X25972721Y-41977279D01*
X30100000Y-52380884D02*
X30100000Y-46104558D01*
X27610883Y-54870001D02*
X30100000Y-52380884D01*
X23079499Y-54870001D02*
X27610883Y-54870001D01*
X20925000Y-57024500D02*
X23079499Y-54870001D01*
X25972721Y-41977279D02*
X25327279Y-41977279D01*
%TO.N,Net-(D10-Pin_1)*%
X21560000Y-56818042D02*
X21560000Y-58124500D01*
X23328041Y-55050001D02*
X21560000Y-56818042D01*
X27685441Y-55050001D02*
X23328041Y-55050001D01*
X30280000Y-52455442D02*
X27685441Y-55050001D01*
X30280000Y-46030000D02*
X30280000Y-52455442D01*
X22900000Y-38650000D02*
X30280000Y-46030000D01*
X22900000Y-38000000D02*
X22900000Y-38650000D01*
%TO.N,Net-(D23-Pin_1)*%
X27759999Y-55230001D02*
X23989500Y-55230000D01*
X30460000Y-52530000D02*
X27759999Y-55230001D01*
X30460000Y-45510000D02*
X30460000Y-52530000D01*
X23700000Y-38750000D02*
X30460000Y-45510000D01*
X23989500Y-55230000D02*
X22195000Y-57024500D01*
X23700000Y-38000000D02*
X23700000Y-38750000D01*
%TO.N,Net-(D11-Pin_1)*%
X22830000Y-56738042D02*
X22830000Y-58124500D01*
X24158042Y-55410000D02*
X22830000Y-56738042D01*
X27935442Y-55410000D02*
X24158042Y-55410000D01*
X30640000Y-52705442D02*
X27935442Y-55410000D01*
X30640000Y-44790000D02*
X30640000Y-52705442D01*
X24500000Y-38650000D02*
X30640000Y-44790000D01*
X24500000Y-38000000D02*
X24500000Y-38650000D01*
%TO.N,Net-(D24-Pin_1)*%
X25400000Y-38650000D02*
X25400000Y-38000000D01*
X26720000Y-39970000D02*
X25400000Y-38650000D01*
X27365442Y-39970000D02*
X26720000Y-39970000D01*
X30820000Y-43424558D02*
X27365442Y-39970000D01*
X30820000Y-52780000D02*
X30820000Y-43424558D01*
X27960000Y-55640000D02*
X30820000Y-52780000D01*
X24198962Y-55640000D02*
X27960000Y-55640000D01*
X23465000Y-56373962D02*
X24198962Y-55640000D01*
X23465000Y-57024500D02*
X23465000Y-56373962D01*
%TO.N,Net-(D12-Pin_1)*%
X24100000Y-56430000D02*
X24100000Y-58124500D01*
X24710000Y-55820000D02*
X24100000Y-56430000D01*
X28070000Y-55820000D02*
X24710000Y-55820000D01*
X31000000Y-52890000D02*
X28070000Y-55820000D01*
X31000000Y-43340000D02*
X31000000Y-52890000D01*
X30990000Y-43330000D02*
X31000000Y-43340000D01*
X30980000Y-43330000D02*
X30990000Y-43330000D01*
X26300000Y-38650000D02*
X30980000Y-43330000D01*
X26300000Y-38000000D02*
X26300000Y-38650000D01*
%TO.N,Net-(D25-Pin_1)*%
X27430942Y-57024500D02*
X24735000Y-57024500D01*
X31180000Y-53275442D02*
X27430942Y-57024500D01*
X31170000Y-42690000D02*
X31180000Y-42690000D01*
X27200000Y-38720000D02*
X31170000Y-42690000D01*
X31180000Y-42690000D02*
X31180000Y-53275442D01*
X27200000Y-38000000D02*
X27200000Y-38720000D01*
%TO.N,Net-(D13-Pin_1)*%
X31360000Y-40540000D02*
X31360000Y-53350000D01*
X31360000Y-53350000D02*
X26585500Y-58124500D01*
X26585500Y-58124500D02*
X25370000Y-58124500D01*
X28820000Y-38000000D02*
X31360000Y-40540000D01*
X28000000Y-38000000D02*
X28820000Y-38000000D01*
%TO.N,Net-(J13-Pin_1)*%
X12820000Y-17260000D02*
X7500000Y-22580000D01*
X12820000Y-10220000D02*
X12820000Y-17260000D01*
X7500000Y-22580000D02*
X7500000Y-25500000D01*
X10130000Y-7530000D02*
X12820000Y-10220000D01*
X10130000Y-5374500D02*
X10130000Y-7530000D01*
%TO.N,Net-(J25-Pin_1)*%
X10765000Y-7295000D02*
X10765000Y-6474500D01*
X13000000Y-18890000D02*
X13000000Y-9530000D01*
X8300000Y-23590000D02*
X13000000Y-18890000D01*
X13000000Y-9530000D02*
X10765000Y-7295000D01*
X8300000Y-25500000D02*
X8300000Y-23590000D01*
%TO.N,Net-(J12-Pin_1)*%
X9100000Y-24850000D02*
X9100000Y-25500000D01*
X12112279Y-21837721D02*
X9100000Y-24850000D01*
X12557721Y-21837721D02*
X12112279Y-21837721D01*
X13180000Y-21215442D02*
X12557721Y-21837721D01*
X13180000Y-9174558D02*
X13180000Y-21215442D01*
X11400000Y-7394558D02*
X13180000Y-9174558D01*
X11400000Y-5374500D02*
X11400000Y-7394558D01*
%TO.N,Net-(J24-Pin_1)*%
X13400000Y-21250000D02*
X13400000Y-9140000D01*
X13400000Y-9140000D02*
X12035000Y-7775000D01*
X9900000Y-24750000D02*
X13400000Y-21250000D01*
X12035000Y-7775000D02*
X12035000Y-6474500D01*
X9900000Y-25500000D02*
X9900000Y-24750000D01*
%TO.N,Net-(J11-Pin_1)*%
X12670000Y-7290000D02*
X12670000Y-5374500D01*
X13580000Y-8200000D02*
X12670000Y-7290000D01*
X13580000Y-21550000D02*
X13580000Y-8200000D01*
X10700000Y-24430000D02*
X13580000Y-21550000D01*
X10700000Y-25500000D02*
X10700000Y-24430000D01*
%TO.N,Net-(J23-Pin_1)*%
X13305000Y-7405000D02*
X13305000Y-6474500D01*
X13760000Y-7860000D02*
X13305000Y-7405000D01*
X13760000Y-22220000D02*
X13760000Y-7860000D01*
X11500000Y-24480000D02*
X13760000Y-22220000D01*
X11500000Y-25500000D02*
X11500000Y-24480000D01*
%TO.N,Net-(J10-Pin_1)*%
X12300000Y-24780000D02*
X12300000Y-25500000D01*
X13940000Y-23140000D02*
X12300000Y-24780000D01*
X13940000Y-5374500D02*
X13940000Y-23140000D01*
%TO.N,Net-(J22-Pin_1)*%
X13100000Y-24620000D02*
X13100000Y-25500000D01*
X14430000Y-23290000D02*
X13100000Y-24620000D01*
X15205442Y-23290000D02*
X14430000Y-23290000D01*
X19920000Y-18575442D02*
X15205442Y-23290000D01*
X19920000Y-11016464D02*
X19920000Y-18575442D01*
X18314488Y-9410952D02*
X19920000Y-11016464D01*
X17511453Y-9410953D02*
X18314488Y-9410952D01*
X17200250Y-9099750D02*
X17511453Y-9410953D01*
X14575000Y-6474500D02*
X17200250Y-9099750D01*
%TO.N,Net-(J9-Pin_1)*%
X15210000Y-6680958D02*
X15210000Y-5374500D01*
X17759995Y-9230953D02*
X15210000Y-6680958D01*
X18389047Y-9230953D02*
X17759995Y-9230953D01*
X20100000Y-10941906D02*
X18389047Y-9230953D01*
X20100000Y-18650000D02*
X20100000Y-10941906D01*
X13900000Y-24850000D02*
X20100000Y-18650000D01*
X13900000Y-25500000D02*
X13900000Y-24850000D01*
%TO.N,Net-(J21-Pin_1)*%
X14700000Y-24750000D02*
X14700000Y-25500000D01*
X19212279Y-20237721D02*
X14700000Y-24750000D01*
X19857721Y-20237721D02*
X19212279Y-20237721D01*
X20280000Y-19815442D02*
X19857721Y-20237721D01*
X20280000Y-10867348D02*
X20280000Y-19815442D01*
X15887152Y-6474500D02*
X20280000Y-10867348D01*
X15845000Y-6474500D02*
X15887152Y-6474500D01*
%TO.N,Net-(J8-Pin_1)*%
X16480000Y-6812790D02*
X16480000Y-5374500D01*
X20460000Y-19890000D02*
X20460000Y-10792790D01*
X20460000Y-10792790D02*
X16480000Y-6812790D01*
X15500000Y-24850000D02*
X20460000Y-19890000D01*
X15500000Y-25500000D02*
X15500000Y-24850000D01*
%TO.N,Net-(J20-Pin_1)*%
X20630000Y-20420000D02*
X16300000Y-24750000D01*
X20640000Y-20420000D02*
X20630000Y-20420000D01*
X20640000Y-10718232D02*
X20640000Y-20420000D01*
X17115000Y-7193232D02*
X20640000Y-10718232D01*
X17115000Y-6474500D02*
X17115000Y-7193232D01*
X16300000Y-24750000D02*
X16300000Y-25500000D01*
%TO.N,Net-(J7-Pin_1)*%
X17750000Y-7573674D02*
X17750000Y-5374500D01*
X20820000Y-10643674D02*
X17750000Y-7573674D01*
X20820000Y-21575442D02*
X20820000Y-10643674D01*
X18995442Y-23400000D02*
X20820000Y-21575442D01*
X18550000Y-23400000D02*
X18995442Y-23400000D01*
X17100000Y-24850000D02*
X18550000Y-23400000D01*
X17100000Y-25500000D02*
X17100000Y-24850000D01*
%TO.N,Net-(J19-Pin_1)*%
X17900000Y-24750000D02*
X17900000Y-25500000D01*
X19504558Y-23145442D02*
X17900000Y-24750000D01*
X19665442Y-23145442D02*
X19504558Y-23145442D01*
X21000000Y-21810884D02*
X19665442Y-23145442D01*
X21000000Y-10569116D02*
X21000000Y-21810884D01*
X18385000Y-7954116D02*
X21000000Y-10569116D01*
X18385000Y-6474500D02*
X18385000Y-7954116D01*
%TO.N,Net-(J6-Pin_1)*%
X21180000Y-21885442D02*
X21180000Y-10494558D01*
X21180000Y-10494558D02*
X19020000Y-8334558D01*
X18700000Y-24365442D02*
X21180000Y-21885442D01*
X18700000Y-25500000D02*
X18700000Y-24365442D01*
X19020000Y-8334558D02*
X19020000Y-5374500D01*
%TO.N,Net-(J18-Pin_1)*%
X19655000Y-8715000D02*
X19655000Y-6474500D01*
X21360000Y-10420000D02*
X19655000Y-8715000D01*
X19500000Y-23820000D02*
X21360000Y-21960000D01*
X21360000Y-21960000D02*
X21360000Y-10420000D01*
X19500000Y-25500000D02*
X19500000Y-23820000D01*
%TO.N,Net-(J5-Pin_1)*%
X21540000Y-10340000D02*
X20290000Y-9090000D01*
X21540000Y-22065442D02*
X21540000Y-10340000D01*
X20290000Y-9090000D02*
X20290000Y-5374500D01*
X20300000Y-23305442D02*
X21540000Y-22065442D01*
X20300000Y-25500000D02*
X20300000Y-23305442D01*
%TO.N,Net-(J17-Pin_1)*%
X21720000Y-22140000D02*
X21100000Y-22760000D01*
X21720000Y-9494558D02*
X21720000Y-22140000D01*
X21100000Y-22760000D02*
X21100000Y-25500000D01*
X20925000Y-8699558D02*
X21720000Y-9494558D01*
X20925000Y-6474500D02*
X20925000Y-8699558D01*
%TO.N,Net-(J4-Pin_1)*%
X21900000Y-9420000D02*
X21900000Y-25500000D01*
X21560000Y-5374500D02*
X21560000Y-9080000D01*
X21560000Y-9080000D02*
X21900000Y-9420000D01*
%TO.N,Net-(J16-Pin_1)*%
X30050000Y-21761768D02*
X30050000Y-20110000D01*
X24630000Y-22820000D02*
X28991768Y-22820000D01*
X22700000Y-24750000D02*
X24630000Y-22820000D01*
X22700000Y-25500000D02*
X22700000Y-24750000D01*
X30050000Y-15320000D02*
X30050000Y-20110000D01*
X30050000Y-20110000D02*
X30050000Y-20230000D01*
X28991768Y-22820000D02*
X30050000Y-21761768D01*
X30070000Y-15300000D02*
X30050000Y-15320000D01*
X30070000Y-11310000D02*
X30070000Y-15300000D01*
X28363163Y-9046837D02*
X30070000Y-10753674D01*
X24223601Y-8179999D02*
X27496325Y-8179999D01*
X30070000Y-10753674D02*
X30070000Y-11310000D01*
X24074484Y-8180000D02*
X24223601Y-8179999D01*
X22368984Y-6474500D02*
X24074484Y-8180000D01*
X27496325Y-8179999D02*
X28363163Y-9046837D01*
X22195000Y-6474500D02*
X22368984Y-6474500D01*
%TO.N,Net-(J3-Pin_1)*%
X23500000Y-24850000D02*
X23500000Y-25500000D01*
X29046326Y-23020000D02*
X25330000Y-23020000D01*
X27570884Y-8000000D02*
X30250000Y-10679116D01*
X25330000Y-23020000D02*
X23500000Y-24850000D01*
X24149042Y-8000000D02*
X27570884Y-8000000D01*
X30250000Y-10679116D02*
X30250000Y-21816326D01*
X30250000Y-21816326D02*
X29046326Y-23020000D01*
X22830000Y-6680958D02*
X24149042Y-8000000D01*
X22830000Y-5374500D02*
X22830000Y-6680958D01*
%TO.N,Net-(J15-Pin_1)*%
X24300000Y-24750000D02*
X24300000Y-25500000D01*
X25850000Y-23200000D02*
X24300000Y-24750000D01*
X29120884Y-23200000D02*
X25850000Y-23200000D01*
X30430000Y-21890884D02*
X29120884Y-23200000D01*
X30430000Y-10604558D02*
X30430000Y-21890884D01*
X27645442Y-7820000D02*
X30430000Y-10604558D01*
X24810500Y-7820000D02*
X27645442Y-7820000D01*
X23465000Y-6474500D02*
X24810500Y-7820000D01*
%TO.N,Net-(J2-Pin_1)*%
X24100000Y-6680958D02*
X24100000Y-5374500D01*
X25059042Y-7640000D02*
X24100000Y-6680958D01*
X27720000Y-7640000D02*
X25059042Y-7640000D01*
X30610000Y-10530000D02*
X27720000Y-7640000D01*
X30610000Y-21965442D02*
X30610000Y-10530000D01*
X29195442Y-23380000D02*
X30610000Y-21965442D01*
X26570000Y-23380000D02*
X29195442Y-23380000D01*
X25100000Y-24850000D02*
X26570000Y-23380000D01*
X25100000Y-25500000D02*
X25100000Y-24850000D01*
%TO.N,Net-(J14-Pin_1)*%
X27090000Y-23560000D02*
X29270000Y-23560000D01*
X25900000Y-24750000D02*
X27090000Y-23560000D01*
X25900000Y-25500000D02*
X25900000Y-24750000D01*
X29270000Y-23560000D02*
X30790000Y-22040000D01*
X30790000Y-22040000D02*
X30790000Y-21620000D01*
X30790000Y-11500000D02*
X30790000Y-21620000D01*
X30790000Y-10394558D02*
X30790000Y-11500000D01*
X30202721Y-9807279D02*
X30790000Y-10394558D01*
X26869942Y-6474500D02*
X30202721Y-9807279D01*
X24735000Y-6474500D02*
X26869942Y-6474500D01*
%TO.N,Net-(J1-Pin_1)*%
X28370000Y-25500000D02*
X26700000Y-25500000D01*
X30970000Y-22900000D02*
X28370000Y-25500000D01*
X30970000Y-10320000D02*
X30970000Y-22900000D01*
X26024500Y-5374500D02*
X30970000Y-10320000D01*
X25370000Y-5374500D02*
X26024500Y-5374500D01*
%TD*%
%TA.AperFunction,Conductor*%
%TO.N,GND*%
G36*
X21124723Y-39520184D02*
G01*
X21145365Y-39536818D01*
X23203440Y-41594893D01*
X23206382Y-41597937D01*
X23249783Y-41644407D01*
X23249784Y-41644408D01*
X23284521Y-41665532D01*
X23295008Y-41672669D01*
X23327410Y-41697241D01*
X23343863Y-41703729D01*
X23362799Y-41713134D01*
X23377908Y-41722322D01*
X23417062Y-41733292D01*
X23429083Y-41737335D01*
X23466910Y-41752252D01*
X23484508Y-41754060D01*
X23505274Y-41758007D01*
X23522302Y-41762779D01*
X23562951Y-41762779D01*
X23575631Y-41763428D01*
X23616078Y-41767587D01*
X23633507Y-41764582D01*
X23654576Y-41762779D01*
X24035406Y-41762779D01*
X24102445Y-41782464D01*
X24123087Y-41799098D01*
X28241603Y-45917614D01*
X28244545Y-45920658D01*
X28287944Y-45967126D01*
X28287947Y-45967129D01*
X28322691Y-45988257D01*
X28333173Y-45995392D01*
X28365574Y-46019962D01*
X28382028Y-46026451D01*
X28400965Y-46035857D01*
X28416071Y-46045043D01*
X28455223Y-46056012D01*
X28467246Y-46060055D01*
X28505073Y-46074973D01*
X28522664Y-46076780D01*
X28543442Y-46080730D01*
X28560464Y-46085500D01*
X28560465Y-46085500D01*
X28601114Y-46085500D01*
X28613794Y-46086149D01*
X28654241Y-46090308D01*
X28671670Y-46087303D01*
X28692739Y-46085500D01*
X28852685Y-46085500D01*
X28919724Y-46105185D01*
X28940366Y-46121819D01*
X29338182Y-46519635D01*
X29371666Y-46580956D01*
X29374500Y-46607314D01*
X29374500Y-51792684D01*
X29354815Y-51859723D01*
X29338181Y-51880365D01*
X27110364Y-54108182D01*
X27049041Y-54141667D01*
X27022683Y-54144501D01*
X23646952Y-54144501D01*
X23579913Y-54124816D01*
X23534158Y-54072012D01*
X23524214Y-54002854D01*
X23553239Y-53939298D01*
X23586180Y-53912414D01*
X23592710Y-53908743D01*
X23621456Y-53879995D01*
X23630861Y-53871506D01*
X23662419Y-53845834D01*
X23672621Y-53831380D01*
X23686237Y-53815214D01*
X23697656Y-53803795D01*
X23700641Y-53800910D01*
X23747129Y-53757495D01*
X23768256Y-53722750D01*
X23775396Y-53712262D01*
X23786595Y-53697495D01*
X23799962Y-53679869D01*
X23806453Y-53663407D01*
X23815858Y-53644474D01*
X23825042Y-53629372D01*
X23825043Y-53629371D01*
X23836013Y-53590214D01*
X23840058Y-53578189D01*
X23854972Y-53540372D01*
X23854972Y-53540371D01*
X23854973Y-53540369D01*
X23856781Y-53522771D01*
X23860730Y-53501998D01*
X23865500Y-53484976D01*
X23865500Y-53444327D01*
X23866150Y-53431646D01*
X23870308Y-53391201D01*
X23867303Y-53373772D01*
X23865500Y-53352703D01*
X23865500Y-51476309D01*
X23885185Y-51409270D01*
X23937989Y-51363515D01*
X24007147Y-51353571D01*
X24070703Y-51382596D01*
X24106919Y-51436450D01*
X24165505Y-51609038D01*
X24168607Y-51616528D01*
X24295466Y-51873774D01*
X24299516Y-51880788D01*
X24458866Y-52119271D01*
X24463805Y-52125708D01*
X24490405Y-52156039D01*
X24490406Y-52156039D01*
X25279438Y-51367007D01*
X25328348Y-51445999D01*
X25471931Y-51603501D01*
X25630388Y-51723163D01*
X24843959Y-52509592D01*
X24843959Y-52509593D01*
X24874291Y-52536194D01*
X24880728Y-52541133D01*
X25119211Y-52700483D01*
X25126225Y-52704533D01*
X25383471Y-52831392D01*
X25390961Y-52834494D01*
X25662563Y-52926692D01*
X25670391Y-52928789D01*
X25951706Y-52984746D01*
X25959728Y-52985802D01*
X26245957Y-53004563D01*
X26254043Y-53004563D01*
X26540271Y-52985802D01*
X26548293Y-52984746D01*
X26829608Y-52928789D01*
X26837436Y-52926692D01*
X27109038Y-52834494D01*
X27116528Y-52831392D01*
X27373774Y-52704533D01*
X27380788Y-52700483D01*
X27619273Y-52541132D01*
X27625698Y-52536201D01*
X27656040Y-52509592D01*
X26869611Y-51723163D01*
X27028069Y-51603501D01*
X27171652Y-51445999D01*
X27220560Y-51367008D01*
X28009592Y-52156040D01*
X28036201Y-52125698D01*
X28041132Y-52119273D01*
X28200483Y-51880788D01*
X28204533Y-51873774D01*
X28331392Y-51616528D01*
X28334494Y-51609038D01*
X28426692Y-51337436D01*
X28428789Y-51329608D01*
X28484746Y-51048293D01*
X28485802Y-51040271D01*
X28504563Y-50754043D01*
X28504563Y-50745956D01*
X28485802Y-50459728D01*
X28484746Y-50451706D01*
X28428789Y-50170391D01*
X28426692Y-50162563D01*
X28334494Y-49890961D01*
X28331392Y-49883471D01*
X28204533Y-49626225D01*
X28200483Y-49619211D01*
X28041133Y-49380728D01*
X28036194Y-49374291D01*
X28009592Y-49343959D01*
X27220560Y-50132991D01*
X27171652Y-50054001D01*
X27028069Y-49896499D01*
X26869610Y-49776835D01*
X27656039Y-48990406D01*
X27656039Y-48990405D01*
X27625708Y-48963805D01*
X27619271Y-48958866D01*
X27380788Y-48799516D01*
X27373774Y-48795466D01*
X27116528Y-48668607D01*
X27109038Y-48665505D01*
X26837436Y-48573307D01*
X26829608Y-48571210D01*
X26548293Y-48515253D01*
X26540271Y-48514197D01*
X26254043Y-48495437D01*
X26245957Y-48495437D01*
X25959728Y-48514197D01*
X25951706Y-48515253D01*
X25670391Y-48571210D01*
X25662563Y-48573307D01*
X25390961Y-48665505D01*
X25383471Y-48668607D01*
X25126225Y-48795466D01*
X25119211Y-48799516D01*
X24880723Y-48958869D01*
X24874295Y-48963801D01*
X24843958Y-48990405D01*
X24843958Y-48990406D01*
X25630388Y-49776836D01*
X25471931Y-49896499D01*
X25328348Y-50054001D01*
X25279439Y-50132991D01*
X24490406Y-49343958D01*
X24490405Y-49343958D01*
X24463801Y-49374295D01*
X24458869Y-49380723D01*
X24299516Y-49619211D01*
X24295466Y-49626225D01*
X24168607Y-49883471D01*
X24165505Y-49890961D01*
X24106919Y-50063549D01*
X24066730Y-50120703D01*
X24002021Y-50147056D01*
X23933336Y-50134242D01*
X23882483Y-50086327D01*
X23865500Y-50023690D01*
X23865500Y-43651441D01*
X23865572Y-43647207D01*
X23867742Y-43583689D01*
X23858116Y-43544190D01*
X23855745Y-43531715D01*
X23850210Y-43491442D01*
X23843164Y-43475220D01*
X23836425Y-43455181D01*
X23832238Y-43437999D01*
X23812312Y-43402561D01*
X23806667Y-43391196D01*
X23790468Y-43353902D01*
X23790466Y-43353899D01*
X23779305Y-43340180D01*
X23767406Y-43322697D01*
X23758742Y-43307289D01*
X23730003Y-43278550D01*
X23721494Y-43269122D01*
X23695833Y-43237580D01*
X23681379Y-43227377D01*
X23665208Y-43213755D01*
X20781819Y-40330366D01*
X20748334Y-40269043D01*
X20745500Y-40242685D01*
X20745500Y-39624499D01*
X20765185Y-39557460D01*
X20817989Y-39511705D01*
X20869500Y-39500499D01*
X21057684Y-39500499D01*
X21124723Y-39520184D01*
G37*
%TD.AperFunction*%
%TA.AperFunction,Conductor*%
G36*
X22559251Y-7436221D02*
G01*
X23680664Y-8557634D01*
X23683605Y-8560677D01*
X23726990Y-8607130D01*
X23726992Y-8607131D01*
X23761724Y-8628251D01*
X23772220Y-8635395D01*
X23804613Y-8659960D01*
X23804614Y-8659960D01*
X23804615Y-8659961D01*
X23821065Y-8666448D01*
X23840005Y-8675855D01*
X23855116Y-8685044D01*
X23894256Y-8696010D01*
X23906290Y-8700056D01*
X23944115Y-8714973D01*
X23961708Y-8716781D01*
X23982473Y-8720726D01*
X23999511Y-8725501D01*
X24040160Y-8725500D01*
X24052839Y-8726149D01*
X24093282Y-8730308D01*
X24110714Y-8727302D01*
X24131768Y-8725499D01*
X24260921Y-8725499D01*
X27219010Y-8725499D01*
X27286049Y-8745184D01*
X27306691Y-8761818D01*
X29488180Y-10943307D01*
X29521665Y-11004630D01*
X29524499Y-11030988D01*
X29524499Y-11259684D01*
X29524500Y-11259689D01*
X29524500Y-15142041D01*
X29515856Y-15187528D01*
X29515025Y-15189633D01*
X29513216Y-15207230D01*
X29509270Y-15227994D01*
X29504500Y-15245020D01*
X29504500Y-15285670D01*
X29503850Y-15298351D01*
X29499692Y-15338797D01*
X29502697Y-15356225D01*
X29504500Y-15377295D01*
X29504500Y-21484452D01*
X29484815Y-21551491D01*
X29468181Y-21572133D01*
X28802134Y-22238181D01*
X28740811Y-22271666D01*
X28714453Y-22274500D01*
X24641442Y-22274500D01*
X24637208Y-22274428D01*
X24573686Y-22272257D01*
X24534185Y-22281883D01*
X24521719Y-22284252D01*
X24481441Y-22289789D01*
X24465211Y-22296838D01*
X24445181Y-22303574D01*
X24428000Y-22307761D01*
X24392559Y-22327688D01*
X24381192Y-22333333D01*
X24343902Y-22349530D01*
X24330180Y-22360695D01*
X24312700Y-22372592D01*
X24297288Y-22381257D01*
X24268541Y-22410003D01*
X24259120Y-22418506D01*
X24227579Y-22444167D01*
X24217375Y-22458622D01*
X24203755Y-22474790D01*
X22715365Y-23963181D01*
X22654042Y-23996666D01*
X22627684Y-23999500D01*
X22569500Y-23999500D01*
X22502461Y-23979815D01*
X22456706Y-23927011D01*
X22445500Y-23875500D01*
X22445500Y-12754043D01*
X23995437Y-12754043D01*
X24014197Y-13040271D01*
X24015253Y-13048293D01*
X24071210Y-13329608D01*
X24073307Y-13337436D01*
X24165505Y-13609038D01*
X24168607Y-13616528D01*
X24295466Y-13873774D01*
X24299516Y-13880788D01*
X24458866Y-14119271D01*
X24463805Y-14125708D01*
X24490405Y-14156039D01*
X24490406Y-14156039D01*
X25279438Y-13367007D01*
X25328348Y-13445999D01*
X25471931Y-13603501D01*
X25630388Y-13723163D01*
X24843959Y-14509592D01*
X24843959Y-14509593D01*
X24874291Y-14536194D01*
X24880728Y-14541133D01*
X25119211Y-14700483D01*
X25126225Y-14704533D01*
X25383471Y-14831392D01*
X25390961Y-14834494D01*
X25662563Y-14926692D01*
X25670391Y-14928789D01*
X25951706Y-14984746D01*
X25959728Y-14985802D01*
X26245957Y-15004563D01*
X26254043Y-15004563D01*
X26540271Y-14985802D01*
X26548293Y-14984746D01*
X26829608Y-14928789D01*
X26837436Y-14926692D01*
X27109038Y-14834494D01*
X27116528Y-14831392D01*
X27373774Y-14704533D01*
X27380788Y-14700483D01*
X27619273Y-14541132D01*
X27625698Y-14536201D01*
X27656040Y-14509592D01*
X26869611Y-13723163D01*
X27028069Y-13603501D01*
X27171652Y-13445999D01*
X27220560Y-13367008D01*
X28009592Y-14156040D01*
X28036201Y-14125698D01*
X28041132Y-14119273D01*
X28200483Y-13880788D01*
X28204533Y-13873774D01*
X28331392Y-13616528D01*
X28334494Y-13609038D01*
X28426692Y-13337436D01*
X28428789Y-13329608D01*
X28484746Y-13048293D01*
X28485802Y-13040271D01*
X28504563Y-12754043D01*
X28504563Y-12745956D01*
X28485802Y-12459728D01*
X28484746Y-12451706D01*
X28428789Y-12170391D01*
X28426692Y-12162563D01*
X28334494Y-11890961D01*
X28331392Y-11883471D01*
X28204533Y-11626225D01*
X28200483Y-11619211D01*
X28041133Y-11380728D01*
X28036194Y-11374291D01*
X28009592Y-11343959D01*
X27220560Y-12132991D01*
X27171652Y-12054001D01*
X27028069Y-11896499D01*
X26869610Y-11776835D01*
X27656039Y-10990406D01*
X27656039Y-10990405D01*
X27625708Y-10963805D01*
X27619271Y-10958866D01*
X27380788Y-10799516D01*
X27373774Y-10795466D01*
X27116528Y-10668607D01*
X27109038Y-10665505D01*
X26837436Y-10573307D01*
X26829608Y-10571210D01*
X26548293Y-10515253D01*
X26540271Y-10514197D01*
X26254043Y-10495437D01*
X26245957Y-10495437D01*
X25959728Y-10514197D01*
X25951706Y-10515253D01*
X25670391Y-10571210D01*
X25662563Y-10573307D01*
X25390961Y-10665505D01*
X25383471Y-10668607D01*
X25126225Y-10795466D01*
X25119211Y-10799516D01*
X24880723Y-10958869D01*
X24874295Y-10963801D01*
X24843958Y-10990405D01*
X24843958Y-10990406D01*
X25630388Y-11776836D01*
X25471931Y-11896499D01*
X25328348Y-12054001D01*
X25279439Y-12132991D01*
X24490406Y-11343958D01*
X24490405Y-11343958D01*
X24463801Y-11374295D01*
X24458869Y-11380723D01*
X24299516Y-11619211D01*
X24295466Y-11626225D01*
X24168607Y-11883471D01*
X24165505Y-11890961D01*
X24073307Y-12162563D01*
X24071210Y-12170391D01*
X24015253Y-12451706D01*
X24014197Y-12459728D01*
X23995437Y-12745956D01*
X23995437Y-12754043D01*
X22445500Y-12754043D01*
X22445500Y-9431454D01*
X22445572Y-9427221D01*
X22447742Y-9363689D01*
X22438116Y-9324193D01*
X22435747Y-9311734D01*
X22430210Y-9271442D01*
X22423162Y-9255218D01*
X22416423Y-9235174D01*
X22412238Y-9217999D01*
X22392314Y-9182564D01*
X22386666Y-9171193D01*
X22370468Y-9133902D01*
X22359308Y-9120185D01*
X22347408Y-9102700D01*
X22338743Y-9087289D01*
X22309998Y-9058544D01*
X22301490Y-9049117D01*
X22275833Y-9017580D01*
X22261382Y-9007379D01*
X22245211Y-8993757D01*
X22141819Y-8890365D01*
X22108334Y-8829042D01*
X22105500Y-8802684D01*
X22105500Y-7560849D01*
X22125185Y-7493810D01*
X22177989Y-7448055D01*
X22217345Y-7437446D01*
X22383291Y-7421102D01*
X22435574Y-7405241D01*
X22505441Y-7404618D01*
X22559251Y-7436221D01*
G37*
%TD.AperFunction*%
%TA.AperFunction,Conductor*%
G36*
X35442539Y-20185D02*
G01*
X35488294Y-72989D01*
X35499500Y-124500D01*
X35499500Y-63375500D01*
X35479815Y-63442539D01*
X35427011Y-63488294D01*
X35375500Y-63499500D01*
X124500Y-63499500D01*
X57461Y-63479815D01*
X11706Y-63427011D01*
X500Y-63375500D01*
X500Y-50754043D01*
X6995437Y-50754043D01*
X7014197Y-51040271D01*
X7015253Y-51048293D01*
X7071210Y-51329608D01*
X7073307Y-51337436D01*
X7165505Y-51609038D01*
X7168607Y-51616528D01*
X7295466Y-51873774D01*
X7299516Y-51880788D01*
X7458866Y-52119271D01*
X7463805Y-52125708D01*
X7490405Y-52156039D01*
X7490406Y-52156039D01*
X8279438Y-51367007D01*
X8328348Y-51445999D01*
X8471931Y-51603501D01*
X8630388Y-51723163D01*
X7843959Y-52509592D01*
X7843959Y-52509593D01*
X7874291Y-52536194D01*
X7880728Y-52541133D01*
X8119211Y-52700483D01*
X8126225Y-52704533D01*
X8383471Y-52831392D01*
X8390961Y-52834494D01*
X8662563Y-52926692D01*
X8670391Y-52928789D01*
X8951706Y-52984746D01*
X8959728Y-52985802D01*
X9245957Y-53004563D01*
X9254043Y-53004563D01*
X9540271Y-52985802D01*
X9548293Y-52984746D01*
X9829608Y-52928789D01*
X9837436Y-52926692D01*
X10109038Y-52834494D01*
X10116528Y-52831392D01*
X10373774Y-52704533D01*
X10380788Y-52700483D01*
X10619273Y-52541132D01*
X10625698Y-52536201D01*
X10656040Y-52509592D01*
X9869611Y-51723163D01*
X10028069Y-51603501D01*
X10171652Y-51445999D01*
X10220560Y-51367008D01*
X11009592Y-52156040D01*
X11036201Y-52125698D01*
X11041132Y-52119273D01*
X11200483Y-51880788D01*
X11204533Y-51873774D01*
X11331392Y-51616528D01*
X11334494Y-51609038D01*
X11426692Y-51337436D01*
X11428789Y-51329608D01*
X11484746Y-51048293D01*
X11485802Y-51040271D01*
X11504563Y-50754043D01*
X11504563Y-50745956D01*
X11485802Y-50459728D01*
X11484746Y-50451706D01*
X11428789Y-50170391D01*
X11426692Y-50162563D01*
X11334494Y-49890961D01*
X11331392Y-49883471D01*
X11204533Y-49626225D01*
X11200483Y-49619211D01*
X11041133Y-49380728D01*
X11036194Y-49374291D01*
X11009592Y-49343959D01*
X10220560Y-50132991D01*
X10171652Y-50054001D01*
X10028069Y-49896499D01*
X9869610Y-49776835D01*
X10656039Y-48990406D01*
X10656039Y-48990405D01*
X10625708Y-48963805D01*
X10619271Y-48958866D01*
X10380788Y-48799516D01*
X10373774Y-48795466D01*
X10116528Y-48668607D01*
X10109038Y-48665505D01*
X9837436Y-48573307D01*
X9829608Y-48571210D01*
X9548293Y-48515253D01*
X9540271Y-48514197D01*
X9254043Y-48495437D01*
X9245957Y-48495437D01*
X8959728Y-48514197D01*
X8951706Y-48515253D01*
X8670391Y-48571210D01*
X8662563Y-48573307D01*
X8390961Y-48665505D01*
X8383471Y-48668607D01*
X8126225Y-48795466D01*
X8119211Y-48799516D01*
X7880723Y-48958869D01*
X7874295Y-48963801D01*
X7843958Y-48990405D01*
X7843958Y-48990406D01*
X8630388Y-49776836D01*
X8471931Y-49896499D01*
X8328348Y-50054001D01*
X8279439Y-50132991D01*
X7490406Y-49343958D01*
X7490405Y-49343958D01*
X7463801Y-49374295D01*
X7458869Y-49380723D01*
X7299516Y-49619211D01*
X7295466Y-49626225D01*
X7168607Y-49883471D01*
X7165505Y-49890961D01*
X7073307Y-50162563D01*
X7071210Y-50170391D01*
X7015253Y-50451706D01*
X7014197Y-50459728D01*
X6995437Y-50745956D01*
X6995437Y-50754043D01*
X500Y-50754043D01*
X500Y-34225889D01*
X5679416Y-34225889D01*
X5679459Y-34250000D01*
X5679501Y-34250101D01*
X5679616Y-34250382D01*
X5679618Y-34250384D01*
X5679808Y-34250462D01*
X5680000Y-34250541D01*
X5680002Y-34250539D01*
X5704616Y-34250524D01*
X5704616Y-34250528D01*
X5704760Y-34250500D01*
X12555500Y-34250500D01*
X12622539Y-34270185D01*
X12668294Y-34322989D01*
X12679500Y-34374500D01*
X12679500Y-36375500D01*
X12659815Y-36442539D01*
X12607011Y-36488294D01*
X12555500Y-36499500D01*
X12105439Y-36499500D01*
X12105420Y-36499500D01*
X12102128Y-36499501D01*
X12098853Y-36499852D01*
X12098834Y-36499854D01*
X12063253Y-36503679D01*
X12036749Y-36503679D01*
X12001163Y-36499853D01*
X12001150Y-36499852D01*
X11997873Y-36499500D01*
X11994562Y-36499500D01*
X11205439Y-36499500D01*
X11205420Y-36499500D01*
X11202128Y-36499501D01*
X11198853Y-36499852D01*
X11198834Y-36499854D01*
X11163253Y-36503679D01*
X11136749Y-36503679D01*
X11101163Y-36499853D01*
X11101150Y-36499852D01*
X11097873Y-36499500D01*
X11094562Y-36499500D01*
X10505439Y-36499500D01*
X10505420Y-36499500D01*
X10502128Y-36499501D01*
X10498853Y-36499852D01*
X10498834Y-36499854D01*
X10463253Y-36503679D01*
X10436749Y-36503679D01*
X10401163Y-36499853D01*
X10401150Y-36499852D01*
X10397873Y-36499500D01*
X10394562Y-36499500D01*
X9605439Y-36499500D01*
X9605420Y-36499500D01*
X9602128Y-36499501D01*
X9598853Y-36499852D01*
X9598834Y-36499854D01*
X9563253Y-36503679D01*
X9536749Y-36503679D01*
X9501163Y-36499853D01*
X9501150Y-36499852D01*
X9497873Y-36499500D01*
X9494562Y-36499500D01*
X8705439Y-36499500D01*
X8705420Y-36499500D01*
X8702128Y-36499501D01*
X8698853Y-36499852D01*
X8698834Y-36499854D01*
X8663253Y-36503679D01*
X8636749Y-36503679D01*
X8601163Y-36499853D01*
X8601150Y-36499852D01*
X8597873Y-36499500D01*
X8594562Y-36499500D01*
X7805439Y-36499500D01*
X7805420Y-36499500D01*
X7802128Y-36499501D01*
X7798853Y-36499852D01*
X7798834Y-36499854D01*
X7763253Y-36503679D01*
X7736749Y-36503679D01*
X7701163Y-36499853D01*
X7701150Y-36499852D01*
X7697873Y-36499500D01*
X7694562Y-36499500D01*
X6905439Y-36499500D01*
X6905420Y-36499500D01*
X6902128Y-36499501D01*
X6898848Y-36499853D01*
X6898840Y-36499854D01*
X6842515Y-36505909D01*
X6707669Y-36556204D01*
X6592454Y-36642454D01*
X6506204Y-36757668D01*
X6455910Y-36892515D01*
X6455909Y-36892517D01*
X6449500Y-36952127D01*
X6449500Y-36955448D01*
X6449500Y-36955449D01*
X6449500Y-39044560D01*
X6449500Y-39044578D01*
X6449501Y-39047872D01*
X6455909Y-39107483D01*
X6506204Y-39242331D01*
X6592454Y-39357546D01*
X6704811Y-39441657D01*
X6746682Y-39497590D01*
X6754500Y-39540923D01*
X6754500Y-40608557D01*
X6754428Y-40612791D01*
X6752257Y-40676310D01*
X6761884Y-40715813D01*
X6764254Y-40728283D01*
X6769790Y-40768560D01*
X6776835Y-40784779D01*
X6783573Y-40804815D01*
X6787761Y-40822000D01*
X6807683Y-40857431D01*
X6813330Y-40868799D01*
X6829532Y-40906098D01*
X6840693Y-40919816D01*
X6852592Y-40937299D01*
X6861257Y-40952710D01*
X6889996Y-40981449D01*
X6898503Y-40990875D01*
X6924167Y-41022420D01*
X6938618Y-41032621D01*
X6954790Y-41046244D01*
X13108182Y-47199635D01*
X13141666Y-47260956D01*
X13144500Y-47287314D01*
X13144500Y-51852684D01*
X13124815Y-51919723D01*
X13108181Y-51940365D01*
X9752383Y-55296162D01*
X9749341Y-55299102D01*
X9702871Y-55342504D01*
X9681744Y-55377245D01*
X9674602Y-55387739D01*
X9650037Y-55420132D01*
X9643550Y-55436583D01*
X9634147Y-55455514D01*
X9624958Y-55470625D01*
X9613987Y-55509778D01*
X9609942Y-55521807D01*
X9595025Y-55559635D01*
X9593216Y-55577230D01*
X9589270Y-55597994D01*
X9584500Y-55615020D01*
X9584500Y-55655670D01*
X9583850Y-55668351D01*
X9579692Y-55708797D01*
X9582697Y-55726225D01*
X9584500Y-55747295D01*
X9584500Y-57270988D01*
X9564815Y-57338027D01*
X9539165Y-57366841D01*
X9447537Y-57442038D01*
X9327509Y-57588293D01*
X9238321Y-57755151D01*
X9183397Y-57936210D01*
X9164853Y-58124500D01*
X9183397Y-58312789D01*
X9183398Y-58312791D01*
X9238320Y-58493846D01*
X9327510Y-58660707D01*
X9372343Y-58715336D01*
X9447537Y-58806962D01*
X9494999Y-58845912D01*
X9593793Y-58926990D01*
X9760654Y-59016180D01*
X9941709Y-59071102D01*
X10130000Y-59089647D01*
X10318291Y-59071102D01*
X10499346Y-59016180D01*
X10666207Y-58926990D01*
X10686332Y-58910473D01*
X10750642Y-58883158D01*
X10819510Y-58894948D01*
X10843662Y-58910469D01*
X10863793Y-58926990D01*
X11030654Y-59016180D01*
X11211709Y-59071102D01*
X11400000Y-59089647D01*
X11588291Y-59071102D01*
X11769346Y-59016180D01*
X11936207Y-58926990D01*
X11956332Y-58910473D01*
X12020642Y-58883158D01*
X12089510Y-58894948D01*
X12113662Y-58910469D01*
X12133793Y-58926990D01*
X12300654Y-59016180D01*
X12481709Y-59071102D01*
X12670000Y-59089647D01*
X12858291Y-59071102D01*
X13039346Y-59016180D01*
X13206207Y-58926990D01*
X13226335Y-58910470D01*
X13290644Y-58883158D01*
X13359512Y-58894949D01*
X13383663Y-58910470D01*
X13403793Y-58926990D01*
X13570654Y-59016180D01*
X13751709Y-59071102D01*
X13940000Y-59089647D01*
X14128291Y-59071102D01*
X14309346Y-59016180D01*
X14476207Y-58926990D01*
X14496333Y-58910472D01*
X14560641Y-58883158D01*
X14629509Y-58894948D01*
X14653663Y-58910470D01*
X14653667Y-58910473D01*
X14673793Y-58926990D01*
X14840654Y-59016180D01*
X15021709Y-59071102D01*
X15210000Y-59089647D01*
X15398291Y-59071102D01*
X15579346Y-59016180D01*
X15746207Y-58926990D01*
X15766332Y-58910473D01*
X15830642Y-58883158D01*
X15899510Y-58894948D01*
X15923662Y-58910469D01*
X15943793Y-58926990D01*
X16110654Y-59016180D01*
X16291709Y-59071102D01*
X16480000Y-59089647D01*
X16668291Y-59071102D01*
X16849346Y-59016180D01*
X17016207Y-58926990D01*
X17036333Y-58910472D01*
X17100641Y-58883158D01*
X17169509Y-58894948D01*
X17193663Y-58910470D01*
X17193667Y-58910473D01*
X17213793Y-58926990D01*
X17380654Y-59016180D01*
X17561709Y-59071102D01*
X17750000Y-59089647D01*
X17938291Y-59071102D01*
X18119346Y-59016180D01*
X18286207Y-58926990D01*
X18306335Y-58910470D01*
X18370644Y-58883158D01*
X18439512Y-58894949D01*
X18463663Y-58910470D01*
X18483793Y-58926990D01*
X18650654Y-59016180D01*
X18831709Y-59071102D01*
X19020000Y-59089647D01*
X19208291Y-59071102D01*
X19389346Y-59016180D01*
X19556207Y-58926990D01*
X19576333Y-58910472D01*
X19640641Y-58883158D01*
X19709509Y-58894948D01*
X19733663Y-58910470D01*
X19733667Y-58910473D01*
X19753793Y-58926990D01*
X19920654Y-59016180D01*
X20101709Y-59071102D01*
X20290000Y-59089647D01*
X20478291Y-59071102D01*
X20659346Y-59016180D01*
X20826207Y-58926990D01*
X20846335Y-58910470D01*
X20910644Y-58883158D01*
X20979512Y-58894949D01*
X21003663Y-58910470D01*
X21023793Y-58926990D01*
X21190654Y-59016180D01*
X21371709Y-59071102D01*
X21560000Y-59089647D01*
X21748291Y-59071102D01*
X21929346Y-59016180D01*
X22096207Y-58926990D01*
X22116333Y-58910472D01*
X22180641Y-58883158D01*
X22249509Y-58894948D01*
X22273663Y-58910470D01*
X22273667Y-58910473D01*
X22293793Y-58926990D01*
X22460654Y-59016180D01*
X22641709Y-59071102D01*
X22830000Y-59089647D01*
X23018291Y-59071102D01*
X23199346Y-59016180D01*
X23366207Y-58926990D01*
X23386335Y-58910470D01*
X23450644Y-58883158D01*
X23519512Y-58894949D01*
X23543663Y-58910470D01*
X23563793Y-58926990D01*
X23730654Y-59016180D01*
X23911709Y-59071102D01*
X24100000Y-59089647D01*
X24288291Y-59071102D01*
X24469346Y-59016180D01*
X24636207Y-58926990D01*
X24656333Y-58910472D01*
X24720641Y-58883158D01*
X24789509Y-58894948D01*
X24813663Y-58910470D01*
X24813667Y-58910473D01*
X24833793Y-58926990D01*
X25000654Y-59016180D01*
X25181709Y-59071102D01*
X25370000Y-59089647D01*
X25558291Y-59071102D01*
X25739346Y-59016180D01*
X25906207Y-58926990D01*
X26052462Y-58806962D01*
X26127656Y-58715336D01*
X26185403Y-58676001D01*
X26223511Y-58670000D01*
X26574058Y-58670000D01*
X26578292Y-58670072D01*
X26641810Y-58672242D01*
X26681313Y-58662614D01*
X26693781Y-58660245D01*
X26734058Y-58654710D01*
X26750275Y-58647665D01*
X26770317Y-58640926D01*
X26787498Y-58636739D01*
X26787498Y-58636738D01*
X26787501Y-58636738D01*
X26822944Y-58616808D01*
X26834294Y-58611170D01*
X26871598Y-58594968D01*
X26885318Y-58583804D01*
X26902805Y-58571904D01*
X26918210Y-58563243D01*
X26946955Y-58534497D01*
X26956361Y-58526006D01*
X26987919Y-58500334D01*
X26998121Y-58485880D01*
X27011737Y-58469714D01*
X31737656Y-53743795D01*
X31740640Y-53740911D01*
X31787129Y-53697495D01*
X31808258Y-53662748D01*
X31815389Y-53652271D01*
X31839962Y-53619868D01*
X31846449Y-53603415D01*
X31855853Y-53584481D01*
X31865043Y-53569371D01*
X31865044Y-53569368D01*
X31876012Y-53530221D01*
X31880061Y-53518180D01*
X31894973Y-53480369D01*
X31896780Y-53462778D01*
X31900730Y-53442000D01*
X31905500Y-53424978D01*
X31905500Y-53384327D01*
X31906150Y-53371646D01*
X31910308Y-53331201D01*
X31907303Y-53313772D01*
X31905500Y-53292703D01*
X31905500Y-40551441D01*
X31905572Y-40547207D01*
X31907742Y-40483689D01*
X31898116Y-40444190D01*
X31895745Y-40431715D01*
X31890210Y-40391442D01*
X31883164Y-40375220D01*
X31876425Y-40355181D01*
X31872238Y-40337999D01*
X31852312Y-40302561D01*
X31846667Y-40291196D01*
X31830468Y-40253902D01*
X31830466Y-40253899D01*
X31819305Y-40240180D01*
X31807406Y-40222697D01*
X31798742Y-40207289D01*
X31770003Y-40178550D01*
X31761494Y-40169122D01*
X31735833Y-40137580D01*
X31721379Y-40127377D01*
X31705208Y-40113755D01*
X29213837Y-37622384D01*
X29210895Y-37619340D01*
X29167494Y-37572870D01*
X29132757Y-37551746D01*
X29122260Y-37544602D01*
X29111177Y-37536198D01*
X29089869Y-37520039D01*
X29089867Y-37520038D01*
X29073414Y-37513549D01*
X29054481Y-37504145D01*
X29039373Y-37494958D01*
X29039372Y-37494957D01*
X29039371Y-37494957D01*
X29000213Y-37483985D01*
X28988194Y-37479943D01*
X28950369Y-37465027D01*
X28932773Y-37463218D01*
X28912005Y-37459270D01*
X28894977Y-37454500D01*
X28894976Y-37454500D01*
X28874499Y-37454500D01*
X28807460Y-37434815D01*
X28761705Y-37382011D01*
X28750499Y-37330500D01*
X28750499Y-36955439D01*
X28750499Y-36955438D01*
X28750499Y-36952128D01*
X28744091Y-36892517D01*
X28693796Y-36757669D01*
X28607546Y-36642454D01*
X28492331Y-36556204D01*
X28357483Y-36505909D01*
X28297873Y-36499500D01*
X28294550Y-36499500D01*
X27705439Y-36499500D01*
X27705420Y-36499500D01*
X27702128Y-36499501D01*
X27698853Y-36499852D01*
X27698834Y-36499854D01*
X27663253Y-36503679D01*
X27636749Y-36503679D01*
X27601163Y-36499853D01*
X27601150Y-36499852D01*
X27597873Y-36499500D01*
X27594562Y-36499500D01*
X26805439Y-36499500D01*
X26805420Y-36499500D01*
X26802128Y-36499501D01*
X26798853Y-36499852D01*
X26798834Y-36499854D01*
X26763253Y-36503679D01*
X26736749Y-36503679D01*
X26701163Y-36499853D01*
X26701150Y-36499852D01*
X26697873Y-36499500D01*
X26694562Y-36499500D01*
X25905439Y-36499500D01*
X25905420Y-36499500D01*
X25902128Y-36499501D01*
X25898853Y-36499852D01*
X25898834Y-36499854D01*
X25863253Y-36503679D01*
X25836749Y-36503679D01*
X25801163Y-36499853D01*
X25801150Y-36499852D01*
X25797873Y-36499500D01*
X25794562Y-36499500D01*
X25005439Y-36499500D01*
X25005420Y-36499500D01*
X25002128Y-36499501D01*
X24998853Y-36499852D01*
X24998834Y-36499854D01*
X24963253Y-36503679D01*
X24936749Y-36503679D01*
X24901163Y-36499853D01*
X24901150Y-36499852D01*
X24897873Y-36499500D01*
X24894562Y-36499500D01*
X24105439Y-36499500D01*
X24105420Y-36499500D01*
X24102128Y-36499501D01*
X24098853Y-36499852D01*
X24098834Y-36499854D01*
X24063253Y-36503679D01*
X24036749Y-36503679D01*
X24001163Y-36499853D01*
X24001150Y-36499852D01*
X23997873Y-36499500D01*
X23994562Y-36499500D01*
X23405439Y-36499500D01*
X23405420Y-36499500D01*
X23402128Y-36499501D01*
X23398853Y-36499852D01*
X23398834Y-36499854D01*
X23363253Y-36503679D01*
X23336749Y-36503679D01*
X23301163Y-36499853D01*
X23301150Y-36499852D01*
X23297873Y-36499500D01*
X23294563Y-36499500D01*
X22944500Y-36499500D01*
X22877461Y-36479815D01*
X22831706Y-36427011D01*
X22820500Y-36375500D01*
X22820500Y-34374500D01*
X22840185Y-34307461D01*
X22892989Y-34261706D01*
X22944500Y-34250500D01*
X29795240Y-34250500D01*
X29795383Y-34250528D01*
X29795384Y-34250524D01*
X29819997Y-34250539D01*
X29820000Y-34250541D01*
X29820383Y-34250383D01*
X29820500Y-34250099D01*
X29820541Y-34250000D01*
X29820540Y-34249997D01*
X29820583Y-34225889D01*
X29820500Y-34225467D01*
X29820500Y-29274759D01*
X29820528Y-29274616D01*
X29820524Y-29274616D01*
X29820539Y-29250002D01*
X29820541Y-29250000D01*
X29820462Y-29249808D01*
X29820384Y-29249618D01*
X29820383Y-29249617D01*
X29820379Y-29249615D01*
X29820097Y-29249499D01*
X29820000Y-29249459D01*
X29795446Y-29249459D01*
X29795240Y-29249500D01*
X22944500Y-29249500D01*
X22877461Y-29229815D01*
X22831706Y-29177011D01*
X22820500Y-29125500D01*
X22820500Y-27124499D01*
X22840185Y-27057460D01*
X22892989Y-27011705D01*
X22944500Y-27000499D01*
X22994562Y-27000499D01*
X22997872Y-27000499D01*
X23036744Y-26996320D01*
X23063252Y-26996320D01*
X23102127Y-27000500D01*
X23897872Y-27000499D01*
X23936744Y-26996320D01*
X23963252Y-26996320D01*
X24002127Y-27000500D01*
X24597872Y-27000499D01*
X24636744Y-26996320D01*
X24663252Y-26996320D01*
X24702127Y-27000500D01*
X25497872Y-27000499D01*
X25536744Y-26996320D01*
X25563252Y-26996320D01*
X25602127Y-27000500D01*
X26197872Y-27000499D01*
X26236744Y-26996320D01*
X26263252Y-26996320D01*
X26302127Y-27000500D01*
X27097872Y-27000499D01*
X27157483Y-26994091D01*
X27292331Y-26943796D01*
X27407546Y-26857546D01*
X27493796Y-26742331D01*
X27544091Y-26607483D01*
X27550500Y-26547873D01*
X27550500Y-26169500D01*
X27570185Y-26102461D01*
X27622989Y-26056706D01*
X27674500Y-26045500D01*
X28358558Y-26045500D01*
X28362792Y-26045572D01*
X28426310Y-26047742D01*
X28465813Y-26038114D01*
X28478281Y-26035745D01*
X28518558Y-26030210D01*
X28534775Y-26023165D01*
X28554817Y-26016426D01*
X28571998Y-26012239D01*
X28571998Y-26012238D01*
X28572001Y-26012238D01*
X28607444Y-25992308D01*
X28618794Y-25986670D01*
X28656098Y-25970468D01*
X28669818Y-25959304D01*
X28687305Y-25947404D01*
X28702710Y-25938743D01*
X28731455Y-25909997D01*
X28740861Y-25901506D01*
X28772419Y-25875834D01*
X28782621Y-25861380D01*
X28796237Y-25845214D01*
X31347671Y-23293781D01*
X31350656Y-23290896D01*
X31397129Y-23247495D01*
X31418254Y-23212754D01*
X31425385Y-23202275D01*
X31449961Y-23169869D01*
X31456448Y-23153415D01*
X31465857Y-23134475D01*
X31475041Y-23119374D01*
X31475040Y-23119374D01*
X31475043Y-23119371D01*
X31486017Y-23080199D01*
X31490051Y-23068205D01*
X31504973Y-23030369D01*
X31506781Y-23012771D01*
X31510730Y-22991998D01*
X31515500Y-22974976D01*
X31515500Y-22934328D01*
X31516150Y-22921647D01*
X31520308Y-22881202D01*
X31517303Y-22863776D01*
X31515499Y-22842703D01*
X31515499Y-16982684D01*
X31515499Y-10331382D01*
X31515569Y-10327267D01*
X31517742Y-10263690D01*
X31508116Y-10224190D01*
X31505745Y-10211715D01*
X31500210Y-10171442D01*
X31493164Y-10155220D01*
X31486425Y-10135181D01*
X31482238Y-10117999D01*
X31462312Y-10082561D01*
X31456667Y-10071196D01*
X31440468Y-10033902D01*
X31440466Y-10033899D01*
X31429305Y-10020180D01*
X31417406Y-10002697D01*
X31408742Y-9987289D01*
X31380003Y-9958550D01*
X31371494Y-9949122D01*
X31371247Y-9948819D01*
X31345834Y-9917581D01*
X31343589Y-9915996D01*
X31331379Y-9907377D01*
X31315208Y-9893755D01*
X26418337Y-4996884D01*
X26415395Y-4993840D01*
X26371994Y-4947370D01*
X26337257Y-4926246D01*
X26326760Y-4919102D01*
X26315677Y-4910698D01*
X26294369Y-4894539D01*
X26294367Y-4894538D01*
X26277914Y-4888049D01*
X26258981Y-4878645D01*
X26243871Y-4869456D01*
X26222002Y-4863329D01*
X26162760Y-4826286D01*
X26159605Y-4822592D01*
X26052462Y-4692037D01*
X25945247Y-4604049D01*
X25906207Y-4572010D01*
X25739346Y-4482820D01*
X25648818Y-4455358D01*
X25558289Y-4427897D01*
X25370000Y-4409353D01*
X25181710Y-4427897D01*
X25000651Y-4482821D01*
X24833793Y-4572009D01*
X24813664Y-4588529D01*
X24749353Y-4615841D01*
X24680486Y-4604049D01*
X24656336Y-4588529D01*
X24636206Y-4572009D01*
X24469348Y-4482821D01*
X24469347Y-4482820D01*
X24469346Y-4482820D01*
X24378818Y-4455358D01*
X24288289Y-4427897D01*
X24100000Y-4409353D01*
X23911710Y-4427897D01*
X23730651Y-4482821D01*
X23563793Y-4572009D01*
X23543664Y-4588529D01*
X23479353Y-4615841D01*
X23410486Y-4604049D01*
X23386336Y-4588529D01*
X23366206Y-4572009D01*
X23199348Y-4482821D01*
X23199347Y-4482820D01*
X23199346Y-4482820D01*
X23108818Y-4455358D01*
X23018289Y-4427897D01*
X22850569Y-4411378D01*
X22830000Y-4409353D01*
X22829999Y-4409353D01*
X22641710Y-4427897D01*
X22460651Y-4482821D01*
X22293793Y-4572009D01*
X22273664Y-4588529D01*
X22209353Y-4615841D01*
X22140486Y-4604049D01*
X22116336Y-4588529D01*
X22096206Y-4572009D01*
X21929348Y-4482821D01*
X21929347Y-4482820D01*
X21929346Y-4482820D01*
X21838818Y-4455358D01*
X21748289Y-4427897D01*
X21560000Y-4409353D01*
X21371710Y-4427897D01*
X21190651Y-4482821D01*
X21023793Y-4572009D01*
X21003664Y-4588529D01*
X20939353Y-4615841D01*
X20870486Y-4604049D01*
X20846336Y-4588529D01*
X20826206Y-4572009D01*
X20659348Y-4482821D01*
X20659347Y-4482820D01*
X20659346Y-4482820D01*
X20568818Y-4455359D01*
X20478289Y-4427897D01*
X20290000Y-4409353D01*
X20101710Y-4427897D01*
X19920651Y-4482821D01*
X19753793Y-4572009D01*
X19733664Y-4588529D01*
X19669353Y-4615841D01*
X19600486Y-4604049D01*
X19576336Y-4588529D01*
X19556206Y-4572009D01*
X19389348Y-4482821D01*
X19389347Y-4482820D01*
X19389346Y-4482820D01*
X19298818Y-4455359D01*
X19208289Y-4427897D01*
X19020000Y-4409353D01*
X18831710Y-4427897D01*
X18650651Y-4482821D01*
X18483793Y-4572009D01*
X18463664Y-4588529D01*
X18399353Y-4615841D01*
X18330486Y-4604049D01*
X18306336Y-4588529D01*
X18286206Y-4572009D01*
X18119348Y-4482821D01*
X18119347Y-4482820D01*
X18119346Y-4482820D01*
X18028818Y-4455359D01*
X17938289Y-4427897D01*
X17750000Y-4409353D01*
X17561710Y-4427897D01*
X17380651Y-4482821D01*
X17213793Y-4572009D01*
X17193664Y-4588529D01*
X17129353Y-4615841D01*
X17060486Y-4604049D01*
X17036336Y-4588529D01*
X17016206Y-4572009D01*
X16849348Y-4482821D01*
X16849347Y-4482820D01*
X16849346Y-4482820D01*
X16758818Y-4455359D01*
X16668289Y-4427897D01*
X16480000Y-4409353D01*
X16291710Y-4427897D01*
X16110651Y-4482821D01*
X15943794Y-4572009D01*
X15923661Y-4588531D01*
X15859350Y-4615842D01*
X15790483Y-4604048D01*
X15766334Y-4588528D01*
X15746207Y-4572010D01*
X15579346Y-4482820D01*
X15488818Y-4455359D01*
X15398289Y-4427897D01*
X15210000Y-4409353D01*
X15021710Y-4427897D01*
X14840651Y-4482821D01*
X14673794Y-4572009D01*
X14653661Y-4588531D01*
X14589350Y-4615842D01*
X14520483Y-4604048D01*
X14496334Y-4588528D01*
X14476207Y-4572010D01*
X14309346Y-4482820D01*
X14218818Y-4455359D01*
X14128289Y-4427897D01*
X13960569Y-4411378D01*
X13940000Y-4409353D01*
X13939999Y-4409353D01*
X13751710Y-4427897D01*
X13570651Y-4482821D01*
X13403794Y-4572009D01*
X13383661Y-4588531D01*
X13319350Y-4615842D01*
X13250483Y-4604048D01*
X13226334Y-4588528D01*
X13206207Y-4572010D01*
X13039346Y-4482820D01*
X12948818Y-4455359D01*
X12858289Y-4427897D01*
X12670000Y-4409353D01*
X12481710Y-4427897D01*
X12300651Y-4482821D01*
X12133794Y-4572009D01*
X12113661Y-4588531D01*
X12049350Y-4615842D01*
X11980483Y-4604048D01*
X11956334Y-4588528D01*
X11936207Y-4572010D01*
X11769346Y-4482820D01*
X11678818Y-4455359D01*
X11588289Y-4427897D01*
X11400000Y-4409353D01*
X11211710Y-4427897D01*
X11030651Y-4482821D01*
X10863794Y-4572009D01*
X10843661Y-4588531D01*
X10779350Y-4615842D01*
X10710483Y-4604048D01*
X10686334Y-4588528D01*
X10666207Y-4572010D01*
X10499346Y-4482820D01*
X10408818Y-4455359D01*
X10318289Y-4427897D01*
X10130000Y-4409353D01*
X9941710Y-4427897D01*
X9760651Y-4482821D01*
X9593794Y-4572009D01*
X9447537Y-4692037D01*
X9327509Y-4838294D01*
X9238321Y-5005151D01*
X9183397Y-5186210D01*
X9164853Y-5374500D01*
X9183397Y-5562789D01*
X9183398Y-5562791D01*
X9238320Y-5743846D01*
X9327510Y-5910707D01*
X9447538Y-6056962D01*
X9539165Y-6132158D01*
X9578499Y-6189901D01*
X9584500Y-6228010D01*
X9584500Y-7518557D01*
X9584428Y-7522791D01*
X9582257Y-7586310D01*
X9591884Y-7625813D01*
X9594254Y-7638283D01*
X9599790Y-7678560D01*
X9606835Y-7694779D01*
X9613573Y-7714815D01*
X9617761Y-7732000D01*
X9637683Y-7767431D01*
X9643330Y-7778799D01*
X9659532Y-7816098D01*
X9670693Y-7829816D01*
X9682592Y-7847299D01*
X9691257Y-7862710D01*
X9719996Y-7891449D01*
X9728503Y-7900875D01*
X9754167Y-7932420D01*
X9768618Y-7942621D01*
X9784791Y-7956244D01*
X12238181Y-10409634D01*
X12271666Y-10470957D01*
X12274500Y-10497315D01*
X12274500Y-16982684D01*
X12254815Y-17049723D01*
X12238181Y-17070365D01*
X7122383Y-22186162D01*
X7119341Y-22189102D01*
X7072871Y-22232504D01*
X7051744Y-22267245D01*
X7044602Y-22277739D01*
X7020037Y-22310132D01*
X7013550Y-22326583D01*
X7004147Y-22345514D01*
X6994958Y-22360625D01*
X6983987Y-22399778D01*
X6979942Y-22411807D01*
X6965025Y-22449635D01*
X6963216Y-22467230D01*
X6959270Y-22487994D01*
X6954500Y-22505020D01*
X6954500Y-22545670D01*
X6953850Y-22558351D01*
X6949692Y-22598797D01*
X6952697Y-22616225D01*
X6954500Y-22637295D01*
X6954500Y-23959077D01*
X6934815Y-24026116D01*
X6904812Y-24058342D01*
X6867361Y-24086377D01*
X6792454Y-24142453D01*
X6706204Y-24257668D01*
X6686424Y-24310703D01*
X6655909Y-24392517D01*
X6649500Y-24452127D01*
X6649500Y-24455448D01*
X6649500Y-24455449D01*
X6649500Y-26544560D01*
X6649500Y-26544578D01*
X6649501Y-26547872D01*
X6655909Y-26607483D01*
X6706204Y-26742331D01*
X6792454Y-26857546D01*
X6907669Y-26943796D01*
X7042517Y-26994091D01*
X7102127Y-27000500D01*
X7897872Y-27000499D01*
X7936744Y-26996320D01*
X7963252Y-26996320D01*
X8002127Y-27000500D01*
X8597872Y-27000499D01*
X8636744Y-26996320D01*
X8663252Y-26996320D01*
X8702127Y-27000500D01*
X9497872Y-27000499D01*
X9536744Y-26996320D01*
X9563252Y-26996320D01*
X9602127Y-27000500D01*
X10197872Y-27000499D01*
X10236744Y-26996320D01*
X10263252Y-26996320D01*
X10302127Y-27000500D01*
X11097872Y-27000499D01*
X11136744Y-26996320D01*
X11163252Y-26996320D01*
X11202127Y-27000500D01*
X11797872Y-27000499D01*
X11836744Y-26996320D01*
X11863252Y-26996320D01*
X11902127Y-27000500D01*
X12555500Y-27000499D01*
X12622539Y-27020183D01*
X12668294Y-27072987D01*
X12679500Y-27124499D01*
X12679500Y-29125500D01*
X12659815Y-29192539D01*
X12607011Y-29238294D01*
X12555500Y-29249500D01*
X5704760Y-29249500D01*
X5704554Y-29249459D01*
X5679999Y-29249459D01*
X5679900Y-29249500D01*
X5679618Y-29249615D01*
X5679615Y-29249618D01*
X5679459Y-29249999D01*
X5679476Y-29274616D01*
X5679471Y-29274616D01*
X5679500Y-29274759D01*
X5679500Y-34225467D01*
X5679416Y-34225889D01*
X500Y-34225889D01*
X500Y-12754043D01*
X6995437Y-12754043D01*
X7014197Y-13040271D01*
X7015253Y-13048293D01*
X7071210Y-13329608D01*
X7073307Y-13337436D01*
X7165505Y-13609038D01*
X7168607Y-13616528D01*
X7295466Y-13873774D01*
X7299516Y-13880788D01*
X7458866Y-14119271D01*
X7463805Y-14125708D01*
X7490405Y-14156039D01*
X7490406Y-14156039D01*
X8279438Y-13367007D01*
X8328348Y-13445999D01*
X8471931Y-13603501D01*
X8630388Y-13723163D01*
X7843959Y-14509592D01*
X7843959Y-14509593D01*
X7874291Y-14536194D01*
X7880728Y-14541133D01*
X8119211Y-14700483D01*
X8126225Y-14704533D01*
X8383471Y-14831392D01*
X8390961Y-14834494D01*
X8662563Y-14926692D01*
X8670391Y-14928789D01*
X8951706Y-14984746D01*
X8959728Y-14985802D01*
X9245957Y-15004563D01*
X9254043Y-15004563D01*
X9540271Y-14985802D01*
X9548293Y-14984746D01*
X9829608Y-14928789D01*
X9837436Y-14926692D01*
X10109038Y-14834494D01*
X10116528Y-14831392D01*
X10373774Y-14704533D01*
X10380788Y-14700483D01*
X10619273Y-14541132D01*
X10625698Y-14536201D01*
X10656040Y-14509592D01*
X9869611Y-13723163D01*
X10028069Y-13603501D01*
X10171652Y-13445999D01*
X10220560Y-13367008D01*
X11009592Y-14156040D01*
X11036201Y-14125698D01*
X11041132Y-14119273D01*
X11200483Y-13880788D01*
X11204533Y-13873774D01*
X11331392Y-13616528D01*
X11334494Y-13609038D01*
X11426692Y-13337436D01*
X11428789Y-13329608D01*
X11484746Y-13048293D01*
X11485802Y-13040271D01*
X11504563Y-12754043D01*
X11504563Y-12745956D01*
X11485802Y-12459728D01*
X11484746Y-12451706D01*
X11428789Y-12170391D01*
X11426692Y-12162563D01*
X11334494Y-11890961D01*
X11331392Y-11883471D01*
X11204533Y-11626225D01*
X11200483Y-11619211D01*
X11041133Y-11380728D01*
X11036194Y-11374291D01*
X11009592Y-11343959D01*
X10220560Y-12132991D01*
X10171652Y-12054001D01*
X10028069Y-11896499D01*
X9869610Y-11776835D01*
X10656039Y-10990406D01*
X10656039Y-10990405D01*
X10625708Y-10963805D01*
X10619271Y-10958866D01*
X10380788Y-10799516D01*
X10373774Y-10795466D01*
X10116528Y-10668607D01*
X10109038Y-10665505D01*
X9837436Y-10573307D01*
X9829608Y-10571210D01*
X9548293Y-10515253D01*
X9540271Y-10514197D01*
X9254043Y-10495437D01*
X9245957Y-10495437D01*
X8959728Y-10514197D01*
X8951706Y-10515253D01*
X8670391Y-10571210D01*
X8662563Y-10573307D01*
X8390961Y-10665505D01*
X8383471Y-10668607D01*
X8126225Y-10795466D01*
X8119211Y-10799516D01*
X7880723Y-10958869D01*
X7874295Y-10963801D01*
X7843958Y-10990405D01*
X7843958Y-10990406D01*
X8630388Y-11776836D01*
X8471931Y-11896499D01*
X8328348Y-12054001D01*
X8279439Y-12132991D01*
X7490406Y-11343958D01*
X7490405Y-11343958D01*
X7463801Y-11374295D01*
X7458869Y-11380723D01*
X7299516Y-11619211D01*
X7295466Y-11626225D01*
X7168607Y-11883471D01*
X7165505Y-11890961D01*
X7073307Y-12162563D01*
X7071210Y-12170391D01*
X7015253Y-12451706D01*
X7014197Y-12459728D01*
X6995437Y-12745956D01*
X6995437Y-12754043D01*
X500Y-12754043D01*
X500Y-124500D01*
X20185Y-57461D01*
X72989Y-11706D01*
X124500Y-500D01*
X35375500Y-500D01*
X35442539Y-20185D01*
G37*
%TD.AperFunction*%
%TD*%
M02*
