%TF.GenerationSoftware,KiCad,Pcbnew,7.0.2*%
%TF.CreationDate,2023-10-04T18:59:29-06:00*%
%TF.ProjectId,micro-d-tes-aaray,6d696372-6f2d-4642-9d74-65732d616172,rev?*%
%TF.SameCoordinates,Original*%
%TF.FileFunction,Copper,L3,Inr*%
%TF.FilePolarity,Positive*%
%FSLAX46Y46*%
G04 Gerber Fmt 4.6, Leading zero omitted, Abs format (unit mm)*
G04 Created by KiCad (PCBNEW 7.0.2) date 2023-10-04 18:59:29*
%MOMM*%
%LPD*%
G01*
G04 APERTURE LIST*
%TA.AperFunction,ComponentPad*%
%ADD10C,3.500000*%
%TD*%
%TA.AperFunction,ComponentPad*%
%ADD11O,0.920000X0.920000*%
%TD*%
G04 APERTURE END LIST*
D10*
%TO.N,GND*%
%TO.C,H1*%
X9250000Y-50750000D03*
%TD*%
%TO.N,GND*%
%TO.C,H4*%
X9250000Y-12750000D03*
%TD*%
%TO.N,GND*%
%TO.C,H3*%
X26250000Y-50750000D03*
%TD*%
%TO.N,GND*%
%TO.C,H2*%
X26250000Y-12750000D03*
%TD*%
D11*
%TO.N,Net-(J1-Pin_1)*%
%TO.C,J99*%
X25370000Y-5374500D03*
%TO.N,Net-(J2-Pin_1)*%
X24100000Y-5374500D03*
%TO.N,Net-(J3-Pin_1)*%
X22830000Y-5374500D03*
%TO.N,Net-(J4-Pin_1)*%
X21560000Y-5374500D03*
%TO.N,Net-(J5-Pin_1)*%
X20290000Y-5374500D03*
%TO.N,Net-(J6-Pin_1)*%
X19020000Y-5374500D03*
%TO.N,Net-(J7-Pin_1)*%
X17750000Y-5374500D03*
%TO.N,Net-(J8-Pin_1)*%
X16480000Y-5374500D03*
%TO.N,Net-(J9-Pin_1)*%
X15210000Y-5374500D03*
%TO.N,Net-(J10-Pin_1)*%
X13940000Y-5374500D03*
%TO.N,Net-(J11-Pin_1)*%
X12670000Y-5374500D03*
%TO.N,Net-(J12-Pin_1)*%
X11400000Y-5374500D03*
%TO.N,Net-(J13-Pin_1)*%
X10130000Y-5374500D03*
%TO.N,Net-(J14-Pin_1)*%
X24735000Y-6474500D03*
%TO.N,Net-(J15-Pin_1)*%
X23465000Y-6474500D03*
%TO.N,Net-(J16-Pin_1)*%
X22195000Y-6474500D03*
%TO.N,Net-(J17-Pin_1)*%
X20925000Y-6474500D03*
%TO.N,Net-(J18-Pin_1)*%
X19655000Y-6474500D03*
%TO.N,Net-(J19-Pin_1)*%
X18385000Y-6474500D03*
%TO.N,Net-(J20-Pin_1)*%
X17115000Y-6474500D03*
%TO.N,Net-(J21-Pin_1)*%
X15845000Y-6474500D03*
%TO.N,Net-(J22-Pin_1)*%
X14575000Y-6474500D03*
%TO.N,Net-(J23-Pin_1)*%
X13305000Y-6474500D03*
%TO.N,Net-(J24-Pin_1)*%
X12035000Y-6474500D03*
%TO.N,Net-(J25-Pin_1)*%
X10765000Y-6474500D03*
%TD*%
%TO.N,Net-(D1-Pin_1)*%
%TO.C,J26*%
X10130000Y-58124500D03*
%TO.N,Net-(D2-Pin_1)*%
X11400000Y-58124500D03*
%TO.N,Net-(D3-Pin_1)*%
X12670000Y-58124500D03*
%TO.N,Net-(D4-Pin_1)*%
X13940000Y-58124500D03*
%TO.N,Net-(D5-Pin_1)*%
X15210000Y-58124500D03*
%TO.N,Net-(D6-Pin_1)*%
X16480000Y-58124500D03*
%TO.N,Net-(D7-Pin_1)*%
X17750000Y-58124500D03*
%TO.N,Net-(D8-Pin_1)*%
X19020000Y-58124500D03*
%TO.N,Net-(D9-Pin_1)*%
X20290000Y-58124500D03*
%TO.N,Net-(D10-Pin_1)*%
X21560000Y-58124500D03*
%TO.N,Net-(D11-Pin_1)*%
X22830000Y-58124500D03*
%TO.N,Net-(D12-Pin_1)*%
X24100000Y-58124500D03*
%TO.N,Net-(D13-Pin_1)*%
X25370000Y-58124500D03*
%TO.N,Net-(D14-Pin_1)*%
X10765000Y-57024500D03*
%TO.N,Net-(D15-Pin_1)*%
X12035000Y-57024500D03*
%TO.N,Net-(D16-Pin_1)*%
X13305000Y-57024500D03*
%TO.N,Net-(D17-Pin_1)*%
X14575000Y-57024500D03*
%TO.N,Net-(D18-Pin_1)*%
X15845000Y-57024500D03*
%TO.N,Net-(D19-Pin_1)*%
X17115000Y-57024500D03*
%TO.N,Net-(D20-Pin_1)*%
X18385000Y-57024500D03*
%TO.N,Net-(D21-Pin_1)*%
X19655000Y-57024500D03*
%TO.N,Net-(D22-Pin_1)*%
X20925000Y-57024500D03*
%TO.N,Net-(D23-Pin_1)*%
X22195000Y-57024500D03*
%TO.N,Net-(D24-Pin_1)*%
X23465000Y-57024500D03*
%TO.N,Net-(D25-Pin_1)*%
X24735000Y-57024500D03*
%TD*%
%TA.AperFunction,Conductor*%
%TO.N,GND*%
G36*
X35442539Y-20185D02*
G01*
X35488294Y-72989D01*
X35499500Y-124500D01*
X35499500Y-63375500D01*
X35479815Y-63442539D01*
X35427011Y-63488294D01*
X35375500Y-63499500D01*
X124500Y-63499500D01*
X57461Y-63479815D01*
X11706Y-63427011D01*
X500Y-63375500D01*
X500Y-58124500D01*
X9164853Y-58124500D01*
X9183397Y-58312789D01*
X9183398Y-58312791D01*
X9238320Y-58493846D01*
X9327510Y-58660707D01*
X9374409Y-58717854D01*
X9447537Y-58806962D01*
X9494999Y-58845912D01*
X9593793Y-58926990D01*
X9760654Y-59016180D01*
X9941709Y-59071102D01*
X10130000Y-59089647D01*
X10318291Y-59071102D01*
X10499346Y-59016180D01*
X10666207Y-58926990D01*
X10686332Y-58910473D01*
X10750642Y-58883158D01*
X10819510Y-58894948D01*
X10843662Y-58910469D01*
X10863793Y-58926990D01*
X11030654Y-59016180D01*
X11211709Y-59071102D01*
X11400000Y-59089647D01*
X11588291Y-59071102D01*
X11769346Y-59016180D01*
X11936207Y-58926990D01*
X11956332Y-58910473D01*
X12020642Y-58883158D01*
X12089510Y-58894948D01*
X12113662Y-58910469D01*
X12133793Y-58926990D01*
X12300654Y-59016180D01*
X12481709Y-59071102D01*
X12670000Y-59089647D01*
X12858291Y-59071102D01*
X13039346Y-59016180D01*
X13206207Y-58926990D01*
X13226335Y-58910470D01*
X13290644Y-58883158D01*
X13359512Y-58894949D01*
X13383663Y-58910470D01*
X13403793Y-58926990D01*
X13570654Y-59016180D01*
X13751709Y-59071102D01*
X13940000Y-59089647D01*
X14128291Y-59071102D01*
X14309346Y-59016180D01*
X14476207Y-58926990D01*
X14496333Y-58910472D01*
X14560641Y-58883158D01*
X14629509Y-58894948D01*
X14653663Y-58910470D01*
X14653667Y-58910473D01*
X14673793Y-58926990D01*
X14840654Y-59016180D01*
X15021709Y-59071102D01*
X15210000Y-59089647D01*
X15398291Y-59071102D01*
X15579346Y-59016180D01*
X15746207Y-58926990D01*
X15766332Y-58910473D01*
X15830642Y-58883158D01*
X15899510Y-58894948D01*
X15923662Y-58910469D01*
X15943793Y-58926990D01*
X16110654Y-59016180D01*
X16291709Y-59071102D01*
X16480000Y-59089647D01*
X16668291Y-59071102D01*
X16849346Y-59016180D01*
X17016207Y-58926990D01*
X17036333Y-58910472D01*
X17100641Y-58883158D01*
X17169509Y-58894948D01*
X17193663Y-58910470D01*
X17193667Y-58910473D01*
X17213793Y-58926990D01*
X17380654Y-59016180D01*
X17561709Y-59071102D01*
X17750000Y-59089647D01*
X17938291Y-59071102D01*
X18119346Y-59016180D01*
X18286207Y-58926990D01*
X18306335Y-58910470D01*
X18370644Y-58883158D01*
X18439512Y-58894949D01*
X18463663Y-58910470D01*
X18483793Y-58926990D01*
X18650654Y-59016180D01*
X18831709Y-59071102D01*
X19020000Y-59089647D01*
X19208291Y-59071102D01*
X19389346Y-59016180D01*
X19556207Y-58926990D01*
X19576333Y-58910472D01*
X19640641Y-58883158D01*
X19709509Y-58894948D01*
X19733663Y-58910470D01*
X19733667Y-58910473D01*
X19753793Y-58926990D01*
X19920654Y-59016180D01*
X20101709Y-59071102D01*
X20290000Y-59089647D01*
X20478291Y-59071102D01*
X20659346Y-59016180D01*
X20826207Y-58926990D01*
X20846335Y-58910470D01*
X20910644Y-58883158D01*
X20979512Y-58894949D01*
X21003663Y-58910470D01*
X21023793Y-58926990D01*
X21190654Y-59016180D01*
X21371709Y-59071102D01*
X21560000Y-59089647D01*
X21748291Y-59071102D01*
X21929346Y-59016180D01*
X22096207Y-58926990D01*
X22116333Y-58910472D01*
X22180641Y-58883158D01*
X22249509Y-58894948D01*
X22273663Y-58910470D01*
X22273667Y-58910473D01*
X22293793Y-58926990D01*
X22460654Y-59016180D01*
X22641709Y-59071102D01*
X22830000Y-59089647D01*
X23018291Y-59071102D01*
X23199346Y-59016180D01*
X23366207Y-58926990D01*
X23386335Y-58910470D01*
X23450644Y-58883158D01*
X23519512Y-58894949D01*
X23543663Y-58910470D01*
X23563793Y-58926990D01*
X23730654Y-59016180D01*
X23911709Y-59071102D01*
X24100000Y-59089647D01*
X24288291Y-59071102D01*
X24469346Y-59016180D01*
X24636207Y-58926990D01*
X24656333Y-58910472D01*
X24720641Y-58883158D01*
X24789509Y-58894948D01*
X24813663Y-58910470D01*
X24813667Y-58910473D01*
X24833793Y-58926990D01*
X25000654Y-59016180D01*
X25181709Y-59071102D01*
X25370000Y-59089647D01*
X25558291Y-59071102D01*
X25739346Y-59016180D01*
X25906207Y-58926990D01*
X26052462Y-58806962D01*
X26172490Y-58660707D01*
X26261680Y-58493846D01*
X26316602Y-58312791D01*
X26335147Y-58124500D01*
X26316602Y-57936209D01*
X26261680Y-57755154D01*
X26172490Y-57588293D01*
X26112476Y-57515165D01*
X26052462Y-57442037D01*
X25906207Y-57322010D01*
X25906203Y-57322008D01*
X25755683Y-57241552D01*
X25705841Y-57192591D01*
X25690381Y-57124454D01*
X25690731Y-57120099D01*
X25700147Y-57024500D01*
X25681602Y-56836209D01*
X25626680Y-56655154D01*
X25537490Y-56488293D01*
X25477475Y-56415165D01*
X25417462Y-56342037D01*
X25310247Y-56254049D01*
X25271207Y-56222010D01*
X25104346Y-56132820D01*
X25013818Y-56105359D01*
X24923289Y-56077897D01*
X24735000Y-56059353D01*
X24546710Y-56077897D01*
X24365651Y-56132821D01*
X24198794Y-56222009D01*
X24178661Y-56238531D01*
X24114350Y-56265842D01*
X24045483Y-56254048D01*
X24021334Y-56238528D01*
X24001207Y-56222010D01*
X23834346Y-56132820D01*
X23743818Y-56105359D01*
X23653289Y-56077897D01*
X23485569Y-56061378D01*
X23465000Y-56059353D01*
X23464999Y-56059353D01*
X23276710Y-56077897D01*
X23095651Y-56132821D01*
X22928793Y-56222009D01*
X22908664Y-56238529D01*
X22844353Y-56265841D01*
X22775486Y-56254049D01*
X22751336Y-56238529D01*
X22731206Y-56222009D01*
X22564348Y-56132821D01*
X22564347Y-56132820D01*
X22564346Y-56132820D01*
X22473818Y-56105359D01*
X22383289Y-56077897D01*
X22195000Y-56059353D01*
X22006710Y-56077897D01*
X21825651Y-56132821D01*
X21658794Y-56222009D01*
X21638661Y-56238531D01*
X21574350Y-56265842D01*
X21505483Y-56254048D01*
X21481334Y-56238528D01*
X21461207Y-56222010D01*
X21294346Y-56132820D01*
X21203818Y-56105359D01*
X21113289Y-56077897D01*
X20945569Y-56061378D01*
X20925000Y-56059353D01*
X20924999Y-56059353D01*
X20736710Y-56077897D01*
X20555651Y-56132821D01*
X20388793Y-56222009D01*
X20368664Y-56238529D01*
X20304353Y-56265841D01*
X20235486Y-56254049D01*
X20211336Y-56238529D01*
X20191206Y-56222009D01*
X20024348Y-56132821D01*
X20024347Y-56132820D01*
X20024346Y-56132820D01*
X19933818Y-56105359D01*
X19843289Y-56077897D01*
X19655000Y-56059353D01*
X19466710Y-56077897D01*
X19285651Y-56132821D01*
X19118794Y-56222009D01*
X19098661Y-56238531D01*
X19034350Y-56265842D01*
X18965483Y-56254048D01*
X18941334Y-56238528D01*
X18921207Y-56222010D01*
X18754346Y-56132820D01*
X18663818Y-56105359D01*
X18573289Y-56077897D01*
X18385000Y-56059353D01*
X18196710Y-56077897D01*
X18015651Y-56132821D01*
X17848793Y-56222009D01*
X17828664Y-56238529D01*
X17764353Y-56265841D01*
X17695486Y-56254049D01*
X17671336Y-56238529D01*
X17651206Y-56222009D01*
X17484348Y-56132821D01*
X17484347Y-56132820D01*
X17484346Y-56132820D01*
X17393818Y-56105359D01*
X17303289Y-56077897D01*
X17135569Y-56061378D01*
X17115000Y-56059353D01*
X17114999Y-56059353D01*
X16926710Y-56077897D01*
X16745651Y-56132821D01*
X16578794Y-56222009D01*
X16558661Y-56238531D01*
X16494350Y-56265842D01*
X16425483Y-56254048D01*
X16401334Y-56238528D01*
X16381207Y-56222010D01*
X16214346Y-56132820D01*
X16123818Y-56105359D01*
X16033289Y-56077897D01*
X15845000Y-56059353D01*
X15656710Y-56077897D01*
X15475651Y-56132821D01*
X15308793Y-56222009D01*
X15288664Y-56238529D01*
X15224353Y-56265841D01*
X15155486Y-56254049D01*
X15131336Y-56238529D01*
X15111206Y-56222009D01*
X14944348Y-56132821D01*
X14944347Y-56132820D01*
X14944346Y-56132820D01*
X14853818Y-56105359D01*
X14763289Y-56077897D01*
X14595569Y-56061378D01*
X14575000Y-56059353D01*
X14574999Y-56059353D01*
X14386710Y-56077897D01*
X14205651Y-56132821D01*
X14038794Y-56222009D01*
X14018661Y-56238531D01*
X13954350Y-56265842D01*
X13885483Y-56254048D01*
X13861334Y-56238528D01*
X13841207Y-56222010D01*
X13674346Y-56132820D01*
X13583818Y-56105359D01*
X13493289Y-56077897D01*
X13325569Y-56061378D01*
X13305000Y-56059353D01*
X13304999Y-56059353D01*
X13116710Y-56077897D01*
X12935651Y-56132821D01*
X12768793Y-56222009D01*
X12748664Y-56238529D01*
X12684353Y-56265841D01*
X12615486Y-56254049D01*
X12591336Y-56238529D01*
X12571206Y-56222009D01*
X12404348Y-56132821D01*
X12404347Y-56132820D01*
X12404346Y-56132820D01*
X12313818Y-56105359D01*
X12223289Y-56077897D01*
X12035000Y-56059353D01*
X11846710Y-56077897D01*
X11665651Y-56132821D01*
X11498794Y-56222009D01*
X11478661Y-56238531D01*
X11414350Y-56265842D01*
X11345483Y-56254048D01*
X11321334Y-56238528D01*
X11301207Y-56222010D01*
X11134346Y-56132820D01*
X11043818Y-56105359D01*
X10953289Y-56077897D01*
X10785569Y-56061378D01*
X10765000Y-56059353D01*
X10764999Y-56059353D01*
X10576710Y-56077897D01*
X10395651Y-56132821D01*
X10228794Y-56222009D01*
X10082537Y-56342037D01*
X9962509Y-56488294D01*
X9873321Y-56655151D01*
X9818397Y-56836210D01*
X9799853Y-57024500D01*
X9809262Y-57120042D01*
X9796243Y-57188688D01*
X9748177Y-57239398D01*
X9744314Y-57241552D01*
X9593794Y-57322008D01*
X9447537Y-57442037D01*
X9327509Y-57588294D01*
X9238321Y-57755151D01*
X9183397Y-57936210D01*
X9164853Y-58124500D01*
X500Y-58124500D01*
X500Y-50754043D01*
X6995437Y-50754043D01*
X7014197Y-51040271D01*
X7015253Y-51048293D01*
X7071210Y-51329608D01*
X7073307Y-51337436D01*
X7165505Y-51609038D01*
X7168607Y-51616528D01*
X7295466Y-51873774D01*
X7299516Y-51880788D01*
X7458866Y-52119271D01*
X7463805Y-52125708D01*
X7490405Y-52156039D01*
X7490406Y-52156039D01*
X8279438Y-51367007D01*
X8328348Y-51445999D01*
X8471931Y-51603501D01*
X8630388Y-51723163D01*
X7843959Y-52509592D01*
X7843959Y-52509593D01*
X7874291Y-52536194D01*
X7880728Y-52541133D01*
X8119211Y-52700483D01*
X8126225Y-52704533D01*
X8383471Y-52831392D01*
X8390961Y-52834494D01*
X8662563Y-52926692D01*
X8670391Y-52928789D01*
X8951706Y-52984746D01*
X8959728Y-52985802D01*
X9245957Y-53004563D01*
X9254043Y-53004563D01*
X9540271Y-52985802D01*
X9548293Y-52984746D01*
X9829608Y-52928789D01*
X9837436Y-52926692D01*
X10109038Y-52834494D01*
X10116528Y-52831392D01*
X10373774Y-52704533D01*
X10380788Y-52700483D01*
X10619273Y-52541132D01*
X10625698Y-52536201D01*
X10656040Y-52509592D01*
X9869611Y-51723163D01*
X10028069Y-51603501D01*
X10171652Y-51445999D01*
X10220560Y-51367008D01*
X11009592Y-52156040D01*
X11036201Y-52125698D01*
X11041132Y-52119273D01*
X11200483Y-51880788D01*
X11204533Y-51873774D01*
X11331392Y-51616528D01*
X11334494Y-51609038D01*
X11426692Y-51337436D01*
X11428789Y-51329608D01*
X11484746Y-51048293D01*
X11485802Y-51040271D01*
X11504563Y-50754043D01*
X11504563Y-50745956D01*
X11485802Y-50459728D01*
X11484746Y-50451706D01*
X11428789Y-50170391D01*
X11426692Y-50162563D01*
X11334494Y-49890961D01*
X11331392Y-49883471D01*
X11265571Y-49749999D01*
X16017655Y-49749999D01*
X16023735Y-49831125D01*
X16021668Y-49840781D01*
X16026345Y-49871058D01*
X16027450Y-49880696D01*
X16027719Y-49884277D01*
X16028067Y-49893566D01*
X16028067Y-49919090D01*
X16031165Y-49930271D01*
X16037004Y-50008191D01*
X16055825Y-50090650D01*
X16055156Y-50101568D01*
X16064959Y-50132544D01*
X16067630Y-50142368D01*
X16068573Y-50146500D01*
X16070228Y-50155161D01*
X16073802Y-50178303D01*
X16077942Y-50187549D01*
X16094619Y-50260619D01*
X16126701Y-50342361D01*
X16127758Y-50354295D01*
X16142887Y-50384849D01*
X16147182Y-50394546D01*
X16149237Y-50399782D01*
X16152023Y-50407652D01*
X16158327Y-50427574D01*
X16162991Y-50434827D01*
X16189212Y-50501636D01*
X16234745Y-50580501D01*
X16237808Y-50593130D01*
X16258209Y-50622133D01*
X16264171Y-50631470D01*
X16268002Y-50638105D01*
X16271741Y-50645086D01*
X16279687Y-50661134D01*
X16284366Y-50666447D01*
X16318670Y-50725865D01*
X16377481Y-50799610D01*
X16382767Y-50812558D01*
X16408167Y-50838951D01*
X16415767Y-50847621D01*
X16422313Y-50855829D01*
X16426790Y-50861803D01*
X16435058Y-50873557D01*
X16439269Y-50877091D01*
X16480101Y-50928292D01*
X16551639Y-50994670D01*
X16559289Y-51007514D01*
X16589218Y-51030328D01*
X16598377Y-51038036D01*
X16608836Y-51047741D01*
X16613825Y-51052641D01*
X16620861Y-51059952D01*
X16624171Y-51061971D01*
X16669894Y-51104396D01*
X16669900Y-51104400D01*
X16669901Y-51104401D01*
X16713263Y-51133965D01*
X16753241Y-51161221D01*
X16763321Y-51173514D01*
X16797135Y-51191902D01*
X16807750Y-51198385D01*
X16823372Y-51209036D01*
X16828693Y-51212873D01*
X16832767Y-51215978D01*
X16834813Y-51216836D01*
X16883827Y-51250254D01*
X16927181Y-51271131D01*
X16977668Y-51295445D01*
X16990159Y-51306722D01*
X17027072Y-51319980D01*
X17038958Y-51324961D01*
X17061245Y-51335693D01*
X17065761Y-51338006D01*
X17066359Y-51338156D01*
X17117104Y-51362594D01*
X17219776Y-51394264D01*
X17234563Y-51404053D01*
X17273657Y-51411635D01*
X17286587Y-51414872D01*
X17364517Y-51438911D01*
X17474019Y-51455415D01*
X17490898Y-51463263D01*
X17531190Y-51464808D01*
X17544920Y-51466102D01*
X17620542Y-51477500D01*
X17734590Y-51477500D01*
X17753287Y-51482990D01*
X17793759Y-51478318D01*
X17807980Y-51477500D01*
X17879457Y-51477500D01*
X17879458Y-51477500D01*
X17995495Y-51460010D01*
X18015639Y-51462767D01*
X18055227Y-51451888D01*
X18069599Y-51448841D01*
X18135483Y-51438911D01*
X18250781Y-51403345D01*
X18271945Y-51403057D01*
X18309645Y-51386157D01*
X18323817Y-51380817D01*
X18382896Y-51362594D01*
X18494593Y-51308803D01*
X18516275Y-51305232D01*
X18551108Y-51282675D01*
X18564694Y-51275044D01*
X18616172Y-51250254D01*
X18721347Y-51178546D01*
X18743012Y-51171539D01*
X18774085Y-51143847D01*
X18786731Y-51133968D01*
X18830099Y-51104401D01*
X18925848Y-51015558D01*
X18946926Y-51005052D01*
X18973453Y-50972886D01*
X18984772Y-50960884D01*
X19019898Y-50928293D01*
X19103406Y-50823576D01*
X19123302Y-50809611D01*
X19144618Y-50773757D01*
X19154249Y-50759822D01*
X19158858Y-50754043D01*
X23995437Y-50754043D01*
X24014197Y-51040271D01*
X24015253Y-51048293D01*
X24071210Y-51329608D01*
X24073307Y-51337436D01*
X24165505Y-51609038D01*
X24168607Y-51616528D01*
X24295466Y-51873774D01*
X24299516Y-51880788D01*
X24458866Y-52119271D01*
X24463805Y-52125708D01*
X24490405Y-52156039D01*
X24490406Y-52156039D01*
X25279438Y-51367007D01*
X25328348Y-51445999D01*
X25471931Y-51603501D01*
X25630388Y-51723163D01*
X24843959Y-52509592D01*
X24843959Y-52509593D01*
X24874291Y-52536194D01*
X24880728Y-52541133D01*
X25119211Y-52700483D01*
X25126225Y-52704533D01*
X25383471Y-52831392D01*
X25390961Y-52834494D01*
X25662563Y-52926692D01*
X25670391Y-52928789D01*
X25951706Y-52984746D01*
X25959728Y-52985802D01*
X26245957Y-53004563D01*
X26254043Y-53004563D01*
X26540271Y-52985802D01*
X26548293Y-52984746D01*
X26829608Y-52928789D01*
X26837436Y-52926692D01*
X27109038Y-52834494D01*
X27116528Y-52831392D01*
X27373774Y-52704533D01*
X27380788Y-52700483D01*
X27619273Y-52541132D01*
X27625698Y-52536201D01*
X27656040Y-52509592D01*
X26869611Y-51723163D01*
X27028069Y-51603501D01*
X27171652Y-51445999D01*
X27220560Y-51367008D01*
X28009592Y-52156040D01*
X28036201Y-52125698D01*
X28041132Y-52119273D01*
X28200483Y-51880788D01*
X28204533Y-51873774D01*
X28331392Y-51616528D01*
X28334494Y-51609038D01*
X28426692Y-51337436D01*
X28428789Y-51329608D01*
X28484746Y-51048293D01*
X28485802Y-51040271D01*
X28504563Y-50754043D01*
X28504563Y-50745956D01*
X28485802Y-50459728D01*
X28484746Y-50451706D01*
X28428789Y-50170391D01*
X28426692Y-50162563D01*
X28334494Y-49890961D01*
X28331392Y-49883471D01*
X28204533Y-49626225D01*
X28200483Y-49619211D01*
X28041133Y-49380728D01*
X28036194Y-49374291D01*
X28009592Y-49343959D01*
X27220560Y-50132991D01*
X27171652Y-50054001D01*
X27028069Y-49896499D01*
X26869610Y-49776835D01*
X27656039Y-48990406D01*
X27656039Y-48990405D01*
X27625708Y-48963805D01*
X27619271Y-48958866D01*
X27380788Y-48799516D01*
X27373774Y-48795466D01*
X27116528Y-48668607D01*
X27109038Y-48665505D01*
X26837436Y-48573307D01*
X26829608Y-48571210D01*
X26548293Y-48515253D01*
X26540271Y-48514197D01*
X26254043Y-48495437D01*
X26245957Y-48495437D01*
X25959728Y-48514197D01*
X25951706Y-48515253D01*
X25670391Y-48571210D01*
X25662563Y-48573307D01*
X25390961Y-48665505D01*
X25383471Y-48668607D01*
X25126225Y-48795466D01*
X25119211Y-48799516D01*
X24880723Y-48958869D01*
X24874295Y-48963801D01*
X24843958Y-48990405D01*
X24843958Y-48990406D01*
X25630388Y-49776836D01*
X25471931Y-49896499D01*
X25328348Y-50054001D01*
X25279439Y-50132991D01*
X24490406Y-49343958D01*
X24490405Y-49343958D01*
X24463801Y-49374295D01*
X24458869Y-49380723D01*
X24299516Y-49619211D01*
X24295466Y-49626225D01*
X24168607Y-49883471D01*
X24165505Y-49890961D01*
X24073307Y-50162563D01*
X24071210Y-50170391D01*
X24015253Y-50451706D01*
X24014197Y-50459728D01*
X23995437Y-50745956D01*
X23995437Y-50754043D01*
X19158858Y-50754043D01*
X19181330Y-50725864D01*
X19231998Y-50638105D01*
X19249965Y-50606985D01*
X19268098Y-50589693D01*
X19283685Y-50551021D01*
X19291300Y-50535388D01*
X19310788Y-50501636D01*
X19405381Y-50260617D01*
X19462995Y-50008192D01*
X19482344Y-49750000D01*
X19462995Y-49491808D01*
X19405381Y-49239383D01*
X19310788Y-48998364D01*
X19291307Y-48964622D01*
X19283686Y-48948980D01*
X19271270Y-48918175D01*
X19249967Y-48893019D01*
X19181328Y-48774132D01*
X19154259Y-48740189D01*
X19144619Y-48726243D01*
X19127508Y-48697463D01*
X19103410Y-48676428D01*
X19019898Y-48571707D01*
X18984778Y-48539120D01*
X18973455Y-48527116D01*
X18951997Y-48501096D01*
X18925849Y-48484442D01*
X18830096Y-48395596D01*
X18786740Y-48366036D01*
X18774092Y-48356156D01*
X18748769Y-48333588D01*
X18721351Y-48321455D01*
X18616172Y-48249746D01*
X18616171Y-48249745D01*
X18616169Y-48249744D01*
X18564714Y-48224965D01*
X18551114Y-48217327D01*
X18522515Y-48198807D01*
X18494593Y-48191196D01*
X18382900Y-48137407D01*
X18323822Y-48119184D01*
X18309649Y-48113844D01*
X18278476Y-48099869D01*
X18250781Y-48096653D01*
X18135485Y-48061089D01*
X18069616Y-48051161D01*
X18055241Y-48048114D01*
X18022270Y-48039053D01*
X17995496Y-48039989D01*
X17879459Y-48022500D01*
X17879458Y-48022500D01*
X17807975Y-48022500D01*
X17793755Y-48021682D01*
X17759824Y-48017765D01*
X17734589Y-48022500D01*
X17620542Y-48022500D01*
X17544939Y-48033895D01*
X17531207Y-48035189D01*
X17497191Y-48036492D01*
X17474020Y-48044584D01*
X17364515Y-48061089D01*
X17286612Y-48085119D01*
X17273671Y-48088360D01*
X17240452Y-48094802D01*
X17219778Y-48105735D01*
X17117101Y-48137406D01*
X17066361Y-48161842D01*
X17065906Y-48161916D01*
X17061223Y-48164316D01*
X17038971Y-48175033D01*
X17027079Y-48180016D01*
X16995508Y-48191354D01*
X16977669Y-48204554D01*
X16883828Y-48249746D01*
X16834810Y-48283165D01*
X16833208Y-48283682D01*
X16828678Y-48287136D01*
X16823363Y-48290969D01*
X16807760Y-48301607D01*
X16797147Y-48308089D01*
X16768038Y-48323918D01*
X16753243Y-48338776D01*
X16669900Y-48395599D01*
X16624171Y-48438029D01*
X16621539Y-48439340D01*
X16613806Y-48447376D01*
X16608807Y-48452285D01*
X16598392Y-48461949D01*
X16589222Y-48469668D01*
X16563304Y-48489424D01*
X16551640Y-48505329D01*
X16480101Y-48571708D01*
X16439269Y-48622908D01*
X16435862Y-48625299D01*
X16426788Y-48638199D01*
X16422320Y-48644161D01*
X16415776Y-48652368D01*
X16408169Y-48661047D01*
X16386034Y-48684046D01*
X16377482Y-48700386D01*
X16318671Y-48774132D01*
X16284365Y-48833553D01*
X16280486Y-48837250D01*
X16271739Y-48854917D01*
X16268005Y-48861888D01*
X16264174Y-48868524D01*
X16258209Y-48877867D01*
X16240329Y-48903287D01*
X16234747Y-48919495D01*
X16189212Y-48998364D01*
X16162992Y-49065171D01*
X16158989Y-49070331D01*
X16152020Y-49092354D01*
X16149231Y-49100233D01*
X16147196Y-49105419D01*
X16142889Y-49115146D01*
X16129550Y-49142084D01*
X16126702Y-49157636D01*
X16094619Y-49239383D01*
X16077942Y-49312449D01*
X16074195Y-49319147D01*
X16070226Y-49344842D01*
X16068576Y-49353483D01*
X16067635Y-49357609D01*
X16064960Y-49367450D01*
X16056268Y-49394914D01*
X16055825Y-49409348D01*
X16037004Y-49491808D01*
X16031165Y-49569727D01*
X16028067Y-49577947D01*
X16028067Y-49606433D01*
X16027718Y-49615727D01*
X16027449Y-49619306D01*
X16026345Y-49628938D01*
X16022176Y-49655931D01*
X16023735Y-49668872D01*
X16017655Y-49749999D01*
X11265571Y-49749999D01*
X11204533Y-49626225D01*
X11200483Y-49619211D01*
X11041133Y-49380728D01*
X11036194Y-49374291D01*
X11009592Y-49343959D01*
X10220560Y-50132991D01*
X10171652Y-50054001D01*
X10028069Y-49896499D01*
X9869610Y-49776835D01*
X10656039Y-48990406D01*
X10656039Y-48990405D01*
X10625708Y-48963805D01*
X10619271Y-48958866D01*
X10380788Y-48799516D01*
X10373774Y-48795466D01*
X10116528Y-48668607D01*
X10109038Y-48665505D01*
X9837436Y-48573307D01*
X9829608Y-48571210D01*
X9548293Y-48515253D01*
X9540271Y-48514197D01*
X9254043Y-48495437D01*
X9245957Y-48495437D01*
X8959728Y-48514197D01*
X8951706Y-48515253D01*
X8670391Y-48571210D01*
X8662563Y-48573307D01*
X8390961Y-48665505D01*
X8383471Y-48668607D01*
X8126225Y-48795466D01*
X8119211Y-48799516D01*
X7880723Y-48958869D01*
X7874295Y-48963801D01*
X7843958Y-48990405D01*
X7843958Y-48990406D01*
X8630388Y-49776836D01*
X8471931Y-49896499D01*
X8328348Y-50054001D01*
X8279439Y-50132991D01*
X7490406Y-49343958D01*
X7490405Y-49343958D01*
X7463801Y-49374295D01*
X7458869Y-49380723D01*
X7299516Y-49619211D01*
X7295466Y-49626225D01*
X7168607Y-49883471D01*
X7165505Y-49890961D01*
X7073307Y-50162563D01*
X7071210Y-50170391D01*
X7015253Y-50451706D01*
X7014197Y-50459728D01*
X6995437Y-50745956D01*
X6995437Y-50754043D01*
X500Y-50754043D01*
X500Y-34225889D01*
X5679416Y-34225889D01*
X5679459Y-34250000D01*
X5679501Y-34250101D01*
X5679616Y-34250382D01*
X5679618Y-34250384D01*
X5679808Y-34250462D01*
X5680000Y-34250541D01*
X5680002Y-34250539D01*
X5704616Y-34250524D01*
X5704616Y-34250528D01*
X5704760Y-34250500D01*
X12555500Y-34250500D01*
X12622539Y-34270185D01*
X12668294Y-34322989D01*
X12679500Y-34374500D01*
X12679500Y-36825467D01*
X12679416Y-36825889D01*
X12679459Y-36850000D01*
X12679501Y-36850101D01*
X12679616Y-36850382D01*
X12679618Y-36850384D01*
X12679808Y-36850462D01*
X12680000Y-36850541D01*
X12680002Y-36850539D01*
X12704616Y-36850524D01*
X12704616Y-36850528D01*
X12704760Y-36850500D01*
X22795240Y-36850500D01*
X22795383Y-36850528D01*
X22795384Y-36850524D01*
X22819997Y-36850539D01*
X22820000Y-36850541D01*
X22820383Y-36850383D01*
X22820500Y-36850099D01*
X22820541Y-36850000D01*
X22820540Y-36849997D01*
X22820583Y-36825889D01*
X22820500Y-36825467D01*
X22820500Y-34374500D01*
X22840185Y-34307461D01*
X22892989Y-34261706D01*
X22944500Y-34250500D01*
X29795240Y-34250500D01*
X29795383Y-34250528D01*
X29795384Y-34250524D01*
X29819997Y-34250539D01*
X29820000Y-34250541D01*
X29820383Y-34250383D01*
X29820500Y-34250099D01*
X29820541Y-34250000D01*
X29820540Y-34249997D01*
X29820583Y-34225889D01*
X29820500Y-34225467D01*
X29820500Y-29274759D01*
X29820528Y-29274616D01*
X29820524Y-29274616D01*
X29820539Y-29250002D01*
X29820541Y-29250000D01*
X29820462Y-29249808D01*
X29820384Y-29249618D01*
X29820383Y-29249617D01*
X29820379Y-29249615D01*
X29820097Y-29249499D01*
X29820000Y-29249459D01*
X29795446Y-29249459D01*
X29795240Y-29249500D01*
X22944500Y-29249500D01*
X22877461Y-29229815D01*
X22831706Y-29177011D01*
X22820500Y-29125500D01*
X22820500Y-26674759D01*
X22820528Y-26674616D01*
X22820524Y-26674616D01*
X22820539Y-26650002D01*
X22820541Y-26650000D01*
X22820462Y-26649808D01*
X22820384Y-26649618D01*
X22820383Y-26649617D01*
X22820379Y-26649615D01*
X22820097Y-26649499D01*
X22820000Y-26649459D01*
X22795446Y-26649459D01*
X22795240Y-26649500D01*
X12704760Y-26649500D01*
X12704554Y-26649459D01*
X12679999Y-26649459D01*
X12679900Y-26649500D01*
X12679618Y-26649615D01*
X12679615Y-26649618D01*
X12679459Y-26649999D01*
X12679476Y-26674616D01*
X12679471Y-26674616D01*
X12679500Y-26674759D01*
X12679500Y-29125500D01*
X12659815Y-29192539D01*
X12607011Y-29238294D01*
X12555500Y-29249500D01*
X5704760Y-29249500D01*
X5704554Y-29249459D01*
X5679999Y-29249459D01*
X5679900Y-29249500D01*
X5679618Y-29249615D01*
X5679615Y-29249618D01*
X5679459Y-29249999D01*
X5679476Y-29274616D01*
X5679471Y-29274616D01*
X5679500Y-29274759D01*
X5679500Y-34225467D01*
X5679416Y-34225889D01*
X500Y-34225889D01*
X500Y-12754043D01*
X6995437Y-12754043D01*
X7014197Y-13040271D01*
X7015253Y-13048293D01*
X7071210Y-13329608D01*
X7073307Y-13337436D01*
X7165505Y-13609038D01*
X7168607Y-13616528D01*
X7295466Y-13873774D01*
X7299516Y-13880788D01*
X7458866Y-14119271D01*
X7463805Y-14125708D01*
X7490405Y-14156039D01*
X7490406Y-14156039D01*
X8279438Y-13367007D01*
X8328348Y-13445999D01*
X8471931Y-13603501D01*
X8630388Y-13723163D01*
X7843959Y-14509592D01*
X7843959Y-14509593D01*
X7874291Y-14536194D01*
X7880728Y-14541133D01*
X8119211Y-14700483D01*
X8126225Y-14704533D01*
X8383471Y-14831392D01*
X8390961Y-14834494D01*
X8662563Y-14926692D01*
X8670391Y-14928789D01*
X8951706Y-14984746D01*
X8959728Y-14985802D01*
X9245957Y-15004563D01*
X9254043Y-15004563D01*
X9540271Y-14985802D01*
X9548293Y-14984746D01*
X9829608Y-14928789D01*
X9837436Y-14926692D01*
X10109038Y-14834494D01*
X10116528Y-14831392D01*
X10373774Y-14704533D01*
X10380788Y-14700483D01*
X10619273Y-14541132D01*
X10625698Y-14536201D01*
X10656040Y-14509592D01*
X9869611Y-13723163D01*
X10028069Y-13603501D01*
X10171652Y-13445999D01*
X10220560Y-13367008D01*
X11009592Y-14156040D01*
X11036201Y-14125698D01*
X11041132Y-14119273D01*
X11200483Y-13880788D01*
X11204533Y-13873774D01*
X11265572Y-13749999D01*
X16017655Y-13749999D01*
X16023735Y-13831125D01*
X16021668Y-13840781D01*
X16026345Y-13871058D01*
X16027450Y-13880696D01*
X16027719Y-13884277D01*
X16028067Y-13893566D01*
X16028067Y-13919090D01*
X16031165Y-13930271D01*
X16037004Y-14008191D01*
X16055825Y-14090650D01*
X16055156Y-14101568D01*
X16064959Y-14132544D01*
X16067630Y-14142368D01*
X16068573Y-14146500D01*
X16070228Y-14155161D01*
X16073802Y-14178303D01*
X16077942Y-14187549D01*
X16094619Y-14260619D01*
X16126701Y-14342361D01*
X16127758Y-14354295D01*
X16142887Y-14384849D01*
X16147182Y-14394546D01*
X16149237Y-14399782D01*
X16152023Y-14407652D01*
X16158327Y-14427574D01*
X16162991Y-14434827D01*
X16189212Y-14501636D01*
X16234745Y-14580501D01*
X16237808Y-14593130D01*
X16258209Y-14622133D01*
X16264171Y-14631470D01*
X16268002Y-14638105D01*
X16271741Y-14645086D01*
X16279687Y-14661134D01*
X16284366Y-14666447D01*
X16318670Y-14725865D01*
X16377481Y-14799610D01*
X16382767Y-14812558D01*
X16408167Y-14838951D01*
X16415767Y-14847621D01*
X16422313Y-14855829D01*
X16426790Y-14861803D01*
X16435058Y-14873557D01*
X16439269Y-14877091D01*
X16480101Y-14928292D01*
X16551639Y-14994670D01*
X16559289Y-15007514D01*
X16589218Y-15030328D01*
X16598377Y-15038036D01*
X16608836Y-15047741D01*
X16613825Y-15052641D01*
X16620861Y-15059952D01*
X16624171Y-15061971D01*
X16669894Y-15104396D01*
X16669900Y-15104400D01*
X16669901Y-15104401D01*
X16713263Y-15133965D01*
X16753241Y-15161221D01*
X16763321Y-15173514D01*
X16797135Y-15191902D01*
X16807750Y-15198385D01*
X16823372Y-15209036D01*
X16828693Y-15212873D01*
X16832767Y-15215978D01*
X16834813Y-15216836D01*
X16883827Y-15250254D01*
X16927181Y-15271131D01*
X16977668Y-15295445D01*
X16990159Y-15306722D01*
X17027072Y-15319980D01*
X17038958Y-15324961D01*
X17061245Y-15335693D01*
X17065761Y-15338006D01*
X17066359Y-15338156D01*
X17117104Y-15362594D01*
X17219776Y-15394264D01*
X17234563Y-15404053D01*
X17273657Y-15411635D01*
X17286587Y-15414872D01*
X17364517Y-15438911D01*
X17474019Y-15455415D01*
X17490898Y-15463263D01*
X17531190Y-15464808D01*
X17544920Y-15466102D01*
X17620542Y-15477500D01*
X17734590Y-15477500D01*
X17753287Y-15482990D01*
X17793759Y-15478318D01*
X17807980Y-15477500D01*
X17879457Y-15477500D01*
X17879458Y-15477500D01*
X17995495Y-15460010D01*
X18015639Y-15462767D01*
X18055227Y-15451888D01*
X18069599Y-15448841D01*
X18135483Y-15438911D01*
X18250781Y-15403345D01*
X18271945Y-15403057D01*
X18309645Y-15386157D01*
X18323817Y-15380817D01*
X18382896Y-15362594D01*
X18494593Y-15308803D01*
X18516275Y-15305232D01*
X18551108Y-15282675D01*
X18564694Y-15275044D01*
X18616172Y-15250254D01*
X18721347Y-15178546D01*
X18743012Y-15171539D01*
X18774085Y-15143847D01*
X18786731Y-15133968D01*
X18830099Y-15104401D01*
X18925848Y-15015558D01*
X18946926Y-15005052D01*
X18973453Y-14972886D01*
X18984772Y-14960884D01*
X19019898Y-14928293D01*
X19103406Y-14823576D01*
X19123302Y-14809611D01*
X19144618Y-14773757D01*
X19154249Y-14759822D01*
X19181330Y-14725864D01*
X19231998Y-14638105D01*
X19249965Y-14606985D01*
X19268098Y-14589693D01*
X19283685Y-14551021D01*
X19291300Y-14535388D01*
X19310788Y-14501636D01*
X19405381Y-14260617D01*
X19462995Y-14008192D01*
X19482344Y-13750000D01*
X19462995Y-13491808D01*
X19405381Y-13239383D01*
X19310788Y-12998364D01*
X19291307Y-12964622D01*
X19283686Y-12948980D01*
X19271270Y-12918175D01*
X19249967Y-12893019D01*
X19181328Y-12774132D01*
X19165307Y-12754043D01*
X23995437Y-12754043D01*
X24014197Y-13040271D01*
X24015253Y-13048293D01*
X24071210Y-13329608D01*
X24073307Y-13337436D01*
X24165505Y-13609038D01*
X24168607Y-13616528D01*
X24295466Y-13873774D01*
X24299516Y-13880788D01*
X24458866Y-14119271D01*
X24463805Y-14125708D01*
X24490405Y-14156039D01*
X24490406Y-14156039D01*
X25279438Y-13367007D01*
X25328348Y-13445999D01*
X25471931Y-13603501D01*
X25630388Y-13723163D01*
X24843959Y-14509592D01*
X24843959Y-14509593D01*
X24874291Y-14536194D01*
X24880728Y-14541133D01*
X25119211Y-14700483D01*
X25126225Y-14704533D01*
X25383471Y-14831392D01*
X25390961Y-14834494D01*
X25662563Y-14926692D01*
X25670391Y-14928789D01*
X25951706Y-14984746D01*
X25959728Y-14985802D01*
X26245957Y-15004563D01*
X26254043Y-15004563D01*
X26540271Y-14985802D01*
X26548293Y-14984746D01*
X26829608Y-14928789D01*
X26837436Y-14926692D01*
X27109038Y-14834494D01*
X27116528Y-14831392D01*
X27373774Y-14704533D01*
X27380788Y-14700483D01*
X27619273Y-14541132D01*
X27625698Y-14536201D01*
X27656040Y-14509592D01*
X26869611Y-13723163D01*
X27028069Y-13603501D01*
X27171652Y-13445999D01*
X27220560Y-13367008D01*
X28009592Y-14156040D01*
X28036201Y-14125698D01*
X28041132Y-14119273D01*
X28200483Y-13880788D01*
X28204533Y-13873774D01*
X28331392Y-13616528D01*
X28334494Y-13609038D01*
X28426692Y-13337436D01*
X28428789Y-13329608D01*
X28484746Y-13048293D01*
X28485802Y-13040271D01*
X28504563Y-12754043D01*
X28504563Y-12745956D01*
X28485802Y-12459728D01*
X28484746Y-12451706D01*
X28428789Y-12170391D01*
X28426692Y-12162563D01*
X28334494Y-11890961D01*
X28331392Y-11883471D01*
X28204533Y-11626225D01*
X28200483Y-11619211D01*
X28041133Y-11380728D01*
X28036194Y-11374291D01*
X28009592Y-11343959D01*
X27220560Y-12132991D01*
X27171652Y-12054001D01*
X27028069Y-11896499D01*
X26869610Y-11776835D01*
X27656039Y-10990406D01*
X27656039Y-10990405D01*
X27625708Y-10963805D01*
X27619271Y-10958866D01*
X27380788Y-10799516D01*
X27373774Y-10795466D01*
X27116528Y-10668607D01*
X27109038Y-10665505D01*
X26837436Y-10573307D01*
X26829608Y-10571210D01*
X26548293Y-10515253D01*
X26540271Y-10514197D01*
X26254043Y-10495437D01*
X26245957Y-10495437D01*
X25959728Y-10514197D01*
X25951706Y-10515253D01*
X25670391Y-10571210D01*
X25662563Y-10573307D01*
X25390961Y-10665505D01*
X25383471Y-10668607D01*
X25126225Y-10795466D01*
X25119211Y-10799516D01*
X24880723Y-10958869D01*
X24874295Y-10963801D01*
X24843958Y-10990405D01*
X24843958Y-10990406D01*
X25630388Y-11776836D01*
X25471931Y-11896499D01*
X25328348Y-12054001D01*
X25279439Y-12132991D01*
X24490406Y-11343958D01*
X24490405Y-11343958D01*
X24463801Y-11374295D01*
X24458869Y-11380723D01*
X24299516Y-11619211D01*
X24295466Y-11626225D01*
X24168607Y-11883471D01*
X24165505Y-11890961D01*
X24073307Y-12162563D01*
X24071210Y-12170391D01*
X24015253Y-12451706D01*
X24014197Y-12459728D01*
X23995437Y-12745956D01*
X23995437Y-12754043D01*
X19165307Y-12754043D01*
X19154259Y-12740189D01*
X19144619Y-12726243D01*
X19127508Y-12697463D01*
X19103410Y-12676428D01*
X19019898Y-12571707D01*
X18984778Y-12539120D01*
X18973455Y-12527116D01*
X18951997Y-12501096D01*
X18925849Y-12484442D01*
X18830096Y-12395596D01*
X18786740Y-12366036D01*
X18774092Y-12356156D01*
X18748769Y-12333588D01*
X18721351Y-12321455D01*
X18616172Y-12249746D01*
X18616171Y-12249745D01*
X18616169Y-12249744D01*
X18564714Y-12224965D01*
X18551114Y-12217327D01*
X18522515Y-12198807D01*
X18494593Y-12191196D01*
X18382900Y-12137407D01*
X18323822Y-12119184D01*
X18309649Y-12113844D01*
X18278476Y-12099869D01*
X18250781Y-12096653D01*
X18135485Y-12061089D01*
X18069616Y-12051161D01*
X18055241Y-12048114D01*
X18022270Y-12039053D01*
X17995496Y-12039989D01*
X17879459Y-12022500D01*
X17879458Y-12022500D01*
X17807975Y-12022500D01*
X17793755Y-12021682D01*
X17759824Y-12017765D01*
X17734589Y-12022500D01*
X17620542Y-12022500D01*
X17544939Y-12033895D01*
X17531207Y-12035189D01*
X17497191Y-12036492D01*
X17474020Y-12044584D01*
X17364515Y-12061089D01*
X17286612Y-12085119D01*
X17273671Y-12088360D01*
X17240452Y-12094802D01*
X17219778Y-12105735D01*
X17117101Y-12137406D01*
X17066361Y-12161842D01*
X17065906Y-12161916D01*
X17061223Y-12164316D01*
X17038971Y-12175033D01*
X17027079Y-12180016D01*
X16995508Y-12191354D01*
X16977669Y-12204554D01*
X16883828Y-12249746D01*
X16834810Y-12283165D01*
X16833208Y-12283682D01*
X16828678Y-12287136D01*
X16823363Y-12290969D01*
X16807760Y-12301607D01*
X16797147Y-12308089D01*
X16768038Y-12323918D01*
X16753243Y-12338776D01*
X16669900Y-12395599D01*
X16624171Y-12438029D01*
X16621539Y-12439340D01*
X16613806Y-12447376D01*
X16608807Y-12452285D01*
X16598392Y-12461949D01*
X16589222Y-12469668D01*
X16563304Y-12489424D01*
X16551640Y-12505329D01*
X16480101Y-12571708D01*
X16439269Y-12622908D01*
X16435862Y-12625299D01*
X16426788Y-12638199D01*
X16422320Y-12644161D01*
X16415776Y-12652368D01*
X16408169Y-12661047D01*
X16386034Y-12684046D01*
X16377482Y-12700386D01*
X16318671Y-12774132D01*
X16284365Y-12833553D01*
X16280486Y-12837250D01*
X16271739Y-12854917D01*
X16268005Y-12861888D01*
X16264174Y-12868524D01*
X16258209Y-12877867D01*
X16240329Y-12903287D01*
X16234747Y-12919495D01*
X16189212Y-12998364D01*
X16162992Y-13065171D01*
X16158989Y-13070331D01*
X16152020Y-13092354D01*
X16149231Y-13100233D01*
X16147196Y-13105419D01*
X16142889Y-13115146D01*
X16129550Y-13142084D01*
X16126702Y-13157636D01*
X16094619Y-13239383D01*
X16077942Y-13312449D01*
X16074195Y-13319147D01*
X16070226Y-13344842D01*
X16068576Y-13353483D01*
X16067635Y-13357609D01*
X16064960Y-13367450D01*
X16056268Y-13394914D01*
X16055825Y-13409348D01*
X16037004Y-13491808D01*
X16031165Y-13569727D01*
X16028067Y-13577947D01*
X16028067Y-13606433D01*
X16027718Y-13615727D01*
X16027449Y-13619306D01*
X16026345Y-13628938D01*
X16022176Y-13655931D01*
X16023735Y-13668872D01*
X16017655Y-13749999D01*
X11265572Y-13749999D01*
X11331392Y-13616528D01*
X11334494Y-13609038D01*
X11426692Y-13337436D01*
X11428789Y-13329608D01*
X11484746Y-13048293D01*
X11485802Y-13040271D01*
X11504563Y-12754043D01*
X11504563Y-12745956D01*
X11485802Y-12459728D01*
X11484746Y-12451706D01*
X11428789Y-12170391D01*
X11426692Y-12162563D01*
X11334494Y-11890961D01*
X11331392Y-11883471D01*
X11204533Y-11626225D01*
X11200483Y-11619211D01*
X11041133Y-11380728D01*
X11036194Y-11374291D01*
X11009592Y-11343959D01*
X10220560Y-12132991D01*
X10171652Y-12054001D01*
X10028069Y-11896499D01*
X9869610Y-11776835D01*
X10656039Y-10990406D01*
X10656039Y-10990405D01*
X10625708Y-10963805D01*
X10619271Y-10958866D01*
X10380788Y-10799516D01*
X10373774Y-10795466D01*
X10116528Y-10668607D01*
X10109038Y-10665505D01*
X9837436Y-10573307D01*
X9829608Y-10571210D01*
X9548293Y-10515253D01*
X9540271Y-10514197D01*
X9254043Y-10495437D01*
X9245957Y-10495437D01*
X8959728Y-10514197D01*
X8951706Y-10515253D01*
X8670391Y-10571210D01*
X8662563Y-10573307D01*
X8390961Y-10665505D01*
X8383471Y-10668607D01*
X8126225Y-10795466D01*
X8119211Y-10799516D01*
X7880723Y-10958869D01*
X7874295Y-10963801D01*
X7843958Y-10990405D01*
X7843958Y-10990406D01*
X8630388Y-11776836D01*
X8471931Y-11896499D01*
X8328348Y-12054001D01*
X8279439Y-12132991D01*
X7490406Y-11343958D01*
X7490405Y-11343958D01*
X7463801Y-11374295D01*
X7458869Y-11380723D01*
X7299516Y-11619211D01*
X7295466Y-11626225D01*
X7168607Y-11883471D01*
X7165505Y-11890961D01*
X7073307Y-12162563D01*
X7071210Y-12170391D01*
X7015253Y-12451706D01*
X7014197Y-12459728D01*
X6995437Y-12745956D01*
X6995437Y-12754043D01*
X500Y-12754043D01*
X500Y-5374500D01*
X9164853Y-5374500D01*
X9183397Y-5562789D01*
X9183398Y-5562791D01*
X9238320Y-5743846D01*
X9327510Y-5910707D01*
X9374409Y-5967854D01*
X9447537Y-6056962D01*
X9520665Y-6116976D01*
X9593793Y-6176990D01*
X9744314Y-6257446D01*
X9794158Y-6306407D01*
X9809618Y-6374545D01*
X9809263Y-6378957D01*
X9799853Y-6474499D01*
X9818397Y-6662789D01*
X9818398Y-6662791D01*
X9873320Y-6843846D01*
X9962510Y-7010707D01*
X10009409Y-7067854D01*
X10082537Y-7156962D01*
X10129999Y-7195912D01*
X10228793Y-7276990D01*
X10395654Y-7366180D01*
X10576709Y-7421102D01*
X10765000Y-7439647D01*
X10953291Y-7421102D01*
X11134346Y-7366180D01*
X11301207Y-7276990D01*
X11321335Y-7260470D01*
X11385644Y-7233158D01*
X11454512Y-7244949D01*
X11478663Y-7260470D01*
X11498793Y-7276990D01*
X11665654Y-7366180D01*
X11846709Y-7421102D01*
X12035000Y-7439647D01*
X12223291Y-7421102D01*
X12404346Y-7366180D01*
X12571207Y-7276990D01*
X12591335Y-7260470D01*
X12655644Y-7233158D01*
X12724512Y-7244949D01*
X12748663Y-7260470D01*
X12768793Y-7276990D01*
X12935654Y-7366180D01*
X13116709Y-7421102D01*
X13305000Y-7439647D01*
X13493291Y-7421102D01*
X13674346Y-7366180D01*
X13841207Y-7276990D01*
X13861335Y-7260470D01*
X13925644Y-7233158D01*
X13994512Y-7244949D01*
X14018663Y-7260470D01*
X14038793Y-7276990D01*
X14205654Y-7366180D01*
X14386709Y-7421102D01*
X14575000Y-7439647D01*
X14763291Y-7421102D01*
X14944346Y-7366180D01*
X15111207Y-7276990D01*
X15131335Y-7260470D01*
X15195644Y-7233158D01*
X15264512Y-7244949D01*
X15288663Y-7260470D01*
X15308793Y-7276990D01*
X15475654Y-7366180D01*
X15656709Y-7421102D01*
X15845000Y-7439647D01*
X16033291Y-7421102D01*
X16214346Y-7366180D01*
X16381207Y-7276990D01*
X16401335Y-7260470D01*
X16465644Y-7233158D01*
X16534512Y-7244949D01*
X16558663Y-7260470D01*
X16578793Y-7276990D01*
X16745654Y-7366180D01*
X16926709Y-7421102D01*
X17115000Y-7439647D01*
X17303291Y-7421102D01*
X17484346Y-7366180D01*
X17651207Y-7276990D01*
X17671335Y-7260470D01*
X17735644Y-7233158D01*
X17804512Y-7244949D01*
X17828663Y-7260470D01*
X17848793Y-7276990D01*
X18015654Y-7366180D01*
X18196709Y-7421102D01*
X18385000Y-7439647D01*
X18573291Y-7421102D01*
X18754346Y-7366180D01*
X18921207Y-7276990D01*
X18941335Y-7260470D01*
X19005644Y-7233158D01*
X19074512Y-7244949D01*
X19098663Y-7260470D01*
X19118793Y-7276990D01*
X19285654Y-7366180D01*
X19466709Y-7421102D01*
X19655000Y-7439647D01*
X19843291Y-7421102D01*
X20024346Y-7366180D01*
X20191207Y-7276990D01*
X20211335Y-7260470D01*
X20275644Y-7233158D01*
X20344512Y-7244949D01*
X20368663Y-7260470D01*
X20388793Y-7276990D01*
X20555654Y-7366180D01*
X20736709Y-7421102D01*
X20925000Y-7439647D01*
X21113291Y-7421102D01*
X21294346Y-7366180D01*
X21461207Y-7276990D01*
X21481335Y-7260470D01*
X21545644Y-7233158D01*
X21614512Y-7244949D01*
X21638663Y-7260470D01*
X21658793Y-7276990D01*
X21825654Y-7366180D01*
X22006709Y-7421102D01*
X22195000Y-7439647D01*
X22383291Y-7421102D01*
X22564346Y-7366180D01*
X22731207Y-7276990D01*
X22751335Y-7260470D01*
X22815644Y-7233158D01*
X22884512Y-7244949D01*
X22908663Y-7260470D01*
X22928793Y-7276990D01*
X23095654Y-7366180D01*
X23276709Y-7421102D01*
X23465000Y-7439647D01*
X23653291Y-7421102D01*
X23834346Y-7366180D01*
X24001207Y-7276990D01*
X24021335Y-7260470D01*
X24085644Y-7233158D01*
X24154512Y-7244949D01*
X24178663Y-7260470D01*
X24198793Y-7276990D01*
X24365654Y-7366180D01*
X24546709Y-7421102D01*
X24735000Y-7439647D01*
X24923291Y-7421102D01*
X25104346Y-7366180D01*
X25271207Y-7276990D01*
X25417462Y-7156962D01*
X25537490Y-7010707D01*
X25626680Y-6843846D01*
X25681602Y-6662791D01*
X25700147Y-6474500D01*
X25690736Y-6378954D01*
X25703754Y-6310312D01*
X25751819Y-6259601D01*
X25755642Y-6257469D01*
X25906207Y-6176990D01*
X26052462Y-6056962D01*
X26172490Y-5910707D01*
X26261680Y-5743846D01*
X26316602Y-5562791D01*
X26335147Y-5374500D01*
X26316602Y-5186209D01*
X26261680Y-5005154D01*
X26172490Y-4838293D01*
X26112476Y-4765165D01*
X26052462Y-4692037D01*
X25945247Y-4604049D01*
X25906207Y-4572010D01*
X25739346Y-4482820D01*
X25648818Y-4455358D01*
X25558289Y-4427897D01*
X25370000Y-4409353D01*
X25181710Y-4427897D01*
X25000651Y-4482821D01*
X24833793Y-4572009D01*
X24813664Y-4588529D01*
X24749353Y-4615841D01*
X24680486Y-4604049D01*
X24656336Y-4588529D01*
X24636206Y-4572009D01*
X24469348Y-4482821D01*
X24469347Y-4482820D01*
X24469346Y-4482820D01*
X24378818Y-4455358D01*
X24288289Y-4427897D01*
X24100000Y-4409353D01*
X23911710Y-4427897D01*
X23730651Y-4482821D01*
X23563793Y-4572009D01*
X23543664Y-4588529D01*
X23479353Y-4615841D01*
X23410486Y-4604049D01*
X23386336Y-4588529D01*
X23366206Y-4572009D01*
X23199348Y-4482821D01*
X23199347Y-4482820D01*
X23199346Y-4482820D01*
X23108818Y-4455358D01*
X23018289Y-4427897D01*
X22850569Y-4411378D01*
X22830000Y-4409353D01*
X22829999Y-4409353D01*
X22641710Y-4427897D01*
X22460651Y-4482821D01*
X22293793Y-4572009D01*
X22273664Y-4588529D01*
X22209353Y-4615841D01*
X22140486Y-4604049D01*
X22116336Y-4588529D01*
X22096206Y-4572009D01*
X21929348Y-4482821D01*
X21929347Y-4482820D01*
X21929346Y-4482820D01*
X21838818Y-4455358D01*
X21748289Y-4427897D01*
X21560000Y-4409353D01*
X21371710Y-4427897D01*
X21190651Y-4482821D01*
X21023793Y-4572009D01*
X21003664Y-4588529D01*
X20939353Y-4615841D01*
X20870486Y-4604049D01*
X20846336Y-4588529D01*
X20826206Y-4572009D01*
X20659348Y-4482821D01*
X20659347Y-4482820D01*
X20659346Y-4482820D01*
X20568818Y-4455359D01*
X20478289Y-4427897D01*
X20290000Y-4409353D01*
X20101710Y-4427897D01*
X19920651Y-4482821D01*
X19753793Y-4572009D01*
X19733664Y-4588529D01*
X19669353Y-4615841D01*
X19600486Y-4604049D01*
X19576336Y-4588529D01*
X19556206Y-4572009D01*
X19389348Y-4482821D01*
X19389347Y-4482820D01*
X19389346Y-4482820D01*
X19298818Y-4455359D01*
X19208289Y-4427897D01*
X19020000Y-4409353D01*
X18831710Y-4427897D01*
X18650651Y-4482821D01*
X18483793Y-4572009D01*
X18463664Y-4588529D01*
X18399353Y-4615841D01*
X18330486Y-4604049D01*
X18306336Y-4588529D01*
X18286206Y-4572009D01*
X18119348Y-4482821D01*
X18119347Y-4482820D01*
X18119346Y-4482820D01*
X18028818Y-4455359D01*
X17938289Y-4427897D01*
X17750000Y-4409353D01*
X17561710Y-4427897D01*
X17380651Y-4482821D01*
X17213793Y-4572009D01*
X17193664Y-4588529D01*
X17129353Y-4615841D01*
X17060486Y-4604049D01*
X17036336Y-4588529D01*
X17016206Y-4572009D01*
X16849348Y-4482821D01*
X16849347Y-4482820D01*
X16849346Y-4482820D01*
X16758818Y-4455359D01*
X16668289Y-4427897D01*
X16480000Y-4409353D01*
X16291710Y-4427897D01*
X16110651Y-4482821D01*
X15943794Y-4572009D01*
X15923661Y-4588531D01*
X15859350Y-4615842D01*
X15790483Y-4604048D01*
X15766334Y-4588528D01*
X15746207Y-4572010D01*
X15579346Y-4482820D01*
X15488818Y-4455359D01*
X15398289Y-4427897D01*
X15210000Y-4409353D01*
X15021710Y-4427897D01*
X14840651Y-4482821D01*
X14673794Y-4572009D01*
X14653661Y-4588531D01*
X14589350Y-4615842D01*
X14520483Y-4604048D01*
X14496334Y-4588528D01*
X14476207Y-4572010D01*
X14309346Y-4482820D01*
X14218818Y-4455359D01*
X14128289Y-4427897D01*
X13960569Y-4411378D01*
X13940000Y-4409353D01*
X13939999Y-4409353D01*
X13751710Y-4427897D01*
X13570651Y-4482821D01*
X13403794Y-4572009D01*
X13383661Y-4588531D01*
X13319350Y-4615842D01*
X13250483Y-4604048D01*
X13226334Y-4588528D01*
X13206207Y-4572010D01*
X13039346Y-4482820D01*
X12948818Y-4455359D01*
X12858289Y-4427897D01*
X12670000Y-4409353D01*
X12481710Y-4427897D01*
X12300651Y-4482821D01*
X12133794Y-4572009D01*
X12113661Y-4588531D01*
X12049350Y-4615842D01*
X11980483Y-4604048D01*
X11956334Y-4588528D01*
X11936207Y-4572010D01*
X11769346Y-4482820D01*
X11678818Y-4455359D01*
X11588289Y-4427897D01*
X11400000Y-4409353D01*
X11211710Y-4427897D01*
X11030651Y-4482821D01*
X10863794Y-4572009D01*
X10843661Y-4588531D01*
X10779350Y-4615842D01*
X10710483Y-4604048D01*
X10686334Y-4588528D01*
X10666207Y-4572010D01*
X10499346Y-4482820D01*
X10408818Y-4455359D01*
X10318289Y-4427897D01*
X10130000Y-4409353D01*
X9941710Y-4427897D01*
X9760651Y-4482821D01*
X9593794Y-4572009D01*
X9447537Y-4692037D01*
X9327509Y-4838294D01*
X9238321Y-5005151D01*
X9183397Y-5186210D01*
X9164853Y-5374500D01*
X500Y-5374500D01*
X500Y-124500D01*
X20185Y-57461D01*
X72989Y-11706D01*
X124500Y-500D01*
X35375500Y-500D01*
X35442539Y-20185D01*
G37*
%TD.AperFunction*%
%TD*%
M02*
