G04 #@! TF.GenerationSoftware,KiCad,Pcbnew,5.1.4*
G04 #@! TF.CreationDate,2023-03-01T06:14:34-07:00*
G04 #@! TF.ProjectId,sleigh,736c6569-6768-42e6-9b69-6361645f7063,rev?*
G04 #@! TF.SameCoordinates,Original*
G04 #@! TF.FileFunction,Soldermask,Bot*
G04 #@! TF.FilePolarity,Negative*
%FSLAX46Y46*%
G04 Gerber Fmt 4.6, Leading zero omitted, Abs format (unit mm)*
G04 Created by KiCad (PCBNEW 5.1.4) date 2023-03-01 06:14:34*
%MOMM*%
%LPD*%
G04 APERTURE LIST*
%ADD10C,0.100000*%
G04 APERTURE END LIST*
D10*
G36*
X172400000Y-129810000D02*
G01*
X132400000Y-129610000D01*
X132400000Y-70500000D01*
X172400000Y-70500000D01*
X172400000Y-129810000D01*
G37*
X172400000Y-129810000D02*
X132400000Y-129610000D01*
X132400000Y-70500000D01*
X172400000Y-70500000D01*
X172400000Y-129810000D01*
G36*
X160609503Y-83416665D02*
G01*
X160977301Y-83569012D01*
X160977303Y-83569013D01*
X161143930Y-83680350D01*
X161308312Y-83790186D01*
X161589814Y-84071688D01*
X161810988Y-84402699D01*
X161963335Y-84770497D01*
X162041000Y-85160948D01*
X162041000Y-85559052D01*
X161963335Y-85949503D01*
X161810988Y-86317301D01*
X161810987Y-86317303D01*
X161589813Y-86648313D01*
X161308313Y-86929813D01*
X160977303Y-87150987D01*
X160977302Y-87150988D01*
X160977301Y-87150988D01*
X160609503Y-87303335D01*
X160219052Y-87381000D01*
X159820948Y-87381000D01*
X159430497Y-87303335D01*
X159062699Y-87150988D01*
X159062698Y-87150988D01*
X159062697Y-87150987D01*
X158731687Y-86929813D01*
X158450187Y-86648313D01*
X158229013Y-86317303D01*
X158229012Y-86317301D01*
X158076665Y-85949503D01*
X157999000Y-85559052D01*
X157999000Y-85160948D01*
X158076665Y-84770497D01*
X158229012Y-84402699D01*
X158450186Y-84071688D01*
X158731688Y-83790186D01*
X158896070Y-83680350D01*
X159062697Y-83569013D01*
X159062699Y-83569012D01*
X159430497Y-83416665D01*
X159820948Y-83339000D01*
X160219052Y-83339000D01*
X160609503Y-83416665D01*
X160609503Y-83416665D01*
G37*
G36*
X145369503Y-83416665D02*
G01*
X145737301Y-83569012D01*
X145737303Y-83569013D01*
X145903930Y-83680350D01*
X146068312Y-83790186D01*
X146349814Y-84071688D01*
X146570988Y-84402699D01*
X146723335Y-84770497D01*
X146801000Y-85160948D01*
X146801000Y-85559052D01*
X146723335Y-85949503D01*
X146570988Y-86317301D01*
X146570987Y-86317303D01*
X146349813Y-86648313D01*
X146068313Y-86929813D01*
X145737303Y-87150987D01*
X145737302Y-87150988D01*
X145737301Y-87150988D01*
X145369503Y-87303335D01*
X144979052Y-87381000D01*
X144580948Y-87381000D01*
X144190497Y-87303335D01*
X143822699Y-87150988D01*
X143822698Y-87150988D01*
X143822697Y-87150987D01*
X143491687Y-86929813D01*
X143210187Y-86648313D01*
X142989013Y-86317303D01*
X142989012Y-86317301D01*
X142836665Y-85949503D01*
X142759000Y-85559052D01*
X142759000Y-85160948D01*
X142836665Y-84770497D01*
X142989012Y-84402699D01*
X143210186Y-84071688D01*
X143491688Y-83790186D01*
X143656070Y-83680350D01*
X143822697Y-83569013D01*
X143822699Y-83569012D01*
X144190497Y-83416665D01*
X144580948Y-83339000D01*
X144979052Y-83339000D01*
X145369503Y-83416665D01*
X145369503Y-83416665D01*
G37*
M02*
