G04 #@! TF.GenerationSoftware,KiCad,Pcbnew,5.1.4*
G04 #@! TF.CreationDate,2023-03-01T06:14:34-07:00*
G04 #@! TF.ProjectId,sleigh,736c6569-6768-42e6-9b69-6361645f7063,rev?*
G04 #@! TF.SameCoordinates,Original*
G04 #@! TF.FileFunction,Copper,L2,Inr*
G04 #@! TF.FilePolarity,Positive*
%FSLAX46Y46*%
G04 Gerber Fmt 4.6, Leading zero omitted, Abs format (unit mm)*
G04 Created by KiCad (PCBNEW 5.1.4) date 2023-03-01 06:14:34*
%MOMM*%
%LPD*%
G04 APERTURE LIST*
%ADD10C,3.280000*%
%ADD11C,0.600000*%
%ADD12C,0.150000*%
G04 APERTURE END LIST*
D10*
X144780000Y-85360000D03*
X160020000Y-85360000D03*
D11*
X133540000Y-92320000D03*
X135820000Y-93840000D03*
X138100000Y-71800000D03*
X138100000Y-75600000D03*
X138100000Y-80920000D03*
X138100000Y-86240000D03*
X138100000Y-90800000D03*
X139620000Y-77880000D03*
X139620000Y-93080000D03*
X140380000Y-82440000D03*
X140380000Y-87760000D03*
X141140000Y-72560000D03*
X141900000Y-75600000D03*
X141900000Y-80160000D03*
X141900000Y-85480000D03*
X141900000Y-90800000D03*
X142660000Y-93840000D03*
X143420000Y-77880000D03*
X144180000Y-71800000D03*
X144940000Y-80920000D03*
X144940000Y-91560000D03*
X145700000Y-75600000D03*
X146460000Y-93840000D03*
X147220000Y-72560000D03*
X147220000Y-77880000D03*
X147980000Y-81680000D03*
X147980000Y-85480000D03*
X148740000Y-88520000D03*
X149500000Y-74080000D03*
X149500000Y-79400000D03*
X150260000Y-83960000D03*
X151020000Y-71800000D03*
X151020000Y-76360000D03*
X153300000Y-73320000D03*
X154060000Y-79400000D03*
X154820000Y-83200000D03*
X155580000Y-71800000D03*
X155580000Y-87000000D03*
X156340000Y-77120000D03*
X157100000Y-80920000D03*
X157100000Y-91560000D03*
X157860000Y-73320000D03*
X158620000Y-93840000D03*
X159380000Y-75600000D03*
X158200000Y-88100000D03*
X160140000Y-71800000D03*
X160140000Y-80160000D03*
X160140000Y-90800000D03*
X161660000Y-77120000D03*
X161660000Y-93080000D03*
X162420000Y-73320000D03*
X162420000Y-81680000D03*
X163180000Y-85480000D03*
X163940000Y-75600000D03*
X163940000Y-88520000D03*
X164700000Y-71800000D03*
X164700000Y-91560000D03*
X165460000Y-77880000D03*
X165460000Y-82440000D03*
X166220000Y-86240000D03*
X166220000Y-93840000D03*
X168500000Y-92320000D03*
X170780000Y-93840000D03*
D12*
G36*
X172146000Y-72173000D02*
G01*
X167919990Y-72173000D01*
X167906000Y-72171622D01*
X167892010Y-72173000D01*
X167850130Y-72177125D01*
X167796408Y-72193421D01*
X167746897Y-72219885D01*
X167703500Y-72255500D01*
X167667885Y-72298897D01*
X167641421Y-72348408D01*
X167625125Y-72402130D01*
X167619622Y-72458000D01*
X167621000Y-72471990D01*
X167621001Y-75944000D01*
X167619622Y-75958000D01*
X167625125Y-76013870D01*
X167641421Y-76067592D01*
X167667885Y-76117103D01*
X167703500Y-76160500D01*
X167746897Y-76196115D01*
X167796408Y-76222579D01*
X167850130Y-76238875D01*
X167892010Y-76243000D01*
X167906000Y-76244378D01*
X167919990Y-76243000D01*
X172146000Y-76243000D01*
X172146001Y-77253000D01*
X167919990Y-77253000D01*
X167906000Y-77251622D01*
X167892010Y-77253000D01*
X167850130Y-77257125D01*
X167796408Y-77273421D01*
X167746897Y-77299885D01*
X167703500Y-77335500D01*
X167667885Y-77378897D01*
X167641421Y-77428408D01*
X167625125Y-77482130D01*
X167619622Y-77538000D01*
X167621000Y-77551990D01*
X167621001Y-81024000D01*
X167619622Y-81038000D01*
X167625125Y-81093870D01*
X167641421Y-81147592D01*
X167667885Y-81197103D01*
X167703500Y-81240500D01*
X167746897Y-81276115D01*
X167796408Y-81302579D01*
X167850130Y-81318875D01*
X167892010Y-81323000D01*
X167906000Y-81324378D01*
X167919990Y-81323000D01*
X172146000Y-81323000D01*
X172146001Y-82333000D01*
X167919990Y-82333000D01*
X167906000Y-82331622D01*
X167892010Y-82333000D01*
X167850130Y-82337125D01*
X167796408Y-82353421D01*
X167746897Y-82379885D01*
X167703500Y-82415500D01*
X167667885Y-82458897D01*
X167641421Y-82508408D01*
X167625125Y-82562130D01*
X167619622Y-82618000D01*
X167621000Y-82631990D01*
X167621001Y-86104000D01*
X167619622Y-86118000D01*
X167625125Y-86173870D01*
X167641421Y-86227592D01*
X167667885Y-86277103D01*
X167703500Y-86320500D01*
X167746897Y-86356115D01*
X167796408Y-86382579D01*
X167850130Y-86398875D01*
X167892010Y-86403000D01*
X167906000Y-86404378D01*
X167919990Y-86403000D01*
X172146000Y-86403000D01*
X172146001Y-87413000D01*
X167919990Y-87413000D01*
X167906000Y-87411622D01*
X167892010Y-87413000D01*
X167850130Y-87417125D01*
X167796408Y-87433421D01*
X167746897Y-87459885D01*
X167703500Y-87495500D01*
X167667885Y-87538897D01*
X167641421Y-87588408D01*
X167625125Y-87642130D01*
X167619622Y-87698000D01*
X167621000Y-87711990D01*
X167621001Y-91184000D01*
X167619622Y-91198000D01*
X167625125Y-91253870D01*
X167641421Y-91307592D01*
X167667885Y-91357103D01*
X167703500Y-91400500D01*
X167746897Y-91436115D01*
X167796408Y-91462579D01*
X167850130Y-91478875D01*
X167892010Y-91483000D01*
X167906000Y-91484378D01*
X167919990Y-91483000D01*
X172146000Y-91483000D01*
X172146001Y-94340000D01*
X132654000Y-94340000D01*
X132654000Y-91483000D01*
X136880010Y-91483000D01*
X136894000Y-91484378D01*
X136907990Y-91483000D01*
X136949870Y-91478875D01*
X137003592Y-91462579D01*
X137053103Y-91436115D01*
X137096500Y-91400500D01*
X137132115Y-91357103D01*
X137158579Y-91307592D01*
X137174875Y-91253870D01*
X137180378Y-91198000D01*
X137179000Y-91184010D01*
X137179000Y-87711990D01*
X137180378Y-87698000D01*
X137174875Y-87642130D01*
X137158579Y-87588408D01*
X137132115Y-87538897D01*
X137096500Y-87495500D01*
X137053103Y-87459885D01*
X137003592Y-87433421D01*
X136949870Y-87417125D01*
X136907990Y-87413000D01*
X136894000Y-87411622D01*
X136880010Y-87413000D01*
X132654000Y-87413000D01*
X132654000Y-86403000D01*
X136880010Y-86403000D01*
X136894000Y-86404378D01*
X136907990Y-86403000D01*
X136949870Y-86398875D01*
X137003592Y-86382579D01*
X137053103Y-86356115D01*
X137096500Y-86320500D01*
X137132115Y-86277103D01*
X137158579Y-86227592D01*
X137174875Y-86173870D01*
X137180378Y-86118000D01*
X137179000Y-86104010D01*
X137179000Y-85153562D01*
X142684000Y-85153562D01*
X142684000Y-85566438D01*
X142764548Y-85971381D01*
X142922549Y-86352828D01*
X143151930Y-86696122D01*
X143443878Y-86988070D01*
X143787172Y-87217451D01*
X144168619Y-87375452D01*
X144573562Y-87456000D01*
X144986438Y-87456000D01*
X145391381Y-87375452D01*
X145772828Y-87217451D01*
X146116122Y-86988070D01*
X146408070Y-86696122D01*
X146637451Y-86352828D01*
X146795452Y-85971381D01*
X146876000Y-85566438D01*
X146876000Y-85153562D01*
X157924000Y-85153562D01*
X157924000Y-85566438D01*
X158004548Y-85971381D01*
X158162549Y-86352828D01*
X158391930Y-86696122D01*
X158683878Y-86988070D01*
X159027172Y-87217451D01*
X159408619Y-87375452D01*
X159813562Y-87456000D01*
X160226438Y-87456000D01*
X160631381Y-87375452D01*
X161012828Y-87217451D01*
X161356122Y-86988070D01*
X161648070Y-86696122D01*
X161877451Y-86352828D01*
X162035452Y-85971381D01*
X162116000Y-85566438D01*
X162116000Y-85153562D01*
X162035452Y-84748619D01*
X161877451Y-84367172D01*
X161648070Y-84023878D01*
X161356122Y-83731930D01*
X161012828Y-83502549D01*
X160631381Y-83344548D01*
X160226438Y-83264000D01*
X159813562Y-83264000D01*
X159408619Y-83344548D01*
X159027172Y-83502549D01*
X158683878Y-83731930D01*
X158391930Y-84023878D01*
X158162549Y-84367172D01*
X158004548Y-84748619D01*
X157924000Y-85153562D01*
X146876000Y-85153562D01*
X146795452Y-84748619D01*
X146637451Y-84367172D01*
X146408070Y-84023878D01*
X146116122Y-83731930D01*
X145772828Y-83502549D01*
X145391381Y-83344548D01*
X144986438Y-83264000D01*
X144573562Y-83264000D01*
X144168619Y-83344548D01*
X143787172Y-83502549D01*
X143443878Y-83731930D01*
X143151930Y-84023878D01*
X142922549Y-84367172D01*
X142764548Y-84748619D01*
X142684000Y-85153562D01*
X137179000Y-85153562D01*
X137179000Y-82631990D01*
X137180378Y-82618000D01*
X137174875Y-82562130D01*
X137158579Y-82508408D01*
X137132115Y-82458897D01*
X137096500Y-82415500D01*
X137053103Y-82379885D01*
X137003592Y-82353421D01*
X136949870Y-82337125D01*
X136907990Y-82333000D01*
X136894000Y-82331622D01*
X136880010Y-82333000D01*
X132654000Y-82333000D01*
X132654000Y-81315000D01*
X136880010Y-81315000D01*
X136894000Y-81316378D01*
X136907990Y-81315000D01*
X136949870Y-81310875D01*
X137003592Y-81294579D01*
X137053103Y-81268115D01*
X137096500Y-81232500D01*
X137132115Y-81189103D01*
X137158579Y-81139592D01*
X137174875Y-81085870D01*
X137180378Y-81030000D01*
X137179000Y-81016010D01*
X137179000Y-77543990D01*
X137180378Y-77530000D01*
X137174875Y-77474130D01*
X137158579Y-77420408D01*
X137132115Y-77370897D01*
X137096500Y-77327500D01*
X137053103Y-77291885D01*
X137003592Y-77265421D01*
X136949870Y-77249125D01*
X136907990Y-77245000D01*
X136894000Y-77243622D01*
X136880010Y-77245000D01*
X132654000Y-77245000D01*
X132654000Y-76235000D01*
X136880010Y-76235000D01*
X136894000Y-76236378D01*
X136907990Y-76235000D01*
X136949870Y-76230875D01*
X137003592Y-76214579D01*
X137053103Y-76188115D01*
X137096500Y-76152500D01*
X137132115Y-76109103D01*
X137158579Y-76059592D01*
X137174875Y-76005870D01*
X137180378Y-75950000D01*
X137179000Y-75936010D01*
X137179000Y-72463990D01*
X137180378Y-72450000D01*
X137174875Y-72394130D01*
X137158579Y-72340408D01*
X137132115Y-72290897D01*
X137096500Y-72247500D01*
X137053103Y-72211885D01*
X137003592Y-72185421D01*
X136949870Y-72169125D01*
X136907990Y-72165000D01*
X136894000Y-72163622D01*
X136880010Y-72165000D01*
X132654000Y-72165000D01*
X132654000Y-70760000D01*
X172146001Y-70760000D01*
X172146000Y-72173000D01*
X172146000Y-72173000D01*
G37*
X172146000Y-72173000D02*
X167919990Y-72173000D01*
X167906000Y-72171622D01*
X167892010Y-72173000D01*
X167850130Y-72177125D01*
X167796408Y-72193421D01*
X167746897Y-72219885D01*
X167703500Y-72255500D01*
X167667885Y-72298897D01*
X167641421Y-72348408D01*
X167625125Y-72402130D01*
X167619622Y-72458000D01*
X167621000Y-72471990D01*
X167621001Y-75944000D01*
X167619622Y-75958000D01*
X167625125Y-76013870D01*
X167641421Y-76067592D01*
X167667885Y-76117103D01*
X167703500Y-76160500D01*
X167746897Y-76196115D01*
X167796408Y-76222579D01*
X167850130Y-76238875D01*
X167892010Y-76243000D01*
X167906000Y-76244378D01*
X167919990Y-76243000D01*
X172146000Y-76243000D01*
X172146001Y-77253000D01*
X167919990Y-77253000D01*
X167906000Y-77251622D01*
X167892010Y-77253000D01*
X167850130Y-77257125D01*
X167796408Y-77273421D01*
X167746897Y-77299885D01*
X167703500Y-77335500D01*
X167667885Y-77378897D01*
X167641421Y-77428408D01*
X167625125Y-77482130D01*
X167619622Y-77538000D01*
X167621000Y-77551990D01*
X167621001Y-81024000D01*
X167619622Y-81038000D01*
X167625125Y-81093870D01*
X167641421Y-81147592D01*
X167667885Y-81197103D01*
X167703500Y-81240500D01*
X167746897Y-81276115D01*
X167796408Y-81302579D01*
X167850130Y-81318875D01*
X167892010Y-81323000D01*
X167906000Y-81324378D01*
X167919990Y-81323000D01*
X172146000Y-81323000D01*
X172146001Y-82333000D01*
X167919990Y-82333000D01*
X167906000Y-82331622D01*
X167892010Y-82333000D01*
X167850130Y-82337125D01*
X167796408Y-82353421D01*
X167746897Y-82379885D01*
X167703500Y-82415500D01*
X167667885Y-82458897D01*
X167641421Y-82508408D01*
X167625125Y-82562130D01*
X167619622Y-82618000D01*
X167621000Y-82631990D01*
X167621001Y-86104000D01*
X167619622Y-86118000D01*
X167625125Y-86173870D01*
X167641421Y-86227592D01*
X167667885Y-86277103D01*
X167703500Y-86320500D01*
X167746897Y-86356115D01*
X167796408Y-86382579D01*
X167850130Y-86398875D01*
X167892010Y-86403000D01*
X167906000Y-86404378D01*
X167919990Y-86403000D01*
X172146000Y-86403000D01*
X172146001Y-87413000D01*
X167919990Y-87413000D01*
X167906000Y-87411622D01*
X167892010Y-87413000D01*
X167850130Y-87417125D01*
X167796408Y-87433421D01*
X167746897Y-87459885D01*
X167703500Y-87495500D01*
X167667885Y-87538897D01*
X167641421Y-87588408D01*
X167625125Y-87642130D01*
X167619622Y-87698000D01*
X167621000Y-87711990D01*
X167621001Y-91184000D01*
X167619622Y-91198000D01*
X167625125Y-91253870D01*
X167641421Y-91307592D01*
X167667885Y-91357103D01*
X167703500Y-91400500D01*
X167746897Y-91436115D01*
X167796408Y-91462579D01*
X167850130Y-91478875D01*
X167892010Y-91483000D01*
X167906000Y-91484378D01*
X167919990Y-91483000D01*
X172146000Y-91483000D01*
X172146001Y-94340000D01*
X132654000Y-94340000D01*
X132654000Y-91483000D01*
X136880010Y-91483000D01*
X136894000Y-91484378D01*
X136907990Y-91483000D01*
X136949870Y-91478875D01*
X137003592Y-91462579D01*
X137053103Y-91436115D01*
X137096500Y-91400500D01*
X137132115Y-91357103D01*
X137158579Y-91307592D01*
X137174875Y-91253870D01*
X137180378Y-91198000D01*
X137179000Y-91184010D01*
X137179000Y-87711990D01*
X137180378Y-87698000D01*
X137174875Y-87642130D01*
X137158579Y-87588408D01*
X137132115Y-87538897D01*
X137096500Y-87495500D01*
X137053103Y-87459885D01*
X137003592Y-87433421D01*
X136949870Y-87417125D01*
X136907990Y-87413000D01*
X136894000Y-87411622D01*
X136880010Y-87413000D01*
X132654000Y-87413000D01*
X132654000Y-86403000D01*
X136880010Y-86403000D01*
X136894000Y-86404378D01*
X136907990Y-86403000D01*
X136949870Y-86398875D01*
X137003592Y-86382579D01*
X137053103Y-86356115D01*
X137096500Y-86320500D01*
X137132115Y-86277103D01*
X137158579Y-86227592D01*
X137174875Y-86173870D01*
X137180378Y-86118000D01*
X137179000Y-86104010D01*
X137179000Y-85153562D01*
X142684000Y-85153562D01*
X142684000Y-85566438D01*
X142764548Y-85971381D01*
X142922549Y-86352828D01*
X143151930Y-86696122D01*
X143443878Y-86988070D01*
X143787172Y-87217451D01*
X144168619Y-87375452D01*
X144573562Y-87456000D01*
X144986438Y-87456000D01*
X145391381Y-87375452D01*
X145772828Y-87217451D01*
X146116122Y-86988070D01*
X146408070Y-86696122D01*
X146637451Y-86352828D01*
X146795452Y-85971381D01*
X146876000Y-85566438D01*
X146876000Y-85153562D01*
X157924000Y-85153562D01*
X157924000Y-85566438D01*
X158004548Y-85971381D01*
X158162549Y-86352828D01*
X158391930Y-86696122D01*
X158683878Y-86988070D01*
X159027172Y-87217451D01*
X159408619Y-87375452D01*
X159813562Y-87456000D01*
X160226438Y-87456000D01*
X160631381Y-87375452D01*
X161012828Y-87217451D01*
X161356122Y-86988070D01*
X161648070Y-86696122D01*
X161877451Y-86352828D01*
X162035452Y-85971381D01*
X162116000Y-85566438D01*
X162116000Y-85153562D01*
X162035452Y-84748619D01*
X161877451Y-84367172D01*
X161648070Y-84023878D01*
X161356122Y-83731930D01*
X161012828Y-83502549D01*
X160631381Y-83344548D01*
X160226438Y-83264000D01*
X159813562Y-83264000D01*
X159408619Y-83344548D01*
X159027172Y-83502549D01*
X158683878Y-83731930D01*
X158391930Y-84023878D01*
X158162549Y-84367172D01*
X158004548Y-84748619D01*
X157924000Y-85153562D01*
X146876000Y-85153562D01*
X146795452Y-84748619D01*
X146637451Y-84367172D01*
X146408070Y-84023878D01*
X146116122Y-83731930D01*
X145772828Y-83502549D01*
X145391381Y-83344548D01*
X144986438Y-83264000D01*
X144573562Y-83264000D01*
X144168619Y-83344548D01*
X143787172Y-83502549D01*
X143443878Y-83731930D01*
X143151930Y-84023878D01*
X142922549Y-84367172D01*
X142764548Y-84748619D01*
X142684000Y-85153562D01*
X137179000Y-85153562D01*
X137179000Y-82631990D01*
X137180378Y-82618000D01*
X137174875Y-82562130D01*
X137158579Y-82508408D01*
X137132115Y-82458897D01*
X137096500Y-82415500D01*
X137053103Y-82379885D01*
X137003592Y-82353421D01*
X136949870Y-82337125D01*
X136907990Y-82333000D01*
X136894000Y-82331622D01*
X136880010Y-82333000D01*
X132654000Y-82333000D01*
X132654000Y-81315000D01*
X136880010Y-81315000D01*
X136894000Y-81316378D01*
X136907990Y-81315000D01*
X136949870Y-81310875D01*
X137003592Y-81294579D01*
X137053103Y-81268115D01*
X137096500Y-81232500D01*
X137132115Y-81189103D01*
X137158579Y-81139592D01*
X137174875Y-81085870D01*
X137180378Y-81030000D01*
X137179000Y-81016010D01*
X137179000Y-77543990D01*
X137180378Y-77530000D01*
X137174875Y-77474130D01*
X137158579Y-77420408D01*
X137132115Y-77370897D01*
X137096500Y-77327500D01*
X137053103Y-77291885D01*
X137003592Y-77265421D01*
X136949870Y-77249125D01*
X136907990Y-77245000D01*
X136894000Y-77243622D01*
X136880010Y-77245000D01*
X132654000Y-77245000D01*
X132654000Y-76235000D01*
X136880010Y-76235000D01*
X136894000Y-76236378D01*
X136907990Y-76235000D01*
X136949870Y-76230875D01*
X137003592Y-76214579D01*
X137053103Y-76188115D01*
X137096500Y-76152500D01*
X137132115Y-76109103D01*
X137158579Y-76059592D01*
X137174875Y-76005870D01*
X137180378Y-75950000D01*
X137179000Y-75936010D01*
X137179000Y-72463990D01*
X137180378Y-72450000D01*
X137174875Y-72394130D01*
X137158579Y-72340408D01*
X137132115Y-72290897D01*
X137096500Y-72247500D01*
X137053103Y-72211885D01*
X137003592Y-72185421D01*
X136949870Y-72169125D01*
X136907990Y-72165000D01*
X136894000Y-72163622D01*
X136880010Y-72165000D01*
X132654000Y-72165000D01*
X132654000Y-70760000D01*
X172146001Y-70760000D01*
X172146000Y-72173000D01*
M02*
