%TF.GenerationSoftware,KiCad,Pcbnew,7.0.2*%
%TF.CreationDate,2023-09-29T19:09:54-06:00*%
%TF.ProjectId,micro-d-tes-aaray,6d696372-6f2d-4642-9d74-65732d616172,rev?*%
%TF.SameCoordinates,Original*%
%TF.FileFunction,Copper,L1,Top*%
%TF.FilePolarity,Positive*%
%FSLAX46Y46*%
G04 Gerber Fmt 4.6, Leading zero omitted, Abs format (unit mm)*
G04 Created by KiCad (PCBNEW 7.0.2) date 2023-09-29 19:09:54*
%MOMM*%
%LPD*%
G01*
G04 APERTURE LIST*
%TA.AperFunction,SMDPad,CuDef*%
%ADD10R,0.700000X2.000000*%
%TD*%
%TA.AperFunction,SMDPad,CuDef*%
%ADD11R,0.500000X2.000000*%
%TD*%
%TA.AperFunction,ComponentPad*%
%ADD12C,3.500000*%
%TD*%
%TA.AperFunction,ComponentPad*%
%ADD13O,0.920000X0.920000*%
%TD*%
%TA.AperFunction,Conductor*%
%ADD14C,0.200000*%
%TD*%
G04 APERTURE END LIST*
D10*
%TO.P,D25,1,Pin_1*%
%TO.N,Net-(D25-Pin_1)*%
X27200000Y-38000000D03*
%TD*%
%TO.P,D24,1,Pin_1*%
%TO.N,Net-(D24-Pin_1)*%
X25400000Y-38000000D03*
%TD*%
%TO.P,D22,1,Pin_1*%
%TO.N,Net-(D22-Pin_1)*%
X22000000Y-38000000D03*
%TD*%
%TO.P,D21,1,Pin_1*%
%TO.N,Net-(D21-Pin_1)*%
X20200000Y-38000000D03*
%TD*%
%TO.P,D20,1,Pin_1*%
%TO.N,Net-(D20-Pin_1)*%
X18600000Y-38000000D03*
%TD*%
%TO.P,D19,1,Pin_1*%
%TO.N,Net-(D19-Pin_1)*%
X16800000Y-38000000D03*
%TD*%
%TO.P,D17,1,Pin_1*%
%TO.N,Net-(D17-Pin_1)*%
X13400000Y-38000000D03*
%TD*%
%TO.P,D16,1,Pin_1*%
%TO.N,Net-(D16-Pin_1)*%
X11600000Y-38000000D03*
%TD*%
%TO.P,D15,1,Pin_1*%
%TO.N,Net-(D15-Pin_1)*%
X10000000Y-38000000D03*
%TD*%
%TO.P,D14,1,Pin_1*%
%TO.N,Net-(D14-Pin_1)*%
X8200000Y-38000000D03*
%TD*%
D11*
%TO.P,D13,1,Pin_1*%
%TO.N,Net-(D13-Pin_1)*%
X28000000Y-38000000D03*
%TD*%
%TO.P,D8,1,Pin_1*%
%TO.N,Net-(D8-Pin_1)*%
X19400000Y-38000000D03*
%TD*%
%TO.P,D3,1,Pin_1*%
%TO.N,Net-(D3-Pin_1)*%
X10800000Y-38000000D03*
%TD*%
%TO.P,J25,1,Pin_1*%
%TO.N,Net-(J25-Pin_1)*%
X8300000Y-25500000D03*
%TD*%
%TO.P,J24,1,Pin_1*%
%TO.N,Net-(J24-Pin_1)*%
X9900000Y-25500000D03*
%TD*%
%TO.P,J23,1,Pin_1*%
%TO.N,Net-(J23-Pin_1)*%
X11500000Y-25500000D03*
%TD*%
%TO.P,J22,1,Pin_1*%
%TO.N,Net-(J22-Pin_1)*%
X13100000Y-25500000D03*
%TD*%
%TO.P,J21,1,Pin_1*%
%TO.N,Net-(J21-Pin_1)*%
X14700000Y-25500000D03*
%TD*%
%TO.P,J20,1,Pin_1*%
%TO.N,Net-(J20-Pin_1)*%
X16300000Y-25500000D03*
%TD*%
%TO.P,J19,1,Pin_1*%
%TO.N,Net-(J19-Pin_1)*%
X17900000Y-25500000D03*
%TD*%
%TO.P,J18,1,Pin_1*%
%TO.N,Net-(J18-Pin_1)*%
X19500000Y-25500000D03*
%TD*%
%TO.P,J17,1,Pin_1*%
%TO.N,Net-(J17-Pin_1)*%
X21100000Y-25500000D03*
%TD*%
%TO.P,J16,1,Pin_1*%
%TO.N,Net-(J16-Pin_1)*%
X22700000Y-25500000D03*
%TD*%
%TO.P,J15,1,Pin_1*%
%TO.N,Net-(J15-Pin_1)*%
X24300000Y-25500000D03*
%TD*%
%TO.P,J14,1,Pin_1*%
%TO.N,Net-(J14-Pin_1)*%
X25900000Y-25500000D03*
%TD*%
D10*
%TO.P,J13,1,Pin_1*%
%TO.N,Net-(J13-Pin_1)*%
X7500000Y-25500000D03*
%TD*%
%TO.P,J12,1,Pin_1*%
%TO.N,Net-(J12-Pin_1)*%
X9100000Y-25500000D03*
%TD*%
%TO.P,J11,1,Pin_1*%
%TO.N,Net-(J11-Pin_1)*%
X10700000Y-25500000D03*
%TD*%
%TO.P,J10,1,Pin_1*%
%TO.N,Net-(J10-Pin_1)*%
X12300000Y-25500000D03*
%TD*%
%TO.P,J9,1,Pin_1*%
%TO.N,Net-(J9-Pin_1)*%
X13900000Y-25500000D03*
%TD*%
%TO.P,J8,1,Pin_1*%
%TO.N,Net-(J8-Pin_1)*%
X15500000Y-25500000D03*
%TD*%
%TO.P,J7,1,Pin_1*%
%TO.N,Net-(J7-Pin_1)*%
X17100000Y-25500000D03*
%TD*%
%TO.P,J6,1,Pin_1*%
%TO.N,Net-(J6-Pin_1)*%
X18700000Y-25500000D03*
%TD*%
%TO.P,J5,1,Pin_1*%
%TO.N,Net-(J5-Pin_1)*%
X20300000Y-25500000D03*
%TD*%
%TO.P,J4,1,Pin_1*%
%TO.N,Net-(J4-Pin_1)*%
X21900000Y-25500000D03*
%TD*%
%TO.P,J3,1,Pin_1*%
%TO.N,Net-(J3-Pin_1)*%
X23500000Y-25500000D03*
%TD*%
%TO.P,J2,1,Pin_1*%
%TO.N,Net-(J2-Pin_1)*%
X25100000Y-25500000D03*
%TD*%
%TO.P,J1,1,Pin_1*%
%TO.N,Net-(J1-Pin_1)*%
X26700000Y-25500000D03*
%TD*%
D11*
%TO.P,D23,1,Pin_1*%
%TO.N,Net-(D23-Pin_1)*%
X23700000Y-38000000D03*
%TD*%
%TO.P,D18,1,Pin_1*%
%TO.N,Net-(D18-Pin_1)*%
X15100000Y-38000000D03*
%TD*%
D10*
%TO.P,D12,1,Pin_1*%
%TO.N,Net-(D12-Pin_1)*%
X26300000Y-38000000D03*
%TD*%
%TO.P,D11,1,Pin_1*%
%TO.N,Net-(D11-Pin_1)*%
X24500000Y-38000000D03*
%TD*%
%TO.P,D10,1,Pin_1*%
%TO.N,Net-(D10-Pin_1)*%
X22900000Y-38000000D03*
%TD*%
%TO.P,D9,1,Pin_1*%
%TO.N,Net-(D9-Pin_1)*%
X21100000Y-38000000D03*
%TD*%
%TO.P,D7,1,Pin_1*%
%TO.N,Net-(D7-Pin_1)*%
X17700000Y-38000000D03*
%TD*%
%TO.P,D6,1,Pin_1*%
%TO.N,Net-(D6-Pin_1)*%
X15900000Y-38000000D03*
%TD*%
%TO.P,D5,1,Pin_1*%
%TO.N,Net-(D5-Pin_1)*%
X14300000Y-38000000D03*
%TD*%
%TO.P,D4,1,Pin_1*%
%TO.N,Net-(D4-Pin_1)*%
X12500000Y-38000000D03*
%TD*%
%TO.P,D2,1,Pin_1*%
%TO.N,Net-(D2-Pin_1)*%
X9100000Y-38000000D03*
%TD*%
%TO.P,D1,1,Pin_1*%
%TO.N,Net-(D1-Pin_1)*%
X7300000Y-38000000D03*
%TD*%
D12*
%TO.P,H1,1,1*%
%TO.N,GND*%
X9250000Y-50750000D03*
%TD*%
%TO.P,H4,1,1*%
%TO.N,GND*%
X9250000Y-12750000D03*
%TD*%
%TO.P,H3,1,1*%
%TO.N,GND*%
X26250000Y-50750000D03*
%TD*%
%TO.P,H2,1,1*%
%TO.N,GND*%
X26250000Y-12750000D03*
%TD*%
D13*
%TO.P,J99,1,1*%
%TO.N,Net-(J1-Pin_1)*%
X25370000Y-5374500D03*
%TO.P,J99,2,2*%
%TO.N,Net-(J2-Pin_1)*%
X24100000Y-5374500D03*
%TO.P,J99,3,3*%
%TO.N,Net-(J3-Pin_1)*%
X22830000Y-5374500D03*
%TO.P,J99,4,4*%
%TO.N,Net-(J4-Pin_1)*%
X21560000Y-5374500D03*
%TO.P,J99,5,5*%
%TO.N,Net-(J5-Pin_1)*%
X20290000Y-5374500D03*
%TO.P,J99,6,6*%
%TO.N,Net-(J6-Pin_1)*%
X19020000Y-5374500D03*
%TO.P,J99,7,7*%
%TO.N,Net-(J7-Pin_1)*%
X17750000Y-5374500D03*
%TO.P,J99,8,8*%
%TO.N,Net-(J8-Pin_1)*%
X16480000Y-5374500D03*
%TO.P,J99,9,9*%
%TO.N,Net-(J9-Pin_1)*%
X15210000Y-5374500D03*
%TO.P,J99,10,10*%
%TO.N,Net-(J10-Pin_1)*%
X13940000Y-5374500D03*
%TO.P,J99,11,11*%
%TO.N,Net-(J11-Pin_1)*%
X12670000Y-5374500D03*
%TO.P,J99,12,12*%
%TO.N,Net-(J12-Pin_1)*%
X11400000Y-5374500D03*
%TO.P,J99,13,13*%
%TO.N,Net-(J13-Pin_1)*%
X10130000Y-5374500D03*
%TO.P,J99,14,P14*%
%TO.N,Net-(J14-Pin_1)*%
X24735000Y-6474500D03*
%TO.P,J99,15,P15*%
%TO.N,Net-(J15-Pin_1)*%
X23465000Y-6474500D03*
%TO.P,J99,16,P16*%
%TO.N,Net-(J16-Pin_1)*%
X22195000Y-6474500D03*
%TO.P,J99,17,P17*%
%TO.N,Net-(J17-Pin_1)*%
X20925000Y-6474500D03*
%TO.P,J99,18,P18*%
%TO.N,Net-(J18-Pin_1)*%
X19655000Y-6474500D03*
%TO.P,J99,19,P19*%
%TO.N,Net-(J19-Pin_1)*%
X18385000Y-6474500D03*
%TO.P,J99,20,P20*%
%TO.N,Net-(J20-Pin_1)*%
X17115000Y-6474500D03*
%TO.P,J99,21,P21*%
%TO.N,Net-(J21-Pin_1)*%
X15845000Y-6474500D03*
%TO.P,J99,22,P22*%
%TO.N,Net-(J22-Pin_1)*%
X14575000Y-6474500D03*
%TO.P,J99,23,P23*%
%TO.N,Net-(J23-Pin_1)*%
X13305000Y-6474500D03*
%TO.P,J99,24,P24*%
%TO.N,Net-(J24-Pin_1)*%
X12035000Y-6474500D03*
%TO.P,J99,25,P25*%
%TO.N,Net-(J25-Pin_1)*%
X10765000Y-6474500D03*
%TD*%
%TO.P,J26,1,1*%
%TO.N,Net-(D1-Pin_1)*%
X10130000Y-58124500D03*
%TO.P,J26,2,2*%
%TO.N,Net-(D2-Pin_1)*%
X11400000Y-58124500D03*
%TO.P,J26,3,3*%
%TO.N,Net-(D3-Pin_1)*%
X12670000Y-58124500D03*
%TO.P,J26,4,4*%
%TO.N,Net-(D4-Pin_1)*%
X13940000Y-58124500D03*
%TO.P,J26,5,5*%
%TO.N,Net-(D5-Pin_1)*%
X15210000Y-58124500D03*
%TO.P,J26,6,6*%
%TO.N,Net-(D6-Pin_1)*%
X16480000Y-58124500D03*
%TO.P,J26,7,7*%
%TO.N,Net-(D7-Pin_1)*%
X17750000Y-58124500D03*
%TO.P,J26,8,8*%
%TO.N,Net-(D8-Pin_1)*%
X19020000Y-58124500D03*
%TO.P,J26,9,9*%
%TO.N,Net-(D9-Pin_1)*%
X20290000Y-58124500D03*
%TO.P,J26,10,10*%
%TO.N,Net-(D10-Pin_1)*%
X21560000Y-58124500D03*
%TO.P,J26,11,11*%
%TO.N,Net-(D11-Pin_1)*%
X22830000Y-58124500D03*
%TO.P,J26,12,12*%
%TO.N,Net-(D12-Pin_1)*%
X24100000Y-58124500D03*
%TO.P,J26,13,13*%
%TO.N,Net-(D13-Pin_1)*%
X25370000Y-58124500D03*
%TO.P,J26,14,P14*%
%TO.N,Net-(D14-Pin_1)*%
X10765000Y-57024500D03*
%TO.P,J26,15,P15*%
%TO.N,Net-(D15-Pin_1)*%
X12035000Y-57024500D03*
%TO.P,J26,16,P16*%
%TO.N,Net-(D16-Pin_1)*%
X13305000Y-57024500D03*
%TO.P,J26,17,P17*%
%TO.N,Net-(D17-Pin_1)*%
X14575000Y-57024500D03*
%TO.P,J26,18,P18*%
%TO.N,Net-(D18-Pin_1)*%
X15845000Y-57024500D03*
%TO.P,J26,19,P19*%
%TO.N,Net-(D19-Pin_1)*%
X17115000Y-57024500D03*
%TO.P,J26,20,P20*%
%TO.N,Net-(D20-Pin_1)*%
X18385000Y-57024500D03*
%TO.P,J26,21,P21*%
%TO.N,Net-(D21-Pin_1)*%
X19655000Y-57024500D03*
%TO.P,J26,22,P22*%
%TO.N,Net-(D22-Pin_1)*%
X20925000Y-57024500D03*
%TO.P,J26,23,P23*%
%TO.N,Net-(D23-Pin_1)*%
X22195000Y-57024500D03*
%TO.P,J26,24,P24*%
%TO.N,Net-(D24-Pin_1)*%
X23465000Y-57024500D03*
%TO.P,J26,25,P25*%
%TO.N,Net-(D25-Pin_1)*%
X24735000Y-57024500D03*
%TD*%
D14*
%TO.N,Net-(D1-Pin_1)*%
X7300000Y-40150000D02*
X2240000Y-45210000D01*
X2240000Y-45210000D02*
X2240000Y-50234500D01*
X7300000Y-38000000D02*
X7300000Y-40150000D01*
X2240000Y-50234500D02*
X10130000Y-58124500D01*
%TO.N,Net-(D14-Pin_1)*%
X8200000Y-39650000D02*
X2500000Y-45350000D01*
X8200000Y-38000000D02*
X8200000Y-39650000D01*
X2500000Y-50126804D02*
X2500000Y-45350000D01*
%TO.N,Net-(D2-Pin_1)*%
X9100000Y-39300000D02*
X2830000Y-45570000D01*
X9100000Y-38000000D02*
X9100000Y-39300000D01*
X2830000Y-50089108D02*
X2830000Y-45570000D01*
%TO.N,Net-(D15-Pin_1)*%
X3090000Y-45970000D02*
X10000000Y-39060000D01*
X10000000Y-39060000D02*
X10000000Y-38000000D01*
%TO.N,Net-(D3-Pin_1)*%
X10800000Y-39200000D02*
X10800000Y-38000000D01*
X3350000Y-49873716D02*
X3350000Y-46650000D01*
X3350000Y-46650000D02*
X10800000Y-39200000D01*
X9286284Y-55810000D02*
X3350000Y-49873716D01*
X11697313Y-55810000D02*
X9286284Y-55810000D01*
X12670000Y-56782687D02*
X11697313Y-55810000D01*
X12670000Y-58124500D02*
X12670000Y-56782687D01*
%TO.N,Net-(D16-Pin_1)*%
X11810500Y-55530000D02*
X13305000Y-57024500D01*
X9373980Y-55530000D02*
X11810500Y-55530000D01*
X3610000Y-47190000D02*
X3610000Y-49766020D01*
X11600000Y-39200000D02*
X3610000Y-47190000D01*
X3610000Y-49766020D02*
X9373980Y-55530000D01*
X11600000Y-38000000D02*
X11600000Y-39200000D01*
%TO.N,Net-(D4-Pin_1)*%
X12500000Y-38000000D02*
X12500000Y-39647696D01*
X12500000Y-39647696D02*
X5943848Y-46203848D01*
X5943848Y-46203848D02*
X3870000Y-48277696D01*
%TO.N,Net-(D17-Pin_1)*%
X4714686Y-50135314D02*
X4714686Y-49285314D01*
X12560500Y-55010000D02*
X9589372Y-55010000D01*
X9589372Y-55010000D02*
X4714686Y-50135314D01*
X4714686Y-49285314D02*
X13400000Y-40600000D01*
X14575000Y-57024500D02*
X12560500Y-55010000D01*
X13400000Y-40600000D02*
X13400000Y-38000000D01*
%TO.N,Net-(D5-Pin_1)*%
X14300000Y-41670000D02*
X14300000Y-38000000D01*
X11630000Y-44340000D02*
X14300000Y-41670000D01*
%TO.N,Net-(D18-Pin_1)*%
X15100000Y-41930000D02*
X15100000Y-38000000D01*
X11890000Y-45140000D02*
X15100000Y-41930000D01*
%TO.N,Net-(D6-Pin_1)*%
X15900000Y-44510000D02*
X12170000Y-48240000D01*
X15900000Y-38000000D02*
X15900000Y-44510000D01*
X12170000Y-51802304D02*
X12170000Y-48240000D01*
%TO.N,Net-(D19-Pin_1)*%
X16500000Y-39070000D02*
X16500000Y-44420000D01*
X16800000Y-38770000D02*
X16500000Y-39070000D01*
X16800000Y-38000000D02*
X16800000Y-38770000D01*
X12430000Y-48490000D02*
X16500000Y-44420000D01*
%TO.N,Net-(D7-Pin_1)*%
X17700000Y-39140000D02*
X21610000Y-43050000D01*
X17700000Y-38000000D02*
X17700000Y-39140000D01*
X21610000Y-53004608D02*
X21610000Y-48050000D01*
X21610000Y-43050000D02*
X21610000Y-48050000D01*
%TO.N,Net-(D20-Pin_1)*%
X18600000Y-39200000D02*
X18600000Y-38000000D01*
X21870000Y-42470000D02*
X18600000Y-39200000D01*
X21870000Y-46910000D02*
X21870000Y-42470000D01*
%TO.N,Net-(D8-Pin_1)*%
X21393848Y-40863848D02*
X19400000Y-38870000D01*
X22670000Y-42037696D02*
X21496152Y-40863848D01*
X19400000Y-38870000D02*
X19400000Y-38000000D01*
X22670000Y-52680000D02*
X22670000Y-42037696D01*
X19020000Y-56330000D02*
X22670000Y-52680000D01*
X21496152Y-40863848D02*
X21393848Y-40863848D01*
X19020000Y-58124500D02*
X19020000Y-56330000D01*
%TO.N,Net-(D21-Pin_1)*%
X20200000Y-39200000D02*
X20200000Y-38000000D01*
X24632697Y-43632697D02*
X20200000Y-39200000D01*
X30640000Y-52420000D02*
X30640000Y-44776176D01*
X28720000Y-54340000D02*
X30640000Y-52420000D01*
X30640000Y-44776176D02*
X29496521Y-43632697D01*
X22339501Y-54339999D02*
X28720000Y-54340000D01*
X19655000Y-57024500D02*
X22339501Y-54339999D01*
X29496521Y-43632697D02*
X24632697Y-43632697D01*
%TO.N,Net-(D9-Pin_1)*%
X20275000Y-56797687D02*
X20275000Y-58109500D01*
X30900000Y-52576128D02*
X28876128Y-54600000D01*
X22472687Y-54600000D02*
X20275000Y-56797687D01*
X25272697Y-43372697D02*
X29604217Y-43372697D01*
X29604217Y-43372697D02*
X30900000Y-44668480D01*
X21100000Y-39200000D02*
X25272697Y-43372697D01*
X20275000Y-58109500D02*
X20290000Y-58124500D01*
X30900000Y-44668480D02*
X30900000Y-52576128D01*
X28876128Y-54600000D02*
X22472687Y-54600000D01*
X21100000Y-38000000D02*
X21100000Y-39200000D01*
%TO.N,Net-(D22-Pin_1)*%
X25912697Y-43112697D02*
X26750000Y-43112697D01*
X22000000Y-39200000D02*
X25912697Y-43112697D01*
X22000000Y-38000000D02*
X22000000Y-39200000D01*
X26750000Y-43112697D02*
X27350000Y-43112697D01*
%TO.N,Net-(D10-Pin_1)*%
X26552697Y-42852697D02*
X28810000Y-42852697D01*
X22900000Y-38000000D02*
X22900000Y-39200000D01*
X28810000Y-42852697D02*
X28950000Y-42852697D01*
X22900000Y-39200000D02*
X26552697Y-42852697D01*
%TO.N,Net-(D23-Pin_1)*%
X31680000Y-43473088D02*
X31680000Y-44820000D01*
X29086912Y-40880000D02*
X31680000Y-43473088D01*
X25380000Y-40880000D02*
X29086912Y-40880000D01*
X23700000Y-39200000D02*
X25380000Y-40880000D01*
X23700000Y-38000000D02*
X23700000Y-39200000D01*
X31680000Y-44820000D02*
X31680000Y-52899216D01*
%TO.N,Net-(D11-Pin_1)*%
X24500000Y-38770000D02*
X24500000Y-38000000D01*
X31940000Y-53006912D02*
X31940000Y-43365392D01*
X23911536Y-55701151D02*
X29245761Y-55701151D01*
X29194608Y-40620000D02*
X26350000Y-40620000D01*
X26350000Y-40620000D02*
X24500000Y-38770000D01*
X22830000Y-56782687D02*
X23911536Y-55701151D01*
X22830000Y-58124500D02*
X22830000Y-56782687D01*
X29245761Y-55701151D02*
X31940000Y-53006912D01*
X31940000Y-43365392D02*
X29194608Y-40620000D01*
%TO.N,Net-(D24-Pin_1)*%
X24528348Y-55961152D02*
X23465000Y-57024500D01*
X32200000Y-53114608D02*
X29353456Y-55961152D01*
X29302304Y-40360000D02*
X32200000Y-43257696D01*
X26560000Y-40360000D02*
X29302304Y-40360000D01*
X32200000Y-43257696D02*
X32200000Y-53114608D01*
X29353456Y-55961152D02*
X24528348Y-55961152D01*
X25400000Y-39200000D02*
X26560000Y-40360000D01*
X25400000Y-38000000D02*
X25400000Y-39200000D01*
%TO.N,Net-(D12-Pin_1)*%
X26300000Y-39050000D02*
X26300000Y-38000000D01*
X32460000Y-43150000D02*
X29410000Y-40100000D01*
X32460000Y-53222304D02*
X32460000Y-43150000D01*
X24661535Y-56221152D02*
X29461152Y-56221152D01*
X29461152Y-56221152D02*
X32460000Y-53222304D01*
X24100000Y-58124500D02*
X24100000Y-56782687D01*
X24100000Y-56782687D02*
X24661535Y-56221152D01*
X29410000Y-40100000D02*
X27350000Y-40100000D01*
X27350000Y-40100000D02*
X26300000Y-39050000D01*
%TO.N,Net-(D13-Pin_1)*%
X32980000Y-42530000D02*
X32980000Y-53470000D01*
X28450000Y-38000000D02*
X32980000Y-42530000D01*
X28000000Y-38000000D02*
X28450000Y-38000000D01*
%TO.N,Net-(D25-Pin_1)*%
X27840000Y-39840000D02*
X27200000Y-39200000D01*
X29590000Y-39912304D02*
X29590000Y-39840000D01*
X29590000Y-39840000D02*
X27840000Y-39840000D01*
X27200000Y-39200000D02*
X27200000Y-38000000D01*
X32720000Y-43042304D02*
X29590000Y-39912304D01*
X32720000Y-53330000D02*
X32720000Y-43042304D01*
%TO.N,Net-(J1-Pin_1)*%
X26700000Y-19548088D02*
X30575000Y-15673088D01*
X26700000Y-25500000D02*
X26700000Y-19548088D01*
X30575000Y-15673088D02*
X30575000Y-9095000D01*
X26854500Y-5374500D02*
X30575000Y-9095000D01*
%TO.N,Net-(J14-Pin_1)*%
X27586804Y-6474500D02*
X24735000Y-6474500D01*
X30250000Y-9137696D02*
X27586804Y-6474500D01*
X30250000Y-15630392D02*
X30250000Y-9137696D01*
X25900000Y-19980392D02*
X30250000Y-15630392D01*
X25900000Y-25500000D02*
X25900000Y-19980392D01*
%TO.N,Net-(J2-Pin_1)*%
X29990000Y-15522696D02*
X29990000Y-15400000D01*
X25100000Y-20412696D02*
X29990000Y-15522696D01*
X25100000Y-25500000D02*
X25100000Y-20412696D01*
X29990000Y-15400000D02*
X29990000Y-9245392D01*
%TO.N,Net-(J15-Pin_1)*%
X27824608Y-7447696D02*
X24438196Y-7447696D01*
X29135000Y-8758088D02*
X27824608Y-7447696D01*
X24438196Y-7447696D02*
X23465000Y-6474500D01*
X24300000Y-20845000D02*
X29135000Y-16010000D01*
X29135000Y-16010000D02*
X29135000Y-8758088D01*
X24300000Y-25500000D02*
X24300000Y-20845000D01*
%TO.N,Net-(J3-Pin_1)*%
X28875000Y-15885000D02*
X23500000Y-21260000D01*
X23821383Y-7707696D02*
X27716912Y-7707696D01*
X27716912Y-7707696D02*
X28875000Y-8865784D01*
X23500000Y-21260000D02*
X23500000Y-25500000D01*
X22815000Y-6701313D02*
X23821383Y-7707696D01*
X22830000Y-5374500D02*
X22815000Y-5389500D01*
X22815000Y-5389500D02*
X22815000Y-6701313D01*
X28875000Y-8865784D02*
X28875000Y-15885000D01*
%TO.N,Net-(J16-Pin_1)*%
X22781383Y-7967696D02*
X22195000Y-7381313D01*
X27609216Y-7967696D02*
X22781383Y-7967696D01*
X28615000Y-8973480D02*
X27609216Y-7967696D01*
X22700000Y-21692304D02*
X28615000Y-15777304D01*
X28615000Y-15777304D02*
X28615000Y-8973480D01*
X22700000Y-25500000D02*
X22700000Y-21692304D01*
X22195000Y-7381313D02*
X22195000Y-6474500D01*
%TO.N,Net-(J4-Pin_1)*%
X21560000Y-7114009D02*
X21560000Y-5374500D01*
X22673688Y-8227697D02*
X21560000Y-7114009D01*
X28355000Y-9081176D02*
X27501520Y-8227696D01*
X27501520Y-8227696D02*
X22673688Y-8227697D01*
X21900000Y-22124608D02*
X28355000Y-15669608D01*
X21900000Y-25500000D02*
X21900000Y-22124608D01*
X28355000Y-15669608D02*
X28355000Y-9081176D01*
%TO.N,Net-(J17-Pin_1)*%
X22750000Y-14645392D02*
X22750000Y-8950038D01*
X21100000Y-16295392D02*
X22750000Y-14645392D01*
X21100000Y-25500000D02*
X21100000Y-16295392D01*
%TO.N,Net-(J5-Pin_1)*%
X20290000Y-6857734D02*
X20290000Y-5374500D01*
X20290000Y-24290000D02*
X20290000Y-16737696D01*
X20290000Y-16737696D02*
X21500000Y-15527696D01*
X20300000Y-24300000D02*
X20290000Y-24290000D01*
X21500000Y-15527696D02*
X21500000Y-8067734D01*
X21500000Y-8067734D02*
X20290000Y-6857734D01*
X20300000Y-25500000D02*
X20300000Y-24300000D01*
%TO.N,Net-(J18-Pin_1)*%
X21240000Y-8580000D02*
X19655000Y-6995000D01*
X21240000Y-15420000D02*
X21240000Y-8580000D01*
X19655000Y-6995000D02*
X19655000Y-6474500D01*
X19500000Y-25500000D02*
X19500000Y-17160000D01*
X19500000Y-17160000D02*
X21240000Y-15420000D01*
%TO.N,Net-(J6-Pin_1)*%
X20980000Y-9890000D02*
X19020000Y-7930000D01*
X20980000Y-15312304D02*
X20980000Y-9890000D01*
X19020000Y-7930000D02*
X19020000Y-5374500D01*
X18700000Y-17592304D02*
X20980000Y-15312304D01*
X18700000Y-25500000D02*
X18700000Y-17592304D01*
%TO.N,Net-(J19-Pin_1)*%
X14830000Y-10447696D02*
X18385000Y-6892696D01*
X18385000Y-6892696D02*
X18385000Y-6474500D01*
X14830000Y-16320000D02*
X14830000Y-10447696D01*
X17900000Y-19390000D02*
X14830000Y-16320000D01*
X17900000Y-25500000D02*
X17900000Y-19390000D01*
%TO.N,Net-(J7-Pin_1)*%
X16520000Y-23430000D02*
X17100000Y-24010000D01*
X17100000Y-24010000D02*
X17100000Y-25500000D01*
X14570000Y-17390000D02*
X16520000Y-19340000D01*
X17750000Y-7160000D02*
X14570000Y-10340000D01*
X16520000Y-19340000D02*
X16520000Y-23430000D01*
X17750000Y-5374500D02*
X17750000Y-7160000D01*
X14570000Y-10340000D02*
X14570000Y-17390000D01*
%TO.N,Net-(J20-Pin_1)*%
X14310000Y-9279500D02*
X17115000Y-6474500D01*
X15280000Y-19440000D02*
X14310000Y-18470000D01*
X15280000Y-23570000D02*
X15280000Y-19440000D01*
X14310000Y-18470000D02*
X14310000Y-9279500D01*
X16300000Y-25500000D02*
X16300000Y-24590000D01*
X16300000Y-24590000D02*
X15280000Y-23570000D01*
%TO.N,Net-(J8-Pin_1)*%
X16480000Y-6716313D02*
X16480000Y-5374500D01*
X14050000Y-23150000D02*
X14050000Y-9146313D01*
X14050000Y-9146313D02*
X16480000Y-6716313D01*
X15500000Y-24600000D02*
X14050000Y-23150000D01*
X15500000Y-25500000D02*
X15500000Y-24600000D01*
%TO.N,Net-(J21-Pin_1)*%
X14137446Y-7647446D02*
X14672054Y-7647446D01*
X12800000Y-8984892D02*
X14137446Y-7647446D01*
X14672054Y-7647446D02*
X15845000Y-6474500D01*
X12800000Y-22780000D02*
X12800000Y-8984892D01*
X14700000Y-24680000D02*
X12800000Y-22780000D01*
X14700000Y-25500000D02*
X14700000Y-24680000D01*
%TO.N,Net-(J9-Pin_1)*%
X15210000Y-6716313D02*
X15210000Y-5374500D01*
X11550000Y-22380000D02*
X11550000Y-9867196D01*
X11550000Y-9867196D02*
X14233598Y-7183598D01*
X14233598Y-7183598D02*
X14742715Y-7183598D01*
X13900000Y-24730000D02*
X11550000Y-22380000D01*
X14742715Y-7183598D02*
X15210000Y-6716313D01*
X13900000Y-25500000D02*
X13900000Y-24730000D01*
%TO.N,Net-(J22-Pin_1)*%
X10223848Y-21613848D02*
X10223848Y-21020000D01*
X13100000Y-24490000D02*
X10223848Y-21613848D01*
X13100000Y-25500000D02*
X13100000Y-24490000D01*
X10223848Y-17789632D02*
X10223848Y-21020000D01*
%TO.N,Net-(J10-Pin_1)*%
X13940000Y-6716313D02*
X13940000Y-5374500D01*
X12521367Y-8134946D02*
X13940000Y-6716313D01*
X7624946Y-8134946D02*
X12521367Y-8134946D01*
X7020000Y-8739892D02*
X7624946Y-8134946D01*
X9050000Y-16870000D02*
X7020000Y-14840000D01*
X9050000Y-21969999D02*
X9050000Y-16870000D01*
X7020000Y-14840000D02*
X7020000Y-8739892D01*
X10399999Y-22399999D02*
X9480000Y-22399999D01*
X9480000Y-22399999D02*
X9050000Y-21969999D01*
X12300000Y-24300000D02*
X10399999Y-22399999D01*
X12300000Y-25500000D02*
X12300000Y-24300000D01*
%TO.N,Net-(J23-Pin_1)*%
X11904999Y-7874501D02*
X13305000Y-6474500D01*
X7517696Y-7874500D02*
X11904999Y-7874501D01*
X6760000Y-16510000D02*
X6760000Y-8632196D01*
X7340000Y-17090000D02*
X6760000Y-16510000D01*
X8510000Y-22659999D02*
X7340000Y-21489999D01*
X9859999Y-22659999D02*
X8510000Y-22659999D01*
X7340000Y-21489999D02*
X7340000Y-17090000D01*
X6760000Y-8632196D02*
X7517696Y-7874500D01*
X11500000Y-25500000D02*
X11500000Y-24300000D01*
X11500000Y-24300000D02*
X9859999Y-22659999D01*
%TO.N,Net-(J11-Pin_1)*%
X10700000Y-24732304D02*
X10700000Y-25500000D01*
X7080000Y-22920000D02*
X8887696Y-22920000D01*
X8887696Y-22920000D02*
X10700000Y-24732304D01*
X7410000Y-7614500D02*
X6500000Y-8524500D01*
X6500000Y-22340000D02*
X7080000Y-22920000D01*
X11771812Y-7614501D02*
X7410000Y-7614500D01*
X12670000Y-6716313D02*
X11771812Y-7614501D01*
X12670000Y-5374500D02*
X12670000Y-6716313D01*
X6500000Y-8524500D02*
X6500000Y-22340000D01*
%TO.N,Net-(J24-Pin_1)*%
X5240000Y-21850000D02*
X5240000Y-9407696D01*
X6580000Y-23190000D02*
X5240000Y-21850000D01*
X5240000Y-9407696D02*
X7293196Y-7354500D01*
X11155000Y-7354500D02*
X12035000Y-6474500D01*
X8789999Y-23189999D02*
X6580000Y-23190000D01*
X9900000Y-25500000D02*
X9900000Y-24300000D01*
X9900000Y-24300000D02*
X8789999Y-23189999D01*
X7293196Y-7354500D02*
X11155000Y-7354500D01*
%TO.N,Net-(J12-Pin_1)*%
X11400000Y-6716313D02*
X11400000Y-5374500D01*
X11021813Y-7094500D02*
X11400000Y-6716313D01*
X7234500Y-7094500D02*
X11021813Y-7094500D01*
X7210000Y-7070000D02*
X7234500Y-7094500D01*
X6220000Y-23460000D02*
X3970000Y-21210000D01*
X3970000Y-10310000D02*
X7210000Y-7070000D01*
X8250000Y-23450000D02*
X6230000Y-23450000D01*
X6230000Y-23450000D02*
X6220000Y-23460000D01*
X9100000Y-25500000D02*
X9100000Y-24300000D01*
X9100000Y-24300000D02*
X8250000Y-23450000D01*
X3970000Y-21210000D02*
X3970000Y-10310000D01*
%TO.N,Net-(J25-Pin_1)*%
X7415500Y-6474500D02*
X10765000Y-6474500D01*
X2720000Y-11170000D02*
X7415500Y-6474500D01*
X2720000Y-21080000D02*
X2720000Y-11170000D01*
X7810000Y-23810000D02*
X5450000Y-23810000D01*
X8300000Y-24300000D02*
X7810000Y-23810000D01*
X8300000Y-25500000D02*
X8300000Y-24300000D01*
X5450000Y-23810000D02*
X2720000Y-21080000D01*
%TO.N,Net-(J13-Pin_1)*%
X6090000Y-25500000D02*
X7500000Y-25500000D01*
X2459999Y-11062305D02*
X2460000Y-21870000D01*
X8147804Y-5374500D02*
X2459999Y-11062305D01*
X10130000Y-5374500D02*
X8147804Y-5374500D01*
X2460000Y-21870000D02*
X6090000Y-25500000D01*
%TO.N,Net-(D13-Pin_1)*%
X28325500Y-58124500D02*
X25370000Y-58124500D01*
X32980000Y-53470000D02*
X28325500Y-58124500D01*
%TO.N,Net-(D23-Pin_1)*%
X23779500Y-55440000D02*
X22195000Y-57024500D01*
X29139216Y-55440000D02*
X23779500Y-55440000D01*
X31680000Y-52899216D02*
X29139216Y-55440000D01*
%TO.N,Net-(D10-Pin_1)*%
X28950000Y-42852697D02*
X29819609Y-42852697D01*
%TO.N,Net-(D22-Pin_1)*%
X29711913Y-43112697D02*
X27350000Y-43112697D01*
%TO.N,Net-(D7-Pin_1)*%
X20137304Y-54477304D02*
X21610000Y-53004608D01*
X20055383Y-54477304D02*
X20137304Y-54477304D01*
X17750000Y-56782687D02*
X20055383Y-54477304D01*
X17750000Y-58124500D02*
X17750000Y-56782687D01*
%TO.N,Net-(D6-Pin_1)*%
X16480000Y-56112304D02*
X12170000Y-51802304D01*
X16480000Y-58124500D02*
X16480000Y-56112304D01*
%TO.N,Net-(D18-Pin_1)*%
X11890000Y-51890000D02*
X11890000Y-45140000D01*
X15845000Y-55845000D02*
X11890000Y-51890000D01*
X15845000Y-57024500D02*
X15845000Y-55845000D01*
%TO.N,Net-(D5-Pin_1)*%
X11630000Y-53202687D02*
X11630000Y-44340000D01*
X15210000Y-56782687D02*
X11630000Y-53202687D01*
X15210000Y-58124500D02*
X15210000Y-56782687D01*
%TO.N,Net-(D4-Pin_1)*%
X13940000Y-56782687D02*
X13940000Y-58124500D01*
X12427313Y-55270000D02*
X13940000Y-56782687D01*
X9481676Y-55270000D02*
X12427313Y-55270000D01*
X3870000Y-49658324D02*
X9481676Y-55270000D01*
X3870000Y-48277696D02*
X3870000Y-49658324D01*
%TO.N,Net-(D2-Pin_1)*%
X10951867Y-56334554D02*
X9075446Y-56334554D01*
X11400000Y-56782687D02*
X10951867Y-56334554D01*
X11400000Y-58124500D02*
X11400000Y-56782687D01*
X9075446Y-56334554D02*
X2830000Y-50089108D01*
%TO.N,Net-(D14-Pin_1)*%
X9397696Y-57024500D02*
X2500000Y-50126804D01*
X10765000Y-57024500D02*
X9397696Y-57024500D01*
%TO.N,Net-(J22-Pin_1)*%
X10223848Y-17676152D02*
X10223848Y-17789632D01*
X10223848Y-17676152D02*
X7280000Y-14732304D01*
%TO.N,Net-(J17-Pin_1)*%
X20925000Y-7125038D02*
X22750000Y-8950038D01*
X20925000Y-6474500D02*
X20925000Y-7125038D01*
%TO.N,Net-(J1-Pin_1)*%
X25370000Y-5374500D02*
X26854500Y-5374500D01*
%TO.N,Net-(D10-Pin_1)*%
X31420000Y-44453088D02*
X31420000Y-52791520D01*
X31420000Y-52791520D02*
X29031520Y-55180000D01*
X29819609Y-42852697D02*
X31420000Y-44453088D01*
X21560000Y-56782687D02*
X21560000Y-58124500D01*
X23162687Y-55180000D02*
X21560000Y-56782687D01*
X29031520Y-55180000D02*
X23162687Y-55180000D01*
%TO.N,Net-(D15-Pin_1)*%
X12009509Y-57024500D02*
X11055009Y-56070000D01*
X3090000Y-49981412D02*
X3090000Y-45970000D01*
X12035000Y-57024500D02*
X12009509Y-57024500D01*
X11055009Y-56070000D02*
X9178588Y-56070000D01*
X9178588Y-56070000D02*
X3090000Y-49981412D01*
%TO.N,Net-(D19-Pin_1)*%
X17115000Y-56379608D02*
X12430000Y-51694608D01*
X17115000Y-57024500D02*
X17115000Y-56379608D01*
X12430000Y-51694608D02*
X12430000Y-48490000D01*
%TO.N,Net-(D20-Pin_1)*%
X18385000Y-56597304D02*
X18385000Y-57024500D01*
X21870000Y-53112304D02*
X18385000Y-56597304D01*
X21870000Y-46910000D02*
X21870000Y-53112304D01*
%TO.N,Net-(D22-Pin_1)*%
X20950491Y-57024500D02*
X23114991Y-54860000D01*
X31160000Y-44560784D02*
X29711913Y-43112697D01*
X28983824Y-54860000D02*
X31160000Y-52683824D01*
X31160000Y-52683824D02*
X31160000Y-44560784D01*
X23114991Y-54860000D02*
X28983824Y-54860000D01*
X20925000Y-57024500D02*
X20950491Y-57024500D01*
%TO.N,Net-(D25-Pin_1)*%
X24735000Y-57024500D02*
X29025500Y-57024500D01*
X29025500Y-57024500D02*
X32720000Y-53330000D01*
%TO.N,Net-(J22-Pin_1)*%
X12654554Y-8394946D02*
X14575000Y-6474500D01*
X7280000Y-14732304D02*
X7280000Y-8847588D01*
X7732642Y-8394946D02*
X12654554Y-8394946D01*
X7280000Y-8847588D02*
X7732642Y-8394946D01*
%TO.N,Net-(J2-Pin_1)*%
X29990000Y-9245392D02*
X27932304Y-7187696D01*
X27932304Y-7187696D02*
X24571383Y-7187696D01*
X24100000Y-6716313D02*
X24100000Y-5374500D01*
X24571383Y-7187696D02*
X24100000Y-6716313D01*
%TD*%
%TA.AperFunction,Conductor*%
%TO.N,GND*%
G36*
X11003133Y-43948615D02*
G01*
X11059066Y-43990487D01*
X11083483Y-44055951D01*
X11074360Y-44112249D01*
X11044956Y-44183237D01*
X11024317Y-44339999D01*
X11028439Y-44371301D01*
X11029500Y-44387487D01*
X11029500Y-49272689D01*
X11009815Y-49339728D01*
X10993181Y-49360370D01*
X10220560Y-50132991D01*
X10171652Y-50054001D01*
X10028069Y-49896499D01*
X9869610Y-49776835D01*
X10656039Y-48990406D01*
X10656039Y-48990405D01*
X10625708Y-48963805D01*
X10619271Y-48958866D01*
X10380788Y-48799516D01*
X10373774Y-48795466D01*
X10116528Y-48668607D01*
X10109038Y-48665505D01*
X9837436Y-48573307D01*
X9829608Y-48571210D01*
X9548293Y-48515253D01*
X9540271Y-48514197D01*
X9254043Y-48495437D01*
X9245957Y-48495437D01*
X8959728Y-48514197D01*
X8951706Y-48515253D01*
X8670391Y-48571210D01*
X8662563Y-48573307D01*
X8390961Y-48665505D01*
X8383471Y-48668607D01*
X8126225Y-48795466D01*
X8119211Y-48799516D01*
X7880723Y-48958869D01*
X7874295Y-48963801D01*
X7843958Y-48990405D01*
X7843958Y-48990406D01*
X8630388Y-49776836D01*
X8471931Y-49896499D01*
X8328348Y-50054001D01*
X8279439Y-50132991D01*
X7490406Y-49343958D01*
X7490405Y-49343958D01*
X7463801Y-49374295D01*
X7458869Y-49380723D01*
X7299516Y-49619211D01*
X7295466Y-49626225D01*
X7168607Y-49883471D01*
X7165505Y-49890961D01*
X7073307Y-50162563D01*
X7071210Y-50170391D01*
X7015253Y-50451706D01*
X7014197Y-50459728D01*
X6995437Y-50745956D01*
X6995437Y-50754043D01*
X7014197Y-51040271D01*
X7015253Y-51048294D01*
X7069180Y-51319403D01*
X7062953Y-51388995D01*
X7020090Y-51444172D01*
X6954200Y-51467416D01*
X6886203Y-51451348D01*
X6859882Y-51431275D01*
X5351505Y-49922898D01*
X5318020Y-49861575D01*
X5315186Y-49835217D01*
X5315186Y-49585411D01*
X5334871Y-49518372D01*
X5351505Y-49497730D01*
X8078333Y-46770902D01*
X10872120Y-43977114D01*
X10933441Y-43943631D01*
X11003133Y-43948615D01*
G37*
%TD.AperFunction*%
%TA.AperFunction,Conductor*%
G36*
X10993181Y-52139628D02*
G01*
X11026666Y-52200951D01*
X11029500Y-52227309D01*
X11029500Y-53155198D01*
X11028439Y-53171383D01*
X11024317Y-53202686D01*
X11029500Y-53242047D01*
X11044956Y-53359449D01*
X11105463Y-53505527D01*
X11201716Y-53630968D01*
X11226768Y-53650190D01*
X11238964Y-53660886D01*
X11775897Y-54197819D01*
X11809382Y-54259142D01*
X11804398Y-54328834D01*
X11762526Y-54384767D01*
X11697062Y-54409184D01*
X11688216Y-54409500D01*
X9889469Y-54409500D01*
X9822430Y-54389815D01*
X9801788Y-54373181D01*
X8568724Y-53140117D01*
X8535239Y-53078794D01*
X8540223Y-53009102D01*
X8582095Y-52953169D01*
X8647559Y-52928752D01*
X8680596Y-52930819D01*
X8951706Y-52984746D01*
X8959728Y-52985802D01*
X9245957Y-53004563D01*
X9254043Y-53004563D01*
X9540271Y-52985802D01*
X9548293Y-52984746D01*
X9829608Y-52928789D01*
X9837436Y-52926692D01*
X10109038Y-52834494D01*
X10116528Y-52831392D01*
X10373774Y-52704533D01*
X10380788Y-52700483D01*
X10619273Y-52541132D01*
X10625698Y-52536201D01*
X10656040Y-52509592D01*
X9869611Y-51723163D01*
X10028069Y-51603501D01*
X10171652Y-51445999D01*
X10220560Y-51367007D01*
X10993181Y-52139628D01*
G37*
%TD.AperFunction*%
%TA.AperFunction,Conductor*%
G36*
X23475703Y-43325384D02*
G01*
X23482181Y-43331416D01*
X24174496Y-44023731D01*
X24185191Y-44035926D01*
X24204414Y-44060979D01*
X24297625Y-44132501D01*
X24297626Y-44132502D01*
X24329856Y-44157233D01*
X24475935Y-44217741D01*
X24601395Y-44234258D01*
X24632696Y-44238379D01*
X24632696Y-44238378D01*
X24632697Y-44238379D01*
X24663999Y-44234257D01*
X24680184Y-44233197D01*
X29196424Y-44233197D01*
X29263463Y-44252882D01*
X29284104Y-44269515D01*
X30003182Y-44988593D01*
X30036666Y-45049914D01*
X30039500Y-45076272D01*
X30039499Y-52119902D01*
X30019814Y-52186941D01*
X30003180Y-52207583D01*
X28507584Y-53703180D01*
X28446261Y-53736665D01*
X28419903Y-53739499D01*
X22759097Y-53739499D01*
X22692058Y-53719814D01*
X22646303Y-53667010D01*
X22636359Y-53597852D01*
X22665384Y-53534296D01*
X22671416Y-53527818D01*
X22839785Y-53359449D01*
X23061043Y-53138190D01*
X23073223Y-53127509D01*
X23098282Y-53108282D01*
X23194536Y-52982841D01*
X23255044Y-52836762D01*
X23258638Y-52809463D01*
X23275683Y-52680000D01*
X23271561Y-52648689D01*
X23270500Y-52632504D01*
X23270500Y-50754043D01*
X23995437Y-50754043D01*
X24014197Y-51040271D01*
X24015253Y-51048293D01*
X24071210Y-51329608D01*
X24073307Y-51337436D01*
X24165505Y-51609038D01*
X24168607Y-51616528D01*
X24295466Y-51873774D01*
X24299516Y-51880788D01*
X24458866Y-52119271D01*
X24463805Y-52125708D01*
X24490405Y-52156039D01*
X24490406Y-52156039D01*
X25279438Y-51367007D01*
X25328348Y-51445999D01*
X25471931Y-51603501D01*
X25630388Y-51723163D01*
X24843959Y-52509592D01*
X24843959Y-52509593D01*
X24874291Y-52536194D01*
X24880728Y-52541133D01*
X25119211Y-52700483D01*
X25126225Y-52704533D01*
X25383471Y-52831392D01*
X25390961Y-52834494D01*
X25662563Y-52926692D01*
X25670391Y-52928789D01*
X25951706Y-52984746D01*
X25959728Y-52985802D01*
X26245957Y-53004563D01*
X26254043Y-53004563D01*
X26540271Y-52985802D01*
X26548293Y-52984746D01*
X26829608Y-52928789D01*
X26837436Y-52926692D01*
X27109038Y-52834494D01*
X27116528Y-52831392D01*
X27373774Y-52704533D01*
X27380788Y-52700483D01*
X27619273Y-52541132D01*
X27625698Y-52536201D01*
X27656040Y-52509592D01*
X26869611Y-51723163D01*
X27028069Y-51603501D01*
X27171652Y-51445999D01*
X27220560Y-51367008D01*
X28009592Y-52156040D01*
X28036201Y-52125698D01*
X28041132Y-52119273D01*
X28200483Y-51880788D01*
X28204533Y-51873774D01*
X28331392Y-51616528D01*
X28334494Y-51609038D01*
X28426692Y-51337436D01*
X28428789Y-51329608D01*
X28484746Y-51048293D01*
X28485802Y-51040271D01*
X28504563Y-50754043D01*
X28504563Y-50745956D01*
X28485802Y-50459728D01*
X28484746Y-50451706D01*
X28428789Y-50170391D01*
X28426692Y-50162563D01*
X28334494Y-49890961D01*
X28331392Y-49883471D01*
X28204533Y-49626225D01*
X28200483Y-49619211D01*
X28041133Y-49380728D01*
X28036194Y-49374291D01*
X28009592Y-49343959D01*
X27220560Y-50132991D01*
X27171652Y-50054001D01*
X27028069Y-49896499D01*
X26869610Y-49776835D01*
X27656039Y-48990406D01*
X27656039Y-48990405D01*
X27625708Y-48963805D01*
X27619271Y-48958866D01*
X27380788Y-48799516D01*
X27373774Y-48795466D01*
X27116528Y-48668607D01*
X27109038Y-48665505D01*
X26837436Y-48573307D01*
X26829608Y-48571210D01*
X26548293Y-48515253D01*
X26540271Y-48514197D01*
X26254043Y-48495437D01*
X26245957Y-48495437D01*
X25959728Y-48514197D01*
X25951706Y-48515253D01*
X25670391Y-48571210D01*
X25662563Y-48573307D01*
X25390961Y-48665505D01*
X25383471Y-48668607D01*
X25126225Y-48795466D01*
X25119211Y-48799516D01*
X24880723Y-48958869D01*
X24874295Y-48963801D01*
X24843958Y-48990405D01*
X24843958Y-48990406D01*
X25630388Y-49776836D01*
X25471931Y-49896499D01*
X25328348Y-50054001D01*
X25279439Y-50132991D01*
X24490406Y-49343958D01*
X24490405Y-49343958D01*
X24463801Y-49374295D01*
X24458869Y-49380723D01*
X24299516Y-49619211D01*
X24295466Y-49626225D01*
X24168607Y-49883471D01*
X24165505Y-49890961D01*
X24073307Y-50162563D01*
X24071210Y-50170391D01*
X24015253Y-50451706D01*
X24014197Y-50459728D01*
X23995437Y-50745956D01*
X23995437Y-50754043D01*
X23270500Y-50754043D01*
X23270500Y-43419097D01*
X23290185Y-43352058D01*
X23342989Y-43306303D01*
X23412147Y-43296359D01*
X23475703Y-43325384D01*
G37*
%TD.AperFunction*%
%TA.AperFunction,Conductor*%
G36*
X27268462Y-8847881D02*
G01*
X27289104Y-8864515D01*
X27718180Y-9293591D01*
X27751665Y-9354914D01*
X27754499Y-9381272D01*
X27754499Y-10817234D01*
X27734814Y-10884273D01*
X27682010Y-10930028D01*
X27612852Y-10939972D01*
X27561608Y-10920336D01*
X27380788Y-10799516D01*
X27373774Y-10795466D01*
X27116528Y-10668607D01*
X27109038Y-10665505D01*
X26837436Y-10573307D01*
X26829608Y-10571210D01*
X26548293Y-10515253D01*
X26540271Y-10514197D01*
X26254043Y-10495437D01*
X26245957Y-10495437D01*
X25959728Y-10514197D01*
X25951706Y-10515253D01*
X25670391Y-10571210D01*
X25662563Y-10573307D01*
X25390961Y-10665505D01*
X25383471Y-10668607D01*
X25126225Y-10795466D01*
X25119211Y-10799516D01*
X24880723Y-10958869D01*
X24874295Y-10963801D01*
X24843958Y-10990405D01*
X24843958Y-10990406D01*
X25630388Y-11776836D01*
X25471931Y-11896499D01*
X25328348Y-12054001D01*
X25279439Y-12132991D01*
X24490406Y-11343958D01*
X24490405Y-11343958D01*
X24463801Y-11374295D01*
X24458869Y-11380723D01*
X24299516Y-11619211D01*
X24295466Y-11626225D01*
X24168607Y-11883471D01*
X24165505Y-11890961D01*
X24073307Y-12162563D01*
X24071210Y-12170391D01*
X24015253Y-12451706D01*
X24014197Y-12459728D01*
X23995437Y-12745956D01*
X23995437Y-12754043D01*
X24014197Y-13040271D01*
X24015253Y-13048293D01*
X24071210Y-13329608D01*
X24073307Y-13337436D01*
X24165505Y-13609038D01*
X24168607Y-13616528D01*
X24295466Y-13873774D01*
X24299516Y-13880788D01*
X24458866Y-14119271D01*
X24463805Y-14125708D01*
X24490405Y-14156039D01*
X24490406Y-14156039D01*
X25279438Y-13367007D01*
X25328348Y-13445999D01*
X25471931Y-13603501D01*
X25630387Y-13723163D01*
X24843959Y-14509592D01*
X24843959Y-14509593D01*
X24874291Y-14536194D01*
X24880728Y-14541133D01*
X25119211Y-14700483D01*
X25126225Y-14704533D01*
X25383471Y-14831392D01*
X25390961Y-14834494D01*
X25662563Y-14926692D01*
X25670391Y-14928789D01*
X25951706Y-14984746D01*
X25959728Y-14985802D01*
X26245957Y-15004563D01*
X26254043Y-15004563D01*
X26540271Y-14985802D01*
X26548293Y-14984746D01*
X26829608Y-14928789D01*
X26837436Y-14926692D01*
X27109038Y-14834494D01*
X27116528Y-14831392D01*
X27373774Y-14704533D01*
X27380788Y-14700483D01*
X27561608Y-14579663D01*
X27628285Y-14558785D01*
X27695666Y-14577269D01*
X27742356Y-14629248D01*
X27754499Y-14682765D01*
X27754499Y-15369510D01*
X27734814Y-15436549D01*
X27718180Y-15457191D01*
X21912181Y-21263190D01*
X21850858Y-21296675D01*
X21781166Y-21291691D01*
X21725233Y-21249819D01*
X21700816Y-21184355D01*
X21700500Y-21175509D01*
X21700500Y-19459735D01*
X21700500Y-16595484D01*
X21720184Y-16528449D01*
X21736809Y-16507817D01*
X23141043Y-15103582D01*
X23153223Y-15092901D01*
X23178282Y-15073674D01*
X23274536Y-14948233D01*
X23335044Y-14802154D01*
X23350500Y-14684753D01*
X23355682Y-14645392D01*
X23351561Y-14614088D01*
X23350500Y-14597903D01*
X23350500Y-8997525D01*
X23351561Y-8981339D01*
X23357529Y-8936010D01*
X23385796Y-8872114D01*
X23444121Y-8833643D01*
X23480468Y-8828196D01*
X27201423Y-8828196D01*
X27268462Y-8847881D01*
G37*
%TD.AperFunction*%
%TD*%
M02*
